<svg width="541" height="302" xmlns="http://www.w3.org/2000/svg" xmlns:xlink="http://www.w3.org/1999/xlink" overflow="hidden"><defs><clipPath id="clip0"><rect x="0" y="0" width="541" height="302"/></clipPath></defs><g clip-path="url(#clip0)"><rect x="0" y="0" width="541" height="302.386" fill="#FFFFFF"/><path d="M214.5 158.179C214.5 139.439 247.855 124.248 289 124.248 330.145 124.248 363.5 139.439 363.5 158.179 363.5 176.919 330.145 192.11 289 192.11 247.855 192.11 214.5 176.919 214.5 158.179Z" stroke="#172C51" stroke-width="1.33457" stroke-miterlimit="8" fill="#FFF0BF" fill-rule="evenodd"/><text font-family="Yu Gothic,Yu Gothic_MSFontService,sans-serif" font-weight="700" font-size="14.6505" transform="matrix(1 0 0 0.997974 244.512 154)">深層能動学習</text><text font-family="Yu Gothic,Yu Gothic_MSFontService,sans-serif" font-weight="700" font-size="14.6505" transform="matrix(1 0 0 0.997974 266.532 171)">の課題</text><path d="M320.5 251.988C320.5 233.249 349.378 218.057 385 218.057 420.622 218.057 449.5 233.249 449.5 251.988 449.5 270.728 420.622 285.92 385 285.92 349.378 285.92 320.5 270.728 320.5 251.988Z" stroke="#172C51" stroke-width="1.33457" stroke-miterlimit="8" fill="#FCE0CE" fill-rule="evenodd"/><text font-family="Yu Gothic,Yu Gothic_MSFontService,sans-serif" font-weight="700" font-size="14.6505" transform="matrix(1 0 0 0.997974 355.396 247)">不安定な</text><text font-family="Yu Gothic,Yu Gothic_MSFontService,sans-serif" font-weight="700" font-size="14.6505" transform="matrix(1 0 0 0.997974 370.076 264)">性能</text><path d="M143.5 250.991C143.5 232.251 172.378 217.059 208 217.059 243.622 217.059 272.5 232.251 272.5 250.991 272.5 269.73 243.622 284.922 208 284.922 172.378 284.922 143.5 269.73 143.5 250.991Z" stroke="#172C51" stroke-width="1.33457" stroke-miterlimit="8" fill="#EEEEEE" fill-rule="evenodd"/><text font-family="Yu Gothic,Yu Gothic_MSFontService,sans-serif" font-weight="700" font-size="14.6505" transform="matrix(1 0 0 0.997974 185.619 247)">データ</text><text font-family="Yu Gothic,Yu Gothic_MSFontService,sans-serif" font-weight="700" font-size="14.6505" transform="matrix(1 0 0 0.997974 192.96 264)">不足</text><path d="M11.5 158.179C11.5 139.439 40.3776 124.248 76 124.248 111.622 124.248 140.5 139.439 140.5 158.179 140.5 176.919 111.622 192.11 76 192.11 40.3776 192.11 11.5 176.919 11.5 158.179Z" stroke="#172C51" stroke-width="1.33457" stroke-miterlimit="8" fill="#DEEED3" fill-rule="evenodd"/><text font-family="Yu Gothic,Yu Gothic_MSFontService,sans-serif" font-weight="700" font-size="14.6505" transform="matrix(1 0 0 0.997974 53.5356 145)">困難な</text><text font-family="Yu Gothic,Yu Gothic_MSFontService,sans-serif" font-weight="700" font-size="14.6505" transform="matrix(1 0 0 0.997974 38.8553 162)">ドメイン間</text><text font-family="Yu Gothic,Yu Gothic_MSFontService,sans-serif" font-weight="700" font-size="14.6505" transform="matrix(1 0 0 0.997974 60.8757 180)">転移</text><path d="M112.5 61.3754C112.5 42.6357 141.378 27.4442 177 27.4442 212.622 27.4442 241.5 42.6357 241.5 61.3754 241.5 80.1151 212.622 95.3066 177 95.3066 141.378 95.3066 112.5 80.1151 112.5 61.3754Z" stroke="#172C51" stroke-width="1.33457" stroke-miterlimit="8" fill="#E1E8F6" fill-rule="evenodd"/><text font-family="Yu Gothic,Yu Gothic_MSFontService,sans-serif" font-weight="700" font-size="14.6505" transform="matrix(1 0 0 0.997974 147.432 49)">非効率な</text><text font-family="Yu Gothic,Yu Gothic_MSFontService,sans-serif" font-weight="700" font-size="14.6505" transform="matrix(1 0 0 0.997974 147.432 66)">人による</text><text font-family="Yu Gothic,Yu Gothic_MSFontService,sans-serif" font-weight="700" font-size="14.6505" transform="matrix(1 0 0 0.997974 125.412 84)">アノテーション</text><path d="M260.5 51.3957C260.5 32.656 289.378 17.4645 325 17.4645 360.622 17.4645 389.5 32.656 389.5 51.3957 389.5 70.1353 360.622 85.3268 325 85.3268 289.378 85.3268 260.5 70.1353 260.5 51.3957Z" stroke="#172C51" stroke-width="1.33457" stroke-miterlimit="8" fill="#E0D2EB" fill-rule="evenodd"/><text font-family="Yu Gothic,Yu Gothic_MSFontService,sans-serif" font-weight="700" font-size="14.6505" transform="matrix(1 0 0 0.997974 302.642 56)">・・・</text><path d="M397.5 90.3167C397.5 71.577 426.378 56.3855 462 56.3855 497.622 56.3855 526.5 71.577 526.5 90.3167 526.5 109.056 497.622 124.248 462 124.248 426.378 124.248 397.5 109.056 397.5 90.3167Z" stroke="#172C51" stroke-width="1.33457" stroke-miterlimit="8" fill="#FFD9DA" fill-rule="evenodd"/><text font-family="Yu Gothic,Yu Gothic_MSFontService,sans-serif" font-weight="700" font-size="14.6505" transform="matrix(1 0 0 0.997974 410.017 86)">外れ値とノイズ</text><text font-family="Yu Gothic,Yu Gothic_MSFontService,sans-serif" font-weight="700" font-size="14.6505" transform="matrix(1 0 0 0.997974 410.017 103)">の多いオラクル</text><path d="M235.529 134.132 182.04 99.2843 183.135 97.6114 236.623 132.459ZM181.517 102.522 177 94.8076 185.894 95.8302Z"/><path d="M0.733758-0.677787 32.2516 33.4428 30.7841 34.7984-0.733758 0.677787ZM33.5492 30.4311 36.0364 39.0123 27.6791 35.8534Z" transform="matrix(1.00203 0 0 -1 289 123.84)"/><path d="M0.257053-0.965256 68.3195 17.1602 67.8054 19.0907-0.257053 0.965256ZM67.8037 13.9216 74.4975 19.8391 65.7472 21.6437Z" transform="matrix(1.00203 0 0 -1 341 133.608)"/><path d="M341.637 180.861 380.008 212.447 378.734 213.989 340.363 182.402ZM380.889 209.288 384.519 217.456 375.794 215.453Z"/><path d="M0.782467-0.62092 24.8143 29.6634 23.2494 30.9053-0.782467 0.62092ZM26.3338 26.7573 28.1713 35.5008 20.0741 31.7247Z" transform="matrix(-1.00203 0 0 1 236.229 181.631)"/><path d="M1.41608e-06-0.998897 67.3162-0.998802 67.3162 0.998993-1.41608e-06 0.998897ZM65.9843-3.9955 73.9755 0.000104871 65.9843 3.99568Z" transform="matrix(-1.00203 0 0 1 214.126 157.68)"/></g></svg>