<svg width="813" height="387" xmlns="http://www.w3.org/2000/svg" xmlns:xlink="http://www.w3.org/1999/xlink" overflow="hidden"><g><rect x="0" y="0" width="813" height="386.508" fill="#FFFFFF"/><path d="M309 202.243C309 185.419 341.683 171.781 382 171.781 422.317 171.781 455 185.419 455 202.243 455 219.066 422.317 232.704 382 232.704 341.683 232.704 309 219.066 309 202.243Z" fill="#FFF0BF" fill-rule="evenodd"/><text font-family="Yu Gothic,Yu Gothic_MSFontService,sans-serif" font-weight="700" font-size="13.3219" transform="matrix(1 0 0 0.99873 341.896 198)">深層能動学習</text><text font-family="Yu Gothic,Yu Gothic_MSFontService,sans-serif" font-weight="700" font-size="13.3219" transform="matrix(1 0 0 0.99873 361.904 214)">の分類</text><path d="M200 257.173C200 243.108 220.371 231.705 245.5 231.705 270.629 231.705 291 243.108 291 257.173 291 271.238 270.629 282.641 245.5 282.641 220.371 282.641 200 271.238 200 257.173Z" fill="#FFD9DA" fill-rule="evenodd"/><text font-family="Yu Gothic,Yu Gothic_MSFontService,sans-serif" font-weight="700" font-size="13.3219" transform="matrix(1 0 0 0.99873 232.443 253)">学習</text><text font-family="Yu Gothic,Yu Gothic_MSFontService,sans-serif" font-weight="700" font-size="13.3219" transform="matrix(1 0 0 0.99873 212.442 269)">パラダイム</text><path d="M51 344.562C51 340.701 54.1341 337.571 58.0002 337.571L116 337.571C119.866 337.571 123 340.701 123 344.562L123 372.526C123 376.387 119.866 379.517 116 379.517L58.0002 379.517C54.1341 379.517 51 376.387 51 372.526Z" fill="#FFD9DA" fill-rule="evenodd"/><text font-family="Yu Gothic,Yu Gothic_MSFontService,sans-serif" font-weight="700" font-size="13.3219" transform="matrix(1 0 0 0.99873 60.1536 362)">模倣学習</text><path d="M135 344.562C135 340.701 138.134 337.571 142 337.571L218 337.571C221.866 337.571 225 340.701 225 344.562L225 372.526C225 376.387 221.866 379.517 218 379.517L142 379.517C138.134 379.517 135 376.387 135 372.526Z" fill="#FFD9DA" fill-rule="evenodd"/><text font-family="Yu Gothic,Yu Gothic_MSFontService,sans-serif" font-weight="700" font-size="13.3219" transform="matrix(1 0 0 0.99873 139.834 354)">カリキュラム</text><text font-family="Yu Gothic,Yu Gothic_MSFontService,sans-serif" font-weight="700" font-size="13.3219" transform="matrix(1 0 0 0.99873 166.505 370)">学習</text><path d="M237 344.562C237 340.701 240.134 337.571 244 337.571L302 337.571C305.866 337.571 309 340.701 309 344.562L309 372.526C309 376.387 305.866 379.517 302 379.517L244 379.517C240.134 379.517 237 376.387 237 372.526Z" fill="#FFD9DA" fill-rule="evenodd"/><text font-family="Yu Gothic,Yu Gothic_MSFontService,sans-serif" font-weight="700" font-size="13.3219" transform="matrix(1 0 0 0.99873 246.193 362)">継続学習</text><path d="M326 344.562C326 340.701 329.134 337.571 333 337.571L410 337.571C413.866 337.571 417 340.701 417 344.562L417 372.526C417 376.387 413.866 379.517 410 379.517L333 379.517C329.134 379.517 326 376.387 326 372.526Z" fill="#FFD9DA" fill-rule="evenodd"/><text font-family="Yu Gothic,Yu Gothic_MSFontService,sans-serif" font-weight="700" font-size="13.3219" transform="matrix(1 0 0 0.99873 331.68 354)">マルチタスク</text><text font-family="Yu Gothic,Yu Gothic_MSFontService,sans-serif" font-weight="700" font-size="13.3219" transform="matrix(1 0 0 0.99873 358.351 370)">学習</text><path d="M9.00002 190.591C9.00002 188.477 10.7163 186.762 12.8334 186.762L109.167 186.762C111.284 186.762 113 188.477 113 190.591L113 205.905C113 208.019 111.284 209.733 109.167 209.733L12.8334 209.733C10.7163 209.733 9.00002 208.019 9.00002 205.905Z" fill="#FFD9DA" fill-rule="evenodd"/><text font-family="Yu Gothic,Yu Gothic_MSFontService,sans-serif" font-weight="700" font-size="13.3219" transform="matrix(1 0 0 0.99873 34.2345 202)">対照学習</text><path d="M9.00002 217.557C9.00002 215.442 10.7163 213.728 12.8334 213.728L109.167 213.728C111.284 213.728 113 215.442 113 217.557L113 232.87C113 234.985 111.284 236.699 109.167 236.699L12.8334 236.699C10.7163 236.699 9.00002 234.985 9.00002 232.87Z" fill="#FFD9DA" fill-rule="evenodd"/><text font-family="Yu Gothic,Yu Gothic_MSFontService,sans-serif" font-weight="700" font-size="13.3219" transform="matrix(1 0 0 0.99873 27.5651 229)">敵対的学習</text><path d="M9.00002 245.521C9.00002 243.407 10.7163 241.693 12.8334 241.693L109.167 241.693C111.284 241.693 113 243.407 113 245.521L113 260.835C113 262.949 111.284 264.663 109.167 264.663L12.8334 264.663C10.7163 264.663 9.00002 262.949 9.00002 260.835Z" fill="#FFD9DA" fill-rule="evenodd"/><text font-family="Yu Gothic,Yu Gothic_MSFontService,sans-serif" font-weight="700" font-size="13.3219" transform="matrix(1 0 0 0.99873 34.2345 257)">メタ学習</text><path d="M9.00002 272.487C9.00002 270.372 10.7163 268.658 12.8334 268.658L109.167 268.658C111.284 268.658 113 270.372 113 272.487L113 287.801C113 289.915 111.284 291.629 109.167 291.629L12.8334 291.629C10.7163 291.629 9.00002 289.915 9.00002 287.801Z" fill="#FFD9DA" fill-rule="evenodd"/><text font-family="Yu Gothic,Yu Gothic_MSFontService,sans-serif" font-weight="700" font-size="13.3219" transform="matrix(1 0 0 0.99873 34.2345 284)">強化学習</text><path d="M9.00002 300.451C9.00002 298.337 10.7163 296.623 12.8334 296.623L109.167 296.623C111.284 296.623 113 298.337 113 300.451L113 315.765C113 317.879 111.284 319.593 109.167 319.593L12.8334 319.593C10.7163 319.593 9.00002 317.879 9.00002 315.765Z" fill="#FFD9DA" fill-rule="evenodd"/><text font-family="Yu Gothic,Yu Gothic_MSFontService,sans-serif" font-weight="700" font-size="13.3219" transform="matrix(1 0 0 0.99873 34.2345 312)">転移学習</text><path d="M9.00002 162.627C9.00002 160.512 10.7163 158.798 12.8334 158.798L109.167 158.798C111.284 158.798 113 160.512 113 162.627L113 177.94C113 180.055 111.284 181.769 109.167 181.769L12.8334 181.769C10.7163 181.769 9.00002 180.055 9.00002 177.94Z" fill="#DEEED3" fill-rule="evenodd"/><text font-family="Yu Gothic,Yu Gothic_MSFontService,sans-serif" font-weight="700" font-size="13.3219" transform="matrix(1 0 0 0.99873 20.8957 174)">ハイブリッド</text><path d="M10 135.494C10 133.472 11.6417 131.832 13.6667 131.832L110.333 131.832C112.358 131.832 114 133.472 114 135.494L114 150.142C114 152.165 112.358 153.804 110.333 153.804L13.6667 153.804C11.6417 153.804 10 152.165 10 150.142Z" fill="#DEEED3" fill-rule="evenodd"/><text font-family="Yu Gothic,Yu Gothic_MSFontService,sans-serif" font-weight="700" font-size="13.3219" transform="matrix(1 0 0 0.99873 41.8913 147)">ベイズ</text><path d="M11 107.696C11 105.582 12.7162 103.868 14.8333 103.868L112.167 103.868C114.284 103.868 116 105.582 116 107.696L116 123.01C116 125.125 114.284 126.839 112.167 126.839L14.8333 126.839C12.7162 126.839 11 125.125 11 123.01Z" fill="#DEEED3" fill-rule="evenodd"/><text font-family="Yu Gothic,Yu Gothic_MSFontService,sans-serif" font-weight="700" font-size="13.3219" transform="matrix(1 0 0 0.99873 16.4766 119)">インフルエンス</text><path d="M11 79.7319C11 77.6175 12.7162 75.9034 14.8333 75.9034L112.167 75.9034C114.284 75.9034 116 77.6175 116 79.7319L116 95.0457C116 97.1601 114.284 98.8742 112.167 98.8742L14.8333 98.8742C12.7162 98.8742 11 97.1601 11 95.0457Z" fill="#DEEED3" fill-rule="evenodd"/><text font-family="Yu Gothic,Yu Gothic_MSFontService,sans-serif" font-weight="700" font-size="13.3219" transform="matrix(1 0 0 0.99873 49.8236 91)">代表</text><path d="M10 52.5999C10 50.5774 11.6417 48.9378 13.6667 48.9378L110.333 48.9378C112.358 48.9378 114 50.5774 114 52.5999L114 67.2478C114 69.2703 112.358 70.9098 110.333 70.9098L13.6667 70.9098C11.6417 70.9098 10 69.2703 10 67.2478Z" fill="#DEEED3" fill-rule="evenodd"/><text font-family="Yu Gothic,Yu Gothic_MSFontService,sans-serif" font-weight="700" font-size="13.3219" transform="matrix(1 0 0 0.99873 35.2219 64)">不確定性</text><path d="M185 130.834C185 116.492 205.371 104.867 230.5 104.867 255.629 104.867 276 116.492 276 130.834 276 145.175 255.629 156.801 230.5 156.801 205.371 156.801 185 145.175 185 130.834Z" fill="#DEEED3" fill-rule="evenodd"/><text font-family="Yu Gothic,Yu Gothic_MSFontService,sans-serif" font-weight="700" font-size="13.3219" transform="matrix(1 0 0 0.99873 210.814 126)">クエリ</text><text font-family="Yu Gothic,Yu Gothic_MSFontService,sans-serif" font-weight="700" font-size="13.3219" transform="matrix(1 0 0 0.99873 217.483 142)">戦略</text><path d="M326 107.363C326 90.5401 350.177 76.9022 380 76.9022 409.823 76.9022 434 90.5401 434 107.363 434 124.187 409.823 137.825 380 137.825 350.177 137.825 326 124.187 326 107.363Z" fill="#99E0FA" fill-rule="evenodd"/><text font-family="Yu Gothic,Yu Gothic_MSFontService,sans-serif" font-weight="700" font-size="13.3219" transform="matrix(1 0 0 0.99873 366.824 103)">訓練</text><text font-family="Yu Gothic,Yu Gothic_MSFontService,sans-serif" font-weight="700" font-size="13.3219" transform="matrix(1 0 0 0.99873 353.485 119)">プロセス</text><path d="M225 16.9786C225 13.1174 228.134 9.9873 232 9.9873L315 9.9873C318.866 9.9873 322 13.1174 322 16.9786L322 44.9427C322 48.8039 318.866 51.934 315 51.934L232 51.934C228.134 51.934 225 48.8039 225 44.9427Z" fill="#99E0FA" fill-rule="evenodd"/><text font-family="Yu Gothic,Yu Gothic_MSFontService,sans-serif" font-weight="700" font-size="13.3219" transform="matrix(1 0 0 0.99873 253.345 27)">従来の</text><text font-family="Yu Gothic,Yu Gothic_MSFontService,sans-serif" font-weight="700" font-size="13.3219" transform="matrix(1 0 0 0.99873 233.344 43)">訓練プロセス</text><path d="M334 15.9798C334 12.1187 337.134 8.98858 341 8.98858L423 8.98858C426.866 8.98858 430 12.1187 430 15.9798L430 43.9439C430 47.8051 426.866 50.9351 423 50.9351L341 50.9351C337.134 50.9351 334 47.8051 334 43.9439Z" fill="#99E0FA" fill-rule="evenodd"/><text font-family="Yu Gothic,Yu Gothic_MSFontService,sans-serif" font-weight="700" font-size="13.3219" transform="matrix(1 0 0 0.99873 341.896 26)">カリキュラム</text><text font-family="Yu Gothic,Yu Gothic_MSFontService,sans-serif" font-weight="700" font-size="13.3219" transform="matrix(1 0 0 0.99873 368.567 42)">訓練</text><path d="M448 17.145C448 13.1919 451.209 9.9873 455.167 9.9873L537.833 9.9873C541.791 9.9873 545 13.1919 545 17.145L545 45.775C545 49.7281 541.791 52.9327 537.833 52.9327L455.167 52.9327C451.209 52.9327 448 49.7281 448 45.775Z" fill="#99E0FA" fill-rule="evenodd"/><text font-family="Yu Gothic,Yu Gothic_MSFontService,sans-serif" font-weight="700" font-size="13.3219" transform="matrix(1 0 0 0.99873 469.961 27)">事前訓練</text><text font-family="Yu Gothic,Yu Gothic_MSFontService,sans-serif" font-weight="700" font-size="13.3219" transform="matrix(1 0 0 0.99873 476.63 43)">微調整</text><path d="M484 135.328C484 118.505 508.177 104.867 538 104.867 567.823 104.867 592 118.505 592 135.328 592 152.151 567.823 165.789 538 165.789 508.177 165.789 484 152.151 484 135.328Z" fill="#E1E8F6" fill-rule="evenodd"/><text font-family="Yu Gothic,Yu Gothic_MSFontService,sans-serif" font-weight="700" font-size="13.3219" transform="matrix(1 0 0 0.99873 504.909 131)">深層モデル</text><text font-family="Yu Gothic,Yu Gothic_MSFontService,sans-serif" font-weight="700" font-size="13.3219" transform="matrix(1 0 0 0.99873 484.901 147)">アーキテクチャー</text><path d="M628 87.7218C628 85.6074 629.716 83.8933 631.833 83.8933L732.167 83.8933C734.284 83.8933 736 85.6074 736 87.7218L736 103.036C736 105.15 734.284 106.864 732.167 106.864L631.833 106.864C629.716 106.864 628 105.15 628 103.036Z" fill="#E1E8F6" fill-rule="evenodd"/><text font-family="Calibri,Calibri_MSFontService,sans-serif" font-weight="700" font-size="13.3219" transform="matrix(1 0 0 0.99873 669.286 100)">RNN</text><path d="M628 114.688C628 112.573 629.716 110.859 631.833 110.859L732.167 110.859C734.284 110.859 736 112.573 736 114.688L736 130.001C736 132.116 734.284 133.83 732.167 133.83L631.833 133.83C629.716 133.83 628 132.116 628 130.001Z" fill="#E1E8F6" fill-rule="evenodd"/><text font-family="Calibri,Calibri_MSFontService,sans-serif" font-weight="700" font-size="13.3219" transform="matrix(1 0 0 0.99873 669.536 126)">CNN</text><path d="M628 141.653C628 139.539 629.716 137.825 631.833 137.825L732.167 137.825C734.284 137.825 736 139.539 736 141.653L736 156.967C736 159.081 734.284 160.795 732.167 160.795L631.833 160.795C629.716 160.795 628 159.081 628 156.967Z" fill="#E1E8F6" fill-rule="evenodd"/><text font-family="Calibri,Calibri_MSFontService,sans-serif" font-weight="700" font-size="13.3219" transform="matrix(1 0 0 0.99873 668.786 153)">GNN</text><path d="M628 168.619C628 166.505 629.716 164.79 631.833 164.79L732.167 164.79C734.284 164.79 736 166.505 736 168.619L736 183.933C736 186.047 734.284 187.761 732.167 187.761L631.833 187.761C629.716 187.761 628 186.047 628 183.933Z" fill="#E1E8F6" fill-rule="evenodd"/><text font-family="Yu Gothic,Yu Gothic_MSFontService,sans-serif" font-weight="700" font-size="13.3219" transform="matrix(1 0 0 0.99873 635.189 180)">学習済みモデル</text><path d="M464 262.666C464 246.118 488.177 232.704 518 232.704 547.823 232.704 572 246.118 572 262.666 572 279.213 547.823 292.628 518 292.628 488.177 292.628 464 279.213 464 262.666Z" fill="#FCE0CE" fill-rule="evenodd"/><text font-family="Yu Gothic,Yu Gothic_MSFontService,sans-serif" font-weight="700" font-size="13.3219" transform="matrix(1 0 0 0.99873 470.991 259)">アノテーション</text><text font-family="Yu Gothic,Yu Gothic_MSFontService,sans-serif" font-weight="700" font-size="13.3219" transform="matrix(1 0 0 0.99873 497.662 274)">タイプ</text><path d="M434 344.562C434 340.701 437.134 337.571 441 337.571L518 337.571C521.866 337.571 525 340.701 525 344.562L525 372.526C525 376.387 521.866 379.517 518 379.517L441 379.517C437.134 379.517 434 376.387 434 372.526Z" fill="#FCE0CE" fill-rule="evenodd"/><text font-family="Yu Gothic,Yu Gothic_MSFontService,sans-serif" font-weight="700" font-size="13.3219" transform="matrix(1 0 0 0.99873 459.643 354)">説明的</text><text font-family="Yu Gothic,Yu Gothic_MSFontService,sans-serif" font-weight="700" font-size="13.3219" transform="matrix(1 0 0 0.99873 432.972 370)">アノテーション</text><path d="M540 344.562C540 340.701 543.134 337.571 547 337.571L725 337.571C728.866 337.571 732 340.701 732 344.562L732 372.526C732 376.387 728.866 379.517 725 379.517L547 379.517C543.134 379.517 540 376.387 540 372.526Z" fill="#FCE0CE" fill-rule="evenodd"/><text font-family="Yu Gothic,Yu Gothic_MSFontService,sans-serif" font-weight="700" font-size="13.3219" transform="matrix(1 0 0 0.99873 546.543 354)">ランダム</text><text font-family="Calibri,Calibri_MSFontService,sans-serif" font-weight="700" font-size="13.3219" transform="matrix(1 0 0 0.99873 599.898 354)">/</text><text font-family="Yu Gothic,Yu Gothic_MSFontService,sans-serif" font-weight="700" font-size="13.3219" transform="matrix(1 0 0 0.99873 605.567 354)">マルチエージェント</text><text font-family="Yu Gothic,Yu Gothic_MSFontService,sans-serif" font-weight="700" font-size="13.3219" transform="matrix(1 0 0 0.99873 589.394 370)">アノテーション</text><path d="M601 231.206C601 229.275 602.567 227.71 604.5 227.71L797.5 227.71C799.433 227.71 801 229.275 801 231.206L801 245.188C801 247.119 799.433 248.684 797.5 248.684L604.5 248.684C602.567 248.684 601 247.119 601 245.188Z" fill="#FCE0CE" fill-rule="evenodd"/><text font-family="Yu Gothic,Yu Gothic_MSFontService,sans-serif" font-weight="700" font-size="13.3219" transform="matrix(1 0 0 0.99873 627.782 242)">ハード・アノテーション</text><path d="M601 255.175C601 253.245 602.567 251.68 604.5 251.68L797.5 251.68C799.433 251.68 801 253.245 801 255.175L801 269.158C801 271.088 799.433 272.653 797.5 272.653L604.5 272.653C602.567 272.653 601 271.088 601 269.158Z" fill="#FCE0CE" fill-rule="evenodd"/><text font-family="Yu Gothic,Yu Gothic_MSFontService,sans-serif" font-weight="700" font-size="13.3219" transform="matrix(1 0 0 0.99873 627.782 266)">ソフト・アノテーション</text><path d="M601 281.142C601 279.212 602.567 277.647 604.5 277.647L797.5 277.647C799.433 277.647 801 279.212 801 281.142L801 295.125C801 297.055 799.433 298.62 797.5 298.62L604.5 298.62C602.567 298.62 601 297.055 601 295.125Z" fill="#FCE0CE" fill-rule="evenodd"/><text font-family="Yu Gothic,Yu Gothic_MSFontService,sans-serif" font-weight="700" font-size="13.3219" transform="matrix(1 0 0 0.99873 607.774 292)">ハイブリッド・アノテーション</text><path d="M185.713 130.981 114.5 60.4231" stroke="#000000" stroke-width="0.66694" stroke-miterlimit="8" fill="none" fill-rule="evenodd"/><path d="M186.45 131.334 116.5 88.3876" stroke="#000000" stroke-width="0.66694" stroke-miterlimit="8" fill="none" fill-rule="evenodd"/><path d="M186.45 130.688 116.5 115.353" stroke="#000000" stroke-width="0.66694" stroke-miterlimit="8" fill="none" fill-rule="evenodd"/><path d="M0 0 71.1224 12.2773" stroke="#000000" stroke-width="0.666093" stroke-miterlimit="8" fill="none" fill-rule="evenodd" transform="matrix(-1.00127 0 0 1 185.713 131.333)"/><path d="M0 0 72.1085 39.8891" stroke="#000000" stroke-width="0.666093" stroke-miterlimit="8" fill="none" fill-rule="evenodd" transform="matrix(-1.00127 0 0 1 185.7 131.333)"/><path d="M200.667 257.268 113.5 198.248" stroke="#000000" stroke-width="0.66694" stroke-miterlimit="8" fill="none" fill-rule="evenodd"/><path d="M200.667 257.794 113.5 226.212" stroke="#000000" stroke-width="0.66694" stroke-miterlimit="8" fill="none" fill-rule="evenodd"/><path d="M200.667 257.322 113.5 253.178" stroke="#000000" stroke-width="0.66694" stroke-miterlimit="8" fill="none" fill-rule="evenodd"/><path d="M0 0 87.0565 23.4679" stroke="#000000" stroke-width="0.666093" stroke-miterlimit="8" fill="none" fill-rule="evenodd" transform="matrix(-1.00127 0 0 1 200.667 257.173)"/><path d="M0 0 87.0565 51.0797" stroke="#000000" stroke-width="0.666093" stroke-miterlimit="8" fill="none" fill-rule="evenodd" transform="matrix(-1.00127 0 0 1 200.667 257.173)"/><path d="M0 0 158.756 54.4518" stroke="#000000" stroke-width="0.666093" stroke-miterlimit="8" fill="none" fill-rule="evenodd" transform="matrix(-1.00127 0 0 1 246.458 283.14)"/><path d="M0 0 65.8547 54.4518" stroke="#000000" stroke-width="0.666093" stroke-miterlimit="8" fill="none" fill-rule="evenodd" transform="matrix(-1.00127 0 0 1 246.438 283.14)"/><path d="M246.5 283.14 273.581 337.592" stroke="#000000" stroke-width="0.66694" stroke-miterlimit="8" fill="none" fill-rule="evenodd"/><path d="M246.5 283.14 372.407 337.592" stroke="#000000" stroke-width="0.66694" stroke-miterlimit="8" fill="none" fill-rule="evenodd"/><path d="M0 0 37.9717 44.2483" stroke="#000000" stroke-width="0.666093" stroke-miterlimit="8" fill="none" fill-rule="evenodd" transform="matrix(-1.00127 0 0 1 518.52 293.127)"/><path d="M518.5 293.127 636.902 337.375" stroke="#000000" stroke-width="0.66694" stroke-miterlimit="8" fill="none" fill-rule="evenodd"/><path d="M0 0 29.4201 24.6" stroke="#000000" stroke-width="0.666093" stroke-miterlimit="8" fill="none" fill-rule="evenodd" transform="matrix(1.00127 0 0 -1 572.5 263.796)"/><path d="M0 0 29.4201 0.527629" stroke="#000000" stroke-width="0.666093" stroke-miterlimit="8" fill="none" fill-rule="evenodd" transform="matrix(1.00127 0 0 -1 572.5 263.693)"/><path d="M572.5 263.165 601.958 288.317" stroke="#000000" stroke-width="0.66694" stroke-miterlimit="8" fill="none" fill-rule="evenodd"/><path d="M592.5 135.328 627.915 176.161" stroke="#000000" stroke-width="0.66694" stroke-miterlimit="8" fill="none" fill-rule="evenodd"/><path d="M592.5 135.328 627.915 149.357" stroke="#000000" stroke-width="0.66694" stroke-miterlimit="8" fill="none" fill-rule="evenodd"/><path d="M0 0 35.3703 12.7022" stroke="#000000" stroke-width="0.666093" stroke-miterlimit="8" fill="none" fill-rule="evenodd" transform="matrix(1.00127 0 0 -1 592.5 136.045)"/><path d="M0 0 35.3703 39.4921" stroke="#000000" stroke-width="0.666093" stroke-miterlimit="8" fill="none" fill-rule="evenodd" transform="matrix(1.00127 0 0 -1 592.5 135.87)"/><path d="M0 0 116.328 24.8062" stroke="#000000" stroke-width="0.666093" stroke-miterlimit="8" fill="none" fill-rule="evenodd" transform="matrix(1.00127 0 0 -1 380.5 78.2383)"/><path d="M0 0 1.74726 26.109" stroke="#000000" stroke-width="0.666093" stroke-miterlimit="8" fill="none" fill-rule="evenodd" transform="matrix(1.00127 0 0 -1 380.5 77.5435)"/><path d="M380.303 77.5954 273.5 52.4333" stroke="#000000" stroke-width="0.66694" stroke-miterlimit="8" fill="none" fill-rule="evenodd"/><path d="M382.25 172.313 380.5 138.324" stroke="#000000" stroke-width="0.66694" stroke-miterlimit="8" fill="none" fill-rule="evenodd"/><path d="M0 0 66.537 24.1112" stroke="#000000" stroke-width="0.666093" stroke-miterlimit="8" fill="none" fill-rule="evenodd" transform="matrix(1.00127 0 0 -1 433.5 181.411)"/><path d="M433.5 224.215 479.542 242.321" stroke="#000000" stroke-width="0.66694" stroke-miterlimit="8" fill="none" fill-rule="evenodd"/><path d="M0 0 52.5236 15.4785" stroke="#000000" stroke-width="0.666093" stroke-miterlimit="8" fill="none" fill-rule="evenodd" transform="matrix(-1.00127 0 0 1 331.09 224.215)"/><path d="M330.775 181.411 276.5 131.333" stroke="#000000" stroke-width="0.66694" stroke-miterlimit="8" fill="none" fill-rule="evenodd"/></g></svg>