<svg width="779" height="650" xmlns="http://www.w3.org/2000/svg" xmlns:xlink="http://www.w3.org/1999/xlink" overflow="hidden"><g><rect x="0" y="0" width="779" height="649.583" fill="#FFFFFF"/><path d="M303 108.764C303 89.5382 318.596 73.9525 337.834 73.9525L632.166 73.9525C651.404 73.9525 667 89.5382 667 108.764L667 248.007C667 267.233 651.404 282.818 632.166 282.818L337.834 282.818C318.596 282.818 303 267.233 303 248.007Z" fill="#E8E8E8" fill-rule="evenodd"/><path d="M46.5 37.9756C46.5 24.4533 57.469 13.4913 71 13.4913 84.531 13.4913 95.5 24.4533 95.5 37.9756 95.5 51.4979 84.531 62.4598 71 62.4598 57.469 62.4598 46.5 51.4979 46.5 37.9756Z" stroke="#000000" stroke-width="1.33419" stroke-miterlimit="8" fill-rule="evenodd"/><path d="M56.8502 52.0364C54.5752 50.4427 63.8729 42.5951 70.4999 42.4741 77.127 42.3531 86.4247 50.4427 84.1497 52.0364 78.4688 61.2626 63.0204 59.9205 56.8502 52.0364Z" stroke="#FFFFFF" stroke-width="1.33333" stroke-miterlimit="8" fill="#FFFFFF" fill-rule="evenodd"/><path d="M62 33.9782C62 29.0108 65.8056 24.9839 70.5 24.9839 75.1944 24.9839 79 29.0108 79 33.9782 79 38.9455 75.1944 42.9724 70.5 42.9724 65.8056 42.9724 62 38.9455 62 33.9782Z" stroke="#000000" stroke-width="2.00128" stroke-miterlimit="8" fill="#FFFFFF" fill-rule="evenodd"/><path d="M12 111.429C12 100.666 20.7306 91.941 31.5003 91.941L109.5 91.941C120.269 91.941 129 100.666 129 111.429L129 214.362C129 225.125 120.269 233.85 109.5 233.85L31.5003 233.85C20.7306 233.85 12 225.125 12 214.362Z" stroke="#000000" stroke-width="2.00128" stroke-miterlimit="8" fill="none" fill-rule="evenodd"/><text font-family="Yu Gothic,Yu Gothic_MSFontService,sans-serif" font-weight="700" font-size="14.6667" transform="matrix(1 0 0 0.999358 26.3364 119)">問題の定式化</text><text font-family="Yu Gothic,Yu Gothic_MSFontService,sans-serif" font-weight="400" font-size="13.3333" transform="matrix(1 0 0 0.999358 21.4199 153)">文献レビュー</text><text font-family="Yu Gothic,Yu Gothic_MSFontService,sans-serif" font-weight="400" font-size="13.3333" transform="matrix(1 0 0 0.999358 21.4199 169)">問題設定</text><text font-family="Calibri,Calibri_MSFontService,sans-serif" font-weight="400" font-size="13.3333" transform="matrix(1 0 0 0.999358 74.7875 169)">,</text><text font-family="Yu Gothic,Yu Gothic_MSFontService,sans-serif" font-weight="400" font-size="13.3333" transform="matrix(1 0 0 0.999358 21.4199 185)">仮説、目的</text><text font-family="Calibri,Calibri_MSFontService,sans-serif" font-weight="400" font-size="13.3333" transform="matrix(1 0 0 0.999358 88.1294 185)">,</text><text font-family="Yu Gothic,Yu Gothic_MSFontService,sans-serif" font-weight="400" font-size="13.3333" transform="matrix(1 0 0 0.999358 21.4199 201)">制約条件、</text><text font-family="Yu Gothic,Yu Gothic_MSFontService,sans-serif" font-weight="400" font-size="13.3333" transform="matrix(1 0 0 0.999358 21.4199 217)">ワークロード</text><path d="M152 114.593C152 102.083 162.148 91.941 174.667 91.941L265.333 91.941C277.852 91.941 288 102.083 288 114.593L288 211.197C288 223.708 277.852 233.85 265.333 233.85L174.667 233.85C162.148 233.85 152 223.708 152 211.197Z" stroke="#000000" stroke-width="2.00128" stroke-miterlimit="8" fill="none" fill-rule="evenodd"/><text font-family="Yu Gothic,Yu Gothic_MSFontService,sans-serif" font-weight="700" font-size="14.6667" transform="matrix(1 0 0 0.999358 205.5 111)">評価</text><text font-family="Yu Gothic,Yu Gothic_MSFontService,sans-serif" font-weight="700" font-size="14.6667" transform="matrix(1 0 0 0.999358 168.809 128)">フレームワーク</text><text font-family="Yu Gothic,Yu Gothic_MSFontService,sans-serif" font-weight="400" font-size="13.3333" transform="matrix(1 0 0 0.999358 162.892 144)">システムまたはシ</text><text font-family="Yu Gothic,Yu Gothic_MSFontService,sans-serif" font-weight="400" font-size="13.3333" transform="matrix(1 0 0 0.999358 162.892 160)">ミュレーターを開</text><text font-family="Yu Gothic,Yu Gothic_MSFontService,sans-serif" font-weight="400" font-size="13.3333" transform="matrix(1 0 0 0.999358 162.892 176)">発し、ワークロー</text><text font-family="Yu Gothic,Yu Gothic_MSFontService,sans-serif" font-weight="400" font-size="13.3333" transform="matrix(1 0 0 0.999358 162.892 192)">ドトレースを統合</text><text font-family="Yu Gothic,Yu Gothic_MSFontService,sans-serif" font-weight="400" font-size="13.3333" transform="matrix(1 0 0 0.999358 162.892 208)">し、ベースライン</text><text font-family="Yu Gothic,Yu Gothic_MSFontService,sans-serif" font-weight="400" font-size="13.3333" transform="matrix(1 0 0 0.999358 162.892 225)">を実装する。</text><path d="M314 108.93C314 99.5474 321.611 91.941 331 91.941L398.999 91.941C408.389 91.941 416 99.5474 416 108.93L416 216.86C416 226.243 408.389 233.85 398.999 233.85L331 233.85C321.611 233.85 314 226.243 314 216.86Z" stroke="#B45E05" stroke-width="2.00128" stroke-miterlimit="8" fill="#FCE5CD" fill-rule="evenodd"/><text fill="#B45E05" font-family="Yu Gothic,Yu Gothic_MSFontService,sans-serif" font-weight="700" font-size="14.6667" transform="matrix(1 0 0 0.999358 342.585 119)">解決策</text><text fill="#B45E05" font-family="Yu Gothic,Yu Gothic_MSFontService,sans-serif" font-weight="400" font-size="13.3333" transform="matrix(1 0 0 0.999358 322.492 152)">問題を解決す</text><text fill="#B45E05" font-family="Yu Gothic,Yu Gothic_MSFontService,sans-serif" font-weight="400" font-size="13.3333" transform="matrix(1 0 0 0.999358 322.492 168)">るための新し</text><text fill="#B45E05" font-family="Yu Gothic,Yu Gothic_MSFontService,sans-serif" font-weight="400" font-size="13.3333" transform="matrix(1 0 0 0.999358 322.492 184)">い解決策を設</text><text fill="#B45E05" font-family="Yu Gothic,Yu Gothic_MSFontService,sans-serif" font-weight="400" font-size="13.3333" transform="matrix(1 0 0 0.999358 322.492 201)">計する</text><path d="M509 115.593C509 102.53 519.596 91.941 532.667 91.941L631.333 91.941C644.404 91.941 655 102.53 655 115.593L655 210.198C655 223.261 644.404 233.85 631.333 233.85L532.667 233.85C519.596 233.85 509 223.261 509 210.198Z" stroke="#B45E05" stroke-width="2.00128" stroke-miterlimit="8" fill="#FCE5CD" fill-rule="evenodd"/><text fill="#B45E05" font-family="Yu Gothic,Yu Gothic_MSFontService,sans-serif" font-weight="700" font-size="14.6667" transform="matrix(1 0 0 0.999358 567.408 111)">評価</text><text fill="#B45E05" font-family="Yu Gothic,Yu Gothic_MSFontService,sans-serif" font-weight="400" font-size="13.3333" transform="matrix(1 0 0 0.999358 519.798 144)">エミュレーター、シ</text><text fill="#B45E05" font-family="Yu Gothic,Yu Gothic_MSFontService,sans-serif" font-weight="400" font-size="13.3333" transform="matrix(1 0 0 0.999358 519.798 160)">ミュレーター、また</text><text fill="#B45E05" font-family="Yu Gothic,Yu Gothic_MSFontService,sans-serif" font-weight="400" font-size="13.3333" transform="matrix(1 0 0 0.999358 519.798 176)">は実システムにおけ</text><text fill="#B45E05" font-family="Yu Gothic,Yu Gothic_MSFontService,sans-serif" font-weight="400" font-size="13.3333" transform="matrix(1 0 0 0.999358 519.798 192)">るパラメトリック評</text><text fill="#B45E05" font-family="Yu Gothic,Yu Gothic_MSFontService,sans-serif" font-weight="400" font-size="13.3333" transform="matrix(1 0 0 0.999358 519.798 208)">価（数式、コストモ</text><text fill="#B45E05" font-family="Yu Gothic,Yu Gothic_MSFontService,sans-serif" font-weight="400" font-size="13.3333" transform="matrix(1 0 0 0.999358 519.798 225)">デルなど）</text><path d="M685 105.599C685 98.0559 691.119 91.941 698.667 91.941L753.333 91.941C760.881 91.941 767 98.0559 767 105.599L767 220.192C767 227.735 760.881 233.85 753.333 233.85L698.667 233.85C691.119 233.85 685 227.735 685 220.192Z" stroke="#000000" stroke-width="2.00128" stroke-miterlimit="8" fill="none" fill-rule="evenodd"/><text font-family="Yu Gothic,Yu Gothic_MSFontService,sans-serif" font-weight="700" font-size="14.6667" transform="matrix(1 0 0 0.999358 696.755 118)">研究論文</text><text font-family="Yu Gothic,Yu Gothic_MSFontService,sans-serif" font-weight="700" font-size="14.6667" transform="matrix(1 0 0 0.999358 704.093 135)">の執筆</text><text font-family="Yu Gothic,Yu Gothic_MSFontService,sans-serif" font-weight="400" font-size="13.3333" transform="matrix(1 0 0 0.999358 693.086 169)">研究論文</text><text font-family="Yu Gothic,Yu Gothic_MSFontService,sans-serif" font-weight="400" font-size="13.3333" transform="matrix(1 0 0 0.999358 693.086 185)">で研究結</text><text font-family="Yu Gothic,Yu Gothic_MSFontService,sans-serif" font-weight="400" font-size="13.3333" transform="matrix(1 0 0 0.999358 693.086 201)">果を伝え</text><text font-family="Yu Gothic,Yu Gothic_MSFontService,sans-serif" font-weight="400" font-size="13.3333" transform="matrix(1 0 0 0.999358 693.086 217)">る</text><text font-family="Yu Gothic,Yu Gothic_MSFontService,sans-serif" font-weight="700" font-size="14.6667" transform="matrix(1 0 0 0.999358 426.5 186)">実験ループ</text><text font-family="Yu Gothic,Yu Gothic_MSFontService,sans-serif" font-weight="700" font-size="14.6667" transform="matrix(1 0 0 0.999358 48.0573 83)">科学者</text><path d="M461.01 219.175C454.086 218.318 449.081 212.721 449.83 206.672 450.445 201.703 454.811 197.83 460.466 197.237L460.567 194.561 462.716 198.9 460.236 203.382 460.336 200.711C455.394 201.452 452.297 205.415 453.419 209.563 454.29 212.786 457.515 215.283 461.432 215.767Z" stroke="#000000" stroke-width="1.33335" stroke-miterlimit="8" fill-rule="evenodd"/><path d="M466.598 196.988C473.486 198.098 478.282 203.876 477.311 209.893 476.514 214.836 472.008 218.546 466.335 218.93L466.136 221.601 464.148 217.187 466.791 212.799 466.593 215.464C471.558 214.905 474.799 211.059 473.831 206.872 473.079 203.619 469.948 201.005 466.051 200.377Z" stroke="#000000" stroke-width="1.33336" stroke-miterlimit="8" fill-rule="evenodd"/><path d="M129 161.895 145.996 161.895 145.996 163.895 129 163.895ZM144.661 158.895 152.667 162.895 144.661 166.895Z"/><path d="M288 161.895 307.075 161.895 307.075 163.895 288 163.895ZM305.741 158.895 313.746 162.895 305.741 166.895Z"/><path d="M416 161.895 502.879 161.895 502.879 163.895 416 163.895ZM501.545 158.895 509.55 162.895 501.545 166.895Z"/><path d="M655 161.895 678.495 161.895 678.495 163.895 655 163.895ZM677.161 158.895 685.166 162.895 677.161 166.895Z"/><path d="M583.48 232.851 583.48 261.406 363.999 261.406 363.999 240.851 366.001 240.851 366.001 260.406 365 259.406 582.479 259.406 581.479 260.406 581.479 232.851ZM360.997 242.184 365 234.184 369.003 242.184Z"/><path d="M262 324.679C262 309.287 274.485 296.809 289.887 296.809L639.113 296.809C654.514 296.809 667 309.287 667 324.679L667 609.721C667 625.113 654.514 637.591 639.113 637.591L289.887 637.591C274.485 637.591 262 625.113 262 609.721Z" fill="#E8E8E8" fill-rule="evenodd"/><path d="M12 335.407C12 328.44 17.6514 322.793 24.6227 322.793L80.3773 322.793C87.3486 322.793 93 328.44 93 335.407L93 353.151C93 360.117 87.3486 365.765 80.3773 365.765L24.6227 365.765C17.6514 365.765 12 360.117 12 353.151Z" stroke="#000000" stroke-width="2.00128" stroke-miterlimit="8" fill="none" fill-rule="evenodd"/><text font-family="Yu Gothic,Yu Gothic_MSFontService,sans-serif" font-weight="700" font-size="14.6667" transform="matrix(1 0 0 0.999358 30.6868 340)">問題の</text><text font-family="Yu Gothic,Yu Gothic_MSFontService,sans-serif" font-weight="700" font-size="14.6667" transform="matrix(1 0 0 0.999358 30.6868 357)">定式化</text><path d="M115 335.407C115 328.44 120.651 322.793 127.623 322.793L226.377 322.793C233.349 322.793 239 328.44 239 335.407L239 353.15C239 360.117 233.349 365.765 226.377 365.765L127.623 365.765C120.651 365.765 115 360.117 115 353.15Z" stroke="#000000" stroke-width="2.00128" stroke-miterlimit="8" fill="none" fill-rule="evenodd"/><text font-family="Yu Gothic,Yu Gothic_MSFontService,sans-serif" font-weight="700" font-size="14.6667" transform="matrix(1 0 0 0.999358 162.528 340)">評価</text><text font-family="Yu Gothic,Yu Gothic_MSFontService,sans-serif" font-weight="700" font-size="14.6667" transform="matrix(1 0 0 0.999358 125.838 357)">フレームワーク</text><path d="M317 328.956C317 318.929 325.134 310.8 335.167 310.8L411.833 310.8C421.866 310.8 430 318.929 430 328.956L430 401.575C430 411.602 421.866 419.73 411.833 419.73L335.167 419.73C325.134 419.73 317 411.602 317 401.575Z" stroke="#B45E05" stroke-width="2.00128" stroke-miterlimit="8" fill="#FCE5CD" fill-rule="evenodd"/><text fill="#B45E05" font-family="Yu Gothic,Yu Gothic_MSFontService,sans-serif" font-weight="700" font-size="14.6667" transform="matrix(1 0 0 0.999358 351.529 329)">解決策</text><text fill="#B45E05" font-family="Yu Gothic,Yu Gothic_MSFontService,sans-serif" font-weight="700" font-size="14.6667" transform="matrix(1 0 0 0.999358 351.529 346)">生成器</text><text fill="#B45E05" font-family="Yu Gothic,Yu Gothic_MSFontService,sans-serif" font-weight="400" font-size="13.3333" transform="matrix(1 0 0 0.999358 326.513 380)">解決策を生成す</text><text fill="#B45E05" font-family="Yu Gothic,Yu Gothic_MSFontService,sans-serif" font-weight="400" font-size="13.3333" transform="matrix(1 0 0 0.999358 326.513 396)">るための</text><text fill="#B45E05" font-family="Calibri,Calibri_MSFontService,sans-serif" font-weight="400" font-size="13.3333" transform="matrix(1 0 0 0.999358 379.881 396)">LLM</text><text fill="#B45E05" font-family="Yu Gothic,Yu Gothic_MSFontService,sans-serif" font-weight="400" font-size="13.3333" transform="matrix(1 0 0 0.999358 402.562 396)">ア</text><text fill="#B45E05" font-family="Yu Gothic,Yu Gothic_MSFontService,sans-serif" font-weight="400" font-size="13.3333" transform="matrix(1 0 0 0.999358 326.513 412)">ンサンブル</text><path d="M489 328.956C489 318.929 497.134 310.8 507.167 310.8L583.833 310.8C593.866 310.8 602 318.929 602 328.956L602 401.575C602 411.602 593.866 419.73 583.833 419.73L507.167 419.73C497.134 419.73 489 411.602 489 401.575Z" stroke="#B45E05" stroke-width="2.00128" stroke-miterlimit="8" fill="#FCE5CD" fill-rule="evenodd"/><text fill="#B45E05" font-family="Yu Gothic,Yu Gothic_MSFontService,sans-serif" font-weight="700" font-size="14.6667" transform="matrix(1 0 0 0.999358 523.547 330)">評価器</text><text fill="#B45E05" font-family="Yu Gothic,Yu Gothic_MSFontService,sans-serif" font-weight="400" font-size="13.3333" transform="matrix(1 0 0 0.999358 498.531 363)">解決策をテスト</text><text fill="#B45E05" font-family="Yu Gothic,Yu Gothic_MSFontService,sans-serif" font-weight="400" font-size="13.3333" transform="matrix(1 0 0 0.999358 498.531 379)">し、点数と</text><text fill="#B45E05" font-family="Yu Gothic,Yu Gothic_MSFontService,sans-serif" font-weight="400" font-size="13.3333" transform="matrix(1 0 0 0.999358 498.531 395)">フィードバック</text><text fill="#B45E05" font-family="Yu Gothic,Yu Gothic_MSFontService,sans-serif" font-weight="400" font-size="13.3333" transform="matrix(1 0 0 0.999358 498.531 412)">を与える。</text><path d="M540 507.674C540 497.739 548.059 489.685 558 489.685L634 489.685C643.941 489.685 652 497.739 652 507.674L652 579.627C652 589.562 643.941 597.616 634 597.616L558 597.616C548.059 597.616 540 589.562 540 579.627Z" stroke="#327216" stroke-width="2.00128" stroke-miterlimit="8" fill="#D9EAD3" fill-rule="evenodd"/><text fill="#327216" font-family="Yu Gothic,Yu Gothic_MSFontService,sans-serif" font-weight="700" font-size="14.6667" transform="matrix(1 0 0 0.999358 559.053 516)">ストレージ</text><text fill="#327216" font-family="Yu Gothic,Yu Gothic_MSFontService,sans-serif" font-weight="400" font-size="13.3333" transform="matrix(1 0 0 0.999358 548.713 549)">解決策のスコア</text><text fill="#327216" font-family="Yu Gothic,Yu Gothic_MSFontService,sans-serif" font-weight="400" font-size="13.3333" transform="matrix(1 0 0 0.999358 548.713 565)">とフィードバッ</text><text fill="#327216" font-family="Yu Gothic,Yu Gothic_MSFontService,sans-serif" font-weight="400" font-size="13.3333" transform="matrix(1 0 0 0.999358 548.713 582)">クを保存する</text><path d="M396 507.674C396 497.739 404.059 489.685 414 489.685L497 489.685C506.941 489.685 515 497.739 515 507.674L515 579.627C515 589.562 506.941 597.616 497 597.616L414 597.616C404.059 597.616 396 589.562 396 579.627Z" stroke="#327216" stroke-width="2.00128" stroke-miterlimit="8" fill="#D9EAD3" fill-rule="evenodd"/><text fill="#327216" font-family="Yu Gothic,Yu Gothic_MSFontService,sans-serif" font-weight="700" font-size="14.6667" transform="matrix(1 0 0 0.999358 405.991 507)">ソリューション</text><text fill="#327216" font-family="Yu Gothic,Yu Gothic_MSFontService,sans-serif" font-weight="700" font-size="14.6667" transform="matrix(1 0 0 0.999358 420.667 524)">セレクター</text><text fill="#327216" font-family="Yu Gothic,Yu Gothic_MSFontService,sans-serif" font-weight="400" font-size="13.3333" transform="matrix(1 0 0 0.999358 405.41 558)">改良すべき有望</text><text fill="#327216" font-family="Yu Gothic,Yu Gothic_MSFontService,sans-serif" font-weight="400" font-size="13.3333" transform="matrix(1 0 0 0.999358 405.41 574)">なソリューショ</text><text fill="#327216" font-family="Yu Gothic,Yu Gothic_MSFontService,sans-serif" font-weight="400" font-size="13.3333" transform="matrix(1 0 0 0.999358 405.41 590)">ンを選択する</text><path d="M272 506.175C272 497.068 279.387 489.685 288.5 489.685L354.5 489.685C363.613 489.685 371 497.068 371 506.175L371 581.126C371 590.233 363.613 597.616 354.5 597.616L288.5 597.616C279.387 597.616 272 590.233 272 581.126Z" stroke="#327216" stroke-width="2.00128" stroke-miterlimit="8" fill="#D9EAD3" fill-rule="evenodd"/><text fill="#327216" font-family="Yu Gothic,Yu Gothic_MSFontService,sans-serif" font-weight="700" font-size="14.6667" transform="matrix(1 0 0 0.999358 286.988 507)">プロンプト</text><text fill="#327216" font-family="Yu Gothic,Yu Gothic_MSFontService,sans-serif" font-weight="700" font-size="14.6667" transform="matrix(1 0 0 0.999358 301.664 524)">生成器</text><text fill="#327216" font-family="Yu Gothic,Yu Gothic_MSFontService,sans-serif" font-weight="400" font-size="13.3333" transform="matrix(1 0 0 0.999358 280.904 558)">文脈豊かなプ</text><text fill="#327216" font-family="Yu Gothic,Yu Gothic_MSFontService,sans-serif" font-weight="400" font-size="13.3333" transform="matrix(1 0 0 0.999358 280.904 574)">ロンプトを作</text><text fill="#327216" font-family="Yu Gothic,Yu Gothic_MSFontService,sans-serif" font-weight="400" font-size="13.3333" transform="matrix(1 0 0 0.999358 280.904 590)">成する</text><path d="M690 443.628C690 434.845 697.125 427.725 705.913 427.725L756.087 427.725C764.876 427.725 772 434.845 772 443.628L772 469.785C772 478.568 764.876 485.688 756.087 485.688L705.913 485.688C697.125 485.688 690 478.568 690 469.785Z" stroke="#000000" stroke-width="2.00128" stroke-miterlimit="8" fill="none" fill-rule="evenodd"/><text font-family="Yu Gothic,Yu Gothic_MSFontService,sans-serif" font-weight="700" font-size="14.6667" transform="matrix(1 0 0 0.999358 701.492 453)">研究論文</text><text font-family="Yu Gothic,Yu Gothic_MSFontService,sans-serif" font-weight="700" font-size="14.6667" transform="matrix(1 0 0 0.999358 708.83 470)">の執筆</text><path d="M93 342.779 107.796 342.779 107.796 344.779 92.9999 344.779ZM106.461 339.779 114.467 343.779 106.461 347.779Z"/><path d="M240 342.779 256.996 342.779 256.996 344.779 240 344.779ZM255.662 339.779 263.667 343.779 255.662 347.779Z"/><path d="M430 364.765 483.047 364.765 483.047 366.765 430 366.765ZM481.713 361.765 489.718 365.765 481.713 369.765Z"/><path d="M464.501 409.086C463.431 408.549 462.851 406.172 461.525 404.666 459.385 404.376 457.088 402.788 456.704 400.212 454.071 400.81 450.107 400.525 448.371 399.673 446.634 398.822 446.515 396.689 446.286 395.101 443.424 395.418 440.982 394.393 439.757 392.815 438.532 391.236 438.093 387.353 438.934 385.629 438.952 383.742 439.699 382.232 440.687 381.107 441.674 379.982 443.075 379.002 444.859 378.88 445.954 377.349 447.52 376.63 449.029 376.103 450.538 375.577 452.091 375.614 453.912 375.722 455.657 374.472 459.383 374.118 461.758 374.307 464.133 374.496 467.305 375.443 468.162 376.855 469.811 376.902 470.52 377.137 470.958 378.293 473.05 378.813 475.206 380.532 476.393 382.147 477.58 383.763 478.373 385.387 478.083 387.985 479.892 389.841 479.63 392.337 479.136 394.029 478.642 395.72 476.747 397.638 475.12 398.134 475.287 400.121 474.932 402.043 473.753 402.932 472.575 403.82 470.742 404.223 469.649 404.099 469.219 405.026 467.956 405.102 466.801 404.683 467.192 405.799 468.329 407.15 467.945 407.884 467.562 408.618 465.571 409.622 464.501 409.086Z" stroke="#000000" stroke-width="1.00064" stroke-miterlimit="8" fill="#F9D04F" fill-rule="evenodd"/><path d="M466.5 404.24C465.409 402.278 464.209 400.477 463.5 398.244" stroke="#000000" stroke-width="1.00064" stroke-miterlimit="8" fill="#F9D04F" fill-rule="evenodd"/><path d="M456.372 399.336C457.25 398.72 457.893 398.265 459.911 397.966 461.928 397.667 465.955 397.849 468.479 397.541 471.002 397.233 472.909 396.674 474.412 397.714" stroke="#000000" stroke-miterlimit="8" fill="#F9D04F" fill-rule="evenodd"/><path d="M474.224 394.842C472.704 396.808 471.235 396.852 469.322 397.368" stroke="#000000" stroke-miterlimit="8" fill="#F9D04F" fill-rule="evenodd"/><path d="M473.347 386.864C475.532 387.431 477.034 389.855 477.082 392.135" stroke="#000000" stroke-width="1.0006" stroke-miterlimit="8" fill="#F9D04F" fill-rule="evenodd"/><path d="M473.494 384.142C473.872 386.843 473.172 387.636 472.583 388.283" stroke="#000000" stroke-width="1.00013" stroke-miterlimit="8" fill="#F9D04F" fill-rule="evenodd"/><path d="M477.459 387.236C477.278 388.358 476.982 388.791 476.468 389.191" stroke="#000000" stroke-width="1.00013" stroke-miterlimit="8" fill="#F9D04F" fill-rule="evenodd"/><path d="M469.852 380.045C475.14 380.604 476.034 382.737 477.232 384.59" stroke="#000000" stroke-width="1.00063" stroke-miterlimit="8" fill="#F9D04F" fill-rule="evenodd"/><path d="M453.446 385.783C448.969 378.919 459.613 374.655 462.558 373.795" stroke="#000000" stroke-width="1.00019" stroke-miterlimit="8" fill="#F9D04F" fill-rule="evenodd"/><path d="M446.553 381.439C450.995 381.279 451.609 381.956 452.5 382.516" stroke="#000000" stroke-width="1.00063" stroke-miterlimit="8" fill="#F9D04F" fill-rule="evenodd"/><path d="M445.672 385.109C446.171 386.971 449.52 388.529 449.834 390.829" stroke="#000000" stroke-width="1.00026" stroke-miterlimit="8" fill="#F9D04F" fill-rule="evenodd"/><path d="M446.205 394.739C447.322 393.046 449.575 390.996 451.579 389.939 453.584 388.882 455.535 388.486 458.231 388.397 460.928 388.308 464.657 388.567 466.559 385.578" stroke="#000000" stroke-miterlimit="8" fill="#F9D04F" fill-rule="evenodd"/><path d="M447.711 387.702C445.882 388.191 445.341 388.623 443.814 387.475" stroke="#000000" stroke-width="1.00063" stroke-miterlimit="8" fill="#F9D04F" fill-rule="evenodd"/><path d="M449.86 378.646C449.032 378.16 448.881 375.652 450.242 374.795" stroke="#000000" stroke-miterlimit="8" fill="#F9D04F" fill-rule="evenodd"/><path d="M441.596 384.426C441.118 383.879 439.812 382.746 441.245 379.405" stroke="#000000" stroke-miterlimit="8" fill="#F9D04F" fill-rule="evenodd"/><path d="M458.257 388.227C458.511 385.167 457.267 379.343 465.585 380.691" stroke="#000000" stroke-miterlimit="8" fill="#F9D04F" fill-rule="evenodd"/><path d="M461.13 380.815C461.132 378.587 461.893 377.613 463.922 377.397" stroke="#000000" stroke-miterlimit="8" fill="#F9D04F" fill-rule="evenodd"/><path d="M451.231 395.823C452.189 395.766 452.792 392.639 455.448 392.539 456.787 393.556 457.809 393.299 458.947 392.632 460.405 392.723 462.554 392.706 464.434 390.933 466.235 391.673 469.349 391.868 470.588 390.252" stroke="#000000" stroke-miterlimit="8" fill="#F9D04F" fill-rule="evenodd"/><path d="M462.032 395.027C459.114 394.964 459.343 393.508 459.116 392.663" stroke="#000000" stroke-width="1.00064" stroke-miterlimit="8" fill="#F9D04F" fill-rule="evenodd"/><path d="M455.123 459.451C448.199 458.595 443.193 452.997 443.942 446.948 444.557 441.98 448.924 438.107 454.579 437.514L454.679 434.838 456.828 439.176 454.348 443.659 454.449 440.988C449.507 441.728 446.41 445.691 447.531 449.839 448.402 453.063 451.627 455.56 455.544 456.044Z" stroke="#000000" stroke-width="1.33335" stroke-miterlimit="8" fill-rule="evenodd"/><path d="M460.71 437.265C467.598 438.375 472.395 444.152 471.424 450.17 470.626 455.113 466.12 458.823 460.447 459.207L460.249 461.878 458.26 457.464 460.903 453.076 460.705 455.741C465.671 455.182 468.911 451.336 467.943 447.149 467.191 443.896 464.06 441.282 460.163 440.654Z" stroke="#000000" stroke-width="1.33336" stroke-miterlimit="8" fill-rule="evenodd"/><text font-family="Calibri,Calibri_MSFontService,sans-serif" font-weight="700" font-size="14.6667" transform="matrix(1 0 0 0.999358 442.503 424)">LLM</text><text font-family="Yu Gothic,Yu Gothic_MSFontService,sans-serif" font-weight="700" font-size="14.6667" transform="matrix(1 0 0 0.999358 421.049 479)">内部ループ</text><path d="M4.21786e-06-1 18.2244-0.999923 18.2243 1.00008-4.21786e-06 1ZM16.891-3.99993 24.891 0.000104987 16.891 4.00007Z" transform="matrix(-1.00064 0 0 1 539.907 543.651)"/><path d="M4.21786e-06-1 18.2244-0.999923 18.2243 1.00008-4.21786e-06 1ZM16.891-3.99993 24.891 0.000104987 16.891 4.00007Z" transform="matrix(-1.00064 0 0 1 395.907 543.651)"/><path d="M0.804017-0.594606 48.5371 63.9495 46.9291 65.1387-0.804017 0.594606ZM50.1564 61.0937 51.6972 69.9043 43.7243 65.8505Z" transform="matrix(1.00064 0 0 -1 322 489.635)"/><path d="M546.805 419.137 593.029 481.803 591.418 482.99 545.195 420.324ZM594.654 478.95 596.182 487.763 588.21 483.697Z"/><path d="M89.5 491.185C89.5 477.386 100.693 466.201 114.5 466.201 128.307 466.201 139.5 477.386 139.5 491.185 139.5 504.983 128.307 516.169 114.5 516.169 100.693 516.169 89.5 504.983 89.5 491.185Z" stroke="#000000" stroke-width="1.33419" stroke-miterlimit="8" fill-rule="evenodd"/><path d="M99.8628 504.746C97.5065 503.152 107.136 495.304 114 495.183 120.864 495.062 130.493 503.152 128.137 504.746 122.253 513.972 106.253 512.63 99.8628 504.746Z" stroke="#FFFFFF" stroke-width="1.33333" stroke-miterlimit="8" fill="#FFFFFF" fill-rule="evenodd"/><path d="M105 487.187C105 482.496 109.029 478.693 114 478.693 118.971 478.693 123 482.496 123 487.187 123 491.879 118.971 495.682 114 495.682 109.029 495.682 105 491.879 105 487.187Z" stroke="#000000" stroke-width="2.00128" stroke-miterlimit="8" fill="#FFFFFF" fill-rule="evenodd"/><text font-family="Yu Gothic,Yu Gothic_MSFontService,sans-serif" font-weight="700" font-size="14.6667" transform="matrix(1 0 0 0.999358 91.5833 535)">科学者</text><path d="M62.0006 366.764 62.0006 413.734 61 412.734 254.329 412.734 254.329 414.734 59.9994 414.734 59.9994 366.764ZM252.995 409.734 261 413.734 252.995 417.734Z" fill="#172C51"/><text font-family="Yu Gothic,Yu Gothic_MSFontService,sans-serif" font-weight="700" font-size="14.6667" transform="matrix(1 0 0 0.999358 184.21 391)">評価器＋</text><text font-family="Yu Gothic,Yu Gothic_MSFontService,sans-serif" font-weight="700" font-size="14.6667" transform="matrix(1 0 0 0.999358 184.21 408)">初期解</text><path d="M179 366.764 179 412.735" stroke="#172C51" stroke-width="2.00128" stroke-miterlimit="8" fill="none" fill-rule="evenodd"/><text font-family="Yu Gothic,Yu Gothic_MSFontService,sans-serif" font-weight="700" font-size="14.6667" transform="matrix(1 0 0 0.999358 66.695 407)">問題の説明</text><text font-family="Yu Gothic,Yu Gothic_MSFontService,sans-serif" font-weight="700" font-size="14.6667" transform="matrix(1 0 0 0.999358 156.338 477)">設定</text><text font-family="Calibri,Calibri_MSFontService,sans-serif" font-weight="700" font-size="14.6667" transform="matrix(1 0 0 0.999358 185.69 477)">(</text><text font-family="Yu Gothic,Yu Gothic_MSFontService,sans-serif" font-weight="700" font-size="14.6667" transform="matrix(1 0 0 0.999358 190.193 477)">例</text><text font-family="Calibri,Calibri_MSFontService,sans-serif" font-weight="700" font-size="14.6667" transform="matrix(1 0 0 0.999358 204.869 477)">:</text><text font-family="Calibri,Calibri_MSFontService,sans-serif" font-weight="700" font-size="14.6667" transform="matrix(1 0 0 0.999358 212.207 477)">LLM)</text><path d="M148 488.685 254.329 488.685 254.329 490.685 148 490.685ZM252.995 485.685 261 489.685 252.995 493.685Z" fill="#172C51"/><path d="M112.823 573.371C105.899 572.515 100.893 566.918 101.642 560.869 102.257 555.9 106.624 552.027 112.279 551.434L112.379 548.758 114.529 553.096 112.049 557.578 112.149 554.908C107.207 555.648 104.11 559.611 105.231 563.759 106.103 566.983 109.327 569.48 113.245 569.964Z" stroke="#000000" stroke-width="1.33335" stroke-miterlimit="8" fill-rule="evenodd"/><path d="M118.411 551.185C125.298 552.295 130.095 558.072 129.124 564.09 128.326 569.033 123.821 572.742 118.147 573.127L117.949 575.798 115.961 571.384 118.604 566.996 118.405 569.661C123.371 569.102 126.612 565.256 125.644 561.069 124.891 557.816 121.761 555.202 117.864 554.574Z" stroke="#000000" stroke-width="1.33336" stroke-miterlimit="8" fill-rule="evenodd"/><text font-family="Yu Gothic,Yu Gothic_MSFontService,sans-serif" font-weight="700" font-size="14.6667" transform="matrix(1 0 0 0.999358 78.7493 593)">外部ループ</text><path d="M1 0 1 222.857 0 221.857 227.183 221.857 227.183 223.857-1 223.857-1 0ZM225.85 218.857 233.85 222.857 225.85 226.857Z" fill="#172C51" transform="matrix(-6.12717e-17 -1 -1.00064 6.12323e-17 264 597.616)"/><path d="M667 457.705 683.996 457.705 683.996 459.705 667 459.705ZM682.661 454.705 690.667 458.706 682.661 462.705Z"/><text font-family="Calibri,Calibri_MSFontService,sans-serif" font-weight="700" font-size="14.6667" transform="matrix(1 0 0 0.999358 419.23 628)">AI</text><text font-family="Yu Gothic,Yu Gothic_MSFontService,sans-serif" font-weight="700" font-size="14.6667" transform="matrix(1 0 0 0.999358 431.905 628)">駆動研究</text></g></svg>