<svg width="473" height="416" xmlns="http://www.w3.org/2000/svg" xmlns:xlink="http://www.w3.org/1999/xlink" overflow="hidden"><defs><clipPath id="clip0"><rect x="0" y="0" width="473" height="416"/></clipPath></defs><g clip-path="url(#clip0)"><rect x="0" y="0" width="473" height="415.893" fill="#FFFFFF"/><path d="M37 317.919 95.1839 317.919 125.257 165.958 307 165.958" stroke="#FF0000" stroke-width="4.00423" stroke-miterlimit="8" fill="none" fill-rule="evenodd"/><path d="M36.9989 317.919 36.9989 133.948 39.001 133.948 39.001 317.919ZM32.4637 141.45 38 131.962 43.5363 141.45C43.8148 141.927 43.6535 142.54 43.176 142.819 42.6984 143.097 42.0854 142.936 41.8069 142.458L37.1353 134.452 38.8647 134.452 34.193 142.458C33.9145 142.936 33.3015 143.097 32.8239 142.819 32.3464 142.54 32.1851 141.927 32.4637 141.45Z" fill="#172C51"/><path d="M40 317.919 251.106 317.919 285.746 165.958 323 165.958" stroke="#00B050" stroke-width="4.00423" stroke-miterlimit="8" fill="none" fill-rule="evenodd"/><path d="M38.5 317.751 318.178 317.751 318.178 319.086 38.5 319.086ZM310.506 313.172 319.503 318.418 310.506 323.665C310.188 323.851 309.779 323.743 309.594 323.425 309.408 323.107 309.516 322.698 309.834 322.513L317.842 317.842 317.842 318.995 309.834 314.324C309.516 314.139 309.408 313.73 309.594 313.412 309.779 313.094 310.188 312.986 310.506 313.172Z" fill="#172C51"/><path d="M68 238.939C68 182.62 85.4609 136.965 107 136.965 128.539 136.965 146 182.62 146 238.939 146 295.257 128.539 340.913 107 340.913 85.4609 340.913 68 295.257 68 238.939Z" fill="#FF0000" fill-rule="evenodd" fill-opacity="0.101961"/><path d="M154 238.939C154 182.62 171.461 136.965 193 136.965 214.539 136.965 232 182.62 232 238.939 232 295.257 214.539 340.913 193 340.913 171.461 340.913 154 295.257 154 238.939Z" fill="#7F6000" fill-rule="evenodd" fill-opacity="0.101961"/><path d="M240 238.939C240 182.62 257.461 136.965 279 136.965 300.539 136.965 318 182.62 318 238.939 318 295.257 300.539 340.913 279 340.913 257.461 340.913 240 295.257 240 238.939Z" fill="#00B050" fill-rule="evenodd" fill-opacity="0.101961"/><text font-family="Yu Gothic,Yu Gothic_MSFontService,sans-serif" font-weight="700" font-size="14.6784" transform="matrix(1 0 0 0.999744 169.262 340)">学習回数</text><text font-family="Yu Gothic,Yu Gothic_MSFontService,sans-serif" font-weight="700" font-size="14.6784" transform="matrix(-1.83697e-16 -0.999488 1.00026 -1.8365e-16 26.9861 245)">精度</text><path d="M75 366.906 109 366.906" stroke="#FF0000" stroke-width="4.00423" stroke-miterlimit="8" fill="none" fill-rule="evenodd"/><path d="M75 392.899 109 392.899" stroke="#00B050" stroke-width="4.00423" stroke-miterlimit="8" fill="none" fill-rule="evenodd"/><text font-family="Yu Gothic,Yu Gothic_MSFontService,sans-serif" font-weight="700" font-size="14.6784" transform="matrix(1 0 0 0.999744 113.018 373)">学習データに対する精度</text><text font-family="Yu Gothic,Yu Gothic_MSFontService,sans-serif" font-weight="700" font-size="14.6784" transform="matrix(1 0 0 0.999744 112.35 399)">テストデータに対する精度</text><text font-family="Calibri,Calibri_MSFontService,sans-serif" font-weight="700" font-size="14.6784" transform="matrix(1 0 0 0.999744 45.3443 116)">Memorization</text><text font-family="Yu Gothic,Yu Gothic_MSFontService,sans-serif" font-weight="700" font-size="14.6784" transform="matrix(1 0 0 0.999744 49.3485 133)">暗記</text><text font-family="Calibri,Calibri_MSFontService,sans-serif" font-weight="700" font-size="14.6784" transform="matrix(1 0 0 0.999744 78.7129 133)">(</text><text font-family="Yu Gothic,Yu Gothic_MSFontService,sans-serif" font-weight="700" font-size="14.6784" transform="matrix(1 0 0 0.999744 83.2177 133)">過学習</text><text font-family="Calibri,Calibri_MSFontService,sans-serif" font-weight="700" font-size="14.6784" transform="matrix(1 0 0 0.999744 127.264 133)">)</text><text font-family="Calibri,Calibri_MSFontService,sans-serif" font-weight="700" font-size="14.6784" transform="matrix(1 0 0 0.999744 157.99 115)">Stagnation</text><text font-family="Yu Gothic,Yu Gothic_MSFontService,sans-serif" font-weight="700" font-size="14.6784" transform="matrix(1 0 0 0.999744 149.728 132)">停滞</text><text font-family="Calibri,Calibri_MSFontService,sans-serif" font-weight="700" font-size="14.6784" transform="matrix(1 0 0 0.999744 179.092 132)">(</text><text font-family="Yu Gothic,Yu Gothic_MSFontService,sans-serif" font-weight="700" font-size="14.6784" transform="matrix(1 0 0 0.999744 183.597 132)">過学習</text><text font-family="Calibri,Calibri_MSFontService,sans-serif" font-weight="700" font-size="14.6784" transform="matrix(1 0 0 0.999744 227.643 132)">)</text><text font-family="Calibri,Calibri_MSFontService,sans-serif" font-weight="700" font-size="14.6784" transform="matrix(1 0 0 0.999744 249.425 117)">Grokking</text><text font-family="Yu Gothic,Yu Gothic_MSFontService,sans-serif" font-weight="700" font-size="14.6784" transform="matrix(1 0 0 0.999744 249.425 134)">洞察</text><text font-family="Calibri,Calibri_MSFontService,sans-serif" font-weight="700" font-size="14.6784" transform="matrix(1 0 0 0.999744 278.79 134)">(</text><text font-family="Yu Gothic,Yu Gothic_MSFontService,sans-serif" font-weight="700" font-size="14.6784" transform="matrix(1 0 0 0.999744 283.294 134)">汎化</text><text font-family="Calibri,Calibri_MSFontService,sans-serif" font-weight="700" font-size="14.6784" transform="matrix(1 0 0 0.999744 312.659 134)">)</text><path d="M38.5 81.4792C38.5 73.7491 41.3692 67.4826 44.9087 67.4826L172.091 67.4826C175.631 67.4826 178.5 61.2162 178.5 53.4861 178.5 61.2162 181.369 67.4826 184.909 67.4826L312.091 67.4826C315.631 67.4826 318.5 73.7491 318.5 81.4792" stroke="#000000" stroke-width="3.00241" stroke-miterlimit="8" fill="none" fill-rule="evenodd"/><text font-family="Yu Gothic,Yu Gothic_MSFontService,sans-serif" font-weight="700" font-size="14.6784" transform="matrix(1 0 0 0.999744 36.22 29)">過学習の後</text><text font-family="Calibri,Calibri_MSFontService,sans-serif" font-weight="700" font-size="14.6784" transform="matrix(1 0 0 0.999744 109.631 29)">,</text><text font-family="Yu Gothic,Yu Gothic_MSFontService,sans-serif" font-weight="700" font-size="14.6784" transform="matrix(1 0 0 0.999744 116.805 29)">遅れて汎化が急激に進む現象</text><text font-family="Yu Gothic,Yu Gothic_MSFontService,sans-serif" font-weight="700" font-size="14.6784" transform="matrix(1 0 0 0.999744 36.22 46)">全体も</text><text font-family="Calibri,Calibri_MSFontService,sans-serif" font-weight="700" font-size="14.6784" transform="matrix(1 0 0 0.999744 80.2666 46)">Grokking</text><text font-family="Yu Gothic,Yu Gothic_MSFontService,sans-serif" font-weight="700" font-size="14.6784" transform="matrix(1 0 0 0.999744 135.158 46)">という</text><path d="M238.5 118.97C238.5 102.129 258.871 88.4773 284 88.4773 309.129 88.4773 329.5 102.129 329.5 118.97 329.5 135.81 309.129 149.462 284 149.462 258.871 149.462 238.5 135.81 238.5 118.97Z" stroke="#172C51" stroke-width="1.33474" stroke-miterlimit="8" stroke-dasharray="5.33898 4.00423" fill="none" fill-rule="evenodd"/><text font-family="Yu Gothic,Yu Gothic_MSFontService,sans-serif" font-weight="700" font-size="14.6784" transform="matrix(1 0 0 0.999744 337.217 107)">急激に汎化性能が</text><text font-family="Yu Gothic,Yu Gothic_MSFontService,sans-serif" font-weight="700" font-size="14.6784" transform="matrix(1 0 0 0.999744 337.217 124)">改善する現象</text><text font-family="Cambria Math,Cambria Math_MSFontService,sans-serif" font-weight="700" font-size="14.6784" transform="matrix(1 0 0 0.999744 337.217 142)">⇒</text><text font-family="Calibri,Calibri_MSFontService,sans-serif" font-weight="700" font-size="14.6784" transform="matrix(1 0 0 0.999744 349.73 142)">Aha</text><text font-family="Calibri,Calibri_MSFontService,sans-serif" font-weight="700" font-size="14.6784" transform="matrix(1 0 0 0.999744 376.925 142)">Moment</text><text font-family="Calibri,Calibri_MSFontService,sans-serif" font-weight="700" font-size="14.6784" transform="matrix(1 0 0 0.999744 351.899 159)">(</text><text font-family="Yu Gothic,Yu Gothic_MSFontService,sans-serif" font-weight="700" font-size="14.6784" transform="matrix(1 0 0 0.999744 356.404 159)">アハ体験</text><text font-family="Calibri,Calibri_MSFontService,sans-serif" font-weight="700" font-size="14.6784" transform="matrix(1 0 0 0.999744 415.132 159)">)</text></g></svg>