<svg width="624" height="265" xmlns="http://www.w3.org/2000/svg" xmlns:xlink="http://www.w3.org/1999/xlink" overflow="hidden"><defs><clipPath id="clip0"><rect x="0" y="0" width="624" height="265"/></clipPath></defs><g clip-path="url(#clip0)"><rect x="0" y="0" width="624" height="265.359" fill="#FFFFFF"/><path d="M503.178 22.5607C565.67 38.2746 602.441 101.094 585.308 162.872 568.176 224.651 503.627 261.993 441.135 246.279 378.643 230.565 341.873 167.745 359.005 105.967 365.669 81.9372 379.984 60.5142 399.83 44.8704L395.135 35.0344 426.167 38.0809 411.762 69.8643 407.082 60.0608C364.431 96.207 358.991 158.801 394.931 199.868 430.871 240.936 494.581 244.925 537.231 208.779 579.882 172.632 585.322 110.038 549.382 68.9711 536.19 53.897 518.552 43.2112 498.805 38.3306Z" stroke="#A6A6A6" stroke-width="1.33558" stroke-miterlimit="8" fill="#D9D9D9" fill-rule="evenodd"/><path d="M189.111 23.2019C251.603 38.9158 288.374 101.736 271.241 163.514 254.109 225.292 189.56 262.634 127.068 246.92 64.5763 231.206 27.8054 168.387 44.9381 106.609 51.6655 82.3504 66.1876 60.7555 86.315 45.0793L82.4828 35.0666 119.928 35.3538 96.2796 71.1145 92.4717 61.1654C50.0758 97.6004 45.0852 160.221 81.3249 201.032 117.565 241.844 181.311 245.391 223.707 208.956 266.103 172.522 271.094 109.901 234.854 69.0896 221.71 54.2871 204.25 43.7946 184.738 38.9718Z" stroke="#A6A6A6" stroke-width="1.33558" stroke-miterlimit="8" fill="#D9D9D9" fill-rule="evenodd"/><path d="M116 28.5386C116 18.8605 123.835 11.0149 133.5 11.0149L182.5 11.0149C192.165 11.0149 200 18.8605 200 28.5386L200 28.5386C200 38.2167 192.165 46.0623 182.5 46.0623L133.5 46.0623C123.835 46.0623 116 38.2167 116 28.5386Z" stroke="#000000" stroke-width="2.00107" stroke-miterlimit="8" fill="#FFFFFF" fill-rule="evenodd"/><text font-family="Yu Gothic,Yu Gothic_MSFontService,sans-serif" font-weight="700" font-size="14.6944" transform="matrix(1 0 0 1.00136 143.415 34)">観察</text><path d="M224 93.6267C224 83.9486 231.835 76.103 241.5 76.103L290.5 76.103C300.165 76.103 308 83.9486 308 93.6267L308 93.6267C308 103.305 300.165 111.15 290.5 111.15L241.5 111.15C231.835 111.15 224 103.305 224 93.6266Z" stroke="#000000" stroke-width="2.00107" stroke-miterlimit="8" fill="#FFFFFF" fill-rule="evenodd"/><text font-family="Yu Gothic,Yu Gothic_MSFontService,sans-serif" font-weight="700" font-size="14.6944" transform="matrix(1 0 0 1.00136 251.366 99)">問い</text><path d="M204 195.765C204 186.087 211.835 178.241 221.5 178.241L269.5 178.241C279.165 178.241 287 186.087 287 195.765L287 195.765C287 205.443 279.165 213.289 269.5 213.289L221.5 213.289C211.835 213.289 204 205.443 204 195.765Z" stroke="#000000" stroke-width="2.00107" stroke-miterlimit="8" fill="#FFFFFF" fill-rule="evenodd"/><text font-family="Yu Gothic,Yu Gothic_MSFontService,sans-serif" font-weight="700" font-size="14.6944" transform="matrix(1 0 0 1.00136 230.993 201)">仮説</text><path d="M29 195.765C29 186.087 36.835 178.241 46.4999 178.241L94.5 178.241C104.165 178.241 112 186.087 112 195.765L112 195.765C112 205.443 104.165 213.289 94.5 213.289L46.4999 213.289C36.835 213.289 29 205.443 29 195.765Z" stroke="#000000" stroke-width="2.00107" stroke-miterlimit="8" fill="#FFFFFF" fill-rule="evenodd"/><text font-family="Yu Gothic,Yu Gothic_MSFontService,sans-serif" font-weight="700" font-size="14.6944" transform="matrix(1 0 0 1.00136 56.0408 201)">予測</text><path d="M9.99999 95.6294C9.99999 85.9513 17.835 78.1057 27.5 78.1057L75.5 78.1057C85.165 78.1057 93 85.9513 93 95.6294L93 95.6294C93 105.307 85.165 113.153 75.5 113.153L27.5 113.153C17.835 113.153 9.99999 105.307 9.99999 95.6294Z" stroke="#000000" stroke-width="2.00107" stroke-miterlimit="8" fill="#FFFFFF" fill-rule="evenodd"/><text font-family="Yu Gothic,Yu Gothic_MSFontService,sans-serif" font-weight="700" font-size="14.6944" transform="matrix(1 0 0 1.00136 29.5789 92)">実験と</text><text font-family="Yu Gothic,Yu Gothic_MSFontService,sans-serif" font-weight="700" font-size="14.6944" transform="matrix(1 0 0 1.00136 29.5789 109)">テスト</text><path d="M426 28.5387C426 18.8606 433.835 11.0149 443.5 11.0149L492.5 11.0149C502.165 11.0149 510 18.8606 510 28.5387L510 28.5387C510 38.2168 502.165 46.0624 492.5 46.0624L443.5 46.0623C433.835 46.0623 426 38.2167 426 28.5386Z" stroke="#000000" stroke-width="2.00107" stroke-miterlimit="8" fill="#FFFFFF" fill-rule="evenodd"/><text font-family="Yu Gothic,Yu Gothic_MSFontService,sans-serif" font-weight="700" font-size="14.6944" transform="matrix(1 0 0 1.00136 453.325 34)">観察</text><path d="M528 86.1165C528 76.715 535.611 69.0935 545 69.0935L595 69.0935C604.389 69.0935 612 76.715 612 86.1165L612 86.1165C612 95.5181 604.389 103.14 595 103.14L545 103.14C535.611 103.14 528 95.5181 528 86.1165Z" stroke="#000000" stroke-width="2.00107" stroke-miterlimit="8" fill="#FFFFFF" fill-rule="evenodd"/><text font-family="Yu Gothic,Yu Gothic_MSFontService,sans-serif" font-weight="700" font-size="14.6944" transform="matrix(1 0 0 1.00136 555.124 91)">問い</text><path d="M331 177.24C331 167.838 338.611 160.217 348 160.217L398 160.217C407.389 160.217 415 167.838 415 177.24L415 177.24C415 186.641 407.389 194.263 398 194.263L348 194.263C338.611 194.263 331 186.641 331 177.24Z" stroke="#000000" stroke-width="2.00107" stroke-miterlimit="8" fill="#FFFFFF" fill-rule="evenodd"/><text font-family="Yu Gothic,Yu Gothic_MSFontService,sans-serif" font-weight="700" font-size="14.6944" transform="matrix(1 0 0 1.00136 358.292 183)">予測</text><path d="M331 92.6253C331 82.9472 338.835 75.1016 348.5 75.1016L397.5 75.1016C407.165 75.1016 415 82.9472 415 92.6253L415 92.6253C415 102.303 407.165 110.149 397.5 110.149L348.5 110.149C338.835 110.149 331 102.303 331 92.6253Z" stroke="#000000" stroke-width="2.00107" stroke-miterlimit="8" fill="#FFFFFF" fill-rule="evenodd"/><text font-family="Yu Gothic,Yu Gothic_MSFontService,sans-serif" font-weight="700" font-size="14.6944" transform="matrix(1 0 0 1.00136 350.955 89)">実験と</text><text font-family="Yu Gothic,Yu Gothic_MSFontService,sans-serif" font-weight="700" font-size="14.6944" transform="matrix(1 0 0 1.00136 350.955 106)">テスト</text><path d="M528 177.24C528 167.838 535.611 160.217 545 160.217L595 160.217C604.389 160.217 612 167.838 612 177.24L612 177.24C612 186.641 604.389 194.263 595 194.263L545 194.263C535.611 194.263 528 186.641 528 177.24Z" stroke="#000000" stroke-width="2.00107" stroke-miterlimit="8" fill="#FFFFFF" fill-rule="evenodd"/><text font-family="Yu Gothic,Yu Gothic_MSFontService,sans-serif" font-weight="700" font-size="14.6944" transform="matrix(1 0 0 1.00136 547.787 174)">モデル</text><text font-family="Yu Gothic,Yu Gothic_MSFontService,sans-serif" font-weight="700" font-size="14.6944" transform="matrix(1 0 0 1.00136 555.124 191)">学習</text><path d="M430 240.826C430 231.148 437.835 223.302 447.5 223.302L496.5 223.302C506.165 223.302 514 231.148 514 240.826L514 240.826C514 250.504 506.165 258.35 496.5 258.35L447.5 258.35C437.835 258.35 430 250.504 430 240.826Z" stroke="#000000" stroke-width="2.00107" stroke-miterlimit="8" fill="#FFFFFF" fill-rule="evenodd"/><text font-family="Yu Gothic,Yu Gothic_MSFontService,sans-serif" font-weight="700" font-size="14.6944" transform="matrix(1 0 0 1.00136 450.145 238)">モデル</text><text font-family="Yu Gothic,Yu Gothic_MSFontService,sans-serif" font-weight="700" font-size="14.6944" transform="matrix(1 0 0 1.00136 457.482 255)">解釈</text><text font-family="Yu Gothic,Yu Gothic_MSFontService,sans-serif" font-weight="700" font-size="14.6944" transform="matrix(1 0 0 1.00136 123.112 115)">科学的発見</text><text font-family="Yu Gothic,Yu Gothic_MSFontService,sans-serif" font-weight="700" font-size="14.6944" transform="matrix(1 0 0 1.00136 130.449 132)">のための</text><text font-family="Yu Gothic,Yu Gothic_MSFontService,sans-serif" font-weight="700" font-size="14.6944" transform="matrix(1 0 0 1.00136 123.112 150)">仮説演繹的</text><text font-family="Yu Gothic,Yu Gothic_MSFontService,sans-serif" font-weight="700" font-size="14.6944" transform="matrix(1 0 0 1.00136 123.112 167)">パラダイム</text><text font-family="Yu Gothic,Yu Gothic_MSFontService,sans-serif" font-weight="700" font-size="14.6944" transform="matrix(1 0 0 1.00136 430.913 116)">説明可能な</text><text font-family="Calibri,Calibri_MSFontService,sans-serif" font-weight="700" font-size="14.6944" transform="matrix(1 0 0 1.00136 504.285 116)">AI</text><text font-family="Yu Gothic,Yu Gothic_MSFontService,sans-serif" font-weight="700" font-size="14.6944" transform="matrix(1 0 0 1.00136 451.924 133)">ベース</text><text font-family="Calibri,Calibri_MSFontService,sans-serif" font-weight="700" font-size="14.6944" transform="matrix(1 0 0 1.00136 432.747 151)">(</text><text font-family="Yu Gothic,Yu Gothic_MSFontService,sans-serif" font-weight="700" font-size="14.6944" transform="matrix(1 0 0 1.00136 437.249 151)">仮説</text><text font-family="Yu Gothic,Yu Gothic_MSFontService,sans-serif" font-weight="700" font-size="14.6944" transform="matrix(1 0 0 1.00136 466.598 151)">不要</text><text font-family="Calibri,Calibri_MSFontService,sans-serif" font-weight="700" font-size="14.6944" transform="matrix(1 0 0 1.00136 495.947 151)">)</text><text font-family="Yu Gothic,Yu Gothic_MSFontService,sans-serif" font-weight="700" font-size="14.6944" transform="matrix(1 0 0 1.00136 500.45 151)">の</text><text font-family="Yu Gothic,Yu Gothic_MSFontService,sans-serif" font-weight="700" font-size="14.6944" transform="matrix(1 0 0 1.00136 437.249 168)">科学的発見</text><text font-family="Yu Gothic,Yu Gothic_MSFontService,sans-serif" font-weight="700" font-size="14.6944" transform="matrix(1 0 0 1.00136 437.249 186)">パラダイム</text></g></svg>