<svg width="529" height="182" xmlns="http://www.w3.org/2000/svg" xmlns:xlink="http://www.w3.org/1999/xlink" overflow="hidden"><defs><clipPath id="clip0"><rect x="0" y="0" width="529" height="182"/></clipPath></defs><g clip-path="url(#clip0)"><rect x="0" y="0" width="529" height="181.556" fill="#FFFFFF"/><path d="M20 62.1904C20 35.5993 42.3858 14.043 70 14.043 97.6142 14.043 120 35.5993 120 62.1904 120 88.7814 97.6142 110.338 70 110.338 42.3858 110.338 20 88.7814 20 62.1904Z" stroke="#172C51" stroke-width="1.99937" stroke-miterlimit="8" fill="#FFFFFF" fill-rule="evenodd"/><text font-family="Calibri,Calibri_MSFontService,sans-serif" font-weight="700" font-size="14.7071" transform="matrix(1 0 0 1.00307 43.5847 59)">AlphaGo</text><text font-family="Calibri,Calibri_MSFontService,sans-serif" font-weight="700" font-size="14.7071" transform="matrix(1 0 0 1.00307 50.3292 76)">(2015)</text><path d="M140 62.1904C140 35.5993 162.61 14.043 190.5 14.043 218.39 14.043 241 35.5993 241 62.1904 241 88.7814 218.39 110.338 190.5 110.338 162.61 110.338 140 88.7814 140 62.1904Z" stroke="#172C51" stroke-width="1.99937" stroke-miterlimit="8" fill="#FFFFFF" fill-rule="evenodd"/><text font-family="Calibri,Calibri_MSFontService,sans-serif" font-weight="700" font-size="14.7071" transform="matrix(1 0 0 1.00307 164.466 50)">AlphaGo</text><text font-family="Calibri,Calibri_MSFontService,sans-serif" font-weight="700" font-size="14.7071" transform="matrix(1 0 0 1.00307 177.042 67)">Zero</text><text font-family="Calibri,Calibri_MSFontService,sans-serif" font-weight="700" font-size="14.7071" transform="matrix(1 0 0 1.00307 171.21 85)">(2017)</text><path d="M261 62.1904C261 35.5993 283.61 14.043 311.5 14.043 339.39 14.043 362 35.5993 362 62.1904 362 88.7814 339.39 110.338 311.5 110.338 283.61 110.338 261 88.7814 261 62.1904Z" stroke="#172C51" stroke-width="1.99937" stroke-miterlimit="8" fill="#FFFFFF" fill-rule="evenodd"/><text font-family="Calibri,Calibri_MSFontService,sans-serif" font-weight="700" font-size="14.7071" transform="matrix(1 0 0 1.00307 293.928 50)">Alpha</text><text font-family="Calibri,Calibri_MSFontService,sans-serif" font-weight="700" font-size="14.7071" transform="matrix(1 0 0 1.00307 297.926 67)">Zero</text><text font-family="Calibri,Calibri_MSFontService,sans-serif" font-weight="700" font-size="14.7071" transform="matrix(1 0 0 1.00307 292.095 85)">(2018)</text><path d="M382 62.1904C382 35.5993 404.61 14.043 432.5 14.043 460.39 14.043 483 35.5993 483 62.1904 483 88.7814 460.39 110.338 432.5 110.338 404.61 110.338 382 88.7814 382 62.1904Z" stroke="#172C51" stroke-width="1.99937" stroke-miterlimit="8" fill="#FFFFFF" fill-rule="evenodd"/><text font-family="Calibri,Calibri_MSFontService,sans-serif" font-weight="700" font-size="14.7071" transform="matrix(1 0 0 1.00307 408.477 59)">MuZero</text><text font-family="Calibri,Calibri_MSFontService,sans-serif" font-weight="700" font-size="14.7071" transform="matrix(1 0 0 1.00307 412.976 76)">(2019)</text><text font-family="Yu Gothic,Yu Gothic_MSFontService,sans-serif" font-weight="700" font-size="14.7071" transform="matrix(1 0 0 1.00307 20.1921 136)">・囲碁</text><text font-family="Yu Gothic,Yu Gothic_MSFontService,sans-serif" font-weight="700" font-size="14.7071" transform="matrix(1 0 0 1.00307 20.1921 154)">・人間知識あり</text><text font-family="Yu Gothic,Yu Gothic_MSFontService,sans-serif" font-weight="700" font-size="14.7071" transform="matrix(1 0 0 1.00307 135.356 136)">・囲碁</text><text fill="#FF00FF" font-family="Yu Gothic,Yu Gothic_MSFontService,sans-serif" font-weight="700" font-size="14.7071" transform="matrix(1 0 0 1.00307 135.356 154)">・人間知識なし</text><text fill="#FF00FF" font-family="Yu Gothic,Yu Gothic_MSFontService,sans-serif" font-weight="700" font-size="14.7071" transform="matrix(1 0 0 1.00307 246.254 136)">・任意のゲーム</text><text fill="#FF00FF" font-family="Calibri,Calibri_MSFontService,sans-serif" font-weight="700" font-size="14.7071" transform="matrix(1 0 0 1.00307 260.916 154)">(</text><text fill="#FF00FF" font-family="Yu Gothic,Yu Gothic_MSFontService,sans-serif" font-weight="700" font-size="14.7071" transform="matrix(1 0 0 1.00307 265.415 154)">ルール情報のみ</text><text fill="#FF00FF" font-family="Calibri,Calibri_MSFontService,sans-serif" font-weight="700" font-size="14.7071" transform="matrix(1 0 0 1.00307 368.049 154)">)</text><text fill="#FF00FF" font-family="Yu Gothic,Yu Gothic_MSFontService,sans-serif" font-weight="700" font-size="14.7071" transform="matrix(1 0 0 1.00307 246.254 172)">・人間知識なし</text><text fill="#FF00FF" font-family="Yu Gothic,Yu Gothic_MSFontService,sans-serif" font-weight="700" font-size="14.7071" transform="matrix(1 0 0 1.00307 379.012 136)">・任意のゲーム</text><text fill="#FF00FF" font-family="Calibri,Calibri_MSFontService,sans-serif" font-weight="700" font-size="14.7071" transform="matrix(1 0 0 1.00307 393.674 154)">(</text><text fill="#FF00FF" font-family="Yu Gothic,Yu Gothic_MSFontService,sans-serif" font-weight="700" font-size="14.7071" transform="matrix(1 0 0 1.00307 398.173 154)">ルール情報なし</text><text fill="#FF00FF" font-family="Calibri,Calibri_MSFontService,sans-serif" font-weight="700" font-size="14.7071" transform="matrix(1 0 0 1.00307 500.807 154)">)</text><text fill="#FF00FF" font-family="Yu Gothic,Yu Gothic_MSFontService,sans-serif" font-weight="700" font-size="14.7071" transform="matrix(1 0 0 1.00307 379.012 172)">・人間知識なし</text></g></svg>