<svg width="378" height="284" xmlns="http://www.w3.org/2000/svg" xmlns:xlink="http://www.w3.org/1999/xlink" overflow="hidden"><defs><clipPath id="clip0"><rect x="0" y="0" width="378" height="284"/></clipPath></defs><g clip-path="url(#clip0)"><rect x="0" y="0" width="378" height="284.501" fill="#FFFFFF"/><path d="M73.8965 67.6244 73.8965 270.587" stroke="#000000" stroke-width="1.33333" stroke-linejoin="round" stroke-miterlimit="10" fill="none" fill-rule="evenodd"/><path d="M119.127 67.6244 119.127 270.587" stroke="#000000" stroke-width="1.33333" stroke-linejoin="round" stroke-miterlimit="10" fill="none" fill-rule="evenodd"/><path d="M163.409 67.6244 163.409 270.587" stroke="#000000" stroke-width="1.33333" stroke-linejoin="round" stroke-miterlimit="10" fill="none" fill-rule="evenodd"/><path d="M207.692 67.6244 207.692 270.587" stroke="#000000" stroke-width="1.33333" stroke-linejoin="round" stroke-miterlimit="10" fill="none" fill-rule="evenodd"/><path d="M29.8965 93.4956 252.64 93.4956" stroke="#000000" stroke-width="1.33333" stroke-linejoin="round" stroke-miterlimit="10" fill="none" fill-rule="evenodd"/><path d="M29.8965 118.699 252.64 118.699" stroke="#000000" stroke-width="1.33333" stroke-linejoin="round" stroke-miterlimit="10" fill="none" fill-rule="evenodd"/><path d="M29.8965 143.902 252.64 143.902" stroke="#000000" stroke-width="1.33333" stroke-linejoin="round" stroke-miterlimit="10" fill="none" fill-rule="evenodd"/><path d="M29.8965 169.106 252.64 169.106" stroke="#000000" stroke-width="1.33333" stroke-linejoin="round" stroke-miterlimit="10" fill="none" fill-rule="evenodd"/><path d="M29.8965 194.309 252.64 194.309" stroke="#000000" stroke-width="1.33333" stroke-linejoin="round" stroke-miterlimit="10" fill="none" fill-rule="evenodd"/><path d="M29.8965 219.513 252.64 219.513" stroke="#000000" stroke-width="1.33333" stroke-linejoin="round" stroke-miterlimit="10" fill="none" fill-rule="evenodd"/><path d="M29.8965 244.716 252.64 244.716" stroke="#000000" stroke-width="1.33333" stroke-linejoin="round" stroke-miterlimit="10" fill="none" fill-rule="evenodd"/><path d="M30.5632 67.6244 30.5632 270.587" stroke="#000000" stroke-width="1.33333" stroke-linejoin="round" stroke-miterlimit="10" fill="none" fill-rule="evenodd"/><path d="M251.974 67.6244 251.974 270.587" stroke="#000000" stroke-width="1.33333" stroke-linejoin="round" stroke-miterlimit="10" fill="none" fill-rule="evenodd"/><path d="M29.8965 68.2922 252.64 68.2922" stroke="#000000" stroke-width="1.33333" stroke-linejoin="round" stroke-miterlimit="10" fill="none" fill-rule="evenodd"/><path d="M29.8965 269.92 252.64 269.92" stroke="#000000" stroke-width="1.33333" stroke-linejoin="round" stroke-miterlimit="10" fill="none" fill-rule="evenodd"/><text font-family="Calibri,Calibri_MSFontService,sans-serif" font-weight="400" font-size="14.6925" transform="matrix(1 0 0 1.00176 226.083 86)">0</text><text font-family="Calibri,Calibri_MSFontService,sans-serif" font-weight="400" font-size="14.6925" transform="matrix(1 0 0 1.00176 181.8 86)">0</text><text font-family="Calibri,Calibri_MSFontService,sans-serif" font-weight="400" font-size="14.6925" transform="matrix(1 0 0 1.00176 137.518 86)">0</text><g><text font-family="Yu Gothic,Yu Gothic_MSFontService,sans-serif" font-weight="400" font-size="14.6925" transform="matrix(1 0 0 1.00176 77.3453 85)">0</text></g><text font-family="Yu Gothic,Yu Gothic_MSFontService,sans-serif" font-weight="400" font-size="14.6925" transform="matrix(1 0 0 1.00176 85.5119 85)">･･･</text><g><text font-family="Yu Gothic,Yu Gothic_MSFontService,sans-serif" font-weight="400" font-size="14.6925" transform="matrix(1 0 0 1.00176 107.512 85)">0</text></g><text font-family="Calibri,Calibri_MSFontService,sans-serif" font-weight="400" font-size="14.6925" transform="matrix(1 0 0 1.00176 48.4798 86)">0</text><text font-family="Calibri,Calibri_MSFontService,sans-serif" font-weight="400" font-size="14.6925" transform="matrix(1 0 0 1.00176 226.083 112)">1</text><text font-family="Calibri,Calibri_MSFontService,sans-serif" font-weight="400" font-size="14.6925" transform="matrix(1 0 0 1.00176 181.8 112)">0</text><text font-family="Calibri,Calibri_MSFontService,sans-serif" font-weight="400" font-size="14.6925" transform="matrix(1 0 0 1.00176 137.518 112)">0</text><g><text font-family="Yu Gothic,Yu Gothic_MSFontService,sans-serif" font-weight="400" font-size="14.6925" transform="matrix(1 0 0 1.00176 77.3453 110)">0</text></g><text font-family="Yu Gothic,Yu Gothic_MSFontService,sans-serif" font-weight="400" font-size="14.6925" transform="matrix(1 0 0 1.00176 85.5119 110)">･･･</text><g><text font-family="Yu Gothic,Yu Gothic_MSFontService,sans-serif" font-weight="400" font-size="14.6925" transform="matrix(1 0 0 1.00176 107.512 110)">0</text></g><text font-family="Calibri,Calibri_MSFontService,sans-serif" font-weight="400" font-size="14.6925" transform="matrix(1 0 0 1.00176 48.4798 112)">0</text><text font-family="Calibri,Calibri_MSFontService,sans-serif" font-weight="400" font-size="14.6925" transform="matrix(1 0 0 1.00176 226.083 137)">0</text><text font-family="Calibri,Calibri_MSFontService,sans-serif" font-weight="400" font-size="14.6925" transform="matrix(1 0 0 1.00176 181.8 137)">1</text><text font-family="Calibri,Calibri_MSFontService,sans-serif" font-weight="400" font-size="14.6925" transform="matrix(1 0 0 1.00176 137.518 137)">0</text><g><text font-family="Yu Gothic,Yu Gothic_MSFontService,sans-serif" font-weight="400" font-size="14.6925" transform="matrix(1 0 0 1.00176 77.3453 136)">0</text></g><text font-family="Yu Gothic,Yu Gothic_MSFontService,sans-serif" font-weight="400" font-size="14.6925" transform="matrix(1 0 0 1.00176 85.5119 136)">･･･</text><g><text font-family="Yu Gothic,Yu Gothic_MSFontService,sans-serif" font-weight="400" font-size="14.6925" transform="matrix(1 0 0 1.00176 107.512 136)">0</text></g><text font-family="Calibri,Calibri_MSFontService,sans-serif" font-weight="400" font-size="14.6925" transform="matrix(1 0 0 1.00176 48.4798 137)">0</text><text font-family="Calibri,Calibri_MSFontService,sans-serif" font-weight="400" font-size="14.6925" transform="matrix(1 0 0 1.00176 226.083 162)">1</text><text font-family="Calibri,Calibri_MSFontService,sans-serif" font-weight="400" font-size="14.6925" transform="matrix(1 0 0 1.00176 181.8 162)">1</text><text font-family="Calibri,Calibri_MSFontService,sans-serif" font-weight="400" font-size="14.6925" transform="matrix(1 0 0 1.00176 137.518 162)">0</text><g><text font-family="Yu Gothic,Yu Gothic_MSFontService,sans-serif" font-weight="400" font-size="14.6925" transform="matrix(1 0 0 1.00176 77.3453 161)">0</text></g><text font-family="Yu Gothic,Yu Gothic_MSFontService,sans-serif" font-weight="400" font-size="14.6925" transform="matrix(1 0 0 1.00176 85.5119 161)">･･･</text><g><text font-family="Yu Gothic,Yu Gothic_MSFontService,sans-serif" font-weight="400" font-size="14.6925" transform="matrix(1 0 0 1.00176 107.512 161)">0</text></g><text font-family="Calibri,Calibri_MSFontService,sans-serif" font-weight="400" font-size="14.6925" transform="matrix(1 0 0 1.00176 48.4798 162)">0</text><text font-family="Calibri,Calibri_MSFontService,sans-serif" font-weight="400" font-size="14.6925" transform="matrix(1 0 0 1.00176 226.083 212)">1</text><text font-family="Calibri,Calibri_MSFontService,sans-serif" font-weight="400" font-size="14.6925" transform="matrix(1 0 0 1.00176 181.8 212)">0</text><text font-family="Calibri,Calibri_MSFontService,sans-serif" font-weight="400" font-size="14.6925" transform="matrix(1 0 0 1.00176 137.518 212)">1</text><g><text font-family="Calibri,Calibri_MSFontService,sans-serif" font-weight="400" font-size="14.6925" transform="matrix(1 0 0 1.00176 78.0119 212)">1</text></g><text font-family="Yu Gothic,Yu Gothic_MSFontService,sans-serif" font-weight="400" font-size="14.6925" transform="matrix(1 0 0 1.00176 85.5119 212)">･･･</text><g><text font-family="Calibri,Calibri_MSFontService,sans-serif" font-weight="400" font-size="14.6925" transform="matrix(1 0 0 1.00176 107.512 212)">1</text></g><text font-family="Calibri,Calibri_MSFontService,sans-serif" font-weight="400" font-size="14.6925" transform="matrix(1 0 0 1.00176 48.4798 212)">1</text><text font-family="Calibri,Calibri_MSFontService,sans-serif" font-weight="400" font-size="14.6925" transform="matrix(1 0 0 1.00176 226.083 238)">0</text><text font-family="Calibri,Calibri_MSFontService,sans-serif" font-weight="400" font-size="14.6925" transform="matrix(1 0 0 1.00176 181.8 238)">1</text><text font-family="Calibri,Calibri_MSFontService,sans-serif" font-weight="400" font-size="14.6925" transform="matrix(1 0 0 1.00176 137.518 238)">1</text><g><text font-family="Calibri,Calibri_MSFontService,sans-serif" font-weight="400" font-size="14.6925" transform="matrix(1 0 0 1.00176 78.0119 238)">1</text></g><text font-family="Yu Gothic,Yu Gothic_MSFontService,sans-serif" font-weight="400" font-size="14.6925" transform="matrix(1 0 0 1.00176 85.5119 238)">･･･</text><g><text font-family="Calibri,Calibri_MSFontService,sans-serif" font-weight="400" font-size="14.6925" transform="matrix(1 0 0 1.00176 107.512 238)">1</text></g><text font-family="Calibri,Calibri_MSFontService,sans-serif" font-weight="400" font-size="14.6925" transform="matrix(1 0 0 1.00176 48.4798 238)">1</text><text font-family="Calibri,Calibri_MSFontService,sans-serif" font-weight="400" font-size="14.6925" transform="matrix(1 0 0 1.00176 226.083 263)">1</text><text font-family="Calibri,Calibri_MSFontService,sans-serif" font-weight="400" font-size="14.6925" transform="matrix(1 0 0 1.00176 181.8 263)">1</text><text font-family="Calibri,Calibri_MSFontService,sans-serif" font-weight="400" font-size="14.6925" transform="matrix(1 0 0 1.00176 137.518 263)">1</text><g><text font-family="Calibri,Calibri_MSFontService,sans-serif" font-weight="400" font-size="14.6925" transform="matrix(1 0 0 1.00176 78.0119 263)">1</text></g><text font-family="Yu Gothic,Yu Gothic_MSFontService,sans-serif" font-weight="400" font-size="14.6925" transform="matrix(1 0 0 1.00176 85.5119 263)">･･･</text><g><text font-family="Calibri,Calibri_MSFontService,sans-serif" font-weight="400" font-size="14.6925" transform="matrix(1 0 0 1.00176 107.512 263)">1</text></g><text font-family="Calibri,Calibri_MSFontService,sans-serif" font-weight="400" font-size="14.6925" transform="matrix(1 0 0 1.00176 48.4798 263)">1</text><path d="M31.5 57.6015C31.5 52.0689 34.7638 47.5838 38.7898 47.5838L134.71 47.584C138.736 47.584 142 43.0989 142 37.5662 142 43.0989 145.264 47.584 149.29 47.584L245.21 47.584C249.236 47.584 252.5 52.0691 252.5 57.6018" stroke="#000000" stroke-width="1.33568" stroke-miterlimit="8" fill="none" fill-rule="evenodd"/><path d="M263.5 68.6209C269.023 68.6209 273.5 71.8904 273.5 75.9235L273.5 148.472C273.5 152.505 277.977 155.774 283.5 155.774 277.977 155.774 273.5 159.044 273.5 163.077L273.5 235.625C273.5 239.658 269.023 242.928 263.5 242.928" stroke="#000000" stroke-width="1.33333" stroke-miterlimit="8" fill="none" fill-rule="evenodd"/><path d="M5.50005 178.715C5.50005 179.213 37.8475 179.616 77.7501 179.616 117.653 179.616 150 179.213 150 178.715 150 178.217 182.347 177.813 222.25 177.813 262.153 177.813 294.5 178.217 294.5 178.715L294.5 185.927C294.5 185.429 262.153 185.026 222.25 185.026 182.347 185.026 150 185.429 150 185.927 150 186.425 117.653 186.829 77.7501 186.829 37.8475 186.829 5.50005 186.425 5.50005 185.927Z" stroke="#172C51" stroke-width="1.33333" stroke-miterlimit="8" fill="#FFFFFF" fill-rule="evenodd"/><path d="M264.98 258.455 291 258.455 291 260.459 264.98 260.459ZM272.476 264.997 262.995 259.457 272.476 253.917C272.953 253.638 273.565 253.799 273.844 254.277 274.122 254.755 273.961 255.368 273.484 255.647L265.484 260.322 265.484 258.591 273.484 263.266C273.961 263.545 274.122 264.159 273.844 264.636 273.565 265.114 272.953 265.276 272.476 264.997Z" fill="#172C51"/><text font-family="Yu Gothic,Yu Gothic_MSFontService,sans-serif" font-weight="700" font-size="14.6925" transform="matrix(1 0 0 1.00176 299.496 267)">幸せな家庭</text><text font-family="Yu Gothic,Yu Gothic_MSFontService,sans-serif" font-weight="700" font-size="14.6925" transform="matrix(1 0 0 1.00176 289.305 162)">不幸な家庭</text><text font-family="Yu Gothic,Yu Gothic_MSFontService,sans-serif" font-weight="700" font-size="14.6925" transform="matrix(1 0 0 1.00176 52.3152 28)">幸せになるための必要条件</text></g></svg>