<svg width="699" height="312" xmlns="http://www.w3.org/2000/svg" xmlns:xlink="http://www.w3.org/1999/xlink" overflow="hidden"><defs><clipPath id="clip0"><rect x="0" y="0" width="699" height="312"/></clipPath></defs><g clip-path="url(#clip0)"><rect x="0" y="0" width="699" height="312.241" fill="#FFFFFF"/><rect x="319.5" y="221.671" width="48" height="48.0371" stroke="#172C51" stroke-width="1.33302" stroke-miterlimit="8" fill="#0702FF"/><rect x="312.5" y="227.676" width="48" height="47.0364" stroke="#172C51" stroke-width="1.33302" stroke-miterlimit="8" fill="#2BFF02"/><rect x="305.5" y="233.681" width="48" height="47.0364" stroke="#172C51" stroke-width="1.33302" stroke-miterlimit="8" fill="#FB0101"/><rect x="302.5" y="184.078" width="90.5638" height="5.56804" fill="#FEE3E1"/><path d="M393.064 184.078 417.5 159.623 417.5 165.191 393.064 189.646Z" fill="#CCB6B5" fill-rule="evenodd"/><path d="M302.5 184.078 326.936 159.623 417.5 159.623 393.064 184.078Z" fill="#FEE8E7" fill-rule="evenodd"/><path d="M302.5 184.078 326.936 159.623 417.5 159.623 417.5 165.191 393.064 189.646 302.5 189.646ZM302.5 184.078 393.064 184.078 417.5 159.623M393.064 184.078 393.064 189.646" stroke="#FB0101" stroke-width="1.33302" stroke-miterlimit="8" fill="none" fill-rule="evenodd"/><rect x="313.5" y="141.955" width="75.6551" height="7.66095" fill="#FFF2E2"/><path d="M389.155 141.955 406.5 124.596 406.5 132.257 389.155 149.616Z" fill="#CDC3B6" fill-rule="evenodd"/><path d="M313.5 141.955 330.845 124.596 406.5 124.596 389.155 141.955Z" fill="#FFF5E8" fill-rule="evenodd"/><path d="M313.5 141.955 330.845 124.596 406.5 124.596 406.5 132.257 389.155 149.616 313.5 149.616ZM313.5 141.955 389.155 141.955 406.5 124.596M389.155 141.955 389.155 149.616" stroke="#FCA82A" stroke-width="1.33302" stroke-miterlimit="8" fill="none" fill-rule="evenodd"/><rect x="327.5" y="108.929" width="50.6551" height="7.66092" fill="#DFF7E9"/><path d="M378.155 108.929 395.5 91.5707 395.5 99.2316 378.155 116.59Z" fill="#B3C7BB" fill-rule="evenodd"/><path d="M327.5 108.929 344.845 91.5707 395.5 91.5707 378.155 108.929Z" fill="#E5F9ED" fill-rule="evenodd"/><path d="M327.5 108.929 344.845 91.5707 395.5 91.5707 395.5 99.2316 378.155 116.59 327.5 116.59ZM327.5 108.929 378.155 108.929 395.5 91.5707M378.155 108.929 378.155 116.59" stroke="#1D749E" stroke-width="1.33302" stroke-miterlimit="8" fill="none" fill-rule="evenodd"/><rect x="337.5" y="73.09" width="34.4666" height="11.4753" fill="#DEF5FF"/><path d="M371.967 73.09 385.5 59.546 385.5 71.0214 371.967 84.5653Z" fill="#B2C5CD" fill-rule="evenodd"/><path d="M337.5 73.09 351.033 59.546 385.5 59.546 371.967 73.09Z" fill="#E4F7FF" fill-rule="evenodd"/><path d="M337.5 73.09 351.033 59.546 385.5 59.546 385.5 71.0214 371.967 84.5653 337.5 84.5653ZM337.5 73.09 371.967 73.09 385.5 59.546M371.967 73.09 371.967 84.5653" stroke="#2F89B5" stroke-width="1.33302" stroke-miterlimit="8" fill="none" fill-rule="evenodd"/><rect x="456.5" y="141.955" width="75.6551" height="7.66095" fill="#FDDDA8"/><path d="M532.155 141.955 549.5 124.596 549.5 132.257 532.155 149.616Z" fill="#CBB287" fill-rule="evenodd"/><path d="M456.5 141.955 473.845 124.596 549.5 124.596 532.155 141.955Z" fill="#FDE4B9" fill-rule="evenodd"/><path d="M456.5 141.955 473.845 124.596 549.5 124.596 549.5 132.257 532.155 149.616 456.5 149.616ZM456.5 141.955 532.155 141.955 549.5 124.596M532.155 141.955 532.155 149.616" stroke="#EB9507" stroke-width="1.33302" stroke-miterlimit="8" fill="none" fill-rule="evenodd"/><rect x="470.5" y="109.93" width="50.655" height="7.6609" fill="#9AE6B3"/><path d="M521.155 109.93 538.5 92.5715 538.5 100.232 521.155 117.591Z" fill="#7CB990" fill-rule="evenodd"/><path d="M470.5 109.93 487.845 92.5715 538.5 92.5715 521.155 109.93Z" fill="#AEEBC2" fill-rule="evenodd"/><path d="M470.5 109.93 487.845 92.5715 538.5 92.5715 538.5 100.232 521.155 117.591 470.5 117.591ZM470.5 109.93 521.155 109.93 538.5 92.5715M521.155 109.93 521.155 117.591" stroke="#1D749E" stroke-width="1.33302" stroke-miterlimit="8" fill="none" fill-rule="evenodd"/><rect x="480.5" y="73.549" width="36.0078" height="11.0163" fill="#94E2F3"/><path d="M516.508 73.549 529.5 60.5468 529.5 71.5631 516.508 84.5653Z" fill="#77B6C3" fill-rule="evenodd"/><path d="M480.5 73.549 493.492 60.5468 529.5 60.5468 516.508 73.549Z" fill="#A9E8F5" fill-rule="evenodd"/><path d="M480.5 73.549 493.492 60.5468 529.5 60.5468 529.5 71.5631 516.508 84.5653 480.5 84.5653ZM480.5 73.549 516.508 73.549 529.5 60.5468M516.508 73.549 516.508 84.5653" stroke="#2F89B5" stroke-width="1.33302" stroke-miterlimit="8" fill="none" fill-rule="evenodd"/><rect x="586.5" y="141.955" width="75.655" height="7.66095" fill="#EC8701"/><path d="M662.155 141.955 679.5 124.596 679.5 132.257 662.155 149.616Z" fill="#BE6D01" fill-rule="evenodd"/><path d="M586.5 141.955 603.845 124.596 679.5 124.596 662.155 141.955Z" fill="#F09F33" fill-rule="evenodd"/><path d="M586.5 141.955 603.845 124.596 679.5 124.596 679.5 132.257 662.155 149.616 586.5 149.616ZM586.5 141.955 662.155 141.955 679.5 124.596M662.155 141.955 662.155 149.616" stroke="#EB9507" stroke-width="1.33302" stroke-miterlimit="8" fill="none" fill-rule="evenodd"/><rect x="600.5" y="108.929" width="50.6551" height="7.66092" fill="#14971F"/><path d="M651.155 108.929 668.5 91.5707 668.5 99.2316 651.155 116.59Z" fill="#107919" fill-rule="evenodd"/><path d="M600.5 108.929 617.845 91.5707 668.5 91.5707 651.155 108.929Z" fill="#42AB4B" fill-rule="evenodd"/><path d="M600.5 108.929 617.845 91.5707 668.5 91.5707 668.5 99.2316 651.155 116.59 600.5 116.59ZM600.5 108.929 651.155 108.929 668.5 91.5707M651.155 108.929 651.155 116.59" stroke="#1D749E" stroke-width="1.33302" stroke-miterlimit="8" fill="none" fill-rule="evenodd"/><rect x="610.5" y="73.09" width="35.4665" height="11.4753" fill="#168ECA"/><path d="M645.966 73.09 659.5 59.546 659.5 71.0214 645.966 84.5653Z" fill="#1272A2" fill-rule="evenodd"/><path d="M610.5 73.09 624.033 59.546 659.5 59.546 645.966 73.09Z" fill="#44A4D4" fill-rule="evenodd"/><path d="M610.5 73.09 624.033 59.546 659.5 59.546 659.5 71.0214 645.966 84.5653 610.5 84.5653ZM610.5 73.09 645.966 73.09 659.5 59.546M645.966 73.09 645.966 84.5653" stroke="#2F89B5" stroke-width="1.33302" stroke-miterlimit="8" fill="none" fill-rule="evenodd"/><rect x="293.5" y="34.5267" width="132" height="170.131" stroke="#172C51" stroke-width="1.33302" stroke-miterlimit="8" stroke-dasharray="5.33206 3.99905" fill="none"/><rect x="440.5" y="35.5274" width="121" height="170.131" stroke="#172C51" stroke-width="1.33302" stroke-miterlimit="8" stroke-dasharray="5.33206 3.99905" fill="none"/><rect x="576.5" y="35.5274" width="114" height="170.131" stroke="#172C51" stroke-width="1.33302" stroke-miterlimit="8" stroke-dasharray="5.33206 3.99905" fill="none"/><rect x="295.5" y="215.667" width="82" height="89.0688" stroke="#172C51" stroke-width="1.33302" stroke-miterlimit="8" stroke-dasharray="5.33206 3.99905" fill="none"/><path d="M359.833 171.633 359.833 156.286 361.166 156.286 361.166 171.633ZM356.501 157.62 360.5 149.616 364.499 157.62Z" fill="#172C51"/><path d="M-0.666508 15-0.666508 6.66508 0.666508 6.66508 0.666508 15ZM-3.99905 7.99809 0 0 3.99905 7.99809Z" fill="#172C51" transform="matrix(-1 0 0 1.00077 360.5 117.591)"/><path d="M-0.666508 13.9999-0.666508 6.66508 0.666508 6.66508 0.666508 13.9999ZM-3.99905 7.99809 0 0 3.99905 7.99809Z" fill="#172C51" transform="matrix(-1 0 0 1.00077 361.5 85.5661)"/><path d="M-0.666508 31.9999-0.666508 6.66508 0.666508 6.66508 0.666508 31.9999ZM-3.99905 7.99809 0 0 3.99905 7.99809Z" fill="#172C51" transform="matrix(-1 0 0 1.00077 359.5 188.646)"/><path d="M-0.666508 19-0.666508 6.66508 0.666508 6.66508 0.666508 19ZM-3.99905 7.99809 0 0 3.99905 7.99809Z" fill="#172C51" transform="matrix(1 -1.22559e-16 -1.22465e-16 -1.00077 504.5 104.581)"/><path d="M-0.666508 20.0001-0.666508 6.66507 0.666508 6.66507 0.666508 20.0001ZM-3.99905 7.99809 0 0 3.99905 7.99809Z" fill="#172C51" transform="matrix(1 -1.22559e-16 -1.22465e-16 -1.00077 504.5 136.606)"/><path d="M385.5 65.8844 430.627 65.8844 430.627 77.56 429.96 76.8929 473.835 76.8929 473.835 78.227 429.293 78.227 429.293 66.5515 429.96 67.2185 385.5 67.2185ZM472.502 73.5578 480.5 77.56 472.502 81.5621Z" fill="#172C51"/><path d="M396.5 95.9076 431.798 95.9076 431.798 113.588 431.132 112.921 463.835 112.921 463.835 114.255 430.465 114.255 430.465 96.5746 431.132 97.2417 396.5 97.2417ZM462.502 109.586 470.5 113.588 462.502 117.59Z" fill="#172C51"/><path d="M407.5 128.933 431.098 128.933 431.098 145.612 430.432 144.945 449.835 144.945 449.835 146.279 429.765 146.279 429.765 129.6 430.432 130.267 407.5 130.267ZM448.502 141.61 456.5 145.612 448.502 149.615Z" fill="#172C51"/><path d="M529.5 65.8844 572.051 65.8844 572.051 79.2966 571.39 78.6296 597.84 78.8411 597.83 80.1751 570.718 79.9583 570.718 66.5515 571.384 67.2185 529.5 67.2185ZM596.534 75.4955 604.5 79.5615 596.47 83.4995Z" fill="#172C51"/><path d="M538.5 95.9076 570.999 95.9076 570.999 113.241 570.341 112.574 588.845 112.829 588.826 114.163 569.666 113.899 569.666 96.5746 570.332 97.2417 538.5 97.2417ZM587.558 109.476 595.5 113.588 587.448 117.479Z" fill="#172C51"/><path d="M549.5 127.932 572.927 127.932 572.927 145.547 572.246 144.88 573.921 144.842 576.018 144.839 580.888 144.891 580.883 144.891 582.837 144.898 582.832 146.233 580.876 146.225 576.008 146.173 576.016 146.173 573.931 146.176 573.945 146.176 571.594 146.23 571.594 128.599 572.261 129.266 549.5 129.266ZM581.504 141.563 589.5 145.569 581.5 149.567Z" fill="#172C51"/><text font-family="Calibri,Calibri_MSFontService,sans-serif" font-weight="700" font-size="14.6745" transform="matrix(1 0 0 1.00077 313.891 51)">Backbone(</text><text font-family="Yu Gothic,Yu Gothic_MSFontService,sans-serif" font-weight="700" font-size="14.6745" transform="matrix(1 0 0 1.00077 377.709 51)">背骨</text><text font-family="Calibri,Calibri_MSFontService,sans-serif" font-weight="700" font-size="14.6745" transform="matrix(1 0 0 1.00077 407.035 51)">)</text><text font-family="Calibri,Calibri_MSFontService,sans-serif" font-weight="700" font-size="14.6745" transform="matrix(1 0 0 1.00077 482.983 52)">Neck(</text><text font-family="Yu Gothic,Yu Gothic_MSFontService,sans-serif" font-weight="700" font-size="14.6745" transform="matrix(1 0 0 1.00077 517.641 52)">首</text><text font-family="Calibri,Calibri_MSFontService,sans-serif" font-weight="700" font-size="14.6745" transform="matrix(1 0 0 1.00077 532.304 52)">)</text><text font-family="Calibri,Calibri_MSFontService,sans-serif" font-weight="700" font-size="14.6745" transform="matrix(1 0 0 1.00077 610.408 51)">Head(</text><text font-family="Yu Gothic,Yu Gothic_MSFontService,sans-serif" font-weight="700" font-size="14.6745" transform="matrix(1 0 0 1.00077 646.566 51)">頭</text><text font-family="Calibri,Calibri_MSFontService,sans-serif" font-weight="700" font-size="14.6745" transform="matrix(1 0 0 1.00077 661.229 51)">)</text><text font-family="Yu Gothic,Yu Gothic_MSFontService,sans-serif" font-weight="700" font-size="14.6745" transform="matrix(1 0 0 1.00077 299.59 298)">入力データ</text><rect x="19.5" y="53.5414" width="31.9999" height="32.0248" stroke="#172C51" stroke-width="1.33302" stroke-miterlimit="8" fill="#0702FF"/><rect x="14.5" y="57.5444" width="32" height="32.0248" stroke="#172C51" stroke-width="1.33302" stroke-miterlimit="8" fill="#2BFF02"/><rect x="10.5" y="61.5475" width="32" height="32.0248" stroke="#172C51" stroke-width="1.33302" stroke-miterlimit="8" fill="#FB0101"/><text font-family="Yu Gothic,Yu Gothic_MSFontService,sans-serif" font-weight="700" font-size="14.6745" transform="matrix(1 0 0 1.00077 16.5713 29)">入力</text><text font-family="Yu Gothic,Yu Gothic_MSFontService,sans-serif" font-weight="700" font-size="14.6745" transform="matrix(1 0 0 1.00077 9.23969 46)">データ</text><rect x="80.5" y="45.5352" width="3.70921" height="52.7499" fill="#FEE3E1"/><path d="M84.2092 98.2851 100.5 114.589 96.7908 114.589 80.5 98.2851Z" fill="#CCB6B5" fill-rule="evenodd"/><path d="M84.2092 45.5352 100.5 61.8386 100.5 114.589 84.2092 98.2851Z" fill="#FEE8E7" fill-rule="evenodd"/><path d="M84.2092 45.5352 100.5 61.8386 100.5 114.589 96.7908 114.589 80.5 98.2851 80.5 45.5352ZM84.2092 45.5352 84.2092 98.2851 100.5 114.589M84.2092 98.2851 80.5 98.2851" stroke="#FB0101" stroke-width="1.33405" stroke-miterlimit="8" fill="none" fill-rule="evenodd"/><rect x="106.5" y="51.5398" width="4.89925" height="45.9347" fill="#FFF2E2"/><path d="M111.399 97.4745 122.5 108.584 117.601 108.584 106.5 97.4745Z" fill="#CDC3B6" fill-rule="evenodd"/><path d="M111.399 51.5398 122.5 62.6491 122.5 108.584 111.399 97.4745Z" fill="#FFF5E8" fill-rule="evenodd"/><path d="M111.399 51.5398 122.5 62.6491 122.5 108.584 117.601 108.584 106.5 97.4745 106.5 51.5398ZM111.399 51.5398 111.399 97.4745 122.5 108.584M111.399 97.4745 106.5 97.4745" stroke="#FCA82A" stroke-width="1.33405" stroke-miterlimit="8" fill="none" fill-rule="evenodd"/><rect x="127.5" y="60.5468" width="5.2054" height="29.2279" fill="#DFF7E9"/><path d="M132.705 89.7747 144.5 101.578 139.295 101.578 127.5 89.7747Z" fill="#B3C7BB" fill-rule="evenodd"/><path d="M132.705 60.5468 144.5 72.3505 144.5 101.578 132.705 89.7747Z" fill="#E5F9ED" fill-rule="evenodd"/><path d="M132.705 60.5468 144.5 72.3505 144.5 101.578 139.295 101.578 127.5 89.7747 127.5 60.5468ZM132.705 60.5468 132.705 89.7747 144.5 101.578M132.705 89.7747 127.5 89.7747" stroke="#1D749E" stroke-width="1.33405" stroke-miterlimit="8" fill="none" fill-rule="evenodd"/><rect x="148.5" y="66.5514" width="7.7972" height="19.8125" fill="#DEF5FF"/><path d="M156.297 86.3639 165.5 95.5737 157.703 95.5737 148.5 86.3639Z" fill="#B2C5CD" fill-rule="evenodd"/><path d="M156.297 66.5514 165.5 75.7613 165.5 95.5737 156.297 86.3639Z" fill="#E4F7FF" fill-rule="evenodd"/><path d="M156.297 66.5514 165.5 75.7613 165.5 95.5737 157.703 95.5737 148.5 86.3639 148.5 66.5514ZM156.297 66.5514 156.297 86.3639 165.5 95.5737M156.297 86.3639 148.5 86.3639" stroke="#2F89B5" stroke-width="1.33405" stroke-miterlimit="8" fill="none" fill-rule="evenodd"/><path d="M92.5 79.8952 99.8348 79.8952 99.8348 81.2293 92.5 81.2293ZM98.5018 76.5601 106.5 80.5622 98.5018 84.5644Z" fill="#172C51"/><path d="M-0.666508 10-0.666508 6.66508 0.666508 6.66508 0.666508 10ZM-3.99905 7.99809 0 0 3.99905 7.99809Z" fill="#172C51" transform="matrix(-6.12323e-17 -1.00077 -1 6.12797e-17 127.5 80.5622)"/><path d="M-0.666508 10-0.666508 6.66508 0.666508 6.66508 0.666508 10ZM-3.99905 7.99809 0 0 3.99905 7.99809Z" fill="#172C51" transform="matrix(-6.12323e-17 -1.00077 -1 6.12797e-17 148.5 81.5631)"/><path d="M180.5 50.539 180.5 121.594" stroke="#172C51" stroke-width="1.33302" stroke-miterlimit="8" fill="none" fill-rule="evenodd"/><rect x="180.5" y="54.5421" width="6.00005" height="4.00308" stroke="#172C51" stroke-width="1.33302" stroke-miterlimit="8" fill="#DAE3F3"/><rect x="180.5" y="62.5483" width="10" height="4.00319" stroke="#172C51" stroke-width="1.33302" stroke-miterlimit="8" fill="#DAE3F3"/><rect x="180.5" y="71.5553" width="18" height="4.00308" stroke="#172C51" stroke-width="1.33302" stroke-miterlimit="8" fill="#DAE3F3"/><rect x="180.5" y="79.5614" width="5.00006" height="5.00383" stroke="#172C51" stroke-width="1.33302" stroke-miterlimit="8" fill="#DAE3F3"/><rect x="180.5" y="88.5684" width="16.0001" height="4.00319" stroke="#172C51" stroke-width="1.33302" stroke-miterlimit="8" fill="#DAE3F3"/><rect x="180.5" y="96.5746" width="13" height="5.00383" stroke="#172C51" stroke-width="1.33302" stroke-miterlimit="8" fill="#DAE3F3"/><rect x="180.5" y="105.582" width="5.00006" height="4.00308" stroke="#172C51" stroke-width="1.33302" stroke-miterlimit="8" fill="#DAE3F3"/><rect x="180.5" y="113.588" width="4.00009" height="5.00394" stroke="#172C51" stroke-width="1.33302" stroke-miterlimit="8" fill="#DAE3F3"/><path d="M216.5 50.539 216.5 121.594" stroke="#172C51" stroke-width="1.33302" stroke-miterlimit="8" fill="none" fill-rule="evenodd"/><rect x="216.5" y="71.5553" width="19" height="4.00308" stroke="#172C51" stroke-width="1.33302" stroke-miterlimit="8" fill="#DAE3F3"/><path d="M161.5 80.896 171.835 80.896 171.835 82.2301 161.5 82.2301ZM170.502 77.5609 178.5 81.563 170.502 85.5652Z" fill="#172C51"/><path d="M198.5 79.8952 207.835 79.8952 207.835 81.2292 198.5 81.2292ZM206.502 76.5601 214.5 80.5622 206.502 84.5643Z" fill="#172C51"/><rect x="70.5" y="32.5251" width="181" height="99.0766" stroke="#172C51" stroke-width="1.33302" stroke-miterlimit="8" stroke-dasharray="5.33206 3.99905" fill="none"/><path d="M54.5 77.8937 73.8349 77.8937 73.8349 79.2277 54.5 79.2277ZM72.5019 74.5586 80.5 78.5607 72.5019 82.5628Z" fill="#172C51"/><text font-family="Yu Gothic,Yu Gothic_MSFontService,sans-serif" font-weight="700" font-size="14.6745" transform="matrix(1 0 0 1.00077 109.562 21)">画像分類モデル</text><path d="M165.5 128.599C165.5 134.679 163.731 139.608 161.549 139.608L126.951 139.608C124.769 139.608 123 144.536 123 150.616 123 144.536 121.231 139.608 119.049 139.608L84.4509 139.608C82.2689 139.608 80.5 134.679 80.5 128.599" stroke="#000000" stroke-width="1.33405" stroke-miterlimit="8" fill="none" fill-rule="evenodd"/><path d="M240.5 128.599C240.5 134.679 238.731 139.608 236.549 139.608L211.451 139.608C209.269 139.608 207.5 144.536 207.5 150.616 207.5 144.536 205.731 139.608 203.549 139.608L178.451 139.608C176.269 139.608 174.5 134.679 174.5 128.599" stroke="#000000" stroke-width="1.33405" stroke-miterlimit="8" fill="none" fill-rule="evenodd"/><text font-family="Calibri,Calibri_MSFontService,sans-serif" font-weight="700" font-size="14.6745" transform="matrix(1 0 0 1.00077 367.942 21)">Backbone</text><text font-family="Calibri,Calibri_MSFontService,sans-serif" font-weight="700" font-size="14.6745" transform="matrix(1 0 0 1.00077 427.261 21)">-</text><text font-family="Calibri,Calibri_MSFontService,sans-serif" font-weight="700" font-size="14.6745" transform="matrix(1 0 0 1.00077 431.76 21)">Neck</text><text font-family="Calibri,Calibri_MSFontService,sans-serif" font-weight="700" font-size="14.6745" transform="matrix(1 0 0 1.00077 461.919 21)">-</text><text font-family="Calibri,Calibri_MSFontService,sans-serif" font-weight="700" font-size="14.6745" transform="matrix(1 0 0 1.00077 466.418 21)">Head</text><text font-family="Yu Gothic,Yu Gothic_MSFontService,sans-serif" font-weight="700" font-size="14.6745" transform="matrix(1 0 0 1.00077 498.077 21)">アーキテクチャー</text><text font-family="Yu Gothic,Yu Gothic_MSFontService,sans-serif" font-weight="700" font-size="14.6745" transform="matrix(1 0 0 1.00077 93.2727 168)">特徴抽出</text><text font-family="Yu Gothic,Yu Gothic_MSFontService,sans-serif" font-weight="700" font-size="14.6745" transform="matrix(1 0 0 1.00077 192.58 168)">分類</text><path d="M127.25 174.635 127.25 194.025 283.75 194.025 283.75 190.147 291.5 197.903 283.75 205.659 283.75 201.781 119.5 201.781 119.5 174.635Z" stroke="#172C51" stroke-width="1.33405" stroke-miterlimit="8" fill="#FFFFFF" fill-rule="evenodd"/></g></svg>