<svg width="537" height="227" xmlns="http://www.w3.org/2000/svg" xmlns:xlink="http://www.w3.org/1999/xlink" overflow="hidden"><defs><clipPath id="clip0"><rect x="0" y="0" width="537" height="227"/></clipPath></defs><g clip-path="url(#clip0)"><rect x="0" y="0" width="537" height="227.026" fill="#FFFFFF"/><path d="M86.0001 27.0031C86.0001 18.7179 92.7158 12.0014 101 12.0014 109.284 12.0014 116 18.7179 116 27.0031 116 35.2883 109.284 42.0048 101 42.0048 92.7158 42.0048 86.0001 35.2883 86.0001 27.0031Z" stroke="#172C51" stroke-width="2.00124" stroke-miterlimit="8" fill="#00B0F0" fill-rule="evenodd" fill-opacity="0.698039"/><text font-family="Cambria Math,Cambria Math_MSFontService,sans-serif" font-weight="400" font-size="14.6774" transform="matrix(1 0 0 1.00011 91.1888 32)">𝒉</text><text font-family="Cambria Math,Cambria Math_MSFontService,sans-serif" font-weight="400" font-size="10.7145" transform="matrix(1 0 0 1.00011 100.528 35)">𝟐</text><path d="M147 49.0056C147 40.7204 153.716 34.0039 162 34.0039 170.284 34.0039 177 40.7204 177 49.0056 177 57.2908 170.284 64.0073 162 64.0073 153.716 64.0073 147 57.2908 147 49.0056Z" stroke="#172C51" stroke-width="2.00124" stroke-miterlimit="8" fill="#00B0F0" fill-rule="evenodd" fill-opacity="0.698039"/><text font-family="Cambria Math,Cambria Math_MSFontService,sans-serif" font-weight="400" font-size="14.6774" transform="matrix(1 0 0 1.00011 152.431 54)">𝒉</text><text font-family="Cambria Math,Cambria Math_MSFontService,sans-serif" font-weight="400" font-size="10.7145" transform="matrix(1 0 0 1.00011 161.77 57)">𝟏</text><path d="M29 47.0053C29 38.7201 35.7158 32.0037 44 32.0037 52.2843 32.0037 59 38.7201 59 47.0053 59 55.2905 52.2843 62.007 44 62.007 35.7158 62.007 29 55.2905 29 47.0053Z" stroke="#172C51" stroke-width="2.00124" stroke-miterlimit="8" fill="#00B0F0" fill-rule="evenodd" fill-opacity="0.698039"/><text font-family="Cambria Math,Cambria Math_MSFontService,sans-serif" font-weight="400" font-size="14.6774" transform="matrix(1 0 0 1.00011 34.3195 52)">𝒉</text><text font-family="Cambria Math,Cambria Math_MSFontService,sans-serif" font-weight="400" font-size="10.7145" transform="matrix(1 0 0 1.00011 43.6586 55)">𝟑</text><path d="M13 103.012C13 94.7265 19.7157 88.01 28 88.01 36.2843 88.01 43 94.7265 43 103.012 43 111.297 36.2843 118.013 28 118.013 19.7157 118.013 13 111.297 13 103.012Z" stroke="#172C51" stroke-width="2.00124" stroke-miterlimit="8" fill="#FFFFFF" fill-rule="evenodd" fill-opacity="0.698039"/><text font-family="Cambria Math,Cambria Math_MSFontService,sans-serif" font-weight="400" font-size="14.6774" transform="matrix(1 0 0 1.00011 18.7805 108)">𝒗</text><text font-family="Cambria Math,Cambria Math_MSFontService,sans-serif" font-weight="400" font-size="10.7145" transform="matrix(1 0 0 1.00011 27.6193 111)">𝟏</text><path d="M49 144.016C49 135.731 55.7157 129.015 64 129.015 72.2843 129.015 79 135.731 79 144.016 79 152.302 72.2843 159.018 64 159.018 55.7157 159.018 49 152.302 49 144.016Z" stroke="#172C51" stroke-width="2.00124" stroke-miterlimit="8" fill="#FFFFFF" fill-rule="evenodd" fill-opacity="0.698039"/><text font-family="Cambria Math,Cambria Math_MSFontService,sans-serif" font-weight="400" font-size="14.6774" transform="matrix(1 0 0 1.00011 54.7779 149)">𝒗</text><text font-family="Cambria Math,Cambria Math_MSFontService,sans-serif" font-weight="400" font-size="10.7145" transform="matrix(1 0 0 1.00011 63.6168 152)">𝟐</text><path d="M110 144.016C110 135.731 116.716 129.015 125 129.015 133.284 129.015 140 135.731 140 144.016 140 152.302 133.284 159.018 125 159.018 116.716 159.018 110 152.302 110 144.016Z" stroke="#172C51" stroke-width="2.00124" stroke-miterlimit="8" fill="#FFFFFF" fill-rule="evenodd" fill-opacity="0.698039"/><text font-family="Cambria Math,Cambria Math_MSFontService,sans-serif" font-weight="400" font-size="14.6774" transform="matrix(1 0 0 1.00011 115.327 149)">𝒗</text><text font-family="Cambria Math,Cambria Math_MSFontService,sans-serif" font-weight="400" font-size="10.7145" transform="matrix(1 0 0 1.00011 124.166 152)">𝟑</text><path d="M151 109.012C151 100.727 157.716 94.0107 166 94.0107 174.284 94.0107 181 100.727 181 109.012 181 117.298 174.284 124.014 166 124.014 157.716 124.014 151 117.298 151 109.012Z" stroke="#172C51" stroke-width="2.00124" stroke-miterlimit="8" fill="#FFFFFF" fill-rule="evenodd" fill-opacity="0.698039"/><text font-family="Cambria Math,Cambria Math_MSFontService,sans-serif" font-weight="400" font-size="14.6774" transform="matrix(1 0 0 1.00011 156.467 115)">𝒗</text><text font-family="Cambria Math,Cambria Math_MSFontService,sans-serif" font-weight="400" font-size="10.7145" transform="matrix(1 0 0 1.00011 165.305 118)">𝟒</text><path d="M6.48598 1.59468 25.088 7.16688 24.8965 7.8059 6.29456 2.23371ZM6.5198 6.13119 0 0 8.81684-1.53713ZM24.8627 3.26939 31.3825 9.40059 22.5657 10.9377Z" transform="matrix(1 0 0 -1.00011 55.5 36.9048)"/><path d="M4.81425 4.62966 47.2162 49.6926 46.7304 50.1498 4.32843 5.08679ZM2.57068 8.57269 0 0 8.40056 3.08707ZM48.974 46.2067 51.5446 54.7794 43.1441 51.6923Z" transform="matrix(1 0 0 -1.00011 39.5 93.29)"/><path d="M2.89761 6.0179 34.3782 80.7308 33.7635 80.9898 2.28287 6.27692ZM-0.580158 8.931 0 0 6.79671 5.82273ZM37.2412 78.0767 36.6611 87.0077 29.8644 81.185Z" transform="matrix(1 0 0 -1.00011 64.5 129.522)"/><path d="M124.538 123.342 113.133 45.1542 113.793 45.0579 125.198 123.246ZM128.636 121.396 125.831 129.895 120.715 122.551ZM109.695 47.0042 112.5 38.5044 117.616 45.8486Z"/><path d="M152.249 94.3723 116.123 44.1161 116.665 43.7267 152.791 93.9828ZM154.991 90.7575 156.414 99.5945 148.491 95.4307ZM113.923 47.3414 112.5 38.5044 120.422 42.6682Z"/><path d="M145.777 36.7728 122.784 29.7666 122.978 29.1284 145.971 36.1346ZM145.764 32.2356 152.255 38.3981 143.431 39.8939ZM122.991 33.6656 116.5 27.5031 125.324 26.0072Z"/><path d="M141.076 49.2194 66.1642 47.9518 66.1755 47.2848 141.088 48.5523ZM139.816 44.8609 147.752 48.9987 139.68 52.8656ZM67.4362 51.6432 59.5 47.5054 67.5716 43.6385Z"/><path d="M149.981 97.4252 61.5503 61.3362 61.8024 60.7185 150.233 96.8075ZM150.384 92.9059 156.283 99.6369 147.359 100.318ZM61.3994 65.2377 55.5 58.5067 64.4238 57.8252Z"/><path d="M110.756 129.275 59.3631 63.956 59.8873 63.5434 111.28 128.862ZM113.338 125.544 115.143 134.311 107.047 130.495ZM57.3047 67.2737 55.5 58.5067 63.5956 62.3229Z"/><path d="M62.4639 123.273 46.1056 68.9912 46.7443 68.7986 63.1026 123.081ZM66.2304 120.744 64.7082 129.565 58.566 123.055ZM42.9777 71.3275 44.5 62.5071 50.6422 69.0173Z"/><path d="M1.45845 6.51797 4.43122 23.818 3.77377 23.931 0.801006 6.63094ZM-2.589 8.56718 0 0 5.30034 7.2115ZM7.82122 21.8818 5.23222 30.4489-0.0681189 23.2374Z" transform="matrix(1 0 0 -1.00011 28.5 88.9591)"/><path d="M6.49189 1.57057 106.484 31.1184 106.295 31.7581 6.30285 2.2103ZM6.54255 6.10691 0 0 8.81106-1.56989ZM106.244 27.2218 112.787 33.3287 103.976 34.8986Z" transform="matrix(1 0 0 -1.00011 39.5 92.8393)"/><path d="M5.02588 4.39901 72.2274 69.4244 71.7635 69.9038 4.56201 4.8784ZM2.96952 8.44283 0 0 8.53597 2.69008ZM73.8199 65.86 76.7894 74.3028 68.2534 71.6127Z" transform="matrix(1 0 0 -1.00011 75.5 133.818)"/><path d="M43.7674 119.652 50.65 128.837 50.1162 129.237 43.2336 120.052ZM41.0977 123.32 39.5 114.513 47.5035 118.519ZM52.7859 125.568 54.3836 134.376 46.3801 130.37Z"/><path d="M49.7638 105.83 108.558 131 108.296 131.614 49.5013 106.444ZM49.284 110.342 43.5 103.512 52.4341 102.982ZM108.775 127.102 114.559 133.932 105.625 134.462Z"/><path d="M50.1789 103.568 144.687 109.094 144.648 109.76 50.1399 104.234ZM51.2577 107.975 43.5 103.512 51.7249 99.9829ZM143.569 105.353 151.326 109.816 143.102 113.345Z"/><path d="M86.1708 144.183 103.518 144.183 103.518 144.85 86.1708 144.85ZM87.5049 148.519 79.5 144.516 87.5049 140.513ZM102.184 140.514 110.189 144.516 102.184 148.519Z"/><path d="M6.46063 1.69456 69.9426 21.7828 69.7413 22.4188 6.25937 2.33056ZM6.42444 6.23105 0 0 8.8395-1.40093ZM69.7775 17.8823 76.202 24.1133 67.3624 25.5143Z" transform="matrix(1 0 0 -1.00011 75.5 133.629)"/><path d="M5.71109 3.46329 14.6889 9.54075 14.315 10.0932 5.33714 4.0157ZM4.38524 7.80186 0 0 8.87263 1.17292ZM15.6408 5.75458 20.0261 13.5564 11.1534 12.3835Z" transform="matrix(1 0 0 -1.00011 135.5 134.072)"/><path d="M165.143 88.8161 162.98 71.1699 163.643 71.0887 165.805 88.7349ZM169.284 86.9641 166.285 95.3975 161.339 87.938ZM159.501 72.9407 162.5 64.5073 167.447 71.9668Z"/><path d="M290 53.006C290 44.7208 296.716 38.0043 305 38.0043 313.284 38.0043 320 44.7208 320 53.006 320 61.2912 313.284 68.0077 305 68.0077 296.716 68.0077 290 61.2912 290 53.006Z" stroke="#172C51" stroke-width="2.00124" stroke-miterlimit="8" fill="#00B0F0" fill-rule="evenodd" fill-opacity="0.698039"/><text font-family="Cambria Math,Cambria Math_MSFontService,sans-serif" font-weight="400" font-size="14.6774" transform="matrix(1 0 0 1.00011 295.031 58)">𝒉</text><text font-family="Cambria Math,Cambria Math_MSFontService,sans-serif" font-weight="400" font-size="10.7145" transform="matrix(1 0 0 1.00011 304.37 61)">𝟐</text><path d="M344 54.0061C344 45.7209 350.492 39.0044 358.5 39.0044 366.508 39.0044 373 45.7209 373 54.0061 373 62.2913 366.508 69.0078 358.5 69.0078 350.492 69.0078 344 62.2913 344 54.0061Z" stroke="#172C51" stroke-width="2.00124" stroke-miterlimit="8" fill="#00B0F0" fill-rule="evenodd" fill-opacity="0.698039"/><text font-family="Cambria Math,Cambria Math_MSFontService,sans-serif" font-weight="400" font-size="14.6774" transform="matrix(1 0 0 1.00011 348.717 59)">𝒉</text><text font-family="Cambria Math,Cambria Math_MSFontService,sans-serif" font-weight="400" font-size="10.7145" transform="matrix(1 0 0 1.00011 358.056 62)">𝟏</text><path d="M240 51.0058C240 42.7206 246.716 36.0041 255 36.0041 263.284 36.0041 270 42.7206 270 51.0058 270 59.291 263.284 66.0075 255 66.0075 246.716 66.0075 240 59.291 240 51.0058Z" stroke="#172C51" stroke-width="2.00124" stroke-miterlimit="8" fill="#00B0F0" fill-rule="evenodd" fill-opacity="0.698039"/><text font-family="Cambria Math,Cambria Math_MSFontService,sans-serif" font-weight="400" font-size="14.6774" transform="matrix(1 0 0 1.00011 244.842 56)">𝒉</text><text font-family="Cambria Math,Cambria Math_MSFontService,sans-serif" font-weight="400" font-size="10.7145" transform="matrix(1 0 0 1.00011 254.181 59)">𝟑</text><path d="M207 138.016C207 129.73 213.716 123.014 222 123.014 230.284 123.014 237 129.73 237 138.016 237 146.301 230.284 153.017 222 153.017 213.716 153.017 207 146.301 207 138.016Z" stroke="#172C51" stroke-width="2.00124" stroke-miterlimit="8" fill="#FFFFFF" fill-rule="evenodd" fill-opacity="0.698039"/><text font-family="Cambria Math,Cambria Math_MSFontService,sans-serif" font-weight="400" font-size="14.6774" transform="matrix(1 0 0 1.00011 212.322 143)">𝒗</text><text font-family="Cambria Math,Cambria Math_MSFontService,sans-serif" font-weight="400" font-size="10.7145" transform="matrix(1 0 0 1.00011 221.161 146)">𝟏</text><path d="M257 136.516C257 128.506 263.716 122.014 272 122.014 280.284 122.014 287 128.506 287 136.516 287 144.525 280.284 151.017 272 151.017 263.716 151.017 257 144.525 257 136.516Z" stroke="#172C51" stroke-width="2.00124" stroke-miterlimit="8" fill="#FFFFFF" fill-rule="evenodd" fill-opacity="0.698039"/><text font-family="Cambria Math,Cambria Math_MSFontService,sans-serif" font-weight="400" font-size="14.6774" transform="matrix(1 0 0 1.00011 262.208 142)">𝒗</text><text font-family="Cambria Math,Cambria Math_MSFontService,sans-serif" font-weight="400" font-size="10.7145" transform="matrix(1 0 0 1.00011 271.047 145)">𝟐</text><path d="M306 137.516C306 129.507 312.716 123.014 321 123.014 329.284 123.014 336 129.507 336 137.516 336 145.525 329.284 152.017 321 152.017 312.716 152.017 306 145.525 306 137.516Z" stroke="#172C51" stroke-width="2.00124" stroke-miterlimit="8" fill="#FFFFFF" fill-rule="evenodd" fill-opacity="0.698039"/><text font-family="Cambria Math,Cambria Math_MSFontService,sans-serif" font-weight="400" font-size="14.6774" transform="matrix(1 0 0 1.00011 311.613 143)">𝒗</text><text font-family="Cambria Math,Cambria Math_MSFontService,sans-serif" font-weight="400" font-size="10.7145" transform="matrix(1 0 0 1.00011 320.451 146)">𝟑</text><path d="M359 137.516C359 129.507 365.492 123.014 373.5 123.014 381.508 123.014 388 129.507 388 137.516 388 145.525 381.508 152.017 373.5 152.017 365.492 152.017 359 145.525 359 137.516Z" stroke="#172C51" stroke-width="2.00124" stroke-miterlimit="8" fill="#FFFFFF" fill-rule="evenodd" fill-opacity="0.698039"/><text font-family="Cambria Math,Cambria Math_MSFontService,sans-serif" font-weight="400" font-size="14.6774" transform="matrix(1 0 0 1.00011 363.897 143)">𝒗</text><text font-family="Cambria Math,Cambria Math_MSFontService,sans-serif" font-weight="400" font-size="10.7145" transform="matrix(1 0 0 1.00011 372.736 146)">𝟒</text><path d="M4.88286 4.55724 57.4411 58.7683 56.9622 59.2326 4.40392 5.02158ZM2.69843 8.53334 0 0 8.44573 2.96126ZM59.1467 55.2566 61.8451 63.7899 53.3994 60.8287Z" transform="matrix(1 0 0 -1.00011 232.5 127.304)"/><path d="M3.77014 5.5133 29.8721 48.1029 29.3033 48.4515 3.20138 5.86188ZM0.770359 8.91661 0 0 7.5955 4.73368ZM32.3031 45.0482 33.0734 53.9648 25.4779 49.2312Z" transform="matrix(1 0 0 -1.00011 272.5 122.479)"/><path d="M320.296 116.193 315.815 70.1797 316.479 70.115 320.96 116.129ZM324.482 114.445 321.274 122.801 316.515 115.221ZM312.292 71.8634 315.5 63.5072 320.26 71.0874Z"/><path d="M358.745 122.027 319.222 69.0537 319.757 68.6547 359.279 121.628ZM361.422 118.364 363.001 127.174 355.006 123.152ZM317.079 72.3176 315.5 63.5072 323.495 67.5298Z"/><path d="M357.457 124.252 270.865 66.4868 271.235 65.9317 357.827 123.697ZM358.753 119.904 363.191 127.676 354.311 126.564ZM269.939 70.2797 265.5 62.5071 274.38 63.6195Z"/><path d="M306.819 122.393 269.04 68.1715 269.587 67.7901 307.367 122.012ZM309.614 118.819 310.907 127.676 303.046 123.396ZM266.793 71.3641 265.5 62.5071 273.36 66.787Z"/><path d="M270.331 115.704 257.148 72.9808 257.786 72.7841 270.968 115.507ZM274.08 113.15 272.616 121.98 266.431 115.511ZM254.036 75.3378 255.5 66.5075 261.685 72.9771Z"/><path d="M2.59852 6.15294 20.2405 54.5373 19.6138 54.7659 1.9718 6.38146ZM-1.01813 8.89173 0 0 6.5025 6.14954ZM23.2304 52.027 22.2123 60.9188 15.7098 54.7692Z" transform="matrix(1 0 0 -1.00011 222.5 123.433)"/><path d="M6.02683 2.87868 109.821 58.9848 109.504 59.5717 5.70962 3.46551ZM5.1387 7.32756 0 0 8.94527 0.285579ZM110.392 55.1229 115.531 62.4504 106.585 62.1648Z" transform="matrix(1 0 0 -1.00011 232.5 127.965)"/><path d="M5.10071 4.31202 60.9999 56.5718 60.5443 57.0591 4.64514 4.79932ZM3.11412 8.39057 0 0 8.58093 2.54305ZM62.5309 52.9805 65.6451 61.3711 57.0641 58.8281Z" transform="matrix(1 0 0 -1.00011 282.5 126.885)"/><path d="M372.318 116.751 360.969 76.0242 361.612 75.8451 372.96 116.572ZM376.137 114.302 374.43 123.089 368.425 116.451ZM357.793 78.2945 359.5 69.5079 365.504 76.1454Z"/><path d="M2.69849 6.10977 24.722 63.5815 24.0991 63.8202 2.07558 6.34847ZM-0.87303 8.90714 0 0 6.6019 6.04271ZM27.6706 61.0228 26.7975 69.9299 20.1956 63.8872Z" transform="matrix(1 0 0 -1.00011 125.5 129.445)"/><path d="M3.1027 5.91472 24.3003 51.7529 23.6948 52.0329 2.49723 6.19471ZM-0.272869 8.94567 0 0 6.99281 5.58569ZM27.0704 49.0019 26.7975 57.9476 19.8047 52.3619Z" transform="matrix(1 0 0 -1.00011 332.5 127.462)"/><text font-family="Calibri,Calibri_MSFontService,sans-serif" font-weight="700" font-size="14.6774" transform="matrix(1 0 0 1.00011 22.6006 181)">BM</text><text font-family="Calibri,Calibri_MSFontService,sans-serif" font-weight="700" font-size="14.6774" transform="matrix(1 0 0 1.00011 43.6137 181)">:</text><text font-family="Calibri,Calibri_MSFontService,sans-serif" font-weight="700" font-size="14.6774" transform="matrix(1 0 0 1.00011 50.9516 181)">Boltzmann Machine</text><text font-family="Calibri,Calibri_MSFontService,sans-serif" font-weight="700" font-size="14.6774" transform="matrix(1 0 0 1.00011 239.633 181)">RBM</text><text font-family="Calibri,Calibri_MSFontService,sans-serif" font-weight="700" font-size="14.6774" transform="matrix(1 0 0 1.00011 268.984 181)">:</text><text font-family="Calibri,Calibri_MSFontService,sans-serif" font-weight="700" font-size="14.6774" transform="matrix(1 0 0 1.00011 276.322 181)">Restricted</text><text font-family="Calibri,Calibri_MSFontService,sans-serif" font-weight="700" font-size="14.6774" transform="matrix(1 0 0 1.00011 341.696 181)">BM</text><text font-family="Yu Gothic,Yu Gothic_MSFontService,sans-serif" font-weight="700" font-size="14.6774" transform="matrix(1 0 0 1.00011 457.737 53)">隠れ</text><text font-family="Yu Gothic,Yu Gothic_MSFontService,sans-serif" font-weight="700" font-size="14.6774" transform="matrix(1 0 0 1.00011 457.737 70)">ユニット</text><text font-family="Yu Gothic,Yu Gothic_MSFontService,sans-serif" font-weight="700" font-size="14.6774" transform="matrix(1 0 0 1.00011 458.51 96)">可視</text><text font-family="Yu Gothic,Yu Gothic_MSFontService,sans-serif" font-weight="700" font-size="14.6774" transform="matrix(1 0 0 1.00011 458.51 113)">ユニット</text><path d="M421 97.011C421 88.7258 427.716 82.0093 436 82.0093 444.284 82.0093 451 88.7258 451 97.011 451 105.296 444.284 112.013 436 112.013 427.716 112.013 421 105.296 421 97.011Z" stroke="#172C51" stroke-width="2.00124" stroke-miterlimit="8" fill="#FFFFFF" fill-rule="evenodd" fill-opacity="0.698039"/><text font-family="Cambria Math,Cambria Math_MSFontService,sans-serif" font-weight="400" font-size="14.6774" transform="matrix(1 0 0 1.00011 426.806 102)">𝒗</text><text font-family="Cambria Math,Cambria Math_MSFontService,sans-serif" font-weight="400" font-size="10.7145" transform="matrix(1 0 0 1.00011 435.645 105)">∗</text><path d="M420 53.006C420 44.7208 426.716 38.0043 435 38.0043 443.284 38.0043 450 44.7208 450 53.006 450 61.2912 443.284 68.0077 435 68.0077 426.716 68.0077 420 61.2912 420 53.006Z" stroke="#172C51" stroke-width="2.00124" stroke-miterlimit="8" fill="#00B0F0" fill-rule="evenodd" fill-opacity="0.698039"/><text font-family="Cambria Math,Cambria Math_MSFontService,sans-serif" font-weight="400" font-size="14.6774" transform="matrix(1 0 0 1.00011 425.636 58)">𝒉</text><text font-family="Cambria Math,Cambria Math_MSFontService,sans-serif" font-weight="400" font-size="10.7145" transform="matrix(1 0 0 1.00011 434.975 61)">∗</text><text font-family="Yu Gothic,Yu Gothic_MSFontService,sans-serif" font-weight="700" font-size="14.6774" transform="matrix(1 0 0 1.00011 422.85 145)">双方向接続</text><text font-family="Yu Gothic,Yu Gothic_MSFontService,sans-serif" font-weight="700" font-size="14.6774" transform="matrix(1 0 0 1.00011 422.198 172)">対称な重み</text><text font-family="Cambria Math,Cambria Math_MSFontService,sans-serif" font-weight="400" font-size="14.6774" transform="matrix(1 0 0 1.00011 429.436 190)">𝒘</text><text font-family="Cambria Math,Cambria Math_MSFontService,sans-serif" font-weight="400" font-size="10.7145" transform="matrix(1 0 0 1.00011 440.943 193)">𝒊𝒋</text><text font-family="Cambria Math,Cambria Math_MSFontService,sans-serif" font-weight="400" font-size="14.6774" transform="matrix(1 0 0 1.00011 453.797 190)">=</text><text font-family="Cambria Math,Cambria Math_MSFontService,sans-serif" font-weight="400" font-size="14.6774" transform="matrix(1 0 0 1.00011 468.88 190)">𝒘</text><text font-family="Cambria Math,Cambria Math_MSFontService,sans-serif" font-weight="400" font-size="10.7145" transform="matrix(1 0 0 1.00011 480.387 193)">𝒋𝒊</text><text font-family="Yu Gothic,Yu Gothic_MSFontService,sans-serif" font-weight="700" font-size="12.0088" transform="matrix(1 0 0 1.00011 231.488 201)">同一</text><text font-family="Yu Gothic,Yu Gothic_MSFontService,sans-serif" font-weight="700" font-size="12.0088" transform="matrix(1 0 0 1.00011 255.503 201)">グループ内の接続</text><text font-family="Yu Gothic,Yu Gothic_MSFontService,sans-serif" font-weight="700" font-size="12.0088" transform="matrix(1 0 0 1.00011 351.562 201)">無し</text><text font-family="Calibri,Calibri_MSFontService,sans-serif" font-weight="700" font-size="12.0088" transform="matrix(1 0 0 1.00011 270.592 215)">(</text><text font-family="Yu Gothic,Yu Gothic_MSFontService,sans-serif" font-weight="700" font-size="12.0088" transform="matrix(1 0 0 1.00011 274.261 215)">二部グラフ</text><text font-family="Calibri,Calibri_MSFontService,sans-serif" font-weight="700" font-size="12.0088" transform="matrix(1 0 0 1.00011 334.298 215)">)</text><text font-family="Yu Gothic,Yu Gothic_MSFontService,sans-serif" font-weight="700" font-size="12.0088" transform="matrix(1 0 0 1.00011 77.4729 201)">全結合</text></g></svg>