<svg width="756" height="359" xmlns="http://www.w3.org/2000/svg" xmlns:xlink="http://www.w3.org/1999/xlink" overflow="hidden"><g><rect x="0" y="0" width="756" height="358.921" fill="#FFFFFF"/><path d="M60.5001 77.7006 124 31.493 187.5 77.7006 163.245 152.466 84.7548 152.466Z" stroke="#172C51" stroke-width="3.00066" stroke-miterlimit="8" fill="none" fill-rule="evenodd"/><path d="M124.5 32.4928 83.5 153.466" stroke="#172C51" stroke-width="3.00066" stroke-miterlimit="8" fill="none" fill-rule="evenodd"/><path d="M39.9912 0 0 117.974" stroke="#172C51" stroke-width="3" stroke-miterlimit="8" fill="none" fill-rule="evenodd" transform="matrix(-1.00022 0 0 1 162.5 34.4924)"/><path d="M61.5 77.4829 186.5 77.4829" stroke="#172C51" stroke-width="3.00066" stroke-miterlimit="8" fill="none" fill-rule="evenodd"/><path d="M62.5 78.4827 163.5 152.466" stroke="#172C51" stroke-width="3.00066" stroke-miterlimit="8" fill="none" fill-rule="evenodd"/><path d="M0 0 101.978 72.9838" stroke="#172C51" stroke-width="3" stroke-miterlimit="8" fill="none" fill-rule="evenodd" transform="matrix(-1.00022 0 0 1 188.5 77.4829)"/><path d="M54 77.9828C54 74.1177 57.134 70.9844 61 70.9844 64.866 70.9844 68 74.1177 68 77.9828 68 81.848 64.866 84.9813 61 84.9813 57.134 84.9813 54 81.848 54 77.9828Z" fill="#4472C4" fill-rule="evenodd"/><path d="M77 152.466C77 148.877 80.134 145.968 84 145.968 87.866 145.968 91 148.877 91 152.466 91 156.055 87.866 158.965 84 158.965 80.134 158.965 77 156.055 77 152.466Z" fill="#4472C4" fill-rule="evenodd"/><path d="M178 77.4829C178 73.8939 181.134 70.9844 185 70.9844 188.866 70.9844 192 73.8939 192 77.4829 192 81.072 188.866 83.9815 185 83.9815 181.134 83.9815 178 81.072 178 77.4829Z" fill="#4472C4" fill-rule="evenodd"/><path d="M155 152.966C155 149.101 158.134 145.968 162 145.968 165.866 145.968 169 149.101 169 152.966 169 156.831 165.866 159.965 162 159.965 158.134 159.965 155 156.831 155 152.966Z" fill="#4472C4" fill-rule="evenodd"/><path d="M116 33.4926C116 29.9035 119.134 26.994 123 26.994 126.866 26.994 130 29.9035 130 33.4926 130 37.0817 126.866 39.9912 123 39.9912 119.134 39.9912 116 37.0817 116 33.4926Z" fill="#4472C4" fill-rule="evenodd"/><text font-family="Yu Gothic,Yu Gothic_MSFontService,sans-serif" font-weight="700" font-size="14.6667" transform="matrix(1 0 0 0.99978 83.6554 184)">完全グラフ</text><text font-family="Yu Gothic,Yu Gothic_MSFontService,sans-serif" font-weight="700" font-size="14.6667" transform="matrix(1 0 0 0.99978 17.6408 201)">ノードが他のすべてのノードと</text><text font-family="Yu Gothic,Yu Gothic_MSFontService,sans-serif" font-weight="700" font-size="14.6667" transform="matrix(1 0 0 0.99978 17.6408 219)">エッジでつながっているグラフ</text><text font-family="Yu Gothic,Yu Gothic_MSFontService,sans-serif" font-weight="700" font-size="14.6667" transform="matrix(1 0 0 0.99978 235.294 125)">クリーク：部分グラフが完全グラフ</text><text font-family="Yu Gothic,Yu Gothic_MSFontService,sans-serif" font-weight="700" font-size="14.6667" transform="matrix(1 0 0 0.99978 308.643 141)">になるもの</text><text font-family="Yu Gothic,Yu Gothic_MSFontService,sans-serif" font-weight="700" font-size="14.6667" transform="matrix(1 0 0 0.99978 235.294 159)">例：赤い部分</text><text font-family="Yu Gothic,Yu Gothic_MSFontService,sans-serif" font-weight="700" font-size="14.6667" transform="matrix(1 0 0 0.99978 326.647 159)">－</text><text font-family="Yu Gothic,Yu Gothic_MSFontService,sans-serif" font-weight="700" font-size="14.6667" transform="matrix(1 0 0 0.99978 344.651 159)">大きさ３のクリーク</text><path d="M298.5 23.4948 342.52 47.1146 387.786 47.1146 423.5 68.2481 388.201 86.4809 341.274 86.4809 341.274 47.1146" stroke="#172C51" stroke-width="3.00066" stroke-miterlimit="8" fill="none" fill-rule="evenodd"/><path d="M387.5 47.4896 387.5 85.4812" stroke="#172C51" stroke-width="3.00066" stroke-miterlimit="8" fill="none" fill-rule="evenodd"/><path d="M292.5 22.4951C292.5 19.7343 294.739 17.4962 297.5 17.4962 300.261 17.4962 302.5 19.7343 302.5 22.4951 302.5 25.2559 300.261 27.494 297.5 27.494 294.739 27.494 292.5 25.2559 292.5 22.4951Z" stroke="#172C51" stroke-width="1.33363" stroke-miterlimit="8" fill="#4472C4" fill-rule="evenodd"/><path d="M336.5 47.4895C336.5 44.7287 338.739 42.4906 341.5 42.4906 344.261 42.4906 346.5 44.7287 346.5 47.4895 346.5 50.2503 344.261 52.4884 341.5 52.4884 338.739 52.4884 336.5 50.2503 336.5 47.4895Z" stroke="#172C51" stroke-width="1.33363" stroke-miterlimit="8" fill="#4472C4" fill-rule="evenodd"/><path d="M382.5 47.4895C382.5 44.7287 384.515 42.4906 387 42.4906 389.485 42.4906 391.5 44.7287 391.5 47.4895 391.5 50.2503 389.485 52.4884 387 52.4884 384.515 52.4884 382.5 50.2503 382.5 47.4895Z" stroke="#172C51" stroke-width="1.33363" stroke-miterlimit="8" fill="#4472C4" fill-rule="evenodd"/><path d="M336.5 86.4809C336.5 83.7201 338.739 81.482 341.5 81.482 344.261 81.482 346.5 83.7201 346.5 86.4809 346.5 89.2417 344.261 91.4798 341.5 91.4798 338.739 91.4798 336.5 89.2417 336.5 86.4809Z" stroke="#172C51" stroke-width="1.33363" stroke-miterlimit="8" fill="#4472C4" fill-rule="evenodd"/><path d="M382.5 85.4811C382.5 82.7203 384.515 80.4822 387 80.4822 389.485 80.4822 391.5 82.7203 391.5 85.4811 391.5 88.2419 389.485 90.48 387 90.48 384.515 90.48 382.5 88.2419 382.5 85.4811Z" stroke="#172C51" stroke-width="1.33363" stroke-miterlimit="8" fill="#4472C4" fill-rule="evenodd"/><path d="M418.5 67.985C418.5 65.5003 420.515 63.486 423 63.486 425.485 63.486 427.5 65.5003 427.5 67.985 427.5 70.4697 425.485 72.484 423 72.484 420.515 72.484 418.5 70.4697 418.5 67.985Z" stroke="#172C51" stroke-width="1.33363" stroke-miterlimit="8" fill="#4472C4" fill-rule="evenodd"/><path d="M375 95.6572 375 40.4063 379.589 34.2673 388.351 30.9932 395.861 34.6766 433.828 58.0048 438 66.1901 437.166 70.692 434.662 76.0125 429.238 78.8773 392.94 99.7499 384.596 100.978 380.424 99.7499 375 95.6572Z" fill="#FF0000" fill-rule="evenodd" fill-opacity="0.101961"/><path d="M326 46.4898C326 40.1399 342.565 34.9923 363 34.9923 383.435 34.9923 400 40.1399 400 46.4898 400 52.8396 383.435 57.9872 363 57.9872 342.565 57.9872 326 52.8396 326 46.4898Z" fill="#4472C4" fill-rule="evenodd" fill-opacity="0.2"/><path d="M327 85.981C327 79.3551 343.565 73.9837 364 73.9837 384.435 73.9837 401 79.3551 401 85.981 401 92.607 384.435 97.9784 364 97.9784 343.565 97.9784 327 92.607 327 85.981Z" fill="#00B050" fill-rule="evenodd" fill-opacity="0.2"/><path d="M341 96.9785C333.268 96.9785 327 82.2072 327 63.9858 327 45.7645 333.268 30.9931 341 30.9931 348.732 30.9931 355 45.7645 355 63.9858 355 82.2072 348.732 96.9785 341 96.9785Z" fill="#FFC000" fill-rule="evenodd" fill-opacity="0.2"/><path d="M286.756 16.5756C290.644 9.60361 308.238 12.0017 326.052 21.932 343.867 31.8623 355.157 45.5643 351.269 52.5364 347.381 59.5084 329.787 57.1103 311.972 47.18 294.158 37.2497 282.868 23.5477 286.756 16.5756Z" fill="#7030A0" fill-rule="evenodd" fill-opacity="0.2"/><path d="M630.071 10.5038 614.783 36.6025 601.1 11.59" stroke="#172C51" stroke-width="3.00013" stroke-miterlimit="8" fill="none" fill-rule="evenodd"/><path d="M570.5 68.9518 615 36.492 659.5 68.9518 642.503 121.473 587.498 121.473Z" stroke="#172C51" stroke-width="3.00066" stroke-miterlimit="8" fill="none" fill-rule="evenodd"/><path d="M615.5 37.4918 587.5 122.473" stroke="#FFC000" stroke-width="3.00066" stroke-miterlimit="8" fill="none" fill-rule="evenodd"/><path d="M26.994 0 0 82.9816" stroke="#FFC000" stroke-width="3" stroke-miterlimit="8" fill="none" fill-rule="evenodd" transform="matrix(-1.00022 0 0 1 641.5 38.4916)"/><path d="M547.382 30.4932 571.5 68.4849 530.5 70.4844" stroke="#172C51" stroke-width="3.00066" stroke-miterlimit="8" fill="none" fill-rule="evenodd"/><path d="M558.746 138.181 586.069 123.263 585.71 151.479" stroke="#172C51" stroke-width="3" stroke-miterlimit="8" fill="none" fill-rule="evenodd"/><path d="M647.771 152.66 643.191 122.764 669.581 133.564" stroke="#172C51" stroke-width="3.00054" stroke-miterlimit="8" fill="none" fill-rule="evenodd"/><path d="M703.867 69.6775 659.556 67.7529 680.892 33.5587" stroke="#172C51" stroke-width="3.00022" stroke-miterlimit="8" fill="none" fill-rule="evenodd"/><path d="M563 67.985C563 63.5677 566.134 59.9868 570 59.9868 573.866 59.9868 577 63.5677 577 67.985 577 72.4023 573.866 75.9832 570 75.9832 566.134 75.9832 563 72.4023 563 67.985Z" fill="#4472C4" fill-rule="evenodd"/><path d="M579 122.973C579 118.556 582.358 114.975 586.5 114.975 590.642 114.975 594 118.556 594 122.973 594 127.39 590.642 130.971 586.5 130.971 582.358 130.971 579 127.39 579 122.973Z" fill="#4472C4" fill-rule="evenodd"/><path d="M635 121.973C635 117.556 638.134 113.975 642 113.975 645.866 113.975 649 117.556 649 121.973 649 126.39 645.866 129.971 642 129.971 638.134 129.971 635 126.39 635 121.973Z" fill="#4472C4" fill-rule="evenodd"/><path d="M651 69.9846C651 65.5673 654.134 61.9864 658 61.9864 661.866 61.9864 665 65.5673 665 69.9846 665 74.4019 661.866 77.9828 658 77.9828 654.134 77.9828 651 74.4019 651 69.9846Z" fill="#4472C4" fill-rule="evenodd"/><path d="M607 37.9916C607 33.5743 610.358 29.9934 614.5 29.9934 618.642 29.9934 622 33.5743 622 37.9916 622 42.4089 618.642 45.9898 614.5 45.9898 610.358 45.9898 607 42.4089 607 37.9916Z" fill="#4472C4" fill-rule="evenodd"/><text font-family="Yu Gothic,Yu Gothic_MSFontService,sans-serif" font-weight="700" font-size="14.6667" transform="matrix(1 0 0 0.99978 503.205 180)">弦：閉路を構成するノードを結ぶ</text><text font-family="Yu Gothic,Yu Gothic_MSFontService,sans-serif" font-weight="700" font-size="14.6667" transform="matrix(1 0 0 0.99978 532.545 197)">エッジの内、閉路に含まれない</text><text font-family="Yu Gothic,Yu Gothic_MSFontService,sans-serif" font-weight="700" font-size="14.6667" transform="matrix(1 0 0 0.99978 532.545 215)">エッジのこと</text><text font-family="Yu Gothic,Yu Gothic_MSFontService,sans-serif" font-weight="700" font-size="14.6667" transform="matrix(1 0 0 0.99978 505.058 246)">弦グラフ：長さ４以上の閉路が</text><text font-family="Yu Gothic,Yu Gothic_MSFontService,sans-serif" font-weight="700" font-size="14.6667" transform="matrix(1 0 0 0.99978 578.408 263)">すべて弦をもつグラフ</text><text font-family="Calibri,Calibri_MSFontService,sans-serif" font-weight="700" font-size="14.6667" transform="matrix(1 0 0 0.99978 505.058 281)">→</text><text font-family="Yu Gothic,Yu Gothic_MSFontService,sans-serif" font-weight="700" font-size="14.6667" transform="matrix(1 0 0 0.99978 521.729 281)">三角形に分割できる</text><path d="M335.5 224.555 362.199 244.446 390.5 224.172 362.733 200.456 335.5 224.555Z" stroke="#172C51" stroke-width="3.00066" stroke-miterlimit="8" fill="none" fill-rule="evenodd"/><path d="M358.5 200.456 312.5 183.46" stroke="#172C51" stroke-width="3.00066" stroke-miterlimit="8" fill="none" fill-rule="evenodd"/><path d="M305 182.46C305 178.319 308.358 174.961 312.5 174.961 316.642 174.961 320 178.319 320 182.46 320 186.601 316.642 189.958 312.5 189.958 308.358 189.958 305 186.601 305 182.46Z" fill="#7030A0" fill-rule="evenodd"/><path d="M355 201.456C355 197.314 358.358 193.957 362.5 193.957 366.642 193.957 370 197.314 370 201.456 370 205.597 366.642 208.954 362.5 208.954 358.358 208.954 355 205.597 355 201.456Z" fill="#0070C0" fill-rule="evenodd"/><path d="M329 225.45C329 221.309 332.358 217.952 336.5 217.952 340.642 217.952 344 221.309 344 225.45 344 229.592 340.642 232.949 336.5 232.949 332.358 232.949 329 229.592 329 225.45Z" fill="#FFC000" fill-rule="evenodd"/><path d="M383 224.451C383 220.309 386.358 216.952 390.5 216.952 394.642 216.952 398 220.309 398 224.451 398 228.592 394.642 231.949 390.5 231.949 386.358 231.949 383 228.592 383 224.451Z" fill="#FF0000" fill-rule="evenodd"/><path d="M357 243.446C357 239.305 360.358 235.948 364.5 235.948 368.642 235.948 372 239.305 372 243.446 372 247.588 368.642 250.945 364.5 250.945 360.358 250.945 357 247.588 357 243.446Z" fill="#00B050" fill-rule="evenodd"/><text font-family="Yu Gothic,Yu Gothic_MSFontService,sans-serif" font-weight="700" font-size="14.6667" transform="matrix(1 0 0 0.99978 223.299 264)">クリーク・ツリー</text><text font-family="Yu Gothic,Yu Gothic_MSFontService,sans-serif" font-weight="700" font-size="14.6667" transform="matrix(1 0 0 0.99978 237.969 281)">元の</text><text font-family="Yu Gothic,Yu Gothic_MSFontService,sans-serif" font-weight="700" font-size="14.6667" transform="matrix(1 0 0 0.99978 267.309 281)">グラフ</text><text font-family="Yu Gothic,Yu Gothic_MSFontService,sans-serif" font-weight="700" font-size="14.6667" transform="matrix(1 0 0 0.99978 311.318 281)">の</text><text font-family="Yu Gothic,Yu Gothic_MSFontService,sans-serif" font-weight="700" font-size="14.6667" transform="matrix(1 0 0 0.99978 325.988 281)">極大</text><text font-family="Yu Gothic,Yu Gothic_MSFontService,sans-serif" font-weight="700" font-size="14.6667" transform="matrix(1 0 0 0.99978 355.328 281)">クリーク</text><text font-family="Yu Gothic,Yu Gothic_MSFontService,sans-serif" font-weight="700" font-size="14.6667" transform="matrix(1 0 0 0.99978 414.008 281)">をノード</text><text font-family="Yu Gothic,Yu Gothic_MSFontService,sans-serif" font-weight="700" font-size="14.6667" transform="matrix(1 0 0 0.99978 237.969 299)">にし、クリーク間に共通ノードが</text><text font-family="Yu Gothic,Yu Gothic_MSFontService,sans-serif" font-weight="700" font-size="14.6667" transform="matrix(1 0 0 0.99978 237.969 316)">ある場合、エッジでつないでできるグラフ</text><text font-family="Yu Gothic,Yu Gothic_MSFontService,sans-serif" font-weight="700" font-size="14.6667" transform="matrix(1 0 0 0.99978 222.349 348)">クリーク・フォレスト：複数のクリーク・ツリー</text></g></svg>