<svg width="404" height="329" xmlns="http://www.w3.org/2000/svg" xmlns:xlink="http://www.w3.org/1999/xlink" overflow="hidden"><defs><clipPath id="clip0"><rect x="0" y="0" width="404" height="329"/></clipPath></defs><g clip-path="url(#clip0)"><rect x="0" y="0" width="404" height="329.438" fill="#FFFFFF"/><path d="M91 61.582C91 48.586 110.699 38.0507 135 38.0507 159.301 38.0507 179 48.586 179 61.582 179 74.5779 159.301 85.1133 135 85.1133 110.699 85.1133 91 74.5779 91 61.582Z" fill="#D9D9D9" fill-rule="evenodd"/><text font-family="Yu Gothic,Yu Gothic_MSFontService,sans-serif" font-weight="400" font-size="14.6741" transform="matrix(1 0 0 1.00133 98.4763 58)">ч╢Щч╢Ъ</text><text font-family="Yu Gothic,Yu Gothic_MSFontService,sans-serif" font-weight="400" font-size="14.6741" transform="matrix(1 0 0 1.00133 127.785 58)">хнжч┐ТхЩи</text><text font-family="Calibri,Calibri_MSFontService,sans-serif" font-weight="400" font-size="14.6741" transform="matrix(1 0 0 1.00133 93.98 75)">(</text><text font-family="Yu Gothic,Yu Gothic_MSFontService,sans-serif" font-weight="400" font-size="14.6741" transform="matrix(1 0 0 1.00133 98.4763 75)">чФЯц╢п</text><text font-family="Yu Gothic,Yu Gothic_MSFontService,sans-serif" font-weight="400" font-size="14.6741" transform="matrix(1 0 0 1.00133 127.785 75)">хнжч┐ТхЩи</text><text font-family="Calibri,Calibri_MSFontService,sans-serif" font-weight="400" font-size="14.6741" transform="matrix(1 0 0 1.00133 171.749 75)">)</text><text font-family="Yu Gothic,Yu Gothic_MSFontService,sans-serif" font-weight="400" font-size="14.6741" transform="matrix(1 0 0 1.00133 9.4565 69)">хИЖх╕Г</text><text font-family="Cambria Math,Cambria Math_MSFontService,sans-serif" font-weight="400" font-size="10.7121" transform="matrix(1 0 0 1.00133 38.4259 72)">1</text><path d="M0.0425734-0.998268 36.0783 0.538559 35.9932 2.5351-0.0425734 0.998268ZM34.875-2.51301 42.6909 1.82065 34.5344 5.47313Z" fill="#4472C4" transform="matrix(1 0 0 -1.00133 48 63.9057)"/><text font-family="Yu Gothic,Yu Gothic_MSFontService,sans-serif" font-weight="400" font-size="14.6741" transform="matrix(1 0 0 1.00133 223.449 69)">ф╗ошкм</text><text font-family="Cambria Math,Cambria Math_MSFontService,sans-serif" font-weight="400" font-size="10.7121" transform="matrix(1 0 0 1.00133 252.418 72)">1</text><path d="M179.044 61.083 213.661 62.5952 213.574 64.5943 178.956 63.0821ZM212.461 59.5384 220.273 63.8855 212.113 67.5349Z" fill="#4472C4"/><text font-family="Calibri,Calibri_MSFontService,sans-serif" font-weight="400" font-size="14.6741" transform="matrix(1 0 0 1.00133 181.821 22)">(</text><text font-family="Yu Gothic,Yu Gothic_MSFontService,sans-serif" font-weight="400" font-size="14.6741" transform="matrix(1 0 0 1.00133 186.318 22)">хИЭцЬЯф╗ошкм</text><text font-family="Calibri,Calibri_MSFontService,sans-serif" font-weight="400" font-size="14.6741" transform="matrix(1 0 0 1.00133 244.936 22)">)</text><path d="M92 141.689C92 128.693 111.699 118.157 136 118.157 160.301 118.157 180 128.693 180 141.689 180 154.685 160.301 165.22 136 165.22 111.699 165.22 92 154.685 92 141.689Z" fill="#D9D9D9" fill-rule="evenodd"/><text font-family="Yu Gothic,Yu Gothic_MSFontService,sans-serif" font-weight="400" font-size="14.6741" transform="matrix(1 0 0 1.00133 99.2787 139)">ч╢Щч╢Ъ</text><text font-family="Yu Gothic,Yu Gothic_MSFontService,sans-serif" font-weight="400" font-size="14.6741" transform="matrix(1 0 0 1.00133 128.588 139)">хнжч┐ТхЩи</text><text font-family="Calibri,Calibri_MSFontService,sans-serif" font-weight="400" font-size="14.6741" transform="matrix(1 0 0 1.00133 94.7824 156)">(</text><text font-family="Yu Gothic,Yu Gothic_MSFontService,sans-serif" font-weight="400" font-size="14.6741" transform="matrix(1 0 0 1.00133 99.2787 156)">чФЯц╢п</text><text font-family="Yu Gothic,Yu Gothic_MSFontService,sans-serif" font-weight="400" font-size="14.6741" transform="matrix(1 0 0 1.00133 128.588 156)">хнжч┐ТхЩи</text><text font-family="Calibri,Calibri_MSFontService,sans-serif" font-weight="400" font-size="14.6741" transform="matrix(1 0 0 1.00133 172.552 156)">)</text><text font-family="Yu Gothic,Yu Gothic_MSFontService,sans-serif" font-weight="400" font-size="14.6741" transform="matrix(1 0 0 1.00133 10.0924 149)">хИЖх╕Г</text><text font-family="Cambria Math,Cambria Math_MSFontService,sans-serif" font-weight="400" font-size="10.7121" transform="matrix(1 0 0 1.00133 39.4015 152)">2</text><path d="M0.0425759-0.998268 36.0783 0.538648 35.9932 2.53518-0.0425759 0.998268ZM34.875-2.51292 42.6909 1.82076 34.5344 5.47322Z" fill="#4472C4" transform="matrix(1 0 0 -1.00133 49 144.012)"/><text font-family="Yu Gothic,Yu Gothic_MSFontService,sans-serif" font-weight="400" font-size="14.6741" transform="matrix(1 0 0 1.00133 224.085 149)">ф╗ошкм</text><text font-family="Cambria Math,Cambria Math_MSFontService,sans-serif" font-weight="400" font-size="10.7121" transform="matrix(1 0 0 1.00133 253.394 152)">2</text><path d="M180.044 141.19 214.661 142.702 214.574 144.701 179.956 143.189ZM213.461 139.645 221.273 143.992 213.113 147.642Z" fill="#4472C4"/><path d="M107.991 36.6146 107 35.4403 106.029 32.8581 106.256 30.6093 107.601 28.899 109.642 27.7503 112.171 26.9527 115.101 26.3607 121.704 25.4296 121.682 25.4331 128.537 24.3045 128.449 24.323 131.65 23.4954 131.542 23.53 134.415 22.4267 134.257 22.5037 136.668 21.0496 136.465 21.211 138.282 19.331 139.718 20.7223 137.811 22.6963 135.213 24.2633 132.205 25.4186 128.906 26.2717 121.994 27.4095 115.409 28.338 115.467 28.328 112.618 28.9037 112.721 28.8772 110.341 29.6277 110.53 29.5456 108.753 30.5461 109.048 30.2928 108.006 31.6184 108.215 31.1 108.041 32.8258 107.982 32.3729 108.809 34.5739 108.637 34.2804 109.517 35.3229ZM110.94 32.3623 113.064 41.0546 104.845 37.5409Z" fill="#4472C4"/><path d="M107.646 118.485 106.351 116.733 104.823 113.592 104.075 110.709 104.101 108.05 104.893 105.655 106.378 103.573 108.454 101.8 111.049 100.289 114.118 98.9935 117.625 97.8748 121.536 96.903 125.814 96.052 130.426 95.2969 140.465 93.9877 151.354 92.795 162.766 91.5443 162.748 91.5464 174.362 90.0635 174.327 90.0687 185.812 88.1805 185.756 88.1913 196.781 85.7246 196.7 85.7465 206.933 82.5282 206.819 82.5717 215.93 78.4286 215.821 78.4865 219.852 76.014 219.768 76.0716 223.394 73.3031 224.606 74.8942 220.939 77.6937 216.813 80.225 207.59 84.4189 197.258 87.6682 186.164 90.1504 174.633 92.0462 162.992 93.5325 151.571 94.7841 140.693 95.9758 140.713 95.9733 130.7 97.279 130.732 97.2743 126.153 98.024 126.187 98.0179 121.949 98.8611 121.995 98.8508 118.138 99.8091 118.201 99.7913 114.768 100.886 114.853 100.855 111.885 102.108 111.999 102.051 109.536 103.485 109.683 103.381 107.768 105.016 107.933 104.836 106.607 106.695 106.743 106.427 106.047 108.531 106.098 108.226 106.074 110.596 106.042 110.334 106.732 112.992 106.663 112.806 108.108 115.774 108.013 115.617 109.252 117.296ZM110.793 114.385 112.528 123.164 104.473 119.286Z" fill="#4472C4"/><path d="M94 219.792C94 206.796 113.699 196.261 138 196.261 162.301 196.261 182 206.796 182 219.792 182 232.788 162.301 243.324 138 243.324 113.699 243.324 94 232.788 94 219.792Z" fill="#D9D9D9" fill-rule="evenodd"/><text font-family="Yu Gothic,Yu Gothic_MSFontService,sans-serif" font-weight="400" font-size="14.6741" transform="matrix(1 0 0 1.00133 101.205 217)">ч╢Щч╢Ъ</text><text font-family="Yu Gothic,Yu Gothic_MSFontService,sans-serif" font-weight="400" font-size="14.6741" transform="matrix(1 0 0 1.00133 130.514 217)">хнжч┐ТхЩи</text><text font-family="Calibri,Calibri_MSFontService,sans-serif" font-weight="400" font-size="14.6741" transform="matrix(1 0 0 1.00133 96.7085 234)">(</text><text font-family="Yu Gothic,Yu Gothic_MSFontService,sans-serif" font-weight="400" font-size="14.6741" transform="matrix(1 0 0 1.00133 101.205 234)">чФЯц╢п</text><text font-family="Yu Gothic,Yu Gothic_MSFontService,sans-serif" font-weight="400" font-size="14.6741" transform="matrix(1 0 0 1.00133 130.514 234)">хнжч┐ТхЩи</text><text font-family="Calibri,Calibri_MSFontService,sans-serif" font-weight="400" font-size="14.6741" transform="matrix(1 0 0 1.00133 174.478 234)">)</text><text font-family="Yu Gothic,Yu Gothic_MSFontService,sans-serif" font-weight="400" font-size="14.6741" transform="matrix(1 0 0 1.00133 11.6921 227)">хИЖх╕Г</text><text font-family="Cambria Math,Cambria Math_MSFontService,sans-serif" font-weight="400" font-size="10.7121" transform="matrix(1 0 0 1.00133 41.0013 231)">ЁЭСШ</text><path d="M0.0437535-0.998217 36.0798 0.581304 35.9923 2.57774-0.0437535 0.998217ZM34.8801-2.47168 42.6909 1.87121 34.5301 5.51405Z" fill="#4472C4" transform="matrix(1 0 0 -1.00133 51 222.167)"/><text font-family="Yu Gothic,Yu Gothic_MSFontService,sans-serif" font-weight="400" font-size="14.6741" transform="matrix(1 0 0 1.00133 225.684 227)">ф╗ошкм</text><text font-family="Cambria Math,Cambria Math_MSFontService,sans-serif" font-weight="400" font-size="10.7121" transform="matrix(1 0 0 1.00133 254.994 230)">ЁЭСШ</text><path d="M182.044 219.294 216.661 220.806 216.574 222.805 181.956 221.293ZM215.461 217.749 223.273 222.096 215.113 225.745Z" fill="#4472C4"/><path d="M109.646 196.589 108.352 194.837 106.823 191.696 106.141 189.069 108.075 188.566 108.732 191.096 108.663 190.91 110.108 193.878 110.013 193.721 111.252 195.4ZM107.728 182.589 108.378 181.677 110.454 179.904 113.049 178.393 114.613 177.733 115.389 179.577 113.885 180.212 113.999 180.155 111.536 181.589 111.683 181.485 109.768 183.12 109.933 182.94 109.354 183.752ZM120.437 175.777 123.536 175.007 127.814 174.156 128.327 174.072 128.65 176.047 128.153 176.128 128.187 176.122 123.949 176.965 123.995 176.955 120.918 177.719ZM134.285 173.158 142.211 172.125 142.469 174.109 134.543 175.143ZM148.19 171.465 153.354 170.899 156.136 170.594 156.354 172.583 153.571 172.888 148.408 173.454ZM162.096 169.941 164.766 169.648 164.748 169.65 170.013 168.978 170.266 170.963 164.992 171.636 162.313 171.93ZM175.96 168.219 176.362 168.167 176.327 168.173 183.814 166.942 184.138 168.916 176.633 170.15 176.213 170.204ZM189.653 165.871 197.454 164.125 197.89 166.078 190.089 167.824ZM203.122 162.46 208.933 160.632 208.82 160.676 210.551 159.888 211.378 161.71 209.59 162.523 203.721 164.369ZM216.01 157.406 217.93 156.533 217.821 156.59 221.852 154.118 221.768 154.176 222.689 153.473 223.9 155.064 222.94 155.798 218.813 158.329 216.836 159.228ZM112.793 192.489 114.528 201.268 106.473 197.39Z" fill="#4472C4"/><path d="M95 296.895C95 283.899 114.7 273.364 139 273.364 163.301 273.364 183 283.899 183 296.895 183 309.891 163.301 320.426 139 320.426 114.7 320.426 95 309.891 95 296.895Z" fill="#D9D9D9" fill-rule="evenodd"/><text font-family="Yu Gothic,Yu Gothic_MSFontService,sans-serif" font-weight="400" font-size="14.6741" transform="matrix(1 0 0 1.00133 102.406 293)">ч╢Щч╢Ъ</text><text font-family="Yu Gothic,Yu Gothic_MSFontService,sans-serif" font-weight="400" font-size="14.6741" transform="matrix(1 0 0 1.00133 131.715 293)">хнжч┐ТхЩи</text><text font-family="Calibri,Calibri_MSFontService,sans-serif" font-weight="400" font-size="14.6741" transform="matrix(1 0 0 1.00133 97.9097 311)">(</text><text font-family="Yu Gothic,Yu Gothic_MSFontService,sans-serif" font-weight="400" font-size="14.6741" transform="matrix(1 0 0 1.00133 102.406 311)">чФЯц╢п</text><text font-family="Yu Gothic,Yu Gothic_MSFontService,sans-serif" font-weight="400" font-size="14.6741" transform="matrix(1 0 0 1.00133 131.715 311)">хнжч┐ТхЩи</text><text font-family="Calibri,Calibri_MSFontService,sans-serif" font-weight="400" font-size="14.6741" transform="matrix(1 0 0 1.00133 175.679 311)">)</text><path d="M52 295.394 88.0297 295.394 88.0297 297.395 52 297.395ZM86.6975 292.392 94.6909 296.394 86.6975 300.396Z" fill="#4472C4"/><path d="M183 295.394 217.611 295.394 217.611 297.395 183 297.395ZM216.279 292.392 224.273 296.394 216.279 300.396Z" fill="#4472C4"/><path d="M111.603 272.67 110.331 270.935 108.816 267.795 108.131 265.135 110.067 264.636 110.726 267.2 110.658 267.014 112.091 269.982 111.997 269.825 113.214 271.486ZM109.735 258.661 110.357 257.781 112.417 256.007 114.992 254.496 116.62 253.803 117.402 255.644 115.833 256.312 115.947 256.255 113.506 257.688 113.652 257.583 111.753 259.218 111.917 259.038 111.366 259.818ZM122.445 251.847 125.394 251.109 129.636 250.257 130.336 250.142 130.661 252.116 129.978 252.229 130.012 252.223 125.809 253.066 125.856 253.055 122.931 253.789ZM136.294 249.228 144.165 248.193 144.24 248.185 144.459 250.174 144.395 250.181 144.415 250.178 136.554 251.212ZM150.198 247.527 154.962 247 158.144 246.649 158.363 248.638 155.182 248.989 150.418 249.515ZM164.102 245.99 166.278 245.75 166.261 245.752 172.017 245.01 172.272 246.995 166.507 247.738 164.322 247.979ZM177.927 244.243 185.813 242.936 186.139 244.91 178.253 246.217ZM191.642 241.817 199.44 240.058 199.879 242.01 192.081 243.77ZM205.086 238.315 210.072 236.734 209.958 236.778 212.47 235.626 213.302 237.445 210.734 238.623 205.689 240.223ZM217.92 233.126 218.992 232.635 218.883 232.694 222.88 230.221 222.796 230.279 224.474 228.987 225.692 230.573 223.973 231.897 219.88 234.429 218.753 234.946ZM114.767 268.583 116.465 277.369 108.427 273.457Z" fill="#4472C4"/><text font-family="Calibri,Calibri_MSFontService,sans-serif" font-weight="400" font-size="24.0122" transform="matrix(1 0 0 1.00133 27.069 193)">:</text><text font-family="Calibri,Calibri_MSFontService,sans-serif" font-weight="400" font-size="24.0122" transform="matrix(1 0 0 1.00133 24.3403 276)">:</text><text font-family="Calibri,Calibri_MSFontService,sans-serif" font-weight="400" font-size="24.0122" transform="matrix(1 0 0 1.00133 239.037 191)">:</text><text font-family="Calibri,Calibri_MSFontService,sans-serif" font-weight="400" font-size="24.0122" transform="matrix(1 0 0 1.00133 236.308 275)">:</text><path d="M306.5 66.088C306.5 52.539 317.469 41.5553 331 41.5553 344.531 41.5553 355.5 52.539 355.5 66.088 355.5 79.637 344.531 90.6206 331 90.6206 317.469 90.6206 306.5 79.637 306.5 66.088Z" stroke="#172C51" stroke-width="1.33223" stroke-miterlimit="8" fill="none" fill-rule="evenodd"/><path d="M291.5 100.634C291.5 68.0057 309.185 41.5553 331 41.5553 352.815 41.5553 370.5 68.0057 370.5 100.634 370.5 133.262 352.815 159.713 331 159.713 309.185 159.713 291.5 133.262 291.5 100.634Z" stroke="#172C51" stroke-width="1.33223" stroke-miterlimit="8" fill="none" fill-rule="evenodd"/><path d="M277.5 140.187C277.5 85.714 301.453 41.5553 331 41.5553 360.547 41.5553 384.5 85.714 384.5 140.187 384.5 194.659 360.547 238.818 331 238.818 301.453 238.818 277.5 194.659 277.5 140.187Z" stroke="#172C51" stroke-width="1.33223" stroke-miterlimit="8" fill="none" fill-rule="evenodd"/><text font-family="Yu Gothic,Yu Gothic_MSFontService,sans-serif" font-weight="400" font-size="14.6741" transform="matrix(1 0 0 1.00133 313.394 71)">ф╗ошкм</text><text font-family="Cambria Math,Cambria Math_MSFontService,sans-serif" font-weight="400" font-size="10.7121" transform="matrix(1 0 0 1.00133 342.364 74)">1</text><text font-family="Yu Gothic,Yu Gothic_MSFontService,sans-serif" font-weight="400" font-size="14.6741" transform="matrix(1 0 0 1.00133 314.03 148)">ф╗ошкм</text><text font-family="Cambria Math,Cambria Math_MSFontService,sans-serif" font-weight="400" font-size="10.7121" transform="matrix(1 0 0 1.00133 343.339 151)">2</text><text font-family="Yu Gothic,Yu Gothic_MSFontService,sans-serif" font-weight="400" font-size="14.6741" transform="matrix(1 0 0 1.00133 315.63 226)">ф╗ошкм</text><text font-family="Cambria Math,Cambria Math_MSFontService,sans-serif" font-weight="400" font-size="10.7121" transform="matrix(1 0 0 1.00133 344.939 229)">ЁЭСШ</text><text font-family="Calibri,Calibri_MSFontService,sans-serif" font-weight="400" font-size="24.0122" transform="matrix(1 0 0 1.00133 327.623 193)">:</text><path d="M266.5 180.74C266.5 103.318 295.378 40.554 331 40.554 366.622 40.554 395.5 103.318 395.5 180.74 395.5 258.163 366.622 320.927 331 320.927 295.378 320.927 266.5 258.163 266.5 180.74Z" stroke="#172C51" stroke-width="1.33223" stroke-miterlimit="8" stroke-dasharray="5.32894 3.9967" fill="none" fill-rule="evenodd"/><text font-family="Yu Gothic,Yu Gothic_MSFontService,sans-serif" font-weight="400" font-size="14.6741" transform="matrix(1 0 0 1.00133 143.816 23)">ф╗ошкм</text><text font-family="Cambria Math,Cambria Math_MSFontService,sans-serif" font-weight="400" font-size="10.7121" transform="matrix(1 0 0 1.00133 173.125 26)">0</text></g></svg>