<svg width="643" height="359" xmlns="http://www.w3.org/2000/svg" xmlns:xlink="http://www.w3.org/1999/xlink" overflow="hidden"><defs><clipPath id="clip0"><rect x="0" y="0" width="643" height="359"/></clipPath></defs><g clip-path="url(#clip0)"><rect x="0" y="0" width="643" height="358.721" fill="#FFFFFF"/><path d="M15.9999 36.4716C15.9999 22.9511 37.938 11.9907 65 11.9907 92.062 11.9907 114 22.9511 114 36.4716 114 49.9921 92.062 60.9525 65 60.9525 37.938 60.9525 15.9999 49.9921 15.9999 36.4716Z" stroke="#172C51" stroke-width="2.00156" stroke-miterlimit="8" fill="#FFFFFF" fill-rule="evenodd"/><text font-family="Yu Gothic,Yu Gothic_MSFontService,sans-serif" font-weight="700" font-size="14.6667" transform="matrix(1 0 0 0.999222 49.9538 42)">入力</text><path d="M15.9999 264.294C15.9999 250.774 37.938 239.813 65 239.813 92.062 239.813 114 250.774 114 264.294 114 277.815 92.062 288.775 65 288.775 37.938 288.775 15.9999 277.815 15.9999 264.294Z" stroke="#172C51" stroke-width="2.00156" stroke-miterlimit="8" fill="#D4E6CE" fill-rule="evenodd"/><text font-family="Yu Gothic,Yu Gothic_MSFontService,sans-serif" font-weight="700" font-size="14.6667" transform="matrix(1 0 0 0.999222 49.9538 269)">出力</text><path d="M66.0008 60.9525 66.0009 232.863 63.9994 232.863 63.9993 60.9525ZM69.0033 231.529 65.0002 239.529 60.997 231.529Z"/><text font-family="Calibri,Calibri_MSFontService,sans-serif" font-weight="700" font-size="14.6667" transform="matrix(1 0 0 0.999222 22.4804 310)">Input</text><text font-family="Calibri,Calibri_MSFontService,sans-serif" font-weight="700" font-size="14.6667" transform="matrix(1 0 0 0.999222 55.0057 310)">-</text><text font-family="Calibri,Calibri_MSFontService,sans-serif" font-weight="700" font-size="14.6667" transform="matrix(1 0 0 0.999222 59.5092 310)">Output</text><text font-family="Calibri,Calibri_MSFontService,sans-serif" font-weight="700" font-size="14.6667" transform="matrix(1 0 0 0.999222 30.7402 327)">Prompting</text><text font-family="Calibri,Calibri_MSFontService,sans-serif" font-weight="700" font-size="14.6667" transform="matrix(1 0 0 0.999222 51.503 345)">(IO)</text><path d="M131 36.4716C131 22.9511 152.938 11.9907 180 11.9907 207.062 11.9907 229 22.9511 229 36.4716 229 49.9921 207.062 60.9525 180 60.9525 152.938 60.9525 131 49.9921 131 36.4716Z" stroke="#172C51" stroke-width="2.00156" stroke-miterlimit="8" fill="#FFFFFF" fill-rule="evenodd"/><text font-family="Yu Gothic,Yu Gothic_MSFontService,sans-serif" font-weight="700" font-size="14.6667" transform="matrix(1 0 0 0.999222 165.342 42)">入力</text><path d="M271 36.4716C271 22.9511 292.938 11.9907 320 11.9907 347.062 11.9907 369 22.9511 369 36.4716 369 49.9921 347.062 60.9525 320 60.9525 292.938 60.9525 271 49.9921 271 36.4716Z" stroke="#172C51" stroke-width="2.00156" stroke-miterlimit="8" fill="#FFFFFF" fill-rule="evenodd"/><text font-family="Yu Gothic,Yu Gothic_MSFontService,sans-serif" font-weight="700" font-size="14.6667" transform="matrix(1 0 0 0.999222 305.058 42)">入力</text><path d="M469 36.4716C469 22.9511 490.938 11.9907 518 11.9907 545.062 11.9907 567 22.9511 567 36.4716 567 49.9921 545.062 60.9525 518 60.9525 490.938 60.9525 469 49.9921 469 36.4716Z" stroke="#172C51" stroke-width="2.00156" stroke-miterlimit="8" fill="#FFFFFF" fill-rule="evenodd"/><text font-family="Yu Gothic,Yu Gothic_MSFontService,sans-serif" font-weight="700" font-size="14.6667" transform="matrix(1 0 0 0.999222 503.53 42)">入力</text><path d="M131 264.294C131 250.774 152.938 239.813 180 239.813 207.062 239.813 229 250.774 229 264.294 229 277.815 207.062 288.775 180 288.775 152.938 288.775 131 277.815 131 264.294Z" stroke="#172C51" stroke-width="2.00156" stroke-miterlimit="8" fill="#D4E6CE" fill-rule="evenodd"/><text font-family="Yu Gothic,Yu Gothic_MSFontService,sans-serif" font-weight="700" font-size="14.6667" transform="matrix(1 0 0 0.999222 165.342 269)">出力</text><path d="M268 264.294C268 250.774 289.938 239.813 317 239.813 344.062 239.813 366 250.774 366 264.294 366 277.815 344.062 288.775 317 288.775 289.938 288.775 268 277.815 268 264.294Z" stroke="#172C51" stroke-width="2.00156" stroke-miterlimit="8" fill="#D4E6CE" fill-rule="evenodd"/><text font-family="Yu Gothic,Yu Gothic_MSFontService,sans-serif" font-weight="700" font-size="14.6667" transform="matrix(1 0 0 0.999222 302.571 269)">出力</text><path d="M469 264.294C469 250.774 490.938 239.813 518 239.813 545.062 239.813 567 250.774 567 264.294 567 277.815 545.062 288.775 518 288.775 490.938 288.775 469 277.815 469 264.294Z" stroke="#172C51" stroke-width="2.00156" stroke-miterlimit="8" fill="#D4E6CE" fill-rule="evenodd"/><text font-family="Yu Gothic,Yu Gothic_MSFontService,sans-serif" font-weight="700" font-size="14.6667" transform="matrix(1 0 0 0.999222 503.53 269)">出力</text><rect x="162" y="91.9285" width="36" height="22.982" stroke="#172C51" stroke-width="2.00156" stroke-miterlimit="8" fill="#EBEBEB"/><rect x="162" y="180.859" width="36" height="21.9829" stroke="#172C51" stroke-width="2.00156" stroke-miterlimit="8" fill="#EBEBEB"/><rect x="253" y="93.9269" width="35" height="21.9829" stroke="#172C51" stroke-width="2.00156" stroke-miterlimit="8" fill="#EBEBEB"/><rect x="302" y="93.9269" width="35" height="21.9829" stroke="#172C51" stroke-width="2.00156" stroke-miterlimit="8" fill="#EBEBEB"/><rect x="350" y="93.9269" width="36" height="21.9829" stroke="#172C51" stroke-width="2.00156" stroke-miterlimit="8" fill="#EBEBEB"/><rect x="254" y="149.883" width="34.9999" height="22.9821" stroke="#172C51" stroke-width="2.00156" stroke-miterlimit="8" fill="#EBEBEB"/><rect x="302" y="149.883" width="35" height="22.9821" stroke="#172C51" stroke-width="2.00156" stroke-miterlimit="8" fill="#EBEBEB"/><rect x="351" y="149.883" width="35" height="22.9821" stroke="#172C51" stroke-width="2.00156" stroke-miterlimit="8" fill="#EBEBEB"/><rect x="453" y="90.9292" width="32.9999" height="19.9845" stroke="#55A541" stroke-width="2.00156" stroke-miterlimit="8" fill="#88BC74"/><rect x="501" y="90.9292" width="34" height="19.9845" stroke="#4D7C3B" stroke-width="2.00156" stroke-miterlimit="8" fill="#34801E"/><rect x="550" y="137.893" width="33.0001" height="19.9845" stroke="#4D7C3B" stroke-width="2.00156" stroke-miterlimit="8" fill="#34801E"/><rect x="502" y="183.857" width="34" height="20.9837" stroke="#4D7C3B" stroke-width="2.00156" stroke-miterlimit="8" fill="#34801E"/><rect x="406" y="137.893" width="34" height="19.9845" stroke="#55A541" stroke-width="2.00156" stroke-miterlimit="8" fill="#88BC74"/><rect x="454" y="137.893" width="33" height="19.9845" stroke="#EDB0AF" stroke-width="2.00156" stroke-miterlimit="8" fill="#FFF5F4"/><rect x="406" y="183.857" width="34" height="20.9837" stroke="#EDB0AF" stroke-width="2.00156" stroke-miterlimit="8" fill="#FFF5F4"/><rect x="550" y="183.857" width="33.0001" height="20.9837" stroke="#EDB0AF" stroke-width="2.00156" stroke-miterlimit="8" fill="#FFF5F4"/><rect x="453" y="183.857" width="34" height="20.9837" stroke="#E6B6BA" stroke-width="2.00156" stroke-miterlimit="8" fill="#FDD6D7"/><rect x="501" y="137.893" width="34" height="19.9845" stroke="#E6B6BA" stroke-width="2.00156" stroke-miterlimit="8" fill="#FDD6D7"/><rect x="550" y="90.9292" width="33.0001" height="19.9845" stroke="#E6B6BA" stroke-width="2.00156" stroke-miterlimit="8" fill="#FDD6D7"/><rect x="596" y="137.893" width="34" height="19.9845" stroke="#E6B6BA" stroke-width="2.00156" stroke-miterlimit="8" fill="#FDD6D7"/><rect x="597" y="183.857" width="34" height="20.9837" stroke="#E6B6BA" stroke-width="2.00156" stroke-miterlimit="8" fill="#FDD6D7"/><path d="M1-3.36616e-06 1.00008 24.5222-0.999917 24.5222-1 3.36616e-06ZM4.00008 23.1889 0.000104987 31.1889-3.99992 23.1889Z" transform="matrix(-1.00078 0 0 1 180 60.9525)"/><text font-family="Yu Gothic,Yu Gothic_MSFontService,sans-serif" font-weight="700" font-size="14.6667" transform="matrix(1 0 0 0.999222 172.681 156)">：</text><path d="M181.001 114.911 181.001 130.768 178.999 130.768 178.999 114.911ZM184.003 129.434 180 137.434 175.997 129.434Z"/><path d="M0.999684-0.0251401 1.24626 9.7797-0.753111 9.82998-0.999684 0.0251401ZM4.21179 8.37136 0.414173 16.4694-3.78568 8.57248Z" transform="matrix(-1.00078 0 0 1 180.415 164.872)"/><path d="M181.001 202.842 181.001 232.747 178.999 232.747 178.999 202.842ZM184.003 231.414 180 239.414 175.997 231.414Z"/><text font-family="Calibri,Calibri_MSFontService,sans-serif" font-weight="700" font-size="14.6667" transform="matrix(1 0 0 0.999222 127.474 310)">Chain</text><text font-family="Calibri,Calibri_MSFontService,sans-serif" font-weight="700" font-size="14.6667" transform="matrix(1 0 0 0.999222 161.834 310)">-</text><text font-family="Calibri,Calibri_MSFontService,sans-serif" font-weight="700" font-size="14.6667" transform="matrix(1 0 0 0.999222 166.337 310)">of</text><text font-family="Calibri,Calibri_MSFontService,sans-serif" font-weight="700" font-size="14.6667" transform="matrix(1 0 0 0.999222 178.847 310)">-</text><text font-family="Calibri,Calibri_MSFontService,sans-serif" font-weight="700" font-size="14.6667" transform="matrix(1 0 0 0.999222 183.351 310)">Thought</text><text font-family="Calibri,Calibri_MSFontService,sans-serif" font-weight="700" font-size="14.6667" transform="matrix(1 0 0 0.999222 148.657 327)">Prompting</text><text font-family="Calibri,Calibri_MSFontService,sans-serif" font-weight="700" font-size="14.6667" transform="matrix(1 0 0 0.999222 164.836 345)">(CoT)</text><text font-family="Yu Gothic,Yu Gothic_MSFontService,sans-serif" font-weight="700" font-size="14.6667" transform="matrix(1 0 0 0.999222 264.192 132)">：</text><text font-family="Yu Gothic,Yu Gothic_MSFontService,sans-serif" font-weight="700" font-size="14.6667" transform="matrix(1 0 0 0.999222 312.411 132)">：</text><text font-family="Yu Gothic,Yu Gothic_MSFontService,sans-serif" font-weight="700" font-size="14.6667" transform="matrix(1 0 0 0.999222 358.844 131)">：</text><path d="M0.551499-0.834176 43.9365 27.849 42.8335 29.5173-0.551499 0.834176ZM44.4787 24.6111 48.9461 32.3598 40.0667 31.2845Z" transform="matrix(-1.00078 0 0 1 319.984 60.9525)"/><path d="M0.99993-0.0118022 1.30319 25.6818-0.696669 25.7054-0.99993 0.0118022ZM4.28725 24.3131 0.381942 32.3598-3.7122 24.4076Z" transform="matrix(-1.00078 0 0 1 319.382 60.9525)"/><path d="M320.558 60.1224 363.239 88.7653 362.123 90.4256 319.442 61.7827ZM363.805 85.5314 368.219 93.3123 359.341 92.1726Z"/><path d="M0.999099-0.0424278 1.11247 2.6272-0.885731 2.71205-0.999099 0.0424278ZM4.0532 1.16778 0.39622 9.33029-3.9396 1.5072Z" transform="matrix(-1.00078 0 0 1 271.397 140.89)"/><path d="M0.999999-0.00136382 1.00424 3.10846-0.995758 3.11119-0.999999 0.00136382ZM4.00242 1.77104 0.0133333 9.77648-3.99757 1.78195Z" transform="matrix(-1.00078 0 0 1 320.013 140.89)"/><path d="M366.979 139.685 367.759 143.384 365.801 143.796 365.021 140.097ZM370.422 141.461 368.155 150.114 362.588 143.11Z"/><path d="M251 205.34C251 198.442 260.178 192.85 271.5 192.85 282.822 192.85 292 198.442 292 205.34 292 212.238 282.822 217.83 271.5 217.83 260.178 217.83 251 212.238 251 205.34Z" stroke="#6E8B65" stroke-width="2.00156" stroke-miterlimit="8" fill="#87BA7C" fill-rule="evenodd"/><path d="M299 206.339C299 199.441 308.178 193.849 319.5 193.849 330.822 193.849 340 199.441 340 206.339 340 213.238 330.822 218.83 319.5 218.83 308.178 218.83 299 213.238 299 206.339Z" stroke="#6E8B65" stroke-width="2.00156" stroke-miterlimit="8" fill="#87BA7C" fill-rule="evenodd"/><path d="M347 205.84C347 199.218 356.178 193.849 367.5 193.849 378.822 193.849 388 199.218 388 205.84 388 212.462 378.822 217.83 367.5 217.83 356.178 217.83 347 212.462 347 205.84Z" stroke="#EDC4C5" stroke-width="2.00156" stroke-miterlimit="8" fill="#FFD2D4" fill-rule="evenodd"/><path d="M272.001 172.865 272.007 186.936 270.006 186.937 269.999 172.866ZM275.009 185.601 271.01 193.603 267.003 185.605Z"/><path d="M0.999845-0.0176069 1.26451 15.0121-0.735177 15.0473-0.999845 0.0176069ZM4.24057 13.6261 0.382047 21.6953-3.75819 13.767Z" transform="matrix(-1.00078 0 0 1 319.382 172.866)"/><path d="M0.999842-0.0178015 1.26321 14.7746-0.736471 14.8102-0.999842 0.0178015ZM4.239 13.3881 0.382047 21.4581-3.75973 13.5305Z" transform="matrix(-1.00078 0 0 1 368.382 172.866)"/><path d="M340 216.831C340 221.246 337.155 224.825 333.646 224.825L301.854 224.825C298.345 224.825 295.5 228.404 295.5 232.819 295.5 228.404 292.655 224.825 289.146 224.825L257.354 224.825C253.845 224.825 251 221.246 251 216.831" stroke="#000000" stroke-width="2" stroke-miterlimit="8" fill="none" fill-rule="evenodd"/><text font-family="Calibri,Calibri_MSFontService,sans-serif" font-weight="700" font-size="14.6667" transform="matrix(1 0 0 0.999222 265.675 310)">Self</text><text font-family="Calibri,Calibri_MSFontService,sans-serif" font-weight="700" font-size="14.6667" transform="matrix(1 0 0 0.999222 288.359 310)">-</text><text font-family="Calibri,Calibri_MSFontService,sans-serif" font-weight="700" font-size="14.6667" transform="matrix(1 0 0 0.999222 292.863 310)">Consistency</text><text font-family="Calibri,Calibri_MSFontService,sans-serif" font-weight="700" font-size="14.6667" transform="matrix(1 0 0 0.999222 288.44 327)">with</text><text font-family="Calibri,Calibri_MSFontService,sans-serif" font-weight="700" font-size="14.6667" transform="matrix(1 0 0 0.999222 319.464 327)">CoT</text><text font-family="Calibri,Calibri_MSFontService,sans-serif" font-weight="700" font-size="14.6667" transform="matrix(1 0 0 0.999222 289.774 345)">(CoT</text><text font-family="Calibri,Calibri_MSFontService,sans-serif" font-weight="700" font-size="14.6667" transform="matrix(1 0 0 0.999222 317.295 345)">-</text><text font-family="Calibri,Calibri_MSFontService,sans-serif" font-weight="700" font-size="14.6667" transform="matrix(1 0 0 0.999222 321.799 345)">SC)</text><text font-family="Yu Gothic,Yu Gothic_MSFontService,sans-serif" font-weight="700" font-size="12" transform="matrix(1 0 0 0.999222 252.222 242)">多数決</text><text font-family="Calibri,Calibri_MSFontService,sans-serif" font-weight="700" font-size="14.6667" transform="matrix(1 0 0 0.999222 472.232 310)">Tree of Thoughts</text><text font-family="Calibri,Calibri_MSFontService,sans-serif" font-weight="700" font-size="14.6667" transform="matrix(1 0 0 0.999222 508.013 327)">(ToT)</text><path d="M0.519945-0.8542 43.3358 25.2075 42.2959 26.9159-0.519945 0.8542ZM43.7567 21.9516 48.5106 29.528 39.5972 28.7852Z" fill="#4A9531" transform="matrix(-1.00078 0 0 1 518.548 60.9525)"/><path d="M1-3.5555e-06 1.00008 22.8613-0.999919 22.8613-1 3.5555e-06ZM4.00008 21.528 0.000104987 29.528-3.99992 21.528Z" fill="#4A9531" transform="matrix(-1.00078 0 0 1 518 60.9525)"/><path d="M0.495611-0.868545 41.2721 22.3994 40.2809 24.1365-0.495611 0.868545ZM41.6009 19.133 46.5668 26.5721 37.636 26.0814Z" fill="#4A9531" transform="matrix(-1.00078 0 0 1 469.603 110.914)"/><path d="M518.483 110.038 560.88 133.392 559.914 135.143 517.517 111.789ZM561.161 130.121 566.24 137.486 557.296 137.127Z" fill="#4A9531"/><path d="M0.475951-0.879472 42.1991 21.7002 41.2472 23.4591-0.475951 0.879472ZM42.4543 18.4272 47.5862 25.7526 38.6467 25.4629Z" fill="#4A9531" transform="matrix(-1.00078 0 0 1 566.623 157.877)"/><path d="M518.522 60.0994 561.155 86.1495 560.111 87.8557 517.478 61.8057ZM561.583 82.8944 566.325 90.4805 557.406 89.7195Z" fill="#DCAAAE"/><path d="M518.27 109.951 606.678 134.723 606.138 136.649 517.73 111.877ZM606.204 131.474 612.832 137.486 604.042 139.177Z" fill="#DCAAAE"/><path d="M0.999999-0.00159621 1.03177 19.9038-0.968225 19.907-0.999999 0.00159621ZM4.02964 18.5657 0.0424147 26.5721-3.97035 18.5785Z" fill="#DCAAAE" transform="matrix(-1.00078 0 0 1 518.042 110.914)"/><path d="M0.488282-0.872686 42.1615 22.4442 41.1849 24.1895-0.488282 0.872686ZM42.4628 19.1751 47.4911 26.5721 38.5565 26.1566Z" fill="#DCAAAE" transform="matrix(-1.00078 0 0 1 518.528 110.914)"/><path d="M424.001 157.877 424.001 176.963 421.999 176.963 421.999 157.877ZM427.003 175.63 423 183.63 418.997 175.63Z" fill="#DCAAAE"/><path d="M423.481 157 464.607 179.546 463.644 181.3 422.519 158.754ZM464.881 176.275 469.975 183.63 461.03 183.289Z" fill="#DCAAAE"/><path d="M0.999983-0.00580518 1.11078 19.0803-0.889183 19.0919-0.999983 0.00580518ZM4.10299 17.7296 0.149501 25.7526-3.89687 17.776Z" fill="#DCAAAE" transform="matrix(-1.00078 0 0 1 566.15 157.877)"/><path d="M566.479 156.999 607.955 179.564 606.998 181.32 565.521 158.755ZM608.219 176.291 613.336 183.63 604.391 183.317Z" fill="#DCAAAE"/><text font-family="Yu Gothic,Yu Gothic_MSFontService,sans-serif" font-weight="700" font-size="14.6667" transform="matrix(1 0 0 0.999222 510.826 219)">：</text><path d="M519.001 227.819 519.019 233.089 517.018 233.096 516.999 227.826ZM522.017 231.745 518.042 239.759 514.011 231.773Z" fill="#4A9531"/><text font-family="Yu Gothic,Yu Gothic_MSFontService,sans-serif" font-weight="700" font-size="14.6667" transform="matrix(1 0 0 0.999222 129.817 111)">思考</text></g></svg>