<svg width="586" height="219" xmlns="http://www.w3.org/2000/svg" xmlns:xlink="http://www.w3.org/1999/xlink" overflow="hidden"><defs><clipPath id="clip0"><rect x="0" y="0" width="586" height="219"/></clipPath></defs><g clip-path="url(#clip0)"><rect x="0" y="0" width="586" height="218.771" fill="#FFFFFF"/><path d="M29.5 171.82C29.5 154.993 57.93 141.352 93.0001 141.352 128.07 141.352 156.5 154.993 156.5 171.82 156.5 188.647 128.07 202.288 93.0001 202.288 57.93 202.288 29.5 188.647 29.5 171.82Z" stroke="#172C51" stroke-width="1.33371" stroke-miterlimit="8" fill="none" fill-rule="evenodd"/><path d="M6.50001 156.337C6.50001 124.889 45.6751 99.3961 94 99.3961 142.325 99.3961 181.5 124.889 181.5 156.337 181.5 187.784 142.325 213.277 94 213.277 45.6751 213.277 6.50001 187.784 6.50001 156.337Z" stroke="#172C51" stroke-width="1.33371" stroke-miterlimit="8" fill="none" fill-rule="evenodd"/><rect x="54" y="88.907" width="77.9999" height="26.9718" fill="#FFFFFF"/><text font-family="Yu Gothic,Yu Gothic_MSFontService,sans-serif" font-weight="700" font-size="14.6555" transform="matrix(1 0 0 0.998955 63.6775 107)">必要条件</text><rect x="54" y="130.863" width="79" height="26.9718" fill="#FFFFFF"/><text font-family="Yu Gothic,Yu Gothic_MSFontService,sans-serif" font-weight="700" font-size="14.6555" transform="matrix(1 0 0 0.998955 64.0054 149)">十分条件</text><path d="M227.5 152.84C227.5 123.324 255.93 99.3961 291 99.3961 326.07 99.3961 354.5 123.324 354.5 152.84 354.5 182.357 326.07 206.284 291 206.284 255.93 206.284 227.5 182.357 227.5 152.84Z" stroke="#172C51" stroke-width="1.33371" stroke-miterlimit="8" fill="none" fill-rule="evenodd"/><rect x="251" y="88.907" width="79" height="26.9718" fill="#FFFFFF"/><text font-family="Yu Gothic,Yu Gothic_MSFontService,sans-serif" font-weight="700" font-size="14.6555" transform="matrix(1 0 0 0.998955 261.108 107)">十分</text><text font-family="Yu Gothic,Yu Gothic_MSFontService,sans-serif" font-weight="700" font-size="14.6555" transform="matrix(1 0 0 0.998955 290.45 107)">条件</text><path d="M203.5 131.363C203.5 85.5709 242.675 48.4493 291 48.4493 339.325 48.4493 378.5 85.5709 378.5 131.363 378.5 177.154 339.325 214.276 291 214.276 242.675 214.276 203.5 177.154 203.5 131.363Z" stroke="#172C51" stroke-width="1.33371" stroke-miterlimit="8" fill="none" fill-rule="evenodd"/><rect x="251" y="36.9614" width="79" height="27.9707" fill="#FFFFFF"/><text font-family="Yu Gothic,Yu Gothic_MSFontService,sans-serif" font-weight="700" font-size="14.6555" transform="matrix(1 0 0 0.998955 261.108 56)">必要条件</text><text font-family="Yu Gothic,Yu Gothic_MSFontService,sans-serif" font-weight="700" font-size="14.6555" transform="matrix(1 0 0 0.998955 77.8602 126)">・人</text><text font-family="Yu Gothic,Yu Gothic_MSFontService,sans-serif" font-weight="700" font-size="14.6555" transform="matrix(1 0 0 0.998955 46.0475 181)">・ソクラテス</text><text font-family="Yu Gothic,Yu Gothic_MSFontService,sans-serif" font-weight="700" font-size="14.6555" transform="matrix(1 0 0 0.998955 5.32188 19)">『</text><text font-family="Yu Gothic,Yu Gothic_MSFontService,sans-serif" font-weight="700" font-size="14.6555" transform="matrix(1 0 0 0.998955 19.9927 19)">ソクラテスは人である</text><text font-family="Yu Gothic,Yu Gothic_MSFontService,sans-serif" font-weight="700" font-size="14.6555" transform="matrix(1 0 0 0.998955 166.701 19)">』</text><text font-family="Yu Gothic,Yu Gothic_MSFontService,sans-serif" font-weight="700" font-size="14.6555" transform="matrix(1 0 0 0.998955 272.686 158)">・人</text><text font-family="Yu Gothic,Yu Gothic_MSFontService,sans-serif" font-weight="700" font-size="14.6555" transform="matrix(1 0 0 0.998955 253.772 79)">・死ぬもの</text><text font-family="Yu Gothic,Yu Gothic_MSFontService,sans-serif" font-weight="700" font-size="14.6555" transform="matrix(1 0 0 0.998955 212.722 21)">『</text><text font-family="Yu Gothic,Yu Gothic_MSFontService,sans-serif" font-weight="700" font-size="14.6555" transform="matrix(1 0 0 0.998955 227.393 21)">人は死ぬものである</text><text font-family="Yu Gothic,Yu Gothic_MSFontService,sans-serif" font-weight="700" font-size="14.6555" transform="matrix(1 0 0 0.998955 359.431 21)">』</text><path d="M427.5 152.84C427.5 123.324 455.93 99.3961 491 99.3961 526.07 99.3961 554.5 123.324 554.5 152.84 554.5 182.357 526.07 206.284 491 206.284 455.93 206.284 427.5 182.357 427.5 152.84Z" stroke="#BFBFBF" stroke-width="1.33371" stroke-miterlimit="8" fill="none" fill-rule="evenodd"/><rect x="451" y="88.907" width="79" height="26.9718" fill="#FFFFFF"/><text fill="#BFBFBF" font-family="Yu Gothic,Yu Gothic_MSFontService,sans-serif" font-weight="700" font-size="14.6555" transform="matrix(1 0 0 0.998955 460.954 107)">十分</text><text fill="#BFBFBF" font-family="Yu Gothic,Yu Gothic_MSFontService,sans-serif" font-weight="700" font-size="14.6555" transform="matrix(1 0 0 0.998955 490.295 107)">条件</text><path d="M402.5 131.363C402.5 85.5709 441.899 48.4493 490.5 48.4493 539.101 48.4493 578.5 85.5709 578.5 131.363 578.5 177.154 539.101 214.276 490.5 214.276 441.899 214.276 402.5 177.154 402.5 131.363Z" stroke="#172C51" stroke-width="1.33371" stroke-miterlimit="8" fill="none" fill-rule="evenodd"/><rect x="451" y="36.9614" width="79" height="27.9707" fill="#FFFFFF"/><text font-family="Yu Gothic,Yu Gothic_MSFontService,sans-serif" font-weight="700" font-size="14.6555" transform="matrix(1 0 0 0.998955 460.953 56)">必要条件</text><text fill="#BFBFBF" font-family="Yu Gothic,Yu Gothic_MSFontService,sans-serif" font-weight="700" font-size="14.6555" transform="matrix(1 0 0 0.998955 469.232 125)">・人</text><text font-family="Yu Gothic,Yu Gothic_MSFontService,sans-serif" font-weight="700" font-size="14.6555" transform="matrix(1 0 0 0.998955 453.618 79)">・死ぬもの</text><path d="M439.5 166.826C439.5 152.757 462.333 141.352 490.5 141.352 518.667 141.352 541.5 152.757 541.5 166.826 541.5 180.894 518.667 192.299 490.5 192.299 462.333 192.299 439.5 180.894 439.5 166.826Z" stroke="#172C51" stroke-width="1.33371" stroke-miterlimit="8" fill="none" fill-rule="evenodd"/><rect x="452" y="130.863" width="77.9999" height="26.9718" fill="#FFFFFF"/><text font-family="Yu Gothic,Yu Gothic_MSFontService,sans-serif" font-weight="700" font-size="14.6555" transform="matrix(1 0 0 0.998955 461.769 149)">十分条件</text><text font-family="Yu Gothic,Yu Gothic_MSFontService,sans-serif" font-weight="700" font-size="14.6555" transform="matrix(1 0 0 0.998955 443.812 181)">・ソクラテス</text><text font-family="Yu Gothic,Yu Gothic_MSFontService,sans-serif" font-weight="700" font-size="14.6555" transform="matrix(1 0 0 0.998955 417.757 19)">『</text><text font-family="Yu Gothic,Yu Gothic_MSFontService,sans-serif" font-weight="700" font-size="14.6555" transform="matrix(1 0 0 0.998955 432.428 19)">ソクラテスは死ぬ</text><text font-family="Yu Gothic,Yu Gothic_MSFontService,sans-serif" font-weight="700" font-size="14.6555" transform="matrix(1 0 0 0.998955 549.794 19)">』</text></g></svg>