<svg width="416" height="132" xmlns="http://www.w3.org/2000/svg" xmlns:xlink="http://www.w3.org/1999/xlink" overflow="hidden"><g><rect x="0" y="0" width="416" height="131.562" fill="#FFFFFF"/><path d="M38.5 80.2329C38.5 62.6184 68.0492 48.339 104.5 48.339 140.951 48.339 170.5 62.6184 170.5 80.2329 170.5 97.8474 140.951 112.127 104.5 112.127 68.0492 112.127 38.5 97.8474 38.5 80.2329Z" stroke="#172C51" stroke-width="1.3344" stroke-miterlimit="8" fill="none" fill-rule="evenodd"/><path d="M14.5 70.2661C14.5 41.0921 55.2421 17.4419 105.5 17.4419 155.758 17.4419 196.5 41.0921 196.5 70.2661 196.5 99.44 155.758 123.09 105.5 123.09 55.2421 123.09 14.5 99.44 14.5 70.2661Z" stroke="#172C51" stroke-width="1.3344" stroke-miterlimit="8" fill="none" fill-rule="evenodd"/><rect x="90" y="4.98343" width="28" height="26.9104" fill="#FFFFFF"/><text font-family="Calibri,Calibri_MSFontService,sans-serif" font-weight="700" font-size="14.6297" transform="matrix(1 0 0 0.996682 100.18 23)">B</text><rect x="90" y="37.8739" width="29" height="26.9104" fill="#FFFFFF"/><text font-family="Calibri,Calibri_MSFontService,sans-serif" font-weight="700" font-size="14.6297" transform="matrix(1 0 0 0.996682 100.186 56)">A</text><path d="M243.5 84.718C243.5 67.9292 273.049 54.3192 309.5 54.3192 345.951 54.3192 375.5 67.9292 375.5 84.718 375.5 101.507 345.951 115.117 309.5 115.117 273.049 115.117 243.5 101.507 243.5 84.718Z" stroke="#172C51" stroke-width="1.3344" stroke-miterlimit="8" fill="none" fill-rule="evenodd"/><rect x="270" y="41.8606" width="79" height="27.9072" fill="#FFFFFF"/><text font-family="Yu Gothic,Yu Gothic_MSFontService,sans-serif" font-weight="700" font-size="14.6297" transform="matrix(1 0 0 0.996682 279.971 61)">十分条件</text><path d="M218.5 70.2661C218.5 41.0921 259.466 17.4419 310 17.4419 360.534 17.4419 401.5 41.0921 401.5 70.2661 401.5 99.44 360.534 123.09 310 123.09 259.466 123.09 218.5 99.44 218.5 70.2661Z" stroke="#172C51" stroke-width="1.3344" stroke-miterlimit="8" fill="none" fill-rule="evenodd"/><rect x="270" y="6.97682" width="79" height="27.9071" fill="#FFFFFF"/><text font-family="Yu Gothic,Yu Gothic_MSFontService,sans-serif" font-weight="700" font-size="14.6297" transform="matrix(1 0 0 0.996682 279.971 26)">必要条件</text></g></svg>