<svg width="595" height="302" xmlns="http://www.w3.org/2000/svg" xmlns:xlink="http://www.w3.org/1999/xlink" overflow="hidden"><g><rect x="0" y="0" width="595" height="301.836" fill="#FFFFFF"/><text font-family="Yu Gothic,Yu Gothic_MSFontService,sans-serif" font-weight="700" font-size="14.6505" transform="matrix(-1.83697e-16 -0.998914 1.00054 -1.83597e-16 23.0939 238)">汎化誤差</text><text fill="#0000FF" font-family="Yu Gothic,Yu Gothic_MSFontService,sans-serif" font-weight="700" font-size="14.6505" transform="matrix(1 0 0 0.999457 174.841 232)">テスト誤差</text><text fill="#FF0000" font-family="Yu Gothic,Yu Gothic_MSFontService,sans-serif" font-weight="700" font-size="14.6505" transform="matrix(1 0 0 0.999457 143.07 256)">訓練誤差</text><path d="M30.0005 272.852 30.0005 150.581 31.9994 150.581 31.9994 272.852ZM27.0022 151.913 31 143.922 34.9977 151.913Z"/><path d="M31 271.853 562.337 271.853 562.337 273.851 31 273.851ZM561.004 268.856 569 272.852 561.004 276.847Z" fill="#172C51"/><path d="M40 181.901C77.2887 254.082 162.997 274.09 227 271.659" stroke="#FF0000" stroke-width="1.99888" stroke-miterlimit="8" fill="none" fill-rule="evenodd"/><path d="M41 173.731C105.9 277.066 185.263 235.732 225.687 146.92 245.674 232.432 384.251 250.968 419.927 252.014 455.604 253.061 481.714 203.905 510.059 204.546 538.405 205.187 561.248 255.054 590 255.861" stroke="#0000FF" stroke-width="1.99888" stroke-miterlimit="8" fill="none" fill-rule="evenodd"/><text font-family="Yu Gothic,Yu Gothic_MSFontService,sans-serif" font-weight="700" font-size="14.6505" transform="matrix(1 0 0 0.999457 246.358 260)">補間閾値</text><path d="M243.614 259.648 230.873 269.552 229.646 267.975 242.386 258.071ZM233.766 271.1 225 272.852 228.857 264.792Z" fill="#172C51"/><text font-family="Yu Gothic,Yu Gothic_MSFontService,sans-serif" font-weight="700" font-size="14.6505" transform="matrix(1 0 0 0.999457 290.371 145)">過剰パラメータ</text><text font-family="Yu Gothic,Yu Gothic_MSFontService,sans-serif" font-weight="700" font-size="14.6505" transform="matrix(1 0 0 0.999457 80.3659 146)">パラメータ不足</text><text font-family="Calibri,Calibri_MSFontService,sans-serif" font-weight="700" font-size="14.6505" transform="matrix(1 0 0 0.999457 84.2957 187)">"</text><text font-family="Yu Gothic,Yu Gothic_MSFontService,sans-serif" font-weight="700" font-size="14.6505" transform="matrix(1 0 0 0.999457 90.792 187)">古典</text><text font-family="Calibri,Calibri_MSFontService,sans-serif" font-weight="700" font-size="14.6505" transform="matrix(1 0 0 0.999457 120.109 187)">"</text><text font-family="Yu Gothic,Yu Gothic_MSFontService,sans-serif" font-weight="700" font-size="14.6505" transform="matrix(1 0 0 0.999457 126.605 187)">領域</text><text font-family="Calibri,Calibri_MSFontService,sans-serif" font-weight="700" font-size="14.6505" transform="matrix(1 0 0 0.999457 286.977 187)">"</text><text font-family="Yu Gothic,Yu Gothic_MSFontService,sans-serif" font-weight="700" font-size="14.6505" transform="matrix(1 0 0 0.999457 293.474 187)">現代</text><text font-family="Calibri,Calibri_MSFontService,sans-serif" font-weight="700" font-size="14.6505" transform="matrix(1 0 0 0.999457 322.791 187)">"</text><text font-family="Yu Gothic,Yu Gothic_MSFontService,sans-serif" font-weight="700" font-size="14.6505" transform="matrix(1 0 0 0.999457 332.618 187)">補間領域</text><text font-family="Cambria Math,Cambria Math_MSFontService,sans-serif" font-weight="400" font-size="14.6505" transform="matrix(1 0 0 0.999457 171.558 291)"></text><text font-family="Yu Gothic,Yu Gothic_MSFontService,sans-serif" font-weight="700" font-size="14.6505" transform="matrix(1 0 0 0.999457 174.723 291)">仮説空間</text><text font-family="Cambria Math,Cambria Math_MSFontService,sans-serif" font-weight="400" font-size="14.6505" transform="matrix(1 0 0 0.999457 233.356 291)"></text><text font-family="Cambria Math,Cambria Math_MSFontService,sans-serif" font-weight="400" font-size="14.6505" transform="matrix(1 0 0 0.999457 236.521 291)"></text><text font-family="Cambria Math,Cambria Math_MSFontService,sans-serif" font-weight="400" font-size="14.6505" transform="matrix(1 0 0 0.999457 239.686 291)">𝓗</text><text font-family="Yu Gothic,Yu Gothic_MSFontService,sans-serif" font-weight="700" font-size="14.6505" transform="matrix(1 0 0 0.999457 257.843 291)">の容量</text><text font-family="Cambria Math,Cambria Math_MSFontService,sans-serif" font-weight="700" font-size="14.6505" transform="matrix(1 0 0 0.999457 305.149 291)">≒</text><text font-family="Yu Gothic,Yu Gothic_MSFontService,sans-serif" font-weight="700" font-size="14.6505" transform="matrix(1 0 0 0.999457 319.142 291)">モデルのパラメータ数</text><path d="M225 269.853 225 136.926" stroke="#172C51" stroke-width="1.99888" stroke-miterlimit="8" stroke-dasharray="7.99552 5.99664" fill="none" fill-rule="evenodd"/><text font-family="Calibri,Calibri_MSFontService,sans-serif" font-weight="700" font-size="13.3186" transform="matrix(1 0 0 0.999457 233.938 101)">Bening Overfitting (</text><text font-family="Yu Gothic,Yu Gothic_MSFontService,sans-serif" font-weight="700" font-size="13.3186" transform="matrix(1 0 0 0.999457 342.544 101)">良性過学習</text><text font-family="Calibri,Calibri_MSFontService,sans-serif" font-weight="700" font-size="13.3186" transform="matrix(1 0 0 0.999457 409.173 101)">)</text><path d="M225 124.932C225 119.688 228.495 115.437 232.805 115.437L315.195 115.437C319.506 115.437 323 111.186 323 105.942 323 111.186 326.495 115.437 330.805 115.437L413.195 115.437C417.506 115.437 421 119.688 421 124.932" stroke="#000000" stroke-width="1.99779" stroke-miterlimit="8" fill="none" fill-rule="evenodd"/><path d="M31 88.9517C31 83.7077 34.4944 79.4567 38.8051 79.4567L218.195 79.4567C222.506 79.4567 226 75.2056 226 69.9616 226 75.2056 229.494 79.4567 233.805 79.4567L413.195 79.4567C417.506 79.4567 421 83.7077 421 88.9517" stroke="#00B050" stroke-width="1.99779" stroke-miterlimit="8" fill="none" fill-rule="evenodd"/><text fill="#00B050" font-family="Calibri,Calibri_MSFontService,sans-serif" font-weight="700" font-size="14.6505" transform="matrix(1 0 0 0.999457 139.609 63)">Double Descent (</text><text fill="#00B050" font-family="Yu Gothic,Yu Gothic_MSFontService,sans-serif" font-weight="700" font-size="14.6505" transform="matrix(1 0 0 0.999457 243.218 63)">二重降下</text><text fill="#00B050" font-family="Calibri,Calibri_MSFontService,sans-serif" font-weight="700" font-size="14.6505" transform="matrix(1 0 0 0.999457 301.852 63)">)</text><path d="M33.9999 50.9723C33.9999 44.9005 38.0462 39.9783 43.0376 39.9783L298.462 39.9783C303.454 39.9783 307.5 35.0562 307.5 28.9843 307.5 35.0562 311.546 39.9783 316.538 39.9783L571.962 39.9783C576.954 39.9783 581 44.9005 581 50.9723" stroke="#000000" stroke-width="1.99779" stroke-miterlimit="8" fill="none" fill-rule="evenodd"/><text font-family="Calibri,Calibri_MSFontService,sans-serif" font-weight="700" font-size="14.6505" transform="matrix(1 0 0 0.999457 213.85 22)">Multiple Descent (</text><text font-family="Yu Gothic,Yu Gothic_MSFontService,sans-serif" font-weight="700" font-size="14.6505" transform="matrix(1 0 0 0.999457 325.787 22)">多重降下</text><text font-family="Calibri,Calibri_MSFontService,sans-serif" font-weight="700" font-size="14.6505" transform="matrix(1 0 0 0.999457 384.421 22)">)</text><path d="M30 69.4533C30 57.0386 40.0696 46.9745 52.491 46.9745L398.509 46.9745C410.93 46.9745 421 57.0386 421 69.4533L421 249.373C421 261.788 410.93 271.852 398.509 271.852L52.491 271.852C40.0696 271.852 30 261.788 30 249.373Z" fill="#00B050" fill-rule="evenodd" fill-opacity="0.101961"/></g></svg>