<svg width="510" height="208" xmlns="http://www.w3.org/2000/svg" xmlns:xlink="http://www.w3.org/1999/xlink" overflow="hidden"><defs><clipPath id="clip0"><rect x="0" y="0" width="510" height="208"/></clipPath></defs><g clip-path="url(#clip0)"><rect x="0" y="0" width="510" height="208.235" fill="#FFFFFF"/><text font-family="Yu Gothic,Yu Gothic_MSFontService,sans-serif" font-weight="700" font-size="14.6784" transform="matrix(-1.83697e-16 -1.00226 0.998872 -1.83904e-16 25.2924 125)">汎化誤差</text><text fill="#0000FF" font-family="Yu Gothic,Yu Gothic_MSFontService,sans-serif" font-weight="700" font-size="14.6784" transform="matrix(1 0 0 1.00113 165.53 63)">テスト誤差</text><text fill="#FF0000" font-family="Yu Gothic,Yu Gothic_MSFontService,sans-serif" font-weight="700" font-size="14.6784" transform="matrix(1 0 0 1.00113 175.634 151)">訓練誤差</text><path d="M35.0003 172.194 35.0003 24.6924 36.9997 24.6924 36.9997 172.194ZM32.0013 26.0267 36 18.0203 39.9987 26.0267Z"/><path d="M36 171.193 497.335 171.193 497.335 173.195 36 173.195ZM496.003 168.191 504 172.194 496.003 176.197Z" fill="#172C51"/><path d="M46 64.0722C90.6666 150.03 193.333 173.858 270 170.963" stroke="#FF0000" stroke-width="1.99935" stroke-miterlimit="8" stroke-dasharray="7.99739 5.99804" fill="none" fill-rule="evenodd"/><path d="M47 53.9771C124.835 177.126 220.016 127.867 268.496 22.0248 310.75 140.958 375.019 139.405 500 149.168" stroke="#0000FF" stroke-width="1.99935" stroke-miterlimit="8" fill="none" fill-rule="evenodd"/><text font-family="Yu Gothic,Yu Gothic_MSFontService,sans-serif" font-weight="700" font-size="14.6784" transform="matrix(1 0 0 1.00113 291.703 154)">補間閾値</text><path d="M290.629 155.953 274.809 168.774 273.551 167.218 289.371 154.397ZM277.732 170.268 269 172.194 272.7 164.045Z" fill="#172C51"/><text font-family="Yu Gothic,Yu Gothic_MSFontService,sans-serif" font-weight="700" font-size="14.6784" transform="matrix(1 0 0 1.00113 343.695 37)">過剰パラメータ</text><text font-family="Yu Gothic,Yu Gothic_MSFontService,sans-serif" font-weight="700" font-size="14.6784" transform="matrix(1 0 0 1.00113 102.2 38)">パラメータ不足</text><text font-family="Calibri,Calibri_MSFontService,sans-serif" font-weight="700" font-size="14.6784" transform="matrix(1 0 0 1.00113 115.985 92)">"</text><text font-family="Yu Gothic,Yu Gothic_MSFontService,sans-serif" font-weight="700" font-size="14.6784" transform="matrix(1 0 0 1.00113 122.483 92)">古典</text><text font-family="Calibri,Calibri_MSFontService,sans-serif" font-weight="700" font-size="14.6784" transform="matrix(1 0 0 1.00113 151.806 92)">"</text><text font-family="Yu Gothic,Yu Gothic_MSFontService,sans-serif" font-weight="700" font-size="14.6784" transform="matrix(1 0 0 1.00113 158.304 92)">領域</text><text font-family="Calibri,Calibri_MSFontService,sans-serif" font-weight="700" font-size="14.6784" transform="matrix(1 0 0 1.00113 347.071 92)">"</text><text font-family="Yu Gothic,Yu Gothic_MSFontService,sans-serif" font-weight="700" font-size="14.6784" transform="matrix(1 0 0 1.00113 353.569 92)">現代</text><text font-family="Calibri,Calibri_MSFontService,sans-serif" font-weight="700" font-size="14.6784" transform="matrix(1 0 0 1.00113 382.892 92)">"</text><text font-family="Yu Gothic,Yu Gothic_MSFontService,sans-serif" font-weight="700" font-size="14.6784" transform="matrix(1 0 0 1.00113 392.722 92)">補間領域</text><text font-family="Cambria Math,Cambria Math_MSFontService,sans-serif" font-weight="400" font-size="14.6784" transform="matrix(1 0 0 1.00113 199.483 191)"></text><text font-family="Yu Gothic,Yu Gothic_MSFontService,sans-serif" font-weight="700" font-size="14.6784" transform="matrix(1 0 0 1.00113 202.648 191)">仮説空間</text><text font-family="Cambria Math,Cambria Math_MSFontService,sans-serif" font-weight="400" font-size="14.6784" transform="matrix(1 0 0 1.00113 261.296 191)"></text><text font-family="Cambria Math,Cambria Math_MSFontService,sans-serif" font-weight="400" font-size="14.6784" transform="matrix(1 0 0 1.00113 264.462 191)"></text><text font-family="Cambria Math,Cambria Math_MSFontService,sans-serif" font-weight="400" font-size="14.6784" transform="matrix(1 0 0 1.00113 267.627 191)">𝓗</text><text font-family="Yu Gothic,Yu Gothic_MSFontService,sans-serif" font-weight="700" font-size="14.6784" transform="matrix(1 0 0 1.00113 285.788 191)">の容量</text><path d="M269 169.191 269 9.01016" stroke="#172C51" stroke-width="1.99935" stroke-miterlimit="8" stroke-dasharray="7.99739 5.99804" fill="none" fill-rule="evenodd"/></g></svg>