<svg width="624" height="227" xmlns="http://www.w3.org/2000/svg" xmlns:xlink="http://www.w3.org/1999/xlink" overflow="hidden"><defs><clipPath id="clip0"><rect x="0" y="0" width="624" height="227"/></clipPath></defs><g clip-path="url(#clip0)"><rect x="0" y="0" width="624" height="227.045" fill="#FFFFFF"/><path d="M13 23.4597C13 16.0272 19.024 10.002 26.455 10.002L346.545 10.002C353.976 10.002 360 16.0272 360 23.4597L360 121.569C360 129.002 353.976 135.027 346.545 135.027L26.455 135.027C19.024 135.027 13 129.002 13 121.569Z" fill="#F3E5E5" fill-rule="evenodd"/><path d="M30 74.7199C30 72.6733 31.6581 71.0142 33.7036 71.0142L57.2964 71.0142C59.3419 71.0142 61 72.6733 61 74.7199L61 89.5423C61 91.5889 59.3419 93.248 57.2964 93.248L38.1437 93.5711C37.6643 94.3223 29.9714 102.072 30.3229 102.02 30.1766 102.028 30.0823 75.3642 30 74.7199Z" stroke="#172C51" stroke-width="2.00107" stroke-miterlimit="8" fill="none" fill-rule="evenodd"/><path d="M35 76.0152 53 76.0152" stroke="#172C51" stroke-width="2.00107" stroke-miterlimit="8" fill="none" fill-rule="evenodd"/><path d="M35 82.0164 53 82.0164" stroke="#172C51" stroke-width="2.00107" stroke-miterlimit="8" fill="none" fill-rule="evenodd"/><path d="M35 87.0174 45 87.0174" stroke="#172C51" stroke-width="2.00107" stroke-miterlimit="8" fill="none" fill-rule="evenodd"/><text font-family="Cambria Math,Cambria Math_MSFontService,sans-serif" font-weight="400" font-size="10.6745" transform="matrix(1 0 0 1.0002 47.0126 89)">𝒚</text><text font-family="Cambria Math,Cambria Math_MSFontService,sans-serif" font-weight="400" font-size="7.79239" transform="matrix(1 0 0 1.0002 53.3493 91)">𝒘</text><path d="M157 67.5135C157 66.1325 158.343 65.013 160 65.013 161.657 65.013 163 66.1325 163 67.5135 163 68.8945 161.657 70.014 160 70.014 158.343 70.014 157 68.8945 157 67.5135Z" fill="#D5BFD0" fill-rule="evenodd"/><path d="M157 80.5161C157 79.1351 158.343 78.0156 160 78.0156 161.657 78.0156 163 79.1351 163 80.5161 163 81.8971 161.657 83.0166 160 83.0166 158.343 83.0166 157 81.8971 157 80.5161Z" fill="#D5BFD0" fill-rule="evenodd"/><path d="M157 94.0188C157 92.3616 158.343 91.0182 160 91.0182 161.657 91.0182 163 92.3616 163 94.0188 163 95.676 161.657 97.0194 160 97.0194 158.343 97.0194 157 95.676 157 94.0188Z" fill="#D5BFD0" fill-rule="evenodd"/><path d="M179 61.0122C179 59.355 180.343 58.0116 182 58.0116 183.657 58.0116 185 59.355 185 61.0122 185 62.6694 183.657 64.0128 182 64.0128 180.343 64.0128 179 62.6694 179 61.0122Z" fill="#87A3BE" fill-rule="evenodd"/><path d="M179 73.5147C179 72.1337 180.343 71.0142 182 71.0142 183.657 71.0142 185 72.1337 185 73.5147 185 74.8957 183.657 76.0152 182 76.0152 180.343 76.0152 179 74.8957 179 73.5147Z" fill="#87A3BE" fill-rule="evenodd"/><path d="M179 88.0176C179 86.3605 180.343 85.0171 182 85.0171 183.657 85.0171 185 86.3605 185 88.0176 185 89.6748 183.657 91.0182 182 91.0182 180.343 91.0182 179 89.6748 179 88.0176Z" fill="#87A3BE" fill-rule="evenodd"/><path d="M179 101.02C179 99.363 180.343 98.0196 182 98.0196 183.657 98.0196 185 99.363 185 101.02 185 102.677 183.657 104.021 182 104.021 180.343 104.021 179 102.677 179 101.02Z" fill="#87A3BE" fill-rule="evenodd"/><path d="M202 68.0136C202 66.3564 203.343 65.013 205 65.013 206.657 65.013 208 66.3564 208 68.0136 208 69.6708 206.657 71.0142 205 71.0142 203.343 71.0142 202 69.6708 202 68.0136Z" fill="#9CA5B5" fill-rule="evenodd"/><path d="M202.5 81.0162C202.5 79.6352 203.843 78.5157 205.5 78.5157 207.157 78.5157 208.5 79.6352 208.5 81.0162 208.5 82.3972 207.157 83.5167 205.5 83.5167 203.843 83.5167 202.5 82.3972 202.5 81.0162Z" stroke="#172C51" stroke-width="1.33405" stroke-miterlimit="8" fill="none" fill-rule="evenodd"/><path d="M202 94.0188C202 92.3616 203.343 91.0182 205 91.0182 206.657 91.0182 208 92.3616 208 94.0188 208 95.676 206.657 97.0194 205 97.0194 203.343 97.0194 202 95.676 202 94.0188Z" fill="#9CA5B5" fill-rule="evenodd"/><path d="M225 80.016C225 78.3588 226.119 77.0154 227.5 77.0154 228.881 77.0154 230 78.3588 230 80.016 230 81.6732 228.881 83.0166 227.5 83.0166 226.119 83.0166 225 81.6732 225 80.016Z" fill="#BA91B1" fill-rule="evenodd"/><path d="M0 0 16.7032 6.25689" stroke="#4472C4" stroke-width="0.667023" stroke-miterlimit="8" fill="none" fill-rule="evenodd" transform="matrix(1 0 0 -1.0002 163.5 67.7705)"/><path d="M0 0 18.3638 15.7299" stroke="#4472C4" stroke-width="0.667023" stroke-miterlimit="8" fill="none" fill-rule="evenodd" transform="matrix(1 0 0 -1.0002 162.5 79.2457)"/><path d="M0 0 18.6419 29.128" stroke="#4472C4" stroke-width="0.667023" stroke-miterlimit="8" fill="none" fill-rule="evenodd" transform="matrix(1 0 0 -1.0002 162.5 92.6465)"/><path d="M163.5 68.5137 180.203 74.3471" stroke="#4472C4" stroke-width="0.667023" stroke-miterlimit="8" fill="none" fill-rule="evenodd"/><path d="M162.5 70.5141 180.864 87.0151" stroke="#4472C4" stroke-width="0.667023" stroke-miterlimit="8" fill="none" fill-rule="evenodd"/><path d="M162.5 70.5141 180.864 99.6909" stroke="#4472C4" stroke-width="0.667023" stroke-miterlimit="8" fill="none" fill-rule="evenodd"/><path d="M162.5 82.5165 180.864 98.793" stroke="#4472C4" stroke-width="0.667023" stroke-miterlimit="8" fill="none" fill-rule="evenodd"/><path d="M162.5 82.5165 179.757 88.1874" stroke="#4472C4" stroke-width="0.667023" stroke-miterlimit="8" fill="none" fill-rule="evenodd"/><path d="M0 0 16.6394 5.78923" stroke="#4472C4" stroke-width="0.667023" stroke-miterlimit="8" fill="none" fill-rule="evenodd" transform="matrix(1 0 0 -1.0002 163.5 94.3081)"/><path d="M163.5 94.519 180.481 101.405" stroke="#4472C4" stroke-width="0.667023" stroke-miterlimit="8" fill="none" fill-rule="evenodd"/><path d="M0 0 18.6419 16.4546" stroke="#4472C4" stroke-width="0.667023" stroke-miterlimit="8" fill="none" fill-rule="evenodd" transform="matrix(1 0 0 -1.0002 162.5 91.9729)"/><path d="M0 0 17.1481 5.66549" stroke="#4472C4" stroke-width="0.667023" stroke-miterlimit="8" fill="none" fill-rule="evenodd" transform="matrix(1 0 0 -1.0002 185.5 74.1803)"/><path d="M0 0 18.8087 16.3308" stroke="#4472C4" stroke-width="0.667023" stroke-miterlimit="8" fill="none" fill-rule="evenodd" transform="matrix(1 0 0 -1.0002 184.5 86.8482)"/><path d="M0 0 18.8087 29.0043" stroke="#4472C4" stroke-width="0.667023" stroke-miterlimit="8" fill="none" fill-rule="evenodd" transform="matrix(1 0 0 -1.0002 184.5 99.5242)"/><path d="M0 0 18.8087 16.1065" stroke="#4472C4" stroke-width="0.667023" stroke-miterlimit="8" fill="none" fill-rule="evenodd" transform="matrix(1 0 0 -1.0002 184.5 99.6264)"/><path d="M0 0 16.87 6.71739" stroke="#4472C4" stroke-width="0.667023" stroke-miterlimit="8" fill="none" fill-rule="evenodd" transform="matrix(1 0 0 -1.0002 185.5 101.238)"/><path d="M185.5 88.5177 202.37 94.4748" stroke="#4472C4" stroke-width="0.667023" stroke-miterlimit="8" fill="none" fill-rule="evenodd"/><path d="M184.5 75.5151 203.031 92.1398" stroke="#4472C4" stroke-width="0.667023" stroke-miterlimit="8" fill="none" fill-rule="evenodd"/><path d="M184.5 63.5127 203.031 92.8132" stroke="#4472C4" stroke-width="0.667023" stroke-miterlimit="8" fill="none" fill-rule="evenodd"/><path d="M184.5 75.5151 202.478 80.7439" stroke="#4472C4" stroke-width="0.667023" stroke-miterlimit="8" fill="none" fill-rule="evenodd"/><path d="M184.5 63.5127 202.588 79.539" stroke="#4472C4" stroke-width="0.667023" stroke-miterlimit="8" fill="none" fill-rule="evenodd"/><path d="M185.5 61.5124 202.648 68.5217" stroke="#4472C4" stroke-width="0.667023" stroke-miterlimit="8" fill="none" fill-rule="evenodd"/><path d="M207.5 70.5141 225.878 79.0023" stroke="#4472C4" stroke-width="0.667023" stroke-miterlimit="8" fill="none" fill-rule="evenodd"/><path d="M0 0 16.7174 0.402315" stroke="#4472C4" stroke-width="0.667023" stroke-miterlimit="8" fill="none" fill-rule="evenodd" transform="matrix(1 0 0 -1.0002 208.5 80.9185)"/><path d="M0 0 18.656 9.79137" stroke="#4472C4" stroke-width="0.667023" stroke-miterlimit="8" fill="none" fill-rule="evenodd" transform="matrix(1 0 0 -1.0002 207.5 92.3099)"/><text font-family="Yu Gothic,Yu Gothic_MSFontService,sans-serif" font-weight="700" font-size="14.6774" transform="matrix(1 0 0 1.0002 22.9261 27)">人間のフィードバックによる強化学習</text><text font-family="Calibri,Calibri_MSFontService,sans-serif" font-weight="700" font-size="14.6774" transform="matrix(1 0 0 1.0002 272.393 27)">(RLHF)</text><path d="M375 23.4597C375 16.0272 381.024 10.002 388.455 10.002L595.545 10.002C602.976 10.002 609 16.0272 609 23.4597L609 121.569C609 129.002 602.976 135.027 595.545 135.027L388.455 135.027C381.024 135.027 375 129.002 375 121.569Z" fill="#E2F2F2" fill-rule="evenodd"/><text font-family="Yu Gothic,Yu Gothic_MSFontService,sans-serif" font-weight="700" font-size="14.6774" transform="matrix(1 0 0 1.0002 385.255 29)">ダイレクト選好最適化</text><text font-family="Calibri,Calibri_MSFontService,sans-serif" font-weight="700" font-size="14.6774" transform="matrix(1 0 0 1.0002 532 29)">(DPO)</text><text font-family="Calibri,Calibri_MSFontService,sans-serif" font-weight="700" font-size="10.6745" transform="matrix(1 0 0 1.0002 27.2958 44)">x:</text><text font-family="Yu Gothic,Yu Gothic_MSFontService,sans-serif" font-weight="700" font-size="10.6745" transform="matrix(1 0 0 1.0002 37.4679 44)">『</text><text font-family="Yu Gothic,Yu Gothic_MSFontService,sans-serif" font-weight="700" font-size="10.6745" transform="matrix(1 0 0 1.0002 48.1403 44)">ジャズの歴史に関する</text><text font-family="Yu Gothic,Yu Gothic_MSFontService,sans-serif" font-weight="700" font-size="10.6745" transform="matrix(1 0 0 1.0002 48.6406 57)">詩を書いて</text><text font-family="Yu Gothic,Yu Gothic_MSFontService,sans-serif" font-weight="700" font-size="10.6745" transform="matrix(1 0 0 1.0002 102.002 57)">』</text><path d="M78 74.7199C78 72.6733 79.7116 71.0142 81.8231 71.0142L106.177 71.0142C108.288 71.0142 110 72.6733 110 74.7199L110 89.5423C110 91.5889 108.288 93.248 106.177 93.248L86.4064 93.5711C85.9115 94.3223 77.9705 102.072 78.3333 102.02 78.1823 102.028 78.085 75.3642 78 74.7199Z" stroke="#172C51" stroke-width="2.00107" stroke-miterlimit="8" fill="none" fill-rule="evenodd"/><path d="M84 76.0152 102 76.0152" stroke="#172C51" stroke-width="2.00107" stroke-miterlimit="8" fill="none" fill-rule="evenodd"/><path d="M84 82.0164 102 82.0164" stroke="#172C51" stroke-width="2.00107" stroke-miterlimit="8" fill="none" fill-rule="evenodd"/><path d="M84 87.0174 93 87.0174" stroke="#172C51" stroke-width="2.00107" stroke-miterlimit="8" fill="none" fill-rule="evenodd"/><text font-family="Cambria Math,Cambria Math_MSFontService,sans-serif" font-weight="400" font-size="10.6745" transform="matrix(1 0 0 1.0002 95.3236 89)">𝒚</text><text font-family="Cambria Math,Cambria Math_MSFontService,sans-serif" font-weight="400" font-size="7.79239" transform="matrix(1 0 0 1.0002 101.66 91)">𝒍</text><text font-family="Calibri,Calibri_MSFontService,sans-serif" font-weight="700" font-size="10.6745" transform="matrix(1 0 0 1.0002 66.7565 86)">&gt;</text><text font-family="Yu Gothic,Yu Gothic_MSFontService,sans-serif" font-weight="700" font-size="12.0088" transform="matrix(1 0 0 1.0002 26.7622 118)">選好データ</text><path d="M117 80.0155 140.33 80.0155 140.33 82.017 117 82.017ZM138.996 77.0133 147 81.0162 138.996 85.0192Z" fill="#172C51"/><text fill="#0070C0" font-family="Yu Gothic,Yu Gothic_MSFontService,sans-serif" font-weight="700" font-size="12.0088" transform="matrix(1 0 0 1.0002 115.087 99)">最尤法</text><path d="M281 68.0136C281 66.3564 282.343 65.013 284 65.013 285.657 65.013 287 66.3564 287 68.0136 287 69.6708 285.657 71.0142 284 71.0142 282.343 71.0142 281 69.6708 281 68.0136Z" fill="#D5BFD0" fill-rule="evenodd"/><path d="M281 81.0162C281 79.359 282.343 78.0156 284 78.0156 285.657 78.0156 287 79.359 287 81.0162 287 82.6734 285.657 84.0169 284 84.0169 282.343 84.0169 281 82.6734 281 81.0162Z" fill="#D5BFD0" fill-rule="evenodd"/><path d="M281 94.0188C281 92.3616 282.343 91.0182 284 91.0182 285.657 91.0182 287 92.3616 287 94.0188 287 95.676 285.657 97.0194 284 97.0194 282.343 97.0194 281 95.676 281 94.0188Z" fill="#D5BFD0" fill-rule="evenodd"/><path d="M304 61.0122C304 59.355 305.119 58.0116 306.5 58.0116 307.881 58.0116 309 59.355 309 61.0122 309 62.6694 307.881 64.0128 306.5 64.0128 305.119 64.0128 304 62.6694 304 61.0122Z" fill="#87A3BE" fill-rule="evenodd"/><path d="M304 74.0148C304 72.3576 305.119 71.0142 306.5 71.0142 307.881 71.0142 309 72.3576 309 74.0148 309 75.672 307.881 77.0154 306.5 77.0154 305.119 77.0154 304 75.672 304 74.0148Z" fill="#87A3BE" fill-rule="evenodd"/><path d="M304 88.5177C304 87.1367 305.119 86.0172 306.5 86.0172 307.881 86.0172 309 87.1367 309 88.5177 309 89.8987 307.881 91.0182 306.5 91.0182 305.119 91.0182 304 89.8987 304 88.5177Z" fill="#87A3BE" fill-rule="evenodd"/><path d="M304 101.02C304 99.363 305.119 98.0196 306.5 98.0196 307.881 98.0196 309 99.363 309 101.02 309 102.677 307.881 104.021 306.5 104.021 305.119 104.021 304 102.677 304 101.02Z" fill="#87A3BE" fill-rule="evenodd"/><path d="M326 68.0136C326 66.3564 327.343 65.013 329 65.013 330.657 65.013 332 66.3564 332 68.0136 332 69.6708 330.657 71.0142 329 71.0142 327.343 71.0142 326 69.6708 326 68.0136Z" fill="#9CA5B5" fill-rule="evenodd"/><path d="M326.5 81.5163C326.5 79.8591 327.843 78.5157 329.5 78.5157 331.157 78.5157 332.5 79.8591 332.5 81.5163 332.5 83.1735 331.157 84.517 329.5 84.517 327.843 84.517 326.5 83.1735 326.5 81.5163Z" stroke="#172C51" stroke-width="1.33405" stroke-miterlimit="8" fill="none" fill-rule="evenodd"/><path d="M326 94.5189C326 93.1379 327.343 92.0184 329 92.0184 330.657 92.0184 332 93.1379 332 94.5189 332 95.8999 330.657 97.0194 329 97.0194 327.343 97.0194 326 95.8999 326 94.5189Z" fill="#9CA5B5" fill-rule="evenodd"/><path d="M349 80.5161C349 79.1351 350.343 78.0156 352 78.0156 353.657 78.0156 355 79.1351 355 80.5161 355 81.8971 353.657 83.0166 352 83.0166 350.343 83.0166 349 81.8971 349 80.5161Z" fill="#BA91B1" fill-rule="evenodd"/><path d="M0 0 16.7032 6.25689" stroke="#4472C4" stroke-width="0.667023" stroke-miterlimit="8" fill="none" fill-rule="evenodd" transform="matrix(1 0 0 -1.0002 287.5 68.7706)"/><path d="M0 0 18.3638 15.7299" stroke="#4472C4" stroke-width="0.667023" stroke-miterlimit="8" fill="none" fill-rule="evenodd" transform="matrix(1 0 0 -1.0002 286.5 79.2457)"/><path d="M0 0 18.6419 29.128" stroke="#4472C4" stroke-width="0.667023" stroke-miterlimit="8" fill="none" fill-rule="evenodd" transform="matrix(1 0 0 -1.0002 286.5 92.6465)"/><path d="M287.5 68.5137 304.203 74.3471" stroke="#4472C4" stroke-width="0.667023" stroke-miterlimit="8" fill="none" fill-rule="evenodd"/><path d="M286.5 70.5141 304.864 87.0151" stroke="#4472C4" stroke-width="0.667023" stroke-miterlimit="8" fill="none" fill-rule="evenodd"/><path d="M286.5 70.5141 304.864 99.6909" stroke="#4472C4" stroke-width="0.667023" stroke-miterlimit="8" fill="none" fill-rule="evenodd"/><path d="M286.5 83.5168 304.864 99.7932" stroke="#4472C4" stroke-width="0.667023" stroke-miterlimit="8" fill="none" fill-rule="evenodd"/><path d="M286.5 83.5168 303.757 89.1876" stroke="#4472C4" stroke-width="0.667023" stroke-miterlimit="8" fill="none" fill-rule="evenodd"/><path d="M0 0 16.6394 5.78923" stroke="#4472C4" stroke-width="0.667023" stroke-miterlimit="8" fill="none" fill-rule="evenodd" transform="matrix(1 0 0 -1.0002 287.5 94.3081)"/><path d="M287.5 94.519 304.481 101.405" stroke="#4472C4" stroke-width="0.667023" stroke-miterlimit="8" fill="none" fill-rule="evenodd"/><path d="M0 0 18.6419 16.4546" stroke="#4472C4" stroke-width="0.667023" stroke-miterlimit="8" fill="none" fill-rule="evenodd" transform="matrix(1 0 0 -1.0002 286.5 92.9731)"/><path d="M0 0 17.1481 5.66549" stroke="#4472C4" stroke-width="0.667023" stroke-miterlimit="8" fill="none" fill-rule="evenodd" transform="matrix(1 0 0 -1.0002 309.5 74.1803)"/><path d="M0 0 18.8087 16.3308" stroke="#4472C4" stroke-width="0.667023" stroke-miterlimit="8" fill="none" fill-rule="evenodd" transform="matrix(1 0 0 -1.0002 308.5 86.8482)"/><path d="M0 0 18.8087 29.0043" stroke="#4472C4" stroke-width="0.667023" stroke-miterlimit="8" fill="none" fill-rule="evenodd" transform="matrix(1 0 0 -1.0002 308.5 99.5242)"/><path d="M0 0 18.8087 16.1065" stroke="#4472C4" stroke-width="0.667023" stroke-miterlimit="8" fill="none" fill-rule="evenodd" transform="matrix(1 0 0 -1.0002 308.5 99.6264)"/><path d="M0 0 16.87 6.71739" stroke="#4472C4" stroke-width="0.667023" stroke-miterlimit="8" fill="none" fill-rule="evenodd" transform="matrix(1 0 0 -1.0002 309.5 101.238)"/><path d="M309.5 88.5177 326.37 94.4748" stroke="#4472C4" stroke-width="0.667023" stroke-miterlimit="8" fill="none" fill-rule="evenodd"/><path d="M308.5 76.5153 327.031 93.14" stroke="#4472C4" stroke-width="0.667023" stroke-miterlimit="8" fill="none" fill-rule="evenodd"/><path d="M308.5 63.5127 327.031 92.8132" stroke="#4472C4" stroke-width="0.667023" stroke-miterlimit="8" fill="none" fill-rule="evenodd"/><path d="M308.5 76.5153 326.478 81.7441" stroke="#4472C4" stroke-width="0.667023" stroke-miterlimit="8" fill="none" fill-rule="evenodd"/><path d="M308.5 63.5127 326.588 79.539" stroke="#4472C4" stroke-width="0.667023" stroke-miterlimit="8" fill="none" fill-rule="evenodd"/><path d="M309.5 61.5124 326.648 68.5217" stroke="#4472C4" stroke-width="0.667023" stroke-miterlimit="8" fill="none" fill-rule="evenodd"/><path d="M331.5 70.5141 349.878 79.0023" stroke="#4472C4" stroke-width="0.667023" stroke-miterlimit="8" fill="none" fill-rule="evenodd"/><path d="M0 0 16.7174 0.402315" stroke="#4472C4" stroke-width="0.667023" stroke-miterlimit="8" fill="none" fill-rule="evenodd" transform="matrix(1 0 0 -1.0002 332.5 81.9187)"/><path d="M0 0 18.656 9.79137" stroke="#4472C4" stroke-width="0.667023" stroke-miterlimit="8" fill="none" fill-rule="evenodd" transform="matrix(1 0 0 -1.0002 331.5 93.3101)"/><text font-family="Yu Gothic,Yu Gothic_MSFontService,sans-serif" font-weight="700" font-size="12.0088" transform="matrix(1 0 0 1.0002 221.215 115)">サンプル完成</text><text font-family="Yu Gothic,Yu Gothic_MSFontService,sans-serif" font-weight="700" font-size="12.0088" transform="matrix(1 0 0 1.0002 222.201 58)">ラベル報酬</text><text fill="#FF0000" font-family="Yu Gothic,Yu Gothic_MSFontService,sans-serif" font-weight="700" font-size="12.0088" transform="matrix(1 0 0 1.0002 228.657 130)">強化学習</text><path d="M234.369 69.2371 239.121 65.3791 243.734 62.7497 248.201 61.3222 252.538 61.035 256.735 61.8026 260.815 63.516 263.234 65.1836 262.099 66.8316 259.764 65.2226 259.945 65.3213 256.061 63.6901 256.268 63.7518 252.3 63.0262 252.546 63.0403 248.456 63.3112 248.694 63.2659 244.442 64.6243 244.633 64.5405 240.183 67.0773 240.318 66.9848 235.631 70.791ZM264.003 62.0056 268 70.014 259.196 68.4072Z" fill="#172C51"/><path d="M267.631 90.795 262.879 94.653 258.266 97.2824 253.799 98.7099 249.462 98.997 245.265 98.2295 241.185 96.5161 238.766 94.8484 239.901 93.2004 242.235 94.8094 242.055 94.7107 245.939 96.3419 245.731 96.2802 249.7 97.0059 249.454 96.9917 253.544 96.7208 253.306 96.7661 257.557 95.4077 257.367 95.4916 261.817 92.9548 261.682 93.0473 266.369 89.2411ZM237.997 98.0265 234 90.018 242.804 91.6249Z" fill="#172C51"/><rect x="157" y="65.013" width="56" height="38.0076" fill="#F3E5E5" fill-opacity="0.501961"/><text font-family="Yu Gothic,Yu Gothic_MSFontService,sans-serif" font-weight="700" font-size="12.0088" transform="matrix(1 0 0 1.0002 173.166 80)">報酬</text><text font-family="Yu Gothic,Yu Gothic_MSFontService,sans-serif" font-weight="700" font-size="12.0088" transform="matrix(1 0 0 1.0002 167.163 94)">モデル</text><rect x="272" y="65.013" width="80" height="39.0079" fill="#F3E5E5" fill-opacity="0.501961"/><text font-family="Yu Gothic,Yu Gothic_MSFontService,sans-serif" font-weight="700" font-size="12.0088" transform="matrix(1 0 0 1.0002 281.603 81)">言語モデル</text><text font-family="Yu Gothic,Yu Gothic_MSFontService,sans-serif" font-weight="700" font-size="12.0088" transform="matrix(1 0 0 1.0002 287.606 95)">ポリシー</text><path d="M25.5 81.0162 34.5 81.0162 35 81.5163 35 84.0169 35 84.0169 25 84.0169 25 84.0169 25 81.5163Z" stroke="#172C51" stroke-width="2.00107" stroke-miterlimit="8" fill="#D5D5A4" fill-rule="evenodd"/><path d="M29.0938 79.0158 29.0938 76.7583C26.5631 74.2332 23.7706 74.0158 24.015 63.0126L37 63.1129C36.7906 73.4975 36.2146 73.2968 31.9736 76.8085L31.9736 78.8653 29.0938 79.0158Z" fill="#DDC425" fill-rule="evenodd"/><path d="M36.1165 67.8636 36.2136 66.0132 40 66.0632C39.9676 72.6979 36.9256 72.8313 35 73.0147L36.1165 70.7142C37.767 71.1643 38.3495 68.7638 38.4466 67.7135L36.1165 67.8636Z" fill="#DDC121" fill-rule="evenodd"/><path d="M1.33982 2.11428 1.45632 0 6.00006 0.0571426C5.96122 7.63807 2.3107 7.79044 0 7.99997L1.33982 5.37141C3.32042 5.88569 4.01945 3.14285 4.13596 1.94285L1.33982 2.11428Z" fill="#DDC121" fill-rule="evenodd" transform="matrix(-1 0 0 1.0002 26 66.0132)"/><path d="M30 77.0154 29.8217 63.1175 26.0341 63.0126C25.5737 74.9176 29.9257 75.442 30 77.0154Z" fill="#D8A01D" fill-rule="evenodd"/><path d="M28.0001 67.9234 29.9099 67.9234 30.5 66.0132 31.0902 67.9234 33 67.9234 31.4549 69.104 32.0451 71.0142 30.5 69.8336 28.955 71.0142 29.5451 69.104Z" fill="#FFFFFF" fill-rule="evenodd"/><path d="M33.3824 65.2225 34.0633 65.6011 34.6923 65.1324 34.3091 65.8169 34.7727 66.4432 34.0917 66.0646 33.4627 66.5333 33.846 65.8488Z" fill="#FFFFFF" fill-rule="evenodd"/><path d="M34.1569 68.534 34.6068 68.7842 35.0224 68.4745 34.7692 68.9268 35.0756 69.3406 34.6256 69.0904 34.21 69.4001 34.4632 68.9478Z" fill="#FFFFFF" fill-rule="evenodd"/><path d="M32.8273 70.5799 33.2772 70.8301 33.6928 70.5204 33.4396 70.9727 33.7459 71.3865 33.296 71.1363 32.8804 71.446 33.1336 70.9937Z" fill="#FFFFFF" fill-rule="evenodd"/><path d="M27 79.0158 33 79.0158 34 80.016 34 81.0162 34 81.0162 26 81.0162 26 81.0162 26 80.016Z" fill="#D9A01D" fill-rule="evenodd"/><path d="M390 78.7207C390 76.6741 391.658 75.015 393.704 75.015L417.296 75.015C419.342 75.015 421 76.6741 421 78.7207L421 93.5431C421 95.5897 419.342 97.2488 417.296 97.2488L398.144 97.5719C397.664 98.3231 389.971 106.073 390.323 106.021 390.177 106.029 390.082 79.3649 390 78.7207Z" stroke="#172C51" stroke-width="2.00107" stroke-miterlimit="8" fill="none" fill-rule="evenodd"/><path d="M395 80.016 413 80.016" stroke="#172C51" stroke-width="2.00107" stroke-miterlimit="8" fill="none" fill-rule="evenodd"/><path d="M395 86.0172 413 86.0172" stroke="#172C51" stroke-width="2.00107" stroke-miterlimit="8" fill="none" fill-rule="evenodd"/><path d="M395 91.0182 405 91.0182" stroke="#172C51" stroke-width="2.00107" stroke-miterlimit="8" fill="none" fill-rule="evenodd"/><text font-family="Cambria Math,Cambria Math_MSFontService,sans-serif" font-weight="400" font-size="10.6745" transform="matrix(1 0 0 1.0002 407.106 93)">𝒚</text><text font-family="Cambria Math,Cambria Math_MSFontService,sans-serif" font-weight="400" font-size="7.79239" transform="matrix(1 0 0 1.0002 413.443 96)">𝒘</text><path d="M515 72.0144C515 70.3572 516.343 69.0138 518 69.0138 519.657 69.0138 521 70.3572 521 72.0144 521 73.6716 519.657 75.015 518 75.015 516.343 75.015 515 73.6716 515 72.0144Z" fill="#D5BFD0" fill-rule="evenodd"/><path d="M515 84.5169C515 83.1359 516.343 82.0164 518 82.0164 519.657 82.0164 521 83.1359 521 84.5169 521 85.8979 519.657 87.0174 518 87.0174 516.343 87.0174 515 85.8979 515 84.5169Z" fill="#D5BFD0" fill-rule="evenodd"/><path d="M515 98.0196C515 96.3625 516.119 95.0191 517.5 95.0191 518.881 95.0191 520 96.3625 520 98.0196 520 99.6768 518.881 101.02 517.5 101.02 516.119 101.02 515 99.6768 515 98.0196Z" fill="#D5BFD0" fill-rule="evenodd"/><path d="M537 65.013C537 63.3559 538.343 62.0125 540 62.0125 541.657 62.0125 543 63.3559 543 65.013 543 66.6702 541.657 68.0136 540 68.0136 538.343 68.0136 537 66.6702 537 65.013Z" fill="#87A3BE" fill-rule="evenodd"/><path d="M537 77.5155C537 76.1345 538.343 75.015 540 75.015 541.657 75.015 543 76.1345 543 77.5155 543 78.8965 541.657 80.016 540 80.016 538.343 80.016 537 78.8965 537 77.5155Z" fill="#87A3BE" fill-rule="evenodd"/><path d="M537 92.0184C537 90.3612 538.343 89.0178 540 89.0178 541.657 89.0178 543 90.3612 543 92.0184 543 93.6756 541.657 95.0191 540 95.0191 538.343 95.0191 537 93.6756 537 92.0184Z" fill="#87A3BE" fill-rule="evenodd"/><path d="M537 105.021C537 103.364 538.343 102.02 540 102.02 541.657 102.02 543 103.364 543 105.021 543 106.678 541.657 108.022 540 108.022 538.343 108.022 537 106.678 537 105.021Z" fill="#87A3BE" fill-rule="evenodd"/><path d="M560 72.0144C560 70.3572 561.343 69.0138 563 69.0138 564.657 69.0138 566 70.3572 566 72.0144 566 73.6716 564.657 75.015 563 75.015 561.343 75.015 560 73.6716 560 72.0144Z" fill="#9CA5B5" fill-rule="evenodd"/><path d="M560.5 85.5171C560.5 83.8599 561.843 82.5165 563.5 82.5165 565.157 82.5165 566.5 83.8599 566.5 85.5171 566.5 87.1743 565.157 88.5177 563.5 88.5177 561.843 88.5177 560.5 87.1743 560.5 85.5171Z" stroke="#172C51" stroke-width="1.33405" stroke-miterlimit="8" fill="none" fill-rule="evenodd"/><path d="M560 98.0196C560 96.3625 561.343 95.0191 563 95.0191 564.657 95.0191 566 96.3625 566 98.0196 566 99.6768 564.657 101.02 563 101.02 561.343 101.02 560 99.6768 560 98.0196Z" fill="#9CA5B5" fill-rule="evenodd"/><path d="M583 84.5169C583 83.1359 584.119 82.0164 585.5 82.0164 586.881 82.0164 588 83.1359 588 84.5169 588 85.8979 586.881 87.0174 585.5 87.0174 584.119 87.0174 583 85.8979 583 84.5169Z" fill="#BA91B1" fill-rule="evenodd"/><path d="M0 0 16.7032 6.25689" stroke="#4472C4" stroke-width="0.667023" stroke-miterlimit="8" fill="none" fill-rule="evenodd" transform="matrix(1 0 0 -1.0002 521.5 71.7712)"/><path d="M0 0 18.3638 15.7299" stroke="#4472C4" stroke-width="0.667023" stroke-miterlimit="8" fill="none" fill-rule="evenodd" transform="matrix(1 0 0 -1.0002 520.5 83.2465)"/><path d="M0 0 18.6419 29.128" stroke="#4472C4" stroke-width="0.667023" stroke-miterlimit="8" fill="none" fill-rule="evenodd" transform="matrix(1 0 0 -1.0002 520.5 96.6473)"/><path d="M521.5 72.5146 538.203 78.3479" stroke="#4472C4" stroke-width="0.667023" stroke-miterlimit="8" fill="none" fill-rule="evenodd"/><path d="M520.5 74.5149 538.864 91.0158" stroke="#4472C4" stroke-width="0.667023" stroke-miterlimit="8" fill="none" fill-rule="evenodd"/><path d="M520.5 74.5149 538.864 103.692" stroke="#4472C4" stroke-width="0.667023" stroke-miterlimit="8" fill="none" fill-rule="evenodd"/><path d="M520.5 87.5175 538.864 103.794" stroke="#4472C4" stroke-width="0.667023" stroke-miterlimit="8" fill="none" fill-rule="evenodd"/><path d="M520.5 87.5175 537.757 93.1883" stroke="#4472C4" stroke-width="0.667023" stroke-miterlimit="8" fill="none" fill-rule="evenodd"/><path d="M0 0 16.6394 5.78923" stroke="#4472C4" stroke-width="0.667023" stroke-miterlimit="8" fill="none" fill-rule="evenodd" transform="matrix(1 0 0 -1.0002 520.5 98.3089)"/><path d="M520.5 98.5197 537.481 105.405" stroke="#4472C4" stroke-width="0.667023" stroke-miterlimit="8" fill="none" fill-rule="evenodd"/><path d="M0 0 18.6419 16.4546" stroke="#4472C4" stroke-width="0.667023" stroke-miterlimit="8" fill="none" fill-rule="evenodd" transform="matrix(1 0 0 -1.0002 520.5 96.974)"/><path d="M0 0 17.1481 5.66549" stroke="#4472C4" stroke-width="0.667023" stroke-miterlimit="8" fill="none" fill-rule="evenodd" transform="matrix(1 0 0 -1.0002 543.5 78.1812)"/><path d="M0 0 18.8087 16.3308" stroke="#4472C4" stroke-width="0.667023" stroke-miterlimit="8" fill="none" fill-rule="evenodd" transform="matrix(1 0 0 -1.0002 542.5 90.849)"/><path d="M0 0 18.8087 29.0043" stroke="#4472C4" stroke-width="0.667023" stroke-miterlimit="8" fill="none" fill-rule="evenodd" transform="matrix(1 0 0 -1.0002 542.5 103.525)"/><path d="M0 0 18.8087 16.1065" stroke="#4472C4" stroke-width="0.667023" stroke-miterlimit="8" fill="none" fill-rule="evenodd" transform="matrix(1 0 0 -1.0002 542.5 103.627)"/><path d="M0 0 16.87 6.71739" stroke="#4472C4" stroke-width="0.667023" stroke-miterlimit="8" fill="none" fill-rule="evenodd" transform="matrix(1 0 0 -1.0002 543.5 105.238)"/><path d="M543.5 92.5185 560.37 98.4757" stroke="#4472C4" stroke-width="0.667023" stroke-miterlimit="8" fill="none" fill-rule="evenodd"/><path d="M542.5 80.5161 561.031 97.1408" stroke="#4472C4" stroke-width="0.667023" stroke-miterlimit="8" fill="none" fill-rule="evenodd"/><path d="M542.5 67.5135 561.031 96.8141" stroke="#4472C4" stroke-width="0.667023" stroke-miterlimit="8" fill="none" fill-rule="evenodd"/><path d="M542.5 80.5161 560.478 85.7449" stroke="#4472C4" stroke-width="0.667023" stroke-miterlimit="8" fill="none" fill-rule="evenodd"/><path d="M542.5 67.5135 560.588 83.5399" stroke="#4472C4" stroke-width="0.667023" stroke-miterlimit="8" fill="none" fill-rule="evenodd"/><path d="M543.5 65.5131 560.648 72.5224" stroke="#4472C4" stroke-width="0.667023" stroke-miterlimit="8" fill="none" fill-rule="evenodd"/><path d="M565.5 74.5149 583.878 83.003" stroke="#4472C4" stroke-width="0.667023" stroke-miterlimit="8" fill="none" fill-rule="evenodd"/><path d="M0 0 16.7174 0.402315" stroke="#4472C4" stroke-width="0.667023" stroke-miterlimit="8" fill="none" fill-rule="evenodd" transform="matrix(1 0 0 -1.0002 566.5 84.9194)"/><path d="M0 0 18.656 9.79137" stroke="#4472C4" stroke-width="0.667023" stroke-miterlimit="8" fill="none" fill-rule="evenodd" transform="matrix(1 0 0 -1.0002 565.5 96.3106)"/><text font-family="Calibri,Calibri_MSFontService,sans-serif" font-weight="700" font-size="10.6745" transform="matrix(1 0 0 1.0002 387.389 49)">x:</text><text font-family="Yu Gothic,Yu Gothic_MSFontService,sans-serif" font-weight="700" font-size="10.6745" transform="matrix(1 0 0 1.0002 397.561 49)">『</text><text font-family="Yu Gothic,Yu Gothic_MSFontService,sans-serif" font-weight="700" font-size="10.6745" transform="matrix(1 0 0 1.0002 408.234 49)">ジャズの歴史に関する</text><text font-family="Yu Gothic,Yu Gothic_MSFontService,sans-serif" font-weight="700" font-size="10.6745" transform="matrix(1 0 0 1.0002 408.734 62)">詩を書いて</text><text font-family="Yu Gothic,Yu Gothic_MSFontService,sans-serif" font-weight="700" font-size="10.6745" transform="matrix(1 0 0 1.0002 462.096 62)">』</text><path d="M438 78.7207C438 76.6741 439.712 75.015 441.823 75.015L466.177 75.015C468.288 75.015 470 76.6741 470 78.7207L470 93.5431C470 95.5897 468.288 97.2488 466.177 97.2488L446.406 97.5719C445.912 98.3231 437.97 106.073 438.333 106.021 438.182 106.029 438.085 79.3649 438 78.7207Z" stroke="#172C51" stroke-width="2.00107" stroke-miterlimit="8" fill="none" fill-rule="evenodd"/><path d="M444 80.016 462 80.016" stroke="#172C51" stroke-width="2.00107" stroke-miterlimit="8" fill="none" fill-rule="evenodd"/><path d="M444 86.0172 462 86.0172" stroke="#172C51" stroke-width="2.00107" stroke-miterlimit="8" fill="none" fill-rule="evenodd"/><path d="M444 91.0182 453 91.0182" stroke="#172C51" stroke-width="2.00107" stroke-miterlimit="8" fill="none" fill-rule="evenodd"/><text font-family="Cambria Math,Cambria Math_MSFontService,sans-serif" font-weight="400" font-size="10.6745" transform="matrix(1 0 0 1.0002 455.417 93)">𝒚</text><text font-family="Cambria Math,Cambria Math_MSFontService,sans-serif" font-weight="400" font-size="7.79239" transform="matrix(1 0 0 1.0002 461.754 95)">𝒍</text><text font-family="Calibri,Calibri_MSFontService,sans-serif" font-weight="700" font-size="10.6745" transform="matrix(1 0 0 1.0002 426.85 90)">&gt;</text><text font-family="Yu Gothic,Yu Gothic_MSFontService,sans-serif" font-weight="700" font-size="12.0088" transform="matrix(1 0 0 1.0002 386.856 122)">選好データ</text><path d="M477 85.0164 500.33 85.0164 500.33 87.0179 477 87.0179ZM498.996 82.0142 507 86.0172 498.996 90.0201Z" fill="#172C51"/><text fill="#0070C0" font-family="Yu Gothic,Yu Gothic_MSFontService,sans-serif" font-weight="700" font-size="12.0088" transform="matrix(1 0 0 1.0002 475.714 104)">最尤法</text><rect x="506" y="69.0138" width="80" height="39.0077" fill="#E2F2F2" fill-opacity="0.501961"/><text font-family="Yu Gothic,Yu Gothic_MSFontService,sans-serif" font-weight="700" font-size="12.0088" transform="matrix(1 0 0 1.0002 534.431 85)">最終</text><text font-family="Yu Gothic,Yu Gothic_MSFontService,sans-serif" font-weight="700" font-size="12.0088" transform="matrix(1 0 0 1.0002 516.422 99)">言語</text><text font-family="Yu Gothic,Yu Gothic_MSFontService,sans-serif" font-weight="700" font-size="12.0088" transform="matrix(1 0 0 1.0002 540.435 99)">モデル</text><path d="M385.5 85.0171 394.5 85.0171 395 85.5172 395 88.0176 395 88.0176 385 88.0176 385 88.0176 385 85.5172Z" stroke="#172C51" stroke-width="2.00107" stroke-miterlimit="8" fill="#D5D5A4" fill-rule="evenodd"/><path d="M389.094 83.0166 389.094 80.7591C386.563 78.2341 383.771 78.0167 384.015 67.0134L397 67.1137C396.791 77.4983 396.215 77.2976 391.974 80.8093L391.974 82.8661 389.094 83.0166Z" fill="#DDC425" fill-rule="evenodd"/><path d="M396.116 72.8646 396.214 71.0142 400 71.0642C399.968 77.6989 396.926 77.8322 395 78.0156L396.116 75.7151C397.767 76.1652 398.35 73.7648 398.447 72.7146L396.116 72.8646Z" fill="#DDC121" fill-rule="evenodd"/><path d="M1.11652 1.84999 1.2136 0 5.00005 0.0499997C4.96768 6.6833 1.92559 6.81662 0 6.99996L1.11652 4.69997C2.76702 5.14997 3.34955 2.74998 3.44663 1.69999L1.11652 1.84999Z" fill="#DDC121" fill-rule="evenodd" transform="matrix(-1 0 0 1.0002 386 71.0142)"/><path d="M390 81.0162 389.822 67.1183 386.034 67.0134C385.574 78.9184 389.926 79.4429 390 81.0162Z" fill="#D8A01D" fill-rule="evenodd"/><path d="M388 72.5424 389.91 72.5424 390.5 71.0142 391.09 72.5424 393 72.5424 391.455 73.4868 392.045 75.015 390.5 74.0705 388.955 75.015 389.545 73.4868Z" fill="#FFFFFF" fill-rule="evenodd"/><path d="M393.476 69.4065 394.157 69.7852 394.786 69.3165 394.402 70.001 394.866 70.6273 394.185 70.2486 393.556 70.7174 393.939 70.0328Z" fill="#FFFFFF" fill-rule="evenodd"/><path d="M394.25 72.718 394.7 72.9682 395.116 72.6585 394.863 73.1108 395.169 73.5247 394.719 73.2745 394.303 73.5842 394.557 73.1319Z" fill="#FFFFFF" fill-rule="evenodd"/><path d="M392.921 74.764 393.371 75.0142 393.786 74.7045 393.533 75.1567 393.839 75.5706 393.389 75.3204 392.974 75.6301 393.227 75.1778Z" fill="#FFFFFF" fill-rule="evenodd"/><path d="M387 83.0166 393 83.0166 394 84.0169 394 85.0171 394 85.0171 386 85.0171 386 85.0171 386 84.0169Z" fill="#D9A01D" fill-rule="evenodd"/><path d="M491.09 164.311C489.403 155.113 498.091 146.641 510.495 145.39 515.521 144.883 520.631 145.641 525.008 147.543 529.646 141.06 540.483 138.596 549.213 142.039 550.74 142.641 552.141 143.405 553.373 144.305 556.985 138.931 565.783 136.748 573.023 139.429 575.027 140.171 576.776 141.244 578.134 142.565 583.955 137.483 594.243 136.856 601.111 141.163 603.997 142.974 605.943 145.471 606.614 148.227 616.153 150.157 621.78 157.468 619.182 164.557 618.964 165.153 618.69 165.737 618.363 166.305 626.013 173.691 624.14 184.278 614.18 189.951 611.079 191.717 607.417 192.861 603.547 193.271 603.461 201.218 594.698 207.608 583.975 207.545 580.392 207.523 576.887 206.768 573.848 205.362 570.221 214.271 557.569 219.307 545.59 216.609 540.569 215.479 536.232 213.088 533.316 209.845 521.051 215.332 505.131 212.38 497.758 203.252 497.665 203.137 497.574 203.021 497.484 202.905 489.457 203.602 482.186 199.353 481.244 193.416 480.742 190.251 482.15 187.084 485.094 184.757 478.144 181.722 475.809 175.061 479.879 169.879 482.227 166.889 486.346 164.913 490.968 164.557Z" stroke="#BFBFBF" stroke-width="2.00107" stroke-miterlimit="8" fill="none" fill-rule="evenodd"/><path d="M480.381 140.142C480.381 141.354 479.399 142.337 478.187 142.337 476.975 142.337 475.992 141.354 475.992 140.142 475.992 138.93 476.975 137.947 478.187 137.947 479.399 137.947 480.381 138.93 480.381 140.142Z" stroke="#BFBFBF" stroke-width="2.00107" stroke-miterlimit="8" fill="none" fill-rule="evenodd"/><path d="M487.85 142.87C487.85 145.294 485.885 147.259 483.462 147.259 481.038 147.259 479.073 145.294 479.073 142.87 479.073 140.445 481.038 138.48 483.462 138.48 485.885 138.48 487.85 140.445 487.85 142.87Z" stroke="#BFBFBF" stroke-width="2.00107" stroke-miterlimit="8" fill="none" fill-rule="evenodd"/><path d="M499.218 147.613C499.218 151.25 496.271 154.198 492.635 154.198 488.999 154.198 486.051 151.25 486.051 147.613 486.051 143.977 488.999 141.028 492.635 141.028 496.271 141.028 499.218 143.977 499.218 147.613Z" stroke="#BFBFBF" stroke-width="2.00107" stroke-miterlimit="8" fill="none" fill-rule="evenodd"/><path d="M493.752 185.907C490.785 186.079 487.818 185.571 485.25 184.449M501.254 201.86C500.06 202.213 498.81 202.447 497.534 202.558M533.308 209.526C532.411 208.528 531.659 207.461 531.067 206.343M574.757 201.59C574.625 202.774 574.325 203.944 573.862 205.082M592.553 180.012C599.281 182.441 603.527 187.518 603.467 193.064M618.294 166.111C617.205 168 615.541 169.675 613.435 171.005M606.634 147.952C606.819 148.715 606.905 149.489 606.89 150.263M575.6 145.256C576.233 144.19 577.071 143.197 578.089 142.308M552.316 146.661C552.574 145.78 552.979 144.926 553.522 144.119M524.991 147.524C526.574 148.212 528.039 149.04 529.354 149.99M491.852 166.907C491.507 166.058 491.252 165.19 491.091 164.312" stroke="#BFBFBF" stroke-width="2.00107" stroke-miterlimit="8" fill="none" fill-rule="evenodd"/><text font-family="Yu Gothic,Yu Gothic_MSFontService,sans-serif" font-weight="700" font-size="14.6774" transform="matrix(1 0 0 1.0002 508.337 172)">強化学習を</text><text font-family="Yu Gothic,Yu Gothic_MSFontService,sans-serif" font-weight="700" font-size="14.6774" transform="matrix(1 0 0 1.0002 486.332 189)">しなくて良かった</text><path d="M328.09 165.979C326.403 156.897 335.091 148.533 347.495 147.297 352.521 146.797 357.631 147.545 362.008 149.423 366.646 143.022 377.483 140.589 386.213 143.989 387.74 144.583 389.141 145.337 390.373 146.226 393.985 140.92 402.783 138.765 410.023 141.411 412.027 142.144 413.776 143.203 415.134 144.508 420.955 139.491 431.243 138.871 438.111 143.124 440.997 144.911 442.943 147.377 443.614 150.098 453.153 152.004 458.78 159.222 456.182 166.222 455.964 166.81 455.69 167.387 455.363 167.947 463.013 175.24 461.14 185.693 451.18 191.294 448.079 193.038 444.417 194.167 440.547 194.572 440.461 202.418 431.698 208.728 420.975 208.665 417.392 208.644 413.887 207.898 410.848 206.51 407.221 215.306 394.569 220.278 382.59 217.615 377.569 216.499 373.232 214.138 370.316 210.936 358.051 216.353 342.131 213.439 334.758 204.427 334.665 204.313 334.574 204.199 334.484 204.084 326.457 204.772 319.186 200.577 318.244 194.715 317.742 191.591 319.15 188.463 322.094 186.166 315.144 183.17 312.809 176.593 316.879 171.476 319.227 168.524 323.346 166.573 327.968 166.222Z" stroke="#BFBFBF" stroke-width="2.00107" stroke-miterlimit="8" fill="none" fill-rule="evenodd"/><path d="M426.645 130.633C426.645 131.829 425.675 132.8 424.478 132.8 423.281 132.8 422.311 131.829 422.311 130.633 422.311 129.436 423.281 128.466 424.478 128.466 425.675 128.466 426.645 129.436 426.645 130.633Z" stroke="#BFBFBF" stroke-width="2.00107" stroke-miterlimit="8" fill="none" fill-rule="evenodd"/><path d="M426.55 133.593C426.55 135.987 424.61 137.927 422.216 137.927 419.823 137.927 417.883 135.987 417.883 133.593 417.883 131.199 419.823 129.259 422.216 129.259 424.61 129.259 426.55 131.199 426.55 133.593Z" stroke="#BFBFBF" stroke-width="2.00107" stroke-miterlimit="8" fill="none" fill-rule="evenodd"/><path d="M423.824 139.997C423.824 143.587 420.914 146.498 417.324 146.498 413.734 146.498 410.824 143.587 410.824 139.997 410.824 136.406 413.734 133.496 417.324 133.496 420.914 133.496 423.824 136.406 423.824 139.997Z" stroke="#BFBFBF" stroke-width="2.00107" stroke-miterlimit="8" fill="none" fill-rule="evenodd"/><path d="M330.752 187.302C327.785 187.472 324.818 186.969 322.25 185.862M338.254 203.053C337.06 203.401 335.81 203.632 334.534 203.742M370.308 210.621C369.411 209.636 368.659 208.582 368.067 207.479M411.757 202.785C411.625 203.955 411.325 205.111 410.862 206.233M429.553 181.481C436.281 183.879 440.527 188.892 440.467 194.367M455.294 167.756C454.205 169.621 452.541 171.274 450.435 172.588M443.634 149.827C443.819 150.58 443.905 151.344 443.89 152.109M412.6 147.165C413.233 146.112 414.071 145.132 415.089 144.255M389.316 148.552C389.574 147.682 389.979 146.839 390.522 146.042M361.991 149.404C363.574 150.084 365.039 150.901 366.354 151.839M328.852 168.542C328.507 167.704 328.252 166.847 328.091 165.98" stroke="#BFBFBF" stroke-width="2.00107" stroke-miterlimit="8" fill="none" fill-rule="evenodd"/><text font-family="Yu Gothic,Yu Gothic_MSFontService,sans-serif" font-weight="700" font-size="14.6774" transform="matrix(1 0 0 1.0002 338.207 174)">言語モデルは</text><text font-family="Yu Gothic,Yu Gothic_MSFontService,sans-serif" font-weight="700" font-size="14.6774" transform="matrix(1 0 0 1.0002 330.87 191)">実は報酬モデル</text><path d="M450.5 171.534 468.5 171.534 468.5 164.533 482.5 178.536 468.5 192.539 468.5 185.537 450.5 185.537Z" stroke="#172C51" stroke-width="1.33405" stroke-miterlimit="8" fill="#FFFFFF" fill-rule="evenodd"/></g></svg>