<svg width="503" height="331" xmlns="http://www.w3.org/2000/svg" xmlns:xlink="http://www.w3.org/1999/xlink" overflow="hidden"><defs><clipPath id="clip0"><rect x="0" y="0" width="503" height="331"/></clipPath></defs><g clip-path="url(#clip0)"><rect x="0" y="0" width="503" height="331.114" fill="#FFFFFF"/><path d="M4.00003 192.956C4.00003 184.73 10.6661 178.061 18.8891 178.061L310.111 178.061C318.334 178.061 325 184.73 325 192.956L325 309.217C325 317.443 318.334 324.112 310.111 324.112L18.8891 324.112C10.6661 324.112 4.00003 317.443 4.00003 309.217Z" fill="#E2F2F3" fill-rule="evenodd"/><path d="M8.99998 22.402C8.99998 13.3446 16.34 6.00205 25.3943 6.00205L476.606 6.00205C485.66 6.00205 493 13.3446 493 22.402L493 144.656C493 153.713 485.66 161.056 476.606 161.056L25.3943 161.056C16.34 161.056 8.99998 153.713 8.99998 144.656Z" fill="#F3E4E6" fill-rule="evenodd"/><text font-family="Calibri,Calibri_MSFontService,sans-serif" font-weight="700" font-size="14.6815" transform="matrix(1 0 0 1.00034 23.7868 28)">Reinforcement Learning from Human Feedback (RLHF)</text><text font-family="Calibri,Calibri_MSFontService,sans-serif" font-weight="700" font-size="10.6774" transform="matrix(1 0 0 1.00034 32.2369 45)">x: "</text><text font-family="Yu Gothic,Yu Gothic_MSFontService,sans-serif" font-weight="700" font-size="10.6774" transform="matrix(1 0 0 1.00034 47.0801 45)">ジャズの歴史に</text><text font-family="Yu Gothic,Yu Gothic_MSFontService,sans-serif" font-weight="700" font-size="10.6774" transform="matrix(1 0 0 1.00034 47.5804 58)">関する詩を書いて</text><text font-family="Calibri,Calibri_MSFontService,sans-serif" font-weight="700" font-size="10.6774" transform="matrix(1 0 0 1.00034 132.97 58)">"</text><path d="M221 71.5247C221 69.591 222.791 68.0235 225 68.0235 227.209 68.0235 229 69.591 229 71.5247 229 73.4583 227.209 75.0259 225 75.0259 222.791 75.0259 221 73.4583 221 71.5247Z" fill="#D5BFD0" fill-rule="evenodd"/><path d="M221 88.0303C221 85.8204 222.791 84.029 225 84.029 227.209 84.029 229 85.8204 229 88.0303 229 90.2402 227.209 92.0317 225 92.0317 222.791 92.0317 221 90.2402 221 88.0303Z" fill="#D5BFD0" fill-rule="evenodd"/><path d="M221 105.536C221 103.603 222.567 102.035 224.5 102.035 226.433 102.035 228 103.603 228 105.536 228 107.47 226.433 109.038 224.5 109.038 222.567 109.038 221 107.47 221 105.536Z" fill="#D5BFD0" fill-rule="evenodd"/><path d="M250 62.5215C250 60.5879 251.791 59.0204 254 59.0204 256.209 59.0204 258 60.5879 258 62.5215 258 64.4552 256.209 66.0227 254 66.0227 251.791 66.0227 250 64.4552 250 62.5215Z" fill="#87A3BE" fill-rule="evenodd"/><path d="M250 79.0272C250 76.8174 251.791 75.0259 254 75.0259 256.209 75.0259 258 76.8174 258 79.0272 258 81.2371 256.209 83.0286 254 83.0286 251.791 83.0286 250 81.2371 250 79.0272Z" fill="#87A3BE" fill-rule="evenodd"/><path d="M250 98.0338C250 95.8239 251.791 94.0324 254 94.0324 256.209 94.0324 258 95.8239 258 98.0338 258 100.244 256.209 102.035 254 102.035 251.791 102.035 250 100.244 250 98.0338Z" fill="#87A3BE" fill-rule="evenodd"/><path d="M250 114.539C250 112.606 251.791 111.038 254 111.038 256.209 111.038 258 112.606 258 114.539 258 116.473 256.209 118.041 254 118.041 251.791 118.041 250 116.473 250 114.539Z" fill="#87A3BE" fill-rule="evenodd"/><path d="M280 71.5247C280 69.591 281.567 68.0235 283.5 68.0235 285.433 68.0235 287 69.591 287 71.5247 287 73.4583 285.433 75.0259 283.5 75.0259 281.567 75.0259 280 73.4583 280 71.5247Z" fill="#9CA5B5" fill-rule="evenodd"/><path d="M280.5 89.0307C280.5 87.097 282.067 85.5295 284 85.5295 285.933 85.5295 287.5 87.097 287.5 89.0307 287.5 90.9644 285.933 92.5319 284 92.5319 282.067 92.5319 280.5 90.9644 280.5 89.0307Z" stroke="#172C51" stroke-width="1.33422" stroke-miterlimit="8" fill="none" fill-rule="evenodd"/><path d="M280 105.536C280 103.603 281.567 102.035 283.5 102.035 285.433 102.035 287 103.603 287 105.536 287 107.47 285.433 109.038 283.5 109.038 281.567 109.038 280 107.47 280 105.536Z" fill="#9CA5B5" fill-rule="evenodd"/><path d="M309 87.5302C309 85.5965 310.791 84.029 313 84.029 315.209 84.029 317 85.5965 317 87.5302 317 89.4639 315.209 91.0314 313 91.0314 310.791 91.0314 309 89.4639 309 87.5302Z" fill="#BA91B1" fill-rule="evenodd"/><path d="M0 0 21.7534 8.14871" stroke="#4472C4" stroke-width="0.667109" stroke-miterlimit="8" fill="none" fill-rule="evenodd" transform="matrix(1 0 0 -1.00034 229.5 71.6734)"/><path d="M0 0 23.9161 20.4858" stroke="#4472C4" stroke-width="0.667109" stroke-miterlimit="8" fill="none" fill-rule="evenodd" transform="matrix(1 0 0 -1.00034 228.5 86.0154)"/><path d="M0 0 24.2782 37.9347" stroke="#4472C4" stroke-width="0.667109" stroke-miterlimit="8" fill="none" fill-rule="evenodd" transform="matrix(1 0 0 -1.00034 227.5 103.47)"/><path d="M229.5 71.5246 251.253 79.1228" stroke="#4472C4" stroke-width="0.667109" stroke-miterlimit="8" fill="none" fill-rule="evenodd"/><path d="M228.5 74.5257 252.416 96.0187" stroke="#4472C4" stroke-width="0.667109" stroke-miterlimit="8" fill="none" fill-rule="evenodd"/><path d="M228.5 74.5257 252.416 112.53" stroke="#4472C4" stroke-width="0.667109" stroke-miterlimit="8" fill="none" fill-rule="evenodd"/><path d="M228.5 91.5315 252.416 112.732" stroke="#4472C4" stroke-width="0.667109" stroke-miterlimit="8" fill="none" fill-rule="evenodd"/><path d="M228.5 91.5315 250.975 98.918" stroke="#4472C4" stroke-width="0.667109" stroke-miterlimit="8" fill="none" fill-rule="evenodd"/><path d="M0 0 21.6703 7.53959" stroke="#4472C4" stroke-width="0.667109" stroke-miterlimit="8" fill="none" fill-rule="evenodd" transform="matrix(1 0 0 -1.00034 228.5 106.076)"/><path d="M228.5 106.537 250.615 115.505" stroke="#4472C4" stroke-width="0.667109" stroke-miterlimit="8" fill="none" fill-rule="evenodd"/><path d="M0 0 24.2782 21.4296" stroke="#4472C4" stroke-width="0.667109" stroke-miterlimit="8" fill="none" fill-rule="evenodd" transform="matrix(1 0 0 -1.00034 227.5 103.965)"/><path d="M0 0 22.3327 7.37843" stroke="#4472C4" stroke-width="0.667109" stroke-miterlimit="8" fill="none" fill-rule="evenodd" transform="matrix(1 0 0 -1.00034 258.5 79.906)"/><path d="M0 0 24.4954 21.2685" stroke="#4472C4" stroke-width="0.667109" stroke-miterlimit="8" fill="none" fill-rule="evenodd" transform="matrix(1 0 0 -1.00034 257.5 95.8015)"/><path d="M0 0 24.4954 37.7737" stroke="#4472C4" stroke-width="0.667109" stroke-miterlimit="8" fill="none" fill-rule="evenodd" transform="matrix(1 0 0 -1.00034 257.5 112.312)"/><path d="M0 0 24.4954 20.9762" stroke="#4472C4" stroke-width="0.667109" stroke-miterlimit="8" fill="none" fill-rule="evenodd" transform="matrix(1 0 0 -1.00034 257.5 112.515)"/><path d="M0 0 21.9707 8.74848" stroke="#4472C4" stroke-width="0.667109" stroke-miterlimit="8" fill="none" fill-rule="evenodd" transform="matrix(1 0 0 -1.00034 258.5 115.288)"/><path d="M258.5 98.534 280.471 106.293" stroke="#4472C4" stroke-width="0.667109" stroke-miterlimit="8" fill="none" fill-rule="evenodd"/><path d="M257.5 82.5285 281.633 104.183" stroke="#4472C4" stroke-width="0.667109" stroke-miterlimit="8" fill="none" fill-rule="evenodd"/><path d="M257.5 65.5226 281.633 103.688" stroke="#4472C4" stroke-width="0.667109" stroke-miterlimit="8" fill="none" fill-rule="evenodd"/><path d="M257.5 82.5285 280.914 89.3392" stroke="#4472C4" stroke-width="0.667109" stroke-miterlimit="8" fill="none" fill-rule="evenodd"/><path d="M257.5 65.5226 281.057 86.3975" stroke="#4472C4" stroke-width="0.667109" stroke-miterlimit="8" fill="none" fill-rule="evenodd"/><path d="M258.5 62.5215 280.833 71.6515" stroke="#4472C4" stroke-width="0.667109" stroke-miterlimit="8" fill="none" fill-rule="evenodd"/><path d="M286.5 74.5257 310.435 85.5817" stroke="#4472C4" stroke-width="0.667109" stroke-miterlimit="8" fill="none" fill-rule="evenodd"/><path d="M0 0 21.7718 0.523917" stroke="#4472C4" stroke-width="0.667109" stroke-miterlimit="8" fill="none" fill-rule="evenodd" transform="matrix(1 0 0 -1.00034 287.5 89.0546)"/><path d="M0 0 24.2966 12.7518" stroke="#4472C4" stroke-width="0.667109" stroke-miterlimit="8" fill="none" fill-rule="evenodd" transform="matrix(1 0 0 -1.00034 286.5 103.287)"/><path d="M31 79.0469C31 76.2737 33.2465 74.0255 36.0178 74.0255L67.9822 74.0255C70.7534 74.0255 73 76.2737 73 79.0469L73 99.1318C73 101.905 70.7534 104.153 67.9822 104.153L42.0334 104.591C41.3839 105.609 30.9612 116.11 31.4375 116.04 31.2392 116.051 31.1116 79.9199 31 79.0469Z" stroke="#172C51" stroke-width="2.00133" stroke-miterlimit="8" fill="none" fill-rule="evenodd"/><path d="M38 82.0282 63 82.0282" stroke="#172C51" stroke-width="2.00133" stroke-miterlimit="8" fill="none" fill-rule="evenodd"/><path d="M38 89.0307 62 89.0307" stroke="#172C51" stroke-width="2.00133" stroke-miterlimit="8" fill="none" fill-rule="evenodd"/><path d="M38 96.0331 56 96.0331" stroke="#172C51" stroke-width="2.00133" stroke-miterlimit="8" fill="none" fill-rule="evenodd"/><text font-family="Cambria Math,Cambria Math_MSFontService,sans-serif" font-weight="400" font-size="10.6774" transform="matrix(1 0 0 1.00034 59.525 98)">𝒚</text><text font-family="Cambria Math,Cambria Math_MSFontService,sans-serif" font-weight="400" font-size="7.79452" transform="matrix(1 0 0 1.00034 65.8625 100)">𝒘</text><path d="M95 79.1664C95 76.3272 97.193 74.0255 99.8983 74.0255L131.102 74.0255C133.807 74.0255 136 76.3272 136 79.1664L136 99.7295C136 102.569 133.807 104.87 131.102 104.87L105.771 105.319C105.137 106.361 94.9622 117.112 95.427 117.04 95.2335 117.051 95.1089 80.0602 95 79.1664Z" stroke="#172C51" stroke-width="2.00133" stroke-miterlimit="8" fill="none" fill-rule="evenodd"/><path d="M102 82.0282 126 82.0282" stroke="#172C51" stroke-width="2.00133" stroke-miterlimit="8" fill="none" fill-rule="evenodd"/><path d="M102 89.0307 126 89.0307" stroke="#172C51" stroke-width="2.00133" stroke-miterlimit="8" fill="none" fill-rule="evenodd"/><path d="M101 97.0335 119 97.0335" stroke="#172C51" stroke-width="2.00133" stroke-miterlimit="8" fill="none" fill-rule="evenodd"/><text font-family="Cambria Math,Cambria Math_MSFontService,sans-serif" font-weight="400" font-size="10.6774" transform="matrix(1 0 0 1.00034 122.901 98)">𝒚</text><text font-family="Cambria Math,Cambria Math_MSFontService,sans-serif" font-weight="400" font-size="7.79452" transform="matrix(1 0 0 1.00034 129.238 101)">𝒍</text><path d="M27.6667 88.0304 40.3333 88.0304 41 88.6973 41 92.0317 41 92.0317 27 92.0317 27 92.0317 27 88.6973Z" stroke="#172C51" stroke-width="2.00133" stroke-miterlimit="8" fill="#D5D5A4" fill-rule="evenodd"/><path d="M32.2693 86.0296 32.2693 82.9251C29.1546 79.4527 25.7177 79.1537 26.0184 64.0221L42 64.16C41.7422 78.4408 41.0334 78.1649 35.8136 82.9941L35.8136 85.8227 32.2693 86.0296Z" fill="#DDC425" fill-rule="evenodd"/><path d="M41.5631 71.4032 41.6991 69.0237 47 69.088C46.9547 77.6196 42.6958 77.7911 40 78.0269L41.5631 75.0687C43.8738 75.6475 44.6893 72.5607 44.8252 71.2102L41.5631 71.4032Z" fill="#DDC121" fill-rule="evenodd"/><path d="M1.56311 2.37859 1.69903 0 7.00002 0.0642863C6.95471 8.59294 2.6958 8.76436 0 9.00008L1.56311 6.04291C3.8738 6.62149 4.68933 3.53575 4.82526 2.18573L1.56311 2.37859Z" fill="#DDC121" fill-rule="evenodd" transform="matrix(-1 0 0 1.00034 28 69.0237)"/><path d="M34 82.0282 33.7326 65.1498 28.0511 65.0224C27.3605 79.4805 33.8886 80.1175 34 82.0282Z" fill="#D8A01D" fill-rule="evenodd"/><path d="M31 70.9342 33.2918 70.9342 34 69.0237 34.7081 70.9342 36.9999 70.9342 35.1458 72.115 35.8541 74.0255 34 72.8447 32.1459 74.0255 32.8541 72.115Z" fill="#FFFFFF" fill-rule="evenodd"/><path d="M38.1749 67.5207 39.0632 68.0148 39.8837 67.4032 39.3838 68.2963 39.9886 69.1134 39.1003 68.6194 38.2798 69.2309 38.7797 68.3379Z" fill="#FFFFFF" fill-rule="evenodd"/><path d="M39.1852 71.8412 39.7721 72.1676 40.3143 71.7635 39.984 72.3536 40.3835 72.8935 39.7966 72.5671 39.2545 72.9711 39.5848 72.381Z" fill="#FFFFFF" fill-rule="evenodd"/><path d="M37.4508 74.5104 38.0377 74.8368 38.5799 74.4327 38.2496 75.0228 38.6491 75.5627 38.0622 75.2363 37.5201 75.6404 37.8504 75.0503Z" fill="#FFFFFF" fill-rule="evenodd"/><path d="M30 86.0296 38 86.0296 39 87.03 39 88.0304 39 88.0304 29 88.0304 29 88.0304 29 87.03Z" fill="#D9A01D" fill-rule="evenodd"/><text font-family="Calibri,Calibri_MSFontService,sans-serif" font-weight="700" font-size="10.6774" transform="matrix(1 0 0 1.00034 80.1635 95)">&gt;</text><text font-family="Yu Gothic,Yu Gothic_MSFontService,sans-serif" font-weight="700" font-size="10.6774" transform="matrix(1 0 0 1.00034 30.8815 130)">選好データ</text><text fill="#4B928B" font-family="Yu Gothic,Yu Gothic_MSFontService,sans-serif" font-weight="700" font-size="10.6774" transform="matrix(1 0 0 1.00034 158.856 113)">最尤推定</text><path d="M163 89.03 202.019 89.03 202.019 91.032 163 91.032ZM194.518 84.495 204.005 90.031 194.518 95.5671C194.04 95.8456 193.427 95.6843 193.149 95.2068 192.871 94.7293 193.032 94.1163 193.509 93.8378L201.514 89.1664 201.514 90.8957 193.509 86.2243C193.032 85.9458 192.871 85.3328 193.149 84.8553 193.427 84.3778 194.04 84.2165 194.518 84.495Z" fill="#172C51"/><path d="M391 72.5249C391 70.5913 392.567 69.0237 394.5 69.0237 396.433 69.0237 398 70.5913 398 72.5249 398 74.4586 396.433 76.0262 394.5 76.0262 392.567 76.0262 391 74.4586 391 72.5249Z" fill="#D5BFD0" fill-rule="evenodd"/><path d="M391 89.0307C391 86.8207 392.567 85.0293 394.5 85.0293 396.433 85.0293 398 86.8207 398 89.0307 398 91.2406 396.433 93.0321 394.5 93.0321 392.567 93.0321 391 91.2406 391 89.0307Z" fill="#D5BFD0" fill-rule="evenodd"/><path d="M391 106.537C391 104.603 392.567 103.036 394.5 103.036 396.433 103.036 398 104.603 398 106.537 398 108.47 396.433 110.038 394.5 110.038 392.567 110.038 391 108.47 391 106.537Z" fill="#D5BFD0" fill-rule="evenodd"/><path d="M420 63.5219C420 61.5882 421.567 60.0207 423.5 60.0207 425.433 60.0207 427 61.5882 427 63.5219 427 65.4555 425.433 67.0231 423.5 67.0231 421.567 67.0231 420 65.4555 420 63.5219Z" fill="#87A3BE" fill-rule="evenodd"/><path d="M420 79.5274C420 77.5937 421.567 76.0262 423.5 76.0262 425.433 76.0262 427 77.5937 427 79.5274 427 81.4611 425.433 83.0286 423.5 83.0286 421.567 83.0286 420 81.4611 420 79.5274Z" fill="#87A3BE" fill-rule="evenodd"/><path d="M420 99.0341C420 96.8242 421.567 95.0327 423.5 95.0327 425.433 95.0327 427 96.8242 427 99.0341 427 101.244 425.433 103.036 423.5 103.036 421.567 103.036 420 101.244 420 99.0341Z" fill="#87A3BE" fill-rule="evenodd"/><path d="M420 115.54C420 113.606 421.567 112.039 423.5 112.039 425.433 112.039 427 113.606 427 115.54 427 117.473 425.433 119.041 423.5 119.041 421.567 119.041 420 117.473 420 115.54Z" fill="#87A3BE" fill-rule="evenodd"/><path d="M450 72.5249C450 70.5913 451.567 69.0237 453.5 69.0237 455.433 69.0237 457 70.5913 457 72.5249 457 74.4586 455.433 76.0262 453.5 76.0262 451.567 76.0262 450 74.4586 450 72.5249Z" fill="#9CA5B5" fill-rule="evenodd"/><path d="M450.5 90.031C450.5 88.0974 452.067 86.5299 454 86.5299 455.933 86.5299 457.5 88.0974 457.5 90.031 457.5 91.9647 455.933 93.5322 454 93.5322 452.067 93.5322 450.5 91.9647 450.5 90.031Z" stroke="#172C51" stroke-width="1.33422" stroke-miterlimit="8" fill="none" fill-rule="evenodd"/><path d="M449 106.537C449 104.603 450.791 103.036 453 103.036 455.209 103.036 457 104.603 457 106.537 457 108.47 455.209 110.038 453 110.038 450.791 110.038 449 108.47 449 106.537Z" fill="#9CA5B5" fill-rule="evenodd"/><path d="M479 88.5305C479 86.5968 480.567 85.0293 482.5 85.0293 484.433 85.0293 486 86.5968 486 88.5305 486 90.4641 484.433 92.0317 482.5 92.0317 480.567 92.0317 479 90.4641 479 88.5305Z" fill="#BA91B1" fill-rule="evenodd"/><path d="M0 0 21.7534 8.14871" stroke="#4472C4" stroke-width="0.667109" stroke-miterlimit="8" fill="none" fill-rule="evenodd" transform="matrix(1 0 0 -1.00034 398.5 72.6737)"/><path d="M0 0 23.9161 20.4858" stroke="#4472C4" stroke-width="0.667109" stroke-miterlimit="8" fill="none" fill-rule="evenodd" transform="matrix(1 0 0 -1.00034 397.5 87.0158)"/><path d="M0 0 24.2782 37.9347" stroke="#4472C4" stroke-width="0.667109" stroke-miterlimit="8" fill="none" fill-rule="evenodd" transform="matrix(1 0 0 -1.00034 397.5 104.471)"/><path d="M398.5 72.525 420.253 80.1232" stroke="#4472C4" stroke-width="0.667109" stroke-miterlimit="8" fill="none" fill-rule="evenodd"/><path d="M397.5 75.526 421.416 97.0191" stroke="#4472C4" stroke-width="0.667109" stroke-miterlimit="8" fill="none" fill-rule="evenodd"/><path d="M397.5 75.526 421.416 113.53" stroke="#4472C4" stroke-width="0.667109" stroke-miterlimit="8" fill="none" fill-rule="evenodd"/><path d="M397.5 92.5319 421.416 113.733" stroke="#4472C4" stroke-width="0.667109" stroke-miterlimit="8" fill="none" fill-rule="evenodd"/><path d="M398.5 92.5319 420.975 99.9184" stroke="#4472C4" stroke-width="0.667109" stroke-miterlimit="8" fill="none" fill-rule="evenodd"/><path d="M0 0 21.6703 7.53959" stroke="#4472C4" stroke-width="0.667109" stroke-miterlimit="8" fill="none" fill-rule="evenodd" transform="matrix(1 0 0 -1.00034 398.5 107.076)"/><path d="M398.5 106.537 420.615 115.505" stroke="#4472C4" stroke-width="0.667109" stroke-miterlimit="8" fill="none" fill-rule="evenodd"/><path d="M0 0 24.2782 21.4296" stroke="#4472C4" stroke-width="0.667109" stroke-miterlimit="8" fill="none" fill-rule="evenodd" transform="matrix(1 0 0 -1.00034 397.5 103.965)"/><path d="M0 0 22.3327 7.37843" stroke="#4472C4" stroke-width="0.667109" stroke-miterlimit="8" fill="none" fill-rule="evenodd" transform="matrix(1 0 0 -1.00034 427.5 79.906)"/><path d="M0 0 24.4954 21.2685" stroke="#4472C4" stroke-width="0.667109" stroke-miterlimit="8" fill="none" fill-rule="evenodd" transform="matrix(1 0 0 -1.00034 426.5 96.8018)"/><path d="M0 0 24.4954 37.7737" stroke="#4472C4" stroke-width="0.667109" stroke-miterlimit="8" fill="none" fill-rule="evenodd" transform="matrix(1 0 0 -1.00034 426.5 113.313)"/><path d="M0 0 24.4954 20.9762" stroke="#4472C4" stroke-width="0.667109" stroke-miterlimit="8" fill="none" fill-rule="evenodd" transform="matrix(1 0 0 -1.00034 426.5 113.515)"/><path d="M0 0 21.9707 8.74848" stroke="#4472C4" stroke-width="0.667109" stroke-miterlimit="8" fill="none" fill-rule="evenodd" transform="matrix(1 0 0 -1.00034 427.5 116.289)"/><path d="M427.5 99.5342 449.471 107.294" stroke="#4472C4" stroke-width="0.667109" stroke-miterlimit="8" fill="none" fill-rule="evenodd"/><path d="M426.5 82.5285 450.633 104.183" stroke="#4472C4" stroke-width="0.667109" stroke-miterlimit="8" fill="none" fill-rule="evenodd"/><path d="M426.5 66.5229 450.633 104.688" stroke="#4472C4" stroke-width="0.667109" stroke-miterlimit="8" fill="none" fill-rule="evenodd"/><path d="M426.5 82.5285 449.914 89.3392" stroke="#4472C4" stroke-width="0.667109" stroke-miterlimit="8" fill="none" fill-rule="evenodd"/><path d="M426.5 66.5229 450.056 87.3978" stroke="#4472C4" stroke-width="0.667109" stroke-miterlimit="8" fill="none" fill-rule="evenodd"/><path d="M427.5 63.5219 449.833 72.6519" stroke="#4472C4" stroke-width="0.667109" stroke-miterlimit="8" fill="none" fill-rule="evenodd"/><path d="M456.5 75.526 480.435 86.5821" stroke="#4472C4" stroke-width="0.667109" stroke-miterlimit="8" fill="none" fill-rule="evenodd"/><path d="M0 0 21.7718 0.523917" stroke="#4472C4" stroke-width="0.667109" stroke-miterlimit="8" fill="none" fill-rule="evenodd" transform="matrix(1 0 0 -1.00034 457.5 90.055)"/><path d="M0 0 24.2966 12.7518" stroke="#4472C4" stroke-width="0.667109" stroke-miterlimit="8" fill="none" fill-rule="evenodd" transform="matrix(1 0 0 -1.00034 456.5 104.288)"/><text fill="#9E190A" font-family="Yu Gothic,Yu Gothic_MSFontService,sans-serif" font-weight="700" font-size="10.6774" transform="matrix(1 0 0 1.00034 332.536 150)">強化学習</text><text font-family="Yu Gothic,Yu Gothic_MSFontService,sans-serif" font-weight="700" font-size="10.6774" transform="matrix(1 0 0 1.00034 319.979 130)">サンプル完成</text><text font-family="Yu Gothic,Yu Gothic_MSFontService,sans-serif" font-weight="700" font-size="10.6774" transform="matrix(1 0 0 1.00034 319.979 54)">ラベル報酬</text><rect x="228" y="80.0276" width="74" height="22.0076" fill="#F3E4E6" fill-opacity="0.501961"/><text font-family="Yu Gothic,Yu Gothic_MSFontService,sans-serif" font-weight="700" font-size="10.6774" transform="matrix(1 0 0 1.00034 238.022 95)">報酬モデル</text><rect x="381" y="79.0272" width="116" height="22.0076" fill="#F3E4E6" fill-opacity="0.501961"/><text font-family="Yu Gothic,Yu Gothic_MSFontService,sans-serif" font-weight="700" font-size="10.6774" transform="matrix(1 0 0 1.00034 390.479 94)">言語モデルポリシー</text><path d="M329.327 75.2858 333.677 71.3265 338.389 67.9973 343.449 65.5453 348.867 64.1992 354.595 64.19 357.623 64.7589 360.693 65.732 363.832 67.1365 367.058 69.0038 368.352 70.0002 367.131 71.5865 365.889 70.6303 365.998 70.7035 362.875 68.8954 362.968 68.9428 359.928 67.5828 360.034 67.6233 357.077 66.6858 357.194 66.7154 354.318 66.175 354.504 66.1922 348.992 66.201 349.232 66.1715 344.033 67.4631 344.228 67.3925 339.335 69.7632 339.476 69.68 334.882 72.9261 334.978 72.8489 330.673 76.7666ZM369.152 66.8157 373 74.8993 364.227 73.1286Z" fill="#172C51"/><path d="M374.697 102.754 370.247 107.071 365.428 110.701 360.249 113.376 354.732 114.838 351.791 115.042 348.797 114.85 345.725 114.235 342.581 113.172 339.368 111.64 336.072 109.605 334.489 108.322 335.748 106.767 337.281 108.009 337.177 107.935 340.373 109.907 340.278 109.856 343.389 111.339 343.278 111.295 346.305 112.317 346.181 112.284 349.124 112.874 348.992 112.856 351.853 113.04 351.719 113.041 354.499 112.847 354.312 112.878 359.631 111.469 359.428 111.547 364.435 108.961 364.292 109.051 368.993 105.509 368.899 105.591 373.303 101.317ZM333.575 111.472 330 103.264 338.709 105.328Z" fill="#172C51"/><text font-family="Calibri,Calibri_MSFontService,sans-serif" font-weight="700" font-size="14.6815" transform="matrix(1 0 0 1.00034 19.3126 197)">Direct</text><text font-family="Calibri,Calibri_MSFontService,sans-serif" font-weight="700" font-size="14.6815" transform="matrix(1 0 0 1.00034 59.3392 197)">Preference</text><text font-family="Calibri,Calibri_MSFontService,sans-serif" font-weight="700" font-size="14.6815" transform="matrix(1 0 0 1.00034 128.885 197)">Optimization</text><text font-family="Calibri,Calibri_MSFontService,sans-serif" font-weight="700" font-size="14.6815" transform="matrix(1 0 0 1.00034 212.107 197)">(DPO)</text><text font-family="Calibri,Calibri_MSFontService,sans-serif" font-weight="700" font-size="10.6774" transform="matrix(1 0 0 1.00034 25.1155 218)">x: "</text><text font-family="Yu Gothic,Yu Gothic_MSFontService,sans-serif" font-weight="700" font-size="10.6774" transform="matrix(1 0 0 1.00034 39.9587 218)">ジャズの歴史に</text><text font-family="Yu Gothic,Yu Gothic_MSFontService,sans-serif" font-weight="700" font-size="10.6774" transform="matrix(1 0 0 1.00034 40.459 231)">関する詩を書いて</text><text font-family="Calibri,Calibri_MSFontService,sans-serif" font-weight="700" font-size="10.6774" transform="matrix(1 0 0 1.00034 125.849 231)">"</text><path d="M24.0001 254.227C24.0001 251.387 26.2466 249.086 29.0179 249.086L60.9822 249.086C63.7534 249.086 66 251.387 66 254.227L66 274.79C66 277.629 63.7534 279.931 60.9822 279.931L35.0335 280.379C34.3839 281.421 23.9613 292.173 24.4375 292.1 24.2393 292.112 24.1117 255.12 24.0001 254.227Z" stroke="#172C51" stroke-width="2.00133" stroke-miterlimit="8" fill="none" fill-rule="evenodd"/><path d="M31 257.089 55 257.089" stroke="#172C51" stroke-width="2.00133" stroke-miterlimit="8" fill="none" fill-rule="evenodd"/><path d="M31 264.091 55 264.091" stroke="#172C51" stroke-width="2.00133" stroke-miterlimit="8" fill="none" fill-rule="evenodd"/><path d="M31 272.094 49 272.094" stroke="#172C51" stroke-width="2.00133" stroke-miterlimit="8" fill="none" fill-rule="evenodd"/><text font-family="Cambria Math,Cambria Math_MSFontService,sans-serif" font-weight="400" font-size="10.6774" transform="matrix(1 0 0 1.00034 52.4037 274)">𝒚</text><text font-family="Cambria Math,Cambria Math_MSFontService,sans-serif" font-weight="400" font-size="7.79452" transform="matrix(1 0 0 1.00034 58.7412 276)">𝒘</text><path d="M87 254.227C87 251.387 89.2466 249.086 92.0178 249.086L123.982 249.086C126.753 249.086 129 251.387 129 254.227L129 274.79C129 277.629 126.753 279.931 123.982 279.931L98.0335 280.379C97.3839 281.421 86.9613 292.173 87.4375 292.1 87.2393 292.112 87.1116 255.12 87 254.227Z" stroke="#172C51" stroke-width="2.00133" stroke-miterlimit="8" fill="none" fill-rule="evenodd"/><path d="M95 257.089 119 257.089" stroke="#172C51" stroke-width="2.00133" stroke-miterlimit="8" fill="none" fill-rule="evenodd"/><path d="M94 264.091 119 264.091" stroke="#172C51" stroke-width="2.00133" stroke-miterlimit="8" fill="none" fill-rule="evenodd"/><path d="M94 272.094 112 272.094" stroke="#172C51" stroke-width="2.00133" stroke-miterlimit="8" fill="none" fill-rule="evenodd"/><text font-family="Cambria Math,Cambria Math_MSFontService,sans-serif" font-weight="400" font-size="10.6774" transform="matrix(1 0 0 1.00034 115.779 274)">𝒚</text><text font-family="Cambria Math,Cambria Math_MSFontService,sans-serif" font-weight="400" font-size="7.79452" transform="matrix(1 0 0 1.00034 122.117 276)">𝒍</text><path d="M20.6667 263.091 33.3333 263.091 34 263.758 34 267.092 34 267.092 20 267.092 20 267.092 20 263.758Z" stroke="#172C51" stroke-width="2.00133" stroke-miterlimit="8" fill="#D5D5A4" fill-rule="evenodd"/><path d="M25.2693 261.09 25.2693 258.127C22.1546 254.812 18.7177 254.527 19.0184 240.083L35 240.214C34.7422 253.846 34.0334 253.583 28.8136 258.192L28.8136 260.892 25.2693 261.09Z" fill="#DDC425" fill-rule="evenodd"/><path d="M34.5631 246.464 34.6991 244.084 40 244.148C39.9547 252.68 35.6958 252.851 33 253.087L34.5631 250.129C36.8738 250.708 37.6894 247.621 37.8253 246.271L34.5631 246.464Z" fill="#DDC121" fill-rule="evenodd"/><path d="M1.56309 2.64286 1.69901 0 6.99991 0.0714287C6.9546 9.54764 2.69576 9.7381 0 10L1.56309 6.71429C3.87374 7.35715 4.68926 3.92858 4.82518 2.42857L1.56309 2.64286Z" fill="#DDC121" fill-rule="evenodd" transform="matrix(-1 0 0 1.00034 21 244.084)"/><path d="M27 258.089 26.7327 240.218 21.0511 240.083C20.3604 255.391 26.8886 256.066 27 258.089Z" fill="#D8A01D" fill-rule="evenodd"/><path d="M24.0001 246.377 26.2919 246.377 27 244.084 27.7082 246.377 30 246.377 28.1459 247.794 28.8541 250.086 27 248.669 25.1459 250.086 25.8542 247.794Z" fill="#FFFFFF" fill-rule="evenodd"/><path d="M31.0536 242.787 31.9419 243.281 32.7624 242.67 32.2625 243.563 32.8672 244.38 31.9789 243.886 31.1584 244.497 31.6583 243.604Z" fill="#FFFFFF" fill-rule="evenodd"/><path d="M32.0639 247.108 32.6508 247.434 33.1929 247.03 32.8626 247.62 33.2622 248.16 32.6753 247.834 32.1331 248.238 32.4634 247.648Z" fill="#FFFFFF" fill-rule="evenodd"/><path d="M30.3295 249.777 30.9164 250.103 31.4585 249.699 31.1282 250.289 31.5278 250.829 30.9409 250.503 30.3987 250.907 30.729 250.317Z" fill="#FFFFFF" fill-rule="evenodd"/><path d="M23 261.09 31 261.09 32 262.09 32 263.091 32 263.091 22 263.091 22 263.091 22 262.09Z" fill="#D9A01D" fill-rule="evenodd"/><text font-family="Calibri,Calibri_MSFontService,sans-serif" font-weight="700" font-size="10.6774" transform="matrix(1 0 0 1.00034 73.0421 270)">&gt;</text><text font-family="Yu Gothic,Yu Gothic_MSFontService,sans-serif" font-weight="700" font-size="10.6774" transform="matrix(1 0 0 1.00034 23.7601 305)">選好データ</text><text fill="#4B928B" font-family="Yu Gothic,Yu Gothic_MSFontService,sans-serif" font-weight="700" font-size="10.6774" transform="matrix(1 0 0 1.00034 151.734 288)">最尤推定</text><path d="M156 264.09 195.019 264.09 195.019 266.092 156 266.092ZM187.518 259.555 197.005 265.091 187.518 270.627C187.04 270.906 186.428 270.745 186.149 270.267 185.871 269.79 186.032 269.177 186.509 268.898L194.515 264.227 194.515 265.956 186.509 261.285C186.032 261.006 185.871 260.393 186.149 259.916 186.428 259.438 187.04 259.277 187.518 259.555Z" fill="#172C51"/><path d="M219 247.585C219 245.652 220.791 244.084 223 244.084 225.209 244.084 227 245.652 227 247.585 227 249.519 225.209 251.087 223 251.087 220.791 251.087 219 249.519 219 247.585Z" fill="#D5BFD0" fill-rule="evenodd"/><path d="M219 264.591C219 262.658 220.791 261.09 223 261.09 225.209 261.09 227 262.658 227 264.591 227 266.525 225.209 268.092 223 268.092 220.791 268.092 219 266.525 219 264.591Z" fill="#D5BFD0" fill-rule="evenodd"/><path d="M219 282.097C219 279.887 220.791 278.096 223 278.096 225.209 278.096 227 279.887 227 282.097 227 284.307 225.209 286.099 223 286.099 220.791 286.099 219 284.307 219 282.097Z" fill="#D5BFD0" fill-rule="evenodd"/><path d="M249 238.582C249 236.649 250.567 235.081 252.5 235.081 254.433 235.081 256 236.649 256 238.582 256 240.516 254.433 242.083 252.5 242.083 250.567 242.083 249 240.516 249 238.582Z" fill="#87A3BE" fill-rule="evenodd"/><path d="M249 255.588C249 253.654 250.567 252.087 252.5 252.087 254.433 252.087 256 253.654 256 255.588 256 257.522 254.433 259.089 252.5 259.089 250.567 259.089 249 257.522 249 255.588Z" fill="#87A3BE" fill-rule="evenodd"/><path d="M249 274.595C249 272.661 250.567 271.093 252.5 271.093 254.433 271.093 256 272.661 256 274.595 256 276.528 254.433 278.096 252.5 278.096 250.567 278.096 249 276.528 249 274.595Z" fill="#87A3BE" fill-rule="evenodd"/><path d="M249 291.1C249 288.89 250.567 287.099 252.5 287.099 254.433 287.099 256 288.89 256 291.1 256 293.31 254.433 295.102 252.5 295.102 250.567 295.102 249 293.31 249 291.1Z" fill="#87A3BE" fill-rule="evenodd"/><path d="M278 248.085C278 245.876 279.791 244.084 282 244.084 284.209 244.084 286 245.876 286 248.085 286 250.295 284.209 252.087 282 252.087 279.791 252.087 278 250.295 278 248.085Z" fill="#9CA5B5" fill-rule="evenodd"/><path d="M278.5 265.091C278.5 263.158 280.291 261.59 282.5 261.59 284.709 261.59 286.5 263.158 286.5 265.091 286.5 267.025 284.709 268.593 282.5 268.593 280.291 268.593 278.5 267.025 278.5 265.091Z" stroke="#172C51" stroke-width="1.33422" stroke-miterlimit="8" fill="none" fill-rule="evenodd"/><path d="M278 282.097C278 279.887 279.567 278.096 281.5 278.096 283.433 278.096 285 279.887 285 282.097 285 284.307 283.433 286.099 281.5 286.099 279.567 286.099 278 284.307 278 282.097Z" fill="#9CA5B5" fill-rule="evenodd"/><path d="M307 264.091C307 261.881 308.791 260.09 311 260.09 313.209 260.09 315 261.881 315 264.091 315 266.301 313.209 268.092 311 268.092 308.791 268.092 307 266.301 307 264.091Z" fill="#BA91B1" fill-rule="evenodd"/><path d="M0 0 21.7534 8.14871" stroke="#4472C4" stroke-width="0.667109" stroke-miterlimit="8" fill="none" fill-rule="evenodd" transform="matrix(1 0 0 -1.00034 227.5 248.734)"/><path d="M0 0 23.9161 20.4858" stroke="#4472C4" stroke-width="0.667109" stroke-miterlimit="8" fill="none" fill-rule="evenodd" transform="matrix(1 0 0 -1.00034 226.5 262.076)"/><path d="M0 0 24.2782 37.9347" stroke="#4472C4" stroke-width="0.667109" stroke-miterlimit="8" fill="none" fill-rule="evenodd" transform="matrix(1 0 0 -1.00034 225.5 279.531)"/><path d="M227.5 248.586 249.253 256.184" stroke="#4472C4" stroke-width="0.667109" stroke-miterlimit="8" fill="none" fill-rule="evenodd"/><path d="M226.5 250.586 250.416 272.079" stroke="#4472C4" stroke-width="0.667109" stroke-miterlimit="8" fill="none" fill-rule="evenodd"/><path d="M226.5 250.586 250.416 288.59" stroke="#4472C4" stroke-width="0.667109" stroke-miterlimit="8" fill="none" fill-rule="evenodd"/><path d="M226.5 267.592 250.416 288.793" stroke="#4472C4" stroke-width="0.667109" stroke-miterlimit="8" fill="none" fill-rule="evenodd"/><path d="M226.5 267.592 248.975 274.979" stroke="#4472C4" stroke-width="0.667109" stroke-miterlimit="8" fill="none" fill-rule="evenodd"/><path d="M0 0 21.6703 7.53959" stroke="#4472C4" stroke-width="0.667109" stroke-miterlimit="8" fill="none" fill-rule="evenodd" transform="matrix(1 0 0 -1.00034 227.5 282.137)"/><path d="M227.5 282.597 249.615 291.566" stroke="#4472C4" stroke-width="0.667109" stroke-miterlimit="8" fill="none" fill-rule="evenodd"/><path d="M0 0 24.2782 21.4296" stroke="#4472C4" stroke-width="0.667109" stroke-miterlimit="8" fill="none" fill-rule="evenodd" transform="matrix(1 0 0 -1.00034 225.5 280.026)"/><path d="M0 0 22.3327 7.37843" stroke="#4472C4" stroke-width="0.667109" stroke-miterlimit="8" fill="none" fill-rule="evenodd" transform="matrix(1 0 0 -1.00034 256.5 255.967)"/><path d="M0 0 24.4954 21.2685" stroke="#4472C4" stroke-width="0.667109" stroke-miterlimit="8" fill="none" fill-rule="evenodd" transform="matrix(1 0 0 -1.00034 255.5 272.862)"/><path d="M0 0 24.4954 37.7737" stroke="#4472C4" stroke-width="0.667109" stroke-miterlimit="8" fill="none" fill-rule="evenodd" transform="matrix(1 0 0 -1.00034 255.5 289.373)"/><path d="M0 0 24.4954 20.9762" stroke="#4472C4" stroke-width="0.667109" stroke-miterlimit="8" fill="none" fill-rule="evenodd" transform="matrix(1 0 0 -1.00034 255.5 288.576)"/><path d="M0 0 21.9707 8.74848" stroke="#4472C4" stroke-width="0.667109" stroke-miterlimit="8" fill="none" fill-rule="evenodd" transform="matrix(1 0 0 -1.00034 256.5 291.349)"/><path d="M256.5 274.595 278.471 282.354" stroke="#4472C4" stroke-width="0.667109" stroke-miterlimit="8" fill="none" fill-rule="evenodd"/><path d="M255.5 258.589 279.633 280.243" stroke="#4472C4" stroke-width="0.667109" stroke-miterlimit="8" fill="none" fill-rule="evenodd"/><path d="M255.5 241.583 279.633 279.748" stroke="#4472C4" stroke-width="0.667109" stroke-miterlimit="8" fill="none" fill-rule="evenodd"/><path d="M255.5 258.589 278.914 265.4" stroke="#4472C4" stroke-width="0.667109" stroke-miterlimit="8" fill="none" fill-rule="evenodd"/><path d="M255.5 241.583 279.057 262.458" stroke="#4472C4" stroke-width="0.667109" stroke-miterlimit="8" fill="none" fill-rule="evenodd"/><path d="M256.5 239.583 278.833 248.713" stroke="#4472C4" stroke-width="0.667109" stroke-miterlimit="8" fill="none" fill-rule="evenodd"/><path d="M285.5 251.587 309.434 262.643" stroke="#4472C4" stroke-width="0.667109" stroke-miterlimit="8" fill="none" fill-rule="evenodd"/><path d="M0 0 21.7718 0.523917" stroke="#4472C4" stroke-width="0.667109" stroke-miterlimit="8" fill="none" fill-rule="evenodd" transform="matrix(1 0 0 -1.00034 286.5 265.115)"/><path d="M0 0 24.2966 12.7518" stroke="#4472C4" stroke-width="0.667109" stroke-miterlimit="8" fill="none" fill-rule="evenodd" transform="matrix(1 0 0 -1.00034 284.5 280.348)"/><rect x="214" y="254.088" width="95.0001" height="23.0079" fill="#E2F2F3" fill-opacity="0.101961"/><text font-family="Yu Gothic,Yu Gothic_MSFontService,sans-serif" font-weight="700" font-size="10.6774" transform="matrix(1 0 0 1.00034 223.299 269)">最終言語モデル</text></g></svg>