<svg width="737" height="397" xmlns="http://www.w3.org/2000/svg" xmlns:xlink="http://www.w3.org/1999/xlink" overflow="hidden"><defs><clipPath id="clip0"><rect x="0" y="0" width="737" height="397"/></clipPath></defs><g clip-path="url(#clip0)"><rect x="0" y="0" width="737" height="397.167" fill="#FFFFFF"/><path d="M97.8528 215.591 95.2646 210.355 96.5217 207.882 94.5991 206.646 94.0075 204.1 89.2009 204.537 87.5001 200.683 90.458 195.228 89.7924 192.465 91.7151 191.01 89.5706 188.465 91.5672 185.92 92.9722 188.902 94.673 187.665 95.3385 187.811 98.4443 185.556 96.5956 184.247 95.6343 186.502 93.5638 186.793 92.6025 185.484 94.5991 183.738 96.5217 179.811 101.328 182.066 104.138 178.575C110.547 183.423 114.22 191.18 113.382 201.192 111.977 199.64 110.276 197.143 109.167 196.537 108.058 195.931 105.716 195.943 105.543 196.319L108.132 198.792 105.322 201.555 105.839 203.228 103.103 206.064 103.103 208.755 101.55 211.736 99.2578 215.154 97.8528 215.591Z" stroke="#172C51" stroke-width="1.33333" stroke-miterlimit="8" fill-rule="evenodd"/><path d="M91.5001 172.769 89.1364 175.516 88.5107 178.783 88.2327 181.752 85.0348 182.569C83.9341 183.188 83.2273 186.195 81.6284 185.464 80.0295 184.734 82.9377 180.973 82.9492 179.525L81.6979 176.778 82.3931 173.957 80.0295 176.184 78.5001 173.511C80.6783 172.002 86.402 170.418 91.5001 172.769Z" stroke="#172C51" stroke-width="1.33333" stroke-miterlimit="8" fill-rule="evenodd"/><path d="M79.0318 221.491 76.6204 217.524 75.1309 212.014 71.2301 208.047 71.3719 204.814 67.2583 202.243 64.2085 199.818 64.2085 198.202 61.868 199.671C59.693 192.52 67.5893 177.215 74.2798 175.574L76.2657 177.484 79.3864 177.925 79.8829 181.525 78.8899 183.655 76.8331 183.288 77.2587 182.333 77.4715 180.496 75.2728 182.627 73.0741 183.582 71.7975 184.904 73.4997 187.329 74.2089 186.594 74.8472 184.17 77.3296 184.831 79.3864 187.329 79.1027 190.708 78.3226 191.149 77.2587 189.459 76.053 191.076 72.1521 194.161 70.9464 197.688 72.5777 199.818 75.1309 200.626 73.2869 201.582 71.5138 200.626 69.1733 196.88 67.0455 197.32 66.8327 199.965 69.1023 199.818 70.379 202.684 72.223 202.904 74.4926 202.61 78.1807 204.3 80.3084 206.504 83.5001 207.312 82.649 209.296 83.0745 211.867 81.1595 213.116 81.3014 215.834 79.741 217.598 81.0886 222.594 79.0318 221.491Z" stroke="#172C51" stroke-width="1.33333" stroke-miterlimit="8" fill-rule="evenodd"/><path d="M61 196.583C61 182.493 72.6406 171.072 87 171.072 101.359 171.072 113 182.493 113 196.583 113 210.672 101.359 222.093 87 222.093 72.6406 222.093 61 210.672 61 196.583Z" stroke="#172C51" stroke-width="4" stroke-miterlimit="8" fill="none" fill-rule="evenodd"/><path d="M102.5 212.589 102.822 211.123C103.48 210.471 106.083 208.097 106.445 208.679 106.807 209.261 105.278 210.634 104.996 211.262L104.754 212.45 102.5 212.589Z" stroke="#172C51" stroke-width="1.33333" stroke-miterlimit="8" fill-rule="evenodd"/><text font-family="Yu Gothic,Yu Gothic_MSFontService,sans-serif" font-weight="700" font-size="13.3389" transform="matrix(1 0 0 1.00042 77.0281 241)">環境</text><path d="M41 117.716C41 114.033 43.9848 111.047 47.6668 111.047L123.333 111.047C127.015 111.047 130 114.033 130 117.716L130 144.394C130 148.077 127.015 151.063 123.333 151.063L47.6668 151.063C43.9848 151.063 41 148.077 41 144.394Z" stroke="#172C51" stroke-width="2" stroke-miterlimit="8" fill="#FFFFFF" fill-rule="evenodd"/><text font-family="Yu Gothic,Yu Gothic_MSFontService,sans-serif" font-weight="700" font-size="13.3389" transform="matrix(1 0 0 1.00042 45.2679 127)">エージェント</text><text font-family="Calibri,Calibri_MSFontService,sans-serif" font-weight="700" font-size="13.3389" transform="matrix(1 0 0 1.00042 64.6813 143)">(Policy)</text><path d="M53 198.083 20 198.083 20 130.055 36.7895 130.055 36.7895 132.055 21 132.055 22 131.055 22 197.083 21 196.082 53 196.082ZM35.4561 127.053 43.4561 131.055 35.4561 135.057Z" fill="#172C51"/><rect x="-3" y="154.065" width="46" height="26.0109" fill="#FFFFFF"/><text font-family="Yu Gothic,Yu Gothic_MSFontService,sans-serif" font-weight="700" font-size="13.3389" transform="matrix(1 0 0 1.00042 6.23916 171)">観測</text><path d="M127.037 131.055 151 131.055 151 203.085 125.667 203.085 125.667 201.084 150 201.084 149 202.085 149 132.055 150 133.056 127.037 133.056ZM127 206.087 119 202.085 127 198.083Z" fill="#172C51"/><rect x="130" y="156.066" width="46" height="26.0109" fill="#FFFFFF"/><text font-family="Yu Gothic,Yu Gothic_MSFontService,sans-serif" font-weight="700" font-size="13.3389" transform="matrix(1 0 0 1.00042 139.318 173)">行動</text><path d="M257.243 95.9254 262.162 93.8651 262.677 95.0955 257.757 97.1558ZM265.852 92.3199 270.772 90.2596 271.287 91.4901 266.367 93.5503ZM274.462 88.7144 279.381 86.6542 279.896 87.8846 274.976 89.9449ZM283.071 85.109 287.991 83.0487 288.506 84.2791 283.586 86.3394ZM291.68 81.5035 296.6 79.4432 297.115 80.6737 292.195 82.7339ZM290.188 77.1656 300.503 78.5318 294.237 86.8415C294.015 87.1356 293.597 87.1941 293.303 86.9723 293.009 86.7505 292.951 86.3323 293.173 86.0382L298.75 78.6413 299.195 79.7041 290.013 78.488C289.648 78.4396 289.392 78.1044 289.44 77.7393 289.488 77.3741 289.823 77.1173 290.188 77.1656Z" fill="#172C51"/><path d="M258.831 95.9615 285.685 111.313 285.023 112.471 258.169 97.1197ZM281.301 103.534 286.503 112.549 276.099 112.642C275.73 112.645 275.429 112.349 275.426 111.981 275.423 111.612 275.719 111.311 276.087 111.308L285.348 111.225 284.777 112.226 280.146 104.201C279.962 103.882 280.071 103.474 280.39 103.29 280.709 103.106 281.117 103.215 281.301 103.534Z" fill="#172C51"/><path d="M258.408 95.88 263.69 95.1427 263.874 96.4638 258.592 97.2011ZM267.652 94.5897 272.934 93.8523 273.118 95.1734 267.836 95.9108ZM276.895 93.2993 282.178 92.5619 282.362 93.883 277.08 94.6204ZM286.139 92.0089 291.421 91.2716 291.606 92.5927 286.324 93.33ZM295.383 90.7186 300.101 90.06 300.285 91.3811 295.567 92.0396ZM291.878 86.5857 301.503 90.5376 293.327 96.9745C293.037 97.2023 292.618 97.1523 292.391 96.8629 292.163 96.5734 292.213 96.1541 292.502 95.9263L299.78 90.1964 299.94 91.3376 291.371 87.8198C291.031 87.6799 290.868 87.2903 291.008 86.9495 291.148 86.6088 291.537 86.4459 291.878 86.5857Z" fill="#172C51"/><path d="M257.666 97.1464 262.993 97.3934 262.932 98.7258 257.604 98.4789ZM266.989 97.5786 272.317 97.8255 272.255 99.158 266.927 98.911ZM276.312 98.0107 281.64 98.2577 281.578 99.5901 276.251 99.3432ZM285.636 98.4429 290.963 98.6898 290.902 100.022 285.574 99.7753ZM287.085 93.9274 295.82 99.5826 286.6 104.406C286.274 104.576 285.871 104.45 285.7 104.124 285.53 103.797 285.656 103.394 285.982 103.224L294.189 98.9303 294.136 100.081 286.361 95.0472C286.052 94.8471 285.963 94.4342 286.163 94.1249 286.363 93.8157 286.776 93.7272 287.085 93.9274Z" fill="#172C51"/><path d="M243.5 96.0404C243.5 92.449 246.41 89.5376 250 89.5376 253.59 89.5376 256.5 92.449 256.5 96.0404 256.5 99.6317 253.59 102.543 250 102.543 246.41 102.543 243.5 99.6317 243.5 96.0404Z" stroke="#000000" stroke-width="1.33333" stroke-miterlimit="8" fill="#FFFFFF" fill-rule="evenodd"/><rect x="319" y="81.034" width="92" height="120.05" stroke="#172C51" stroke-width="2" stroke-miterlimit="8" stroke-dasharray="8 6" fill="#FFFFFF"/><rect x="310" y="89.0374" width="92" height="120.05" stroke="#172C51" stroke-width="2" stroke-miterlimit="8" stroke-dasharray="8 6" fill="#FFFFFF"/><rect x="301" y="100.042" width="92" height="120.05" stroke="#172C51" stroke-width="2" stroke-miterlimit="8" stroke-dasharray="8 6" fill="#FFFFFF"/><rect x="286" y="109.046" width="97" height="125.053" stroke="#172C51" stroke-width="2" stroke-miterlimit="8" fill="#FFFFFF"/><path d="M329.5 128.554 329.5 215.591" stroke="#172C51" stroke-width="1.33333" stroke-miterlimit="8" fill="none" fill-rule="evenodd"/><rect x="329.5" y="141.559" width="31" height="6.00252" stroke="#172C51" stroke-width="1.33333" stroke-miterlimit="8" fill="#B4C7E7"/><rect x="329.5" y="158.567" width="13" height="6.00252" stroke="#172C51" stroke-width="1.33333" stroke-miterlimit="8" fill="#B4C7E7"/><rect x="329.5" y="178.575" width="17" height="6.00252" stroke="#172C51" stroke-width="1.33333" stroke-miterlimit="8" fill="#B4C7E7"/><rect x="329.5" y="199.584" width="13" height="6.00252" stroke="#172C51" stroke-width="1.33333" stroke-miterlimit="8" fill="#B4C7E7"/><path d="M416.197 169.165 366.373 143.754 366.979 142.565 416.803 167.977ZM371.123 151.315 365.497 142.559 375.885 141.97C376.253 141.949 376.568 142.23 376.588 142.598 376.609 142.965 376.328 143.28 375.961 143.301L366.714 143.826 367.237 142.799 372.245 150.593C372.444 150.903 372.354 151.316 372.044 151.515 371.734 151.714 371.322 151.624 371.123 151.315Z" fill="#172C51"/><path d="M415.421 169.233 410.125 168.597 410.284 167.273 415.579 167.909ZM406.154 168.121 400.858 167.485 401.017 166.16 406.313 166.796ZM396.887 167.008 391.592 166.372 391.75 165.048 397.046 165.684ZM387.62 165.896 382.325 165.26 382.484 163.935 387.779 164.571ZM378.353 164.783 373.058 164.147 373.217 162.823 378.512 163.459ZM369.086 163.671 366.731 163.388 366.89 162.063 369.245 162.346ZM373.796 168.847 365.497 162.568 375.045 158.432C375.383 158.285 375.775 158.441 375.921 158.779 376.068 159.117 375.912 159.509 375.575 159.656L367.076 163.338 367.213 162.194 374.6 167.783C374.893 168.005 374.951 168.423 374.729 168.717 374.507 169.011 374.089 169.069 373.796 168.847Z" fill="#172C51"/><path d="M51.8863 9.6569 46.6311 8.74735 46.8585 7.43355 52.1137 8.3431ZM42.6897 8.06518 37.4345 7.15563 37.6619 5.84183 42.9171 6.75138ZM33.4931 6.47346 28.2379 5.56391 28.4653 4.25011 33.7205 5.15966ZM24.2965 4.88174 19.0413 3.97219 19.2687 2.65839 24.5239 3.56794ZM15.0999 3.29002 9.84468 2.38047 10.0721 1.06667 15.3273 1.97622ZM5.90328 1.6983 1.18693 0.882009 1.41432-0.431791 6.13067 0.3845ZM7.9584 6.69788-0.00304472-0.000526959 9.74654-3.63355C10.0916-3.76212 10.4755-3.58665 10.604-3.24164 10.7326-2.89662 10.5571-2.51271 10.2121-2.38415L1.53345 0.849819 1.72986-0.285014 8.8168 5.67762C9.09854 5.91466 9.13477 6.33522 8.89773 6.61695 8.66069 6.89869 8.24014 6.93492 7.9584 6.69788Z" fill="#172C51" transform="matrix(1 0 0 -1.00042 364.5 177.575)"/><path d="M50.6537 31.5697 46.0963 28.7995 46.7888 27.6601 51.3463 30.4303ZM42.6782 26.7218 38.1207 23.9516 38.8133 22.8122 43.3707 25.5824ZM34.7026 21.8739 30.1452 19.1037 30.8377 17.9643 35.3952 20.7346ZM26.7271 17.0261 22.1697 14.2558 22.8622 13.1165 27.4197 15.8867ZM18.7516 12.1782 14.1941 9.40796 14.8867 8.2686 19.4441 11.0388ZM10.776 7.3303 6.21858 4.56009 6.91114 3.42072 11.4686 6.19094ZM2.8005 2.48242 0.781666 1.25529 1.47422 0.115929 3.49305 1.34306ZM4.95407 9.14631-0.00264026-0.00160495 10.4001 0.18661C10.7683 0.19327 11.0613 0.497097 11.0546 0.865227 11.048 1.23336 10.7442 1.52639 10.376 1.51972L1.11591 1.35218 1.71412 0.368026 6.12637 8.51111C6.30178 8.83483 6.18154 9.23946 5.85782 9.41486 5.5341 9.59027 5.12947 9.47004 4.95407 9.14631Z" fill="#172C51" transform="matrix(1 0 0 -1.00042 365.5 199.584)"/><path d="M420.5 169.071C420.5 165.48 423.41 162.568 427 162.568 430.59 162.568 433.5 165.48 433.5 169.071 433.5 172.662 430.59 175.574 427 175.574 423.41 175.574 420.5 172.662 420.5 169.071Z" stroke="#000000" stroke-width="1.33333" stroke-miterlimit="8" fill="#FFFFFF" fill-rule="evenodd"/><text font-family="Yu Gothic,Yu Gothic_MSFontService,sans-serif" font-weight="700" font-size="13.3389" transform="matrix(1 0 0 1.00042 251.342 83)">状態</text><path d="M338.853 300.626 336.265 295.249 337.522 292.709 335.599 291.44 335.007 288.826 330.201 289.274 328.5 285.315 331.458 279.714 330.792 276.876 332.715 275.382 330.571 272.768 332.567 270.154 333.972 273.216 335.673 271.946 336.339 272.096 339.444 269.78 337.596 268.436 336.634 270.751 334.564 271.05 333.602 269.706 335.599 267.913 337.522 263.88 342.328 266.195 345.138 262.61C351.547 267.589 355.22 275.556 354.382 285.838 352.977 284.245 351.276 281.681 350.167 281.058 349.058 280.436 346.716 280.448 346.543 280.834L349.132 283.373 346.322 286.212 346.839 287.929 344.103 290.842 344.103 293.606 342.55 296.668 340.258 300.178 338.853 300.626Z" stroke="#172C51" stroke-width="1.33333" stroke-miterlimit="8" fill-rule="evenodd"/><path d="M333.5 257.805 330.955 260.552 330.281 263.818 329.981 266.788 326.538 267.605C325.352 268.223 324.591 271.23 322.869 270.5 321.147 269.77 324.279 266.008 324.292 264.561L322.944 261.814 323.693 258.992 321.147 261.22 319.5 258.547C321.846 257.037 328.01 255.453 333.5 257.805Z" stroke="#172C51" stroke-width="1.33333" stroke-miterlimit="8" fill-rule="evenodd"/><path d="M320.829 306.527 318.308 302.56 316.751 297.05 312.672 293.082 312.821 289.85 308.52 287.278 305.332 284.854 305.332 283.238 302.885 284.707C300.611 277.556 308.866 262.25 315.861 260.609L317.937 262.52 321.199 262.96 321.718 266.56 320.68 268.691 318.53 268.324 318.975 267.369 319.197 265.532 316.899 267.662 314.6 268.618 313.266 269.94 315.045 272.364 315.787 271.63 316.454 269.205 319.049 269.866 321.199 272.364 320.903 275.744 320.087 276.185 318.975 274.495 317.714 276.111 313.636 279.197 312.376 282.723 314.081 284.854 316.751 285.662 314.823 286.617 312.969 285.662 310.522 281.915 308.298 282.356 308.075 285.001 310.448 284.854 311.783 287.719 313.71 287.94 316.083 287.646 319.939 289.336 322.163 291.54 325.5 292.348 324.61 294.331 325.055 296.903 323.053 298.152 323.201 300.87 321.57 302.633 322.979 307.629 320.829 306.527Z" stroke="#172C51" stroke-width="1.33333" stroke-miterlimit="8" fill-rule="evenodd"/><path d="M302 281.618C302 267.529 313.641 256.108 328 256.108 342.359 256.108 354 267.529 354 281.618 354 295.707 342.359 307.129 328 307.129 313.641 307.129 302 295.707 302 281.618Z" stroke="#172C51" stroke-width="4" stroke-miterlimit="8" fill="none" fill-rule="evenodd"/><path d="M344.5 297.625 344.742 295.792C345.235 294.977 347.187 292.009 347.459 292.737 347.73 293.464 346.583 295.181 346.372 295.966L346.191 297.45 344.5 297.625Z" stroke="#172C51" stroke-width="1.33333" stroke-miterlimit="8" fill-rule="evenodd"/><text font-family="Yu Gothic,Yu Gothic_MSFontService,sans-serif" font-weight="700" font-size="13.3389" transform="matrix(1 0 0 1.00042 318.487 326)">環境</text><path d="M295 285.12 190 285.12 190 94.0349 237.483 94.2538 237.474 96.2546 190.995 96.0403 192 95.0399 192 284.119 191 283.119 295 283.119ZM236.164 91.2464 244.145 95.2849 236.127 99.2497Z" fill="#172C51"/><path d="M431.192 167.07 456 167.07 456 284.119 365.667 284.119 365.667 282.118 455 282.118 454 283.119 454 168.071 455 169.071 431.192 169.071ZM367 287.121 359 283.119 367 279.117Z" fill="#172C51"/><text font-family="Yu Gothic,Yu Gothic_MSFontService,sans-serif" font-weight="700" font-size="13.3389" transform="matrix(1 0 0 1.00042 289.861 148)">行動</text><text font-family="Calibri,Calibri_MSFontService,sans-serif" font-weight="700" font-size="13.3389" transform="matrix(1 0 0 1.00042 319.527 148)">1</text><text font-family="Yu Gothic,Yu Gothic_MSFontService,sans-serif" font-weight="700" font-size="13.3389" transform="matrix(1 0 0 1.00042 289.585 166)">行動</text><text font-family="Calibri,Calibri_MSFontService,sans-serif" font-weight="700" font-size="13.3389" transform="matrix(1 0 0 1.00042 319.252 166)">2</text><text font-family="Yu Gothic,Yu Gothic_MSFontService,sans-serif" font-weight="700" font-size="13.3389" transform="matrix(1 0 0 1.00042 289.194 186)">行動</text><text font-family="Calibri,Calibri_MSFontService,sans-serif" font-weight="700" font-size="13.3389" transform="matrix(1 0 0 1.00042 318.861 186)">3</text><text font-family="Yu Gothic,Yu Gothic_MSFontService,sans-serif" font-weight="700" font-size="13.3389" transform="matrix(1 0 0 1.00042 289.115 207)">行動</text><text font-family="Calibri,Calibri_MSFontService,sans-serif" font-weight="700" font-size="13.3389" transform="matrix(1 0 0 1.00042 318.781 207)">4</text><text font-family="Calibri,Calibri_MSFontService,sans-serif" font-weight="700" font-size="13.3389" transform="matrix(1 0 0 1.00042 316.13 126)">(</text><text font-family="Yu Gothic,Yu Gothic_MSFontService,sans-serif" font-weight="700" font-size="13.3389" transform="matrix(1 0 0 1.00042 320.296 126)">状態</text><text font-family="Calibri,Calibri_MSFontService,sans-serif" font-weight="700" font-size="13.3389" transform="matrix(1 0 0 1.00042 349.963 126)">4)</text><text font-family="Yu Gothic,Yu Gothic_MSFontService,sans-serif" font-weight="700" font-size="13.3389" transform="matrix(1 0 0 1.00042 317.2 228)">行動の質</text><path d="M239 70.0294C239 64.228 242.441 59.5249 246.685 59.5249L328.315 59.5249C332.559 59.5249 336 54.8219 336 49.0204 336 54.8219 339.44 59.5249 343.685 59.5249L425.315 59.5249C429.559 59.5249 433 64.228 433 70.0294" stroke="#000000" stroke-width="2.00084" stroke-miterlimit="8" stroke-dasharray="2.00084 2.00084" fill="none" fill-rule="evenodd"/><path d="M126 110.046 174 7.00294" stroke="#8FAADC" stroke-width="2" stroke-miterlimit="8" stroke-dasharray="8 6" fill="none" fill-rule="evenodd"/><path d="M0 91 49 0" stroke="#8FAADC" stroke-width="2" stroke-miterlimit="8" stroke-dasharray="8 6" fill="none" fill-rule="evenodd" transform="matrix(1 0 0 -1.00042 123 242.102)"/><text font-family="Yu Gothic,Yu Gothic_MSFontService,sans-serif" font-weight="700" font-size="13.3389" transform="matrix(1 0 0 1.00042 598.361 326)">環境</text><path d="M581 283.119 512 283.119 512 133.056 547.816 133.056 547.816 135.057 513 135.057 514 134.056 514 282.118 513 281.118 581 281.118ZM546.482 130.055 554.482 134.056 546.482 138.058Z" fill="#172C51"/><path d="M687.843 102.043 707 102.043 707 285.131 651.655 284.496 651.678 282.495 706.011 283.119 705 284.119 705 103.043 706 104.044 687.843 104.044ZM652.954 287.512 645 283.419 653.045 279.509Z"/><rect x="685" y="200.084" width="46" height="25.0105" fill="#FFFFFF"/><text font-family="Yu Gothic,Yu Gothic_MSFontService,sans-serif" font-weight="700" font-size="13.3389" transform="matrix(1 0 0 1.00042 694.911 217)">行動</text><rect x="490" y="197.083" width="47" height="26.0109" fill="#FFFFFF"/><text font-family="Yu Gothic,Yu Gothic_MSFontService,sans-serif" font-weight="700" font-size="13.3389" transform="matrix(1 0 0 1.00042 500.113 214)">観測</text><path d="M470 322.135C470 329.594 467.322 335.641 464.019 335.641L246.981 335.641C243.678 335.641 241 341.688 241 349.147 241 341.688 238.322 335.641 235.019 335.641L17.9809 335.641C14.6777 335.641 11.9999 329.594 11.9999 322.135" stroke="#000000" stroke-width="2.00084" stroke-miterlimit="8" fill="none" fill-rule="evenodd"/><text font-family="Calibri,Calibri_MSFontService,sans-serif" font-weight="700" font-size="14.6728" transform="matrix(1 0 0 1.00042 167.947 364)">Reinforcement</text><text font-family="Calibri,Calibri_MSFontService,sans-serif" font-weight="700" font-size="14.6728" transform="matrix(1 0 0 1.00042 261.947 364)">Learning</text><text font-family="Calibri,Calibri_MSFontService,sans-serif" font-weight="700" font-size="14.6728" transform="matrix(1 0 0 1.00042 207.193 381)">(</text><text font-family="Yu Gothic,Yu Gothic_MSFontService,sans-serif" font-weight="700" font-size="14.6728" transform="matrix(1 0 0 1.00042 211.693 381)">強化学習</text><text font-family="Calibri,Calibri_MSFontService,sans-serif" font-weight="700" font-size="14.6728" transform="matrix(1 0 0 1.00042 270.36 381)">)</text><text font-family="Calibri,Calibri_MSFontService,sans-serif" font-weight="700" font-size="14.6728" transform="matrix(1 0 0 1.00042 516.958 362)">Deep</text><text font-family="Calibri,Calibri_MSFontService,sans-serif" font-weight="700" font-size="14.6728" transform="matrix(1 0 0 1.00042 551.958 362)">Reinforcement</text><text font-family="Calibri,Calibri_MSFontService,sans-serif" font-weight="700" font-size="14.6728" transform="matrix(1 0 0 1.00042 645.958 362)">Learning</text><text font-family="Calibri,Calibri_MSFontService,sans-serif" font-weight="700" font-size="14.6728" transform="matrix(1 0 0 1.00042 559.038 379)">(</text><text font-family="Yu Gothic,Yu Gothic_MSFontService,sans-serif" font-weight="700" font-size="14.6728" transform="matrix(1 0 0 1.00042 563.538 379)">深層強化学習</text><text font-family="Calibri,Calibri_MSFontService,sans-serif" font-weight="700" font-size="14.6728" transform="matrix(1 0 0 1.00042 651.538 379)">)</text><path d="M191 94.0395 191 92.0386 193 92.0386 193 94.0395ZM191 90.0378 191 88.037 193 88.037 193 90.0378ZM191 86.0361 191 84.0353 193 84.0353 193 86.0361ZM191 82.0344 191 80.0336 193 80.0336 193 82.0344ZM191 78.0328 191 76.0319 193 76.0319 193 78.0328ZM191 74.0311 191 72.0302 193 72.0302 193 74.0311ZM191 70.0294 191 68.0286 193 68.0286 193 70.0294ZM191 66.0277 191 64.0269 193 64.0269 193 66.0277ZM191 62.026 191 60.0252 193 60.0252 193 62.026ZM191 58.0244 191 56.0235 193 56.0235 193 58.0244ZM191 54.0227 191 52.0218 193 52.0218 193 54.0227ZM191 50.021 191 48.0202 193 48.0202 193 50.021ZM191 46.0193 191 44.0185 193 44.0185 193 46.0193ZM191 42.0176 191 40.0168 193 40.0168 193 42.0176ZM191 38.016 191 36.0151 193 36.0151 193 38.016ZM191 34.0143 191 32.0134 193 32.0134 193 34.0143ZM191 30.0126 191 28.0118 193 28.0118 193 30.0126ZM191 26.0109 191 24.0101 193 24.0101 193 26.0109ZM194 23.0097 196 23.0097 196 25.0105 194 25.0105ZM198 23.0097 200 23.0097 200 25.0105 198 25.0105ZM202 23.0097 204 23.0097 204 25.0105 202 25.0105ZM206 23.0097 208 23.0097 208 25.0105 206 25.0105ZM210 23.0097 212 23.0097 212 25.0105 210 25.0105ZM214 23.0097 216 23.0097 216 25.0105 214 25.0105ZM218 23.0097 220 23.0097 220 25.0105 218 25.0105ZM222 23.0097 224 23.0097 224 25.0105 222 25.0105ZM226 23.0097 228 23.0097 228 25.0105 226 25.0105ZM230 23.0097 232 23.0097 232 25.0105 230 25.0105ZM234 23.0097 236 23.0097 236 25.0105 234 25.0105ZM238 23.0097 240 23.0097 240 25.0105 238 25.0105ZM242 23.0097 244 23.0097 244 25.0105 242 25.0105ZM246 23.0097 248 23.0097 248 25.0105 246 25.0105ZM250 23.0097 252 23.0097 252 25.0105 250 25.0105ZM254 23.0097 256 23.0097 256 25.0105 254 25.0105ZM258 23.0097 260 23.0097 260 25.0105 258 25.0105ZM262 23.0097 264 23.0097 264 25.0105 262 25.0105ZM266 23.0097 268 23.0097 268 25.0105 266 25.0105ZM270 23.0097 272 23.0097 272 25.0105 270 25.0105ZM274 23.0097 276 23.0097 276 25.0105 274 25.0105ZM278 23.0097 280 23.0097 280 25.0105 278 25.0105ZM282 23.0097 284 23.0097 284 25.0105 282 25.0105ZM286 23.0097 288 23.0097 288 25.0105 286 25.0105ZM290 23.0097 292 23.0097 292 25.0105 290 25.0105ZM294 23.0097 296 23.0097 296 25.0105 294 25.0105ZM298 23.0097 300 23.0097 300 25.0105 298 25.0105ZM302 23.0097 304 23.0097 304 25.0105 302 25.0105ZM306 23.0097 308 23.0097 308 25.0105 306 25.0105ZM310 23.0097 312 23.0097 312 25.0105 310 25.0105ZM314 23.0097 316 23.0097 316 25.0105 314 25.0105ZM318 23.0097 320 23.0097 320 25.0105 318 25.0105ZM322 23.0097 324 23.0097 324 25.0105 322 25.0105ZM326 23.0097 328 23.0097 328 25.0105 326 25.0105ZM330 23.0097 332 23.0097 332 25.0105 330 25.0105ZM334 23.0097 336 23.0097 336 25.0105 334 25.0105ZM337 26.0109 337 28.0118 335 28.0118 335 26.0109ZM337 30.0126 337 32.0134 335 32.0134 335 30.0126ZM337 34.0143 337 36.0151 335 36.0151 335 34.0143ZM337 38.016 337 40.0168 335 40.0168 335 38.016ZM337 42.0176 337 43.2515 335 43.2515 335 42.0176ZM340 41.9176 336 49.9209 332 41.9176Z" fill="#172C51"/><text font-family="Yu Gothic,Yu Gothic_MSFontService,sans-serif" font-weight="700" font-size="13.3389" transform="matrix(1 0 0 1.00042 341.529 37)">報酬</text><rect x="172" y="198.083" width="47" height="25.0105" fill="#FFFFFF"/><text font-family="Yu Gothic,Yu Gothic_MSFontService,sans-serif" font-weight="700" font-size="13.3389" transform="matrix(1 0 0 1.00042 182.04 215)">観測</text><rect x="432" y="198.083" width="46" height="25.0105" fill="#FFFFFF"/><text font-family="Yu Gothic,Yu Gothic_MSFontService,sans-serif" font-weight="700" font-size="13.3389" transform="matrix(1 0 0 1.00042 441.524 215)">行動</text><path d="M558 115.048C558 111.733 560.686 109.046 564 109.046 567.314 109.046 570 111.733 570 115.048 570 118.363 567.314 121.051 564 121.051 560.686 121.051 558 118.363 558 115.048Z" stroke="#172C51" stroke-width="2" stroke-miterlimit="8" fill="#FFFFFF" fill-rule="evenodd"/><path d="M558 136.057C558 132.742 560.686 130.055 564 130.055 567.314 130.055 570 132.742 570 136.057 570 139.372 567.314 142.06 564 142.06 560.686 142.06 558 139.372 558 136.057Z" stroke="#172C51" stroke-width="2" stroke-miterlimit="8" fill="#FFFFFF" fill-rule="evenodd"/><path d="M558 157.066C558 153.751 560.686 151.063 564 151.063 567.314 151.063 570 153.751 570 157.066 570 160.381 567.314 163.068 564 163.068 560.686 163.068 558 160.381 558 157.066Z" stroke="#172C51" stroke-width="2" stroke-miterlimit="8" fill="#FFFFFF" fill-rule="evenodd"/><path d="M558 178.075C558 174.76 560.686 172.072 564 172.072 567.314 172.072 570 174.76 570 178.075 570 181.39 567.314 184.077 564 184.077 560.686 184.077 558 181.39 558 178.075Z" stroke="#172C51" stroke-width="2" stroke-miterlimit="8" fill="#FFFFFF" fill-rule="evenodd"/><path d="M594 125.052C594 121.737 596.686 119.05 600 119.05 603.314 119.05 606 121.737 606 125.052 606 128.368 603.314 131.055 600 131.055 596.686 131.055 594 128.368 594 125.052Z" stroke="#172C51" stroke-width="2" stroke-miterlimit="8" fill="#FFFFFF" fill-rule="evenodd"/><path d="M594 147.062C594 143.747 596.686 141.059 600 141.059 603.314 141.059 606 143.747 606 147.062 606 150.377 603.314 153.064 600 153.064 596.686 153.064 594 150.377 594 147.062Z" stroke="#172C51" stroke-width="2" stroke-miterlimit="8" fill="#FFFFFF" fill-rule="evenodd"/><path d="M594 167.07C594 163.755 596.686 161.068 600 161.068 603.314 161.068 606 163.755 606 167.07 606 170.385 603.314 173.073 600 173.073 596.686 173.073 594 170.385 594 167.07Z" stroke="#172C51" stroke-width="2" stroke-miterlimit="8" fill="#FFFFFF" fill-rule="evenodd"/><path d="M629 126.053C629 122.738 631.686 120.05 635 120.05 638.314 120.05 641 122.738 641 126.053 641 129.368 638.314 132.055 635 132.055 631.686 132.055 629 129.368 629 126.053Z" stroke="#172C51" stroke-width="2" stroke-miterlimit="8" fill="#FFFFFF" fill-rule="evenodd"/><path d="M629 148.062C629 144.747 631.686 142.06 635 142.06 638.314 142.06 641 144.747 641 148.062 641 151.377 638.314 154.065 635 154.065 631.686 154.065 629 151.377 629 148.062Z" stroke="#172C51" stroke-width="2" stroke-miterlimit="8" fill="#FFFFFF" fill-rule="evenodd"/><path d="M629 169.071C629 165.756 631.686 163.068 635 163.068 638.314 163.068 641 165.756 641 169.071 641 172.386 638.314 175.074 635 175.074 631.686 175.074 629 172.386 629 169.071Z" stroke="#172C51" stroke-width="2" stroke-miterlimit="8" fill="#FFFFFF" fill-rule="evenodd"/><path d="M559 93.0391C559 89.724 561.686 87.0365 565 87.0365 568.314 87.0365 571 89.724 571 93.0391 571 96.3542 568.314 99.0416 565 99.0416 561.686 99.0416 559 96.3542 559 93.0391Z" stroke="#172C51" stroke-width="2" stroke-miterlimit="8" fill="#FFFFFF" fill-rule="evenodd"/><path d="M595 103.043C595 99.7282 597.686 97.0407 601 97.0407 604.314 97.0407 607 99.7282 607 103.043 607 106.358 604.314 109.046 601 109.046 597.686 109.046 595 106.358 595 103.043Z" stroke="#172C51" stroke-width="2" stroke-miterlimit="8" fill="#FFFFFF" fill-rule="evenodd"/><path d="M630 104.044C630 100.729 632.686 98.0412 636 98.0412 639.314 98.0412 642 100.729 642 104.044 642 107.359 639.314 110.046 636 110.046 632.686 110.046 630 107.359 630 104.044Z" stroke="#172C51" stroke-width="2" stroke-miterlimit="8" fill="#FFFFFF" fill-rule="evenodd"/><path d="M571 93.0391 594.438 102.834" stroke="#000000" stroke-width="2" stroke-miterlimit="8" fill="none" fill-rule="evenodd"/><path d="M571 93.0391 595.399 120.648" stroke="#000000" stroke-width="2" stroke-miterlimit="8" fill="none" fill-rule="evenodd"/><path d="M569 97.0407 595.146 142.03" stroke="#000000" stroke-width="2" stroke-miterlimit="8" fill="none" fill-rule="evenodd"/><path d="M569 97.0407 595.146 162.778" stroke="#000000" stroke-width="2" stroke-miterlimit="8" fill="none" fill-rule="evenodd"/><path d="M0 0 24.2245 12.2354" stroke="#000000" stroke-width="2" stroke-miterlimit="8" fill="none" fill-rule="evenodd" transform="matrix(1 0 0 -1.00042 570 115.284)"/><path d="M570 115.048 593.438 124.843" stroke="#000000" stroke-width="2" stroke-miterlimit="8" fill="none" fill-rule="evenodd"/><path d="M0 0 23.4378 11.3745" stroke="#000000" stroke-width="2" stroke-miterlimit="8" fill="none" fill-rule="evenodd" transform="matrix(1 0 0 -1.00042 570 136.432)"/><path d="M0 0 26.9327 23.6762" stroke="#000000" stroke-width="2" stroke-miterlimit="8" fill="none" fill-rule="evenodd" transform="matrix(1 0 0 -1.00042 569 152.74)"/><path d="M0 0 26.9327 44.415" stroke="#000000" stroke-width="2" stroke-miterlimit="8" fill="none" fill-rule="evenodd" transform="matrix(1 0 0 -1.00042 569 173.488)"/><path d="M570 115.048 595.185 142.223" stroke="#000000" stroke-width="2" stroke-miterlimit="8" fill="none" fill-rule="evenodd"/><path d="M570 136.057 593.438 146.278" stroke="#000000" stroke-width="2" stroke-miterlimit="8" fill="none" fill-rule="evenodd"/><path d="M570 136.057 595.185 162.805" stroke="#000000" stroke-width="2" stroke-miterlimit="8" fill="none" fill-rule="evenodd"/><path d="M569 120.05 595.933 163.752" stroke="#000000" stroke-width="2" stroke-miterlimit="8" fill="none" fill-rule="evenodd"/><path d="M0 0 27.7193 24.9633" stroke="#000000" stroke-width="2" stroke-miterlimit="8" fill="none" fill-rule="evenodd" transform="matrix(1 0 0 -1.00042 569 132.019)"/><path d="M0 0 27.7193 45.7022" stroke="#000000" stroke-width="2" stroke-miterlimit="8" fill="none" fill-rule="evenodd" transform="matrix(1 0 0 -1.00042 569 152.766)"/><path d="M0 0 27.7193 66.4409" stroke="#000000" stroke-width="2" stroke-miterlimit="8" fill="none" fill-rule="evenodd" transform="matrix(1 0 0 -1.00042 569 173.514)"/><path d="M0 0 23.4378 10.5222" stroke="#000000" stroke-width="2" stroke-miterlimit="8" fill="none" fill-rule="evenodd" transform="matrix(1 0 0 -1.00042 570 157.588)"/><path d="M569 161.068 594.185 167.068" stroke="#000000" stroke-width="2" stroke-miterlimit="8" fill="none" fill-rule="evenodd"/><path d="M0 0 25.1853 6.30362" stroke="#000000" stroke-width="2" stroke-miterlimit="8" fill="none" fill-rule="evenodd" transform="matrix(1 0 0 -1.00042 569 173.376)"/><path d="M0 0 26.9327 22.8239" stroke="#000000" stroke-width="2" stroke-miterlimit="8" fill="none" fill-rule="evenodd" transform="matrix(1 0 0 -1.00042 569 173.897)"/><path d="M607 103.043 630.296 104.18" stroke="#000000" stroke-width="2" stroke-miterlimit="8" fill="none" fill-rule="evenodd"/><path d="M0 0 27.5772 12.4525" stroke="#000000" stroke-width="2" stroke-miterlimit="8" fill="none" fill-rule="evenodd" transform="matrix(1 0 0 -1.00042 604 120.503)"/><path d="M0 0 27.5772 34.0436" stroke="#000000" stroke-width="2" stroke-miterlimit="8" fill="none" fill-rule="evenodd" transform="matrix(1 0 0 -1.00042 604 142.103)"/><path d="M0 0 27.5772 54.7824" stroke="#000000" stroke-width="2" stroke-miterlimit="8" fill="none" fill-rule="evenodd" transform="matrix(1 0 0 -1.00042 604 162.851)"/><path d="M607 103.043 631.257 121.995" stroke="#000000" stroke-width="2" stroke-miterlimit="8" fill="none" fill-rule="evenodd"/><path d="M606 125.052 629.296 126.189" stroke="#000000" stroke-width="2" stroke-miterlimit="8" fill="none" fill-rule="evenodd"/><path d="M0 0 25.0431 16.2362" stroke="#000000" stroke-width="2" stroke-miterlimit="8" fill="none" fill-rule="evenodd" transform="matrix(1 0 0 -1.00042 606 146.298)"/><path d="M0 0 26.7905 32.7564" stroke="#000000" stroke-width="2" stroke-miterlimit="8" fill="none" fill-rule="evenodd" transform="matrix(1 0 0 -1.00042 604 162.825)"/><path d="M607 103.043 631.257 143.595" stroke="#000000" stroke-width="2" stroke-miterlimit="8" fill="none" fill-rule="evenodd"/><path d="M604 129.054 630.791 143.351" stroke="#000000" stroke-width="2" stroke-miterlimit="8" fill="none" fill-rule="evenodd"/><path d="M606 147.062 629.296 148.199" stroke="#000000" stroke-width="2" stroke-miterlimit="8" fill="none" fill-rule="evenodd"/><path d="M0 0 25.0431 15.3839" stroke="#000000" stroke-width="2" stroke-miterlimit="8" fill="none" fill-rule="evenodd" transform="matrix(1 0 0 -1.00042 606 167.454)"/><path d="M606 167.07 629.296 168.207" stroke="#000000" stroke-width="2" stroke-miterlimit="8" fill="none" fill-rule="evenodd"/><path d="M604 151.063 630.791 164.507" stroke="#000000" stroke-width="2" stroke-miterlimit="8" fill="none" fill-rule="evenodd"/><path d="M604 129.054 630.791 164.098" stroke="#000000" stroke-width="2" stroke-miterlimit="8" fill="none" fill-rule="evenodd"/><path d="M605 107.045 631.004 164.124" stroke="#000000" stroke-width="2" stroke-miterlimit="8" fill="none" fill-rule="evenodd"/><path d="M649.5 87.5368 649.5 182.577" stroke="#172C51" stroke-width="1.33333" stroke-miterlimit="8" fill="none" fill-rule="evenodd"/><rect x="649.5" y="101.543" width="33" height="7.00294" stroke="#172C51" stroke-width="1.33333" stroke-miterlimit="8" fill="#B4C7E7"/><rect x="649.5" y="120.551" width="13" height="7.00294" stroke="#172C51" stroke-width="1.33333" stroke-miterlimit="8" fill="#B4C7E7"/><rect x="649.5" y="142.56" width="18" height="6.00252" stroke="#172C51" stroke-width="1.33333" stroke-miterlimit="8" fill="#B4C7E7"/><rect x="649.5" y="165.57" width="13" height="7.00294" stroke="#172C51" stroke-width="1.33333" stroke-miterlimit="8" fill="#B4C7E7"/><path d="M558 73.0307C558 68.3342 560.785 64.527 564.221 64.527L595.279 64.527C598.715 64.527 601.5 60.7198 601.5 56.0234 601.5 60.7198 604.285 64.527 607.721 64.527L638.779 64.527C642.215 64.527 645 68.3342 645 73.0307" stroke="#000000" stroke-width="2.00084" stroke-miterlimit="8" stroke-dasharray="2.00084 2.00084" fill="none" fill-rule="evenodd"/><path d="M512 134.056 512 132.055 514 132.055 514 134.056ZM512 130.055 512 128.054 514 128.054 514 130.055ZM512 126.053 512 124.052 514 124.052 514 126.053ZM512 122.051 512 120.05 514 120.05 514 122.051ZM512 118.05 512 116.049 514 116.049 514 118.05ZM512 114.048 512 112.047 514 112.047 514 114.048ZM512 110.046 512 108.045 514 108.045 514 110.046ZM512 106.045 512 104.044 514 104.044 514 106.045ZM512 102.043 512 100.042 514 100.042 514 102.043ZM512 98.0412 512 96.0403 514 96.0403 514 98.0412ZM512 94.0395 512 92.0386 514 92.0386 514 94.0395ZM512 90.0378 512 88.037 514 88.037 514 90.0378ZM512 86.0361 512 84.0353 514 84.0353 514 86.0361ZM512 82.0344 512 80.0336 514 80.0336 514 82.0344ZM512 78.0328 512 76.0319 514 76.0319 514 78.0328ZM512 74.0311 512 72.0302 514 72.0302 514 74.0311ZM512 70.0294 512 68.0286 514 68.0286 514 70.0294ZM512 66.0277 512 64.0269 514 64.0269 514 66.0277ZM512 62.026 512 60.0252 514 60.0252 514 62.026ZM512 58.0244 512 56.0235 514 56.0235 514 58.0244ZM512 54.0227 512 52.0218 514 52.0218 514 54.0227ZM512 50.021 512 48.0202 514 48.0202 514 50.021ZM512 46.0193 512 44.0185 514 44.0185 514 46.0193ZM512 42.0176 512 40.0168 514 40.0168 514 42.0176ZM512 38.016 512 36.0151 514 36.0151 514 38.016ZM512 34.0143 512 32.0134 514 32.0134 514 34.0143ZM512 30.0126 512 28.0118 514 28.0118M514 30.0126 513 30.0126 514 29.0122 514 30.0126ZM516 28.0118 518 28.0118 518 30.0126 516 30.0126ZM520 28.0118 522 28.0118 522 30.0126 520 30.0126ZM524 28.0118 526 28.0118 526 30.0126 524 30.0126ZM528 28.0118 530 28.0118 530 30.0126 528 30.0126ZM532 28.0118 534 28.0118 534 30.0126 532 30.0126ZM536 28.0118 538 28.0118 538 30.0126 536 30.0126ZM540 28.0118 542 28.0118 542 30.0126 540 30.0126ZM544 28.0118 546 28.0118 546 30.0126 544 30.0126ZM548 28.0118 550 28.0118 550 30.0126 548 30.0126ZM552 28.0118 554 28.0118 554 30.0126 552 30.0126ZM556 28.0118 558 28.0118 558 30.0126 556 30.0126ZM560 28.0118 562 28.0118 562 30.0126 560 30.0126ZM564 28.0118 566 28.0118 566 30.0126 564 30.0126ZM568 28.0118 570 28.0118 570 30.0126 568 30.0126ZM572 28.0118 574 28.0118 574 30.0126 572 30.0126ZM576 28.0118 578 28.0118 578 30.0126 576 30.0126ZM580 28.0118 582 28.0118 582 30.0126 580 30.0126ZM584 28.0118 586 28.0118 586 30.0126 584 30.0126ZM588 28.0118 590 28.0118 590 30.0126 588 30.0126ZM592 28.0118 594 28.0118 594 30.0126 592 30.0126ZM596 28.0118 598 28.0118 598 30.0126 596 30.0126ZM600 28.0118 602.707 28.0118 602.709 29.3021 600.709 29.3051 600.709 29.0137 601.709 30.0126 600 30.0126ZM602.712 31.2993 602.721 33.0192 602.721 33.0117 602.725 33.2927 600.725 33.3178 600.721 33.0332 600.712 31.3096ZM602.75 35.2934 602.754 35.6393 602.754 35.6245 602.799 37.2787 600.8 37.3335 600.754 35.6718 600.75 35.3185ZM602.884 39.2621 602.908 39.8137 602.928 41.2915 600.928 41.3192 600.908 39.856 600.909 39.8852 600.886 39.3482ZM605.917 40.1419 602 48.1863 597.917 40.2248Z" fill="#172C51"/><text font-family="Yu Gothic,Yu Gothic_MSFontService,sans-serif" font-weight="700" font-size="13.3389" transform="matrix(1 0 0 1.00042 609.595 41)">報酬</text><path d="M623.455 300.626 620.966 295.39 622.175 292.918 620.326 291.681 619.757 289.136 615.135 289.573 613.5 285.718 616.344 280.264 615.704 277.501 617.553 276.046 615.491 273.501 617.411 270.956 618.762 273.937 620.397 272.701 621.037 272.846 624.023 270.592 622.246 269.283 621.321 271.537 619.331 271.828 618.406 270.519 620.326 268.774 622.175 264.847 626.796 267.101 629.498 263.611C635.661 268.459 639.192 276.216 638.386 286.227 637.035 284.676 635.4 282.179 634.333 281.573 633.267 280.967 631.015 280.979 630.849 281.355L633.338 283.827 630.636 286.591 631.134 288.263 628.503 291.1 628.503 293.79 627.01 296.772 624.806 300.19 623.455 300.626Z" stroke="#172C51" stroke-width="1.33333" stroke-miterlimit="8" fill-rule="evenodd"/><path d="M617.5 257.805 614.955 260.552 614.281 263.818 613.981 266.788 610.537 267.605C609.352 268.223 608.591 271.23 606.869 270.5 605.147 269.77 608.279 266.008 608.292 264.561L606.944 261.814 607.693 258.992 605.147 261.22 603.5 258.547C605.846 257.037 612.01 255.453 617.5 257.805Z" stroke="#172C51" stroke-width="1.33333" stroke-miterlimit="8" fill-rule="evenodd"/><path d="M604.829 306.527 602.308 302.56 600.751 297.05 596.672 293.082 596.821 289.85 592.52 287.278 589.332 284.854 589.332 283.238 586.885 284.707C584.611 277.556 592.866 262.25 599.861 260.609L601.937 262.52 605.199 262.96 605.719 266.56 604.68 268.691 602.53 268.324 602.975 267.369 603.197 265.532 600.899 267.662 598.6 268.618 597.266 269.94 599.045 272.364 599.787 271.63 600.454 269.205 603.049 269.866 605.199 272.364 604.903 275.744 604.087 276.185 602.975 274.495 601.714 276.111 597.636 279.197 596.376 282.723 598.081 284.854 600.751 285.662 598.823 286.617 596.969 285.662 594.522 281.915 592.298 282.356 592.075 285.001 594.448 284.854 595.783 287.719 597.71 287.94 600.083 287.646 603.939 289.336 606.163 291.54 609.5 292.348 608.61 294.331 609.055 296.903 607.053 298.152 607.201 300.87 605.57 302.633 606.979 307.629 604.829 306.527Z" stroke="#172C51" stroke-width="1.33333" stroke-miterlimit="8" fill-rule="evenodd"/><path d="M586 281.618C586 267.529 597.641 256.108 612 256.108 626.359 256.108 638 267.529 638 281.618 638 295.707 626.359 307.129 612 307.129 597.641 307.129 586 295.707 586 281.618Z" stroke="#172C51" stroke-width="4" stroke-miterlimit="8" fill="none" fill-rule="evenodd"/><path d="M628.5 297.625 628.742 296.158C629.235 295.507 631.187 293.132 631.459 293.714 631.73 294.296 630.583 295.67 630.372 296.298L630.191 297.485 628.5 297.625Z" stroke="#172C51" stroke-width="1.33333" stroke-miterlimit="8" fill-rule="evenodd"/><path d="M724 322.135C724 329.594 720.639 335.641 716.494 335.641L614.006 335.641C609.861 335.641 606.5 341.688 606.5 349.147 606.5 341.688 603.139 335.641 598.994 335.641L496.506 335.641C492.361 335.641 489 329.594 489 322.135" stroke="#000000" stroke-width="2.00084" stroke-miterlimit="8" fill="none" fill-rule="evenodd"/><path d="M237 83.6405C237 75.0183 243.987 68.0286 252.605 68.0286L425.395 68.0286C434.013 68.0286 441 75.0183 441 83.6405L441 220.487C441 229.109 434.013 236.099 425.395 236.099L252.605 236.099C243.987 236.099 237 229.109 237 220.487Z" fill="#FF0066" fill-rule="evenodd" fill-opacity="0.101961"/><path d="M541 91.1634C541 82.254 548.219 75.0315 557.125 75.0315L671.875 75.0315C680.781 75.0315 688 82.254 688 91.1634L688 171.947C688 180.856 680.781 188.079 671.875 188.079L557.125 188.079C548.219 188.079 541 180.856 541 171.947Z" fill="#FF0066" fill-rule="evenodd" fill-opacity="0.101961"/><path d="M61 131.099C61 129.969 61.9149 129.054 63.0436 129.054L105.956 129.054C107.085 129.054 108 129.969 108 131.099L108 149.019C108 150.148 107.085 151.063 105.956 151.063L63.0436 151.063C61.9149 151.063 61 150.148 61 149.019Z" fill="#FF0066" fill-rule="evenodd" fill-opacity="0.101961"/><path d="M205.333 129.054C202.94 129.054 201 127.113 201 124.719L201 66.3612C201 63.9669 202.94 62.026 205.333 62.026L222.667 62.026C225.06 62.026 227 63.9669 227 66.3612L227 124.719C227 127.113 225.06 129.054 222.667 129.054Z" stroke="#172C51" stroke-width="2.00084" stroke-miterlimit="8" fill="#FFFFFF" fill-rule="evenodd"/><text font-family="Yu Gothic,Yu Gothic_MSFontService,sans-serif" font-weight="700" font-size="13.3389" transform="matrix(-1.83697e-16 -1.00084 0.99958 -1.83774e-16 218.053 122)">特徴抽出</text><path d="M232 16.507C232 14.0207 234.015 12.005 236.5 12.005L293.5 12.005C295.985 12.005 298 14.0207 298 16.507L298 34.5144C298 37.0008 295.985 39.0164 293.5 39.0164L236.5 39.0164C234.015 39.0164 232 37.0008 232 34.5144Z" stroke="#172C51" stroke-width="2" stroke-miterlimit="8" fill="#FFFFFF" fill-rule="evenodd"/><text font-family="Yu Gothic,Yu Gothic_MSFontService,sans-serif" font-weight="700" font-size="13.3389" transform="matrix(1 0 0 1.00042 238.328 30)">報酬関数</text><path d="M525 18.5079C525 16.0215 527.015 14.0059 529.5 14.0059L587.5 14.0059C589.985 14.0059 592 16.0215 592 18.5079L592 36.5152C592 39.0016 589.985 41.0172 587.5 41.0172L529.5 41.0172C527.015 41.0172 525 39.0016 525 36.5152Z" stroke="#172C51" stroke-width="2" stroke-miterlimit="8" fill="#FFFFFF" fill-rule="evenodd"/><text font-family="Yu Gothic,Yu Gothic_MSFontService,sans-serif" font-weight="700" font-size="13.3389" transform="matrix(1 0 0 1.00042 531.52 32)">報酬関数</text><rect x="174" y="8.00336" width="304" height="233.098" stroke="#8FAADC" stroke-width="2" stroke-miterlimit="8" stroke-dasharray="8 6" fill="none"/><rect x="495" y="7.00294" width="231" height="234.098" stroke="#8FAADC" stroke-width="2" stroke-miterlimit="8" stroke-dasharray="8 6" fill="none"/></g></svg>