<svg width="737" height="397" xmlns="http://www.w3.org/2000/svg" xmlns:xlink="http://www.w3.org/1999/xlink" overflow="hidden"><defs><clipPath id="clip0"><rect x="0" y="0" width="737" height="397"/></clipPath></defs><g clip-path="url(#clip0)"><rect x="0" y="0" width="737" height="397.167" fill="#FFFFFF"/><path d="M97.8528 215.591 95.2646 210.355 96.5217 207.882 94.5991 206.646 94.0075 204.1 89.2009 204.537 87.5001 200.683 90.458 195.228 89.7924 192.465 91.7151 191.01 89.5706 188.465 91.5672 185.92 92.9722 188.902 94.673 187.665 95.3385 187.811 98.4443 185.556 96.5956 184.247 95.6343 186.502 93.5638 186.793 92.6025 185.484 94.5991 183.738 96.5217 179.811 101.328 182.066 104.138 178.575C110.547 183.423 114.22 191.18 113.382 201.192 111.977 199.64 110.276 197.143 109.167 196.537 108.058 195.931 105.716 195.943 105.543 196.319L108.132 198.792 105.322 201.555 105.839 203.228 103.103 206.064 103.103 208.755 101.55 211.736 99.2578 215.154 97.8528 215.591Z" stroke="#172C51" stroke-width="1.33333" stroke-miterlimit="8" fill-rule="evenodd"/><path d="M91.5001 172.769 89.1364 175.516 88.5107 178.783 88.2327 181.752 85.0348 182.569C83.9341 183.188 83.2273 186.195 81.6284 185.464 80.0295 184.734 82.9377 180.973 82.9492 179.525L81.6979 176.778 82.3931 173.957 80.0295 176.184 78.5001 173.511C80.6783 172.002 86.402 170.418 91.5001 172.769Z" stroke="#172C51" stroke-width="1.33333" stroke-miterlimit="8" fill-rule="evenodd"/><path d="M79.0318 221.491 76.6204 217.524 75.1309 212.014 71.2301 208.047 71.3719 204.814 67.2583 202.243 64.2085 199.818 64.2085 198.202 61.868 199.671C59.693 192.52 67.5893 177.215 74.2798 175.574L76.2657 177.484 79.3864 177.925 79.8829 181.525 78.8899 183.655 76.8331 183.288 77.2587 182.333 77.4715 180.496 75.2728 182.627 73.0741 183.582 71.7975 184.904 73.4997 187.329 74.2089 186.594 74.8472 184.17 77.3296 184.831 79.3864 187.329 79.1027 190.708 78.3226 191.149 77.2587 189.459 76.053 191.076 72.1521 194.161 70.9464 197.688 72.5777 199.818 75.1309 200.626 73.2869 201.582 71.5138 200.626 69.1733 196.88 67.0455 197.32 66.8327 199.965 69.1023 199.818 70.379 202.684 72.223 202.904 74.4926 202.61 78.1807 204.3 80.3084 206.504 83.5001 207.312 82.649 209.296 83.0745 211.867 81.1595 213.116 81.3014 215.834 79.741 217.598 81.0886 222.594 79.0318 221.491Z" stroke="#172C51" stroke-width="1.33333" stroke-miterlimit="8" fill-rule="evenodd"/><path d="M61 196.583C61 182.493 72.6406 171.072 87 171.072 101.359 171.072 113 182.493 113 196.583 113 210.672 101.359 222.093 87 222.093 72.6406 222.093 61 210.672 61 196.583Z" stroke="#172C51" stroke-width="4" stroke-miterlimit="8" fill="none" fill-rule="evenodd"/><path d="M102.5 212.589 102.822 211.123C103.48 210.471 106.083 208.097 106.445 208.679 106.807 209.261 105.278 210.634 104.996 211.262L104.754 212.45 102.5 212.589Z" stroke="#172C51" stroke-width="1.33333" stroke-miterlimit="8" fill-rule="evenodd"/><text font-family="Yu Gothic,Yu Gothic_MSFontService,sans-serif" font-weight="700" font-size="13.3389" transform="matrix(1 0 0 1.00042 77.0281 241)">環境</text><path d="M47 126.887C47 124.216 49.164 122.051 51.8334 122.051L118.167 122.051C120.836 122.051 123 124.216 123 126.887L123 146.228C123 148.898 120.836 151.063 118.167 151.063L51.8334 151.063C49.164 151.063 47 148.898 47 146.228Z" stroke="#172C51" stroke-width="2" stroke-miterlimit="8" fill="#FFFFFF" fill-rule="evenodd"/><text font-family="Yu Gothic,Yu Gothic_MSFontService,sans-serif" font-weight="700" font-size="13.3389" transform="matrix(1 0 0 1.00042 45.2679 141)">エージェント</text><path d="M53 198.083 20 198.083 20 136.057 36.7895 136.057 36.7895 138.058 21 138.058 22 137.058 22 197.083 21 196.082 53 196.082ZM35.4561 133.056 43.4561 137.058 35.4561 141.059Z" fill="#172C51"/><rect x="-3" y="154.065" width="46" height="26.0109" fill="#FFFFFF"/><text font-family="Yu Gothic,Yu Gothic_MSFontService,sans-serif" font-weight="700" font-size="13.3389" transform="matrix(1 0 0 1.00042 6.23916 171)">観測</text><path d="M127.037 137.058 151 137.058 151 203.085 125.667 203.085 125.667 201.084 150 201.084 149 202.085 149 138.058 150 139.058 127.037 139.058ZM127 206.087 119 202.085 127 198.083Z" fill="#172C51"/><rect x="130" y="156.066" width="46" height="26.0109" fill="#FFFFFF"/><text font-family="Yu Gothic,Yu Gothic_MSFontService,sans-serif" font-weight="700" font-size="13.3389" transform="matrix(1 0 0 1.00042 139.318 173)">行動</text><path d="M232.293 94.9063 237.361 93.2467 237.776 94.5145 232.707 96.174ZM241.163 92.002 246.232 90.3425 246.647 91.6102 241.578 93.2698ZM250.033 89.0978 255.102 87.4382 255.517 88.7059 250.448 90.3655ZM258.904 86.1935 263.973 84.534 264.387 85.8017 259.319 87.4613ZM267.774 83.2893 272.843 81.6297 273.258 82.8975 268.189 84.557ZM276.645 80.385 281.713 78.7255 282.128 79.9932 277.059 81.6528ZM285.515 77.4808 286.038 77.3095 286.453 78.5772 285.93 78.7485ZM277.331 75.3436 287.503 77.5316 280.592 85.3127C280.348 85.5881 279.926 85.613 279.651 85.3683 279.376 85.1237 279.351 84.7021 279.595 84.4268L285.747 77.5004 286.105 78.5954 277.051 76.6477C276.691 76.5703 276.462 76.2156 276.539 75.8554 276.616 75.4953 276.971 75.2662 277.331 75.3436Z" fill="#172C51"/><path d="M234.777 94.9336 268.577 110.391 268.022 111.604 234.223 96.1467ZM263.509 103.04 269.503 111.548 259.15 112.58C258.783 112.617 258.457 112.349 258.42 111.982 258.384 111.616 258.651 111.289 259.017 111.253L268.233 110.334 267.755 111.382 262.419 103.809C262.207 103.508 262.279 103.091 262.58 102.879 262.881 102.667 263.297 102.739 263.509 103.04Z" fill="#172C51"/><path d="M234.426 94.8773 239.727 94.2881 239.874 95.6138 234.574 96.203ZM243.703 93.8462 249.003 93.257 249.151 94.5827 243.85 95.1719ZM252.979 92.815 258.28 92.2258 258.427 93.5516 253.126 94.1408ZM262.255 91.7839 267.556 91.1947 267.703 92.5204 262.402 93.1096ZM271.531 90.7528 276.832 90.1636 276.979 91.4893 271.679 92.0785ZM280.808 89.7217 286.108 89.1324 286.256 90.4582 280.955 91.0474ZM278.992 85.3175 288.503 89.5373 280.15 95.7428C279.854 95.9624 279.437 95.9007 279.217 95.605 278.998 95.3093 279.059 94.8915 279.355 94.6719L286.791 89.148 286.918 90.2932 278.451 86.5369C278.115 86.3876 277.963 85.9936 278.112 85.6568 278.262 85.3201 278.655 85.1682 278.992 85.3175Z" fill="#172C51"/><path d="M233.959 94.5161 239.26 95.1067 239.112 96.4324 233.812 95.8418ZM243.235 95.5495 248.536 96.1401 248.388 97.4658 243.088 96.8752ZM252.511 96.5829 257.812 97.1735 257.664 98.4992 252.364 97.9086ZM261.787 97.6163 267.088 98.2069 266.94 99.5325 261.64 98.942ZM271.063 98.6497 276.364 99.2403 276.216 100.566 270.916 99.9754ZM272.74 94.2305 281.092 100.438 271.58 104.655C271.243 104.805 270.849 104.653 270.7 104.316 270.551 103.979 270.703 103.585 271.039 103.436L279.507 99.6818 279.379 100.827 271.945 95.3012C271.649 95.0815 271.588 94.6638 271.807 94.3681 272.027 94.0724 272.445 94.0108 272.74 94.2305Z" fill="#172C51"/><path d="M228.5 96.0404C228.5 92.449 231.41 89.5376 235 89.5376 238.59 89.5376 241.5 92.449 241.5 96.0404 241.5 99.6317 238.59 102.543 235 102.543 231.41 102.543 228.5 99.6317 228.5 96.0404Z" stroke="#000000" stroke-width="1.33333" stroke-miterlimit="8" fill="#FFFFFF" fill-rule="evenodd"/><rect x="303" y="81.034" width="92" height="120.05" stroke="#172C51" stroke-width="2" stroke-miterlimit="8" stroke-dasharray="8 6" fill="#FFFFFF"/><rect x="294" y="89.0374" width="92" height="120.05" stroke="#172C51" stroke-width="2" stroke-miterlimit="8" stroke-dasharray="8 6" fill="#FFFFFF"/><rect x="285" y="100.042" width="92" height="120.05" stroke="#172C51" stroke-width="2" stroke-miterlimit="8" stroke-dasharray="8 6" fill="#FFFFFF"/><rect x="270" y="109.046" width="97" height="125.053" stroke="#172C51" stroke-width="2" stroke-miterlimit="8" fill="#FFFFFF"/><path d="M313.5 128.554 313.5 215.591" stroke="#172C51" stroke-width="1.33333" stroke-miterlimit="8" fill="none" fill-rule="evenodd"/><rect x="313.5" y="141.559" width="31" height="6.00252" stroke="#172C51" stroke-width="1.33333" stroke-miterlimit="8" fill="#B4C7E7"/><rect x="313.5" y="158.567" width="13" height="6.00252" stroke="#172C51" stroke-width="1.33333" stroke-miterlimit="8" fill="#B4C7E7"/><rect x="313.5" y="178.575" width="17" height="6.00252" stroke="#172C51" stroke-width="1.33333" stroke-miterlimit="8" fill="#B4C7E7"/><rect x="313.5" y="199.584" width="13" height="6.00252" stroke="#172C51" stroke-width="1.33333" stroke-miterlimit="8" fill="#B4C7E7"/><path d="M425.289 170.204 348.541 144.61 348.963 143.345 425.711 168.939ZM354.365 151.378 347.497 143.559 357.681 141.427C358.041 141.351 358.395 141.583 358.47 141.943 358.545 142.304 358.314 142.657 357.954 142.733L348.889 144.631 349.253 143.538 355.367 150.498C355.61 150.774 355.583 151.196 355.306 151.439 355.03 151.682 354.608 151.655 354.365 151.378Z" fill="#172C51"/><path d="M425.449 169.236 420.131 168.827 420.234 167.497 425.551 167.906ZM416.143 168.52 410.825 168.11 410.928 166.78 416.245 167.19ZM406.837 167.804 401.52 167.394 401.622 166.064 406.94 166.474ZM397.531 167.087 392.214 166.678 392.316 165.348 397.634 165.757ZM388.226 166.371 382.908 165.962 383.01 164.632 388.328 165.041ZM378.92 165.655 373.602 165.246 373.704 163.916 379.022 164.325ZM369.614 164.939 364.296 164.53 364.399 163.2 369.716 163.609ZM360.308 164.223 354.99 163.814 355.093 162.484 360.41 162.893ZM351.002 163.507 348.765 163.335 348.867 162.005 351.104 162.177ZM356.056 168.487 347.497 162.568 356.86 158.028C357.191 157.868 357.59 158.006 357.75 158.338 357.911 158.669 357.773 159.068 357.441 159.229L349.107 163.27 349.195 162.121 356.814 167.39C357.117 167.599 357.192 168.015 356.983 168.318 356.774 168.621 356.358 168.696 356.056 168.487Z" fill="#172C51"/><path d="M78.9163 10.6614 73.6252 9.99163 73.7926 8.66885 79.0837 9.33861ZM69.6568 9.48931 64.3657 8.81955 64.5332 7.49677 69.8243 8.16653ZM60.3974 8.31723 55.1063 7.64746 55.2737 6.32469 60.5648 6.99445ZM51.1379 7.14514 45.8468 6.47538 46.0143 5.1526 51.3054 5.82237ZM41.8785 5.97306 36.5874 5.3033 36.7548 3.98052 42.0459 4.65028ZM32.6191 4.80098 27.3279 4.13122 27.4954 2.80844 32.7865 3.4782ZM23.3596 3.6289 18.0685 2.95914 18.2359 1.63636 23.527 2.30612ZM14.1002 2.45682 8.80905 1.78706 8.97649 0.464277 14.2676 1.13404ZM4.84071 1.28473 1.22553 0.827116 1.39297-0.495661 5.00815-0.0380435ZM8.25461 6.32924-0.00306533-0.000387998 9.57132-4.0728C9.91013-4.21691 10.3016-4.05907 10.4457-3.72026 10.5898-3.38144 10.432-2.98995 10.0932-2.84584L1.57049 0.779243 1.71512-0.363345 9.06575 5.27102C9.35797 5.49501 9.41328 5.91348 9.18929 6.2057 8.9653 6.49792 8.54683 6.55323 8.25461 6.32924Z" fill="#172C51" transform="matrix(1 0 0 -1.00042 346.5 178.575)"/><path d="M77.747 32.6168 72.8127 30.5925 73.3188 29.3589 78.253 31.3832ZM69.1121 29.0743 64.1778 27.05 64.6839 25.8164 69.6181 27.8407ZM60.4771 25.5317 55.5429 23.5074 56.049 22.2739 60.9832 24.2982ZM51.8422 21.9892 46.908 19.9649 47.4141 18.7313 52.3483 20.7556ZM43.2073 18.4467 38.2731 16.4224 38.7792 15.1888 43.7134 17.2131ZM34.5724 14.9041 29.6382 12.8798 30.1443 11.6463 35.0785 13.6706ZM25.9375 11.3616 21.0033 9.33732 21.5094 8.10376 26.4436 10.1281ZM17.3026 7.8191 12.3684 5.7948 12.8745 4.56124 17.8087 6.58554ZM8.66771 4.27657 3.73348 2.25227 4.23955 1.01871 9.17378 3.04301ZM6.32196 8.26018-0.00285843-0.00117275 10.3016-1.44025C10.6663-1.49117 11.0032-1.23685 11.0541-0.872197 11.105-0.507546 10.8507-0.170655 10.486-0.119729L1.31343 1.16127 1.75057 0.095752 7.38065 7.44966C7.60448 7.74201 7.54892 8.16044 7.25657 8.38426 6.96422 8.60809 6.54578 8.55253 6.32196 8.26018Z" fill="#172C51" transform="matrix(1 0 0 -1.00042 347.5 200.584)"/><path d="M420.5 169.071C420.5 165.48 423.41 162.568 427 162.568 430.59 162.568 433.5 165.48 433.5 169.071 433.5 172.662 430.59 175.574 427 175.574 423.41 175.574 420.5 172.662 420.5 169.071Z" stroke="#000000" stroke-width="1.33333" stroke-miterlimit="8" fill="#FFFFFF" fill-rule="evenodd"/><text font-family="Yu Gothic,Yu Gothic_MSFontService,sans-serif" font-weight="700" font-size="13.3389" transform="matrix(1 0 0 1.00042 194.151 88)">状態</text><path d="M338.853 300.626 336.265 295.249 337.522 292.709 335.599 291.44 335.007 288.826 330.201 289.274 328.5 285.315 331.458 279.714 330.792 276.876 332.715 275.382 330.571 272.768 332.567 270.154 333.972 273.216 335.673 271.946 336.339 272.096 339.444 269.78 337.596 268.436 336.634 270.751 334.564 271.05 333.602 269.706 335.599 267.913 337.522 263.88 342.328 266.195 345.138 262.61C351.547 267.589 355.22 275.556 354.382 285.838 352.977 284.245 351.276 281.681 350.167 281.058 349.058 280.436 346.716 280.448 346.543 280.834L349.132 283.373 346.322 286.212 346.839 287.929 344.103 290.842 344.103 293.606 342.55 296.668 340.258 300.178 338.853 300.626Z" stroke="#172C51" stroke-width="1.33333" stroke-miterlimit="8" fill-rule="evenodd"/><path d="M333.5 257.805 330.955 260.552 330.281 263.818 329.981 266.788 326.538 267.605C325.352 268.223 324.591 271.23 322.869 270.5 321.147 269.77 324.279 266.008 324.292 264.561L322.944 261.814 323.693 258.992 321.147 261.22 319.5 258.547C321.846 257.037 328.01 255.453 333.5 257.805Z" stroke="#172C51" stroke-width="1.33333" stroke-miterlimit="8" fill-rule="evenodd"/><path d="M320.829 306.527 318.308 302.56 316.751 297.05 312.672 293.082 312.821 289.85 308.52 287.278 305.332 284.854 305.332 283.238 302.885 284.707C300.611 277.556 308.866 262.25 315.861 260.609L317.937 262.52 321.199 262.96 321.718 266.56 320.68 268.691 318.53 268.324 318.975 267.369 319.197 265.532 316.899 267.662 314.6 268.618 313.266 269.94 315.045 272.364 315.787 271.63 316.454 269.205 319.049 269.866 321.199 272.364 320.903 275.744 320.087 276.185 318.975 274.495 317.714 276.111 313.636 279.197 312.376 282.723 314.081 284.854 316.751 285.662 314.823 286.617 312.969 285.662 310.522 281.915 308.298 282.356 308.075 285.001 310.448 284.854 311.783 287.719 313.71 287.94 316.083 287.646 319.939 289.336 322.163 291.54 325.5 292.348 324.61 294.331 325.055 296.903 323.053 298.152 323.201 300.87 321.57 302.633 322.979 307.629 320.829 306.527Z" stroke="#172C51" stroke-width="1.33333" stroke-miterlimit="8" fill-rule="evenodd"/><path d="M302 281.618C302 267.529 313.641 256.108 328 256.108 342.359 256.108 354 267.529 354 281.618 354 295.707 342.359 307.129 328 307.129 313.641 307.129 302 295.707 302 281.618Z" stroke="#172C51" stroke-width="4" stroke-miterlimit="8" fill="none" fill-rule="evenodd"/><path d="M344.5 297.625 344.742 295.792C345.235 294.977 347.187 292.009 347.459 292.737 347.73 293.464 346.583 295.181 346.372 295.966L346.191 297.45 344.5 297.625Z" stroke="#172C51" stroke-width="1.33333" stroke-miterlimit="8" fill-rule="evenodd"/><text font-family="Yu Gothic,Yu Gothic_MSFontService,sans-serif" font-weight="700" font-size="13.3389" transform="matrix(1 0 0 1.00042 318.487 326)">環境</text><path d="M295 285.12 190 285.12 190 94.0356 194.674 94.0538 198.853 94.0917 208.047 94.2066 218.414 94.3284 218.39 96.3291 208.022 96.2073 198.829 96.0924 198.833 96.0925 194.659 96.0546 194.664 96.0547 190.996 96.0403 192 95.0399 192 284.119 191 283.119 295 283.119ZM217.096 91.3182 225.069 95.3739 217.042 99.3214Z" fill="#172C51"/><path d="M431.192 167.07 456 167.07 456 284.119 365.667 284.119 365.667 282.118 455 282.118 454 283.119 454 168.071 455 169.071 431.192 169.071ZM367 287.121 359 283.119 367 279.117Z" fill="#172C51"/><text font-family="Yu Gothic,Yu Gothic_MSFontService,sans-serif" font-weight="700" font-size="13.3389" transform="matrix(1 0 0 1.00042 273.861 148)">行動</text><text font-family="Calibri,Calibri_MSFontService,sans-serif" font-weight="700" font-size="13.3389" transform="matrix(1 0 0 1.00042 303.527 148)">1</text><text font-family="Yu Gothic,Yu Gothic_MSFontService,sans-serif" font-weight="700" font-size="13.3389" transform="matrix(1 0 0 1.00042 273.585 166)">行動</text><text font-family="Calibri,Calibri_MSFontService,sans-serif" font-weight="700" font-size="13.3389" transform="matrix(1 0 0 1.00042 303.252 166)">2</text><text font-family="Yu Gothic,Yu Gothic_MSFontService,sans-serif" font-weight="700" font-size="13.3389" transform="matrix(1 0 0 1.00042 273.194 186)">行動</text><text font-family="Calibri,Calibri_MSFontService,sans-serif" font-weight="700" font-size="13.3389" transform="matrix(1 0 0 1.00042 302.861 186)">3</text><text font-family="Yu Gothic,Yu Gothic_MSFontService,sans-serif" font-weight="700" font-size="13.3389" transform="matrix(1 0 0 1.00042 273.115 207)">行動</text><text font-family="Calibri,Calibri_MSFontService,sans-serif" font-weight="700" font-size="13.3389" transform="matrix(1 0 0 1.00042 302.781 207)">4</text><text font-family="Calibri,Calibri_MSFontService,sans-serif" font-weight="700" font-size="13.3389" transform="matrix(1 0 0 1.00042 300.13 126)">(</text><text font-family="Yu Gothic,Yu Gothic_MSFontService,sans-serif" font-weight="700" font-size="13.3389" transform="matrix(1 0 0 1.00042 304.296 126)">状態</text><text font-family="Calibri,Calibri_MSFontService,sans-serif" font-weight="700" font-size="13.3389" transform="matrix(1 0 0 1.00042 333.963 126)">4)</text><text font-family="Yu Gothic,Yu Gothic_MSFontService,sans-serif" font-weight="700" font-size="13.3389" transform="matrix(1 0 0 1.00042 301.2 228)">行動の質</text><path d="M232 70.0294C232 65.0568 234.949 61.0257 238.587 61.0257L325.913 61.0257C329.551 61.0257 332.5 56.9945 332.5 52.0219 332.5 56.9945 335.449 61.0257 339.087 61.0257L426.413 61.0257C430.051 61.0257 433 65.0568 433 70.0294" stroke="#000000" stroke-width="2.00084" stroke-miterlimit="8" stroke-dasharray="2.00084 2.00084" fill="none" fill-rule="evenodd"/><rect x="494" y="5.0021" width="230" height="193.081" stroke="#8FAADC" stroke-width="2" stroke-miterlimit="8" stroke-dasharray="8 6" fill="none"/><path d="M124 124.052 181 5.0021" stroke="#8FAADC" stroke-width="2" stroke-miterlimit="8" stroke-dasharray="8 6" fill="none" fill-rule="evenodd"/><path d="M0 91 56 0" stroke="#8FAADC" stroke-width="2" stroke-miterlimit="8" stroke-dasharray="8 6" fill="none" fill-rule="evenodd" transform="matrix(1 0 0 -1.00042 123 242.102)"/><text font-family="Yu Gothic,Yu Gothic_MSFontService,sans-serif" font-weight="700" font-size="13.3389" transform="matrix(1 0 0 1.00042 598.361 326)">環境</text><path d="M581 283.119 512 283.119 512 133.056 534.471 133.056 534.471 135.057 513 135.057 514 134.056 514 282.118 513 281.118 581 281.118ZM533.138 130.055 541.138 134.056 533.138 138.058Z" fill="#172C51"/><path d="M687.843 102.043 707 102.043 707 285.131 651.655 284.496 651.678 282.495 706.011 283.119 705 284.119 705 103.043 706 104.044 687.843 104.044ZM652.954 287.512 645 283.419 653.045 279.509Z"/><rect x="683" y="216.091" width="46" height="26.0109" fill="#FFFFFF"/><text font-family="Yu Gothic,Yu Gothic_MSFontService,sans-serif" font-weight="700" font-size="13.3389" transform="matrix(1 0 0 1.00042 692.777 233)">行動</text><text font-family="Yu Gothic,Yu Gothic_MSFontService,sans-serif" font-weight="700" font-size="13.3389" transform="matrix(1 0 0 1.00042 515.043 124)">状態</text><rect x="488" y="214.09" width="46" height="26.0109" fill="#FFFFFF"/><text font-family="Yu Gothic,Yu Gothic_MSFontService,sans-serif" font-weight="700" font-size="13.3389" transform="matrix(1 0 0 1.00042 497.979 231)">観測</text><path d="M470 322.135C470 329.594 467.322 335.641 464.019 335.641L246.981 335.641C243.678 335.641 241 341.688 241 349.147 241 341.688 238.322 335.641 235.019 335.641L17.9809 335.641C14.6777 335.641 11.9999 329.594 11.9999 322.135" stroke="#000000" stroke-width="2.00084" stroke-miterlimit="8" fill="none" fill-rule="evenodd"/><text font-family="Calibri,Calibri_MSFontService,sans-serif" font-weight="700" font-size="14.6728" transform="matrix(1 0 0 1.00042 167.947 364)">Reinforcement</text><text font-family="Calibri,Calibri_MSFontService,sans-serif" font-weight="700" font-size="14.6728" transform="matrix(1 0 0 1.00042 261.947 364)">Learning</text><text font-family="Calibri,Calibri_MSFontService,sans-serif" font-weight="700" font-size="14.6728" transform="matrix(1 0 0 1.00042 207.193 381)">(</text><text font-family="Yu Gothic,Yu Gothic_MSFontService,sans-serif" font-weight="700" font-size="14.6728" transform="matrix(1 0 0 1.00042 211.693 381)">強化学習</text><text font-family="Calibri,Calibri_MSFontService,sans-serif" font-weight="700" font-size="14.6728" transform="matrix(1 0 0 1.00042 270.36 381)">)</text><text font-family="Calibri,Calibri_MSFontService,sans-serif" font-weight="700" font-size="14.6728" transform="matrix(1 0 0 1.00042 516.958 362)">Deep</text><text font-family="Calibri,Calibri_MSFontService,sans-serif" font-weight="700" font-size="14.6728" transform="matrix(1 0 0 1.00042 551.958 362)">Reinforcement</text><text font-family="Calibri,Calibri_MSFontService,sans-serif" font-weight="700" font-size="14.6728" transform="matrix(1 0 0 1.00042 645.958 362)">Learning</text><text font-family="Calibri,Calibri_MSFontService,sans-serif" font-weight="700" font-size="14.6728" transform="matrix(1 0 0 1.00042 559.038 379)">(</text><text font-family="Yu Gothic,Yu Gothic_MSFontService,sans-serif" font-weight="700" font-size="14.6728" transform="matrix(1 0 0 1.00042 563.538 379)">深層強化学習</text><text font-family="Calibri,Calibri_MSFontService,sans-serif" font-weight="700" font-size="14.6728" transform="matrix(1 0 0 1.00042 651.538 379)">)</text><rect x="179" y="8.00336" width="291" height="233.098" stroke="#8FAADC" stroke-width="2" stroke-miterlimit="8" stroke-dasharray="8 6" fill="none"/><path d="M190 95.0399 190 93.0391 192 93.0391 192 95.0399ZM190 91.0382 190 89.0374 192 89.0374 192 91.0382ZM190 87.0365 190 85.0357 192 85.0357 192 87.0365ZM190 83.0349 190 81.034 192 81.034 192 83.0349ZM190 79.0332 190 77.0323 192 77.0323 192 79.0332ZM190 75.0315 190 73.0307 192 73.0307 192 75.0315ZM190 71.0298 190 69.029 192 69.029 192 71.0298ZM190 67.0281 190 65.0273 192 65.0273 192 67.0281ZM190 63.0265 190 61.0256 192 61.0256 192 63.0265ZM190 59.0248 190 57.0239 192 57.0239 192 59.0248ZM190 55.0231 190 53.0223 192 53.0223 192 55.0231ZM190 51.0214 190 49.0206 192 49.0206 192 51.0214ZM190 47.0197 190 45.0189 192 45.0189 192 47.0197ZM190 43.0181 190 41.0172 192 41.0172 192 43.0181ZM190 39.0164 190 37.0155 192 37.0155 192 39.0164ZM190 35.0147 190 33.0139 192 33.0139 192 35.0147ZM190 31.013 190 29.0122 192 29.0122 192 31.013ZM190 27.0113 190 25.0105 192 25.0105 192 27.0113ZM190 23.0097 190 21.0088 192 21.0088 192 23.0097ZM193 20.0084 195 20.0084 195 22.0092 193 22.0092ZM197 20.0084 199 20.0084 199 22.0092 197 22.0092ZM201 20.0084 203 20.0084 203 22.0092 201 22.0092ZM205 20.0084 207 20.0084 207 22.0092 205 22.0092ZM209 20.0084 211 20.0084 211 22.0092 209 22.0092ZM213 20.0084 215 20.0084 215 22.0092 213 22.0092ZM217 20.0084 219 20.0084 219 22.0092 217 22.0092ZM221 20.0084 223 20.0084 223 22.0092 221 22.0092ZM225 20.0084 227 20.0084 227 22.0092 225 22.0092ZM229 20.0084 231 20.0084 231 22.0092 229 22.0092ZM233 20.0084 235 20.0084 235 22.0092 233 22.0092ZM237 20.0084 239 20.0084 239 22.0092 237 22.0092ZM241 20.0084 243 20.0084 243 22.0092 241 22.0092ZM245 20.0084 247 20.0084 247 22.0092 245 22.0092ZM249 20.0084 251 20.0084 251 22.0092 249 22.0092ZM253 20.0084 255 20.0084 255 22.0092 253 22.0092ZM257 20.0084 259 20.0084 259 22.0092 257 22.0092ZM261 20.0084 263 20.0084 263 22.0092 261 22.0092ZM265 20.0084 267 20.0084 267 22.0092 265 22.0092ZM269 20.0084 271 20.0084 271 22.0092 269 22.0092ZM273 20.0084 275 20.0084 275 22.0092 273 22.0092ZM277 20.0084 279 20.0084 279 22.0092 277 22.0092ZM281 20.0084 283 20.0084 283 22.0092 281 22.0092ZM285 20.0084 287 20.0084 287 22.0092 285 22.0092ZM289 20.0084 291 20.0084 291 22.0092 289 22.0092ZM293 20.0084 295 20.0084 295 22.0092 293 22.0092ZM297 20.0084 299 20.0084 299 22.0092 297 22.0092ZM301 20.0084 303 20.0084 303 22.0092 301 22.0092ZM305 20.0084 307 20.0084 307 22.0092 305 22.0092ZM309 20.0084 311 20.0084 311 22.0092 309 22.0092ZM313 20.0084 315 20.0084 315 22.0092 313 22.0092ZM317 20.0084 319 20.0084 319 22.0092 317 22.0092ZM321 20.0084 323 20.0084 323 22.0092 321 22.0092ZM325 20.0084 327 20.0084 327 22.0092 325 22.0092ZM329 20.0084 331 20.0084 331 22.0092 329 22.0092ZM332 21.0088 332 23.0097 334 23.0097 334 21.0088ZM334 25.0105 334 27.0113 332 27.0113 332 25.0105ZM334 29.0122 334 31.013 332 31.013 332 29.0122ZM334 33.0139 334 35.0147 332 35.0147 332 33.0139ZM334 37.0155 334 39.0164 332 39.0164 332 37.0155ZM334 41.0172 334 41.7308 332 41.7308 332 41.0172ZM337 40.3969 333 48.4003 329 40.3969Z" fill="#172C51"/><text font-family="Yu Gothic,Yu Gothic_MSFontService,sans-serif" font-weight="700" font-size="13.3389" transform="matrix(1 0 0 1.00042 337.263 35)">報酬</text><rect x="168" y="249.105" width="47" height="26.0109" fill="#FFFFFF"/><text font-family="Yu Gothic,Yu Gothic_MSFontService,sans-serif" font-weight="700" font-size="13.3389" transform="matrix(1 0 0 1.00042 177.933 266)">観測</text><rect x="432" y="249.105" width="46" height="26.0109" fill="#FFFFFF"/><text font-family="Yu Gothic,Yu Gothic_MSFontService,sans-serif" font-weight="700" font-size="13.3389" transform="matrix(1 0 0 1.00042 441.151 266)">行動</text><path d="M558 115.048C558 111.733 560.686 109.046 564 109.046 567.314 109.046 570 111.733 570 115.048 570 118.363 567.314 121.051 564 121.051 560.686 121.051 558 118.363 558 115.048Z" stroke="#172C51" stroke-width="2" stroke-miterlimit="8" fill="#FFFFFF" fill-rule="evenodd"/><path d="M558 136.057C558 132.742 560.686 130.055 564 130.055 567.314 130.055 570 132.742 570 136.057 570 139.372 567.314 142.06 564 142.06 560.686 142.06 558 139.372 558 136.057Z" stroke="#172C51" stroke-width="2" stroke-miterlimit="8" fill="#FFFFFF" fill-rule="evenodd"/><path d="M558 157.066C558 153.751 560.686 151.063 564 151.063 567.314 151.063 570 153.751 570 157.066 570 160.381 567.314 163.068 564 163.068 560.686 163.068 558 160.381 558 157.066Z" stroke="#172C51" stroke-width="2" stroke-miterlimit="8" fill="#FFFFFF" fill-rule="evenodd"/><path d="M558 178.075C558 174.76 560.686 172.072 564 172.072 567.314 172.072 570 174.76 570 178.075 570 181.39 567.314 184.077 564 184.077 560.686 184.077 558 181.39 558 178.075Z" stroke="#172C51" stroke-width="2" stroke-miterlimit="8" fill="#FFFFFF" fill-rule="evenodd"/><path d="M594 125.052C594 121.737 596.686 119.05 600 119.05 603.314 119.05 606 121.737 606 125.052 606 128.368 603.314 131.055 600 131.055 596.686 131.055 594 128.368 594 125.052Z" stroke="#172C51" stroke-width="2" stroke-miterlimit="8" fill="#FFFFFF" fill-rule="evenodd"/><path d="M594 147.062C594 143.747 596.686 141.059 600 141.059 603.314 141.059 606 143.747 606 147.062 606 150.377 603.314 153.064 600 153.064 596.686 153.064 594 150.377 594 147.062Z" stroke="#172C51" stroke-width="2" stroke-miterlimit="8" fill="#FFFFFF" fill-rule="evenodd"/><path d="M594 167.07C594 163.755 596.686 161.068 600 161.068 603.314 161.068 606 163.755 606 167.07 606 170.385 603.314 173.073 600 173.073 596.686 173.073 594 170.385 594 167.07Z" stroke="#172C51" stroke-width="2" stroke-miterlimit="8" fill="#FFFFFF" fill-rule="evenodd"/><path d="M629 126.053C629 122.738 631.686 120.05 635 120.05 638.314 120.05 641 122.738 641 126.053 641 129.368 638.314 132.055 635 132.055 631.686 132.055 629 129.368 629 126.053Z" stroke="#172C51" stroke-width="2" stroke-miterlimit="8" fill="#FFFFFF" fill-rule="evenodd"/><path d="M629 148.062C629 144.747 631.686 142.06 635 142.06 638.314 142.06 641 144.747 641 148.062 641 151.377 638.314 154.065 635 154.065 631.686 154.065 629 151.377 629 148.062Z" stroke="#172C51" stroke-width="2" stroke-miterlimit="8" fill="#FFFFFF" fill-rule="evenodd"/><path d="M629 169.071C629 165.756 631.686 163.068 635 163.068 638.314 163.068 641 165.756 641 169.071 641 172.386 638.314 175.074 635 175.074 631.686 175.074 629 172.386 629 169.071Z" stroke="#172C51" stroke-width="2" stroke-miterlimit="8" fill="#FFFFFF" fill-rule="evenodd"/><path d="M559 93.0391C559 89.724 561.686 87.0365 565 87.0365 568.314 87.0365 571 89.724 571 93.0391 571 96.3542 568.314 99.0416 565 99.0416 561.686 99.0416 559 96.3542 559 93.0391Z" stroke="#172C51" stroke-width="2" stroke-miterlimit="8" fill="#FFFFFF" fill-rule="evenodd"/><path d="M595 103.043C595 99.7282 597.686 97.0407 601 97.0407 604.314 97.0407 607 99.7282 607 103.043 607 106.358 604.314 109.046 601 109.046 597.686 109.046 595 106.358 595 103.043Z" stroke="#172C51" stroke-width="2" stroke-miterlimit="8" fill="#FFFFFF" fill-rule="evenodd"/><path d="M630 104.044C630 100.729 632.686 98.0412 636 98.0412 639.314 98.0412 642 100.729 642 104.044 642 107.359 639.314 110.046 636 110.046 632.686 110.046 630 107.359 630 104.044Z" stroke="#172C51" stroke-width="2" stroke-miterlimit="8" fill="#FFFFFF" fill-rule="evenodd"/><path d="M571 93.0391 594.438 102.834" stroke="#000000" stroke-width="2" stroke-miterlimit="8" fill="none" fill-rule="evenodd"/><path d="M571 93.0391 595.399 120.648" stroke="#000000" stroke-width="2" stroke-miterlimit="8" fill="none" fill-rule="evenodd"/><path d="M569 97.0407 595.146 142.03" stroke="#000000" stroke-width="2" stroke-miterlimit="8" fill="none" fill-rule="evenodd"/><path d="M569 97.0407 595.146 162.778" stroke="#000000" stroke-width="2" stroke-miterlimit="8" fill="none" fill-rule="evenodd"/><path d="M0 0 24.2245 12.2354" stroke="#000000" stroke-width="2" stroke-miterlimit="8" fill="none" fill-rule="evenodd" transform="matrix(1 0 0 -1.00042 570 115.284)"/><path d="M570 115.048 593.438 124.843" stroke="#000000" stroke-width="2" stroke-miterlimit="8" fill="none" fill-rule="evenodd"/><path d="M0 0 23.4378 11.3745" stroke="#000000" stroke-width="2" stroke-miterlimit="8" fill="none" fill-rule="evenodd" transform="matrix(1 0 0 -1.00042 570 136.432)"/><path d="M0 0 26.9327 23.6762" stroke="#000000" stroke-width="2" stroke-miterlimit="8" fill="none" fill-rule="evenodd" transform="matrix(1 0 0 -1.00042 569 152.74)"/><path d="M0 0 26.9327 44.415" stroke="#000000" stroke-width="2" stroke-miterlimit="8" fill="none" fill-rule="evenodd" transform="matrix(1 0 0 -1.00042 569 173.488)"/><path d="M570 115.048 595.185 142.223" stroke="#000000" stroke-width="2" stroke-miterlimit="8" fill="none" fill-rule="evenodd"/><path d="M570 136.057 593.438 146.278" stroke="#000000" stroke-width="2" stroke-miterlimit="8" fill="none" fill-rule="evenodd"/><path d="M570 136.057 595.185 162.805" stroke="#000000" stroke-width="2" stroke-miterlimit="8" fill="none" fill-rule="evenodd"/><path d="M569 120.05 595.933 163.752" stroke="#000000" stroke-width="2" stroke-miterlimit="8" fill="none" fill-rule="evenodd"/><path d="M0 0 27.7193 24.9633" stroke="#000000" stroke-width="2" stroke-miterlimit="8" fill="none" fill-rule="evenodd" transform="matrix(1 0 0 -1.00042 569 132.019)"/><path d="M0 0 27.7193 45.7022" stroke="#000000" stroke-width="2" stroke-miterlimit="8" fill="none" fill-rule="evenodd" transform="matrix(1 0 0 -1.00042 569 152.766)"/><path d="M0 0 27.7193 66.4409" stroke="#000000" stroke-width="2" stroke-miterlimit="8" fill="none" fill-rule="evenodd" transform="matrix(1 0 0 -1.00042 569 173.514)"/><path d="M0 0 23.4378 10.5222" stroke="#000000" stroke-width="2" stroke-miterlimit="8" fill="none" fill-rule="evenodd" transform="matrix(1 0 0 -1.00042 570 157.588)"/><path d="M569 161.068 594.185 167.068" stroke="#000000" stroke-width="2" stroke-miterlimit="8" fill="none" fill-rule="evenodd"/><path d="M0 0 25.1853 6.30362" stroke="#000000" stroke-width="2" stroke-miterlimit="8" fill="none" fill-rule="evenodd" transform="matrix(1 0 0 -1.00042 569 173.376)"/><path d="M0 0 26.9327 22.8239" stroke="#000000" stroke-width="2" stroke-miterlimit="8" fill="none" fill-rule="evenodd" transform="matrix(1 0 0 -1.00042 569 173.897)"/><path d="M607 103.043 630.296 104.18" stroke="#000000" stroke-width="2" stroke-miterlimit="8" fill="none" fill-rule="evenodd"/><path d="M0 0 27.5772 12.4525" stroke="#000000" stroke-width="2" stroke-miterlimit="8" fill="none" fill-rule="evenodd" transform="matrix(1 0 0 -1.00042 604 120.503)"/><path d="M0 0 27.5772 34.0436" stroke="#000000" stroke-width="2" stroke-miterlimit="8" fill="none" fill-rule="evenodd" transform="matrix(1 0 0 -1.00042 604 142.103)"/><path d="M0 0 27.5772 54.7824" stroke="#000000" stroke-width="2" stroke-miterlimit="8" fill="none" fill-rule="evenodd" transform="matrix(1 0 0 -1.00042 604 162.851)"/><path d="M607 103.043 631.257 121.995" stroke="#000000" stroke-width="2" stroke-miterlimit="8" fill="none" fill-rule="evenodd"/><path d="M606 125.052 629.296 126.189" stroke="#000000" stroke-width="2" stroke-miterlimit="8" fill="none" fill-rule="evenodd"/><path d="M0 0 25.0431 16.2362" stroke="#000000" stroke-width="2" stroke-miterlimit="8" fill="none" fill-rule="evenodd" transform="matrix(1 0 0 -1.00042 606 146.298)"/><path d="M0 0 26.7905 32.7564" stroke="#000000" stroke-width="2" stroke-miterlimit="8" fill="none" fill-rule="evenodd" transform="matrix(1 0 0 -1.00042 604 162.825)"/><path d="M607 103.043 631.257 143.595" stroke="#000000" stroke-width="2" stroke-miterlimit="8" fill="none" fill-rule="evenodd"/><path d="M604 129.054 630.791 143.351" stroke="#000000" stroke-width="2" stroke-miterlimit="8" fill="none" fill-rule="evenodd"/><path d="M606 147.062 629.296 148.199" stroke="#000000" stroke-width="2" stroke-miterlimit="8" fill="none" fill-rule="evenodd"/><path d="M0 0 25.0431 15.3839" stroke="#000000" stroke-width="2" stroke-miterlimit="8" fill="none" fill-rule="evenodd" transform="matrix(1 0 0 -1.00042 606 167.454)"/><path d="M606 167.07 629.296 168.207" stroke="#000000" stroke-width="2" stroke-miterlimit="8" fill="none" fill-rule="evenodd"/><path d="M604 151.063 630.791 164.507" stroke="#000000" stroke-width="2" stroke-miterlimit="8" fill="none" fill-rule="evenodd"/><path d="M604 129.054 630.791 164.098" stroke="#000000" stroke-width="2" stroke-miterlimit="8" fill="none" fill-rule="evenodd"/><path d="M605 107.045 631.004 164.124" stroke="#000000" stroke-width="2" stroke-miterlimit="8" fill="none" fill-rule="evenodd"/><path d="M649.5 87.5368 649.5 182.577" stroke="#172C51" stroke-width="1.33333" stroke-miterlimit="8" fill="none" fill-rule="evenodd"/><rect x="649.5" y="101.543" width="33" height="7.00294" stroke="#172C51" stroke-width="1.33333" stroke-miterlimit="8" fill="#B4C7E7"/><rect x="649.5" y="120.551" width="13" height="7.00294" stroke="#172C51" stroke-width="1.33333" stroke-miterlimit="8" fill="#B4C7E7"/><rect x="649.5" y="142.56" width="18" height="6.00252" stroke="#172C51" stroke-width="1.33333" stroke-miterlimit="8" fill="#B4C7E7"/><rect x="649.5" y="165.57" width="13" height="7.00294" stroke="#172C51" stroke-width="1.33333" stroke-miterlimit="8" fill="#B4C7E7"/><path d="M558 73.0307C558 68.3342 560.785 64.527 564.221 64.527L595.279 64.527C598.715 64.527 601.5 60.7198 601.5 56.0234 601.5 60.7198 604.285 64.527 607.721 64.527L638.779 64.527C642.215 64.527 645 68.3342 645 73.0307" stroke="#000000" stroke-width="2.00084" stroke-miterlimit="8" stroke-dasharray="2.00084 2.00084" fill="none" fill-rule="evenodd"/><path d="M512 134.056 512 132.055 514 132.055 514 134.056ZM512 130.055 512 128.054 514 128.054 514 130.055ZM512 126.053 512 124.052 514 124.052 514 126.053ZM512 122.051 512 120.05 514 120.05 514 122.051ZM512 118.05 512 116.049 514 116.049 514 118.05ZM512 114.048 512 112.047 514 112.047 514 114.048ZM512 110.046 512 108.045 514 108.045 514 110.046ZM512 106.045 512 104.044 514 104.044 514 106.045ZM512 102.043 512 100.042 514 100.042 514 102.043ZM512 98.0412 512 96.0403 514 96.0403 514 98.0412ZM512 94.0395 512 92.0386 514 92.0386 514 94.0395ZM512 90.0378 512 88.037 514 88.037 514 90.0378ZM512 86.0361 512 84.0353 514 84.0353 514 86.0361ZM512 82.0344 512 80.0336 514 80.0336 514 82.0344ZM512 78.0328 512 76.0319 514 76.0319 514 78.0328ZM512 74.0311 512 72.0302 514 72.0302 514 74.0311ZM512 70.0294 512 68.0286 514 68.0286 514 70.0294ZM512 66.0277 512 64.0269 514 64.0269 514 66.0277ZM512 62.026 512 60.0252 514 60.0252 514 62.026ZM512 58.0244 512 56.0235 514 56.0235 514 58.0244ZM512 54.0227 512 52.0218 514 52.0218 514 54.0227ZM512 50.021 512 48.0202 514 48.0202 514 50.021ZM512 46.0193 512 44.0185 514 44.0185 514 46.0193ZM512 42.0176 512 40.0168 514 40.0168 514 42.0176ZM512 38.016 512 36.0151 514 36.0151 514 38.016ZM512 34.0143 512 32.0134 514 32.0134 514 34.0143ZM512 30.0126 512 28.0118 514 28.0118M514 30.0126 513 30.0126 514 29.0122 514 30.0126ZM516 28.0118 518 28.0118 518 30.0126 516 30.0126ZM520 28.0118 522 28.0118 522 30.0126 520 30.0126ZM524 28.0118 526 28.0118 526 30.0126 524 30.0126ZM528 28.0118 530 28.0118 530 30.0126 528 30.0126ZM532 28.0118 534 28.0118 534 30.0126 532 30.0126ZM536 28.0118 538 28.0118 538 30.0126 536 30.0126ZM540 28.0118 542 28.0118 542 30.0126 540 30.0126ZM544 28.0118 546 28.0118 546 30.0126 544 30.0126ZM548 28.0118 550 28.0118 550 30.0126 548 30.0126ZM552 28.0118 554 28.0118 554 30.0126 552 30.0126ZM556 28.0118 558 28.0118 558 30.0126 556 30.0126ZM560 28.0118 562 28.0118 562 30.0126 560 30.0126ZM564 28.0118 566 28.0118 566 30.0126 564 30.0126ZM568 28.0118 570 28.0118 570 30.0126 568 30.0126ZM572 28.0118 574 28.0118 574 30.0126 572 30.0126ZM576 28.0118 578 28.0118 578 30.0126 576 30.0126ZM580 28.0118 582 28.0118 582 30.0126 580 30.0126ZM584 28.0118 586 28.0118 586 30.0126 584 30.0126ZM588 28.0118 590 28.0118 590 30.0126 588 30.0126ZM592 28.0118 594 28.0118 594 30.0126 592 30.0126ZM596 28.0118 598 28.0118 598 30.0126 596 30.0126ZM600 28.0118 602.707 28.0118 602.709 29.3021 600.709 29.3051 600.709 29.0137 601.709 30.0126 600 30.0126ZM602.712 31.2993 602.721 33.0192 602.721 33.0117 602.725 33.2927 600.725 33.3178 600.721 33.0332 600.712 31.3096ZM602.75 35.2934 602.754 35.6393 602.754 35.6245 602.799 37.2787 600.8 37.3335 600.754 35.6718 600.75 35.3185ZM602.884 39.2621 602.908 39.8137 602.928 41.2915 600.928 41.3192 600.908 39.856 600.909 39.8852 600.886 39.3482ZM605.917 40.1419 602 48.1863 597.917 40.2248Z" fill="#172C51"/><text font-family="Yu Gothic,Yu Gothic_MSFontService,sans-serif" font-weight="700" font-size="13.3389" transform="matrix(1 0 0 1.00042 609.595 41)">報酬</text><path d="M623.455 300.626 620.966 295.39 622.175 292.918 620.326 291.681 619.757 289.136 615.135 289.573 613.5 285.718 616.344 280.264 615.704 277.501 617.553 276.046 615.491 273.501 617.411 270.956 618.762 273.937 620.397 272.701 621.037 272.846 624.023 270.592 622.246 269.283 621.321 271.537 619.331 271.828 618.406 270.519 620.326 268.774 622.175 264.847 626.796 267.101 629.498 263.611C635.661 268.459 639.192 276.216 638.386 286.227 637.035 284.676 635.4 282.179 634.333 281.573 633.267 280.967 631.015 280.979 630.849 281.355L633.338 283.827 630.636 286.591 631.134 288.263 628.503 291.1 628.503 293.79 627.01 296.772 624.806 300.19 623.455 300.626Z" stroke="#172C51" stroke-width="1.33333" stroke-miterlimit="8" fill-rule="evenodd"/><path d="M617.5 257.805 614.955 260.552 614.281 263.818 613.981 266.788 610.537 267.605C609.352 268.223 608.591 271.23 606.869 270.5 605.147 269.77 608.279 266.008 608.292 264.561L606.944 261.814 607.693 258.992 605.147 261.22 603.5 258.547C605.846 257.037 612.01 255.453 617.5 257.805Z" stroke="#172C51" stroke-width="1.33333" stroke-miterlimit="8" fill-rule="evenodd"/><path d="M604.829 306.527 602.308 302.56 600.751 297.05 596.672 293.082 596.821 289.85 592.52 287.278 589.332 284.854 589.332 283.238 586.885 284.707C584.611 277.556 592.866 262.25 599.861 260.609L601.937 262.52 605.199 262.96 605.719 266.56 604.68 268.691 602.53 268.324 602.975 267.369 603.197 265.532 600.899 267.662 598.6 268.618 597.266 269.94 599.045 272.364 599.787 271.63 600.454 269.205 603.049 269.866 605.199 272.364 604.903 275.744 604.087 276.185 602.975 274.495 601.714 276.111 597.636 279.197 596.376 282.723 598.081 284.854 600.751 285.662 598.823 286.617 596.969 285.662 594.522 281.915 592.298 282.356 592.075 285.001 594.448 284.854 595.783 287.719 597.71 287.94 600.083 287.646 603.939 289.336 606.163 291.54 609.5 292.348 608.61 294.331 609.055 296.903 607.053 298.152 607.201 300.87 605.57 302.633 606.979 307.629 604.829 306.527Z" stroke="#172C51" stroke-width="1.33333" stroke-miterlimit="8" fill-rule="evenodd"/><path d="M586 281.618C586 267.529 597.641 256.108 612 256.108 626.359 256.108 638 267.529 638 281.618 638 295.707 626.359 307.129 612 307.129 597.641 307.129 586 295.707 586 281.618Z" stroke="#172C51" stroke-width="4" stroke-miterlimit="8" fill="none" fill-rule="evenodd"/><path d="M628.5 297.625 628.742 296.158C629.235 295.507 631.187 293.132 631.459 293.714 631.73 294.296 630.583 295.67 630.372 296.298L630.191 297.485 628.5 297.625Z" stroke="#172C51" stroke-width="1.33333" stroke-miterlimit="8" fill-rule="evenodd"/><path d="M724 322.135C724 329.594 720.639 335.641 716.494 335.641L614.006 335.641C609.861 335.641 606.5 341.688 606.5 349.147 606.5 341.688 603.139 335.641 598.994 335.641L496.506 335.641C492.361 335.641 489 329.594 489 322.135" stroke="#000000" stroke-width="2.00084" stroke-miterlimit="8" fill="none" fill-rule="evenodd"/></g></svg>