<svg width="559" height="378" xmlns="http://www.w3.org/2000/svg" xmlns:xlink="http://www.w3.org/1999/xlink" overflow="hidden"><defs><clipPath id="clip0"><rect x="0" y="0" width="559" height="378"/></clipPath></defs><g clip-path="url(#clip0)"><rect x="0" y="0" width="559" height="378.225" fill="#FFFFFF"/><path d="M25.5694 31.4709C23.4981 23.4333 34.163 16.0314 49.39 14.9381 55.5602 14.495 61.8335 15.1573 67.2063 16.8189 72.8993 11.1542 86.2029 9.00139 96.9205 12.0103 98.7946 12.5365 100.515 13.2034 102.027 13.9902 106.461 9.29461 117.261 7.38693 126.149 9.72923 128.61 10.3775 130.756 11.3151 132.423 12.47 139.569 8.02946 152.198 7.48095 160.629 11.2448 164.173 12.8268 166.561 15.0087 167.385 17.4165 179.094 19.1031 186.002 25.4915 182.814 31.6855 182.546 32.2062 182.209 32.7164 181.807 33.2124 191.198 39.6665 188.899 48.917 176.672 53.8741 172.866 55.4172 168.371 56.4162 163.62 56.7748 163.514 63.7184 152.757 69.3021 139.593 69.2464 135.195 69.2278 130.892 68.5677 127.161 67.3392 122.709 75.1237 107.178 79.5237 92.4722 77.1667 86.3092 76.1789 80.9843 74.09 77.4056 71.2561 62.3488 76.0504 42.8056 73.4715 33.7547 65.4958 33.6406 65.3953 33.5285 65.2941 33.4185 65.1924 23.5644 65.8013 14.6385 62.0893 13.482 56.9014 12.8655 54.1361 14.5946 51.3684 18.2085 49.3357 9.67637 46.6839 6.81026 40.8636 11.8069 36.3356 14.6895 33.7233 19.7453 31.9964 25.4195 31.6859Z" fill="#FFCCFF" fill-rule="evenodd" fill-opacity="0.501961"/><path d="M31.6659 83.2511C31.6659 84.3103 30.8077 85.1689 29.7492 85.1689 28.6907 85.1689 27.8326 84.3103 27.8326 83.2511 27.8326 82.192 28.6907 81.3333 29.7492 81.3333 30.8077 81.3333 31.6659 82.192 31.6659 83.2511Z" fill="#FFCCFF" fill-rule="evenodd" fill-opacity="0.501961"/><path d="M39.0045 80.0788C39.0045 82.1971 37.2882 83.9144 35.1712 83.9144 33.0541 83.9144 31.3379 82.1971 31.3379 80.0788 31.3379 77.9604 33.0541 76.2432 35.1712 76.2432 37.2882 76.2432 39.0045 77.9604 39.0045 80.0788Z" fill="#FFCCFF" fill-rule="evenodd" fill-opacity="0.501961"/><path d="M49.6522 74.9705C49.6522 78.148 47.0778 80.7239 43.9022 80.7239 40.7266 80.7239 38.1522 78.148 38.1522 74.9705 38.1522 71.793 40.7266 69.2171 43.9022 69.2171 47.0778 69.2171 49.6522 71.793 49.6522 74.9705Z" fill="#FFCCFF" fill-rule="evenodd" fill-opacity="0.501961"/><path d="M25.5694 31.4709C23.4981 23.4333 34.163 16.0314 49.39 14.9381 55.5602 14.495 61.8335 15.1573 67.2063 16.8189 72.8993 11.1542 86.2029 9.00139 96.9205 12.0103 98.7946 12.5365 100.515 13.2034 102.027 13.9902 106.461 9.29461 117.261 7.38693 126.149 9.72923 128.61 10.3775 130.756 11.3151 132.423 12.47 139.569 8.02946 152.198 7.48095 160.629 11.2448 164.173 12.8268 166.561 15.0087 167.385 17.4165 179.094 19.1031 186.002 25.4915 182.814 31.6855 182.546 32.2062 182.209 32.7164 181.807 33.2124 191.198 39.6665 188.899 48.917 176.672 53.8741 172.866 55.4172 168.371 56.4162 163.62 56.7748 163.514 63.7184 152.757 69.3021 139.593 69.2464 135.195 69.2278 130.892 68.5677 127.161 67.3392 122.709 75.1237 107.178 79.5237 92.4722 77.1667 86.3092 76.1789 80.9843 74.09 77.4056 71.2561 62.3488 76.0504 42.8056 73.4715 33.7547 65.4958 33.6406 65.3953 33.5285 65.2941 33.4185 65.1924 23.5644 65.8013 14.6385 62.0893 13.482 56.9014 12.8655 54.1361 14.5946 51.3684 18.2085 49.3357 9.67637 46.6839 6.81026 40.8636 11.8069 36.3356 14.6895 33.7233 19.7453 31.9964 25.4195 31.6859Z" stroke="#7F7F7F" stroke-width="1.33254" stroke-miterlimit="8" fill="none" fill-rule="evenodd"/><path d="M31.6659 83.2511C31.6659 84.3103 30.8077 85.1689 29.7492 85.1689 28.6907 85.1689 27.8326 84.3103 27.8326 83.2511 27.8326 82.192 28.6907 81.3333 29.7492 81.3333 30.8077 81.3333 31.6659 82.192 31.6659 83.2511Z" stroke="#7F7F7F" stroke-width="1.33254" stroke-miterlimit="8" fill="none" fill-rule="evenodd"/><path d="M39.0045 80.0788C39.0045 82.1971 37.2882 83.9144 35.1712 83.9144 33.0541 83.9144 31.3379 82.1971 31.3379 80.0788 31.3379 77.9604 33.0541 76.2432 35.1712 76.2432 37.2882 76.2432 39.0045 77.9604 39.0045 80.0788Z" stroke="#7F7F7F" stroke-width="1.33254" stroke-miterlimit="8" fill="none" fill-rule="evenodd"/><path d="M49.6522 74.9705C49.6522 78.148 47.0778 80.7239 43.9022 80.7239 40.7266 80.7239 38.1522 78.148 38.1522 74.9705 38.1522 71.793 40.7266 69.2171 43.9022 69.2171 47.0778 69.2171 49.6522 71.793 49.6522 74.9705Z" stroke="#7F7F7F" stroke-width="1.33254" stroke-miterlimit="8" fill="none" fill-rule="evenodd"/><path d="M28.8368 50.3405C25.1943 50.4911 21.5522 50.0466 18.3995 49.0668M38.0459 64.2798C36.5811 64.5877 35.0457 64.7926 33.4793 64.8894M77.3954 70.9777C76.2937 70.1053 75.3713 69.1731 74.6439 68.1969M128.278 64.0433C128.116 65.078 127.748 66.1008 127.179 67.0946M150.124 45.1896C158.383 47.3116 163.595 51.7481 163.521 56.5936M181.723 33.0435C180.386 34.6934 178.344 36.1571 175.758 37.3197M167.409 17.1768C167.637 17.8431 167.742 18.5194 167.724 19.1963M129.312 14.8211C130.089 13.8894 131.119 13.0219 132.368 12.2455M100.729 16.0485C101.046 15.2785 101.543 14.5324 102.209 13.8273M67.1851 16.8028C69.1292 17.404 70.9276 18.1276 72.5411 18.9578M26.5047 33.7387C26.0804 32.9971 25.7678 32.239 25.57 31.4714" stroke="#7F7F7F" stroke-width="1.33254" stroke-miterlimit="8" fill="none" fill-rule="evenodd"/><text font-family="Yu Gothic,Yu Gothic_MSFontService,sans-serif" font-weight="700" font-size="13.3333" transform="matrix(1 0 0 1.0006 31.8224 29)">人間がアノテーション</text><text font-family="Yu Gothic,Yu Gothic_MSFontService,sans-serif" font-weight="700" font-size="13.3333" transform="matrix(1 0 0 1.0006 38.4851 45)">を付けたデータが</text><text font-family="Yu Gothic,Yu Gothic_MSFontService,sans-serif" font-weight="700" font-size="13.3333" transform="matrix(1 0 0 1.0006 31.8224 61)">もうすぐ枯渇しそう</text><path d="M210.569 31.4709C208.498 23.4333 219.163 16.0314 234.39 14.9381 240.56 14.495 246.834 15.1573 252.206 16.8189 257.899 11.1542 271.203 9.00139 281.921 12.0103 283.795 12.5365 285.515 13.2034 287.027 13.9902 291.461 9.29461 302.261 7.38693 311.149 9.72923 313.61 10.3775 315.756 11.3151 317.423 12.47 324.569 8.02946 337.198 7.48095 345.629 11.2448 349.173 12.8268 351.561 15.0087 352.385 17.4165 364.094 19.1031 371.002 25.4915 367.814 31.6855 367.546 32.2062 367.209 32.7164 366.807 33.2124 376.198 39.6665 373.899 48.917 361.672 53.8741 357.866 55.4172 353.371 56.4162 348.62 56.7748 348.514 63.7184 337.757 69.3021 324.593 69.2464 320.195 69.2278 315.892 68.5677 312.161 67.3392 307.709 75.1237 292.178 79.5237 277.472 77.1667 271.309 76.1789 265.984 74.09 262.406 71.2561 247.349 76.0504 227.806 73.4715 218.755 65.4958 218.641 65.3953 218.529 65.2941 218.418 65.1924 208.564 65.8013 199.639 62.0893 198.482 56.9014 197.866 54.1361 199.595 51.3684 203.209 49.3357 194.676 46.6839 191.81 40.8636 196.807 36.3356 199.69 33.7233 204.745 31.9964 210.419 31.6859Z" fill="#FFCCFF" fill-rule="evenodd" fill-opacity="0.501961"/><path d="M216.666 83.2511C216.666 84.3103 215.808 85.1689 214.749 85.1689 213.691 85.1689 212.833 84.3103 212.833 83.2511 212.833 82.192 213.691 81.3333 214.749 81.3333 215.808 81.3333 216.666 82.192 216.666 83.2511Z" fill="#FFCCFF" fill-rule="evenodd" fill-opacity="0.501961"/><path d="M224.004 80.0788C224.004 82.1971 222.288 83.9144 220.171 83.9144 218.054 83.9144 216.338 82.1971 216.338 80.0788 216.338 77.9604 218.054 76.2432 220.171 76.2432 222.288 76.2432 224.004 77.9604 224.004 80.0788Z" fill="#FFCCFF" fill-rule="evenodd" fill-opacity="0.501961"/><path d="M234.652 74.9705C234.652 78.148 232.078 80.7239 228.902 80.7239 225.727 80.7239 223.152 78.148 223.152 74.9705 223.152 71.793 225.727 69.2171 228.902 69.2171 232.078 69.2171 234.652 71.793 234.652 74.9705Z" fill="#FFCCFF" fill-rule="evenodd" fill-opacity="0.501961"/><path d="M210.569 31.4709C208.498 23.4333 219.163 16.0314 234.39 14.9381 240.56 14.495 246.834 15.1573 252.206 16.8189 257.899 11.1542 271.203 9.00139 281.921 12.0103 283.795 12.5365 285.515 13.2034 287.027 13.9902 291.461 9.29461 302.261 7.38693 311.149 9.72923 313.61 10.3775 315.756 11.3151 317.423 12.47 324.569 8.02946 337.198 7.48095 345.629 11.2448 349.173 12.8268 351.561 15.0087 352.385 17.4165 364.094 19.1031 371.002 25.4915 367.814 31.6855 367.546 32.2062 367.209 32.7164 366.807 33.2124 376.198 39.6665 373.899 48.917 361.672 53.8741 357.866 55.4172 353.371 56.4162 348.62 56.7748 348.514 63.7184 337.757 69.3021 324.593 69.2464 320.195 69.2278 315.892 68.5677 312.161 67.3392 307.709 75.1237 292.178 79.5237 277.472 77.1667 271.309 76.1789 265.984 74.09 262.406 71.2561 247.349 76.0504 227.806 73.4715 218.755 65.4958 218.641 65.3953 218.529 65.2941 218.418 65.1924 208.564 65.8013 199.639 62.0893 198.482 56.9014 197.866 54.1361 199.595 51.3684 203.209 49.3357 194.676 46.6839 191.81 40.8636 196.807 36.3356 199.69 33.7233 204.745 31.9964 210.419 31.6859Z" stroke="#7F7F7F" stroke-width="1.33254" stroke-miterlimit="8" fill="none" fill-rule="evenodd"/><path d="M216.666 83.2511C216.666 84.3103 215.808 85.1689 214.749 85.1689 213.691 85.1689 212.833 84.3103 212.833 83.2511 212.833 82.192 213.691 81.3333 214.749 81.3333 215.808 81.3333 216.666 82.192 216.666 83.2511Z" stroke="#7F7F7F" stroke-width="1.33254" stroke-miterlimit="8" fill="none" fill-rule="evenodd"/><path d="M224.004 80.0788C224.004 82.1971 222.288 83.9144 220.171 83.9144 218.054 83.9144 216.338 82.1971 216.338 80.0788 216.338 77.9604 218.054 76.2432 220.171 76.2432 222.288 76.2432 224.004 77.9604 224.004 80.0788Z" stroke="#7F7F7F" stroke-width="1.33254" stroke-miterlimit="8" fill="none" fill-rule="evenodd"/><path d="M234.652 74.9705C234.652 78.148 232.078 80.7239 228.902 80.7239 225.727 80.7239 223.152 78.148 223.152 74.9705 223.152 71.793 225.727 69.2171 228.902 69.2171 232.078 69.2171 234.652 71.793 234.652 74.9705Z" stroke="#7F7F7F" stroke-width="1.33254" stroke-miterlimit="8" fill="none" fill-rule="evenodd"/><path d="M213.837 50.3405C210.194 50.4911 206.552 50.0466 203.4 49.0668M223.046 64.2798C221.581 64.5877 220.046 64.7926 218.479 64.8894M262.395 70.9777C261.294 70.1053 260.371 69.1731 259.644 68.1969M313.278 64.0433C313.116 65.078 312.748 66.1008 312.179 67.0946M335.124 45.1896C343.383 47.3116 348.595 51.7481 348.521 56.5936M366.723 33.0435C365.386 34.6934 363.344 36.1571 360.758 37.3197M352.409 17.1768C352.637 17.8431 352.742 18.5194 352.724 19.1963M314.312 14.8211C315.089 13.8894 316.119 13.0219 317.368 12.2455M285.729 16.0485C286.046 15.2785 286.543 14.5324 287.209 13.8273M252.185 16.8028C254.129 17.404 255.928 18.1276 257.541 18.9578M211.505 33.7387C211.08 32.9971 210.768 32.239 210.57 31.4714" stroke="#7F7F7F" stroke-width="1.33254" stroke-miterlimit="8" fill="none" fill-rule="evenodd"/><text font-family="Yu Gothic,Yu Gothic_MSFontService,sans-serif" font-weight="700" font-size="13.3333" transform="matrix(1 0 0 1.0006 223.481 29)">人間の知識や思考が</text><text font-family="Calibri,Calibri_MSFontService,sans-serif" font-weight="700" font-size="13.3333" transform="matrix(1 0 0 1.0006 224.393 45)">AI</text><text font-family="Yu Gothic,Yu Gothic_MSFontService,sans-serif" font-weight="700" font-size="13.3333" transform="matrix(1 0 0 1.0006 235.887 45)">の発展をジャマ</text><text font-family="Yu Gothic,Yu Gothic_MSFontService,sans-serif" font-weight="700" font-size="13.3333" transform="matrix(1 0 0 1.0006 216.818 61)">することになりそう</text><path d="M361.861 104.184C360.139 96.612 369.006 89.6391 381.667 88.6092 386.797 88.1919 392.013 88.8158 396.481 90.381 401.214 85.0448 412.275 83.0167 421.187 85.8512 422.745 86.3469 424.175 86.9751 425.433 87.7163 429.119 83.2929 438.099 81.4958 445.49 83.7024 447.535 84.3131 449.319 85.1963 450.705 86.2842 456.648 82.1011 467.148 81.5844 474.158 85.1301 477.104 86.6203 479.09 88.6758 479.775 90.944 489.511 92.5328 495.255 98.5509 492.604 104.386 492.381 104.876 492.101 105.357 491.767 105.824 499.575 111.904 497.664 120.618 487.497 125.288 484.333 126.742 480.595 127.683 476.645 128.021 476.557 134.562 467.613 139.822 456.667 139.769 453.01 139.752 449.433 139.13 446.331 137.973 442.629 145.306 429.715 149.451 417.488 147.23 412.364 146.3 407.936 144.332 404.961 141.662 392.442 146.179 376.192 143.749 368.667 136.236 368.572 136.141 368.479 136.046 368.387 135.95 360.194 136.524 352.773 133.027 351.811 128.14 351.298 125.535 352.736 122.928 355.741 121.013 348.647 118.515 346.264 113.032 350.418 108.766 352.815 106.305 357.019 104.679 361.736 104.386Z" fill="#DEEBF7" fill-rule="evenodd" fill-opacity="0.501961"/><path d="M486.923 148.716C486.923 149.714 486.115 150.523 485.117 150.523 484.12 150.523 483.312 149.714 483.312 148.716 483.312 147.719 484.12 146.91 485.117 146.91 486.115 146.91 486.923 147.719 486.923 148.716Z" fill="#DEEBF7" fill-rule="evenodd" fill-opacity="0.501961"/><path d="M484.532 146.461C484.532 148.457 482.915 150.075 480.921 150.075 478.927 150.075 477.31 148.457 477.31 146.461 477.31 144.466 478.927 142.848 480.921 142.848 482.915 142.848 484.532 144.466 484.532 146.461Z" fill="#DEEBF7" fill-rule="evenodd" fill-opacity="0.501961"/><path d="M478.96 142.497C478.96 145.49 476.535 147.917 473.543 147.917 470.552 147.917 468.126 145.49 468.126 142.497 468.126 139.504 470.552 137.077 473.543 137.077 476.535 137.077 478.96 139.504 478.96 142.497Z" fill="#DEEBF7" fill-rule="evenodd" fill-opacity="0.501961"/><path d="M361.861 104.184C360.139 96.612 369.006 89.6391 381.667 88.6092 386.797 88.1919 392.013 88.8158 396.481 90.381 401.214 85.0448 412.275 83.0167 421.187 85.8512 422.745 86.3469 424.175 86.9751 425.433 87.7163 429.119 83.2929 438.099 81.4958 445.49 83.7024 447.535 84.3131 449.319 85.1963 450.705 86.2842 456.648 82.1011 467.148 81.5844 474.158 85.1301 477.104 86.6203 479.09 88.6758 479.775 90.944 489.511 92.5328 495.255 98.5509 492.604 104.386 492.381 104.876 492.101 105.357 491.767 105.824 499.575 111.904 497.664 120.618 487.497 125.288 484.333 126.742 480.595 127.683 476.645 128.021 476.557 134.562 467.613 139.822 456.667 139.769 453.01 139.752 449.433 139.13 446.331 137.973 442.629 145.306 429.715 149.451 417.488 147.23 412.364 146.3 407.936 144.332 404.961 141.662 392.442 146.179 376.192 143.749 368.667 136.236 368.572 136.141 368.479 136.046 368.387 135.95 360.194 136.524 352.773 133.027 351.811 128.14 351.298 125.535 352.736 122.928 355.741 121.013 348.647 118.515 346.264 113.032 350.418 108.766 352.815 106.305 357.019 104.679 361.736 104.386Z" stroke="#7F7F7F" stroke-width="1.33254" stroke-miterlimit="8" fill="none" fill-rule="evenodd"/><path d="M486.923 148.716C486.923 149.714 486.115 150.523 485.117 150.523 484.12 150.523 483.312 149.714 483.312 148.716 483.312 147.719 484.12 146.91 485.117 146.91 486.115 146.91 486.923 147.719 486.923 148.716Z" stroke="#7F7F7F" stroke-width="1.33254" stroke-miterlimit="8" fill="none" fill-rule="evenodd"/><path d="M484.532 146.461C484.532 148.457 482.915 150.075 480.921 150.075 478.927 150.075 477.31 148.457 477.31 146.461 477.31 144.466 478.927 142.848 480.921 142.848 482.915 142.848 484.532 144.466 484.532 146.461Z" stroke="#7F7F7F" stroke-width="1.33254" stroke-miterlimit="8" fill="none" fill-rule="evenodd"/><path d="M478.96 142.497C478.96 145.49 476.535 147.917 473.543 147.917 470.552 147.917 468.126 145.49 468.126 142.497 468.126 139.504 470.552 137.077 473.543 137.077 476.535 137.077 478.96 139.504 478.96 142.497Z" stroke="#7F7F7F" stroke-width="1.33254" stroke-miterlimit="8" fill="none" fill-rule="evenodd"/><path d="M364.578 121.959C361.549 122.101 358.521 121.682 355.9 120.759M372.235 135.091C371.017 135.381 369.74 135.574 368.438 135.665M404.952 141.4C404.036 140.578 403.269 139.7 402.665 138.781M447.259 134.868C447.124 135.843 446.818 136.806 446.346 137.742M465.423 117.107C472.29 119.106 476.624 123.285 476.563 127.85M491.697 105.665C490.585 107.219 488.887 108.598 486.737 109.693M479.795 90.7182C479.985 91.3458 480.072 91.9829 480.057 92.6206M448.119 88.499C448.765 87.6213 449.621 86.8041 450.66 86.0728M424.353 89.6553C424.617 88.9299 425.031 88.2271 425.584 87.5628M396.463 90.3659C398.079 90.9322 399.575 91.6139 400.916 92.3959M362.639 106.32C362.286 105.621 362.026 104.907 361.862 104.184" stroke="#7F7F7F" stroke-width="1.33254" stroke-miterlimit="8" fill="none" fill-rule="evenodd"/><text font-family="Calibri,Calibri_MSFontService,sans-serif" font-weight="700" font-size="13.3333" transform="matrix(1 0 0 1.0006 377.522 101)">AI</text><text font-family="Yu Gothic,Yu Gothic_MSFontService,sans-serif" font-weight="700" font-size="13.3333" transform="matrix(1 0 0 1.0006 389.015 101)">が自分で経験を</text><text font-family="Yu Gothic,Yu Gothic_MSFontService,sans-serif" font-weight="700" font-size="13.3333" transform="matrix(1 0 0 1.0006 376.602 117)">積めるように</text><text font-family="Yu Gothic,Yu Gothic_MSFontService,sans-serif" font-weight="700" font-size="13.3333" transform="matrix(1 0 0 1.0006 383.265 133)">なれば良い</text><path d="M339.5 159.762C339.5 158.012 340.918 156.593 342.667 156.593L534.333 156.593C536.082 156.593 537.5 158.012 537.5 159.762L537.5 172.436C537.5 174.186 536.082 175.605 534.333 175.605L342.667 175.605C340.918 175.605 339.5 174.186 339.5 172.436Z" stroke="#172C51" stroke-width="1.33254" stroke-miterlimit="8" fill="none" fill-rule="evenodd"/><text font-family="Yu Gothic Light,Yu Gothic Light_MSFontService,sans-serif" font-weight="700" font-size="13.3333" transform="matrix(1 0 0 1.0006 343.945 169)">Welcome to the</text><text font-family="Yu Gothic Light,Yu Gothic Light_MSFontService,sans-serif" font-weight="700" font-size="13.3333" transform="matrix(1 0 0 1.0006 434.557 169)">Era</text><text font-family="Yu Gothic Light,Yu Gothic Light_MSFontService,sans-serif" font-weight="700" font-size="13.3333" transform="matrix(1 0 0 1.0006 457.044 169)">of</text><text font-family="Yu Gothic Light,Yu Gothic Light_MSFontService,sans-serif" font-weight="700" font-size="13.3333" transform="matrix(1 0 0 1.0006 471.369 169)">Experience</text><path d="M41.2361 190.241C39.7234 183.718 47.5123 177.711 58.6332 176.823 63.1395 176.464 67.7211 177.001 71.6451 178.35 75.8029 173.752 85.5189 172.005 93.3465 174.447 94.7152 174.874 95.9714 175.415 97.0759 176.054 100.314 172.243 108.202 170.695 114.693 172.596 116.49 173.122 118.057 173.883 119.275 174.82 124.494 171.216 133.717 170.771 139.875 173.826 142.463 175.11 144.208 176.881 144.809 178.835 153.361 180.204 158.406 185.388 156.077 190.415 155.882 190.838 155.636 191.252 155.342 191.655 162.201 196.893 160.522 204.4 151.592 208.424 148.812 209.676 145.529 210.487 142.059 210.778 141.982 216.413 134.126 220.945 124.512 220.9 121.3 220.885 118.157 220.349 115.432 219.352 112.181 225.67 100.838 229.241 90.0977 227.328 85.5966 226.526 81.7076 224.831 79.094 222.531 68.0975 226.422 53.8244 224.329 47.2141 217.856 47.1308 217.774 47.049 217.692 46.9686 217.609 39.7718 218.104 33.2529 215.091 32.4082 210.88 31.958 208.636 33.2208 206.39 35.8602 204.74 29.6288 202.588 27.5356 197.864 31.1848 194.189 33.2901 192.069 36.9825 190.668 41.1266 190.416Z" fill="#FFCCFF" fill-rule="evenodd" fill-opacity="0.501961"/><path d="M41.4087 232.341C41.4087 233.2 40.7122 233.897 39.8531 233.897 38.9939 233.897 38.2975 233.2 38.2975 232.341 38.2975 231.481 38.9939 230.784 39.8531 230.784 40.7122 230.784 41.4087 231.481 41.4087 232.341Z" fill="#FFCCFF" fill-rule="evenodd" fill-opacity="0.501961"/><path d="M47.632 229.546C47.632 231.265 46.2391 232.659 44.5209 232.659 42.8027 232.659 41.4098 231.265 41.4098 229.546 41.4098 227.827 42.8027 226.433 44.5209 226.433 46.2391 226.433 47.632 227.827 47.632 229.546Z" fill="#FFCCFF" fill-rule="evenodd" fill-opacity="0.501961"/><path d="M56.5249 225.152C56.5249 227.731 54.4355 229.822 51.8582 229.822 49.2808 229.822 47.1914 227.731 47.1914 225.152 47.1914 222.573 49.2808 220.483 51.8582 220.483 54.4355 220.483 56.5249 222.573 56.5249 225.152Z" fill="#FFCCFF" fill-rule="evenodd" fill-opacity="0.501961"/><path d="M41.2361 190.241C39.7234 183.718 47.5123 177.711 58.6332 176.823 63.1395 176.464 67.7211 177.001 71.6451 178.35 75.8029 173.752 85.5189 172.005 93.3465 174.447 94.7152 174.874 95.9714 175.415 97.0759 176.054 100.314 172.243 108.202 170.695 114.693 172.596 116.49 173.122 118.057 173.883 119.275 174.82 124.494 171.216 133.717 170.771 139.875 173.826 142.463 175.11 144.208 176.881 144.809 178.835 153.361 180.204 158.406 185.388 156.077 190.415 155.882 190.838 155.636 191.252 155.342 191.655 162.201 196.893 160.522 204.4 151.592 208.424 148.812 209.676 145.529 210.487 142.059 210.778 141.982 216.413 134.126 220.945 124.512 220.9 121.3 220.885 118.157 220.349 115.432 219.352 112.181 225.67 100.838 229.241 90.0977 227.328 85.5966 226.526 81.7076 224.831 79.094 222.531 68.0975 226.422 53.8244 224.329 47.2141 217.856 47.1308 217.774 47.049 217.692 46.9686 217.609 39.7718 218.104 33.2529 215.091 32.4082 210.88 31.958 208.636 33.2208 206.39 35.8602 204.74 29.6288 202.588 27.5356 197.864 31.1848 194.189 33.2901 192.069 36.9825 190.668 41.1266 190.416Z" stroke="#7F7F7F" stroke-width="1.33254" stroke-miterlimit="8" fill="none" fill-rule="evenodd"/><path d="M41.4087 232.341C41.4087 233.2 40.7122 233.897 39.8531 233.897 38.9939 233.897 38.2975 233.2 38.2975 232.341 38.2975 231.481 38.9939 230.784 39.8531 230.784 40.7122 230.784 41.4087 231.481 41.4087 232.341Z" stroke="#7F7F7F" stroke-width="1.33254" stroke-miterlimit="8" fill="none" fill-rule="evenodd"/><path d="M47.632 229.546C47.632 231.265 46.2391 232.659 44.5209 232.659 42.8027 232.659 41.4098 231.265 41.4098 229.546 41.4098 227.827 42.8027 226.433 44.5209 226.433 46.2391 226.433 47.632 227.827 47.632 229.546Z" stroke="#7F7F7F" stroke-width="1.33254" stroke-miterlimit="8" fill="none" fill-rule="evenodd"/><path d="M56.5249 225.152C56.5249 227.731 54.4355 229.822 51.8582 229.822 49.2808 229.822 47.1914 227.731 47.1914 225.152 47.1914 222.573 49.2808 220.483 51.8582 220.483 54.4355 220.483 56.5249 222.573 56.5249 225.152Z" stroke="#7F7F7F" stroke-width="1.33254" stroke-miterlimit="8" fill="none" fill-rule="evenodd"/><path d="M43.6224 205.556C40.9622 205.678 38.3022 205.317 35.9996 204.522M50.3481 216.869C49.2784 217.119 48.157 217.285 47.013 217.363M79.0866 222.305C78.2819 221.597 77.6083 220.84 77.077 220.048M116.248 216.677C116.13 217.517 115.861 218.347 115.445 219.153M132.203 201.375C138.235 203.097 142.041 206.698 141.987 210.631M155.281 191.518C154.304 192.857 152.813 194.045 150.924 194.988M144.827 178.64C144.993 179.181 145.07 179.73 145.057 180.279M117.003 176.728C117.571 175.972 118.323 175.268 119.235 174.638M96.128 177.724C96.3596 177.1 96.7227 176.494 97.209 175.922M71.6296 178.337C73.0494 178.825 74.3629 179.412 75.5413 180.086M41.9192 192.082C41.6093 191.48 41.381 190.865 41.2366 190.242" stroke="#7F7F7F" stroke-width="1.33254" stroke-miterlimit="8" fill="none" fill-rule="evenodd"/><text font-family="Yu Gothic,Yu Gothic_MSFontService,sans-serif" font-weight="700" font-size="13.3333" transform="matrix(1 0 0 1.0006 49.2688 194)">報酬関数は誰が</text><text font-family="Yu Gothic,Yu Gothic_MSFontService,sans-serif" font-weight="700" font-size="13.3333" transform="matrix(1 0 0 1.0006 55.9315 210)">用意する？</text><path d="M185.403 193.904C183.611 186.449 192.838 179.584 206.012 178.57 211.35 178.159 216.777 178.773 221.426 180.314 226.351 175.06 237.861 173.063 247.134 175.854 248.755 176.342 250.243 176.961 251.552 177.69 255.388 173.335 264.731 171.566 272.421 173.738 274.55 174.34 276.407 175.209 277.849 176.28 284.032 172.162 294.958 171.653 302.252 175.144 305.318 176.611 307.384 178.635 308.097 180.868 318.228 182.433 324.204 188.358 321.445 194.104 321.214 194.586 320.923 195.06 320.575 195.52 328.7 201.506 326.711 210.086 316.132 214.684 312.839 216.116 308.95 217.042 304.84 217.375 304.748 223.815 295.441 228.994 284.052 228.943 280.247 228.925 276.525 228.313 273.297 227.174 269.445 234.394 256.008 238.475 243.285 236.289 237.953 235.373 233.346 233.435 230.25 230.807 217.223 235.254 200.315 232.862 192.484 225.464 192.386 225.371 192.289 225.277 192.194 225.182 183.668 225.747 175.946 222.304 174.945 217.492 174.412 214.927 175.908 212.36 179.034 210.475 171.653 208.015 169.173 202.617 173.496 198.417 175.99 195.994 180.364 194.392 185.273 194.104Z" fill="#FFCCFF" fill-rule="evenodd" fill-opacity="0.501961"/><path d="M166.919 225.128C166.919 226.11 166.123 226.906 165.141 226.906 164.159 226.906 163.364 226.11 163.364 225.128 163.364 224.145 164.159 223.349 165.141 223.349 166.123 223.349 166.919 224.145 166.919 225.128Z" fill="#FFCCFF" fill-rule="evenodd" fill-opacity="0.501961"/><path d="M173.241 224.01C173.241 225.975 171.65 227.567 169.686 227.567 167.722 227.567 166.13 225.975 166.13 224.01 166.13 222.045 167.722 220.452 169.686 220.452 171.65 220.452 173.241 222.045 173.241 224.01Z" fill="#FFCCFF" fill-rule="evenodd" fill-opacity="0.501961"/><path d="M183.017 222.042C183.017 224.99 180.629 227.379 177.683 227.379 174.738 227.379 172.35 224.99 172.35 222.042 172.35 219.095 174.738 216.706 177.683 216.706 180.629 216.706 183.017 219.095 183.017 222.042Z" fill="#FFCCFF" fill-rule="evenodd" fill-opacity="0.501961"/><path d="M185.403 193.904C183.611 186.449 192.838 179.584 206.012 178.57 211.35 178.159 216.777 178.773 221.426 180.314 226.351 175.06 237.861 173.063 247.134 175.854 248.755 176.342 250.243 176.961 251.552 177.69 255.388 173.335 264.731 171.566 272.421 173.738 274.55 174.34 276.407 175.209 277.849 176.28 284.032 172.162 294.958 171.653 302.252 175.144 305.318 176.611 307.384 178.635 308.097 180.868 318.228 182.433 324.204 188.358 321.445 194.104 321.214 194.586 320.923 195.06 320.575 195.52 328.7 201.506 326.711 210.086 316.132 214.684 312.839 216.116 308.95 217.042 304.84 217.375 304.748 223.815 295.441 228.994 284.052 228.943 280.247 228.925 276.525 228.313 273.297 227.174 269.445 234.394 256.008 238.475 243.285 236.289 237.953 235.373 233.346 233.435 230.25 230.807 217.223 235.254 200.315 232.862 192.484 225.464 192.386 225.371 192.289 225.277 192.194 225.182 183.668 225.747 175.946 222.304 174.945 217.492 174.412 214.927 175.908 212.36 179.034 210.475 171.653 208.015 169.173 202.617 173.496 198.417 175.99 195.994 180.364 194.392 185.273 194.104Z" stroke="#7F7F7F" stroke-width="1.33254" stroke-miterlimit="8" fill="none" fill-rule="evenodd"/><path d="M166.919 225.128C166.919 226.11 166.123 226.906 165.141 226.906 164.159 226.906 163.364 226.11 163.364 225.128 163.364 224.145 164.159 223.349 165.141 223.349 166.123 223.349 166.919 224.145 166.919 225.128Z" stroke="#7F7F7F" stroke-width="1.33254" stroke-miterlimit="8" fill="none" fill-rule="evenodd"/><path d="M173.241 224.01C173.241 225.975 171.65 227.567 169.686 227.567 167.722 227.567 166.13 225.975 166.13 224.01 166.13 222.045 167.722 220.452 169.686 220.452 171.65 220.452 173.241 222.045 173.241 224.01Z" stroke="#7F7F7F" stroke-width="1.33254" stroke-miterlimit="8" fill="none" fill-rule="evenodd"/><path d="M183.017 222.042C183.017 224.99 180.629 227.379 177.683 227.379 174.738 227.379 172.35 224.99 172.35 222.042 172.35 219.095 174.738 216.706 177.683 216.706 180.629 216.706 183.017 219.095 183.017 222.042Z" stroke="#7F7F7F" stroke-width="1.33254" stroke-miterlimit="8" fill="none" fill-rule="evenodd"/><path d="M188.23 211.407C185.078 211.546 181.927 211.134 179.2 210.225M196.197 224.336C194.93 224.621 193.601 224.812 192.246 224.901M230.241 230.549C229.288 229.739 228.49 228.875 227.861 227.969M274.263 224.117C274.123 225.076 273.804 226.025 273.312 226.947M293.164 206.629C300.309 208.597 304.818 212.712 304.754 217.207M320.502 195.363C319.345 196.893 317.578 198.251 315.341 199.329M308.118 180.646C308.315 181.264 308.406 181.891 308.39 182.519M275.158 178.461C275.83 177.597 276.721 176.792 277.802 176.072M250.429 179.6C250.703 178.885 251.133 178.193 251.709 177.539M221.407 180.299C223.089 180.857 224.645 181.528 226.041 182.298M186.212 196.008C185.845 195.32 185.574 194.617 185.403 193.905" stroke="#7F7F7F" stroke-width="1.33254" stroke-miterlimit="8" fill="none" fill-rule="evenodd"/><text font-family="Yu Gothic,Yu Gothic_MSFontService,sans-serif" font-weight="700" font-size="13.3333" transform="matrix(1 0 0 1.0006 195.882 191)">逆強化学習にしても</text><text font-family="Yu Gothic,Yu Gothic_MSFontService,sans-serif" font-weight="700" font-size="13.3333" transform="matrix(1 0 0 1.0006 189.22 207)">模倣学習にしても</text><text font-family="Yu Gothic,Yu Gothic_MSFontService,sans-serif" font-weight="700" font-size="13.3333" transform="matrix(1 0 0 1.0006 202.545 223)">熟練者が要る</text><path d="M332.5 285.17C332.5 282.683 334.515 280.667 337 280.667L540 280.667C542.485 280.667 544.5 282.683 544.5 285.17L544.5 303.181C544.5 305.667 542.485 307.683 540 307.683L337 307.683C334.515 307.683 332.5 305.667 332.5 303.181Z" stroke="#172C51" stroke-width="1.33254" stroke-miterlimit="8" fill="none" fill-rule="evenodd"/><text font-family="Yu Gothic Light,Yu Gothic Light_MSFontService,sans-serif" font-weight="700" font-size="13.3333" transform="matrix(1 0 0 1.0006 338.365 298)">Agent Learning via Early Experience</text><path d="M332.5 325.212C332.5 321.61 335.418 318.69 339.018 318.69L537.982 318.69C541.582 318.69 544.5 321.61 544.5 325.212L544.5 347.189C544.5 350.791 541.582 353.711 537.982 353.711L339.018 353.711C335.418 353.711 332.5 350.791 332.5 347.189Z" stroke="#172C51" stroke-width="1.33254" stroke-miterlimit="8" fill="none" fill-rule="evenodd"/><text font-family="Yu Gothic Light,Yu Gothic Light_MSFontService,sans-serif" font-weight="700" font-size="13.3333" transform="matrix(1 0 0 1.0006 343.861 332)">The Missing Reward: Active</text><text font-family="Yu Gothic Light,Yu Gothic Light_MSFontService,sans-serif" font-weight="700" font-size="13.3333" transform="matrix(1 0 0 1.0006 343.861 348)">Inference in the Era of Experience</text><path d="M369.236 224.923C367.723 217.468 375.512 210.602 386.633 209.588 391.139 209.177 395.721 209.791 399.645 211.333 403.803 206.078 413.519 204.082 421.346 206.873 422.715 207.361 423.971 207.979 425.076 208.709 428.314 204.354 436.202 202.584 442.693 204.757 444.49 205.358 446.057 206.228 447.275 207.299 452.494 203.18 461.717 202.671 467.875 206.163 470.463 207.63 472.208 209.654 472.809 211.887 481.361 213.451 486.406 219.377 484.077 225.122 483.882 225.605 483.636 226.078 483.342 226.538 490.201 232.525 488.522 241.105 479.592 245.703 476.812 247.134 473.529 248.061 470.059 248.393 469.982 254.834 462.126 260.013 452.512 259.961 449.3 259.944 446.157 259.332 443.432 258.192 440.181 265.413 428.838 269.494 418.098 267.307 413.597 266.391 409.708 264.454 407.094 261.825 396.097 266.272 381.824 263.88 375.214 256.482 375.131 256.389 375.049 256.295 374.969 256.201 367.772 256.766 361.253 253.323 360.408 248.511 359.958 245.946 361.221 243.379 363.86 241.493 357.629 239.034 355.536 233.635 359.185 229.435 361.29 227.012 364.983 225.41 369.127 225.122Z" fill="#DEEBF7" fill-rule="evenodd" fill-opacity="0.501961"/><path d="M497.175 261.422C497.175 262.404 496.379 263.2 495.397 263.2 494.415 263.2 493.62 262.404 493.62 261.422 493.62 260.439 494.415 259.643 495.397 259.643 496.379 259.643 497.175 260.439 497.175 261.422Z" fill="#DEEBF7" fill-rule="evenodd" fill-opacity="0.501961"/><path d="M493.372 259.448C493.372 261.412 491.78 263.005 489.816 263.005 487.852 263.005 486.26 261.412 486.26 259.448 486.26 257.483 487.852 255.89 489.816 255.89 491.78 255.89 493.372 257.483 493.372 259.448Z" fill="#DEEBF7" fill-rule="evenodd" fill-opacity="0.501961"/><path d="M486.216 256.288C486.216 259.235 483.828 261.625 480.882 261.625 477.937 261.625 475.549 259.235 475.549 256.288 475.549 253.341 477.937 250.952 480.882 250.952 483.828 250.952 486.216 253.341 486.216 256.288Z" fill="#DEEBF7" fill-rule="evenodd" fill-opacity="0.501961"/><path d="M369.236 224.923C367.723 217.468 375.512 210.602 386.633 209.588 391.139 209.177 395.721 209.791 399.645 211.333 403.803 206.078 413.519 204.082 421.346 206.873 422.715 207.361 423.971 207.979 425.076 208.709 428.314 204.354 436.202 202.584 442.693 204.757 444.49 205.358 446.057 206.228 447.275 207.299 452.494 203.18 461.717 202.671 467.875 206.163 470.463 207.63 472.208 209.654 472.809 211.887 481.361 213.451 486.406 219.377 484.077 225.122 483.882 225.605 483.636 226.078 483.342 226.538 490.201 232.525 488.522 241.105 479.592 245.703 476.812 247.134 473.529 248.061 470.059 248.393 469.982 254.834 462.126 260.013 452.512 259.961 449.3 259.944 446.157 259.332 443.432 258.192 440.181 265.413 428.838 269.494 418.098 267.307 413.597 266.391 409.708 264.454 407.094 261.825 396.097 266.272 381.824 263.88 375.214 256.482 375.131 256.389 375.049 256.295 374.969 256.201 367.772 256.766 361.253 253.323 360.408 248.511 359.958 245.946 361.221 243.379 363.86 241.493 357.629 239.034 355.536 233.635 359.185 229.435 361.29 227.012 364.983 225.41 369.127 225.122Z" stroke="#7F7F7F" stroke-width="1.33254" stroke-miterlimit="8" fill="none" fill-rule="evenodd"/><path d="M497.175 261.422C497.175 262.404 496.379 263.2 495.397 263.2 494.415 263.2 493.62 262.404 493.62 261.422 493.62 260.439 494.415 259.643 495.397 259.643 496.379 259.643 497.175 260.439 497.175 261.422Z" stroke="#7F7F7F" stroke-width="1.33254" stroke-miterlimit="8" fill="none" fill-rule="evenodd"/><path d="M493.372 259.448C493.372 261.412 491.78 263.005 489.816 263.005 487.852 263.005 486.26 261.412 486.26 259.448 486.26 257.483 487.852 255.89 489.816 255.89 491.78 255.89 493.372 257.483 493.372 259.448Z" stroke="#7F7F7F" stroke-width="1.33254" stroke-miterlimit="8" fill="none" fill-rule="evenodd"/><path d="M486.216 256.288C486.216 259.235 483.828 261.625 480.882 261.625 477.937 261.625 475.549 259.235 475.549 256.288 475.549 253.341 477.937 250.952 480.882 250.952 483.828 250.952 486.216 253.341 486.216 256.288Z" stroke="#7F7F7F" stroke-width="1.33254" stroke-miterlimit="8" fill="none" fill-rule="evenodd"/><path d="M371.622 242.425C368.962 242.565 366.302 242.153 364 241.244M378.348 255.354C377.278 255.64 376.157 255.83 375.013 255.92M407.087 261.567C406.282 260.758 405.608 259.893 405.077 258.988M444.248 255.135C444.13 256.095 443.861 257.043 443.445 257.965M460.203 237.648C466.235 239.616 470.041 243.731 469.987 248.225M483.281 226.382C482.304 227.912 480.813 229.27 478.924 230.348M472.827 211.665C472.993 212.283 473.07 212.91 473.057 213.538M445.003 209.48C445.571 208.615 446.323 207.811 447.235 207.091M424.128 210.618C424.36 209.904 424.723 209.212 425.209 208.558M399.63 211.318C401.049 211.875 402.363 212.547 403.541 213.317M369.919 227.026C369.609 226.339 369.381 225.635 369.237 224.923" stroke="#7F7F7F" stroke-width="1.33254" stroke-miterlimit="8" fill="none" fill-rule="evenodd"/><text font-family="Yu Gothic,Yu Gothic_MSFontService,sans-serif" font-weight="700" font-size="13.3333" transform="matrix(1 0 0 1.0006 383.904 222)">報酬関数不要で</text><text font-family="Calibri,Calibri_MSFontService,sans-serif" font-weight="700" font-size="13.3333" transform="matrix(1 0 0 1.0006 384.817 238)">AI</text><text font-family="Yu Gothic,Yu Gothic_MSFontService,sans-serif" font-weight="700" font-size="13.3333" transform="matrix(1 0 0 1.0006 396.31 238)">が経験を</text><text font-family="Yu Gothic,Yu Gothic_MSFontService,sans-serif" font-weight="700" font-size="13.3333" transform="matrix(1 0 0 1.0006 377.242 254)">積めれば良い</text><text font-family="Yu Gothic,Yu Gothic_MSFontService,sans-serif" font-weight="400" font-size="13.3333" transform="matrix(1 0 0 1.0006 423.961 373)">：</text><text font-family="Yu Gothic,Yu Gothic_MSFontService,sans-serif" font-weight="700" font-size="14.6667" transform="matrix(1 0 0 1.0006 268.633 342)">能動学習</text><text font-family="Yu Gothic,Yu Gothic_MSFontService,sans-serif" font-weight="700" font-size="14.6667" transform="matrix(1 0 0 1.0006 136.875 299)">暗黙の世界モデル＋自己反省</text><path d="M414.5 58.7018C414.5 56.9518 415.918 55.5331 417.667 55.5331L543.333 55.5331C545.082 55.5331 546.5 56.9518 546.5 58.7018L546.5 71.3758C546.5 73.1258 545.082 74.5445 543.333 74.5445L417.667 74.5445C415.918 74.5445 414.5 73.1258 414.5 71.3758Z" stroke="#172C51" stroke-width="1.33254" stroke-miterlimit="8" fill="none" fill-rule="evenodd"/><text font-family="Yu Gothic Light,Yu Gothic Light_MSFontService,sans-serif" font-weight="700" font-size="13.3333" transform="matrix(1 0 0 1.0006 429.663 69)">Reward</text><text font-family="Yu Gothic Light,Yu Gothic Light_MSFontService,sans-serif" font-weight="700" font-size="13.3333" transform="matrix(1 0 0 1.0006 475.969 69)">is</text><text font-family="Yu Gothic Light,Yu Gothic Light_MSFontService,sans-serif" font-weight="700" font-size="13.3333" transform="matrix(1 0 0 1.0006 488.795 69)">Enough</text><path d="M446.431 16.4807C445.151 11.5883 451.741 7.08272 461.151 6.41724 464.964 6.14757 468.841 6.55069 472.161 7.56208 475.679 4.11404 483.901 2.80362 490.524 4.63515 491.682 4.95542 492.745 5.36134 493.68 5.84026 496.42 2.9821 503.094 1.8209 508.587 3.24665 510.107 3.64126 511.433 4.21196 512.464 4.91492 516.88 2.21201 524.684 1.87814 529.894 4.16919 532.084 5.1321 533.56 6.46023 534.069 7.92586 541.305 8.95245 545.574 12.8411 543.604 16.6113 543.438 16.9283 543.231 17.2388 542.982 17.5408 548.786 21.4693 547.365 27.1 539.809 30.1174 537.457 31.0567 534.679 31.6648 531.743 31.8831 531.677 36.1096 525.03 39.5084 516.895 39.4744 514.177 39.4631 511.518 39.0613 509.212 38.3135 506.461 43.052 496.863 45.7302 487.775 44.2955 483.966 43.6942 480.676 42.4227 478.464 40.6977 469.159 43.616 457.082 42.0462 451.489 37.1915 451.418 37.1303 451.349 37.0687 451.281 37.0068 445.192 37.3774 439.676 35.1179 438.961 31.9601 438.58 30.2769 439.648 28.5922 441.882 27.3549 436.609 25.7408 434.838 22.198 437.926 19.4418 439.707 17.8517 442.831 16.8006 446.338 16.6116Z" fill="#DEEBF7" fill-rule="evenodd" fill-opacity="0.501961"/><path d="M532.338 47.2119C532.338 47.8567 531.816 48.3793 531.172 48.3793 530.527 48.3793 530.005 47.8567 530.005 47.2119 530.005 46.5672 530.527 46.0446 531.172 46.0446 531.816 46.0446 532.338 46.5672 532.338 47.2119Z" fill="#DEEBF7" fill-rule="evenodd" fill-opacity="0.501961"/><path d="M530.827 45.6121C530.827 46.9015 529.782 47.9468 528.493 47.9468 527.205 47.9468 526.16 46.9015 526.16 45.6121 526.16 44.3227 527.205 43.2774 528.493 43.2774 529.782 43.2774 530.827 44.3227 530.827 45.6121Z" fill="#DEEBF7" fill-rule="evenodd" fill-opacity="0.501961"/><path d="M527.312 42.8156C527.312 44.7498 525.745 46.3177 523.812 46.3177 521.879 46.3177 520.312 44.7498 520.312 42.8156 520.312 40.8814 521.879 39.3134 523.812 39.3134 525.745 39.3134 527.312 40.8814 527.312 42.8156Z" fill="#DEEBF7" fill-rule="evenodd" fill-opacity="0.501961"/><path d="M446.431 16.4807C445.151 11.5883 451.741 7.08272 461.151 6.41724 464.964 6.14757 468.841 6.55069 472.161 7.56208 475.679 4.11404 483.901 2.80362 490.524 4.63515 491.682 4.95542 492.745 5.36134 493.68 5.84026 496.42 2.9821 503.094 1.8209 508.587 3.24665 510.107 3.64126 511.433 4.21196 512.464 4.91492 516.88 2.21201 524.684 1.87814 529.894 4.16919 532.084 5.1321 533.56 6.46023 534.069 7.92586 541.305 8.95245 545.574 12.8411 543.604 16.6113 543.438 16.9283 543.231 17.2388 542.982 17.5408 548.786 21.4693 547.365 27.1 539.809 30.1174 537.457 31.0567 534.679 31.6648 531.743 31.8831 531.677 36.1096 525.03 39.5084 516.895 39.4744 514.177 39.4631 511.518 39.0613 509.212 38.3135 506.461 43.052 496.863 45.7302 487.775 44.2955 483.966 43.6942 480.676 42.4227 478.464 40.6977 469.159 43.616 457.082 42.0462 451.489 37.1915 451.418 37.1303 451.349 37.0687 451.281 37.0068 445.192 37.3774 439.676 35.1179 438.961 31.9601 438.58 30.2769 439.648 28.5922 441.882 27.3549 436.609 25.7408 434.838 22.198 437.926 19.4418 439.707 17.8517 442.831 16.8006 446.338 16.6116Z" stroke="#7F7F7F" stroke-width="1.33254" stroke-miterlimit="8" fill="none" fill-rule="evenodd"/><path d="M532.338 47.2119C532.338 47.8567 531.816 48.3793 531.172 48.3793 530.527 48.3793 530.005 47.8567 530.005 47.2119 530.005 46.5672 530.527 46.0446 531.172 46.0446 531.816 46.0446 532.338 46.5672 532.338 47.2119Z" stroke="#7F7F7F" stroke-width="1.33254" stroke-miterlimit="8" fill="none" fill-rule="evenodd"/><path d="M530.827 45.6121C530.827 46.9015 529.782 47.9468 528.493 47.9468 527.205 47.9468 526.16 46.9015 526.16 45.6121 526.16 44.3227 527.205 43.2774 528.493 43.2774 529.782 43.2774 530.827 44.3227 530.827 45.6121Z" stroke="#7F7F7F" stroke-width="1.33254" stroke-miterlimit="8" fill="none" fill-rule="evenodd"/><path d="M527.312 42.8156C527.312 44.7498 525.745 46.3177 523.812 46.3177 521.879 46.3177 520.312 44.7498 520.312 42.8156 520.312 40.8814 521.879 39.3134 523.812 39.3134 525.745 39.3134 527.312 40.8814 527.312 42.8156Z" stroke="#7F7F7F" stroke-width="1.33254" stroke-miterlimit="8" fill="none" fill-rule="evenodd"/><path d="M448.45 27.9665C446.199 28.0582 443.948 27.7876 442 27.1912M454.141 36.4513C453.236 36.6387 452.287 36.7634 451.319 36.8224M478.458 40.5283C477.777 39.9973 477.207 39.4298 476.758 38.8356M509.902 36.3073C509.802 36.9372 509.574 37.5598 509.223 38.1647M523.403 24.8312C528.506 26.1228 531.727 28.8233 531.682 31.7727M542.93 17.4379C542.104 18.4422 540.842 19.3332 539.244 20.0408M534.084 7.77994C534.225 8.18551 534.29 8.59717 534.279 9.00923M510.541 6.34603C511.022 5.7789 511.658 5.25085 512.43 4.77832M492.878 7.09314C493.074 6.62447 493.381 6.1703 493.792 5.7411M472.148 7.5523C473.35 7.91825 474.461 8.35872 475.458 8.86401M447.009 17.8611C446.746 17.4097 446.553 16.9482 446.431 16.481" stroke="#7F7F7F" stroke-width="1.33254" stroke-miterlimit="8" fill="none" fill-rule="evenodd"/><text font-family="Yu Gothic,Yu Gothic_MSFontService,sans-serif" font-weight="700" font-size="13.3333" transform="matrix(1 0 0 1.0006 453.843 26)">報酬で十分</text></g></svg>