<svg width="643" height="416" xmlns="http://www.w3.org/2000/svg" xmlns:xlink="http://www.w3.org/1999/xlink" overflow="hidden"><defs><clipPath id="clip0"><rect x="0" y="0" width="643" height="416"/></clipPath></defs><g clip-path="url(#clip0)"><rect x="0" y="0" width="643" height="416.01" fill="#FFFFFF"/><path d="M108.66 46.1205C106.577 38.204 117.302 30.9135 132.614 29.8366 138.819 29.4003 145.128 30.0526 150.531 31.6891 156.256 26.1098 169.634 23.9893 180.412 26.953 182.296 27.4712 184.026 28.128 185.547 28.903 190.006 24.2781 200.866 22.3992 209.805 24.7062 212.279 25.3447 214.437 26.2682 216.113 27.4057 223.3 23.032 235.999 22.4918 244.478 26.199 248.042 27.7571 250.444 29.9062 251.272 32.2778 263.047 33.9389 269.994 40.2312 266.787 46.3319 266.518 46.8448 266.18 47.3473 265.775 47.8359 275.219 54.1927 272.907 63.304 260.612 68.1864 256.784 69.7063 252.263 70.6903 247.486 71.0435 247.379 77.8826 236.562 83.3822 223.324 83.3273 218.901 83.309 214.574 82.6588 210.822 81.4488 206.345 89.1162 190.727 93.4499 175.938 91.1284 169.741 90.1554 164.386 88.098 160.787 85.3068 145.646 90.0289 125.993 87.4888 116.891 79.6332 116.776 79.5342 116.664 79.4346 116.553 79.3343 106.643 79.9341 97.6674 76.2779 96.5043 71.1682 95.8844 68.4445 97.6232 65.7184 101.257 63.7163 92.6774 61.1045 89.7952 55.3718 94.8199 50.912 97.7187 48.339 102.803 46.6381 108.509 46.3323Z" fill="#FFCCFF" fill-rule="evenodd" fill-opacity="0.501961"/><path d="M114.752 97.1211C114.752 98.1644 113.906 99.01 112.863 99.01 111.82 99.01 110.974 98.1644 110.974 97.1211 110.974 96.0779 111.82 95.2322 112.863 95.2322 113.906 95.2322 114.752 96.0779 114.752 97.1211Z" fill="#FFCCFF" fill-rule="evenodd" fill-opacity="0.501961"/><path d="M122.11 93.9872C122.11 96.0736 120.418 97.765 118.332 97.765 116.246 97.765 114.554 96.0736 114.554 93.9872 114.554 91.9008 116.246 90.2094 118.332 90.2094 120.418 90.2094 122.11 91.9008 122.11 93.9872Z" fill="#FFCCFF" fill-rule="evenodd" fill-opacity="0.501961"/><path d="M132.745 88.9747C132.745 92.1045 130.208 94.6416 127.079 94.6416 123.949 94.6416 121.412 92.1045 121.412 88.9747 121.412 85.845 123.949 83.3078 127.079 83.3078 130.208 83.3078 132.745 85.845 132.745 88.9747Z" fill="#FFCCFF" fill-rule="evenodd" fill-opacity="0.501961"/><path d="M108.66 46.1205C106.577 38.204 117.302 30.9135 132.614 29.8366 138.819 29.4003 145.128 30.0526 150.531 31.6891 156.256 26.1098 169.634 23.9893 180.412 26.953 182.296 27.4712 184.026 28.128 185.547 28.903 190.006 24.2781 200.866 22.3992 209.805 24.7062 212.279 25.3447 214.437 26.2682 216.113 27.4057 223.3 23.032 235.999 22.4918 244.478 26.199 248.042 27.7571 250.444 29.9062 251.272 32.2778 263.047 33.9389 269.994 40.2312 266.787 46.3319 266.518 46.8448 266.18 47.3473 265.775 47.8359 275.219 54.1927 272.907 63.304 260.612 68.1864 256.784 69.7063 252.263 70.6903 247.486 71.0435 247.379 77.8826 236.562 83.3822 223.324 83.3273 218.901 83.309 214.574 82.6588 210.822 81.4488 206.345 89.1162 190.727 93.4499 175.938 91.1284 169.741 90.1554 164.386 88.098 160.787 85.3068 145.646 90.0289 125.993 87.4888 116.891 79.6332 116.776 79.5342 116.664 79.4346 116.553 79.3343 106.643 79.9341 97.6674 76.2779 96.5043 71.1682 95.8844 68.4445 97.6232 65.7184 101.257 63.7163 92.6774 61.1045 89.7952 55.3718 94.8199 50.912 97.7187 48.339 102.803 46.6381 108.509 46.3323Z" stroke="#7F7F7F" stroke-width="1.33437" stroke-miterlimit="8" fill="none" fill-rule="evenodd"/><path d="M114.752 97.1211C114.752 98.1644 113.906 99.01 112.863 99.01 111.82 99.01 110.974 98.1644 110.974 97.1211 110.974 96.0779 111.82 95.2322 112.863 95.2322 113.906 95.2322 114.752 96.0779 114.752 97.1211Z" stroke="#7F7F7F" stroke-width="1.33437" stroke-miterlimit="8" fill="none" fill-rule="evenodd"/><path d="M122.11 93.9872C122.11 96.0736 120.418 97.765 118.332 97.765 116.246 97.765 114.554 96.0736 114.554 93.9872 114.554 91.9008 116.246 90.2094 118.332 90.2094 120.418 90.2094 122.11 91.9008 122.11 93.9872Z" stroke="#7F7F7F" stroke-width="1.33437" stroke-miterlimit="8" fill="none" fill-rule="evenodd"/><path d="M132.745 88.9747C132.745 92.1045 130.208 94.6416 127.079 94.6416 123.949 94.6416 121.412 92.1045 121.412 88.9747 121.412 85.845 123.949 83.3078 127.079 83.3078 130.208 83.3078 132.745 85.845 132.745 88.9747Z" stroke="#7F7F7F" stroke-width="1.33437" stroke-miterlimit="8" fill="none" fill-rule="evenodd"/><path d="M111.946 64.7061C108.283 64.8544 104.62 64.4166 101.449 63.4515M121.206 78.4355C119.733 78.7387 118.189 78.9406 116.614 79.0359M160.777 85.0326C159.669 84.1733 158.741 83.2551 158.01 82.2936M211.945 78.2025C211.782 79.2217 211.412 80.2291 210.84 81.2079M233.914 59.6327C242.219 61.7228 247.461 66.0925 247.386 70.865M265.691 47.6694C264.346 49.2946 262.293 50.7362 259.692 51.8813M251.296 32.0416C251.525 32.6979 251.631 33.364 251.613 34.0308M212.985 29.7214C213.767 28.8037 214.802 27.9493 216.058 27.1846M184.242 30.9303C184.561 30.172 185.061 29.4371 185.73 28.7426M150.509 31.6733C152.464 32.2655 154.273 32.9782 155.895 33.7958M109.6 48.3542C109.174 47.6238 108.859 46.8771 108.66 46.1211" stroke="#7F7F7F" stroke-width="1.33437" stroke-miterlimit="8" fill="none" fill-rule="evenodd"/><text font-family="Yu Gothic,Yu Gothic_MSFontService,sans-serif" font-weight="700" font-size="13.344" transform="matrix(1 0 0 1.00002 115.301 43)">人間がアノテーション</text><text font-family="Yu Gothic,Yu Gothic_MSFontService,sans-serif" font-weight="700" font-size="13.344" transform="matrix(1 0 0 1.00002 121.973 59)">を付けたデータが</text><text font-family="Yu Gothic,Yu Gothic_MSFontService,sans-serif" font-weight="700" font-size="13.344" transform="matrix(1 0 0 1.00002 115.301 75)">もうすぐ枯渇しそう</text><path d="M294.569 46.1205C292.498 38.204 303.163 30.9135 318.39 29.8366 324.56 29.4003 330.834 30.0526 336.206 31.6891 341.899 26.1098 355.203 23.9893 365.921 26.953 367.795 27.4712 369.515 28.128 371.027 28.903 375.461 24.2781 386.261 22.3992 395.15 24.7062 397.61 25.3447 399.756 26.2682 401.423 27.4057 408.569 23.032 421.198 22.4918 429.629 26.199 433.173 27.7571 435.561 29.9062 436.385 32.2778 448.094 33.9389 455.002 40.2312 451.814 46.3319 451.546 46.8448 451.209 47.3473 450.807 47.8359 460.198 54.1927 457.899 63.304 445.672 68.1864 441.866 69.7063 437.371 70.6903 432.62 71.0435 432.514 77.8826 421.757 83.3822 408.593 83.3273 404.195 83.309 399.892 82.6588 396.161 81.4488 391.709 89.1162 376.178 93.4499 361.472 91.1284 355.309 90.1554 349.984 88.0979 346.406 85.3068 331.349 90.0289 311.806 87.4888 302.755 79.6332 302.641 79.5342 302.529 79.4346 302.419 79.3343 292.564 79.9341 283.639 76.2779 282.482 71.1682 281.866 68.4445 283.595 65.7184 287.209 63.7163 278.676 61.1045 275.81 55.3718 280.807 50.912 283.69 48.339 288.745 46.6381 294.42 46.3323Z" fill="#FFCCFF" fill-rule="evenodd" fill-opacity="0.501961"/><path d="M300.638 97.1211C300.638 98.1643 299.793 99.01 298.749 99.01 297.706 99.01 296.861 98.1643 296.861 97.1211 296.861 96.0779 297.706 95.2322 298.749 95.2322 299.793 95.2322 300.638 96.0779 300.638 97.1211Z" fill="#FFCCFF" fill-rule="evenodd" fill-opacity="0.501961"/><path d="M307.961 93.9897C307.961 96.0761 306.27 97.7676 304.183 97.7676 302.097 97.7676 300.405 96.0761 300.405 93.9897 300.405 91.9032 302.097 90.2117 304.183 90.2117 306.27 90.2117 307.961 91.9032 307.961 93.9897Z" fill="#FFCCFF" fill-rule="evenodd" fill-opacity="0.501961"/><path d="M318.557 88.9721C318.557 92.1018 316.02 94.6389 312.89 94.6389 309.761 94.6389 307.224 92.1018 307.224 88.9721 307.224 85.8424 309.761 83.3053 312.89 83.3053 316.02 83.3053 318.557 85.8424 318.557 88.9721Z" fill="#FFCCFF" fill-rule="evenodd" fill-opacity="0.501961"/><path d="M294.569 46.1205C292.498 38.204 303.163 30.9135 318.39 29.8366 324.56 29.4003 330.834 30.0526 336.206 31.6891 341.899 26.1098 355.203 23.9893 365.921 26.953 367.795 27.4712 369.515 28.128 371.027 28.903 375.461 24.2781 386.261 22.3992 395.15 24.7062 397.61 25.3447 399.756 26.2682 401.423 27.4057 408.569 23.032 421.198 22.4918 429.629 26.199 433.173 27.7571 435.561 29.9062 436.385 32.2778 448.094 33.9389 455.002 40.2312 451.814 46.3319 451.546 46.8448 451.209 47.3473 450.807 47.8359 460.198 54.1927 457.899 63.304 445.672 68.1864 441.866 69.7063 437.371 70.6903 432.62 71.0435 432.514 77.8826 421.757 83.3822 408.593 83.3273 404.195 83.309 399.892 82.6588 396.161 81.4488 391.709 89.1162 376.178 93.4499 361.472 91.1284 355.309 90.1554 349.984 88.0979 346.406 85.3068 331.349 90.0289 311.806 87.4888 302.755 79.6332 302.641 79.5342 302.529 79.4346 302.419 79.3343 292.564 79.9341 283.639 76.2779 282.482 71.1682 281.866 68.4445 283.595 65.7184 287.209 63.7163 278.676 61.1045 275.81 55.3718 280.807 50.912 283.69 48.339 288.745 46.6381 294.42 46.3323Z" stroke="#7F7F7F" stroke-width="1.33437" stroke-miterlimit="8" fill="none" fill-rule="evenodd"/><path d="M300.638 97.1211C300.638 98.1643 299.793 99.01 298.749 99.01 297.706 99.01 296.861 98.1643 296.861 97.1211 296.861 96.0779 297.706 95.2322 298.749 95.2322 299.793 95.2322 300.638 96.0779 300.638 97.1211Z" stroke="#7F7F7F" stroke-width="1.33437" stroke-miterlimit="8" fill="none" fill-rule="evenodd"/><path d="M307.961 93.9897C307.961 96.0761 306.27 97.7676 304.183 97.7676 302.097 97.7676 300.405 96.0761 300.405 93.9897 300.405 91.9032 302.097 90.2117 304.183 90.2117 306.27 90.2117 307.961 91.9032 307.961 93.9897Z" stroke="#7F7F7F" stroke-width="1.33437" stroke-miterlimit="8" fill="none" fill-rule="evenodd"/><path d="M318.557 88.9721C318.557 92.1018 316.02 94.6389 312.89 94.6389 309.761 94.6389 307.224 92.1018 307.224 88.9721 307.224 85.8424 309.761 83.3053 312.89 83.3053 316.02 83.3053 318.557 85.8424 318.557 88.9721Z" stroke="#7F7F7F" stroke-width="1.33437" stroke-miterlimit="8" fill="none" fill-rule="evenodd"/><path d="M297.837 64.7061C294.194 64.8544 290.552 64.4166 287.4 63.4515M307.046 78.4355C305.581 78.7387 304.046 78.9406 302.479 79.0359M346.395 85.0326C345.294 84.1733 344.371 83.2551 343.644 82.2936M397.278 78.2025C397.116 79.2217 396.748 80.2291 396.179 81.2079M419.124 59.6327C427.383 61.7228 432.595 66.0925 432.521 70.865M450.723 47.6694C449.386 49.2946 447.344 50.7362 444.758 51.8813M436.409 32.0416C436.637 32.6979 436.742 33.364 436.724 34.0308M398.312 29.7214C399.089 28.8037 400.119 27.9493 401.368 27.1846M369.729 30.9303C370.046 30.172 370.543 29.4371 371.209 28.7426M336.185 31.6733C338.129 32.2655 339.928 32.9782 341.541 33.7958M295.505 48.3542C295.08 47.6238 294.768 46.8771 294.57 46.1211" stroke="#7F7F7F" stroke-width="1.33437" stroke-miterlimit="8" fill="none" fill-rule="evenodd"/><text font-family="Yu Gothic,Yu Gothic_MSFontService,sans-serif" font-weight="700" font-size="13.344" transform="matrix(1 0 0 1.00002 307.223 43)">人間の知識や思考が</text><text font-family="Calibri,Calibri_MSFontService,sans-serif" font-weight="700" font-size="13.344" transform="matrix(1 0 0 1.00002 308.137 59)">AI</text><text font-family="Yu Gothic,Yu Gothic_MSFontService,sans-serif" font-weight="700" font-size="13.344" transform="matrix(1 0 0 1.00002 319.646 59)">の発展をジャマ</text><text font-family="Yu Gothic,Yu Gothic_MSFontService,sans-serif" font-weight="700" font-size="13.344" transform="matrix(1 0 0 1.00002 300.551 75)">することになりそう</text><path d="M445.861 119.124C444.139 111.557 453.006 104.588 465.667 103.559 470.797 103.142 476.013 103.765 480.481 105.33 485.214 99.9964 496.275 97.9695 505.187 100.802 506.745 101.298 508.175 101.926 509.433 102.666 513.119 98.2456 522.099 96.4495 529.49 98.6548 531.535 99.2651 533.319 100.148 534.705 101.235 540.648 97.0545 551.148 96.5381 558.158 100.082 561.104 101.571 563.09 103.625 563.775 105.892 573.511 107.48 579.255 113.495 576.604 119.326 576.381 119.817 576.101 120.297 575.767 120.764 583.575 126.84 581.664 135.55 571.497 140.217 568.333 141.67 564.595 142.61 560.645 142.948 560.557 149.485 551.613 154.742 540.667 154.69 537.01 154.672 533.433 154.051 530.331 152.894 526.629 160.223 513.715 164.366 501.488 162.147 496.364 161.217 491.936 159.25 488.961 156.582 476.442 161.096 460.192 158.667 452.667 151.158 452.572 151.064 452.479 150.969 452.387 150.873 444.194 151.446 436.773 147.951 435.811 143.067 435.298 140.463 436.736 137.858 439.741 135.944 432.647 133.447 430.264 127.968 434.418 123.704 436.815 121.245 441.019 119.619 445.736 119.327Z" fill="#DEEBF7" fill-rule="evenodd" fill-opacity="0.501961"/><path d="M570.923 163.632C570.923 164.629 570.115 165.437 569.117 165.437 568.12 165.437 567.312 164.629 567.312 163.632 567.312 162.635 568.12 161.826 569.117 161.826 570.115 161.826 570.923 162.635 570.923 163.632Z" fill="#DEEBF7" fill-rule="evenodd" fill-opacity="0.501961"/><path d="M568.532 161.378C568.532 163.372 566.915 164.989 564.921 164.989 562.926 164.989 561.31 163.372 561.31 161.378 561.31 159.384 562.926 157.767 564.921 157.767 566.915 157.767 568.532 159.384 568.532 161.378Z" fill="#DEEBF7" fill-rule="evenodd" fill-opacity="0.501961"/><path d="M562.96 157.416C562.96 160.407 560.535 162.832 557.543 162.832 554.552 162.832 552.126 160.407 552.126 157.416 552.126 154.424 554.552 151.999 557.543 151.999 560.535 151.999 562.96 154.424 562.96 157.416Z" fill="#DEEBF7" fill-rule="evenodd" fill-opacity="0.501961"/><path d="M445.861 119.124C444.139 111.557 453.006 104.588 465.667 103.559 470.797 103.142 476.013 103.765 480.481 105.33 485.214 99.9964 496.275 97.9695 505.187 100.802 506.745 101.298 508.175 101.926 509.433 102.666 513.119 98.2456 522.099 96.4495 529.49 98.6548 531.535 99.2651 533.319 100.148 534.705 101.235 540.648 97.0545 551.148 96.5381 558.158 100.082 561.104 101.571 563.09 103.625 563.775 105.892 573.511 107.48 579.255 113.495 576.604 119.326 576.381 119.817 576.101 120.297 575.767 120.764 583.575 126.84 581.664 135.55 571.497 140.217 568.333 141.67 564.595 142.61 560.645 142.948 560.557 149.485 551.613 154.742 540.667 154.69 537.01 154.672 533.433 154.051 530.331 152.894 526.629 160.223 513.715 164.366 501.488 162.147 496.364 161.217 491.936 159.25 488.961 156.582 476.442 161.096 460.192 158.667 452.667 151.158 452.572 151.064 452.479 150.969 452.387 150.873 444.194 151.446 436.773 147.951 435.811 143.067 435.298 140.463 436.736 137.858 439.741 135.944 432.647 133.447 430.264 127.968 434.418 123.704 436.815 121.245 441.019 119.619 445.736 119.327Z" stroke="#7F7F7F" stroke-width="1.33437" stroke-miterlimit="8" fill="none" fill-rule="evenodd"/><path d="M570.923 163.632C570.923 164.629 570.115 165.437 569.117 165.437 568.12 165.437 567.312 164.629 567.312 163.632 567.312 162.635 568.12 161.826 569.117 161.826 570.115 161.826 570.923 162.635 570.923 163.632Z" stroke="#7F7F7F" stroke-width="1.33437" stroke-miterlimit="8" fill="none" fill-rule="evenodd"/><path d="M568.532 161.378C568.532 163.372 566.915 164.989 564.921 164.989 562.926 164.989 561.31 163.372 561.31 161.378 561.31 159.384 562.926 157.767 564.921 157.767 566.915 157.767 568.532 159.384 568.532 161.378Z" stroke="#7F7F7F" stroke-width="1.33437" stroke-miterlimit="8" fill="none" fill-rule="evenodd"/><path d="M562.96 157.416C562.96 160.407 560.535 162.832 557.543 162.832 554.552 162.832 552.126 160.407 552.126 157.416 552.126 154.424 554.552 151.999 557.543 151.999 560.535 151.999 562.96 154.424 562.96 157.416Z" stroke="#7F7F7F" stroke-width="1.33437" stroke-miterlimit="8" fill="none" fill-rule="evenodd"/><path d="M448.578 136.89C445.549 137.032 442.521 136.613 439.9 135.691M456.235 150.014C455.017 150.303 453.74 150.496 452.438 150.588M488.952 156.32C488.036 155.498 487.269 154.621 486.665 153.702M531.259 149.791C531.124 150.765 530.818 151.728 530.346 152.664M549.423 132.04C556.29 134.038 560.624 138.215 560.563 142.777M575.697 120.605C574.585 122.158 572.887 123.536 570.737 124.631M563.795 105.667C563.985 106.294 564.072 106.931 564.057 107.568M532.119 103.449C532.765 102.572 533.621 101.755 534.66 101.024M508.353 104.604C508.617 103.879 509.03 103.177 509.584 102.513M480.463 105.314C482.079 105.881 483.575 106.562 484.916 107.343M446.639 121.259C446.286 120.561 446.026 119.848 445.862 119.125" stroke="#7F7F7F" stroke-width="1.33437" stroke-miterlimit="8" fill="none" fill-rule="evenodd"/><text font-family="Calibri,Calibri_MSFontService,sans-serif" font-weight="700" font-size="13.344" transform="matrix(1 0 0 1.00002 461.476 116)">AI</text><text font-family="Yu Gothic,Yu Gothic_MSFontService,sans-serif" font-weight="700" font-size="13.344" transform="matrix(1 0 0 1.00002 472.985 116)">が自分で経験を</text><text font-family="Yu Gothic,Yu Gothic_MSFontService,sans-serif" font-weight="700" font-size="13.344" transform="matrix(1 0 0 1.00002 460.555 132)">積めるように</text><text font-family="Yu Gothic,Yu Gothic_MSFontService,sans-serif" font-weight="700" font-size="13.344" transform="matrix(1 0 0 1.00002 467.227 148)">なれば良い</text><path d="M423.5 173.671C423.5 171.922 424.918 170.504 426.667 170.504L618.333 170.504C620.082 170.504 621.5 171.922 621.5 173.671L621.5 186.338C621.5 188.087 620.082 189.505 618.333 189.505L426.667 189.505C424.918 189.505 423.5 188.087 423.5 186.338Z" stroke="#172C51" stroke-width="1.33437" stroke-miterlimit="8" fill="none" fill-rule="evenodd"/><text font-family="Yu Gothic Light,Yu Gothic Light_MSFontService,sans-serif" font-weight="700" font-size="13.344" transform="matrix(1 0 0 1.00002 427.853 184)">Welcome to the</text><text font-family="Yu Gothic Light,Yu Gothic Light_MSFontService,sans-serif" font-weight="700" font-size="13.344" transform="matrix(1 0 0 1.00002 518.59 184)">Era of</text><text font-family="Yu Gothic Light,Yu Gothic Light_MSFontService,sans-serif" font-weight="700" font-size="13.344" transform="matrix(1 0 0 1.00002 555.452 184)">Experience</text><path d="M178.236 216.133C176.723 209.613 184.512 203.609 195.633 202.723 200.139 202.363 204.721 202.901 208.645 204.248 212.803 199.654 222.519 197.907 230.346 200.348 231.715 200.775 232.971 201.316 234.076 201.954 237.314 198.145 245.202 196.598 251.693 198.498 253.49 199.023 255.057 199.784 256.275 200.721 261.494 197.119 270.717 196.674 276.875 199.727 279.463 201.01 281.208 202.78 281.809 204.733 290.361 206.101 295.406 211.283 293.077 216.307 292.882 216.729 292.636 217.143 292.342 217.546 299.201 222.781 297.522 230.284 288.592 234.305 285.812 235.556 282.529 236.367 279.059 236.658 278.982 242.29 271.126 246.819 261.512 246.774 258.3 246.759 255.157 246.223 252.432 245.227 249.181 251.541 237.838 255.11 227.098 253.198 222.597 252.397 218.708 250.703 216.094 248.404 205.097 252.293 190.824 250.201 184.214 243.732 184.131 243.65 184.049 243.568 183.969 243.485 176.772 243.979 170.253 240.968 169.408 236.76 168.958 234.517 170.221 232.272 172.86 230.624 166.629 228.473 164.536 223.752 168.185 220.079 170.29 217.96 173.982 216.559 178.127 216.307Z" fill="#FFCCFF" fill-rule="evenodd" fill-opacity="0.501961"/><path d="M178.409 258.208C178.409 259.068 177.712 259.764 176.853 259.764 175.994 259.764 175.297 259.068 175.297 258.208 175.297 257.349 175.994 256.653 176.853 256.653 177.712 256.653 178.409 257.349 178.409 258.208Z" fill="#FFCCFF" fill-rule="evenodd" fill-opacity="0.501961"/><path d="M184.632 255.415C184.632 257.133 183.239 258.526 181.521 258.526 179.803 258.526 178.41 257.133 178.41 255.415 178.41 253.697 179.803 252.304 181.521 252.304 183.239 252.304 184.632 253.697 184.632 255.415Z" fill="#FFCCFF" fill-rule="evenodd" fill-opacity="0.501961"/><path d="M193.525 251.024C193.525 253.602 191.436 255.691 188.858 255.691 186.281 255.691 184.191 253.602 184.191 251.024 184.191 248.447 186.281 246.357 188.858 246.357 191.436 246.357 193.525 248.447 193.525 251.024Z" fill="#FFCCFF" fill-rule="evenodd" fill-opacity="0.501961"/><path d="M178.236 216.133C176.723 209.613 184.512 203.609 195.633 202.723 200.139 202.363 204.721 202.901 208.645 204.248 212.803 199.654 222.519 197.907 230.346 200.348 231.715 200.775 232.971 201.316 234.076 201.954 237.314 198.145 245.202 196.598 251.693 198.498 253.49 199.023 255.057 199.784 256.275 200.721 261.494 197.119 270.717 196.674 276.875 199.727 279.463 201.01 281.208 202.78 281.809 204.733 290.361 206.101 295.406 211.283 293.077 216.307 292.882 216.729 292.636 217.143 292.342 217.546 299.201 222.781 297.522 230.284 288.592 234.305 285.812 235.556 282.529 236.367 279.059 236.658 278.982 242.29 271.126 246.819 261.512 246.774 258.3 246.759 255.157 246.223 252.432 245.227 249.181 251.541 237.838 255.11 227.098 253.198 222.597 252.397 218.708 250.703 216.094 248.404 205.097 252.293 190.824 250.201 184.214 243.732 184.131 243.65 184.049 243.568 183.969 243.485 176.772 243.979 170.253 240.968 169.408 236.76 168.958 234.517 170.221 232.272 172.86 230.624 166.629 228.473 164.536 223.752 168.185 220.079 170.29 217.96 173.982 216.559 178.127 216.307Z" stroke="#7F7F7F" stroke-width="1.33437" stroke-miterlimit="8" fill="none" fill-rule="evenodd"/><path d="M178.409 258.208C178.409 259.068 177.712 259.764 176.853 259.764 175.994 259.764 175.297 259.068 175.297 258.208 175.297 257.349 175.994 256.653 176.853 256.653 177.712 256.653 178.409 257.349 178.409 258.208Z" stroke="#7F7F7F" stroke-width="1.33437" stroke-miterlimit="8" fill="none" fill-rule="evenodd"/><path d="M184.632 255.415C184.632 257.133 183.239 258.526 181.521 258.526 179.803 258.526 178.41 257.133 178.41 255.415 178.41 253.697 179.803 252.304 181.521 252.304 183.239 252.304 184.632 253.697 184.632 255.415Z" stroke="#7F7F7F" stroke-width="1.33437" stroke-miterlimit="8" fill="none" fill-rule="evenodd"/><path d="M193.525 251.024C193.525 253.602 191.436 255.691 188.858 255.691 186.281 255.691 184.191 253.602 184.191 251.024 184.191 248.447 186.281 246.357 188.858 246.357 191.436 246.357 193.525 248.447 193.525 251.024Z" stroke="#7F7F7F" stroke-width="1.33437" stroke-miterlimit="8" fill="none" fill-rule="evenodd"/><path d="M180.622 231.439C177.962 231.561 175.302 231.2 173 230.405M187.348 242.745C186.278 242.995 185.157 243.161 184.013 243.24M216.087 248.178C215.282 247.47 214.608 246.714 214.077 245.922M253.248 242.553C253.13 243.393 252.861 244.222 252.445 245.028M269.203 227.261C275.235 228.982 279.041 232.58 278.987 236.511M292.281 217.409C291.304 218.747 289.813 219.934 287.924 220.877M281.827 204.539C281.993 205.079 282.07 205.628 282.057 206.177M254.003 202.628C254.571 201.872 255.323 201.168 256.235 200.539M233.128 203.623C233.36 202.999 233.723 202.394 234.209 201.822M208.63 204.235C210.049 204.723 211.363 205.31 212.541 205.983M178.919 217.972C178.609 217.371 178.381 216.756 178.237 216.133" stroke="#7F7F7F" stroke-width="1.33437" stroke-miterlimit="8" fill="none" fill-rule="evenodd"/><text font-family="Yu Gothic,Yu Gothic_MSFontService,sans-serif" font-weight="700" font-size="13.344" transform="matrix(1 0 0 1.00002 199.52 220)">報酬関数は</text><text font-family="Yu Gothic,Yu Gothic_MSFontService,sans-serif" font-weight="700" font-size="13.344" transform="matrix(1 0 0 1.00002 179.504 236)">誰が用意する？</text><path d="M315.854 220.127C314.004 212.559 323.53 205.591 337.132 204.561 342.644 204.144 348.247 204.768 353.047 206.332 358.132 200.999 370.016 198.972 379.589 201.805 381.263 202.3 382.8 202.928 384.151 203.669 388.111 199.248 397.758 197.452 405.698 199.657 407.896 200.268 409.813 201.15 411.302 202.238 417.686 198.057 428.966 197.54 436.497 201.084 439.663 202.573 441.796 204.628 442.532 206.895 452.992 208.483 459.162 214.497 456.314 220.329 456.074 220.819 455.774 221.299 455.415 221.766 463.804 227.843 461.75 236.552 450.828 241.219 447.428 242.672 443.413 243.613 439.169 243.95 439.074 250.487 429.466 255.745 417.707 255.692 413.778 255.675 409.935 255.053 406.602 253.896 402.625 261.226 388.752 265.368 375.616 263.149 370.111 262.219 365.354 260.252 362.157 257.584 348.708 262.098 331.251 259.67 323.166 252.161 323.064 252.066 322.964 251.971 322.865 251.875 314.063 252.448 306.09 248.954 305.057 244.069 304.506 241.466 306.051 238.86 309.279 236.946 301.658 234.45 299.097 228.97 303.561 224.707 306.136 222.247 310.652 220.622 315.72 220.329Z" fill="#FFCCFF" fill-rule="evenodd" fill-opacity="0.501961"/><path d="M296.74 251.82C296.74 252.817 295.932 253.625 294.935 253.625 293.938 253.625 293.129 252.817 293.129 251.82 293.129 250.822 293.938 250.014 294.935 250.014 295.932 250.014 296.74 250.822 296.74 251.82Z" fill="#FFCCFF" fill-rule="evenodd" fill-opacity="0.501961"/><path d="M303.256 250.68C303.256 252.675 301.64 254.292 299.645 254.292 297.651 254.292 296.034 252.675 296.034 250.68 296.034 248.686 297.651 247.069 299.645 247.069 301.64 247.069 303.256 248.686 303.256 250.68Z" fill="#FFCCFF" fill-rule="evenodd" fill-opacity="0.501961"/><path d="M313.282 248.692C313.282 251.684 310.857 254.109 307.866 254.109 304.874 254.109 302.449 251.684 302.449 248.692 302.449 245.701 304.874 243.276 307.866 243.276 310.857 243.276 313.282 245.701 313.282 248.692Z" fill="#FFCCFF" fill-rule="evenodd" fill-opacity="0.501961"/><path d="M315.854 220.127C314.004 212.559 323.53 205.591 337.132 204.561 342.644 204.144 348.247 204.768 353.047 206.332 358.132 200.999 370.016 198.972 379.589 201.805 381.263 202.3 382.8 202.928 384.151 203.669 388.111 199.248 397.758 197.452 405.698 199.657 407.896 200.268 409.813 201.15 411.302 202.238 417.686 198.057 428.966 197.54 436.497 201.084 439.663 202.573 441.796 204.628 442.532 206.895 452.992 208.483 459.162 214.497 456.314 220.329 456.074 220.819 455.774 221.299 455.415 221.766 463.804 227.843 461.75 236.552 450.828 241.219 447.428 242.672 443.413 243.613 439.169 243.95 439.074 250.487 429.466 255.745 417.707 255.692 413.778 255.675 409.935 255.053 406.602 253.896 402.625 261.226 388.752 265.368 375.616 263.149 370.111 262.219 365.354 260.252 362.157 257.584 348.708 262.098 331.251 259.67 323.166 252.161 323.064 252.066 322.964 251.971 322.865 251.875 314.063 252.448 306.09 248.954 305.057 244.069 304.506 241.466 306.051 238.86 309.279 236.946 301.658 234.45 299.097 228.97 303.561 224.707 306.136 222.247 310.652 220.622 315.72 220.329Z" stroke="#7F7F7F" stroke-width="1.33437" stroke-miterlimit="8" fill="none" fill-rule="evenodd"/><path d="M296.74 251.82C296.74 252.817 295.932 253.625 294.935 253.625 293.938 253.625 293.129 252.817 293.129 251.82 293.129 250.822 293.938 250.014 294.935 250.014 295.932 250.014 296.74 250.822 296.74 251.82Z" stroke="#7F7F7F" stroke-width="1.33437" stroke-miterlimit="8" fill="none" fill-rule="evenodd"/><path d="M303.256 250.68C303.256 252.675 301.64 254.292 299.645 254.292 297.651 254.292 296.034 252.675 296.034 250.68 296.034 248.686 297.651 247.069 299.645 247.069 301.64 247.069 303.256 248.686 303.256 250.68Z" stroke="#7F7F7F" stroke-width="1.33437" stroke-miterlimit="8" fill="none" fill-rule="evenodd"/><path d="M313.282 248.692C313.282 251.684 310.857 254.109 307.866 254.109 304.874 254.109 302.449 251.684 302.449 248.692 302.449 245.701 304.874 243.276 307.866 243.276 310.857 243.276 313.282 245.701 313.282 248.692Z" stroke="#7F7F7F" stroke-width="1.33437" stroke-miterlimit="8" fill="none" fill-rule="evenodd"/><path d="M318.773 237.892C315.519 238.034 312.266 237.616 309.45 236.693M326.999 251.016C325.69 251.306 324.319 251.499 322.92 251.59M362.148 257.322C361.164 256.501 360.34 255.623 359.69 254.704M407.599 250.793C407.455 251.768 407.126 252.731 406.618 253.666M427.114 233.043C434.491 235.041 439.147 239.218 439.081 243.78M455.34 221.607C454.145 223.161 452.321 224.539 450.011 225.633M442.554 206.669C442.757 207.296 442.851 207.933 442.835 208.57M408.523 204.451C409.217 203.574 410.137 202.757 411.253 202.026M382.991 205.607C383.274 204.882 383.719 204.179 384.313 203.515M353.028 206.317C354.764 206.883 356.371 207.564 357.812 208.346M316.69 222.262C316.311 221.564 316.031 220.85 315.855 220.127" stroke="#7F7F7F" stroke-width="1.33437" stroke-miterlimit="8" fill="none" fill-rule="evenodd"/><text font-family="Yu Gothic,Yu Gothic_MSFontService,sans-serif" font-weight="700" font-size="13.344" transform="matrix(1 0 0 1.00002 328.45 217)">逆強化学習にしても</text><text font-family="Yu Gothic,Yu Gothic_MSFontService,sans-serif" font-weight="700" font-size="13.344" transform="matrix(1 0 0 1.00002 321.778 233)">模倣学習にしても</text><text font-family="Yu Gothic,Yu Gothic_MSFontService,sans-serif" font-weight="700" font-size="13.344" transform="matrix(1 0 0 1.00002 335.122 249)">熟練者が要る</text><path d="M423.5 312.008C423.5 309.522 425.515 307.507 428 307.507L631 307.507C633.485 307.507 635.5 309.522 635.5 312.008L635.5 330.008C635.5 332.493 633.485 334.508 631 334.508L428 334.508C425.515 334.508 423.5 332.493 423.5 330.008Z" stroke="#172C51" stroke-width="1.33437" stroke-miterlimit="8" fill="none" fill-rule="evenodd"/><text font-family="Yu Gothic Light,Yu Gothic Light_MSFontService,sans-serif" font-weight="700" font-size="13.344" transform="matrix(1 0 0 1.00002 429.282 324)">Agent Learning via Early Experience</text><path d="M423.5 352.026C423.5 348.426 426.418 345.508 430.018 345.508L628.982 345.508C632.582 345.508 635.5 348.426 635.5 352.026L635.5 373.991C635.5 377.591 632.582 380.509 628.982 380.509L430.018 380.509C426.418 380.509 423.5 377.591 423.5 373.991Z" stroke="#172C51" stroke-width="1.33437" stroke-miterlimit="8" fill="none" fill-rule="evenodd"/><text font-family="Yu Gothic Light,Yu Gothic Light_MSFontService,sans-serif" font-weight="700" font-size="13.344" transform="matrix(1 0 0 1.00002 434.786 358)">The Missing Reward: Active</text><text font-family="Yu Gothic Light,Yu Gothic Light_MSFontService,sans-serif" font-weight="700" font-size="13.344" transform="matrix(1 0 0 1.00002 434.786 374)">Inference in the Era of Experience</text><path d="M472.236 251.128C470.723 243.56 478.512 236.591 489.633 235.562 494.14 235.145 498.721 235.768 502.645 237.333 506.803 232 516.519 229.973 524.346 232.806 525.715 233.301 526.971 233.929 528.076 234.67 531.314 230.249 539.202 228.453 545.693 230.658 547.49 231.268 549.058 232.151 550.275 233.238 555.495 229.058 564.718 228.541 570.875 232.085 573.463 233.574 575.208 235.629 575.809 237.895 584.361 239.483 589.406 245.498 587.077 251.33 586.882 251.82 586.636 252.3 586.342 252.767 593.201 258.844 591.522 267.553 582.592 272.22 579.812 273.673 576.529 274.613 573.059 274.951 572.982 281.488 565.126 286.745 555.512 286.693 552.3 286.675 549.157 286.054 546.432 284.897 543.181 292.226 531.838 296.369 521.098 294.15 516.597 293.22 512.708 291.253 510.094 288.585 499.098 293.099 484.824 290.671 478.214 283.162 478.131 283.067 478.049 282.972 477.969 282.876 470.772 283.449 464.253 279.954 463.408 275.07 462.958 272.467 464.221 269.861 466.86 267.947 460.629 265.45 458.536 259.971 462.185 255.708 464.29 253.248 467.983 251.622 472.127 251.33Z" fill="#DEEBF7" fill-rule="evenodd" fill-opacity="0.501961"/><path d="M600.203 288.175C600.203 289.172 599.395 289.981 598.398 289.981 597.4 289.981 596.592 289.172 596.592 288.175 596.592 287.178 597.4 286.37 598.398 286.37 599.395 286.37 600.203 287.178 600.203 288.175Z" fill="#DEEBF7" fill-rule="evenodd" fill-opacity="0.501961"/><path d="M596.443 286.177C596.443 288.172 594.826 289.788 592.832 289.788 590.837 289.788 589.22 288.172 589.22 286.177 589.22 284.183 590.837 282.566 592.832 282.566 594.826 282.566 596.443 284.183 596.443 286.177Z" fill="#DEEBF7" fill-rule="evenodd" fill-opacity="0.501961"/><path d="M589.284 282.959C589.284 285.951 586.859 288.376 583.867 288.376 580.875 288.376 578.45 285.951 578.45 282.959 578.45 279.967 580.875 277.542 583.867 277.542 586.859 277.542 589.284 279.967 589.284 282.959Z" fill="#DEEBF7" fill-rule="evenodd" fill-opacity="0.501961"/><path d="M472.236 251.128C470.723 243.56 478.512 236.591 489.633 235.562 494.14 235.145 498.721 235.768 502.645 237.333 506.803 232 516.519 229.973 524.346 232.806 525.715 233.301 526.971 233.929 528.076 234.67 531.314 230.249 539.202 228.453 545.693 230.658 547.49 231.268 549.058 232.151 550.275 233.238 555.495 229.058 564.718 228.541 570.875 232.085 573.463 233.574 575.208 235.629 575.809 237.895 584.361 239.483 589.406 245.498 587.077 251.33 586.882 251.82 586.636 252.3 586.342 252.767 593.201 258.844 591.522 267.553 582.592 272.22 579.812 273.673 576.529 274.613 573.059 274.951 572.982 281.488 565.126 286.745 555.512 286.693 552.3 286.675 549.157 286.054 546.432 284.897 543.181 292.226 531.838 296.369 521.098 294.15 516.597 293.22 512.708 291.253 510.094 288.585 499.098 293.099 484.824 290.671 478.214 283.162 478.131 283.067 478.049 282.972 477.969 282.876 470.772 283.449 464.253 279.954 463.408 275.07 462.958 272.467 464.221 269.861 466.86 267.947 460.629 265.45 458.536 259.971 462.185 255.708 464.29 253.248 467.983 251.622 472.127 251.33Z" stroke="#7F7F7F" stroke-width="1.33437" stroke-miterlimit="8" fill="none" fill-rule="evenodd"/><path d="M600.203 288.175C600.203 289.172 599.395 289.981 598.398 289.981 597.4 289.981 596.592 289.172 596.592 288.175 596.592 287.178 597.4 286.37 598.398 286.37 599.395 286.37 600.203 287.178 600.203 288.175Z" stroke="#7F7F7F" stroke-width="1.33437" stroke-miterlimit="8" fill="none" fill-rule="evenodd"/><path d="M596.443 286.177C596.443 288.172 594.826 289.788 592.832 289.788 590.837 289.788 589.22 288.172 589.22 286.177 589.22 284.183 590.837 282.566 592.832 282.566 594.826 282.566 596.443 284.183 596.443 286.177Z" stroke="#7F7F7F" stroke-width="1.33437" stroke-miterlimit="8" fill="none" fill-rule="evenodd"/><path d="M589.284 282.959C589.284 285.951 586.859 288.376 583.867 288.376 580.875 288.376 578.45 285.951 578.45 282.959 578.45 279.967 580.875 277.542 583.867 277.542 586.859 277.542 589.284 279.967 589.284 282.959Z" stroke="#7F7F7F" stroke-width="1.33437" stroke-miterlimit="8" fill="none" fill-rule="evenodd"/><path d="M474.622 268.893C471.962 269.035 469.302 268.616 467 267.694M481.348 282.017C480.278 282.307 479.157 282.5 478.013 282.591M510.087 288.323C509.282 287.501 508.608 286.624 508.077 285.705M547.248 281.794C547.13 282.768 546.861 283.731 546.445 284.667M563.203 264.044C569.235 266.041 573.041 270.218 572.987 274.78M586.281 252.608C585.304 254.162 583.813 255.54 581.924 256.634M575.827 237.67C575.993 238.297 576.07 238.934 576.057 239.571M548.003 235.452C548.571 234.575 549.323 233.758 550.235 233.027M527.128 236.607C527.36 235.883 527.723 235.18 528.209 234.516M502.63 237.318C504.049 237.884 505.363 238.565 506.541 239.347M472.919 253.263C472.609 252.564 472.381 251.851 472.237 251.128" stroke="#7F7F7F" stroke-width="1.33437" stroke-miterlimit="8" fill="none" fill-rule="evenodd"/><text font-family="Yu Gothic,Yu Gothic_MSFontService,sans-serif" font-weight="700" font-size="13.344" transform="matrix(1 0 0 1.00002 487.298 248)">報酬関数不要で</text><text font-family="Calibri,Calibri_MSFontService,sans-serif" font-weight="700" font-size="13.344" transform="matrix(1 0 0 1.00002 488.212 264)">AI</text><text font-family="Yu Gothic,Yu Gothic_MSFontService,sans-serif" font-weight="700" font-size="13.344" transform="matrix(1 0 0 1.00002 499.721 264)">が経験を</text><text font-family="Yu Gothic,Yu Gothic_MSFontService,sans-serif" font-weight="700" font-size="13.344" transform="matrix(1 0 0 1.00002 480.626 280)">積めれば良い</text><text font-family="Yu Gothic,Yu Gothic_MSFontService,sans-serif" font-weight="400" font-size="13.344" transform="matrix(1 0 0 1.00002 514.995 400)">：</text><text font-family="Yu Gothic,Yu Gothic_MSFontService,sans-serif" font-weight="700" font-size="14.6784" transform="matrix(1 0 0 1.00002 359.454 368)">能動学習</text><text font-family="Yu Gothic,Yu Gothic_MSFontService,sans-serif" font-weight="700" font-size="14.6784" transform="matrix(1 0 0 1.00002 227.515 326)">暗黙の世界モデル＋自己反省</text><path d="M498.5 72.6685C498.5 70.9195 499.918 69.5017 501.667 69.5017L627.333 69.5017C629.082 69.5017 630.5 70.9195 630.5 72.6685L630.5 85.3352C630.5 87.0843 629.082 88.5021 627.333 88.5021L501.667 88.5021C499.918 88.5021 498.5 87.0843 498.5 85.3352Z" stroke="#172C51" stroke-width="1.33437" stroke-miterlimit="8" fill="none" fill-rule="evenodd"/><text font-family="Yu Gothic Light,Yu Gothic Light_MSFontService,sans-serif" font-weight="700" font-size="13.344" transform="matrix(1 0 0 1.00002 513.689 83)">Reward</text><text font-family="Yu Gothic Light,Yu Gothic Light_MSFontService,sans-serif" font-weight="700" font-size="13.344" transform="matrix(1 0 0 1.00002 560.058 83)">is</text><text font-family="Yu Gothic Light,Yu Gothic Light_MSFontService,sans-serif" font-weight="700" font-size="13.344" transform="matrix(1 0 0 1.00002 572.901 83)">Enough</text><path d="M530.43 30.4715C529.151 25.5819 535.741 21.0789 545.151 20.4138 548.964 20.1443 552.841 20.5472 556.161 21.558 559.679 18.112 567.901 16.8023 574.524 18.6328 575.682 18.9529 576.745 19.3585 577.68 19.8372 580.42 16.9807 587.094 15.8201 592.587 17.2451 594.107 17.6394 595.433 18.2098 596.464 18.9124 600.88 16.211 608.684 15.8773 613.894 18.1671 616.084 19.1294 617.56 20.4568 618.069 21.9216 625.305 22.9476 629.574 26.834 627.604 30.6021 627.438 30.9189 627.23 31.2293 626.982 31.531 632.786 35.4573 631.365 41.0848 623.809 44.1005 621.457 45.0392 618.679 45.647 615.743 45.8651 615.677 50.0892 609.03 53.4861 600.895 53.4522 598.177 53.4409 595.518 53.0393 593.212 52.2919 590.46 57.0276 580.863 59.7043 571.775 58.2705 567.966 57.6695 564.676 56.3987 562.464 54.6748 553.159 57.5914 541.082 56.0225 535.489 51.1705 535.418 51.1094 535.349 51.0478 535.281 50.9859 529.191 51.3563 523.675 49.0982 522.961 45.9421 522.58 44.2599 523.648 42.5761 525.882 41.3395 520.609 39.7264 518.838 36.1856 521.926 33.431 523.707 31.8418 526.831 30.7912 530.338 30.6023Z" fill="#DEEBF7" fill-rule="evenodd" fill-opacity="0.501961"/><path d="M616.338 61.1853C616.338 61.8296 615.816 62.3519 615.172 62.3519 614.527 62.3519 614.005 61.8296 614.005 61.1853 614.005 60.5409 614.527 60.0186 615.172 60.0186 615.816 60.0186 616.338 60.5409 616.338 61.1853Z" fill="#DEEBF7" fill-rule="evenodd" fill-opacity="0.501961"/><path d="M614.827 59.5864C614.827 60.875 613.782 61.9197 612.493 61.9197 611.205 61.9197 610.16 60.875 610.16 59.5864 610.16 58.2977 611.205 57.253 612.493 57.253 613.782 57.253 614.827 58.2977 614.827 59.5864Z" fill="#DEEBF7" fill-rule="evenodd" fill-opacity="0.501961"/><path d="M611.312 56.7914C611.312 58.7245 609.745 60.2916 607.812 60.2916 605.879 60.2916 604.312 58.7245 604.312 56.7914 604.312 54.8583 605.879 53.2913 607.812 53.2913 609.745 53.2913 611.312 54.8583 611.312 56.7914Z" fill="#DEEBF7" fill-rule="evenodd" fill-opacity="0.501961"/><path d="M530.43 30.4715C529.151 25.5819 535.741 21.0789 545.151 20.4138 548.964 20.1443 552.841 20.5472 556.161 21.558 559.679 18.112 567.901 16.8023 574.524 18.6328 575.682 18.9529 576.745 19.3585 577.68 19.8372 580.42 16.9807 587.094 15.8201 592.587 17.2451 594.107 17.6394 595.433 18.2098 596.464 18.9124 600.88 16.211 608.684 15.8773 613.894 18.1671 616.084 19.1294 617.56 20.4568 618.069 21.9216 625.305 22.9476 629.574 26.834 627.604 30.6021 627.438 30.9189 627.23 31.2293 626.982 31.531 632.786 35.4573 631.365 41.0848 623.809 44.1005 621.457 45.0392 618.679 45.647 615.743 45.8651 615.677 50.0892 609.03 53.4861 600.895 53.4522 598.177 53.4409 595.518 53.0393 593.212 52.2919 590.46 57.0276 580.863 59.7043 571.775 58.2705 567.966 57.6695 564.676 56.3987 562.464 54.6748 553.159 57.5914 541.082 56.0225 535.489 51.1705 535.418 51.1094 535.349 51.0478 535.281 50.9859 529.191 51.3563 523.675 49.0982 522.961 45.9421 522.58 44.2599 523.648 42.5761 525.882 41.3395 520.609 39.7264 518.838 36.1856 521.926 33.431 523.707 31.8418 526.831 30.7912 530.338 30.6023Z" stroke="#7F7F7F" stroke-width="1.33437" stroke-miterlimit="8" fill="none" fill-rule="evenodd"/><path d="M616.338 61.1853C616.338 61.8296 615.816 62.3519 615.172 62.3519 614.527 62.3519 614.005 61.8296 614.005 61.1853 614.005 60.5409 614.527 60.0186 615.172 60.0186 615.816 60.0186 616.338 60.5409 616.338 61.1853Z" stroke="#7F7F7F" stroke-width="1.33437" stroke-miterlimit="8" fill="none" fill-rule="evenodd"/><path d="M614.827 59.5864C614.827 60.875 613.782 61.9197 612.493 61.9197 611.205 61.9197 610.16 60.875 610.16 59.5864 610.16 58.2977 611.205 57.253 612.493 57.253 613.782 57.253 614.827 58.2977 614.827 59.5864Z" stroke="#7F7F7F" stroke-width="1.33437" stroke-miterlimit="8" fill="none" fill-rule="evenodd"/><path d="M611.312 56.7914C611.312 58.7245 609.745 60.2916 607.812 60.2916 605.879 60.2916 604.312 58.7245 604.312 56.7914 604.312 54.8583 605.879 53.2913 607.812 53.2913 609.745 53.2913 611.312 54.8583 611.312 56.7914Z" stroke="#7F7F7F" stroke-width="1.33437" stroke-miterlimit="8" fill="none" fill-rule="evenodd"/><path d="M532.45 41.9508C530.199 42.0424 527.948 41.772 526 41.1759M538.141 50.4308C537.235 50.618 536.287 50.7427 535.319 50.8016M562.458 54.5054C561.777 53.9747 561.207 53.4076 560.757 52.8137M593.902 50.2869C593.802 50.9164 593.574 51.5386 593.223 52.1431M607.403 38.8173C612.506 40.1082 615.727 42.8072 615.682 45.7549M626.93 31.4282C626.104 32.432 624.842 33.3224 623.244 34.0296M618.084 21.7758C618.225 22.1811 618.29 22.5925 618.279 23.0044M594.541 20.3427C595.021 19.7759 595.658 19.2481 596.43 18.7759M576.878 21.0894C577.073 20.621 577.381 20.167 577.792 19.7381M556.148 21.5483C557.349 21.914 558.461 22.3542 559.458 22.8592M531.008 31.8511C530.746 31.4 530.553 30.9388 530.431 30.4719" stroke="#7F7F7F" stroke-width="1.33437" stroke-miterlimit="8" fill="none" fill-rule="evenodd"/><text font-family="Yu Gothic,Yu Gothic_MSFontService,sans-serif" font-weight="700" font-size="13.344" transform="matrix(1 0 0 1.00002 537.902 40)">報酬で十分</text><path d="M23.1319 217.133C21.3749 210.613 30.422 204.609 43.3393 203.723 48.5736 203.363 53.8953 203.9 58.4531 205.248 63.2826 200.653 74.5682 198.907 83.6602 201.348 85.25 201.775 86.7091 202.316 87.9921 202.954 91.7534 199.145 100.915 197.598 108.456 199.498 110.542 200.023 112.363 200.784 113.777 201.721 119.84 198.119 130.553 197.674 137.705 200.727 140.711 202.01 142.737 203.78 143.436 205.733 153.369 207.101 159.229 212.283 156.525 217.307 156.297 217.729 156.012 218.143 155.671 218.546 163.637 223.781 161.687 231.284 151.315 235.305 148.086 236.556 144.272 237.367 140.242 237.658 140.152 243.29 131.027 247.819 119.86 247.774 116.129 247.759 112.479 247.223 109.314 246.227 105.537 252.541 92.3617 256.11 79.8866 254.198 74.6584 253.397 70.1412 251.702 67.1054 249.404 54.3325 253.293 37.7537 251.201 30.0756 244.732 29.9789 244.65 29.8838 244.568 29.7904 244.485 21.4311 244.979 13.8591 241.968 12.878 237.76 12.355 235.517 13.8219 233.272 16.8876 231.624 9.64965 229.473 7.21828 224.752 11.457 221.079 13.9024 218.96 18.1912 217.559 23.0047 217.307Z" fill="#FFCCFF" fill-rule="evenodd" fill-opacity="0.501961"/><path d="M23.0812 259.208C23.0812 260.067 22.3848 260.764 21.5257 260.764 20.6665 260.764 19.9701 260.067 19.9701 259.208 19.9701 258.349 20.6665 257.653 21.5257 257.653 22.3848 257.653 23.0812 258.349 23.0812 259.208Z" fill="#FFCCFF" fill-rule="evenodd" fill-opacity="0.501961"/><path d="M30.1702 256.358C30.1702 258.076 28.7773 259.469 27.059 259.469 25.3408 259.469 23.9479 258.076 23.9479 256.358 23.9479 254.639 25.3408 253.246 27.059 253.246 28.7773 253.246 30.1702 254.639 30.1702 256.358Z" fill="#FFCCFF" fill-rule="evenodd" fill-opacity="0.501961"/><path d="M40.025 252.082C40.025 254.659 37.9356 256.748 35.3582 256.748 32.7809 256.748 30.6915 254.659 30.6915 252.082 30.6915 249.504 32.7809 247.415 35.3582 247.415 37.9356 247.415 40.025 249.504 40.025 252.082Z" fill="#FFCCFF" fill-rule="evenodd" fill-opacity="0.501961"/><path d="M23.1319 217.133C21.3749 210.613 30.422 204.609 43.3393 203.723 48.5736 203.363 53.8953 203.9 58.4531 205.248 63.2826 200.653 74.5682 198.907 83.6602 201.348 85.25 201.775 86.7091 202.316 87.9921 202.954 91.7534 199.145 100.915 197.598 108.456 199.498 110.542 200.023 112.363 200.784 113.777 201.721 119.84 198.119 130.553 197.674 137.705 200.727 140.711 202.01 142.737 203.78 143.436 205.733 153.369 207.101 159.229 212.283 156.525 217.307 156.297 217.729 156.012 218.143 155.671 218.546 163.637 223.781 161.687 231.284 151.315 235.305 148.086 236.556 144.272 237.367 140.242 237.658 140.152 243.29 131.027 247.819 119.86 247.774 116.129 247.759 112.479 247.223 109.314 246.227 105.537 252.541 92.3617 256.11 79.8866 254.198 74.6584 253.397 70.1412 251.702 67.1054 249.404 54.3325 253.293 37.7537 251.201 30.0756 244.732 29.9789 244.65 29.8838 244.568 29.7904 244.485 21.4311 244.979 13.8591 241.968 12.878 237.76 12.355 235.517 13.8219 233.272 16.8876 231.624 9.64965 229.473 7.21828 224.752 11.457 221.079 13.9024 218.96 18.1912 217.559 23.0047 217.307Z" stroke="#7F7F7F" stroke-width="1.33437" stroke-miterlimit="8" fill="none" fill-rule="evenodd"/><path d="M23.0812 259.208C23.0812 260.067 22.3848 260.764 21.5257 260.764 20.6665 260.764 19.9701 260.067 19.9701 259.208 19.9701 258.349 20.6665 257.653 21.5257 257.653 22.3848 257.653 23.0812 258.349 23.0812 259.208Z" stroke="#7F7F7F" stroke-width="1.33437" stroke-miterlimit="8" fill="none" fill-rule="evenodd"/><path d="M30.1702 256.358C30.1702 258.076 28.7773 259.469 27.059 259.469 25.3408 259.469 23.9479 258.076 23.9479 256.358 23.9479 254.639 25.3408 253.246 27.059 253.246 28.7773 253.246 30.1702 254.639 30.1702 256.358Z" stroke="#7F7F7F" stroke-width="1.33437" stroke-miterlimit="8" fill="none" fill-rule="evenodd"/><path d="M40.025 252.082C40.025 254.659 37.9356 256.748 35.3582 256.748 32.7809 256.748 30.6915 254.659 30.6915 252.082 30.6915 249.504 32.7809 247.415 35.3582 247.415 37.9356 247.415 40.025 249.504 40.025 252.082Z" stroke="#7F7F7F" stroke-width="1.33437" stroke-miterlimit="8" fill="none" fill-rule="evenodd"/><path d="M25.9038 232.439C22.8138 232.561 19.7241 232.2 17.0496 231.405M33.7159 243.745C32.4733 243.995 31.1708 244.161 29.842 244.24M67.0967 249.178C66.1621 248.47 65.3796 247.714 64.7626 246.922M110.261 243.553C110.124 244.393 109.811 245.222 109.329 246.028M128.794 228.261C135.8 229.982 140.221 233.58 140.158 237.511M155.6 218.408C154.465 219.747 152.733 220.934 150.539 221.877M143.457 205.539C143.65 206.079 143.739 206.628 143.724 207.177M111.138 203.628C111.798 202.872 112.671 202.168 113.731 201.539M86.891 204.623C87.16 203.999 87.5818 203.394 88.1466 202.822M58.4352 205.235C60.0843 205.723 61.61 206.31 62.9787 206.983M23.9254 218.972C23.5654 218.371 23.3003 217.756 23.1325 217.133" stroke="#7F7F7F" stroke-width="1.33437" stroke-miterlimit="8" fill="none" fill-rule="evenodd"/><text font-family="Yu Gothic,Yu Gothic_MSFontService,sans-serif" font-weight="700" font-size="13.344" transform="matrix(1 0 0 1.00002 25.6808 221)">報酬</text><text font-family="Yu Gothic,Yu Gothic_MSFontService,sans-serif" font-weight="700" font-size="13.344" transform="matrix(1 0 0 1.00002 52.3682 221)">だけ</text><text font-family="Yu Gothic,Yu Gothic_MSFontService,sans-serif" font-weight="700" font-size="13.344" transform="matrix(1 0 0 1.00002 79.0556 221)">で十分って</text><text font-family="Yu Gothic,Yu Gothic_MSFontService,sans-serif" font-weight="700" font-size="13.344" transform="matrix(1 0 0 1.00002 19.009 237)">何億年も</text><text font-family="Yu Gothic,Yu Gothic_MSFontService,sans-serif" font-weight="700" font-size="13.344" transform="matrix(1 0 0 1.00002 72.3838 237)">掛ければね</text></g></svg>