<svg width="227" height="217" xmlns="http://www.w3.org/2000/svg" xmlns:xlink="http://www.w3.org/1999/xlink" overflow="hidden"><defs><clipPath id="clip0"><rect x="0" y="0" width="227" height="217"/></clipPath></defs><g clip-path="url(#clip0)"><rect x="0" y="0" width="227" height="216.508" fill="#FFFFFF"/><path d="M17.5 115.405C17.5 106.496 24.7382 99.2745 33.667 99.2745L188.333 99.2745C197.262 99.2745 204.5 106.496 204.5 115.405L204.5 179.924C204.5 188.833 197.262 196.055 188.333 196.055L33.667 196.055C24.7382 196.055 17.5 188.833 17.5 179.924Z" stroke="#172C51" stroke-width="1.33431" stroke-miterlimit="8" fill="#F3F3F3" fill-rule="evenodd"/><text font-family="Yu Gothic,Yu Gothic_MSFontService,sans-serif" font-weight="700" font-size="14.6442" transform="matrix(1 0 0 0.997733 95.7604 187)">知覚</text><text font-family="Calibri,Calibri_MSFontService,sans-serif" font-weight="700" font-size="14.6442" transform="matrix(1 0 0 0.997733 84.407 34)">G</text><text font-family="Calibri,Calibri_MSFontService,sans-serif" font-weight="700" font-size="9.76278" transform="matrix(1 0 0 0.997733 93.7472 30)">2</text><text font-family="Calibri,Calibri_MSFontService,sans-serif" font-weight="700" font-size="14.6442" transform="matrix(1 0 0 0.997733 98.7508 34)">VLM</text><path d="M43.5 49.2215C43.5 47.1092 45.2162 45.3968 47.3334 45.3968L183.667 45.3968C185.784 45.3968 187.5 47.1092 187.5 49.2215L187.5 64.52C187.5 66.6323 185.784 68.3447 183.667 68.3447L47.3334 68.3447C45.2162 68.3447 43.5 66.6323 43.5 64.52Z" stroke="#172C51" stroke-width="1.33431" stroke-miterlimit="8" fill="#D9D2E9" fill-rule="evenodd"/><text font-family="Yu Gothic,Yu Gothic_MSFontService,sans-serif" font-weight="700" font-size="14.6442" transform="matrix(1 0 0 0.997733 86.0345 61)">交互推論</text><path d="M24.5 122.389C24.5 117.338 28.6041 113.243 33.6668 113.243L96.3332 113.243C101.396 113.243 105.5 117.338 105.5 122.389L105.5 158.972C105.5 164.023 101.396 168.118 96.3332 168.118L33.6668 168.118C28.6041 168.118 24.5 164.023 24.5 158.972Z" stroke="#172C51" stroke-width="1.33431" stroke-miterlimit="8" fill="#D9EAD3" fill-rule="evenodd"/><text font-family="Yu Gothic,Yu Gothic_MSFontService,sans-serif" font-weight="700" font-size="14.6442" transform="matrix(1 0 0 0.997733 34.7881 128)">幾何学的</text><text font-family="Yu Gothic,Yu Gothic_MSFontService,sans-serif" font-weight="700" font-size="14.6442" transform="matrix(1 0 0 0.997733 49.4656 145)">知覚</text><text font-family="Calibri,Calibri_MSFontService,sans-serif" font-weight="700" font-size="14.6442" transform="matrix(1 0 0 0.997733 51.0467 163)">(GP)</text><path d="M115.5 122.389C115.5 117.338 119.604 113.243 124.667 113.243L187.333 113.243C192.396 113.243 196.5 117.338 196.5 122.389L196.5 158.972C196.5 164.023 192.396 168.118 187.333 168.118L124.667 168.118C119.604 168.118 115.5 164.023 115.5 158.972Z" stroke="#172C51" stroke-width="1.33431" stroke-miterlimit="8" fill="#D9EAD3" fill-rule="evenodd"/><text font-family="Yu Gothic,Yu Gothic_MSFontService,sans-serif" font-weight="700" font-size="14.6442" transform="matrix(1 0 0 0.997733 133.928 128)">意味的</text><text font-family="Yu Gothic,Yu Gothic_MSFontService,sans-serif" font-weight="700" font-size="14.6442" transform="matrix(1 0 0 0.997733 141.266 145)">知覚</text><text font-family="Calibri,Calibri_MSFontService,sans-serif" font-weight="700" font-size="14.6442" transform="matrix(1 0 0 0.997733 144.015 163)">(SP)</text><path d="M66.8328 94.2858 66.8328 78.992 68.1671 78.992 68.1671 94.2858ZM63.497 80.3233 67.5 72.3356 71.5029 80.3233Z" fill="#172C51"/><path d="M155.833 94.2858 155.833 78.992 157.167 78.992 157.167 94.2858ZM152.497 80.3233 156.5 72.3356 160.503 80.3233Z" fill="#172C51"/><path d="M7.49999 43.2358C7.49999 25.1432 22.2003 10.4762 40.3341 10.4762L183.666 10.4762C201.8 10.4762 216.5 25.1432 216.5 43.2358L216.5 174.27C216.5 192.363 201.8 207.03 183.666 207.03L40.3341 207.03C22.2003 207.03 7.49999 192.363 7.49999 174.27Z" stroke="#172C51" stroke-width="1.33431" stroke-miterlimit="8" fill="none" fill-rule="evenodd"/></g></svg>