<svg width="586" height="529" xmlns="http://www.w3.org/2000/svg" xmlns:xlink="http://www.w3.org/1999/xlink" overflow="hidden"><defs><clipPath id="clip0"><rect x="0" y="0" width="586" height="529"/></clipPath></defs><g clip-path="url(#clip0)"><rect x="0" y="0" width="586" height="528.683" fill="#FFFFFF"/><path d="M366 37.3741C366 26.6681 374.684 17.9892 385.396 17.9892L552.603 17.9892C563.316 17.9892 572 26.6681 572 37.3741L572 197.485C572 208.191 563.316 216.87 552.603 216.87L385.396 216.87C374.684 216.87 366 208.191 366 197.485Z" stroke="#3C7FBD" stroke-width="2.00057" stroke-miterlimit="8" stroke-dasharray="8.00228 6.00171" fill="none" fill-rule="evenodd"/><text font-family="Yu Gothic,Yu Gothic_MSFontService,sans-serif" font-weight="700" font-size="14.662" transform="matrix(1 0 0 0.999401 454.241 49)">表記</text><text font-family="Calibri,Calibri_MSFontService,sans-serif" font-weight="700" font-size="14.662" transform="matrix(1 0 0 0.999401 380.886 73)">r:</text><text font-family="Yu Gothic,Yu Gothic_MSFontService,sans-serif" font-weight="700" font-size="14.662" transform="matrix(1 0 0 0.999401 393.39 73)">報酬</text><text font-family="Calibri,Calibri_MSFontService,sans-serif" font-weight="700" font-size="14.662" transform="matrix(1 0 0 0.999401 380.886 90)">A:</text><text font-family="Yu Gothic,Yu Gothic_MSFontService,sans-serif" font-weight="700" font-size="14.662" transform="matrix(1 0 0 0.999401 397.058 90)">アドバンテージ</text><text font-family="Calibri,Calibri_MSFontService,sans-serif" font-weight="700" font-size="14.662" transform="matrix(1 0 0 0.999401 380.886 108)">n:</text><text font-family="Yu Gothic,Yu Gothic_MSFontService,sans-serif" font-weight="700" font-size="14.662" transform="matrix(1 0 0 0.999401 396.057 108)">目標数</text><text font-family="Calibri,Calibri_MSFontService,sans-serif" font-weight="700" font-size="14.662" transform="matrix(1 0 0 0.999401 380.886 125)">G:</text><text font-family="Yu Gothic,Yu Gothic_MSFontService,sans-serif" font-weight="700" font-size="14.662" transform="matrix(1 0 0 0.999401 397.558 125)">ロールアウト回数</text><text font-family="Calibri,Calibri_MSFontService,sans-serif" font-weight="700" font-size="14.662" transform="matrix(1 0 0 0.999401 380.886 143)">B:</text><text font-family="Yu Gothic,Yu Gothic_MSFontService,sans-serif" font-weight="700" font-size="14.662" transform="matrix(1 0 0 0.999401 396.391 143)">バッチサイズ</text><text font-family="Calibri,Calibri_MSFontService,sans-serif" font-weight="700" font-size="14.662" transform="matrix(1 0 0 0.999401 380.886 161)">i: i</text><text font-family="Yu Gothic,Yu Gothic_MSFontService,sans-serif" font-weight="700" font-size="14.662" transform="matrix(1 0 0 0.999401 395.557 161)">番目の質問</text><text font-family="Calibri,Calibri_MSFontService,sans-serif" font-weight="700" font-size="14.662" transform="matrix(1 0 0 0.999401 380.886 178)">j: j</text><text font-family="Yu Gothic,Yu Gothic_MSFontService,sans-serif" font-weight="700" font-size="14.662" transform="matrix(1 0 0 0.999401 395.557 178)">番目のロールアウト</text><text font-family="Calibri,Calibri_MSFontService,sans-serif" font-weight="700" font-size="14.662" transform="matrix(1 0 0 0.999401 380.886 196)">D</text><text font-family="Calibri,Calibri_MSFontService,sans-serif" font-weight="700" font-size="9.7747" transform="matrix(1 0 0 0.999401 390.056 199)">Batch</text><text font-family="Calibri,Calibri_MSFontService,sans-serif" font-weight="700" font-size="14.662" transform="matrix(1 0 0 0.999401 416.396 196)">= {</text><text font-family="Yu Gothic,Yu Gothic_MSFontService,sans-serif" font-weight="700" font-size="14.662" transform="matrix(1 0 0 0.999401 432.068 196)">質問</text><text font-family="Calibri,Calibri_MSFontService,sans-serif" font-weight="700" font-size="14.662" transform="matrix(1 0 0 0.999401 464.744 196)">i|i=1,...,B}</text><path d="M14 82.2789C14 74.3704 20.415 67.9593 28.3282 67.9593L331.672 67.9593C339.585 67.9593 346 74.3704 346 82.2789L346 200.552C346 208.46 339.585 214.871 331.672 214.871L28.3282 214.871C20.415 214.871 14 208.46 14 200.552Z" stroke="#E13838" stroke-width="2.00057" stroke-miterlimit="8" stroke-dasharray="8.00228 6.00171" fill="none" fill-rule="evenodd"/><text font-family="Calibri,Calibri_MSFontService,sans-serif" font-weight="700" font-size="14.662" transform="matrix(1 0 0 0.999401 161.894 96)">GRPO</text><text font-family="Cambria Math,Cambria Math_MSFontService,sans-serif" font-weight="400" font-size="14.662" transform="matrix(1 0 0 0.999401 103.611 124)">𝒓</text><text font-family="Cambria Math,Cambria Math_MSFontService,sans-serif" font-weight="400" font-size="10.7033" transform="matrix(1 0 0 0.999401 111.446 128)">𝒔𝒖𝒎</text><text font-family="Cambria Math,Cambria Math_MSFontService,sans-serif" font-weight="400" font-size="10.7033" transform="matrix(1 0 0 0.999401 111.446 116)">(</text><text font-family="Cambria Math,Cambria Math_MSFontService,sans-serif" font-weight="400" font-size="10.7033" transform="matrix(1 0 0 0.999401 115.948 116)">𝒊</text><text font-family="Cambria Math,Cambria Math_MSFontService,sans-serif" font-weight="400" font-size="10.7033" transform="matrix(1 0 0 0.999401 119.949 116)">,</text><text font-family="Cambria Math,Cambria Math_MSFontService,sans-serif" font-weight="400" font-size="10.7033" transform="matrix(1 0 0 0.999401 122.116 116)">𝒋</text><text font-family="Cambria Math,Cambria Math_MSFontService,sans-serif" font-weight="400" font-size="10.7033" transform="matrix(1 0 0 0.999401 126.284 116)">)</text><text font-family="Cambria Math,Cambria Math_MSFontService,sans-serif" font-weight="400" font-size="14.662" transform="matrix(1 0 0 0.999401 138.301 124)">=</text><text font-family="Cambria Math,Cambria Math_MSFontService,sans-serif" font-weight="400" font-size="14.662" transform="matrix(1 0 0 0.999401 153.378 124)">𝒓</text><text font-family="Cambria Math,Cambria Math_MSFontService,sans-serif" font-weight="400" font-size="10.7033" transform="matrix(1 0 0 0.999401 161.214 129)">𝟏</text><text font-family="Cambria Math,Cambria Math_MSFontService,sans-serif" font-weight="400" font-size="10.7033" transform="matrix(1 0 0 0.999401 161.214 116)">(</text><text font-family="Cambria Math,Cambria Math_MSFontService,sans-serif" font-weight="400" font-size="10.7033" transform="matrix(1 0 0 0.999401 165.715 116)">𝒊</text><text font-family="Cambria Math,Cambria Math_MSFontService,sans-serif" font-weight="400" font-size="10.7033" transform="matrix(1 0 0 0.999401 169.716 116)">,</text><text font-family="Cambria Math,Cambria Math_MSFontService,sans-serif" font-weight="400" font-size="10.7033" transform="matrix(1 0 0 0.999401 171.883 116)">𝒋</text><text font-family="Cambria Math,Cambria Math_MSFontService,sans-serif" font-weight="400" font-size="10.7033" transform="matrix(1 0 0 0.999401 176.051 116)">)</text><text font-family="Cambria Math,Cambria Math_MSFontService,sans-serif" font-weight="400" font-size="14.662" transform="matrix(1 0 0 0.999401 184.42 124)">+</text><text font-family="Cambria Math,Cambria Math_MSFontService,sans-serif" font-weight="400" font-size="14.662" transform="matrix(1 0 0 0.999401 198.684 124)">⋯</text><text font-family="Cambria Math,Cambria Math_MSFontService,sans-serif" font-weight="400" font-size="14.662" transform="matrix(1 0 0 0.999401 213.635 124)">+</text><text font-family="Cambria Math,Cambria Math_MSFontService,sans-serif" font-weight="400" font-size="14.662" transform="matrix(1 0 0 0.999401 227.899 124)">𝒓</text><text font-family="Cambria Math,Cambria Math_MSFontService,sans-serif" font-weight="400" font-size="10.7033" transform="matrix(1 0 0 0.999401 235.735 128)">𝒏</text><text font-family="Cambria Math,Cambria Math_MSFontService,sans-serif" font-weight="400" font-size="10.7033" transform="matrix(1 0 0 0.999401 235.735 116)">(</text><text font-family="Cambria Math,Cambria Math_MSFontService,sans-serif" font-weight="400" font-size="10.7033" transform="matrix(1 0 0 0.999401 240.236 116)">𝒊</text><text font-family="Cambria Math,Cambria Math_MSFontService,sans-serif" font-weight="400" font-size="10.7033" transform="matrix(1 0 0 0.999401 244.237 116)">,</text><text font-family="Cambria Math,Cambria Math_MSFontService,sans-serif" font-weight="400" font-size="10.7033" transform="matrix(1 0 0 0.999401 246.405 116)">𝒋</text><text font-family="Cambria Math,Cambria Math_MSFontService,sans-serif" font-weight="400" font-size="10.7033" transform="matrix(1 0 0 0.999401 250.572 116)">)</text><text font-family="Cambria Math,Cambria Math_MSFontService,sans-serif" font-weight="400" font-size="14.662" transform="matrix(1 0 0 0.999401 58.5445 179)">𝑨</text><text font-family="Cambria Math,Cambria Math_MSFontService,sans-serif" font-weight="400" font-size="10.7033" transform="matrix(1 0 0 0.999401 68.2139 183)">𝒔𝒖𝒎</text><text font-family="Cambria Math,Cambria Math_MSFontService,sans-serif" font-weight="400" font-size="10.7033" transform="matrix(1 0 0 0.999401 68.2139 171)">(</text><text font-family="Cambria Math,Cambria Math_MSFontService,sans-serif" font-weight="400" font-size="10.7033" transform="matrix(1 0 0 0.999401 72.7152 171)">𝒊</text><text font-family="Cambria Math,Cambria Math_MSFontService,sans-serif" font-weight="400" font-size="10.7033" transform="matrix(1 0 0 0.999401 76.7164 171)">,</text><text font-family="Cambria Math,Cambria Math_MSFontService,sans-serif" font-weight="400" font-size="10.7033" transform="matrix(1 0 0 0.999401 78.8836 171)">𝒋</text><text font-family="Cambria Math,Cambria Math_MSFontService,sans-serif" font-weight="400" font-size="10.7033" transform="matrix(1 0 0 0.999401 83.0515 171)">)</text><text font-family="Cambria Math,Cambria Math_MSFontService,sans-serif" font-weight="400" font-size="14.662" transform="matrix(1 0 0 0.999401 95.0682 179)">=</text><text font-family="Cambria Math,Cambria Math_MSFontService,sans-serif" font-weight="400" font-size="14.662" transform="matrix(1 0 0 0.999401 110.146 165)">𝒓</text><text font-family="Cambria Math,Cambria Math_MSFontService,sans-serif" font-weight="400" font-size="10.7033" transform="matrix(1 0 0 0.999401 117.981 168)">𝒔𝒖𝒎</text><text font-family="Cambria Math,Cambria Math_MSFontService,sans-serif" font-weight="400" font-size="10.7033" transform="matrix(1 0 0 0.999401 117.981 157)">(</text><text font-family="Cambria Math,Cambria Math_MSFontService,sans-serif" font-weight="400" font-size="10.7033" transform="matrix(1 0 0 0.999401 122.483 157)">𝒊</text><text font-family="Cambria Math,Cambria Math_MSFontService,sans-serif" font-weight="400" font-size="10.7033" transform="matrix(1 0 0 0.999401 126.484 157)">,</text><text font-family="Cambria Math,Cambria Math_MSFontService,sans-serif" font-weight="400" font-size="10.7033" transform="matrix(1 0 0 0.999401 128.651 157)">𝒋</text><text font-family="Cambria Math,Cambria Math_MSFontService,sans-serif" font-weight="400" font-size="10.7033" transform="matrix(1 0 0 0.999401 132.819 157)">)</text><text font-family="Cambria Math,Cambria Math_MSFontService,sans-serif" font-weight="400" font-size="14.662" transform="matrix(1 0 0 0.999401 144.022 165)">−</text><text font-family="Cambria Math,Cambria Math_MSFontService,sans-serif" font-weight="400" font-size="14.662" transform="matrix(1 0 0 0.999401 158.286 165)">𝒎𝒆𝒂𝒏</text><path d="M267.3 2.44472C268.559 2.50673 269.521 2.96226 270.187 3.81131 270.852 4.66036 271.185 5.97448 271.185 7.75366 271.185 8.39283 271.112 9.18703 270.966 10.1362 270.821 11.0855 270.748 11.7032 270.748 11.9894 270.748 12.6572 270.887 13.1795 271.163 13.5563 271.44 13.9331 271.843 14.1263 272.372 14.1358L272.372 14.7512C271.838 14.7655 271.434 14.9622 271.16 15.3414 270.885 15.7207 270.748 16.237 270.748 16.8905 270.748 17.1528 270.821 17.8039 270.966 18.8438 271.112 19.8836 271.185 20.6778 271.185 21.2264 271.185 22.8911 270.87 24.1694 270.24 25.0614 269.611 25.9534 268.63 26.4184 267.3 26.4566L267.3 25.8842C267.719 25.8556 268.089 25.7542 268.409 25.5801 268.728 25.406 269.005 25.1425 269.239 24.7895 269.472 24.4461 269.644 24.0025 269.754 23.4587 269.863 22.9149 269.918 22.2614 269.918 21.4982 269.918 21.1596 269.854 20.4429 269.725 19.3482 269.596 18.2535 269.532 17.5869 269.532 17.3484 269.532 16.528 269.706 15.8793 270.054 15.4023 270.402 14.9253 270.722 14.6295 271.013 14.5151L271.013 14.372C270.722 14.267 270.402 13.9701 270.054 13.4812 269.706 12.9923 269.532 12.34 269.532 11.5243 269.532 11.1618 269.596 10.5071 269.725 9.56028 269.854 8.61344 269.918 7.8753 269.918 7.34583 269.918 6.58741 269.857 5.93989 269.736 5.40327 269.614 4.86666 269.439 4.42663 269.21 4.08319 268.981 3.73976 268.705 3.48337 268.384 3.31404 268.062 3.14471 267.7 3.04573 267.3 3.01711ZM179.219 2.44472 179.219 3.01711C178.818 3.04573 178.456 3.14471 178.131 3.31404 177.807 3.48337 177.532 3.73976 177.305 4.08319 177.078 4.42663 176.904 4.86666 176.783 5.40327 176.661 5.93989 176.6 6.58741 176.6 7.34583 176.6 7.8753 176.665 8.61344 176.793 9.56028 176.922 10.5071 176.987 11.1618 176.987 11.5243 176.987 12.34 176.811 12.9923 176.461 13.4812 176.11 13.9701 175.792 14.267 175.505 14.372L175.505 14.5151C175.792 14.6295 176.11 14.9253 176.461 15.4023 176.811 15.8793 176.987 16.528 176.987 17.3484 176.987 17.5869 176.922 18.2535 176.793 19.3482 176.665 20.4429 176.6 21.1596 176.6 21.4982 176.6 22.2614 176.655 22.9149 176.765 23.4587 176.874 24.0025 177.044 24.4461 177.273 24.7895 177.511 25.1425 177.79 25.406 178.11 25.5801 178.429 25.7542 178.799 25.8556 179.219 25.8842L179.219 26.4566C177.883 26.4184 176.902 25.9534 176.275 25.0614 175.647 24.1694 175.334 22.8911 175.334 21.2264 175.334 20.6778 175.407 19.8836 175.552 18.8438 175.697 17.8039 175.77 17.1528 175.77 16.8905 175.77 16.237 175.633 15.7207 175.359 15.3414 175.085 14.9622 174.68 14.7655 174.146 14.7512L174.146 14.1358C174.676 14.1263 175.079 13.9331 175.355 13.5563 175.632 13.1795 175.77 12.6572 175.77 11.9894 175.77 11.7032 175.697 11.0855 175.552 10.1362 175.407 9.18703 175.334 8.39283 175.334 7.75366 175.334 5.97448 175.665 4.66036 176.328 3.81131 176.991 2.96226 177.955 2.50673 179.219 2.44472Z" fill-rule="evenodd" transform="matrix(1.0006 0 0 1 27.5224 146.059)"/><text font-family="Cambria Math,Cambria Math_MSFontService,sans-serif" font-weight="400" font-size="14.662" transform="matrix(1 0 0 0.999401 207.294 165)">𝒓</text><text font-family="Cambria Math,Cambria Math_MSFontService,sans-serif" font-weight="400" font-size="10.7033" transform="matrix(1 0 0 0.999401 215.129 168)">𝒔𝒖𝒎</text><text font-family="Cambria Math,Cambria Math_MSFontService,sans-serif" font-weight="400" font-size="10.7033" transform="matrix(1 0 0 0.999401 215.129 157)">(</text><text font-family="Cambria Math,Cambria Math_MSFontService,sans-serif" font-weight="400" font-size="10.7033" transform="matrix(1 0 0 0.999401 219.63 157)">𝒊</text><text font-family="Cambria Math,Cambria Math_MSFontService,sans-serif" font-weight="400" font-size="10.7033" transform="matrix(1 0 0 0.999401 223.631 157)">,</text><text font-family="Cambria Math,Cambria Math_MSFontService,sans-serif" font-weight="400" font-size="10.7033" transform="matrix(1 0 0 0.999401 225.799 157)">𝟏</text><text font-family="Cambria Math,Cambria Math_MSFontService,sans-serif" font-weight="400" font-size="10.7033" transform="matrix(1 0 0 0.999401 232.134 157)">)</text><text font-family="Cambria Math,Cambria Math_MSFontService,sans-serif" font-weight="400" font-size="14.662" transform="matrix(1 0 0 0.999401 237.909 165)">,</text><text font-family="Cambria Math,Cambria Math_MSFontService,sans-serif" font-weight="400" font-size="14.662" transform="matrix(1 0 0 0.999401 243.357 165)">⋯</text><text font-family="Cambria Math,Cambria Math_MSFontService,sans-serif" font-weight="400" font-size="14.662" transform="matrix(1 0 0 0.999401 258.308 165)">,</text><text font-family="Cambria Math,Cambria Math_MSFontService,sans-serif" font-weight="400" font-size="14.662" transform="matrix(1 0 0 0.999401 263.756 165)">𝒓</text><text font-family="Cambria Math,Cambria Math_MSFontService,sans-serif" font-weight="400" font-size="10.7033" transform="matrix(1 0 0 0.999401 271.592 168)">𝒔𝒖𝒎</text><text font-family="Cambria Math,Cambria Math_MSFontService,sans-serif" font-weight="400" font-size="10.7033" transform="matrix(1 0 0 0.999401 271.592 157)">(</text><text font-family="Cambria Math,Cambria Math_MSFontService,sans-serif" font-weight="400" font-size="10.7033" transform="matrix(1 0 0 0.999401 276.093 157)">𝒊</text><text font-family="Cambria Math,Cambria Math_MSFontService,sans-serif" font-weight="400" font-size="10.7033" transform="matrix(1 0 0 0.999401 280.094 157)">,</text><text font-family="Cambria Math,Cambria Math_MSFontService,sans-serif" font-weight="400" font-size="10.7033" transform="matrix(1 0 0 0.999401 282.262 157)">𝑮</text><text font-family="Cambria Math,Cambria Math_MSFontService,sans-serif" font-weight="400" font-size="10.7033" transform="matrix(1 0 0 0.999401 289.43 157)">)</text><text font-family="Cambria Math,Cambria Math_MSFontService,sans-serif" font-weight="400" font-size="14.662" transform="matrix(1 0 0 0.999401 142.882 193)">𝒔𝒕𝒅</text><path d="M234.577 31.1251C235.836 31.1872 236.798 31.6427 237.464 32.4917 238.129 33.3408 238.462 34.6549 238.462 36.4341 238.462 37.0733 238.389 37.8675 238.243 38.8167 238.098 39.7659 238.025 40.3836 238.025 40.6698 238.025 41.3376 238.164 41.8599 238.44 42.2367 238.717 42.6136 239.12 42.8067 239.649 42.8163L239.649 43.4316C239.115 43.4459 238.711 43.6427 238.437 44.0219 238.162 44.4011 238.025 44.9174 238.025 45.5709 238.025 45.8333 238.098 46.4844 238.243 47.5242 238.389 48.5641 238.462 49.3582 238.462 49.9068 238.462 51.5715 238.147 52.8498 237.517 53.7418 236.888 54.6338 235.907 55.0989 234.577 55.137L234.577 54.5646C234.996 54.536 235.366 54.4347 235.686 54.2606 236.005 54.0865 236.282 53.8229 236.516 53.4699 236.749 53.1265 236.921 52.6829 237.031 52.1391 237.14 51.5954 237.195 50.9419 237.195 50.1787 237.195 49.84 237.131 49.1233 237.002 48.0286 236.873 46.9339 236.809 46.2673 236.809 46.0288 236.809 45.2084 236.983 44.5597 237.331 44.0827 237.679 43.6057 237.999 43.31 238.29 43.1955L238.29 43.0524C237.999 42.9474 237.679 42.6505 237.331 42.1616 236.983 41.6727 236.809 41.0204 236.809 40.2047 236.809 39.8422 236.873 39.1875 237.002 38.2407 237.131 37.2939 237.195 36.5557 237.195 36.0263 237.195 35.2678 237.134 34.6203 237.013 34.0837 236.891 33.5471 236.716 33.1071 236.487 32.7636 236.258 32.4202 235.982 32.1638 235.66 31.9945 235.339 31.8251 234.977 31.7262 234.577 31.6975ZM146.496 31.1251 146.496 31.6975C146.095 31.7262 145.733 31.8251 145.408 31.9945 145.084 32.1638 144.808 32.4202 144.582 32.7636 144.355 33.1071 144.181 33.5471 144.06 34.0837 143.938 34.6203 143.877 35.2678 143.877 36.0263 143.877 36.5557 143.942 37.2939 144.07 38.2407 144.199 39.1875 144.264 39.8422 144.264 40.2047 144.264 41.0204 144.088 41.6727 143.738 42.1616 143.387 42.6505 143.069 42.9474 142.782 43.0524L142.782 43.1955C143.069 43.31 143.387 43.6057 143.738 44.0827 144.088 44.5597 144.264 45.2084 144.264 46.0288 144.264 46.2673 144.199 46.9339 144.07 48.0286 143.942 49.1233 143.877 49.84 143.877 50.1787 143.877 50.9419 143.932 51.5954 144.042 52.1391 144.151 52.6829 144.321 53.1265 144.55 53.4699 144.788 53.8229 145.067 54.0865 145.387 54.2606 145.706 54.4347 146.076 54.536 146.496 54.5646L146.496 55.137C145.16 55.0989 144.179 54.6338 143.552 53.7418 142.924 52.8498 142.611 51.5715 142.611 49.9068 142.611 49.3582 142.683 48.5641 142.829 47.5242 142.974 46.4844 143.047 45.8333 143.047 45.5709 143.047 44.9174 142.91 44.4011 142.636 44.0219 142.362 43.6427 141.957 43.4459 141.423 43.4316L141.423 42.8163C141.952 42.8067 142.356 42.6136 142.632 42.2367 142.909 41.8599 143.047 41.3376 143.047 40.6698 143.047 40.3836 142.974 39.7659 142.829 38.8167 142.683 37.8675 142.611 37.0733 142.611 36.4341 142.611 34.6549 142.942 33.3408 143.605 32.4917 144.268 31.6427 145.232 31.1872 146.496 31.1251Z" fill-rule="evenodd" transform="matrix(1.0006 0 0 1 27.5224 146.059)"/><text font-family="Cambria Math,Cambria Math_MSFontService,sans-serif" font-weight="400" font-size="14.662" transform="matrix(1 0 0 0.999401 174.551 193)">𝒓</text><text font-family="Cambria Math,Cambria Math_MSFontService,sans-serif" font-weight="400" font-size="10.7033" transform="matrix(1 0 0 0.999401 182.386 198)">𝒔𝒖𝒎</text><text font-family="Cambria Math,Cambria Math_MSFontService,sans-serif" font-weight="400" font-size="10.7033" transform="matrix(1 0 0 0.999401 182.386 186)">(</text><text font-family="Cambria Math,Cambria Math_MSFontService,sans-serif" font-weight="400" font-size="10.7033" transform="matrix(1 0 0 0.999401 186.888 186)">𝒊</text><text font-family="Cambria Math,Cambria Math_MSFontService,sans-serif" font-weight="400" font-size="10.7033" transform="matrix(1 0 0 0.999401 190.889 186)">,</text><text font-family="Cambria Math,Cambria Math_MSFontService,sans-serif" font-weight="400" font-size="10.7033" transform="matrix(1 0 0 0.999401 193.056 186)">𝟏</text><text font-family="Cambria Math,Cambria Math_MSFontService,sans-serif" font-weight="400" font-size="10.7033" transform="matrix(1 0 0 0.999401 199.391 186)">)</text><text font-family="Cambria Math,Cambria Math_MSFontService,sans-serif" font-weight="400" font-size="14.662" transform="matrix(1 0 0 0.999401 205.166 193)">,</text><text font-family="Cambria Math,Cambria Math_MSFontService,sans-serif" font-weight="400" font-size="14.662" transform="matrix(1 0 0 0.999401 210.614 193)">⋯</text><text font-family="Cambria Math,Cambria Math_MSFontService,sans-serif" font-weight="400" font-size="14.662" transform="matrix(1 0 0 0.999401 225.565 193)">,</text><text font-family="Cambria Math,Cambria Math_MSFontService,sans-serif" font-weight="400" font-size="14.662" transform="matrix(1 0 0 0.999401 231.014 193)">𝒓</text><text font-family="Cambria Math,Cambria Math_MSFontService,sans-serif" font-weight="400" font-size="10.7033" transform="matrix(1 0 0 0.999401 238.849 198)">𝒔𝒖𝒎</text><text font-family="Cambria Math,Cambria Math_MSFontService,sans-serif" font-weight="400" font-size="10.7033" transform="matrix(1 0 0 0.999401 238.849 186)">(</text><text font-family="Cambria Math,Cambria Math_MSFontService,sans-serif" font-weight="400" font-size="10.7033" transform="matrix(1 0 0 0.999401 243.35 186)">𝒊</text><text font-family="Cambria Math,Cambria Math_MSFontService,sans-serif" font-weight="400" font-size="10.7033" transform="matrix(1 0 0 0.999401 247.352 186)">,</text><text font-family="Cambria Math,Cambria Math_MSFontService,sans-serif" font-weight="400" font-size="10.7033" transform="matrix(1 0 0 0.999401 249.519 186)">𝑮</text><text font-family="Cambria Math,Cambria Math_MSFontService,sans-serif" font-weight="400" font-size="10.7033" transform="matrix(1 0 0 0.999401 256.688 186)">)</text><path d="M82.9503 27.9832 146.579 27.9832 210.207 27.9832 273.836 27.9832 273.836 28.9826 210.207 28.9826 146.579 28.9826 82.9503 28.9826Z" fill-rule="evenodd" transform="matrix(1.0006 0 0 1 27.5224 146.059)"/><path d="M22 325.429C22 319.565 26.7565 314.811 32.624 314.811L549.376 314.811C555.243 314.811 560 319.565 560 325.429L560 413.128C560 418.992 555.243 423.746 549.376 423.746L32.624 423.746C26.7565 423.746 22 418.992 22 413.128Z" stroke="#43A756" stroke-width="2.00057" stroke-miterlimit="8" stroke-dasharray="8.00228 6.00171" fill="none" fill-rule="evenodd"/><text font-family="Cambria Math,Cambria Math_MSFontService,sans-serif" font-weight="400" font-size="14.662" transform="matrix(1 0 0 0.999401 41.1061 354)">𝑨</text><text font-family="Cambria Math,Cambria Math_MSFontService,sans-serif" font-weight="400" font-size="10.7033" transform="matrix(1 0 0 0.999401 50.7755 359)">𝟏</text><text font-family="Cambria Math,Cambria Math_MSFontService,sans-serif" font-weight="400" font-size="10.7033" transform="matrix(1 0 0 0.999401 50.7755 346)">(</text><text font-family="Cambria Math,Cambria Math_MSFontService,sans-serif" font-weight="400" font-size="10.7033" transform="matrix(1 0 0 0.999401 55.2768 346)">𝒊</text><text font-family="Cambria Math,Cambria Math_MSFontService,sans-serif" font-weight="400" font-size="10.7033" transform="matrix(1 0 0 0.999401 59.2779 346)">,</text><text font-family="Cambria Math,Cambria Math_MSFontService,sans-serif" font-weight="400" font-size="10.7033" transform="matrix(1 0 0 0.999401 61.4452 346)">𝒋</text><text font-family="Cambria Math,Cambria Math_MSFontService,sans-serif" font-weight="400" font-size="10.7033" transform="matrix(1 0 0 0.999401 65.613 346)">)</text><text font-family="Cambria Math,Cambria Math_MSFontService,sans-serif" font-weight="400" font-size="14.662" transform="matrix(1 0 0 0.999401 74.7957 354)">=</text><text font-family="Cambria Math,Cambria Math_MSFontService,sans-serif" font-weight="400" font-size="14.662" transform="matrix(1 0 0 0.999401 89.8733 340)">𝒓</text><text font-family="Cambria Math,Cambria Math_MSFontService,sans-serif" font-weight="400" font-size="10.7033" transform="matrix(1 0 0 0.999401 97.7088 345)">𝟏</text><text font-family="Cambria Math,Cambria Math_MSFontService,sans-serif" font-weight="400" font-size="10.7033" transform="matrix(1 0 0 0.999401 97.7088 332)">(</text><text font-family="Cambria Math,Cambria Math_MSFontService,sans-serif" font-weight="400" font-size="10.7033" transform="matrix(1 0 0 0.999401 102.21 332)">𝒊</text><text font-family="Cambria Math,Cambria Math_MSFontService,sans-serif" font-weight="400" font-size="10.7033" transform="matrix(1 0 0 0.999401 106.211 332)">,</text><text font-family="Cambria Math,Cambria Math_MSFontService,sans-serif" font-weight="400" font-size="10.7033" transform="matrix(1 0 0 0.999401 108.379 332)">𝒋</text><text font-family="Cambria Math,Cambria Math_MSFontService,sans-serif" font-weight="400" font-size="10.7033" transform="matrix(1 0 0 0.999401 112.546 332)">)</text><text font-family="Cambria Math,Cambria Math_MSFontService,sans-serif" font-weight="400" font-size="14.662" transform="matrix(1 0 0 0.999401 120.915 340)">−</text><text font-family="Cambria Math,Cambria Math_MSFontService,sans-serif" font-weight="400" font-size="14.662" transform="matrix(1 0 0 0.999401 135.18 340)">𝒎𝒆𝒂𝒏</text><path d="M236.096 2.44472C237.355 2.50673 238.318 2.96226 238.983 3.81131 239.648 4.66036 239.981 5.97448 239.981 7.75366 239.981 8.39283 239.908 9.18703 239.763 10.1362 239.617 11.0855 239.545 11.7032 239.545 11.9894 239.545 12.6572 239.683 13.1795 239.96 13.5563 240.236 13.9331 240.639 14.1263 241.169 14.1358L241.169 14.7512C240.635 14.7655 240.23 14.9622 239.956 15.3414 239.682 15.7207 239.545 16.237 239.545 16.8905 239.545 17.1528 239.617 17.8039 239.763 18.8438 239.908 19.8836 239.981 20.6778 239.981 21.2264 239.981 22.8911 239.666 24.1694 239.037 25.0614 238.407 25.9534 237.427 26.4184 236.096 26.4566L236.096 25.8842C236.516 25.8556 236.885 25.7542 237.205 25.5801 237.525 25.406 237.801 25.1425 238.035 24.7895 238.269 24.4461 238.44 24.0025 238.55 23.4587 238.66 22.9149 238.715 22.2614 238.715 21.4982 238.715 21.1596 238.65 20.4429 238.522 19.3482 238.393 18.2535 238.328 17.5869 238.328 17.3484 238.328 16.528 238.502 15.8793 238.851 15.4023 239.199 14.9253 239.518 14.6295 239.809 14.5151L239.809 14.372C239.518 14.267 239.199 13.9701 238.851 13.4812 238.502 12.9923 238.328 12.34 238.328 11.5243 238.328 11.1618 238.393 10.5071 238.522 9.56028 238.65 8.61344 238.715 7.8753 238.715 7.34583 238.715 6.58741 238.654 5.93989 238.532 5.40327 238.411 4.86666 238.235 4.42663 238.006 4.08319 237.777 3.73976 237.502 3.48337 237.18 3.31404 236.858 3.14471 236.497 3.04573 236.096 3.01711ZM148.682 2.44472 148.682 3.01711C148.281 3.04573 147.919 3.14471 147.594 3.31404 147.27 3.48337 146.994 3.73976 146.768 4.08319 146.541 4.42663 146.367 4.86666 146.246 5.40327 146.124 5.93989 146.063 6.58741 146.063 7.34583 146.063 7.8753 146.128 8.61344 146.256 9.56028 146.385 10.5071 146.45 11.1618 146.45 11.5243 146.45 12.34 146.274 12.9923 145.924 13.4812 145.573 13.9701 145.255 14.267 144.968 14.372L144.968 14.5151C145.255 14.6295 145.573 14.9253 145.924 15.4023 146.274 15.8793 146.45 16.528 146.45 17.3484 146.45 17.5869 146.385 18.2535 146.256 19.3482 146.128 20.4429 146.063 21.1596 146.063 21.4982 146.063 22.2614 146.118 22.9149 146.228 23.4587 146.337 24.0025 146.507 24.4461 146.736 24.7895 146.974 25.1425 147.253 25.406 147.573 25.5801 147.892 25.7542 148.262 25.8556 148.682 25.8842L148.682 26.4566C147.346 26.4184 146.365 25.9534 145.738 25.0614 145.11 24.1694 144.797 22.8911 144.797 21.2264 144.797 20.6778 144.869 19.8836 145.015 18.8438 145.16 17.8039 145.233 17.1528 145.233 16.8905 145.233 16.237 145.096 15.7207 144.822 15.3414 144.548 14.9622 144.143 14.7655 143.609 14.7512L143.609 14.1358C144.138 14.1263 144.542 13.9331 144.818 13.5563 145.095 13.1795 145.233 12.6572 145.233 11.9894 145.233 11.7032 145.16 11.0855 145.015 10.1362 144.869 9.18703 144.797 8.39283 144.797 7.75366 144.797 5.97448 145.128 4.66036 145.791 3.81131 146.454 2.96226 147.418 2.50673 148.682 2.44472Z" fill-rule="evenodd" transform="matrix(1.0006 0 0 1 34.971 321.256)"/><text font-family="Cambria Math,Cambria Math_MSFontService,sans-serif" font-weight="400" font-size="14.662" transform="matrix(1 0 0 0.999401 184.187 340)">𝒓</text><text font-family="Cambria Math,Cambria Math_MSFontService,sans-serif" font-weight="400" font-size="10.7033" transform="matrix(1 0 0 0.999401 192.022 345)">𝟏</text><text font-family="Cambria Math,Cambria Math_MSFontService,sans-serif" font-weight="400" font-size="10.7033" transform="matrix(1 0 0 0.999401 192.022 332)">(</text><text font-family="Cambria Math,Cambria Math_MSFontService,sans-serif" font-weight="400" font-size="10.7033" transform="matrix(1 0 0 0.999401 196.524 332)">𝒊</text><text font-family="Cambria Math,Cambria Math_MSFontService,sans-serif" font-weight="400" font-size="10.7033" transform="matrix(1 0 0 0.999401 200.525 332)">,</text><text font-family="Cambria Math,Cambria Math_MSFontService,sans-serif" font-weight="400" font-size="10.7033" transform="matrix(1 0 0 0.999401 202.692 332)">𝟏</text><text font-family="Cambria Math,Cambria Math_MSFontService,sans-serif" font-weight="400" font-size="10.7033" transform="matrix(1 0 0 0.999401 209.027 332)">)</text><text font-family="Cambria Math,Cambria Math_MSFontService,sans-serif" font-weight="400" font-size="14.662" transform="matrix(1 0 0 0.999401 214.135 340)">,</text><text font-family="Cambria Math,Cambria Math_MSFontService,sans-serif" font-weight="400" font-size="14.662" transform="matrix(1 0 0 0.999401 219.584 340)">⋯</text><text font-family="Cambria Math,Cambria Math_MSFontService,sans-serif" font-weight="400" font-size="14.662" transform="matrix(1 0 0 0.999401 234.534 340)">,</text><text font-family="Cambria Math,Cambria Math_MSFontService,sans-serif" font-weight="400" font-size="14.662" transform="matrix(1 0 0 0.999401 239.983 340)">𝒓</text><text font-family="Cambria Math,Cambria Math_MSFontService,sans-serif" font-weight="400" font-size="10.7033" transform="matrix(1 0 0 0.999401 247.818 345)">𝟏</text><text font-family="Cambria Math,Cambria Math_MSFontService,sans-serif" font-weight="400" font-size="10.7033" transform="matrix(1 0 0 0.999401 247.818 332)">(</text><text font-family="Cambria Math,Cambria Math_MSFontService,sans-serif" font-weight="400" font-size="10.7033" transform="matrix(1 0 0 0.999401 252.319 332)">𝒊</text><text font-family="Cambria Math,Cambria Math_MSFontService,sans-serif" font-weight="400" font-size="10.7033" transform="matrix(1 0 0 0.999401 256.321 332)">,</text><text font-family="Cambria Math,Cambria Math_MSFontService,sans-serif" font-weight="400" font-size="10.7033" transform="matrix(1 0 0 0.999401 258.488 332)">𝑮</text><text font-family="Cambria Math,Cambria Math_MSFontService,sans-serif" font-weight="400" font-size="10.7033" transform="matrix(1 0 0 0.999401 265.657 332)">)</text><text font-family="Cambria Math,Cambria Math_MSFontService,sans-serif" font-weight="400" font-size="14.662" transform="matrix(1 0 0 0.999401 121.196 369)">𝒔𝒕𝒅</text><path d="M204.793 31.1251C206.052 31.1872 207.014 31.6427 207.68 32.4917 208.345 33.3408 208.678 34.6549 208.678 36.4341 208.678 37.0733 208.605 37.8675 208.459 38.8167 208.314 39.7659 208.241 40.3836 208.241 40.6698 208.241 41.3376 208.38 41.8599 208.656 42.2367 208.933 42.6136 209.336 42.8067 209.865 42.8163L209.865 43.4316C209.331 43.4459 208.927 43.6427 208.653 44.0219 208.378 44.4011 208.241 44.9174 208.241 45.5709 208.241 45.8333 208.314 46.4844 208.459 47.5242 208.605 48.5641 208.678 49.3582 208.678 49.9068 208.678 51.5715 208.363 52.8498 207.733 53.7418 207.104 54.6338 206.123 55.0989 204.793 55.137L204.793 54.5646C205.212 54.536 205.582 54.4347 205.902 54.2606 206.221 54.0865 206.498 53.8229 206.732 53.4699 206.965 53.1265 207.137 52.6829 207.247 52.1391 207.356 51.5954 207.411 50.9419 207.411 50.1787 207.411 49.84 207.347 49.1233 207.218 48.0286 207.089 46.9339 207.025 46.2673 207.025 46.0288 207.025 45.2084 207.199 44.5597 207.547 44.0827 207.895 43.6057 208.215 43.31 208.506 43.1955L208.506 43.0524C208.215 42.9474 207.895 42.6505 207.547 42.1616 207.199 41.6727 207.025 41.0204 207.025 40.2047 207.025 39.8422 207.089 39.1875 207.218 38.2407 207.347 37.2939 207.411 36.5557 207.411 36.0263 207.411 35.2678 207.35 34.6203 207.229 34.0837 207.107 33.5471 206.932 33.1071 206.703 32.7636 206.474 32.4202 206.199 32.1638 205.877 31.9945 205.555 31.8251 205.193 31.7262 204.793 31.6975ZM117.378 31.1251 117.378 31.6975C116.978 31.7262 116.615 31.8251 116.291 31.9945 115.966 32.1638 115.691 32.4202 115.464 32.7636 115.238 33.1071 115.064 33.5471 114.942 34.0837 114.82 34.6203 114.76 35.2678 114.76 36.0263 114.76 36.5557 114.824 37.2939 114.953 38.2407 115.082 39.1875 115.146 39.8422 115.146 40.2047 115.146 41.0204 114.971 41.6727 114.62 42.1616 114.27 42.6505 113.951 42.9474 113.665 43.0524L113.665 43.1955C113.951 43.31 114.27 43.6057 114.62 44.0827 114.971 44.5597 115.146 45.2084 115.146 46.0288 115.146 46.2673 115.082 46.9339 114.953 48.0286 114.824 49.1233 114.76 49.84 114.76 50.1787 114.76 50.9419 114.815 51.5954 114.924 52.1391 115.034 52.6829 115.203 53.1265 115.432 53.4699 115.671 53.8229 115.95 54.0865 116.269 54.2606 116.589 54.4347 116.959 54.536 117.378 54.5646L117.378 55.137C116.043 55.0989 115.061 54.6338 114.434 53.7418 113.807 52.8498 113.493 51.5715 113.493 49.9068 113.493 49.3582 113.566 48.5641 113.711 47.5242 113.857 46.4844 113.93 45.8333 113.93 45.5709 113.93 44.9174 113.793 44.4011 113.518 44.0219 113.244 43.6427 112.84 43.4459 112.306 43.4316L112.306 42.8163C112.835 42.8067 113.238 42.6136 113.515 42.2367 113.791 41.8599 113.93 41.3376 113.93 40.6698 113.93 40.3836 113.857 39.7659 113.711 38.8167 113.566 37.8675 113.493 37.0733 113.493 36.4341 113.493 34.6549 113.825 33.3408 114.488 32.4917 115.151 31.6427 116.114 31.1872 117.378 31.1251Z" fill-rule="evenodd" transform="matrix(1.0006 0 0 1 34.971 321.256)"/><text font-family="Cambria Math,Cambria Math_MSFontService,sans-serif" font-weight="400" font-size="14.662" transform="matrix(1 0 0 0.999401 152.865 369)">𝒓</text><text font-family="Cambria Math,Cambria Math_MSFontService,sans-serif" font-weight="400" font-size="10.7033" transform="matrix(1 0 0 0.999401 160.7 374)">𝟏</text><text font-family="Cambria Math,Cambria Math_MSFontService,sans-serif" font-weight="400" font-size="10.7033" transform="matrix(1 0 0 0.999401 160.7 361)">(</text><text font-family="Cambria Math,Cambria Math_MSFontService,sans-serif" font-weight="400" font-size="10.7033" transform="matrix(1 0 0 0.999401 165.201 361)">𝒊</text><text font-family="Cambria Math,Cambria Math_MSFontService,sans-serif" font-weight="400" font-size="10.7033" transform="matrix(1 0 0 0.999401 169.203 361)">,</text><text font-family="Cambria Math,Cambria Math_MSFontService,sans-serif" font-weight="400" font-size="10.7033" transform="matrix(1 0 0 0.999401 171.37 361)">𝟏</text><text font-family="Cambria Math,Cambria Math_MSFontService,sans-serif" font-weight="400" font-size="10.7033" transform="matrix(1 0 0 0.999401 177.705 361)">)</text><text font-family="Cambria Math,Cambria Math_MSFontService,sans-serif" font-weight="400" font-size="14.662" transform="matrix(1 0 0 0.999401 182.813 369)">,</text><text font-family="Cambria Math,Cambria Math_MSFontService,sans-serif" font-weight="400" font-size="14.662" transform="matrix(1 0 0 0.999401 188.261 369)">⋯</text><text font-family="Cambria Math,Cambria Math_MSFontService,sans-serif" font-weight="400" font-size="14.662" transform="matrix(1 0 0 0.999401 203.212 369)">,</text><text font-family="Cambria Math,Cambria Math_MSFontService,sans-serif" font-weight="400" font-size="14.662" transform="matrix(1 0 0 0.999401 208.66 369)">𝒓</text><text font-family="Cambria Math,Cambria Math_MSFontService,sans-serif" font-weight="400" font-size="10.7033" transform="matrix(1 0 0 0.999401 216.496 374)">𝟏</text><text font-family="Cambria Math,Cambria Math_MSFontService,sans-serif" font-weight="400" font-size="10.7033" transform="matrix(1 0 0 0.999401 216.496 361)">(</text><text font-family="Cambria Math,Cambria Math_MSFontService,sans-serif" font-weight="400" font-size="10.7033" transform="matrix(1 0 0 0.999401 220.997 361)">𝒊</text><text font-family="Cambria Math,Cambria Math_MSFontService,sans-serif" font-weight="400" font-size="10.7033" transform="matrix(1 0 0 0.999401 224.998 361)">,</text><text font-family="Cambria Math,Cambria Math_MSFontService,sans-serif" font-weight="400" font-size="10.7033" transform="matrix(1 0 0 0.999401 227.166 361)">𝑮</text><text font-family="Cambria Math,Cambria Math_MSFontService,sans-serif" font-weight="400" font-size="10.7033" transform="matrix(1 0 0 0.999401 234.334 361)">)</text><path d="M54.967 27.9832 148.411 27.9832 241.855 27.9832 241.855 28.9826 148.411 28.9826 54.967 28.9826Z" fill-rule="evenodd" transform="matrix(1.0006 0 0 1 34.971 321.256)"/><text font-family="Cambria Math,Cambria Math_MSFontService,sans-serif" font-weight="400" font-size="14.662" transform="matrix(1 0 0 0.999401 279.427 354)">,</text><text font-family="Cambria Math,Cambria Math_MSFontService,sans-serif" font-weight="400" font-size="14.662" transform="matrix(1 0 0 0.999401 284.875 354)">⋯</text><text font-family="Cambria Math,Cambria Math_MSFontService,sans-serif" font-weight="400" font-size="14.662" transform="matrix(1 0 0 0.999401 299.826 354)">,</text><text font-family="Cambria Math,Cambria Math_MSFontService,sans-serif" font-weight="400" font-size="14.662" transform="matrix(1 0 0 0.999401 305.275 354)">𝑨</text><text font-family="Cambria Math,Cambria Math_MSFontService,sans-serif" font-weight="400" font-size="10.7033" transform="matrix(1 0 0 0.999401 314.944 358)">𝒏</text><text font-family="Cambria Math,Cambria Math_MSFontService,sans-serif" font-weight="400" font-size="10.7033" transform="matrix(1 0 0 0.999401 314.944 346)">(</text><text font-family="Cambria Math,Cambria Math_MSFontService,sans-serif" font-weight="400" font-size="10.7033" transform="matrix(1 0 0 0.999401 319.445 346)">𝒊</text><text font-family="Cambria Math,Cambria Math_MSFontService,sans-serif" font-weight="400" font-size="10.7033" transform="matrix(1 0 0 0.999401 323.446 346)">,</text><text font-family="Cambria Math,Cambria Math_MSFontService,sans-serif" font-weight="400" font-size="10.7033" transform="matrix(1 0 0 0.999401 325.614 346)">𝒋</text><text font-family="Cambria Math,Cambria Math_MSFontService,sans-serif" font-weight="400" font-size="10.7033" transform="matrix(1 0 0 0.999401 329.782 346)">)</text><text font-family="Cambria Math,Cambria Math_MSFontService,sans-serif" font-weight="400" font-size="14.662" transform="matrix(1 0 0 0.999401 338.964 354)">=</text><text font-family="Cambria Math,Cambria Math_MSFontService,sans-serif" font-weight="400" font-size="14.662" transform="matrix(1 0 0 0.999401 354.042 340)">𝒓</text><text font-family="Cambria Math,Cambria Math_MSFontService,sans-serif" font-weight="400" font-size="10.7033" transform="matrix(1 0 0 0.999401 361.877 344)">𝒏</text><text font-family="Cambria Math,Cambria Math_MSFontService,sans-serif" font-weight="400" font-size="10.7033" transform="matrix(1 0 0 0.999401 361.877 332)">(</text><text font-family="Cambria Math,Cambria Math_MSFontService,sans-serif" font-weight="400" font-size="10.7033" transform="matrix(1 0 0 0.999401 366.379 332)">𝒊</text><text font-family="Cambria Math,Cambria Math_MSFontService,sans-serif" font-weight="400" font-size="10.7033" transform="matrix(1 0 0 0.999401 370.38 332)">,</text><text font-family="Cambria Math,Cambria Math_MSFontService,sans-serif" font-weight="400" font-size="10.7033" transform="matrix(1 0 0 0.999401 372.547 332)">𝒋</text><text font-family="Cambria Math,Cambria Math_MSFontService,sans-serif" font-weight="400" font-size="10.7033" transform="matrix(1 0 0 0.999401 376.715 332)">)</text><text font-family="Cambria Math,Cambria Math_MSFontService,sans-serif" font-weight="400" font-size="14.662" transform="matrix(1 0 0 0.999401 385.084 340)">−</text><text font-family="Cambria Math,Cambria Math_MSFontService,sans-serif" font-weight="400" font-size="14.662" transform="matrix(1 0 0 0.999401 399.348 340)">𝒎𝒆𝒂𝒏</text><path d="M500.106 2.44472C501.365 2.50673 502.328 2.96226 502.993 3.81131 503.659 4.66036 503.991 5.97448 503.991 7.75366 503.991 8.39283 503.919 9.18703 503.773 10.1362 503.628 11.0855 503.555 11.7032 503.555 11.9894 503.555 12.6572 503.693 13.1795 503.97 13.5563 504.246 13.9331 504.65 14.1263 505.179 14.1358L505.179 14.7512C504.645 14.7655 504.241 14.9622 503.966 15.3414 503.692 15.7207 503.555 16.237 503.555 16.8905 503.555 17.1528 503.628 17.8039 503.773 18.8438 503.919 19.8836 503.991 20.6778 503.991 21.2264 503.991 22.8911 503.677 24.1694 503.047 25.0614 502.417 25.9534 501.437 26.4184 500.106 26.4566L500.106 25.8842C500.526 25.8556 500.896 25.7542 501.215 25.5801 501.535 25.406 501.811 25.1425 502.045 24.7895 502.279 24.4461 502.451 24.0025 502.56 23.4587 502.67 22.9149 502.725 22.2614 502.725 21.4982 502.725 21.1596 502.66 20.4429 502.532 19.3482 502.403 18.2535 502.339 17.5869 502.339 17.3484 502.339 16.528 502.513 15.8793 502.861 15.4023 503.209 14.9253 503.529 14.6295 503.82 14.5151L503.82 14.372C503.529 14.267 503.209 13.9701 502.861 13.4812 502.513 12.9923 502.339 12.34 502.339 11.5243 502.339 11.1618 502.403 10.5071 502.532 9.56028 502.66 8.61344 502.725 7.8753 502.725 7.34583 502.725 6.58741 502.664 5.93989 502.542 5.40327 502.421 4.86666 502.246 4.42663 502.017 4.08319 501.788 3.73976 501.512 3.48337 501.19 3.31404 500.868 3.14471 500.507 3.04573 500.106 3.01711ZM412.692 2.44472 412.692 3.01711C412.291 3.04573 411.929 3.14471 411.604 3.31404 411.28 3.48337 411.005 3.73976 410.778 4.08319 410.551 4.42663 410.377 4.86666 410.256 5.40327 410.134 5.93989 410.073 6.58741 410.073 7.34583 410.073 7.8753 410.138 8.61344 410.266 9.56028 410.395 10.5071 410.46 11.1618 410.46 11.5243 410.46 12.34 410.284 12.9923 409.934 13.4812 409.583 13.9701 409.265 14.267 408.979 14.372L408.979 14.5151C409.265 14.6295 409.583 14.9253 409.934 15.4023 410.284 15.8793 410.46 16.528 410.46 17.3484 410.46 17.5869 410.395 18.2535 410.266 19.3482 410.138 20.4429 410.073 21.1596 410.073 21.4982 410.073 22.2614 410.128 22.9149 410.238 23.4587 410.348 24.0025 410.517 24.4461 410.746 24.7895 410.984 25.1425 411.263 25.406 411.583 25.5801 411.903 25.7542 412.272 25.8556 412.692 25.8842L412.692 26.4566C411.356 26.4184 410.375 25.9534 409.748 25.0614 409.121 24.1694 408.807 22.8911 408.807 21.2264 408.807 20.6778 408.88 19.8836 409.025 18.8438 409.171 17.8039 409.243 17.1528 409.243 16.8905 409.243 16.237 409.106 15.7207 408.832 15.3414 408.558 14.9622 408.153 14.7655 407.619 14.7512L407.619 14.1358C408.149 14.1263 408.552 13.9331 408.828 13.5563 409.105 13.1795 409.243 12.6572 409.243 11.9894 409.243 11.7032 409.171 11.0855 409.025 10.1362 408.88 9.18703 408.807 8.39283 408.807 7.75366 408.807 5.97448 409.138 4.66036 409.801 3.81131 410.464 2.96226 411.428 2.50673 412.692 2.44472Z" fill-rule="evenodd" transform="matrix(1.0006 0 0 1 34.971 321.256)"/><text font-family="Cambria Math,Cambria Math_MSFontService,sans-serif" font-weight="400" font-size="14.662" transform="matrix(1 0 0 0.999401 448.355 340)">𝒓</text><text font-family="Cambria Math,Cambria Math_MSFontService,sans-serif" font-weight="400" font-size="10.7033" transform="matrix(1 0 0 0.999401 456.191 344)">𝒏</text><text font-family="Cambria Math,Cambria Math_MSFontService,sans-serif" font-weight="400" font-size="10.7033" transform="matrix(1 0 0 0.999401 456.191 332)">(</text><text font-family="Cambria Math,Cambria Math_MSFontService,sans-serif" font-weight="400" font-size="10.7033" transform="matrix(1 0 0 0.999401 460.692 332)">𝒊</text><text font-family="Cambria Math,Cambria Math_MSFontService,sans-serif" font-weight="400" font-size="10.7033" transform="matrix(1 0 0 0.999401 464.693 332)">,</text><text font-family="Cambria Math,Cambria Math_MSFontService,sans-serif" font-weight="400" font-size="10.7033" transform="matrix(1 0 0 0.999401 466.861 332)">𝟏</text><text font-family="Cambria Math,Cambria Math_MSFontService,sans-serif" font-weight="400" font-size="10.7033" transform="matrix(1 0 0 0.999401 473.196 332)">)</text><text font-family="Cambria Math,Cambria Math_MSFontService,sans-serif" font-weight="400" font-size="14.662" transform="matrix(1 0 0 0.999401 478.304 340)">,</text><text font-family="Cambria Math,Cambria Math_MSFontService,sans-serif" font-weight="400" font-size="14.662" transform="matrix(1 0 0 0.999401 483.752 340)">⋯</text><text font-family="Cambria Math,Cambria Math_MSFontService,sans-serif" font-weight="400" font-size="14.662" transform="matrix(1 0 0 0.999401 498.703 340)">,</text><text font-family="Cambria Math,Cambria Math_MSFontService,sans-serif" font-weight="400" font-size="14.662" transform="matrix(1 0 0 0.999401 504.151 340)">𝒓</text><text font-family="Cambria Math,Cambria Math_MSFontService,sans-serif" font-weight="400" font-size="10.7033" transform="matrix(1 0 0 0.999401 511.987 344)">𝒏</text><text font-family="Cambria Math,Cambria Math_MSFontService,sans-serif" font-weight="400" font-size="10.7033" transform="matrix(1 0 0 0.999401 511.987 332)">(</text><text font-family="Cambria Math,Cambria Math_MSFontService,sans-serif" font-weight="400" font-size="10.7033" transform="matrix(1 0 0 0.999401 516.488 332)">𝒊</text><text font-family="Cambria Math,Cambria Math_MSFontService,sans-serif" font-weight="400" font-size="10.7033" transform="matrix(1 0 0 0.999401 520.489 332)">,</text><text font-family="Cambria Math,Cambria Math_MSFontService,sans-serif" font-weight="400" font-size="10.7033" transform="matrix(1 0 0 0.999401 522.656 332)">𝑮</text><text font-family="Cambria Math,Cambria Math_MSFontService,sans-serif" font-weight="400" font-size="10.7033" transform="matrix(1 0 0 0.999401 529.825 332)">)</text><text font-family="Cambria Math,Cambria Math_MSFontService,sans-serif" font-weight="400" font-size="14.662" transform="matrix(1 0 0 0.999401 385.364 369)">𝒔𝒕𝒅</text><path d="M468.803 31.1251C470.062 31.1872 471.024 31.6427 471.69 32.4917 472.355 33.3408 472.688 34.6549 472.688 36.4341 472.688 37.0733 472.615 37.8675 472.47 38.8167 472.324 39.7659 472.251 40.3836 472.251 40.6698 472.251 41.3376 472.39 41.8599 472.666 42.2367 472.943 42.6136 473.346 42.8067 473.876 42.8163L473.876 43.4316C473.341 43.4459 472.937 43.6427 472.663 44.0219 472.389 44.4011 472.251 44.9174 472.251 45.5709 472.251 45.8333 472.324 46.4844 472.47 47.5242 472.615 48.5641 472.688 49.3582 472.688 49.9068 472.688 51.5715 472.373 52.8498 471.743 53.7418 471.114 54.6338 470.134 55.0989 468.803 55.137L468.803 54.5646C469.222 54.536 469.592 54.4347 469.912 54.2606 470.231 54.0865 470.508 53.8229 470.742 53.4699 470.975 53.1265 471.147 52.6829 471.257 52.1391 471.367 51.5954 471.421 50.9419 471.421 50.1787 471.421 49.84 471.357 49.1233 471.228 48.0286 471.099 46.9339 471.035 46.2673 471.035 46.0288 471.035 45.2084 471.209 44.5597 471.557 44.0827 471.906 43.6057 472.225 43.31 472.516 43.1955L472.516 43.0524C472.225 42.9474 471.906 42.6505 471.557 42.1616 471.209 41.6727 471.035 41.0204 471.035 40.2047 471.035 39.8422 471.099 39.1875 471.228 38.2407 471.357 37.2939 471.421 36.5557 471.421 36.0263 471.421 35.2678 471.361 34.6203 471.239 34.0837 471.117 33.5471 470.942 33.1071 470.713 32.7636 470.484 32.4202 470.209 32.1638 469.887 31.9945 469.565 31.8251 469.203 31.7262 468.803 31.6975ZM381.389 31.1251 381.389 31.6975C380.988 31.7262 380.625 31.8251 380.301 31.9945 379.977 32.1638 379.701 32.4202 379.475 32.7636 379.248 33.1071 379.074 33.5471 378.952 34.0837 378.831 34.6203 378.77 35.2678 378.77 36.0263 378.77 36.5557 378.834 37.2939 378.963 38.2407 379.092 39.1875 379.156 39.8422 379.156 40.2047 379.156 41.0204 378.981 41.6727 378.63 42.1616 378.28 42.6505 377.961 42.9474 377.675 43.0524L377.675 43.1955C377.961 43.31 378.28 43.6057 378.63 44.0827 378.981 44.5597 379.156 45.2084 379.156 46.0288 379.156 46.2673 379.092 46.9339 378.963 48.0286 378.834 49.1233 378.77 49.84 378.77 50.1787 378.77 50.9419 378.825 51.5954 378.934 52.1391 379.044 52.6829 379.213 53.1265 379.442 53.4699 379.681 53.8229 379.96 54.0865 380.28 54.2606 380.599 54.4347 380.969 54.536 381.389 54.5646L381.389 55.137C380.053 55.0989 379.072 54.6338 378.444 53.7418 377.817 52.8498 377.503 51.5715 377.503 49.9068 377.503 49.3582 377.576 48.5641 377.722 47.5242 377.867 46.4844 377.94 45.8333 377.94 45.5709 377.94 44.9174 377.803 44.4011 377.528 44.0219 377.254 43.6427 376.85 43.4459 376.316 43.4316L376.316 42.8163C376.845 42.8067 377.248 42.6136 377.525 42.2367 377.802 41.8599 377.94 41.3376 377.94 40.6698 377.94 40.3836 377.867 39.7659 377.722 38.8167 377.576 37.8675 377.503 37.0733 377.503 36.4341 377.503 34.6549 377.835 33.3408 378.498 32.4917 379.161 31.6427 380.124 31.1872 381.389 31.1251Z" fill-rule="evenodd" transform="matrix(1.0006 0 0 1 34.971 321.256)"/><text font-family="Cambria Math,Cambria Math_MSFontService,sans-serif" font-weight="400" font-size="14.662" transform="matrix(1 0 0 0.999401 417.033 369)">𝒓</text><text font-family="Cambria Math,Cambria Math_MSFontService,sans-serif" font-weight="400" font-size="10.7033" transform="matrix(1 0 0 0.999401 424.869 373)">𝒏</text><text font-family="Cambria Math,Cambria Math_MSFontService,sans-serif" font-weight="400" font-size="10.7033" transform="matrix(1 0 0 0.999401 424.869 361)">(</text><text font-family="Cambria Math,Cambria Math_MSFontService,sans-serif" font-weight="400" font-size="10.7033" transform="matrix(1 0 0 0.999401 429.37 361)">𝒊</text><text font-family="Cambria Math,Cambria Math_MSFontService,sans-serif" font-weight="400" font-size="10.7033" transform="matrix(1 0 0 0.999401 433.371 361)">,</text><text font-family="Cambria Math,Cambria Math_MSFontService,sans-serif" font-weight="400" font-size="10.7033" transform="matrix(1 0 0 0.999401 435.538 361)">𝟏</text><text font-family="Cambria Math,Cambria Math_MSFontService,sans-serif" font-weight="400" font-size="10.7033" transform="matrix(1 0 0 0.999401 441.873 361)">)</text><text font-family="Cambria Math,Cambria Math_MSFontService,sans-serif" font-weight="400" font-size="14.662" transform="matrix(1 0 0 0.999401 446.982 369)">,</text><text font-family="Cambria Math,Cambria Math_MSFontService,sans-serif" font-weight="400" font-size="14.662" transform="matrix(1 0 0 0.999401 452.43 369)">⋯</text><text font-family="Cambria Math,Cambria Math_MSFontService,sans-serif" font-weight="400" font-size="14.662" transform="matrix(1 0 0 0.999401 467.381 369)">,</text><text font-family="Cambria Math,Cambria Math_MSFontService,sans-serif" font-weight="400" font-size="14.662" transform="matrix(1 0 0 0.999401 472.829 369)">𝒓</text><text font-family="Cambria Math,Cambria Math_MSFontService,sans-serif" font-weight="400" font-size="10.7033" transform="matrix(1 0 0 0.999401 480.664 373)">𝒏</text><text font-family="Cambria Math,Cambria Math_MSFontService,sans-serif" font-weight="400" font-size="10.7033" transform="matrix(1 0 0 0.999401 480.664 361)">(</text><text font-family="Cambria Math,Cambria Math_MSFontService,sans-serif" font-weight="400" font-size="10.7033" transform="matrix(1 0 0 0.999401 485.166 361)">𝒊</text><text font-family="Cambria Math,Cambria Math_MSFontService,sans-serif" font-weight="400" font-size="10.7033" transform="matrix(1 0 0 0.999401 489.167 361)">,</text><text font-family="Cambria Math,Cambria Math_MSFontService,sans-serif" font-weight="400" font-size="10.7033" transform="matrix(1 0 0 0.999401 491.334 361)">𝑮</text><text font-family="Cambria Math,Cambria Math_MSFontService,sans-serif" font-weight="400" font-size="10.7033" transform="matrix(1 0 0 0.999401 498.503 361)">)</text><path d="M318.809 27.9832 412.253 27.9832 505.697 27.9832 505.697 28.9826 412.253 28.9826 318.809 28.9826Z" fill-rule="evenodd" transform="matrix(1.0006 0 0 1 34.971 321.256)"/><text font-family="Cambria Math,Cambria Math_MSFontService,sans-serif" font-weight="400" font-size="14.662" transform="matrix(1 0 0 0.999401 212.341 411)">𝑨</text><text font-family="Cambria Math,Cambria Math_MSFontService,sans-serif" font-weight="400" font-size="10.7033" transform="matrix(1 0 0 0.999401 222.011 415)">𝒔𝒖𝒎</text><text font-family="Cambria Math,Cambria Math_MSFontService,sans-serif" font-weight="400" font-size="10.7033" transform="matrix(1 0 0 0.999401 222.011 403)">(</text><text font-family="Cambria Math,Cambria Math_MSFontService,sans-serif" font-weight="400" font-size="10.7033" transform="matrix(1 0 0 0.999401 226.512 403)">𝒊</text><text font-family="Cambria Math,Cambria Math_MSFontService,sans-serif" font-weight="400" font-size="10.7033" transform="matrix(1 0 0 0.999401 230.513 403)">,</text><text font-family="Cambria Math,Cambria Math_MSFontService,sans-serif" font-weight="400" font-size="10.7033" transform="matrix(1 0 0 0.999401 232.681 403)">𝒋</text><text font-family="Cambria Math,Cambria Math_MSFontService,sans-serif" font-weight="400" font-size="10.7033" transform="matrix(1 0 0 0.999401 236.848 403)">)</text><text font-family="Cambria Math,Cambria Math_MSFontService,sans-serif" font-weight="400" font-size="14.662" transform="matrix(1 0 0 0.999401 248.865 411)">=</text><text font-family="Cambria Math,Cambria Math_MSFontService,sans-serif" font-weight="400" font-size="14.662" transform="matrix(1 0 0 0.999401 263.943 411)">𝑨</text><text font-family="Cambria Math,Cambria Math_MSFontService,sans-serif" font-weight="400" font-size="10.7033" transform="matrix(1 0 0 0.999401 273.612 416)">𝟏</text><text font-family="Cambria Math,Cambria Math_MSFontService,sans-serif" font-weight="400" font-size="10.7033" transform="matrix(1 0 0 0.999401 273.612 403)">(</text><text font-family="Cambria Math,Cambria Math_MSFontService,sans-serif" font-weight="400" font-size="10.7033" transform="matrix(1 0 0 0.999401 278.113 403)">𝒊</text><text font-family="Cambria Math,Cambria Math_MSFontService,sans-serif" font-weight="400" font-size="10.7033" transform="matrix(1 0 0 0.999401 282.115 403)">,</text><text font-family="Cambria Math,Cambria Math_MSFontService,sans-serif" font-weight="400" font-size="10.7033" transform="matrix(1 0 0 0.999401 284.282 403)">𝒋</text><text font-family="Cambria Math,Cambria Math_MSFontService,sans-serif" font-weight="400" font-size="10.7033" transform="matrix(1 0 0 0.999401 288.45 403)">)</text><text font-family="Cambria Math,Cambria Math_MSFontService,sans-serif" font-weight="400" font-size="14.662" transform="matrix(1 0 0 0.999401 296.819 411)">+</text><text font-family="Cambria Math,Cambria Math_MSFontService,sans-serif" font-weight="400" font-size="14.662" transform="matrix(1 0 0 0.999401 311.083 411)">⋯</text><text font-family="Cambria Math,Cambria Math_MSFontService,sans-serif" font-weight="400" font-size="14.662" transform="matrix(1 0 0 0.999401 326.034 411)">+</text><text font-family="Cambria Math,Cambria Math_MSFontService,sans-serif" font-weight="400" font-size="14.662" transform="matrix(1 0 0 0.999401 340.298 411)">𝑨</text><text font-family="Cambria Math,Cambria Math_MSFontService,sans-serif" font-weight="400" font-size="10.7033" transform="matrix(1 0 0 0.999401 349.967 415)">𝒏</text><text font-family="Cambria Math,Cambria Math_MSFontService,sans-serif" font-weight="400" font-size="10.7033" transform="matrix(1 0 0 0.999401 349.967 403)">(</text><text font-family="Cambria Math,Cambria Math_MSFontService,sans-serif" font-weight="400" font-size="10.7033" transform="matrix(1 0 0 0.999401 354.469 403)">𝒊</text><text font-family="Cambria Math,Cambria Math_MSFontService,sans-serif" font-weight="400" font-size="10.7033" transform="matrix(1 0 0 0.999401 358.47 403)">,</text><text font-family="Cambria Math,Cambria Math_MSFontService,sans-serif" font-weight="400" font-size="10.7033" transform="matrix(1 0 0 0.999401 360.637 403)">𝒋</text><text font-family="Cambria Math,Cambria Math_MSFontService,sans-serif" font-weight="400" font-size="10.7033" transform="matrix(1 0 0 0.999401 364.805 403)">)</text><path d="M14 245.857C14 243.095 16.2406 240.856 19.0045 240.856L109.995 240.856C112.759 240.856 115 243.095 115 245.857L115 268.834C115 271.597 112.759 273.836 109.995 273.836L19.0045 273.836C16.2406 273.836 14 271.597 14 268.834Z" stroke="#43A756" stroke-width="2.00057" stroke-miterlimit="8" stroke-dasharray="8.00228 6.00171" fill="#00B050" fill-rule="evenodd" fill-opacity="0.101961"/><text font-family="Yu Gothic,Yu Gothic_MSFontService,sans-serif" font-weight="700" font-size="14.662" transform="matrix(1 0 0 0.999401 27.863 262)">分離正規化</text><path d="M346 239.074C346 235.642 348.784 232.86 352.218 232.86L565.782 232.86C569.216 232.86 572 235.642 572 239.074L572 267.622C572 271.054 569.216 273.836 565.782 273.836L352.218 273.836C348.784 273.836 346 271.054 346 267.622Z" stroke="#43A756" stroke-width="2.00057" stroke-miterlimit="8" stroke-dasharray="8.00228 6.00171" fill="#00B050" fill-rule="evenodd" fill-opacity="0.101961"/><text font-family="Yu Gothic,Yu Gothic_MSFontService,sans-serif" font-weight="700" font-size="14.662" transform="matrix(1 0 0 0.999401 363.651 249)">安定した数値範囲を維持する</text><text font-family="Yu Gothic,Yu Gothic_MSFontService,sans-serif" font-weight="700" font-size="14.662" transform="matrix(1 0 0 0.999401 392.993 266)">ためのバッチ正規化</text><path d="M22 443.289C22 437.463 26.7254 432.741 32.5546 432.741L549.445 432.741C555.275 432.741 560 437.463 560 443.289L560 492.15C560 497.976 555.275 502.699 549.445 502.699L32.5546 502.699C26.7254 502.699 22 497.976 22 492.15Z" stroke="#43A756" stroke-width="2.00057" stroke-miterlimit="8" stroke-dasharray="8.00228 6.00171" fill="none" fill-rule="evenodd"/><text font-family="Cambria Math,Cambria Math_MSFontService,sans-serif" font-weight="400" font-size="14.662" transform="matrix(1 0 0 0.999401 124.751 473)">A</text><path d="M4.50314-9.8797 8.14001-8.11138 7.9324-7.66035 4.10222-8.95616 4.02347-8.95616 0.200458-7.66035 0-8.11138 3.54381-9.8797Z" transform="matrix(1 0 0 0.999401 125.265 470)"/><text fill="#000000" fill-opacity="0" font-family="Arial,Arial_MSFontService,sans-serif" font-size="2.21935" y="-7.93777">෡</text><text font-family="Cambria Math,Cambria Math_MSFontService,sans-serif" font-weight="400" font-size="10.7033" transform="matrix(1 0 0 0.999401 134.208 477)">𝒔𝒖𝒎</text><text font-family="Cambria Math,Cambria Math_MSFontService,sans-serif" font-weight="400" font-size="10.7033" transform="matrix(1 0 0 0.999401 133.381 465)">(</text><text font-family="Cambria Math,Cambria Math_MSFontService,sans-serif" font-weight="400" font-size="10.7033" transform="matrix(1 0 0 0.999401 137.882 465)">𝒊</text><text font-family="Cambria Math,Cambria Math_MSFontService,sans-serif" font-weight="400" font-size="10.7033" transform="matrix(1 0 0 0.999401 141.883 465)">,</text><text font-family="Cambria Math,Cambria Math_MSFontService,sans-serif" font-weight="400" font-size="10.7033" transform="matrix(1 0 0 0.999401 144.05 465)">𝒋</text><text font-family="Cambria Math,Cambria Math_MSFontService,sans-serif" font-weight="400" font-size="10.7033" transform="matrix(1 0 0 0.999401 148.218 465)">)</text><text font-family="Cambria Math,Cambria Math_MSFontService,sans-serif" font-weight="400" font-size="14.662" transform="matrix(1 0 0 0.999401 161.062 473)">=</text><text font-family="Cambria Math,Cambria Math_MSFontService,sans-serif" font-weight="400" font-size="14.662" transform="matrix(1 0 0 0.999401 176.139 459)">A</text><text font-family="Cambria Math,Cambria Math_MSFontService,sans-serif" font-weight="400" font-size="10.7033" transform="matrix(1 0 0 0.999401 185.595 462)">𝒔𝒖𝒎</text><text font-family="Cambria Math,Cambria Math_MSFontService,sans-serif" font-weight="400" font-size="10.7033" transform="matrix(1 0 0 0.999401 184.769 451)">(</text><text font-family="Cambria Math,Cambria Math_MSFontService,sans-serif" font-weight="400" font-size="10.7033" transform="matrix(1 0 0 0.999401 189.27 451)">𝒊</text><text font-family="Cambria Math,Cambria Math_MSFontService,sans-serif" font-weight="400" font-size="10.7033" transform="matrix(1 0 0 0.999401 193.271 451)">,</text><text font-family="Cambria Math,Cambria Math_MSFontService,sans-serif" font-weight="400" font-size="10.7033" transform="matrix(1 0 0 0.999401 195.438 451)">𝒋</text><text font-family="Cambria Math,Cambria Math_MSFontService,sans-serif" font-weight="400" font-size="10.7033" transform="matrix(1 0 0 0.999401 199.606 451)">)</text><text font-family="Cambria Math,Cambria Math_MSFontService,sans-serif" font-weight="400" font-size="14.662" transform="matrix(1 0 0 0.999401 211.636 459)">−</text><text font-family="Cambria Math,Cambria Math_MSFontService,sans-serif" font-weight="400" font-size="14.662" transform="matrix(1 0 0 0.999401 225.9 459)">𝒎𝒆𝒂𝒏</text><path d="M239.367 2.4314 239.367 3.00379C238.966 3.03241 238.603 3.13138 238.279 3.30072 237.955 3.47005 237.679 3.72644 237.453 4.06987 237.226 4.41331 237.052 4.85334 236.93 5.38995 236.809 5.92657 236.748 6.57409 236.748 7.33251 236.748 7.86198 236.812 8.60012 236.941 9.54696 237.07 10.4938 237.134 11.1485 237.134 11.511 237.134 12.3266 236.959 12.9789 236.608 13.4678 236.258 13.9568 235.939 14.2537 235.653 14.3586L235.653 14.5017C235.939 14.6162 236.258 14.9119 236.608 15.3889 236.959 15.8659 237.134 16.5146 237.134 17.3351 237.134 17.5736 237.07 18.2402 236.941 19.3349 236.812 20.4296 236.748 21.1463 236.748 21.4849 236.748 22.2481 236.803 22.9016 236.912 23.4454 237.022 23.9891 237.192 24.4328 237.42 24.7762 237.659 25.1292 237.938 25.3927 238.258 25.5668 238.577 25.7409 238.947 25.8423 239.367 25.8709L239.367 26.4433C238.031 26.4051 237.05 25.9401 236.422 25.0481 235.795 24.1561 235.481 22.8778 235.481 21.213 235.481 20.6645 235.554 19.8703 235.7 18.8305 235.845 17.7906 235.918 17.1395 235.918 16.8772 235.918 16.2237 235.781 15.7073 235.507 15.3281 235.232 14.9489 234.828 14.7522 234.294 14.7378L234.294 14.1225C234.823 14.113 235.226 13.9198 235.503 13.543 235.78 13.1662 235.918 12.6438 235.918 11.976 235.918 11.6899 235.845 11.0721 235.7 10.1229 235.554 9.17371 235.481 8.37951 235.481 7.74034 235.481 5.96115 235.813 4.64703 236.476 3.79799 237.139 2.94893 238.103 2.49341 239.367 2.4314ZM416.493 2.4314C417.752 2.49341 418.714 2.94893 419.38 3.79798 420.045 4.64703 420.378 5.96115 420.378 7.74034 420.378 8.37951 420.305 9.17371 420.159 10.1229 420.014 11.0721 419.941 11.6899 419.941 11.976 419.941 12.6438 420.08 13.1662 420.356 13.543 420.633 13.9198 421.036 14.113 421.565 14.1225L421.565 14.7378C421.031 14.7522 420.627 14.9489 420.353 15.3281 420.078 15.7073 419.941 16.2237 419.941 16.8772 419.941 17.1395 420.014 17.7906 420.159 18.8305 420.305 19.8703 420.378 20.6645 420.378 21.213 420.378 22.8778 420.063 24.1561 419.433 25.0481 418.804 25.9401 417.823 26.4051 416.493 26.4433L416.493 25.8709C416.912 25.8423 417.282 25.7409 417.602 25.5668 417.921 25.3927 418.198 25.1292 418.432 24.7762 418.665 24.4328 418.837 23.9891 418.947 23.4454 419.056 22.9016 419.111 22.2481 419.111 21.4849 419.111 21.1463 419.047 20.4296 418.918 19.3349 418.789 18.2402 418.725 17.5736 418.725 17.3351 418.725 16.5146 418.899 15.8659 419.247 15.3889 419.595 14.9119 419.915 14.6162 420.206 14.5017L420.206 14.3586C419.915 14.2537 419.595 13.9568 419.247 13.4678 418.899 12.9789 418.725 12.3266 418.725 11.511 418.725 11.1485 418.789 10.4938 418.918 9.54696 419.047 8.60012 419.111 7.86198 419.111 7.33251 419.111 6.57409 419.05 5.92657 418.929 5.38995 418.807 4.85334 418.632 4.41331 418.403 4.06987 418.174 3.72644 417.898 3.47005 417.577 3.30072 417.255 3.13138 416.893 3.03241 416.493 3.00379ZM273.802 2.41709 274.968 2.41709 274.968 26.4576 273.802 26.4576Z" fill-rule="evenodd" transform="matrix(1.0006 0 0 1 34.9526 439.974)"/><text font-family="Cambria Math,Cambria Math_MSFontService,sans-serif" font-weight="400" font-size="14.662" transform="matrix(1 0 0 0.999401 274.908 459)">A</text><text font-family="Cambria Math,Cambria Math_MSFontService,sans-serif" font-weight="400" font-size="10.7033" transform="matrix(1 0 0 0.999401 284.364 462)">sum</text><text font-family="Cambria Math,Cambria Math_MSFontService,sans-serif" font-weight="400" font-size="10.7033" transform="matrix(1 0 0 0.999401 283.537 451)">(</text><text font-family="Cambria Math,Cambria Math_MSFontService,sans-serif" font-weight="400" font-size="10.7033" transform="matrix(1 0 0 0.999401 288.038 451)">i'</text><text font-family="Cambria Math,Cambria Math_MSFontService,sans-serif" font-weight="400" font-size="10.7033" transform="matrix(1 0 0 0.999401 294.04 451)">,</text><text font-family="Cambria Math,Cambria Math_MSFontService,sans-serif" font-weight="400" font-size="10.7033" transform="matrix(1 0 0 0.999401 296.207 451)">j'</text><text font-family="Cambria Math,Cambria Math_MSFontService,sans-serif" font-weight="400" font-size="10.7033" transform="matrix(1 0 0 0.999401 302.042 451)">)</text><text font-family="Cambria Math,Cambria Math_MSFontService,sans-serif" font-weight="400" font-size="14.662" transform="matrix(1 0 0 0.999401 311.858 459)">i'</text><text font-family="Cambria Math,Cambria Math_MSFontService,sans-serif" font-weight="400" font-size="14.662" transform="matrix(1 0 0 0.999401 323.435 459)">∈</text><text font-family="Cambria Math,Cambria Math_MSFontService,sans-serif" font-weight="400" font-size="14.662" transform="matrix(1 0 0 0.999401 336.678 459)">D</text><text font-family="Cambria Math,Cambria Math_MSFontService,sans-serif" font-weight="400" font-size="10.7033" transform="matrix(1 0 0 0.999401 346.348 462)">Batch</text><text font-family="Cambria Math,Cambria Math_MSFontService,sans-serif" font-weight="400" font-size="14.662" transform="matrix(1 0 0 0.999401 376.296 459)">,</text><text font-family="Cambria Math,Cambria Math_MSFontService,sans-serif" font-weight="400" font-size="14.662" transform="matrix(1 0 0 0.999401 381.745 459)">j'</text><text font-family="Cambria Math,Cambria Math_MSFontService,sans-serif" font-weight="400" font-size="14.662" transform="matrix(1 0 0 0.999401 393.155 459)">=</text><text font-family="Cambria Math,Cambria Math_MSFontService,sans-serif" font-weight="400" font-size="14.662" transform="matrix(1 0 0 0.999401 408.232 459)">1</text><text font-family="Cambria Math,Cambria Math_MSFontService,sans-serif" font-weight="400" font-size="14.662" transform="matrix(1 0 0 0.999401 416.401 459)">,</text><text font-family="Cambria Math,Cambria Math_MSFontService,sans-serif" font-weight="400" font-size="14.662" transform="matrix(1 0 0 0.999401 421.849 459)">⋯</text><text font-family="Cambria Math,Cambria Math_MSFontService,sans-serif" font-weight="400" font-size="14.662" transform="matrix(1 0 0 0.999401 436.8 459)">G</text><text font-family="Cambria Math,Cambria Math_MSFontService,sans-serif" font-weight="400" font-size="14.662" transform="matrix(1 0 0 0.999401 445.803 459)">,</text><text font-family="Cambria Math,Cambria Math_MSFontService,sans-serif" font-weight="400" font-size="14.662" transform="matrix(1 0 0 0.999401 197.259 487)">𝒔𝒕𝒅</text><path d="M370.54 31.1385C371.8 31.2005 372.762 31.656 373.427 32.5051 374.093 33.3541 374.425 34.6682 374.425 36.4474 374.425 37.0866 374.353 37.8808 374.207 38.83 374.062 39.7792 373.989 40.3969 373.989 40.6831 373.989 41.3509 374.127 41.8732 374.404 42.25 374.681 42.6269 375.084 42.8201 375.613 42.8296L375.613 43.4449C375.079 43.4592 374.675 43.656 374.4 44.0352 374.126 44.4144 373.989 44.9308 373.989 45.5842 373.989 45.8466 374.062 46.4977 374.207 47.5375 374.353 48.5774 374.425 49.3716 374.425 49.9201 374.425 51.5848 374.111 52.8632 373.481 53.7551 372.851 54.6471 371.871 55.1122 370.54 55.1504L370.54 54.578C370.96 54.5493 371.33 54.448 371.649 54.2739 371.969 54.0998 372.246 53.8362 372.479 53.4833 372.713 53.1398 372.885 52.6962 372.994 52.1524 373.104 51.6087 373.159 50.9552 373.159 50.192 373.159 49.8533 373.095 49.1367 372.966 48.0419 372.837 46.9472 372.773 46.2806 372.773 46.0422 372.773 45.2217 372.947 44.573 373.295 44.096 373.643 43.619 373.963 43.3233 374.254 43.2088L374.254 43.0657C373.963 42.9608 373.643 42.6638 373.295 42.1749 372.947 41.686 372.773 41.0337 372.773 40.2181 372.773 39.8555 372.837 39.2009 372.966 38.254 373.095 37.3072 373.159 36.569 373.159 36.0396 373.159 35.2812 373.098 34.6336 372.977 34.097 372.855 33.5604 372.68 33.1204 372.451 32.7769 372.222 32.4335 371.946 32.1771 371.624 32.0078 371.302 31.8385 370.941 31.7395 370.54 31.7109ZM193.414 31.1385 193.414 31.7109C193.014 31.7395 192.651 31.8385 192.327 32.0078 192.003 32.1771 191.727 32.4335 191.5 32.7769 191.274 33.1204 191.1 33.5604 190.978 34.097 190.857 34.6336 190.796 35.2812 190.796 36.0396 190.796 36.569 190.86 37.3072 190.989 38.254 191.118 39.2009 191.182 39.8555 191.182 40.2181 191.182 41.0337 191.007 41.686 190.656 42.1749 190.306 42.6638 189.987 42.9608 189.701 43.0657L189.701 43.2088C189.987 43.3233 190.306 43.619 190.656 44.096 191.007 44.573 191.182 45.2217 191.182 46.0422 191.182 46.2806 191.118 46.9472 190.989 48.0419 190.86 49.1367 190.796 49.8533 190.796 50.192 190.796 50.9552 190.851 51.6087 190.96 52.1524 191.07 52.6962 191.239 53.1398 191.468 53.4833 191.707 53.8362 191.986 54.0998 192.305 54.2739 192.625 54.448 192.995 54.5493 193.414 54.578L193.414 55.1504C192.079 55.1122 191.097 54.6471 190.47 53.7551 189.843 52.8632 189.529 51.5848 189.529 49.9201 189.529 49.3716 189.602 48.5774 189.748 47.5375 189.893 46.4977 189.966 45.8466 189.966 45.5842 189.966 44.9308 189.829 44.4144 189.554 44.0352 189.28 43.656 188.876 43.4592 188.342 43.4449L188.342 42.8296C188.871 42.8201 189.274 42.6269 189.551 42.25 189.827 41.8732 189.966 41.3509 189.966 40.6831 189.966 40.3969 189.893 39.7792 189.748 38.83 189.602 37.8808 189.529 37.0866 189.529 36.4474 189.529 34.6682 189.861 33.3541 190.524 32.5051 191.187 31.656 192.15 31.2005 193.414 31.1385ZM227.849 31.1242 229.016 31.1242 229.016 55.1647 227.849 55.1647Z" fill-rule="evenodd" transform="matrix(1.0006 0 0 1 34.9526 439.974)"/><text font-family="Cambria Math,Cambria Math_MSFontService,sans-serif" font-weight="400" font-size="14.662" transform="matrix(1 0 0 0.999401 228.928 487)">A</text><text font-family="Cambria Math,Cambria Math_MSFontService,sans-serif" font-weight="400" font-size="10.7033" transform="matrix(1 0 0 0.999401 238.384 491)">sum</text><text font-family="Cambria Math,Cambria Math_MSFontService,sans-serif" font-weight="400" font-size="10.7033" transform="matrix(1 0 0 0.999401 237.557 479)">(</text><text font-family="Cambria Math,Cambria Math_MSFontService,sans-serif" font-weight="400" font-size="10.7033" transform="matrix(1 0 0 0.999401 242.058 479)">i'</text><text font-family="Cambria Math,Cambria Math_MSFontService,sans-serif" font-weight="400" font-size="10.7033" transform="matrix(1 0 0 0.999401 248.06 479)">,</text><text font-family="Cambria Math,Cambria Math_MSFontService,sans-serif" font-weight="400" font-size="10.7033" transform="matrix(1 0 0 0.999401 250.227 479)">j'</text><text font-family="Cambria Math,Cambria Math_MSFontService,sans-serif" font-weight="400" font-size="10.7033" transform="matrix(1 0 0 0.999401 256.062 479)">)</text><text font-family="Cambria Math,Cambria Math_MSFontService,sans-serif" font-weight="400" font-size="14.662" transform="matrix(1 0 0 0.999401 265.878 487)">i'</text><text font-family="Cambria Math,Cambria Math_MSFontService,sans-serif" font-weight="400" font-size="14.662" transform="matrix(1 0 0 0.999401 277.455 487)">∈</text><text font-family="Cambria Math,Cambria Math_MSFontService,sans-serif" font-weight="400" font-size="14.662" transform="matrix(1 0 0 0.999401 290.699 487)">D</text><text font-family="Cambria Math,Cambria Math_MSFontService,sans-serif" font-weight="400" font-size="10.7033" transform="matrix(1 0 0 0.999401 300.368 490)">Batch</text><text font-family="Cambria Math,Cambria Math_MSFontService,sans-serif" font-weight="400" font-size="14.662" transform="matrix(1 0 0 0.999401 330.317 487)">,</text><text font-family="Cambria Math,Cambria Math_MSFontService,sans-serif" font-weight="400" font-size="14.662" transform="matrix(1 0 0 0.999401 335.765 487)">j'</text><text font-family="Cambria Math,Cambria Math_MSFontService,sans-serif" font-weight="400" font-size="14.662" transform="matrix(1 0 0 0.999401 347.175 487)">=</text><text font-family="Cambria Math,Cambria Math_MSFontService,sans-serif" font-weight="400" font-size="14.662" transform="matrix(1 0 0 0.999401 362.252 487)">1</text><text font-family="Cambria Math,Cambria Math_MSFontService,sans-serif" font-weight="400" font-size="14.662" transform="matrix(1 0 0 0.999401 370.421 487)">,</text><text font-family="Cambria Math,Cambria Math_MSFontService,sans-serif" font-weight="400" font-size="14.662" transform="matrix(1 0 0 0.999401 375.87 487)">⋯</text><text font-family="Cambria Math,Cambria Math_MSFontService,sans-serif" font-weight="400" font-size="14.662" transform="matrix(1 0 0 0.999401 390.82 487)">,</text><text font-family="Cambria Math,Cambria Math_MSFontService,sans-serif" font-weight="400" font-size="14.662" transform="matrix(1 0 0 0.999401 396.269 487)">G</text><text font-family="Cambria Math,Cambria Math_MSFontService,sans-serif" font-weight="400" font-size="14.662" transform="matrix(1 0 0 0.999401 414.747 487)">+</text><text font-family="Cambria Math,Cambria Math_MSFontService,sans-serif" font-weight="400" font-size="14.662" transform="matrix(1 0 0 0.999401 429.011 487)">𝝐</text><path d="M140.915 27.9832 234.526 27.9832 328.137 27.9832 421.747 27.9832 421.747 28.9826 328.137 28.9826 234.526 28.9826 140.915 28.9826Z" fill-rule="evenodd" transform="matrix(1.0006 0 0 1 34.9526 439.974)"/><path d="M14 305.138C14 292.818 23.9933 282.83 36.3206 282.83L549.679 282.83C562.007 282.83 572 292.818 572 305.138L572 489.386C572 501.706 562.007 511.693 549.679 511.693L36.3206 511.693C23.9933 511.693 14 501.706 14 489.386Z" stroke="#43A756" stroke-width="2.00057" stroke-miterlimit="8" stroke-dasharray="8.00228 6.00171" fill="none" fill-rule="evenodd"/><text font-family="Calibri,Calibri_MSFontService,sans-serif" font-weight="700" font-size="14.662" transform="matrix(1 0 0 0.999401 274.828 308)">GDPO</text><path d="M544.61 270.683 545.85 278.584 543.873 278.893 542.634 270.992ZM546.779 284.509 547.009 285.975 547.754 292.488 545.767 292.715 545.024 286.223 545.03 286.264 544.803 284.819ZM548.436 298.448 548.674 300.529 549.093 306.46 547.098 306.601 546.68 300.692 546.684 300.735 546.448 298.675ZM549.517 312.443 549.653 314.368 549.813 320.478 547.813 320.531 547.654 314.443 547.656 314.487 547.521 312.584ZM549.971 326.474 549.999 327.533 549.868 334.515 547.868 334.478 547.998 327.518 547.998 327.563 547.971 326.527ZM549.733 340.556 549.223 348.537 547.226 348.41 547.736 340.429ZM548.724 354.558 547.859 362.509 545.87 362.293 546.735 354.342ZM546.986 368.486 546.1 374.286 545.685 376.417 543.721 376.035 544.133 373.924 544.126 373.964 545.008 368.184ZM544.537 382.304 544.069 384.705 542.79 390.147 540.842 389.69 542.117 384.266 542.109 384.304 542.573 381.922ZM541.364 396.008 539.266 403.726 537.335 403.202 539.433 395.484ZM537.526 409.498 536.281 413.586 535.061 417.142 533.168 416.493 534.383 412.954 534.372 412.987 535.613 408.916ZM533.113 422.815 530.517 430.38 528.625 429.731 531.221 422.167ZM528.434 436.033 525.637 443.526 523.763 442.828 526.559 435.335ZM526.749 449.129C525.977 451.198 523.672 452.25 521.602 451.478 519.531 450.706 518.479 448.403 519.251 446.334 520.023 444.265 522.328 443.213 524.398 443.985 526.469 444.757 527.521 447.06 526.749 449.129Z" fill="#43A756"/><path d="M7.33257-0.131155 8.38182 7.7972 6.39973 8.05951 5.35049 0.131155ZM8.80104 13.8607 8.99534 17.9346 8.8367 21.9377 6.8389 21.8585 6.99581 17.899 6.99616 17.9862 6.80394 13.956ZM8.39959 28.0011 7.78723 32.8403 7.13395 35.9723 5.1767 35.5641 5.82183 32.4711 5.80868 32.5498 6.41604 27.7501ZM5.72444 41.8682 4.74572 45.3651 3.29106 49.5474 1.40265 48.8906 2.84716 44.7374 2.82867 44.7964 3.79906 41.3293ZM1.32062 55.2126 0.944203 56.2948-0.944203 55.638-0.56779 54.5558ZM3.77681 57.28C3.05132 59.3659 0.772249 60.4687-1.31363 59.7432-3.3995 59.0177-4.50231 56.7387-3.77681 54.6528-3.05132 52.5669-0.772249 51.4641 1.31363 52.1896 3.3995 52.9151 4.50231 55.1942 3.77681 57.28Z" fill="#43A756" transform="matrix(-1.0006 0 0 1 47 270.838)"/></g></svg>