<svg width="624" height="461" xmlns="http://www.w3.org/2000/svg" xmlns:xlink="http://www.w3.org/1999/xlink" overflow="hidden"><g><rect x="0" y="0" width="624" height="460.587" fill="#FFFFFF"/><rect x="102.5" y="37.4665" width="33" height="87.9212" stroke="#2F7013" stroke-width="1.33405" stroke-miterlimit="8" fill="#B6D7A8"/><text font-family="Calibri,Calibri_MSFontService,sans-serif" font-weight="700" font-size="14.6614" transform="matrix(1 0 0 0.999105 114.391 86)">X</text><path d="M167.5 37.4665 167.5 124.389 268.5 92.6286 268.5 68.112 167.5 37.4665Z" stroke="#2F7013" stroke-width="1.33405" stroke-miterlimit="8" fill="#B6D7A8" fill-rule="evenodd"/><text font-family="Yu Gothic,Yu Gothic_MSFontService,sans-serif" font-weight="700" font-size="14.6614" transform="matrix(1 0 0 0.999105 195.794 76)">識別器</text><text font-family="Calibri,Calibri_MSFontService,sans-serif" font-weight="700" font-size="14.6614" transform="matrix(1 0 0 0.999105 205.379 93)">D(x)</text><path d="M299.5 78.9293C299.5 66.514 310.245 56.4494 323.5 56.4494 336.755 56.4494 347.5 66.514 347.5 78.9293 347.5 91.3445 336.755 101.409 323.5 101.409 310.245 101.409 299.5 91.3445 299.5 78.9293Z" stroke="#172C51" stroke-width="1.33405" stroke-miterlimit="8" fill="#B4A7D6" fill-rule="evenodd" fill-opacity="0.698039"/><text font-family="Yu Gothic,Yu Gothic_MSFontService,sans-serif" font-weight="700" font-size="14.6614" transform="matrix(1 0 0 0.999105 304.852 75)">本物</text><text font-family="Calibri,Calibri_MSFontService,sans-serif" font-weight="700" font-size="14.6614" transform="matrix(1 0 0 0.999105 334.201 75)">/</text><text font-family="Yu Gothic,Yu Gothic_MSFontService,sans-serif" font-weight="700" font-size="14.6614" transform="matrix(1 0 0 0.999105 308.021 92)">偽物</text><rect x="370.5" y="66.4404" width="36" height="28.9741" stroke="#172C51" stroke-width="1.33405" stroke-miterlimit="8" fill="#EA9999"/><text font-family="Calibri,Calibri_MSFontService,sans-serif" font-weight="700" font-size="14.6614" transform="matrix(1 0 0 0.999105 385.144 85)">z</text><path d="M536.5 36.4673 439.5 66.2471 439.5 93.8997 536.5 124.389 536.5 36.4673Z" stroke="#172C51" stroke-width="1.33405" stroke-miterlimit="8" fill="#CFE2F3" fill-rule="evenodd"/><text font-family="Yu Gothic,Yu Gothic_MSFontService,sans-serif" font-weight="700" font-size="14.6614" transform="matrix(1 0 0 0.999105 465.724 76)">生成器</text><text font-family="Calibri,Calibri_MSFontService,sans-serif" font-weight="700" font-size="14.6614" transform="matrix(1 0 0 0.999105 475.642 93)">G(z)</text><rect x="568.5" y="36.4673" width="38.0001" height="87.9212" stroke="#172C51" stroke-width="1.33405" stroke-miterlimit="8" fill="#CFE2F3"/><text font-family="Calibri,Calibri_MSFontService,sans-serif" font-weight="700" font-size="14.6614" transform="matrix(1 0 0 0.999105 582.28 85)">x'</text><path d="M135 78.9287 159.33 78.9287 159.33 80.928 135 80.928ZM157.996 75.9298 166 79.9284 157.996 83.9269Z" fill="#172C51"/><path d="M269 78.9287 292.33 78.9287 292.33 80.928 269 80.928ZM290.996 75.9298 299 79.9284 290.996 83.9269Z" fill="#172C51"/><path d="M406 79.9278 430.33 79.9278 430.33 81.9271 406 81.9271ZM428.996 76.9289 437 80.9275 428.996 84.926Z" fill="#172C51"/><path d="M536 79.9278 559.33 79.9278 559.33 81.9271 536 81.9271ZM557.996 76.9289 566 80.9275 557.996 84.926Z" fill="#172C51"/><rect x="101.5" y="143.371" width="34" height="90.9185" stroke="#2F7013" stroke-width="1.33405" stroke-miterlimit="8" fill="#B6D7A8"/><text font-family="Calibri,Calibri_MSFontService,sans-serif" font-weight="700" font-size="14.6614" transform="matrix(1 0 0 0.999105 114.26 193)">X</text><path d="M167.5 143.371 167.5 233.291 268.5 200.436 268.5 175.074 167.5 143.371Z" stroke="#2F7013" stroke-width="1.33405" stroke-miterlimit="8" fill="#B6D7A8" fill-rule="evenodd"/><text font-family="Yu Gothic,Yu Gothic_MSFontService,sans-serif" font-weight="700" font-size="15.9942" transform="matrix(1 0 0 0.999105 169.601 183)">エンコーダー</text><text font-family="Cambria Math,Cambria Math_MSFontService,sans-serif" font-weight="400" font-size="15.9942" transform="matrix(1 0 0 0.999105 190.052 201)">𝒒</text><text font-family="Cambria Math,Cambria Math_MSFontService,sans-serif" font-weight="400" font-size="11.6758" transform="matrix(1 0 0 0.999105 199.724 205)">𝝓</text><path d="M62.2315 3.01381C63.7504 3.41435 64.917 4.27915 65.731 5.6082 66.5451 6.93726 66.9521 8.54071 66.9521 10.4186 66.9521 12.3016 66.5464 13.9051 65.7349 15.2289 64.9235 16.5528 63.7556 17.415 62.2315 17.8155L62.0443 17.2147C63.2459 16.8142 64.1393 16.0235 64.7245 14.8427 65.3097 13.6619 65.6023 12.1612 65.6023 10.3405 65.6023 8.58233 65.311 7.12193 64.7284 5.95933 64.1458 4.79673 63.2433 4.01516 62.0209 3.61462ZM38.72 3.01381 38.9307 3.61462C37.7134 4.01516 36.8122 4.79673 36.227 5.95933 35.6418 7.12193 35.3492 8.58233 35.3492 10.3405 35.3492 12.1612 35.6418 13.6619 36.227 14.8427 36.8122 16.0235 37.7056 16.8142 38.9073 17.2147L38.72 17.8155C37.1959 17.415 36.0281 16.5528 35.2166 15.2289 34.4051 13.9051 33.9994 12.3016 33.9994 10.4186 33.9994 8.54071 34.4064 6.93726 35.2205 5.6082 36.0346 4.27915 37.2011 3.41435 38.72 3.01381Z" fill-rule="evenodd" transform="matrix(1.0009 0 0 1 176.772 186.506)"/><text font-family="Cambria Math,Cambria Math_MSFontService,sans-serif" font-weight="400" font-size="15.9942" transform="matrix(1 0 0 0.999105 216.039 201)">𝒛</text><text font-family="Cambria Math,Cambria Math_MSFontService,sans-serif" font-weight="400" font-size="15.9942" transform="matrix(1 0 0 0.999105 224.377 201)">|</text><text font-family="Cambria Math,Cambria Math_MSFontService,sans-serif" font-weight="400" font-size="15.9942" transform="matrix(1 0 0 0.999105 229.38 201)">𝒙</text><path d="M536.5 143.371 439.5 173.828 439.5 202.109 536.5 233.291 536.5 143.371Z" stroke="#172C51" stroke-width="1.33405" stroke-miterlimit="8" fill="#CFE2F3" fill-rule="evenodd"/><text font-family="Yu Gothic,Yu Gothic_MSFontService,sans-serif" font-weight="700" font-size="14.6614" transform="matrix(1 0 0 0.999105 450.863 184)">デコーダー</text><text font-family="Cambria Math,Cambria Math_MSFontService,sans-serif" font-weight="400" font-size="14.6614" transform="matrix(1 0 0 0.999105 462.896 201)">𝒑</text><text font-family="Cambria Math,Cambria Math_MSFontService,sans-serif" font-weight="400" font-size="10.7028" transform="matrix(1 0 0 0.999105 472.068 204)">𝜽</text><path d="M57.8308 2.01582C59.2232 2.38298 60.2925 3.17571 61.0387 4.39402 61.785 5.61232 62.1581 7.08215 62.1581 8.80351 62.1581 10.5296 61.7861 11.9995 61.0423 13.213 60.2984 14.4265 59.228 15.2169 57.8308 15.584L57.6592 15.0333C58.7607 14.6661 59.5796 13.9414 60.116 12.859 60.6525 11.7765 60.9207 10.4009 60.9207 8.73198 60.9207 7.1203 60.6537 5.78159 60.1196 4.71588 59.5856 3.65016 58.7583 2.93372 57.6377 2.56656ZM36.2369 2.01582 36.4301 2.56656C35.3143 2.93372 34.4882 3.65016 33.9517 4.71588 33.4153 5.78159 33.1471 7.1203 33.1471 8.73198 33.1471 10.4009 33.4153 11.7765 33.9517 12.859 34.4882 13.9414 35.3071 14.6661 36.4086 15.0333L36.2369 15.584C34.8398 15.2169 33.7693 14.4265 33.0255 13.213 32.2816 11.9995 31.9097 10.5296 31.9097 8.80351 31.9097 7.08215 32.2828 5.61232 33.0291 4.39402 33.7753 3.17571 34.8446 2.38298 36.2369 2.01582Z" fill-rule="evenodd" transform="matrix(1.0009 0 0 1 448.695 187.92)"/><text font-family="Cambria Math,Cambria Math_MSFontService,sans-serif" font-weight="400" font-size="14.6614" transform="matrix(1 0 0 0.999105 485.435 201)">𝒙</text><text font-family="Cambria Math,Cambria Math_MSFontService,sans-serif" font-weight="400" font-size="14.6614" transform="matrix(1 0 0 0.999105 493.939 201)">|</text><text font-family="Cambria Math,Cambria Math_MSFontService,sans-serif" font-weight="400" font-size="14.6614" transform="matrix(1 0 0 0.999105 498.608 201)">𝒛</text><rect x="568.5" y="143.371" width="38.0001" height="89.9194" stroke="#172C51" stroke-width="1.33405" stroke-miterlimit="8" fill="#CFE2F3"/><text font-family="Calibri,Calibri_MSFontService,sans-serif" font-weight="700" font-size="14.6614" transform="matrix(1 0 0 0.999105 582.149 192)">x'</text><path d="M135 185.833 158.33 185.833 158.33 187.832 135 187.832ZM156.996 182.834 165 186.833 156.996 190.831Z" fill="#172C51"/><path d="M535 187.831 559.33 187.831 559.33 189.83 535 189.83ZM557.996 184.832 566 188.831 557.996 192.829Z" fill="#172C51"/><rect x="334.5" y="172.346" width="35.9999" height="29.9731" stroke="#172C51" stroke-width="1.33405" stroke-miterlimit="8" fill="#EA9999"/><text font-family="Calibri,Calibri_MSFontService,sans-serif" font-weight="700" font-size="14.6614" transform="matrix(1 0 0 0.999105 349.215 192)">z</text><path d="M0-0.999639 62.274-0.999639 62.274 0.999639 0 0.999639ZM60.9411-3.99855 68.9382 0 60.9411 3.99855Z" fill="#172C51" transform="matrix(1.0009 0 0 -1 370 186.833)"/><path d="M0-0.999639 57.2785-0.999639 57.2785 0.999639 0 0.999639ZM55.9457-3.99855 63.9428 0 55.9457 3.99855Z" fill="#172C51" transform="matrix(1.0009 0 0 -1 269 186.833)"/><rect x="102.5" y="257.269" width="33" height="79.9284" stroke="#2F7013" stroke-width="1.33405" stroke-miterlimit="8" fill="#B6D7A8"/><text font-family="Calibri,Calibri_MSFontService,sans-serif" font-weight="700" font-size="14.6614" transform="matrix(1 0 0 0.999105 114.391 302)">X</text><rect x="567.5" y="258.269" width="38.0001" height="87.9212" stroke="#172C51" stroke-width="1.33405" stroke-miterlimit="8" fill="#CFE2F3"/><text font-family="Calibri,Calibri_MSFontService,sans-serif" font-weight="700" font-size="14.6614" transform="matrix(1 0 0 0.999105 581.234 306)">x'</text><path d="M134 299.731 157.33 299.731 157.33 301.73 134 301.73ZM155.996 296.732 164 300.73 155.996 304.729Z" fill="#172C51"/><path d="M535 301.729 558.33 301.729 558.33 303.728 535 303.728ZM556.996 298.73 565 302.729 556.996 306.727Z" fill="#172C51"/><rect x="333.5" y="287.243" width="35.9999" height="28.974" stroke="#172C51" stroke-width="1.33405" stroke-miterlimit="8" fill="#EA9999"/><text font-family="Calibri,Calibri_MSFontService,sans-serif" font-weight="700" font-size="14.6614" transform="matrix(1 0 0 0.999105 348.3 306)">z</text><path d="M0-0.999639 56.2794-0.999639 56.2794 0.999639 0 0.999639ZM54.9465-3.99855 62.9436 0 54.9465 3.99855Z" fill="#172C51" transform="matrix(1.0009 0 0 -1 369 300.73)"/><path d="M0-0.999639 57.2785-0.999639 57.2785 0.999639 0 0.999639ZM55.9457-3.99855 63.9428 0 55.9457 3.99855Z" fill="#172C51" transform="matrix(1.0009 0 0 -1 268 300.73)"/><rect x="165.5" y="274.254" width="104" height="53.9516" stroke="#172C51" stroke-width="1.00053" stroke-miterlimit="8" fill="#B6D7A8"/><text font-family="Calibri,Calibri_MSFontService,sans-serif" font-weight="700" font-size="14.6614" transform="matrix(1 0 0 0.999105 202.266 297)">Flow</text><text font-family="Cambria Math,Cambria Math_MSFontService,sans-serif" font-weight="400" font-size="14.6614" transform="matrix(1 0 0 0.999105 202.346 314)">𝒇</text><path d="M51.3598 2.01582C52.7522 2.38298 53.8215 3.17571 54.5677 4.39402 55.314 5.61232 55.6871 7.08215 55.6871 8.80351 55.6871 10.5296 55.3152 11.9995 54.5713 13.213 53.8274 14.4265 52.757 15.2169 51.3598 15.584L51.1882 15.0333C52.2897 14.6661 53.1086 13.9414 53.6451 12.859 54.1815 11.7765 54.4497 10.4009 54.4497 8.73198 54.4497 7.1203 54.1827 5.78159 53.6486 4.71588 53.1146 3.65016 52.2873 2.93372 51.1667 2.56656ZM41.9282 2.01582 42.1213 2.56656C41.0056 2.93372 40.1794 3.65016 39.643 4.71588 39.1066 5.78159 38.8384 7.1203 38.8384 8.73198 38.8384 10.4009 39.1066 11.7765 39.643 12.859 40.1794 13.9414 40.9984 14.6661 42.0999 15.0333L41.9282 15.584C40.5311 15.2169 39.4606 14.4265 38.7168 13.213 37.9729 11.9995 37.601 10.5296 37.601 8.80351 37.601 7.08215 37.9741 5.61232 38.7203 4.39402 39.4666 3.17571 40.5359 2.38298 41.9282 2.01582Z" fill-rule="evenodd" transform="matrix(1.0009 0 0 1 174.337 300.981)"/><text font-family="Cambria Math,Cambria Math_MSFontService,sans-serif" font-weight="400" font-size="14.6614" transform="matrix(1 0 0 0.999105 216.773 314)">𝒙</text><rect x="434.5" y="275.253" width="104" height="52.9525" stroke="#172C51" stroke-width="1.00053" stroke-miterlimit="8" fill="#CFE2F3"/><text font-family="Calibri,Calibri_MSFontService,sans-serif" font-weight="700" font-size="14.6614" transform="matrix(1 0 0 0.999105 464.04 297)">Inverse</text><text font-family="Cambria Math,Cambria Math_MSFontService,sans-serif" font-weight="400" font-size="14.6614" transform="matrix(1 0 0 0.999105 464.814 315)">𝒇</text><text font-family="Cambria Math,Cambria Math_MSFontService,sans-serif" font-weight="400" font-size="10.7028" transform="matrix(1 0 0 0.999105 473.151 310)">−</text><text font-family="Cambria Math,Cambria Math_MSFontService,sans-serif" font-weight="400" font-size="10.7028" transform="matrix(1 0 0 0.999105 480.989 310)">𝟏</text><path d="M58.244 3.01457C59.6364 3.38173 60.7057 4.17446 61.4519 5.39276 62.1981 6.61106 62.5713 8.08089 62.5713 9.80225 62.5713 11.5284 62.1993 12.9982 61.4555 14.2117 60.7116 15.4253 59.6411 16.2156 58.244 16.5828L58.0724 16.032C59.1738 15.6649 59.9928 14.9401 60.5292 13.8577 61.0657 12.7753 61.3339 11.3996 61.3339 9.73073 61.3339 8.11904 61.0669 6.78034 60.5328 5.71462 59.9988 4.6489 59.1715 3.93247 58.0509 3.56531ZM49.812 3.01457 50.0051 3.56531C48.8894 3.93247 48.0633 4.6489 47.5268 5.71462 46.9904 6.78034 46.7222 8.11904 46.7222 9.73073 46.7222 11.3996 46.9904 12.7753 47.5268 13.8577 48.0633 14.9401 48.8822 15.6649 49.9837 16.032L49.812 16.5828C48.4149 16.2156 47.3444 15.4253 46.6006 14.2117 45.8567 12.9982 45.4848 11.5284 45.4848 9.80225 45.4848 8.08089 45.8579 6.61106 46.6042 5.39276 47.3504 4.17446 48.4197 3.38173 49.812 3.01457Z" fill-rule="evenodd" transform="matrix(1.0009 0 0 1 443.696 301.148)"/><text font-family="Cambria Math,Cambria Math_MSFontService,sans-serif" font-weight="400" font-size="14.6614" transform="matrix(1 0 0 0.999105 494.023 315)">𝒛</text><rect x="99.5" y="360.177" width="36" height="88.9203" stroke="#2F7013" stroke-width="1.33405" stroke-miterlimit="8" fill="#B6D7A8"/><text font-family="Cambria Math,Cambria Math_MSFontService,sans-serif" font-weight="400" font-size="14.6614" transform="matrix(1 0 0 0.999105 107.752 409)">X</text><text font-family="Cambria Math,Cambria Math_MSFontService,sans-serif" font-weight="400" font-size="10.7028" transform="matrix(1 0 0 0.999105 116.517 412)">0</text><rect x="181.5" y="360.177" width="37" height="87.9212" stroke="#2F7013" stroke-width="1.33405" stroke-miterlimit="8" fill="#FFE599"/><text font-family="Cambria Math,Cambria Math_MSFontService,sans-serif" font-weight="400" font-size="14.6614" transform="matrix(1 0 0 0.999105 189.946 408)">X</text><text font-family="Cambria Math,Cambria Math_MSFontService,sans-serif" font-weight="400" font-size="10.7028" transform="matrix(1 0 0 0.999105 198.71 411)">𝟏</text><rect x="263.5" y="360.177" width="36" height="87.9212" stroke="#2F7013" stroke-width="1.33405" stroke-miterlimit="8" fill="#F9CB9C"/><text font-family="Cambria Math,Cambria Math_MSFontService,sans-serif" font-weight="400" font-size="14.6614" transform="matrix(1 0 0 0.999105 271.438 409)">X</text><text font-family="Cambria Math,Cambria Math_MSFontService,sans-serif" font-weight="400" font-size="10.7028" transform="matrix(1 0 0 0.999105 280.202 412)">𝟐</text><rect x="570.5" y="359.178" width="36" height="87.9213" stroke="#2F7013" stroke-width="1.33405" stroke-miterlimit="8" fill="#EA9999"/><text font-family="Calibri,Calibri_MSFontService,sans-serif" font-weight="700" font-size="14.6614" transform="matrix(1 0 0 0.999105 584.782 407)">z</text><path d="M134 401.639 174.33 401.639 174.33 403.639 134 403.639ZM172.996 398.641 181 402.639 172.996 406.638Z" fill="#172C51"/><path d="M141.67 410.632 149.674 410.632 149.674 412.631 141.67 412.631ZM155.678 410.632 163.682 410.632 163.682 412.631 155.678 412.631ZM169.685 410.632 177.689 410.632 177.689 412.631 169.685 412.631ZM143.004 415.63 135 411.631 143.004 407.633Z" fill="#172C51"/><path d="M218 401.639 258.33 401.639 258.33 403.639 218 403.639ZM256.996 398.641 265 402.639 256.996 406.638Z" fill="#172C51"/><path d="M225.67 409.632 233.675 409.632 233.675 411.632 225.67 411.632ZM239.678 409.632 247.682 409.632 247.682 411.632 239.678 411.632ZM253.685 409.632 261.69 409.632 261.69 411.632 253.685 411.632ZM227.004 414.631 219 410.632 227.004 406.633Z" fill="#172C51"/><path d="M299 401.639 339.33 401.639 339.33 403.639 299 403.639ZM337.996 398.641 346 402.639 337.996 406.638Z" fill="#172C51"/><path d="M306.67 409.632 314.675 409.632 314.675 411.632 306.67 411.632ZM320.678 409.632 328.682 409.632 328.682 411.632 320.678 411.632ZM334.685 409.632 342.69 409.632 342.69 411.632 334.685 411.632ZM308.004 414.631 300 410.632 308.004 406.633Z" fill="#172C51"/><path d="M522 400.64 562.33 400.64 562.33 402.64 522 402.64ZM560.996 397.642 569 401.64 560.996 405.639Z" fill="#172C51"/><path d="M528.67 409.632 536.674 409.632 536.674 411.632 528.67 411.632ZM542.678 409.632 550.682 409.632 550.682 411.632 542.678 411.632ZM556.685 409.632 564.689 409.632 564.689 411.632 556.685 411.632ZM530.004 414.631 522 410.632 530.004 406.633Z" fill="#172C51"/><path d="M362 402.639 505 402.639" stroke="#172C51" stroke-width="2.00107" stroke-miterlimit="8" stroke-dasharray="2.00107 2.00107" fill="none" fill-rule="evenodd"/><path d="M362 410.632 505 410.632" stroke="#172C51" stroke-width="2.00107" stroke-miterlimit="8" stroke-dasharray="2.00107 2.00107" fill="none" fill-rule="evenodd"/><path d="M586.833 35.4682 586.833 7.49325 587.5 8.15967 118.5 8.15967 119.167 7.49325 119.167 28.804 117.833 28.804 117.833 6.82682 588.167 6.82682 588.167 35.4682ZM122.502 27.4711 118.5 35.4682 114.498 27.4711Z" fill="#172C51"/><text font-family="Calibri,Calibri_MSFontService,sans-serif" font-weight="700" font-size="14.6614" transform="matrix(1 0 0 0.999105 53.4446 86)">GAN</text><text font-family="Calibri,Calibri_MSFontService,sans-serif" font-weight="700" font-size="14.6614" transform="matrix(1 0 0 0.999105 53.4446 196)">VAE</text><text font-family="Calibri,Calibri_MSFontService,sans-serif" font-weight="700" font-size="14.6614" transform="matrix(1 0 0 0.999105 19.8396 297)">Flow</text><text font-family="Calibri,Calibri_MSFontService,sans-serif" font-weight="700" font-size="14.6614" transform="matrix(1 0 0 0.999105 49.0219 297)">-</text><text font-family="Calibri,Calibri_MSFontService,sans-serif" font-weight="700" font-size="14.6614" transform="matrix(1 0 0 0.999105 53.5243 297)">based</text><text font-family="Calibri,Calibri_MSFontService,sans-serif" font-weight="700" font-size="14.6614" transform="matrix(1 0 0 0.999105 50.8562 314)">model</text><text font-family="Calibri,Calibri_MSFontService,sans-serif" font-weight="700" font-size="14.6614" transform="matrix(1 0 0 0.999105 35.6814 400)">diffusion</text><text font-family="Calibri,Calibri_MSFontService,sans-serif" font-weight="700" font-size="14.6614" transform="matrix(1 0 0 0.999105 50.8562 417)">model</text></g></svg>