<svg width="397" height="359" xmlns="http://www.w3.org/2000/svg" xmlns:xlink="http://www.w3.org/1999/xlink" overflow="hidden"><defs><clipPath id="clip0"><rect x="0" y="0" width="397" height="359"/></clipPath></defs><g clip-path="url(#clip0)"><rect x="0" y="0" width="397" height="358.849" fill="#FFFFFF"/><path d="M31 314.868 89.1839 314.868 119.257 162.932 301 162.932" stroke="#FF0000" stroke-width="4.00168" stroke-miterlimit="8" fill="none" fill-rule="evenodd"/><path d="M30.9996 314.868 30.9996 130.925 33.0004 130.925 33.0004 314.868ZM26.4672 138.422 32 128.941 37.5328 138.422C37.8112 138.899 37.65 139.511 37.1727 139.79 36.6955 140.068 36.0829 139.907 35.8045 139.43L31.1359 131.43 32.8641 131.43 28.1955 139.43C27.9171 139.907 27.3045 140.068 26.8273 139.79 26.35 139.511 26.1888 138.899 26.4672 138.422Z" fill="#172C51"/><path d="M34 314.868 245.852 314.868 280.614 162.932 318 162.932" stroke="#00B050" stroke-width="4.00168" stroke-miterlimit="8" fill="none" fill-rule="evenodd"/><path d="M32.5 314.701 312.178 314.701 312.178 316.034 32.5 316.034ZM304.512 310.125 313.503 315.368 304.512 320.61C304.194 320.796 303.786 320.688 303.6 320.37 303.414 320.052 303.522 319.644 303.84 319.458L311.843 314.792 311.843 315.943 303.84 311.277C303.522 311.091 303.414 310.683 303.6 310.365 303.786 310.047 304.194 309.94 304.512 310.125Z" fill="#172C51"/><path d="M62 235.901C62 179.591 79.4609 133.944 101 133.944 122.539 133.944 140 179.591 140 235.901 140 292.21 122.539 337.858 101 337.858 79.4609 337.858 62 292.21 62 235.901Z" fill="#FF0000" fill-rule="evenodd" fill-opacity="0.101961"/><path d="M148 235.901C148 179.591 165.461 133.944 187 133.944 208.539 133.944 226 179.591 226 235.901 226 292.21 208.539 337.858 187 337.858 165.461 337.858 148 292.21 148 235.901Z" fill="#7F6000" fill-rule="evenodd" fill-opacity="0.101961"/><path d="M234 235.901C234 179.591 251.461 133.944 273 133.944 294.539 133.944 312 179.591 312 235.901 312 292.21 294.539 337.858 273 337.858 251.461 337.858 234 292.21 234 235.901Z" fill="#00B050" fill-rule="evenodd" fill-opacity="0.101961"/><text font-family="Yu Gothic,Yu Gothic_MSFontService,sans-serif" font-weight="700" font-size="14.6667" transform="matrix(1 0 0 0.99958 163.687 337)">学習回数</text><text font-family="Yu Gothic,Yu Gothic_MSFontService,sans-serif" font-weight="700" font-size="14.6667" transform="matrix(-1.83697e-16 -0.999161 1.00042 -1.8362e-16 21.5019 241)">精度</text><text fill="#FF0000" font-family="Yu Gothic,Yu Gothic_MSFontService,sans-serif" font-weight="700" font-size="14.6667" transform="matrix(1 0 0 0.99958 122.441 183)">学習データに</text><text fill="#FF0000" font-family="Yu Gothic,Yu Gothic_MSFontService,sans-serif" font-weight="700" font-size="14.6667" transform="matrix(1 0 0 0.99958 122.441 200)">対する精度</text><text fill="#00B050" font-family="Yu Gothic,Yu Gothic_MSFontService,sans-serif" font-weight="700" font-size="14.6667" transform="matrix(1 0 0 0.99958 280.828 183)">テストデータに</text><text fill="#00B050" font-family="Yu Gothic,Yu Gothic_MSFontService,sans-serif" font-weight="700" font-size="14.6667" transform="matrix(1 0 0 0.99958 280.828 200)">対する精度</text><text font-family="Calibri,Calibri_MSFontService,sans-serif" font-weight="700" font-size="14.6667" transform="matrix(1 0 0 0.99958 39.8484 113)">Memorization</text><text font-family="Yu Gothic,Yu Gothic_MSFontService,sans-serif" font-weight="700" font-size="14.6667" transform="matrix(1 0 0 0.99958 43.8501 130)">暗記</text><text font-family="Calibri,Calibri_MSFontService,sans-serif" font-weight="700" font-size="14.6667" transform="matrix(1 0 0 0.99958 73.1958 130)">(</text><text font-family="Yu Gothic,Yu Gothic_MSFontService,sans-serif" font-weight="700" font-size="14.6667" transform="matrix(1 0 0 0.99958 77.6977 130)">過学習</text><text font-family="Calibri,Calibri_MSFontService,sans-serif" font-weight="700" font-size="14.6667" transform="matrix(1 0 0 0.99958 121.716 130)">)</text><text font-family="Calibri,Calibri_MSFontService,sans-serif" font-weight="700" font-size="14.6667" transform="matrix(1 0 0 0.99958 152.422 112)">Stagnation</text><text font-family="Yu Gothic,Yu Gothic_MSFontService,sans-serif" font-weight="700" font-size="14.6667" transform="matrix(1 0 0 0.99958 144.165 129)">停滞</text><text font-family="Calibri,Calibri_MSFontService,sans-serif" font-weight="700" font-size="14.6667" transform="matrix(1 0 0 0.99958 173.511 129)">(</text><text font-family="Yu Gothic,Yu Gothic_MSFontService,sans-serif" font-weight="700" font-size="14.6667" transform="matrix(1 0 0 0.99958 178.013 129)">過学習</text><text font-family="Calibri,Calibri_MSFontService,sans-serif" font-weight="700" font-size="14.6667" transform="matrix(1 0 0 0.99958 222.031 129)">)</text><text font-family="Calibri,Calibri_MSFontService,sans-serif" font-weight="700" font-size="14.6667" transform="matrix(1 0 0 0.99958 243.799 114)">Grokking</text><text font-family="Yu Gothic,Yu Gothic_MSFontService,sans-serif" font-weight="700" font-size="14.6667" transform="matrix(1 0 0 0.99958 243.799 131)">洞察</text><text font-family="Calibri,Calibri_MSFontService,sans-serif" font-weight="700" font-size="14.6667" transform="matrix(1 0 0 0.99958 273.145 131)">(</text><text font-family="Yu Gothic,Yu Gothic_MSFontService,sans-serif" font-weight="700" font-size="14.6667" transform="matrix(1 0 0 0.99958 277.647 131)">汎化</text><text font-family="Calibri,Calibri_MSFontService,sans-serif" font-weight="700" font-size="14.6667" transform="matrix(1 0 0 0.99958 306.993 131)">)</text><path d="M34.5 78.4671C34.5 70.7361 37.3701 64.4689 40.9105 64.4689L167.589 64.4689C171.13 64.4689 174 58.2017 174 50.4707 174 58.2017 176.87 64.4689 180.411 64.4689L307.089 64.4689C310.63 64.4689 313.5 70.7361 313.5 78.4671" stroke="#000000" stroke-width="3" stroke-miterlimit="8" fill="none" fill-rule="evenodd"/><text font-family="Yu Gothic,Yu Gothic_MSFontService,sans-serif" font-weight="700" font-size="14.6667" transform="matrix(1 0 0 0.99958 30.73 26)">過学習の後</text><text font-family="Calibri,Calibri_MSFontService,sans-serif" font-weight="700" font-size="14.6667" transform="matrix(1 0 0 0.99958 104.094 26)">,</text><text font-family="Yu Gothic,Yu Gothic_MSFontService,sans-serif" font-weight="700" font-size="14.6667" transform="matrix(1 0 0 0.99958 111.264 26)">遅れて汎化が急激に進む現象</text><text font-family="Yu Gothic,Yu Gothic_MSFontService,sans-serif" font-weight="700" font-size="14.6667" transform="matrix(1 0 0 0.99958 30.73 43)">全体も</text><text font-family="Calibri,Calibri_MSFontService,sans-serif" font-weight="700" font-size="14.6667" transform="matrix(1 0 0 0.99958 74.7484 43)">Grokking</text><text font-family="Yu Gothic,Yu Gothic_MSFontService,sans-serif" font-weight="700" font-size="14.6667" transform="matrix(1 0 0 0.99958 129.605 43)">という</text></g></svg>