<svg width="813" height="567" xmlns="http://www.w3.org/2000/svg" xmlns:xlink="http://www.w3.org/1999/xlink" overflow="hidden"><g><rect x="0" y="0" width="813" height="566.768" fill="#FFFFFF"/><path d="M97.0564 224.408 94.6673 219.459 95.8277 217.122 94.0529 215.954 93.5069 213.548 89.07 213.96 87.5 210.317 90.2304 205.162 89.6161 202.55 91.3908 201.176 89.4113 198.77 91.2543 196.364 92.5512 199.183 94.1212 198.014 94.7355 198.152 97.6024 196.021 95.8959 194.784 95.0086 196.914 93.0973 197.189 92.2099 195.952 94.0529 194.302 95.8277 190.591 100.265 192.721 102.858 189.422C108.774 194.005 112.164 201.336 111.391 210.799 110.094 209.332 108.524 206.972 107.5 206.4 106.476 205.827 104.315 205.838 104.155 206.193L106.544 208.53 103.951 211.142 104.428 212.723 101.903 215.404 101.903 217.947 100.469 220.765 98.3533 223.996 97.0564 224.408Z" stroke="#172C51" stroke-width="1.33388" stroke-miterlimit="8" fill-rule="evenodd"/><path d="M91.5 183.536 89.1364 186.084 88.5107 189.115 88.2326 191.87 85.0348 192.628C83.9341 193.202 83.2273 195.992 81.6283 195.315 80.0294 194.637 82.9376 191.147 82.9492 189.804L81.6979 187.255 82.3931 184.638 80.0294 186.704 78.5 184.224C80.6783 182.824 86.402 181.354 91.5 183.536Z" stroke="#172C51" stroke-width="1.33388" stroke-miterlimit="8" fill-rule="evenodd"/><path d="M80.2349 229.375 77.9331 225.664 76.5114 220.51 72.7878 216.799 72.9232 213.775 68.9966 211.37 66.0854 209.102 66.0854 207.59 63.8513 208.964C61.7751 202.275 69.3125 187.958 75.6989 186.424L77.5946 188.21 80.5734 188.623 81.0473 191.99 80.0995 193.983 78.1362 193.639 78.5424 192.746 78.7455 191.028 76.6468 193.021 74.548 193.914 73.3294 195.151 74.9542 197.419 75.6312 196.732 76.2405 194.464 78.6101 195.082 80.5734 197.419 80.3026 200.58 79.5579 200.993 78.5424 199.412 77.3915 200.924 73.6679 203.81 72.517 207.109 74.0741 209.102 76.5114 209.858 74.7511 210.751 73.0586 209.858 70.8245 206.353 68.7935 206.765 68.5904 209.239 70.7568 209.102 71.9754 211.782 73.7356 211.988 75.902 211.713 79.4225 213.294 81.4535 215.355 84.5001 216.111 83.6876 217.967 84.0938 220.372 82.2659 221.54 82.4013 224.083 80.9119 225.732 82.1982 230.405 80.2349 229.375Z" stroke="#172C51" stroke-width="1.33388" stroke-miterlimit="8" fill-rule="evenodd"/><path d="M62.5 206.915C62.5 193.942 73.469 183.425 87 183.425 100.531 183.425 111.5 193.942 111.5 206.915 111.5 219.888 100.531 230.405 87 230.405 73.469 230.405 62.5 219.888 62.5 206.915Z" stroke="#172C51" stroke-width="1.33388" stroke-miterlimit="8" fill="none" fill-rule="evenodd"/><path d="M101.5 221.409 101.822 219.944C102.479 219.293 105.083 216.92 105.445 217.502 105.807 218.083 104.277 219.455 103.996 220.083L103.754 221.27 101.5 221.409Z" stroke="#172C51" stroke-width="1.33388" stroke-miterlimit="8" fill-rule="evenodd"/><text font-family="Yu Gothic,Yu Gothic_MSFontService,sans-serif" font-weight="700" font-size="13.3333" transform="matrix(1 0 0 0.99959 78.2121 251)">環境</text><path d="M50.5 141.942C50.5 139.458 52.5147 137.444 55.0001 137.444L117 137.444C119.485 137.444 121.5 139.458 121.5 141.942L121.5 159.934C121.5 162.419 119.485 164.433 117 164.433L55.0001 164.433C52.5147 164.433 50.5 162.419 50.5 159.934Z" stroke="#172C51" stroke-width="1.33388" stroke-miterlimit="8" fill="#FFCCFF" fill-rule="evenodd"/><text font-family="Yu Gothic,Yu Gothic_MSFontService,sans-serif" font-weight="700" font-size="12" transform="matrix(1 0 0 0.99959 67.5636 154)">熟練者</text><path d="M57.5 208.082 30.833 208.082 30.833 149.772 41.8488 149.772 41.8488 151.105 31.4999 151.105 32.1669 150.438 32.1669 207.415 31.4999 206.748 57.5 206.748ZM40.5149 146.438 48.5182 150.438 40.5149 154.438Z" fill="#172C51"/><path d="M19.3226 57.6433-0.666667 57.6433-0.666667-0.666667 17.0112-0.666667 17.0112 0.666667 0 0.666667 0.666667 0 0.666667 56.9766 0 56.3099 19.3226 56.3099ZM17.9893 52.9766 25.9893 56.9766 17.9893 60.9766Z" fill="#172C51" transform="matrix(-1.00041 0 0 1 142.5 149.439)"/><rect x="119" y="166.932" width="47.0001" height="25.9893" fill="#FFFFFF"/><text font-family="Yu Gothic,Yu Gothic_MSFontService,sans-serif" font-weight="700" font-size="13.3333" transform="matrix(1 0 0 0.99959 128.986 183)">行動</text><rect x="9.00002" y="166.932" width="46" height="25.9893" fill="#FFFFFF"/><text font-family="Yu Gothic,Yu Gothic_MSFontService,sans-serif" font-weight="700" font-size="13.3333" transform="matrix(1 0 0 0.99959 18.674 183)">状態</text><path d="M304.5 103.624C304.5 100.22 315.021 97.4601 328 97.4601 340.979 97.4601 351.5 100.22 351.5 103.624L351.5 128.281C351.5 131.685 340.979 134.445 328 134.445 315.021 134.445 304.5 131.685 304.5 128.281Z" fill="#FFF2CC" fill-rule="evenodd"/><path d="M351.5 103.624C351.5 107.029 340.979 109.788 328 109.788 315.021 109.788 304.5 107.029 304.5 103.624" stroke="#172C51" stroke-width="1.33388" stroke-miterlimit="8" fill="none" fill-rule="evenodd"/><path d="M304.5 103.624C304.5 100.22 315.021 97.4601 328 97.4601 340.979 97.4601 351.5 100.22 351.5 103.624L351.5 128.281C351.5 131.685 340.979 134.445 328 134.445 315.021 134.445 304.5 131.685 304.5 128.281Z" stroke="#172C51" stroke-width="1.33388" stroke-miterlimit="8" fill="none" fill-rule="evenodd"/><text font-family="Calibri,Calibri_MSFontService,sans-serif" font-weight="700" font-size="13.3333" transform="matrix(1 0 0 0.99959 306.928 123)">dataset</text><path d="M14 129.393C14 122.522 19.5723 116.952 26.4461 116.952L148.554 116.952C155.428 116.952 161 122.522 161 129.393L161 245.453C161 252.324 155.428 257.894 148.554 257.894L26.4461 257.894C19.5723 257.894 14 252.324 14 245.453Z" stroke="#BFBFBF" stroke-width="2.00082" stroke-miterlimit="8" fill="none" fill-rule="evenodd"/><path d="M393.5 75.4691 421.5 75.4691 421.5 100.77 410.812 111.454 393.5 111.454Z" fill="#FFF2CC" fill-rule="evenodd"/><path d="M410.812 111.454 412.949 102.907 421.5 100.77Z" fill="#CDC3A4" fill-rule="evenodd"/><path d="M410.812 111.454 412.949 102.907 421.5 100.77 410.812 111.454 393.5 111.454 393.5 75.4691 421.5 75.4691 421.5 100.77" stroke="#172C51" stroke-width="1.33388" stroke-miterlimit="8" fill="none" fill-rule="evenodd"/><text font-family="Yu Gothic,Yu Gothic_MSFontService,sans-serif" font-weight="700" font-size="12" transform="matrix(1 0 0 0.99959 394.945 92)">状態</text><path d="M393.5 119.451 421.5 119.451 421.5 151.749 410.812 162.433 393.5 162.433Z" fill="#FFF2CC" fill-rule="evenodd"/><path d="M410.812 162.433 412.949 153.886 421.5 151.749Z" fill="#CDC3A4" fill-rule="evenodd"/><path d="M410.812 162.433 412.949 153.886 421.5 151.749 410.812 162.433 393.5 162.433 393.5 119.451 421.5 119.451 421.5 151.749" stroke="#172C51" stroke-width="1.33388" stroke-miterlimit="8" fill="none" fill-rule="evenodd"/><text font-family="Yu Gothic,Yu Gothic_MSFontService,sans-serif" font-weight="700" font-size="12" transform="matrix(1 0 0 0.99959 394.945 132)">正解</text><text font-family="Yu Gothic,Yu Gothic_MSFontService,sans-serif" font-weight="700" font-size="12" transform="matrix(1 0 0 0.99959 394.945 146)">行動</text><path d="M351.5 115.786 373.143 115.786 373.143 141.589 372.476 140.922 386.783 140.922 386.783 142.255 371.809 142.255 371.809 116.452 372.476 117.119 351.5 117.119ZM385.449 137.589 393.452 141.589 385.449 145.589Z"/><path d="M0-0.666667 21.6342-0.666667 21.6342 22.4026 20.9675 21.736 35.2683 21.736 35.2683 23.0693 20.3008 23.0693 20.3008 0 20.9675 0.666667 0 0.666667ZM33.935 18.4026 41.935 22.4026 33.935 26.4026Z" transform="matrix(1.00041 0 0 -1 351.5 115.864)"/><path d="M448.5 82.1331C448.5 79.0047 451.037 76.4687 454.167 76.4687L514.833 76.4687C517.963 76.4687 520.5 79.0047 520.5 82.1331L520.5 104.79C520.5 107.919 517.963 110.455 514.833 110.455L454.167 110.455C451.037 110.455 448.5 107.919 448.5 104.79Z" stroke="#172C51" stroke-width="1.33388" stroke-miterlimit="8" fill="#DEEBF7" fill-rule="evenodd"/><text font-family="Yu Gothic,Yu Gothic_MSFontService,sans-serif" font-weight="700" font-size="12" transform="matrix(1 0 0 0.99959 447.797 89)">エージェント</text><text font-family="Calibri,Calibri_MSFontService,sans-serif" font-weight="700" font-size="12" transform="matrix(1 0 0 0.99959 465.385 104)">(Policy)</text><path d="M543.5 75.4691 572.5 75.4691 572.5 100.389 561.43 111.454 543.5 111.454Z" fill="#DEEBF7" fill-rule="evenodd"/><path d="M561.43 111.454 563.644 102.602 572.5 100.389Z" fill="#B2BDC7" fill-rule="evenodd"/><path d="M561.43 111.454 563.644 102.602 572.5 100.389 561.43 111.454 543.5 111.454 543.5 75.4691 572.5 75.4691 572.5 100.389" stroke="#172C51" stroke-width="1.33388" stroke-miterlimit="8" fill="none" fill-rule="evenodd"/><text font-family="Yu Gothic,Yu Gothic_MSFontService,sans-serif" font-weight="700" font-size="13.3333" transform="matrix(1 0 0 0.99959 544.132 91)">行動</text><rect x="619.5" y="104.457" width="42" height="26.989" stroke="#172C51" stroke-width="1.33388" stroke-miterlimit="8" fill="#FFF2CC"/><text font-family="Calibri,Calibri_MSFontService,sans-serif" font-weight="700" font-size="14.6667" transform="matrix(1 0 0 0.99959 626.85 122)">Loss</text><path d="M0.00800737-0.666619 20.2967-0.422913 20.2807 0.910324-0.00800737 0.666619ZM19.0035-3.77202 26.9549 0.32378 18.9074 4.2274Z" transform="matrix(1.00041 0 0 -1 421.5 93.7854)"/><path d="M2.94672e-06-0.666667 17.0856-0.666591 17.0856 0.666742-2.94672e-06 0.666667ZM15.7522-3.99993 23.7522 0.000104987 15.7522 4.00007Z" transform="matrix(1.00041 0 0 -1 520.5 93.4617)"/><path d="M572.5 92.795 596.749 92.795 596.749 117.972 596.082 117.305 612.995 117.305 612.995 118.638 595.415 118.638 595.415 93.4616 596.082 94.1283 572.5 94.1283ZM611.661 113.972 619.664 117.972 611.661 121.972Z"/><path d="M0-0.666667 174.924-0.666667 174.924 23.3531 174.257 22.6864 190.938 22.6864 190.938 24.0197 173.591 24.0197 173.591 0 174.257 0.666667 0 0.666667ZM189.604 19.3531 197.604 23.3531 189.604 27.3531Z" transform="matrix(1.00041 0 0 -1 421.5 140.805)"/><path d="M448.5 74.4695C448.5 69.2249 450.588 64.9734 453.164 64.9734L479.836 64.9734C482.412 64.9734 484.5 60.7218 484.5 55.4773 484.5 60.7218 486.588 64.9734 489.164 64.9734L515.836 64.9734C518.412 64.9734 520.5 69.2249 520.5 74.4695" stroke="#000000" stroke-width="1.33333" stroke-miterlimit="8" fill="none" fill-rule="evenodd"/><path d="M0-0.666667 65.5671-0.666667 65.5671 156.479 55.6866 156.479 55.6866 155.146 64.9004 155.146 64.2337 155.812 64.2337 0 64.9004 0.666667 0 0.666667ZM57.0199 159.812 49.0199 155.812 57.0199 151.812Z" transform="matrix(-1.83772e-16 -1 -1.00041 1.83697e-16 640.376 104.497)"/><path d="M201 32.2272C201 24.9177 206.928 18.9922 214.24 18.9922L667.76 18.9922C675.072 18.9922 681 24.9177 681 32.2272L681 155.696C681 163.005 675.072 168.931 667.76 168.931L214.24 168.931C206.928 168.931 201 163.005 201 155.696Z" stroke="#BFBFBF" stroke-width="2.00082" stroke-miterlimit="8" fill="none" fill-rule="evenodd"/><rect x="232" y="3.99832" width="145" height="41.9828" fill="#FFFFFF"/><text font-family="Calibri,Calibri_MSFontService,sans-serif" font-weight="700" font-size="13.3333" transform="matrix(1 0 0 0.99959 241.232 21)">BC:</text><text font-family="Calibri,Calibri_MSFontService,sans-serif" font-weight="700" font-size="13.3333" transform="matrix(1 0 0 0.99959 262.408 21)">Behavioral</text><text font-family="Calibri,Calibri_MSFontService,sans-serif" font-weight="700" font-size="13.3333" transform="matrix(1 0 0 0.99959 324.6 21)">Cloning</text><text font-family="Calibri,Calibri_MSFontService,sans-serif" font-weight="700" font-size="13.3333" transform="matrix(1 0 0 0.99959 241.232 37)">(</text><text font-family="Yu Gothic,Yu Gothic_MSFontService,sans-serif" font-weight="700" font-size="13.3333" transform="matrix(1 0 0 0.99959 245.401 37)">行動クローニング</text><text font-family="Calibri,Calibri_MSFontService,sans-serif" font-weight="700" font-size="13.3333" transform="matrix(1 0 0 0.99959 352.111 37)">)</text><path d="M229.5 494.297C229.5 490.985 240.021 488.3 253 488.3 265.979 488.3 276.5 490.985 276.5 494.297L276.5 518.287C276.5 521.6 265.979 524.285 253 524.285 240.021 524.285 229.5 521.6 229.5 518.287Z" fill="#FFF2CC" fill-rule="evenodd"/><path d="M276.5 494.297C276.5 497.61 265.979 500.295 253 500.295 240.021 500.295 229.5 497.61 229.5 494.297" stroke="#172C51" stroke-width="1.33388" stroke-miterlimit="8" fill="none" fill-rule="evenodd"/><path d="M229.5 494.297C229.5 490.985 240.021 488.3 253 488.3 265.979 488.3 276.5 490.985 276.5 494.297L276.5 518.287C276.5 521.6 265.979 524.285 253 524.285 240.021 524.285 229.5 521.6 229.5 518.287Z" stroke="#172C51" stroke-width="1.33388" stroke-miterlimit="8" fill="none" fill-rule="evenodd"/><text font-family="Calibri,Calibri_MSFontService,sans-serif" font-weight="700" font-size="13.3333" transform="matrix(1 0 0 0.99959 231.859 513)">dataset</text><path d="M302.5 488.3 330.5 488.3 330.5 513.601 319.812 524.285 302.5 524.285Z" fill="#FFF2CC" fill-rule="evenodd"/><path d="M319.812 524.285 321.949 515.738 330.5 513.601Z" fill="#CDC3A4" fill-rule="evenodd"/><path d="M319.812 524.285 321.949 515.738 330.5 513.601 319.812 524.285 302.5 524.285 302.5 488.3 330.5 488.3 330.5 513.601" stroke="#172C51" stroke-width="1.33388" stroke-miterlimit="8" fill="none" fill-rule="evenodd"/><text font-family="Yu Gothic,Yu Gothic_MSFontService,sans-serif" font-weight="700" font-size="12" transform="matrix(1 0 0 0.99959 303.619 504)">状態</text><path d="M357.5 494.297C357.5 490.985 360.186 488.3 363.5 488.3L422.5 488.3C425.814 488.3 428.5 490.985 428.5 494.297L428.5 518.287C428.5 521.6 425.814 524.285 422.5 524.285L363.5 524.285C360.186 524.285 357.5 521.6 357.5 518.287Z" stroke="#172C51" stroke-width="1.33388" stroke-miterlimit="8" fill="#DEEBF7" fill-rule="evenodd"/><text font-family="Yu Gothic,Yu Gothic_MSFontService,sans-serif" font-weight="700" font-size="12" transform="matrix(1 0 0 0.99959 356.471 502)">エージェント</text><text font-family="Calibri,Calibri_MSFontService,sans-serif" font-weight="700" font-size="12" transform="matrix(1 0 0 0.99959 374.059 517)">(Policy)</text><path d="M452.5 488.3 480.5 488.3 480.5 513.601 469.812 524.285 452.5 524.285Z" fill="#DEEBF7" fill-rule="evenodd"/><path d="M469.812 524.285 471.949 515.738 480.5 513.601Z" fill="#B2BDC7" fill-rule="evenodd"/><path d="M469.812 524.285 471.949 515.738 480.5 513.601 469.812 524.285 452.5 524.285 452.5 488.3 480.5 488.3 480.5 513.601" stroke="#172C51" stroke-width="1.33388" stroke-miterlimit="8" fill="none" fill-rule="evenodd"/><text font-family="Yu Gothic,Yu Gothic_MSFontService,sans-serif" font-weight="700" font-size="13.3333" transform="matrix(1 0 0 0.99959 452.806 504)">行動</text><path d="M330.5 505.626 350.797 505.626 350.797 506.959 330.5 506.959ZM349.463 502.292 357.466 506.292 349.463 510.292Z"/><path d="M428.5 505.626 445.593 505.626 445.593 506.959 428.5 506.959ZM444.259 502.292 452.262 506.292 444.259 510.292Z"/><path d="M276.5 505.626 295.526 505.626 295.526 506.959 276.5 506.959ZM294.192 502.292 302.195 506.292 294.192 510.292Z"/><rect x="330.5" y="416.329" width="40" height="30.9873" stroke="#172C51" stroke-width="1.33388" stroke-miterlimit="8" fill="#EBCDFF"/><text font-family="Yu Gothic,Yu Gothic_MSFontService,sans-serif" font-weight="700" font-size="12" transform="matrix(1 0 0 0.99959 337.682 428)">報酬</text><text font-family="Yu Gothic,Yu Gothic_MSFontService,sans-serif" font-weight="700" font-size="12" transform="matrix(1 0 0 0.99959 337.682 442)">関数</text><path d="M357.5 486.301C357.5 481.056 359.588 476.805 362.164 476.805L388.336 476.805C390.912 476.805 393 472.553 393 467.308 393 472.553 395.088 476.805 397.664 476.805L423.836 476.805C426.412 476.805 428.5 481.056 428.5 486.301" stroke="#000000" stroke-width="1.33333" stroke-miterlimit="8" fill="none" fill-rule="evenodd"/><path d="M315.833 489.299 315.833 442.652 322.831 442.652 322.831 443.985 316.5 443.985 317.167 443.318 317.167 489.299ZM321.497 439.318 329.5 443.318 321.497 447.318Z" fill="#172C51"/><path d="M465.833 488.3 465.833 404.334 466.5 405.001 316.5 405.001 317.167 404.334 317.167 423.743 316.5 423.076 323.972 423.076 323.972 424.41 315.833 424.41 315.833 403.668 467.167 403.668 467.167 488.3ZM322.638 419.743 330.641 423.743 322.638 427.743Z"/><path d="M370.5 431.656 394.167 431.656 394.167 459.642 392.833 459.642 392.833 432.323 393.5 432.989 370.5 432.989ZM397.502 458.309 393.5 466.309 389.498 458.309Z"/><path d="M204 401.164C204 393.806 209.967 387.841 217.329 387.841L475.671 387.841C483.033 387.841 489 393.806 489 401.164L489 525.456C489 532.814 483.033 538.779 475.671 538.779L217.329 538.779C209.967 538.779 204 532.814 204 525.456Z" stroke="#BFBFBF" stroke-width="2.00082" stroke-miterlimit="8" fill="none" fill-rule="evenodd"/><rect x="229" y="375.846" width="239" height="25.9893" fill="#FFFFFF"/><text font-family="Calibri,Calibri_MSFontService,sans-serif" font-weight="700" font-size="13.3333" transform="matrix(1 0 0 0.99959 238.322 392)">RL:</text><text font-family="Calibri,Calibri_MSFontService,sans-serif" font-weight="700" font-size="13.3333" transform="matrix(1 0 0 0.99959 258.164 392)">Reinforcement</text><text font-family="Calibri,Calibri_MSFontService,sans-serif" font-weight="700" font-size="13.3333" transform="matrix(1 0 0 0.99959 343.365 392)">Learning</text><text font-family="Calibri,Calibri_MSFontService,sans-serif" font-weight="700" font-size="13.3333" transform="matrix(1 0 0 0.99959 393.886 392)">(</text><text font-family="Yu Gothic,Yu Gothic_MSFontService,sans-serif" font-weight="700" font-size="13.3333" transform="matrix(1 0 0 0.99959 398.054 392)">強化学習</text><text font-family="Calibri,Calibri_MSFontService,sans-serif" font-weight="700" font-size="13.3333" transform="matrix(1 0 0 0.99959 451.41 392)">)</text><path d="M292.5 295.545C292.5 292.141 302.797 289.381 315.5 289.381 328.203 289.381 338.5 292.141 338.5 295.545L338.5 320.202C338.5 323.606 328.203 326.366 315.5 326.366 302.797 326.366 292.5 323.606 292.5 320.202Z" fill="#FFF2CC" fill-rule="evenodd"/><path d="M338.5 295.545C338.5 298.95 328.203 301.71 315.5 301.71 302.797 301.71 292.5 298.95 292.5 295.545" stroke="#172C51" stroke-width="1.33388" stroke-miterlimit="8" fill="none" fill-rule="evenodd"/><path d="M292.5 295.545C292.5 292.141 302.797 289.381 315.5 289.381 328.203 289.381 338.5 292.141 338.5 295.545L338.5 320.202C338.5 323.606 328.203 326.366 315.5 326.366 302.797 326.366 292.5 323.606 292.5 320.202Z" stroke="#172C51" stroke-width="1.33388" stroke-miterlimit="8" fill="none" fill-rule="evenodd"/><text font-family="Calibri,Calibri_MSFontService,sans-serif" font-weight="700" font-size="13.3333" transform="matrix(1 0 0 0.99959 294.332 314)">dataset</text><path d="M380.5 267.39 408.5 267.39 408.5 292.692 397.812 303.376 380.5 303.376Z" fill="#FFF2CC" fill-rule="evenodd"/><path d="M397.812 303.376 399.949 294.828 408.5 292.692Z" fill="#CDC3A4" fill-rule="evenodd"/><path d="M397.812 303.376 399.949 294.828 408.5 292.692 397.812 303.376 380.5 303.376 380.5 267.39 408.5 267.39 408.5 292.692" stroke="#172C51" stroke-width="1.33388" stroke-miterlimit="8" fill="none" fill-rule="evenodd"/><text font-family="Yu Gothic,Yu Gothic_MSFontService,sans-serif" font-weight="700" font-size="12" transform="matrix(1 0 0 0.99959 382.349 283)">状態</text><path d="M380.5 311.372 408.5 311.372 408.5 343.671 397.812 354.355 380.5 354.355Z" fill="#FFF2CC" fill-rule="evenodd"/><path d="M397.812 354.355 399.949 345.807 408.5 343.671Z" fill="#CDC3A4" fill-rule="evenodd"/><path d="M397.812 354.355 399.949 345.807 408.5 343.671 397.812 354.355 380.5 354.355 380.5 311.372 408.5 311.372 408.5 343.671" stroke="#172C51" stroke-width="1.33388" stroke-miterlimit="8" fill="none" fill-rule="evenodd"/><text font-family="Yu Gothic,Yu Gothic_MSFontService,sans-serif" font-weight="700" font-size="12" transform="matrix(1 0 0 0.99959 382.349 324)">正解</text><text font-family="Yu Gothic,Yu Gothic_MSFontService,sans-serif" font-weight="700" font-size="12" transform="matrix(1 0 0 0.99959 382.349 338)">行動</text><path d="M338.5 306.707 360.143 306.707 360.143 332.51 359.476 331.844 373.783 331.844 373.783 333.177 358.809 333.177 358.809 307.374 359.476 308.041 338.5 308.041ZM372.449 328.51 380.452 332.51 372.449 336.51Z"/><path d="M0-0.666667 21.6342-0.666667 21.6342 22.4026 20.9675 21.736 35.2683 21.736 35.2683 23.0693 20.3008 23.0693 20.3008 0 20.9675 0.666667 0 0.666667ZM33.935 18.4026 41.935 22.4026 33.935 26.4026Z" transform="matrix(1.00041 0 0 -1 338.5 307.786)"/><path d="M435.5 273.888C435.5 270.851 437.962 268.39 441 268.39L502 268.39C505.038 268.39 507.5 270.851 507.5 273.888L507.5 295.879C507.5 298.915 505.038 301.376 502 301.376L441 301.376C437.962 301.376 435.5 298.915 435.5 295.879Z" stroke="#172C51" stroke-width="1.33388" stroke-miterlimit="8" fill="#DEEBF7" fill-rule="evenodd"/><text font-family="Yu Gothic,Yu Gothic_MSFontService,sans-serif" font-weight="700" font-size="12" transform="matrix(1 0 0 0.99959 435.202 281)">エージェント</text><text font-family="Calibri,Calibri_MSFontService,sans-serif" font-weight="700" font-size="12" transform="matrix(1 0 0 0.99959 452.789 296)">(Policy)</text><path d="M531.5 267.39 559.5 267.39 559.5 292.692 548.812 303.376 531.5 303.376Z" fill="#DEEBF7" fill-rule="evenodd"/><path d="M548.812 303.376 550.949 294.828 559.5 292.692Z" fill="#B2BDC7" fill-rule="evenodd"/><path d="M548.812 303.376 550.949 294.828 559.5 292.692 548.812 303.376 531.5 303.376 531.5 267.39 559.5 267.39 559.5 292.692" stroke="#172C51" stroke-width="1.33388" stroke-miterlimit="8" fill="none" fill-rule="evenodd"/><text font-family="Yu Gothic,Yu Gothic_MSFontService,sans-serif" font-weight="700" font-size="13.3333" transform="matrix(1 0 0 0.99959 531.536 283)">行動</text><path d="M0.00800734-0.666619 20.2968-0.422912 20.2808 0.910325-0.00800734 0.666619ZM19.0036-3.77202 26.955 0.32378 18.9075 4.2274Z" transform="matrix(1.00041 0 0 -1 408.5 285.707)"/><path d="M507.5 284.716 524.593 284.716 524.593 286.05 507.5 286.05ZM523.259 281.383 531.262 285.383 523.259 289.383Z"/><path d="M645.5 281.884C645.5 279.4 647.515 277.386 650 277.386L713 277.386C715.485 277.386 717.5 279.4 717.5 281.884L717.5 299.877C717.5 302.361 715.485 304.375 713 304.375L650 304.375C647.515 304.375 645.5 302.361 645.5 299.877Z" stroke="#172C51" stroke-width="1.33388" stroke-miterlimit="8" fill="#DEEBF7" fill-rule="evenodd"/><text font-family="Yu Gothic,Yu Gothic_MSFontService,sans-serif" font-weight="700" font-size="14.6667" transform="matrix(1 0 0 0.99959 659.31 295)">識別器</text><path d="M559.505 284.716 581.636 284.877 581.626 286.21 559.495 286.05ZM580.326 281.534 588.3 285.591 580.268 289.533Z"/><path d="M0-0.666667 185.741-0.666667 185.741 10.044 184.408 10.044 184.408 0 185.074 0.666667 0 0.666667ZM189.074 8.71066 185.074 16.7107 181.074 8.71066Z" transform="matrix(1.00041 0 0 -1 408.5 333.081)"/><path d="M588.5 284.883C588.5 281.847 590.962 279.385 594 279.385 597.038 279.385 599.5 281.847 599.5 284.883 599.5 287.919 597.038 290.381 594 290.381 590.962 290.381 588.5 287.919 588.5 284.883Z" stroke="#172C51" stroke-width="1.33388" stroke-miterlimit="8" fill="none" fill-rule="evenodd"/><path d="M588.5 310.872C588.5 307.836 590.962 305.375 594 305.375 597.038 305.375 599.5 307.836 599.5 310.872 599.5 313.909 597.038 316.37 594 316.37 590.962 316.37 588.5 313.909 588.5 310.872Z" stroke="#172C51" stroke-width="1.33388" stroke-miterlimit="8" fill="none" fill-rule="evenodd"/><path d="M609.5 297.878C609.5 294.841 611.962 292.38 615 292.38 618.038 292.38 620.5 294.841 620.5 297.878 620.5 300.914 618.038 303.376 615 303.376 611.962 303.376 609.5 300.914 609.5 297.878Z" stroke="#172C51" stroke-width="1.33388" stroke-miterlimit="8" fill="none" fill-rule="evenodd"/><path d="M609.5 296.378 592.5 291.38" stroke="#172C51" stroke-width="1.33388" stroke-miterlimit="8" fill="none" fill-rule="evenodd"/><path d="M16.993 4.9979 0 0" stroke="#172C51" stroke-width="1.33333" stroke-miterlimit="8" stroke-dasharray="5.33333 4" fill="none" fill-rule="evenodd" transform="matrix(1.00041 0 0 -1 593.5 302.376)"/><path d="M743.5 267.39 779.5 267.39 779.5 300.634 765.758 314.371 743.5 314.371Z" fill="#DEEBF7" fill-rule="evenodd"/><path d="M765.758 314.371 768.506 303.382 779.5 300.634Z" fill="#B2BDC7" fill-rule="evenodd"/><path d="M765.758 314.371 768.506 303.382 779.5 300.634 765.758 314.371 743.5 314.371 743.5 267.39 779.5 267.39 779.5 300.634" stroke="#172C51" stroke-width="1.33388" stroke-miterlimit="8" fill="none" fill-rule="evenodd"/><text font-family="Yu Gothic,Yu Gothic_MSFontService,sans-serif" font-weight="700" font-size="12" transform="matrix(1 0 0 0.99959 746.78 280)">予測</text><text font-family="Calibri,Calibri_MSFontService,sans-serif" font-weight="700" font-size="12" transform="matrix(1 0 0 0.99959 770.79 280)">/</text><text font-family="Yu Gothic,Yu Gothic_MSFontService,sans-serif" font-weight="700" font-size="12" transform="matrix(1 0 0 0.99959 749.368 294)">正解</text><path d="M717.506 289.714 737.037 289.9 737.025 291.233 717.494 291.048ZM735.735 286.554 743.7 290.629 735.659 294.553Z"/><path d="M435.5 267.39C435.5 262.146 437.588 257.894 440.164 257.894L466.836 257.894C469.412 257.894 471.5 253.643 471.5 248.398 471.5 253.643 473.588 257.894 476.164 257.894L502.836 257.894C505.412 257.894 507.5 262.146 507.5 267.39" stroke="#000000" stroke-width="1.33333" stroke-miterlimit="8" fill="none" fill-rule="evenodd"/><path d="M647.5 272.388C647.5 267.144 649.588 262.892 652.164 262.892L676.489 262.892C679.065 262.892 681.153 258.641 681.153 253.396 681.153 258.641 683.241 262.892 685.816 262.892L713.836 262.892C716.412 262.892 718.5 267.144 718.5 272.388" stroke="#000000" stroke-width="1.33333" stroke-miterlimit="8" fill="none" fill-rule="evenodd"/><path d="M0-0.666667 85.6318-0.666667 85.6318 24.3206 84.2985 24.3206 84.2985 0 84.9651 0.666667 0 0.666667ZM88.9651 22.9873 84.9651 30.9873 80.9651 22.9873Z" transform="matrix(-1.00041 0 0 1 766.5 220.41)"/><path d="M197 204.099C197 195.717 203.797 188.923 212.182 188.923L783.818 188.923C792.203 188.923 799 195.717 799 204.099L799 345.676C799 354.057 792.203 360.852 783.818 360.852L212.182 360.852C203.797 360.852 197 354.057 197 345.676Z" stroke="#BFBFBF" stroke-width="2.00082" stroke-miterlimit="8" fill="none" fill-rule="evenodd"/><rect x="234" y="174.928" width="286" height="25.9893" fill="#FFFFFF"/><text font-family="Calibri,Calibri_MSFontService,sans-serif" font-weight="700" font-size="13.3333" transform="matrix(1 0 0 0.99959 243.54 192)">GAIL:</text><text font-family="Calibri,Calibri_MSFontService,sans-serif" font-weight="700" font-size="13.3333" transform="matrix(1 0 0 0.99959 275.887 192)">Generative</text><text font-family="Calibri,Calibri_MSFontService,sans-serif" font-weight="700" font-size="13.3333" transform="matrix(1 0 0 0.99959 340.08 192)">Adversarial</text><text font-family="Calibri,Calibri_MSFontService,sans-serif" font-weight="700" font-size="13.3333" transform="matrix(1 0 0 0.99959 405.607 192)">Imitation</text><text font-family="Calibri,Calibri_MSFontService,sans-serif" font-weight="700" font-size="13.3333" transform="matrix(1 0 0 0.99959 459.796 192)">Learning</text><path d="M193.5 541.278C186.596 541.278 181 538.532 181 535.144L181 286.519C181 283.131 175.403 280.385 168.499 280.385 175.403 280.385 181 277.639 181 274.251L181 25.6257C181 22.2382 186.596 19.492 193.5 19.492" stroke="#000000" stroke-width="1.33388" stroke-miterlimit="8" fill="none" fill-rule="evenodd"/><path d="M501 400.165C501 392.806 506.967 386.841 514.329 386.841L786.671 386.841C794.032 386.841 800 392.806 800 400.165L800 524.456C800 531.814 794.032 537.779 786.671 537.779L514.329 537.779C506.967 537.779 501 531.814 501 524.456Z" stroke="#BFBFBF" stroke-width="2.00082" stroke-miterlimit="8" fill="none" fill-rule="evenodd"/><rect x="532" y="366.85" width="220" height="41.9828" fill="#FFFFFF"/><text font-family="Calibri,Calibri_MSFontService,sans-serif" font-weight="700" font-size="13.3333" transform="matrix(1 0 0 0.99959 541.323 384)">IRL:</text><text font-family="Calibri,Calibri_MSFontService,sans-serif" font-weight="700" font-size="13.3333" transform="matrix(1 0 0 0.99959 564.666 384)">Inverse</text><text font-family="Calibri,Calibri_MSFontService,sans-serif" font-weight="700" font-size="13.3333" transform="matrix(1 0 0 0.99959 608.017 384)">Reinforcement</text><text font-family="Calibri,Calibri_MSFontService,sans-serif" font-weight="700" font-size="13.3333" transform="matrix(1 0 0 0.99959 693.219 384)">Learning</text><text font-family="Calibri,Calibri_MSFontService,sans-serif" font-weight="700" font-size="13.3333" transform="matrix(1 0 0 0.99959 541.323 400)">(</text><text font-family="Yu Gothic,Yu Gothic_MSFontService,sans-serif" font-weight="700" font-size="13.3333" transform="matrix(1 0 0 0.99959 545.492 400)">逆強化学習</text><text font-family="Calibri,Calibri_MSFontService,sans-serif" font-weight="700" font-size="13.3333" transform="matrix(1 0 0 0.99959 612.186 400)">)</text><text fill="#FF0000" font-family="Yu Gothic,Yu Gothic_MSFontService,sans-serif" font-weight="700" font-size="13.3333" transform="matrix(1 0 0 0.99959 492.627 57)">学習</text><text fill="#FF0000" font-family="Yu Gothic,Yu Gothic_MSFontService,sans-serif" font-weight="700" font-size="13.3333" transform="matrix(1 0 0 0.99959 477.624 255)">学習</text><text fill="#FF0000" font-family="Yu Gothic,Yu Gothic_MSFontService,sans-serif" font-weight="700" font-size="13.3333" transform="matrix(1 0 0 0.99959 686.864 255)">学習</text><text fill="#FF0000" font-family="Yu Gothic,Yu Gothic_MSFontService,sans-serif" font-weight="700" font-size="13.3333" transform="matrix(1 0 0 0.99959 398.212 468)">学習</text><path d="M97.0564 407.333 94.6673 402.384 95.8277 400.047 94.0529 398.879 93.5069 396.473 89.07 396.885 87.5 393.242 90.2304 388.087 89.6161 385.475 91.3908 384.101 89.4113 381.695 91.2543 379.289 92.5512 382.108 94.1212 380.939 94.7355 381.077 97.6024 378.946 95.8959 377.709 95.0086 379.839 93.0973 380.114 92.2099 378.877 94.0529 377.227 95.8277 373.516 100.265 375.647 102.858 372.347C108.774 376.93 112.164 384.261 111.391 393.724 110.094 392.257 108.524 389.897 107.5 389.325 106.476 388.752 104.315 388.763 104.155 389.118L106.544 391.455 103.951 394.067 104.428 395.648 101.903 398.329 101.903 400.872 100.469 403.69 98.3533 406.921 97.0564 407.333Z" stroke="#172C51" stroke-width="1.33388" stroke-miterlimit="8" fill-rule="evenodd"/><path d="M91.5 367.46 89.1364 370.009 88.5107 373.04 88.2326 375.795 85.0348 376.553C83.9341 377.127 83.2273 379.916 81.6283 379.239 80.0294 378.562 82.9376 375.072 82.9492 373.728L81.6979 371.18 82.3931 368.562 80.0294 370.629 78.5 368.149C80.6783 366.748 86.402 365.279 91.5 367.46Z" stroke="#172C51" stroke-width="1.33388" stroke-miterlimit="8" fill-rule="evenodd"/><path d="M80.2349 413.299 77.9331 409.588 76.5114 404.434 72.7878 400.723 72.9232 397.699 68.9966 395.294 66.0854 393.026 66.0854 391.514 63.8513 392.889C61.7751 386.2 69.3125 371.883 75.6989 370.348L77.5946 372.135 80.5734 372.547 81.0473 375.915 80.0995 377.908 78.1362 377.564 78.5424 376.671 78.7455 374.953 76.6468 376.945 74.548 377.839 73.3294 379.076 74.9542 381.344 75.6312 380.656 76.2405 378.389 78.6101 379.007 80.5734 381.344 80.3026 384.505 79.5579 384.917 78.5424 383.337 77.3915 384.848 73.6679 387.735 72.517 391.033 74.0741 393.026 76.5114 393.782 74.7511 394.676 73.0586 393.782 70.8245 390.277 68.7935 390.69 68.5904 393.164 70.7568 393.026 71.9754 395.706 73.7356 395.913 75.902 395.638 79.4225 397.218 81.4535 399.28 84.5001 400.036 83.6876 401.891 84.0938 404.297 82.2659 405.465 82.4013 408.008 80.9119 409.657 82.1982 414.33 80.2349 413.299Z" stroke="#172C51" stroke-width="1.33388" stroke-miterlimit="8" fill-rule="evenodd"/><path d="M62.5 390.34C62.5 377.09 73.469 366.35 87 366.35 100.531 366.35 111.5 377.09 111.5 390.34 111.5 403.589 100.531 414.33 87 414.33 73.469 414.33 62.5 403.589 62.5 390.34Z" stroke="#172C51" stroke-width="1.33388" stroke-miterlimit="8" fill="none" fill-rule="evenodd"/><path d="M101.5 404.334 101.822 402.869C102.479 402.218 105.083 399.845 105.445 400.427 105.807 401.008 104.277 402.38 103.996 403.008L103.754 404.195 101.5 404.334Z" stroke="#172C51" stroke-width="1.33388" stroke-miterlimit="8" fill-rule="evenodd"/><text font-family="Yu Gothic,Yu Gothic_MSFontService,sans-serif" font-weight="700" font-size="13.3333" transform="matrix(1 0 0 0.99959 78.2121 434)">環境</text><path d="M50.5 315.704C50.5 312.208 53.3356 309.373 56.8334 309.373L115.167 309.373C118.664 309.373 121.5 312.208 121.5 315.704L121.5 341.027C121.5 344.523 118.664 347.357 115.167 347.357L56.8334 347.357C53.3356 347.357 50.5 344.523 50.5 341.027Z" stroke="#172C51" stroke-width="1.33388" stroke-miterlimit="8" fill="#DEEBF7" fill-rule="evenodd"/><text font-family="Yu Gothic,Yu Gothic_MSFontService,sans-serif" font-weight="700" font-size="12" transform="matrix(1 0 0 0.99959 49.5563 325)">エージェント</text><text font-family="Calibri,Calibri_MSFontService,sans-serif" font-weight="700" font-size="12" transform="matrix(1 0 0 0.99959 67.1435 340)">(Policy)</text><path d="M57.5 392.006 30.833 392.006 30.833 333.696 41.8488 333.696 41.8488 335.029 31.4999 335.029 32.1669 334.363 32.1669 391.34 31.4999 390.673 57.5 390.673ZM40.5149 330.363 48.5182 334.363 40.5149 338.363Z" fill="#172C51"/><path d="M19.3226 56.6437-0.666667 56.6437-0.666667-0.666667 17.0112-0.666667 17.0112 0.666667 0 0.666667 0.666667 0 0.666667 55.977 0 55.3103 19.3226 55.3103ZM17.9893 51.977 25.9893 55.977 17.9893 59.977Z" fill="#172C51" transform="matrix(-1.00041 0 0 1 142.5 333.363)"/><rect x="119" y="349.856" width="47.0001" height="25.9894" fill="#FFFFFF"/><text font-family="Yu Gothic,Yu Gothic_MSFontService,sans-serif" font-weight="700" font-size="13.3333" transform="matrix(1 0 0 0.99959 128.986 367)">行動</text><rect x="9.00002" y="349.856" width="46" height="25.9894" fill="#FFFFFF"/><text font-family="Yu Gothic,Yu Gothic_MSFontService,sans-serif" font-weight="700" font-size="13.3333" transform="matrix(1 0 0 0.99959 18.674 367)">状態</text><path d="M14 313.406C14 306.486 19.6118 300.877 26.5344 300.877L148.466 300.877C155.388 300.877 161 306.486 161 313.406L161 430.289C161 437.209 155.388 442.818 148.466 442.818L26.5344 442.818C19.6118 442.818 14 437.209 14 430.289Z" stroke="#BFBFBF" stroke-width="2.00082" stroke-miterlimit="8" fill="none" fill-rule="evenodd"/><path d="M76 281.385 82.25 281.385 82.25 263.892 94.75 263.892 94.75 281.385 101 281.385 88.5 293.879Z" stroke="#BFBFBF" stroke-width="2.00082" stroke-miterlimit="8" fill="#FFFFFF" fill-rule="evenodd"/><text fill="#FF0000" font-family="Yu Gothic,Yu Gothic_MSFontService,sans-serif" font-weight="700" font-size="13.3333" transform="matrix(1 0 0 0.99959 104.826 282)">学習</text><rect x="51" y="103.957" width="81" height="25.9893" fill="#FFFFFF"/><text font-family="Calibri,Calibri_MSFontService,sans-serif" font-weight="700" font-size="13.3333" transform="matrix(1 0 0 0.99959 60.5603 121)">(</text><text font-family="Yu Gothic,Yu Gothic_MSFontService,sans-serif" font-weight="700" font-size="13.3333" transform="matrix(1 0 0 0.99959 64.7286 121)">模倣学習</text><text font-family="Calibri,Calibri_MSFontService,sans-serif" font-weight="700" font-size="13.3333" transform="matrix(1 0 0 0.99959 118.084 121)">)</text><text font-family="Calibri,Calibri_MSFontService,sans-serif" font-weight="700" font-size="13.3333" transform="matrix(1 0 0 0.99959 33.0008 103)">IL:</text><text font-family="Calibri,Calibri_MSFontService,sans-serif" font-weight="700" font-size="13.3333" transform="matrix(1 0 0 0.99959 48.8407 103)">Imitation</text><text font-family="Calibri,Calibri_MSFontService,sans-serif" font-weight="700" font-size="13.3333" transform="matrix(1 0 0 0.99959 103.03 103)">Learning</text><path d="M696.5 55.8105C696.5 53.9702 697.992 52.4784 699.833 52.4784L713.167 52.4784C715.008 52.4784 716.5 53.9702 716.5 55.8105L716.5 69.1382C716.5 70.9784 715.008 72.4702 713.167 72.4702L699.833 72.4702C697.992 72.4702 696.5 70.9784 696.5 69.1382Z" stroke="#172C51" stroke-width="1.33388" stroke-miterlimit="8" fill="#FFF2CC" fill-rule="evenodd"/><text font-family="Yu Gothic,Yu Gothic_MSFontService,sans-serif" font-weight="700" font-size="13.3333" transform="matrix(1 0 0 0.99959 721.082 67)">学習環境</text><path d="M696.5 82.7994C696.5 80.9592 697.992 79.4674 699.833 79.4674L713.167 79.4674C715.008 79.4674 716.5 80.9592 716.5 82.7994L716.5 97.1268C716.5 98.967 715.008 100.459 713.167 100.459L699.833 100.459C697.992 100.459 696.5 98.967 696.5 97.1268Z" stroke="#172C51" stroke-width="1.33388" stroke-miterlimit="8" fill="#DEEBF7" fill-rule="evenodd"/><text font-family="Calibri,Calibri_MSFontService,sans-serif" font-weight="700" font-size="13.3333" transform="matrix(1 0 0 0.99959 721.455 94)">Policy</text><text font-family="Yu Gothic,Yu Gothic_MSFontService,sans-serif" font-weight="700" font-size="13.3333" transform="matrix(1 0 0 0.99959 754.302 94)">関連</text><path d="M225.5 104.957C225.5 102.473 227.515 100.459 230 100.459L277 100.459C279.485 100.459 281.5 102.473 281.5 104.957L281.5 122.95C281.5 125.434 279.485 127.448 277 127.448L230 127.448C227.515 127.448 225.5 125.434 225.5 122.95Z" stroke="#172C51" stroke-width="1.00041" stroke-miterlimit="8" stroke-dasharray="4.00164 3.00123" fill="#FFCCFF" fill-rule="evenodd"/><text font-family="Yu Gothic,Yu Gothic_MSFontService,sans-serif" font-weight="700" font-size="12" transform="matrix(1 0 0 0.99959 234.841 117)">熟練者</text><path d="M0-0.5 4-0.5 4 0.5 0 0.5ZM7-0.5 11-0.5 11 0.5 7 0.5ZM14-0.5 18-0.5 18 0.5 14 0.5ZM21-0.5 25-0.5 25 0.5 21 0.5ZM28-0.5 32-0.5 32 0.5 28 0.5ZM35-0.5 39-0.5 39 0.5 35 0.5ZM42-0.5 46-0.5 46 0.5 42 0.5ZM49-0.5 53-0.5 53 0.5 49 0.5ZM56-0.5 60-0.5 60 0.5 56 0.5ZM63-0.5 67-0.5 67 0.5 63 0.5ZM70-0.5 74-0.5 74 0.5 70 0.5ZM77-0.5 81-0.5 81 0.5 77 0.5ZM84-0.5 88-0.5 88 0.5 84 0.5ZM91-0.5 95-0.5 95 0.5 91 0.5ZM98-0.5 102-0.5 102 0.5 98 0.5ZM105-0.5 109-0.5 109 0.5 105 0.5ZM112-0.5 116-0.5 116 0.5 112 0.5ZM119-0.5 123-0.5 123 0.5 119 0.5ZM126-0.5 130-0.5 130 0.5 126 0.5ZM133-0.5 137-0.5 137 0.5 133 0.5ZM138.443 2.05659 138.443 6.05659 137.443 6.05659 137.443 2.05659ZM138.443 9.05659 138.443 13.0566 137.443 13.0566 137.443 9.05659ZM141.943 13.991 137.943 21.991 133.943 13.991Z" transform="matrix(-1.00041 0 0 1 390.5 79.4674)"/><path d="M0-0.5 4-0.5 4 0.5 0 0.5ZM7-0.5 11-0.5 11 0.5 7 0.5ZM14-0.5 18-0.5 18 0.5 14 0.5ZM21-0.5 25-0.5 25 0.5 21 0.5ZM28.4886 0.0114436 28.4886 4.01144 27.4886 4.01144 27.4886 0.0114436ZM28.4886 7.01144 28.4886 11.0114 27.4886 11.0114 27.4886 7.01144ZM28.4886 14.0114 28.4886 18.0114 27.4886 18.0114 27.4886 14.0114ZM28.4886 21.0114 28.4886 25.0114 27.4886 25.0114 27.4886 21.0114ZM28.4886 28.0114 28.4886 32.0114 27.4886 32.0114 27.4886 28.0114ZM28.4886 35.0114 28.4886 39.0114 27.4886 39.0114 27.4886 35.0114ZM28.4886 42.0114 28.4886 46.0114 27.4886 46.0114 27.4886 42.0114ZM28.4886 49.0114 28.4886 53.0114 27.4886 53.0114 27.4886 49.0114ZM28.4886 56.0114 28.4886 60.0114 27.4886 60.0114 27.4886 56.0114ZM28.4886 63.0114 28.4886 67.0114 27.4886 67.0114 27.4886 63.0114ZM28.4886 70.0114 28.4886 74.0114 27.4886 74.0114 27.4886 70.0114ZM28.4886 77.0114 28.4886 81.0114 27.4886 81.0114 27.4886 77.0114ZM28.4886 84.0114 28.4886 88.0114 27.4886 88.0114 27.4886 84.0114ZM28.4886 91.0114 28.4886 95.0114 27.4886 95.0114 27.4886 91.0114ZM28.4886 98.0114 28.4886 102.011 27.4886 102.011 27.4886 98.0114ZM28.4886 105.011 28.4886 109.011 27.4886 109.011 27.4886 105.011ZM28.4886 112.011 28.4886 116.011 27.4886 116.011 27.4886 112.011ZM28.4886 119.011 28.4886 123.011 27.4886 123.011 27.4886 119.011ZM28.4886 126.011 28.4886 130.011 27.4886 130.011 27.4886 126.011ZM31.9886 130.943 27.9886 138.943 23.9886 130.943Z" transform="matrix(1.83772e-16 1 1.00041 -1.83697e-16 254.5 126.448)"/><path d="M217.5 297.045C217.5 294.469 219.589 292.38 222.167 292.38L263.833 292.38C266.411 292.38 268.5 294.469 268.5 297.045L268.5 315.704C268.5 318.28 266.411 320.369 263.833 320.369L222.167 320.369C219.589 320.369 217.5 318.28 217.5 315.704Z" stroke="#172C51" stroke-width="1.00041" stroke-miterlimit="8" stroke-dasharray="4.00164 3.00123" fill="#FFCCFF" fill-rule="evenodd"/><text font-family="Yu Gothic,Yu Gothic_MSFontService,sans-serif" font-weight="700" font-size="12" transform="matrix(1 0 0 0.99959 224.655 310)">熟練者</text><path d="M0-0.5 4-0.5 4 0.5 0 0.5ZM7-0.5 11-0.5 11 0.5 7 0.5ZM14-0.5 18-0.5 18 0.5 14 0.5ZM21-0.5 25-0.5 25 0.5 21 0.5ZM28-0.5 32-0.5 32 0.5 28 0.5ZM35-0.5 39-0.5 39 0.5 35 0.5ZM42-0.5 46-0.5 46 0.5 42 0.5ZM49-0.5 53-0.5 53 0.5 49 0.5ZM56-0.5 60-0.5 60 0.5 56 0.5ZM63-0.5 67-0.5 67 0.5 63 0.5ZM70-0.5 74-0.5 74 0.5 70 0.5ZM77-0.5 81-0.5 81 0.5 77 0.5ZM84-0.5 88-0.5 88 0.5 84 0.5ZM91-0.5 95-0.5 95 0.5 91 0.5ZM98-0.5 102-0.5 102 0.5 98 0.5ZM105-0.5 109-0.5 109 0.5 105 0.5ZM112-0.5 116-0.5 116 0.5 112 0.5ZM119-0.5 123-0.5 123 0.5 119 0.5ZM126-0.5 130-0.5 130 0.5 126 0.5ZM133-0.5 137.444-0.5 137.444 0.056168 136.444 0.056168 136.444 0 136.944 0.5 133 0.5ZM137.444 3.05617 137.444 7.05617 136.444 7.05617 136.444 3.05617ZM137.444 10.0562 137.444 14.0562 136.444 14.0562 136.444 10.0562ZM140.944 12.9914 136.944 20.9914 132.944 12.9914Z" transform="matrix(-1.00041 0 0 1 379.5 272.388)"/><path d="M0-0.5 4-0.5 4 0.5 0 0.5ZM7-0.5 11-0.5 11 0.5 7 0.5ZM14-0.5 18-0.5 18 0.5 14 0.5ZM21-0.5 25-0.5 25 0.5 21 0.5ZM28.4885 0.0115486 28.4885 4.01155 27.4885 4.01155 27.4885 0.0115486ZM28.4885 7.01155 28.4885 11.0115 27.4885 11.0115 27.4885 7.01155ZM28.4885 14.0115 28.4885 18.0115 27.4885 18.0115 27.4885 14.0115ZM28.4885 21.0115 28.4885 25.0115 27.4885 25.0115 27.4885 21.0115ZM28.4885 28.0115 28.4885 32.0115 27.4885 32.0115 27.4885 28.0115ZM28.4885 35.0115 28.4885 39.0115 27.4885 39.0115 27.4885 35.0115ZM28.4885 42.0115 28.4885 46.0115 27.4885 46.0115 27.4885 42.0115ZM28.4885 49.0115 28.4885 53.0115 27.4885 53.0115 27.4885 49.0115ZM28.4885 56.0115 28.4885 60.0115 27.4885 60.0115 27.4885 56.0115ZM28.4885 63.0115 28.4885 67.0115 27.4885 67.0115 27.4885 63.0115ZM28.4885 70.0115 28.4885 74.0115 27.4885 74.0115 27.4885 70.0115ZM28.4885 77.0115 28.4885 81.0115 27.4885 81.0115 27.4885 77.0115ZM28.4885 84.0115 28.4885 88.0115 27.4885 88.0115 27.4885 84.0115ZM28.4885 91.0115 28.4885 95.0115 27.4885 95.0115 27.4885 91.0115ZM28.4885 98.0115 28.4885 102.012 27.4885 102.012 27.4885 98.0115ZM28.4885 105.012 28.4885 109.012 27.4885 109.012 27.4885 105.012ZM28.4885 112.012 28.4885 116.012 27.4885 116.012 27.4885 112.012ZM28.4885 119.012 28.4885 123.012 27.4885 123.012 27.4885 119.012ZM28.4885 126.012 28.4885 130.012 27.4885 130.012 27.4885 126.012ZM31.9885 130.943 27.9885 138.943 23.9885 130.943Z" transform="matrix(1.83772e-16 1 1.00041 -1.83697e-16 244.5 319.369)"/><text font-family="Yu Gothic,Yu Gothic_MSFontService,sans-serif" font-weight="700" font-size="12" transform="matrix(1 0 0 0.99959 222.25 418)">熟練者のスキル</text><text font-family="Yu Gothic,Yu Gothic_MSFontService,sans-serif" font-weight="700" font-size="12" transform="matrix(1 0 0 0.99959 216.414 432)">ではなく</text><text font-family="Calibri,Calibri_MSFontService,sans-serif" font-weight="700" font-size="12" transform="matrix(1 0 0 0.99959 264.434 432)">,</text><text font-family="Yu Gothic,Yu Gothic_MSFontService,sans-serif" font-weight="700" font-size="12" transform="matrix(1 0 0 0.99959 270.27 432)">人間が</text><text font-family="Yu Gothic,Yu Gothic_MSFontService,sans-serif" font-weight="700" font-size="12" transform="matrix(1 0 0 0.99959 210.245 447)">定義した報酬関数</text><text font-family="Yu Gothic,Yu Gothic_MSFontService,sans-serif" font-weight="700" font-size="12" transform="matrix(1 0 0 0.99959 210.245 461)">を使って試行錯誤</text><text font-family="Yu Gothic,Yu Gothic_MSFontService,sans-serif" font-weight="700" font-size="12" transform="matrix(1 0 0 0.99959 210.245 476)">でポリシーを学習</text><path d="M696.5 27.822C696.5 25.9818 697.992 24.49 699.833 24.49L713.167 24.49C715.008 24.49 716.5 25.9818 716.5 27.822L716.5 42.1493C716.5 43.9896 715.008 45.4814 713.167 45.4814L699.833 45.4814C697.992 45.4814 696.5 43.9896 696.5 42.1493Z" stroke="#172C51" stroke-width="1.33388" stroke-miterlimit="8" fill="#FFCCFF" fill-rule="evenodd"/><text font-family="Yu Gothic,Yu Gothic_MSFontService,sans-serif" font-weight="700" font-size="13.3333" transform="matrix(1 0 0 0.99959 721.567 39)">熟練者スキル</text><text font-family="Yu Gothic,Yu Gothic_MSFontService,sans-serif" font-weight="700" font-size="13.3333" transform="matrix(1 0 0 0.99959 266.372 73)">熟練者スキルの再生</text><text font-family="Yu Gothic,Yu Gothic_MSFontService,sans-serif" font-weight="700" font-size="13.3333" transform="matrix(1 0 0 0.99959 255.599 265)">熟練者スキルの再生</text><text font-family="Calibri,Calibri_MSFontService,sans-serif" font-weight="700" font-size="13.3333" transform="matrix(1 0 0 0.99959 240.684 207)">(</text><text font-family="Yu Gothic,Yu Gothic_MSFontService,sans-serif" font-weight="700" font-size="13.3333" transform="matrix(1 0 0 0.99959 244.852 207)">敵対的生成模倣学習</text><text font-family="Calibri,Calibri_MSFontService,sans-serif" font-weight="700" font-size="13.3333" transform="matrix(1 0 0 0.99959 364.901 207)">)</text><path d="M394.833 266.861 394.833 230.738 624.675 230.738 624.675 285.383 624.008 284.716 640.831 284.716 640.831 286.05 623.342 286.05 623.342 231.405 624.008 232.072 395.5 232.072 396.167 231.405 396.167 266.861ZM639.497 281.383 647.5 285.383 639.497 289.383Z" fill="#172C51"/><path d="M470.833 242.805 470.833 201.75 767.167 201.75 767.167 266.391 765.833 266.391 765.833 202.417 766.5 203.084 471.5 203.084 472.167 202.417 472.167 242.805ZM475.502 241.472 471.5 249.472 467.498 241.472Z" fill="#172C51"/><path d="M621.5 296.711 639.831 296.711 639.831 298.045 621.5 298.045ZM638.497 293.378 646.5 297.378 638.497 301.378Z" fill="#172C51"/><path d="M567.5 476.305C567.5 472.992 578.021 470.307 591 470.307 603.979 470.307 614.5 472.992 614.5 476.305L614.5 500.295C614.5 503.607 603.979 506.292 591 506.292 578.021 506.292 567.5 503.607 567.5 500.295Z" fill="#FFF2CC" fill-rule="evenodd"/><path d="M614.5 476.305C614.5 479.617 603.979 482.302 591 482.302 578.021 482.302 567.5 479.617 567.5 476.305" stroke="#172C51" stroke-width="1.33388" stroke-miterlimit="8" fill="none" fill-rule="evenodd"/><path d="M567.5 476.305C567.5 472.992 578.021 470.307 591 470.307 603.979 470.307 614.5 472.992 614.5 476.305L614.5 500.295C614.5 503.607 603.979 506.292 591 506.292 578.021 506.292 567.5 503.607 567.5 500.295Z" stroke="#172C51" stroke-width="1.33388" stroke-miterlimit="8" fill="none" fill-rule="evenodd"/><text font-family="Calibri,Calibri_MSFontService,sans-serif" font-weight="700" font-size="13.3333" transform="matrix(1 0 0 0.99959 569.975 494)">dataset</text><path d="M650.5 447.317 678.5 447.317 678.5 473.617 667.812 484.301 650.5 484.301Z" fill="#FFF2CC" fill-rule="evenodd"/><path d="M667.812 484.301 669.949 475.754 678.5 473.617Z" fill="#CDC3A4" fill-rule="evenodd"/><path d="M667.812 484.301 669.949 475.754 678.5 473.617 667.812 484.301 650.5 484.301 650.5 447.317 678.5 447.317 678.5 473.617" stroke="#172C51" stroke-width="1.33388" stroke-miterlimit="8" fill="none" fill-rule="evenodd"/><text font-family="Yu Gothic,Yu Gothic_MSFontService,sans-serif" font-weight="700" font-size="12" transform="matrix(1 0 0 0.99959 651.589 463)">状態</text><path d="M650.5 492.298 678.5 492.298 678.5 523.597 667.812 534.281 650.5 534.281Z" fill="#FFF2CC" fill-rule="evenodd"/><path d="M667.812 534.281 669.949 525.734 678.5 523.597Z" fill="#CDC3A4" fill-rule="evenodd"/><path d="M667.812 534.281 669.949 525.734 678.5 523.597 667.812 534.281 650.5 534.281 650.5 492.298 678.5 492.298 678.5 523.597" stroke="#172C51" stroke-width="1.33388" stroke-miterlimit="8" fill="none" fill-rule="evenodd"/><text font-family="Yu Gothic,Yu Gothic_MSFontService,sans-serif" font-weight="700" font-size="12" transform="matrix(1 0 0 0.99959 651.589 504)">正解</text><text font-family="Yu Gothic,Yu Gothic_MSFontService,sans-serif" font-weight="700" font-size="12" transform="matrix(1 0 0 0.99959 651.589 518)">行動</text><path d="M614.5 487.633 632.942 487.633 632.942 513.436 632.275 512.77 643.38 512.77 643.38 514.103 631.608 514.103 631.608 488.3 632.275 488.966 614.5 488.966ZM642.046 509.436 650.049 513.436 642.046 517.436Z"/><path d="M0-0.666667 18.4341-0.666667 18.4341 22.4026 17.7674 21.736 28.8681 21.736 28.8681 23.0693 17.1007 23.0693 17.1007 0 17.7674 0.666667 0 0.666667ZM27.5348 18.4026 35.5348 22.4026 27.5348 26.4026Z" transform="matrix(1.00041 0 0 -1 614.5 487.712)"/><path d="M509.5 477.804C509.5 475.32 511.515 473.306 514 473.306L553 473.306C555.485 473.306 557.5 475.32 557.5 477.804L557.5 495.797C557.5 498.281 555.485 500.295 553 500.295L514 500.295C511.515 500.295 509.5 498.281 509.5 495.797Z" stroke="#172C51" stroke-width="1.00041" stroke-miterlimit="8" stroke-dasharray="4.00164 3.00123" fill="#FFCCFF" fill-rule="evenodd"/><text font-family="Yu Gothic,Yu Gothic_MSFontService,sans-serif" font-weight="700" font-size="12" transform="matrix(1 0 0 0.99959 514.671 490)">熟練者</text><path d="M0-0.5 4-0.5 4 0.5 0 0.5ZM7-0.5 11-0.5 11 0.5 7 0.5ZM14-0.5 18-0.5 18 0.5 14 0.5ZM21-0.5 25-0.5 25 0.5 21 0.5ZM28-0.5 32-0.5 32 0.5 28 0.5ZM35-0.5 39-0.5 39 0.5 35 0.5ZM42-0.5 46-0.5 46 0.5 42 0.5ZM49-0.5 53-0.5 53 0.5 49 0.5ZM56-0.5 60-0.5 60 0.5 56 0.5ZM63-0.5 67-0.5 67 0.5 63 0.5ZM70-0.5 74-0.5 74 0.5 70 0.5ZM77-0.5 81-0.5 81 0.5 77 0.5ZM84-0.5 88-0.5 88 0.5 84 0.5ZM91-0.5 95-0.5 95 0.5 91 0.5ZM98-0.5 102-0.5 102 0.5 98 0.5ZM105-0.5 109-0.5 109 0.5 105 0.5ZM112-0.5 114.453-0.5 114.453 2.04672 113.453 2.04672 113.453 0 113.953 0.5 112 0.5ZM114.453 5.04672 114.453 9.04672 113.453 9.04672 113.453 5.04672ZM114.453 12.0467 114.453 15.3243 113.453 15.3243 113.453 12.0467ZM117.953 13.991 113.953 21.991 109.953 13.991Z" transform="matrix(-1.00041 0 0 1 648.5 452.314)"/><path d="M0-0.5 4-0.5 4 0.5 0 0.5ZM7-0.5 11-0.5 11 0.5 7 0.5ZM14-0.5 18-0.5 18 0.5 14 0.5ZM21-0.5 25-0.5 25 0.5 21 0.5ZM28-0.5 29.4881-0.5 29.4881 3.01186 28.4881 3.01186 28.4881 0 28.9881 0.5 28 0.5ZM29.4881 6.01186 29.4881 10.0119 28.4881 10.0119 28.4881 6.01186ZM29.4881 13.0119 29.4881 17.0119 28.4881 17.0119 28.4881 13.0119ZM29.4881 20.0119 29.4881 24.0119 28.4881 24.0119 28.4881 20.0119ZM29.4881 27.0119 29.4881 31.0119 28.4881 31.0119 28.4881 27.0119ZM29.4881 34.0119 29.4881 38.0119 28.4881 38.0119 28.4881 34.0119ZM29.4881 41.0119 29.4881 45.0119 28.4881 45.0119 28.4881 41.0119ZM29.4881 48.0119 29.4881 52.0119 28.4881 52.0119 28.4881 48.0119ZM29.4881 55.0119 29.4881 59.0119 28.4881 59.0119 28.4881 55.0119ZM29.4881 62.0119 29.4881 66.0119 28.4881 66.0119 28.4881 62.0119ZM29.4881 69.0119 29.4881 73.0119 28.4881 73.0119 28.4881 69.0119ZM29.4881 76.0119 29.4881 80.0119 28.4881 80.0119 28.4881 76.0119ZM29.4881 83.0119 29.4881 87.0119 28.4881 87.0119 28.4881 83.0119ZM29.4881 90.0119 29.4881 94.0119 28.4881 94.0119 28.4881 90.0119ZM29.4881 97.0119 29.4881 101.012 28.4881 101.012 28.4881 97.0119ZM29.4881 104.012 29.4881 108.012 28.4881 108.012 28.4881 104.012ZM32.9881 106.953 28.9881 114.953 24.9881 106.953Z" transform="matrix(1.83772e-16 1 1.00041 -1.83697e-16 536.5 499.295)"/><path d="M696.5 462.81C696.5 458.118 700.306 454.314 705 454.314L739 454.314C743.694 454.314 747.5 458.118 747.5 462.81L747.5 511.79C747.5 516.482 743.694 520.287 739 520.287L705 520.287C700.306 520.287 696.5 516.482 696.5 511.79Z" stroke="#172C51" stroke-width="1.33388" stroke-miterlimit="8" fill="#EBCDFF" fill-rule="evenodd"/><text font-family="Yu Gothic,Yu Gothic_MSFontService,sans-serif" font-weight="700" font-size="12" transform="matrix(1 0 0 0.99959 709.442 483)">報酬</text><text font-family="Yu Gothic,Yu Gothic_MSFontService,sans-serif" font-weight="700" font-size="12" transform="matrix(1 0 0 0.99959 703.447 497)">予測器</text><path d="M764.5 470.307 792.5 470.307 792.5 495.608 781.812 506.292 764.5 506.292Z" fill="#EBCDFF" fill-rule="evenodd"/><path d="M781.812 506.292 783.949 497.745 792.5 495.608Z" fill="#BDA5CD" fill-rule="evenodd"/><path d="M781.812 506.292 783.949 497.745 792.5 495.608 781.812 506.292 764.5 506.292 764.5 470.307 792.5 470.307 792.5 495.608" stroke="#172C51" stroke-width="1.33388" stroke-miterlimit="8" fill="none" fill-rule="evenodd"/><text font-family="Yu Gothic,Yu Gothic_MSFontService,sans-serif" font-weight="700" font-size="12" transform="matrix(1 0 0 0.99959 765.576 486)">報酬</text><path d="M678.5 461.644 689.831 461.644 689.831 462.977 678.5 462.977ZM688.497 458.31 696.5 462.31 688.497 466.31Z" fill="#172C51"/><path d="M679.5 505.626 691.831 505.626 691.831 506.959 679.5 506.959ZM690.497 502.292 698.5 506.292 690.497 510.292Z" fill="#172C51"/><path d="M746.5 487.633 758.831 487.633 758.831 488.966 746.5 488.966ZM757.497 484.3 765.5 488.3 757.497 492.3Z" fill="#172C51"/><text font-family="Yu Gothic,Yu Gothic_MSFontService,sans-serif" font-weight="700" font-size="13.3333" transform="matrix(1 0 0 0.99959 527.521 445)">熟練者スキルの再生</text><text font-family="Yu Gothic,Yu Gothic_MSFontService,sans-serif" font-weight="700" font-size="12" transform="matrix(1 0 0 0.99959 688.242 405)">熟練者スキルから</text><text font-family="Yu Gothic,Yu Gothic_MSFontService,sans-serif" font-weight="700" font-size="12" transform="matrix(1 0 0 0.99959 688.242 419)">ポリシーではなく</text><text font-family="Yu Gothic,Yu Gothic_MSFontService,sans-serif" font-weight="700" font-size="12" transform="matrix(1 0 0 0.99959 688.242 434)">報酬予測を学習する</text><text fill="#FF0000" font-family="Yu Gothic,Yu Gothic_MSFontService,sans-serif" font-weight="700" font-size="13.3333" transform="matrix(1 0 0 0.99959 708.791 450)">学習</text><path d="M468.167 524.118 468.167 529.452 466.833 529.452 466.833 524.118ZM468.167 533.452 468.167 538.785 466.833 538.785 466.833 533.452ZM468.167 542.785 468.167 548.118 466.833 548.118 466.833 542.785ZM471.345 547.608 476.68 547.608 476.68 548.942 471.345 548.942ZM480.682 547.608 486.018 547.608 486.018 548.942 480.682 548.942ZM490.019 547.608 495.355 547.608 495.355 548.942 490.019 548.942ZM499.356 547.608 504.692 547.608 504.692 548.942 499.356 548.942ZM508.693 547.608 514.029 547.608 514.029 548.942 508.693 548.942ZM518.031 547.608 523.366 547.608 523.366 548.942 518.031 548.942ZM527.368 547.608 532.703 547.608 532.703 548.942 527.368 548.942ZM536.705 547.608 542.04 547.608 542.04 548.942 536.705 548.942ZM546.042 547.608 551.378 547.608 551.378 548.942 546.042 548.942ZM555.379 547.608 560.715 547.608 560.715 548.942 555.379 548.942ZM564.716 547.608 570.052 547.608 570.052 548.942 564.716 548.942ZM574.054 547.608 579.389 547.608 579.389 548.942 574.054 548.942ZM583.391 547.608 588.726 547.608 588.726 548.942 583.391 548.942ZM592.728 547.608 598.063 547.608 598.063 548.942 592.728 548.942ZM602.065 547.608 607.401 547.608 607.401 548.942 602.065 548.942ZM611.402 547.608 616.738 547.608 616.738 548.942 611.402 548.942ZM620.739 547.608 626.075 547.608 626.075 548.942 620.739 548.942ZM630.077 547.608 635.412 547.608 635.412 548.942 630.077 548.942ZM639.414 547.608 644.749 547.608 644.749 548.942 639.414 548.942ZM648.751 547.608 654.086 547.608 654.086 548.942 648.751 548.942ZM658.088 547.608 663.424 547.608 663.424 548.942 658.088 548.942ZM667.425 547.608 672.761 547.608 672.761 548.942 667.425 548.942ZM676.762 547.608 682.098 547.608 682.098 548.942 676.762 548.942ZM686.1 547.608 691.435 547.608 691.435 548.942 686.1 548.942ZM695.437 547.608 700.772 547.608 700.772 548.942 695.437 548.942ZM704.774 547.608 710.109 547.608 710.109 548.942 704.774 548.942ZM714.111 547.608 719.447 547.608 719.447 548.942 714.111 548.942ZM723.448 547.608 724.5 547.608 723.833 548.275 723.833 543.993 725.167 543.993 725.167 548.942 723.448 548.942ZM723.833 539.993 723.833 534.66 725.167 534.66 725.167 539.993ZM723.833 530.66 723.833 525.954 725.167 525.954 725.167 530.66ZM720.498 527.287 724.5 519.287 728.502 527.287Z" fill="#172C51"/><path d="M780.167 508.557 780.167 513.89 778.833 513.89 778.833 508.557ZM780.167 517.89 780.167 523.224 778.833 523.224 778.833 517.89ZM780.167 527.224 780.167 532.557 778.833 532.557 778.833 527.224ZM780.167 536.557 780.167 541.89 778.833 541.89 778.833 536.557ZM780.167 545.89 780.167 551.224 778.833 551.224 778.833 545.89ZM780.167 555.224 780.167 555.939 774.213 555.939 774.213 554.606 779.5 554.606 778.833 555.272 778.833 555.224ZM770.211 555.939 764.876 555.939 764.876 554.606 770.211 554.606ZM760.874 555.939 755.539 555.939 755.539 554.606 760.874 554.606ZM751.537 555.939 746.202 555.939 746.202 554.606 751.537 554.606ZM742.2 555.939 736.865 555.939 736.865 554.606 742.2 554.606ZM732.863 555.939 727.527 555.939 727.527 554.606 732.863 554.606ZM723.526 555.939 718.19 555.939 718.19 554.606 723.526 554.606ZM714.188 555.939 708.853 555.939 708.853 554.606 714.188 554.606ZM704.851 555.939 699.516 555.939 699.516 554.606 704.851 554.606ZM695.514 555.939 690.179 555.939 690.179 554.606 695.514 554.606ZM686.177 555.939 680.841 555.939 680.841 554.606 686.177 554.606ZM676.84 555.939 671.504 555.939 671.504 554.606 676.84 554.606ZM667.503 555.939 662.167 555.939 662.167 554.606 667.503 554.606ZM658.166 555.939 652.83 555.939 652.83 554.606 658.166 554.606ZM648.828 555.939 643.493 555.939 643.493 554.606 648.828 554.606ZM639.491 555.939 634.156 555.939 634.156 554.606 639.491 554.606ZM630.154 555.939 624.819 555.939 624.819 554.606 630.154 554.606ZM620.817 555.939 615.481 555.939 615.481 554.606 620.817 554.606ZM611.48 555.939 606.144 555.939 606.144 554.606 611.48 554.606ZM602.143 555.939 596.807 555.939 596.807 554.606 602.143 554.606ZM592.805 555.939 587.47 555.939 587.47 554.606 592.805 554.606ZM583.468 555.939 578.133 555.939 578.133 554.606 583.468 554.606ZM574.131 555.939 568.796 555.939 568.796 554.606 574.131 554.606ZM564.794 555.939 559.458 555.939 559.458 554.606 564.794 554.606ZM555.457 555.939 550.121 555.939 550.121 554.606 555.457 554.606ZM546.12 555.939 540.784 555.939 540.784 554.606 546.12 554.606ZM536.782 555.939 531.447 555.939 531.447 554.606 536.782 554.606ZM527.445 555.939 522.11 555.939 522.11 554.606 527.445 554.606ZM518.108 555.939 512.773 555.939 512.773 554.606 518.108 554.606ZM508.771 555.939 503.435 555.939 503.435 554.606 508.771 554.606ZM499.434 555.939 494.098 555.939 494.098 554.606 499.434 554.606ZM490.097 555.939 484.761 555.939 484.761 554.606 490.097 554.606ZM480.759 555.939 475.424 555.939 475.424 554.606 480.759 554.606ZM471.422 555.939 466.087 555.939 466.087 554.606 471.422 554.606ZM462.085 555.939 456.75 555.939 456.75 554.606 462.085 554.606ZM452.748 555.939 447.412 555.939 447.412 554.606 452.748 554.606ZM443.411 555.939 438.075 555.939 438.075 554.606 443.411 554.606ZM434.074 555.939 428.738 555.939 428.738 554.606 434.074 554.606ZM424.737 555.939 419.401 555.939 419.401 554.606 424.737 554.606ZM415.399 555.939 410.064 555.939 410.064 554.606 415.399 554.606ZM406.062 555.939 400.727 555.939 400.727 554.606 406.062 554.606ZM396.725 555.939 391.389 555.939 391.389 554.606 396.725 554.606ZM387.388 555.939 382.052 555.939 382.052 554.606 387.388 554.606ZM378.051 555.939 372.715 555.939 372.715 554.606 378.051 554.606ZM368.714 555.939 363.378 555.939 363.378 554.606 368.714 554.606ZM359.376 555.939 354.041 555.939 354.041 554.606 359.376 554.606ZM350.039 555.939 344.704 555.939 344.704 554.606 350.039 554.606ZM340.833 554.475 340.833 549.141 342.167 549.141 342.167 554.475ZM340.833 545.141 340.833 539.808 342.167 539.808 342.167 545.141ZM340.833 535.808 340.833 530.475 342.167 530.475 342.167 535.808ZM340.833 526.475 340.833 521.141 342.167 521.141 342.167 526.475ZM340.833 517.141 340.833 511.808 342.167 511.808 342.167 517.141ZM340.833 507.808 340.833 502.475 342.167 502.475 342.167 507.808ZM340.833 498.475 340.833 493.141 342.167 493.141 342.167 498.475ZM340.833 489.141 340.833 483.808 342.167 483.808 342.167 489.141ZM340.833 479.808 340.833 474.475 342.167 474.475 342.167 479.808ZM340.833 470.475 340.833 465.141 342.167 465.141 342.167 470.475ZM341.67 460.644 347.005 460.644 347.005 461.977 341.67 461.977ZM351.007 460.644 356.342 460.644 356.342 461.977 351.007 461.977ZM360.344 460.644 365.679 460.644 365.679 461.977 360.344 461.977ZM369.681 460.644 375.017 460.644 375.017 461.977 369.681 461.977ZM379.018 460.644 379.864 460.644 379.864 461.977 379.018 461.977ZM378.53 457.311 386.533 461.311 378.53 465.311Z" fill="#172C51"/><path d="M696.5 112.787C696.5 110.947 697.992 109.455 699.833 109.455L713.167 109.455C715.008 109.455 716.5 110.947 716.5 112.787L716.5 127.114C716.5 128.955 715.008 130.447 713.167 130.447L699.833 130.447C697.992 130.447 696.5 128.955 696.5 127.114Z" stroke="#172C51" stroke-width="1.33388" stroke-miterlimit="8" fill="#EBCDFF" fill-rule="evenodd"/><text font-family="Yu Gothic,Yu Gothic_MSFontService,sans-serif" font-weight="700" font-size="13.3333" transform="matrix(1 0 0 0.99959 721.81 125)">報酬関連</text></g></svg>