<svg width="813" height="567" xmlns="http://www.w3.org/2000/svg" xmlns:xlink="http://www.w3.org/1999/xlink" overflow="hidden"><g><rect x="0" y="0" width="813" height="566.768" fill="#FFFFFF"/><path d="M97.0564 235.403 94.6673 230.455 95.8277 228.118 94.0529 226.949 93.5069 224.543 89.07 224.956 87.5 221.313 90.2304 216.158 89.6161 213.546 91.3908 212.171 89.4113 209.766 91.2543 207.36 92.5512 210.178 94.1212 209.01 94.7355 209.147 97.6024 207.016 95.8959 205.779 95.0086 207.91 93.0973 208.185 92.2099 206.947 94.0529 205.298 95.8277 201.586 100.265 203.717 102.858 200.418C108.774 205 112.164 212.332 111.391 221.794 110.094 220.328 108.524 217.968 107.5 217.395 106.476 216.822 104.315 216.834 104.155 217.189L106.544 219.526 103.951 222.138 104.428 223.719 101.903 226.399 101.903 228.942 100.469 231.761 98.3533 234.991 97.0564 235.403Z" stroke="#172C51" stroke-width="1.33388" stroke-miterlimit="8" fill-rule="evenodd"/><path d="M91.5 194.531 89.1364 197.08 88.5107 200.111 88.2326 202.866 85.0348 203.624C83.9341 204.198 83.2273 206.987 81.6283 206.31 80.0294 205.633 82.9376 202.143 82.9492 200.799L81.6979 198.251 82.3931 195.633 80.0294 197.7 78.5 195.22C80.6783 193.819 86.402 192.35 91.5 194.531Z" stroke="#172C51" stroke-width="1.33388" stroke-miterlimit="8" fill-rule="evenodd"/><path d="M80.2349 240.37 77.9331 236.659 76.5114 231.505 72.7878 227.794 72.9232 224.77 68.9966 222.365 66.0854 220.097 66.0854 218.585 63.8513 219.96C61.7751 213.271 69.3125 198.954 75.6989 197.419L77.5946 199.206 80.5734 199.618 81.0473 202.985 80.0995 204.978 78.1362 204.635 78.5424 203.741 78.7455 202.023 76.6468 204.016 74.548 204.91 73.3294 206.147 74.9542 208.414 75.6312 207.727 76.2405 205.459 78.6101 206.078 80.5734 208.414 80.3026 211.576 79.5579 211.988 78.5424 210.407 77.3915 211.919 73.6679 214.806 72.517 218.104 74.0741 220.097 76.5114 220.853 74.7511 221.747 73.0586 220.853 70.8245 217.348 68.7935 217.761 68.5904 220.235 70.7568 220.097 71.9754 222.777 73.7356 222.984 75.902 222.709 79.4225 224.289 81.4535 226.351 84.5001 227.107 83.6876 228.962 84.0938 231.368 82.2659 232.536 82.4013 235.079 80.9119 236.728 82.1982 241.401 80.2349 240.37Z" stroke="#172C51" stroke-width="1.33388" stroke-miterlimit="8" fill-rule="evenodd"/><path d="M62 216.911C62 203.662 72.969 192.921 86.5 192.921 100.031 192.921 111 203.662 111 216.911 111 230.16 100.031 240.901 86.5 240.901 72.969 240.901 62 230.16 62 216.911Z" stroke="#172C51" stroke-width="4.00164" stroke-miterlimit="8" fill="none" fill-rule="evenodd"/><path d="M101.5 232.405 101.822 230.939C102.479 230.288 105.083 227.916 105.445 228.497 105.807 229.079 104.277 230.451 103.996 231.079L103.754 232.265 101.5 232.405Z" stroke="#172C51" stroke-width="1.33388" stroke-miterlimit="8" fill-rule="evenodd"/><text font-family="Yu Gothic,Yu Gothic_MSFontService,sans-serif" font-weight="700" font-size="13.3333" transform="matrix(1 0 0 0.99959 78.2121 262)">環境</text><path d="M50 152.438C50 149.953 52.0148 147.939 54.5001 147.939L116.5 147.939C118.985 147.939 121 149.953 121 152.438L121 170.43C121 172.914 118.985 174.928 116.5 174.928L54.5001 174.928C52.0148 174.928 50 172.914 50 170.43Z" stroke="#172C51" stroke-width="2.00082" stroke-miterlimit="8" fill="#FFF2CC" fill-rule="evenodd"/><text font-family="Yu Gothic,Yu Gothic_MSFontService,sans-serif" font-weight="700" font-size="12" transform="matrix(1 0 0 0.99959 67.5636 165)">熟練者</text><path d="M57 218.911 29.9996 218.911 29.9996 159.934 41.3488 159.934 41.3488 161.934 31 161.934 32.0004 160.934 32.0004 217.911 31 216.911 57 216.911ZM40.0149 156.934 48.0182 160.934 40.0149 164.934Z" fill="#172C51"/><path d="M19.3226 57.9767-1 57.9767-1-1 17.0112-1 17.0112 1 0 1 1 0 1 56.9767 0 55.9767 19.3226 55.9767ZM17.9893 52.9767 25.9893 56.9767 17.9893 60.9767Z" fill="#172C51" transform="matrix(-1.00041 0 0 1 142 159.934)"/><rect x="119" y="177.927" width="47.0001" height="25.9893" fill="#FFFFFF"/><text font-family="Yu Gothic,Yu Gothic_MSFontService,sans-serif" font-weight="700" font-size="13.3333" transform="matrix(1 0 0 0.99959 128.986 194)">行動</text><rect x="9.00002" y="177.927" width="46" height="25.9893" fill="#FFFFFF"/><text font-family="Yu Gothic,Yu Gothic_MSFontService,sans-serif" font-weight="700" font-size="13.3333" transform="matrix(1 0 0 0.99959 18.674 194)">状態</text><path d="M215 114.12C215 110.715 225.297 107.956 238 107.956 250.703 107.956 261 110.715 261 114.12L261 138.776C261 142.181 250.703 144.941 238 144.941 225.297 144.941 215 142.181 215 138.776Z" fill="#FFF2CC" fill-rule="evenodd"/><path d="M261 114.12C261 117.524 250.703 120.284 238 120.284 225.297 120.284 215 117.524 215 114.12" stroke="#172C51" stroke-width="2.00082" stroke-miterlimit="8" fill="none" fill-rule="evenodd"/><path d="M215 114.12C215 110.715 225.297 107.956 238 107.956 250.703 107.956 261 110.715 261 114.12L261 138.776C261 142.181 250.703 144.941 238 144.941 225.297 144.941 215 142.181 215 138.776Z" stroke="#172C51" stroke-width="2.00082" stroke-miterlimit="8" fill="none" fill-rule="evenodd"/><text font-family="Calibri,Calibri_MSFontService,sans-serif" font-weight="700" font-size="13.3333" transform="matrix(1 0 0 0.99959 217.436 133)">dataset</text><path d="M14 140.3C14 133.478 19.5327 127.948 26.3577 127.948L148.642 127.948C155.467 127.948 161 133.478 161 140.3L161 255.537C161 262.36 155.467 267.89 148.642 267.89L26.3577 267.89C19.5327 267.89 14 262.36 14 255.537Z" stroke="#BFBFBF" stroke-width="2.00082" stroke-miterlimit="8" fill="none" fill-rule="evenodd"/><path d="M303 85.9647 332 85.9647 332 110.884 320.93 121.95 303 121.95Z" fill="#FFF2CC" fill-rule="evenodd"/><path d="M320.93 121.95 323.144 113.098 332 110.884Z" fill="#CDC3A4" fill-rule="evenodd"/><path d="M320.93 121.95 323.144 113.098 332 110.884 320.93 121.95 303 121.95 303 85.9647 332 85.9647 332 110.884" stroke="#172C51" stroke-width="2.00082" stroke-miterlimit="8" fill="none" fill-rule="evenodd"/><text font-family="Yu Gothic,Yu Gothic_MSFontService,sans-serif" font-weight="700" font-size="12" transform="matrix(1 0 0 0.99959 305.453 102)">状態</text><path d="M303 129.947 332 129.947 332 161.863 320.93 172.929 303 172.929Z" fill="#FFF2CC" fill-rule="evenodd"/><path d="M320.93 172.929 323.144 164.077 332 161.863Z" fill="#CDC3A4" fill-rule="evenodd"/><path d="M320.93 172.929 323.144 164.077 332 161.863 320.93 172.929 303 172.929 303 129.947 332 129.947 332 161.863" stroke="#172C51" stroke-width="2.00082" stroke-miterlimit="8" fill="none" fill-rule="evenodd"/><text font-family="Yu Gothic,Yu Gothic_MSFontService,sans-serif" font-weight="700" font-size="12" transform="matrix(1 0 0 0.99959 305.453 143)">正解</text><text font-family="Yu Gothic,Yu Gothic_MSFontService,sans-serif" font-weight="700" font-size="12" transform="matrix(1 0 0 0.99959 305.453 157)">行動</text><path d="M261 125.948 282.977 125.948 282.977 152.084 281.976 151.084 296.283 151.084 296.283 153.084 280.976 153.084 280.976 126.948 281.976 127.948 261 127.948ZM294.949 148.084 302.952 152.084 294.949 156.084Z"/><path d="M0-1 21.9675-1 21.9675 22.4026 20.9675 21.4026 35.2683 21.4026 35.2683 23.4026 19.9675 23.4026 19.9675 0 20.9675 1 0 1ZM33.935 18.4026 41.935 22.4026 33.935 26.4026Z" transform="matrix(1.00041 0 0 -1 261 126.36)"/><path d="M359 94.4614C359 91.9771 361.015 89.9632 363.5 89.9632L425.5 89.9632C427.985 89.9632 430 91.9771 430 94.4614L430 112.454C430 114.938 427.985 116.952 425.5 116.952L363.5 116.952C361.015 116.952 359 114.938 359 112.454Z" stroke="#172C51" stroke-width="2.00082" stroke-miterlimit="8" fill="#DEEBF7" fill-rule="evenodd"/><text font-family="Yu Gothic,Yu Gothic_MSFontService,sans-serif" font-weight="700" font-size="12" transform="matrix(1 0 0 0.99959 358.306 100)">エージェント</text><text font-family="Calibri,Calibri_MSFontService,sans-serif" font-weight="700" font-size="12" transform="matrix(1 0 0 0.99959 375.893 115)">(Policy)</text><path d="M454 85.9647 482 85.9647 482 111.266 471.312 121.95 454 121.95Z" fill="#DEEBF7" fill-rule="evenodd"/><path d="M471.312 121.95 473.449 113.403 482 111.266Z" fill="#B2BDC7" fill-rule="evenodd"/><path d="M471.312 121.95 473.449 113.403 482 111.266 471.312 121.95 454 121.95 454 85.9647 482 85.9647 482 111.266" stroke="#172C51" stroke-width="2.00082" stroke-miterlimit="8" fill="none" fill-rule="evenodd"/><text font-family="Yu Gothic,Yu Gothic_MSFontService,sans-serif" font-weight="700" font-size="13.3333" transform="matrix(1 0 0 0.99959 454.64 102)">行動</text><rect x="529" y="114.953" width="42" height="26.9889" stroke="#172C51" stroke-width="2.00082" stroke-miterlimit="8" fill="#FFF2CC"/><text font-family="Calibri,Calibri_MSFontService,sans-serif" font-weight="700" font-size="14.6667" transform="matrix(1 0 0 0.99959 537.358 133)">Loss</text><path d="M0.0120149-0.999928 20.3007-0.756143 20.2767 1.24371-0.0120149 0.999928ZM19.0035-3.77195 26.9549 0.323885 18.9074 4.22748Z" transform="matrix(1.00041 0 0 -1 332 104.281)"/><path d="M430 102.957 447.093 102.957 447.093 104.957 430 104.957ZM445.759 99.9574 453.762 103.957 445.759 107.957Z"/><path d="M482 102.957 506.583 102.957 506.583 128.467 505.582 127.467 522.495 127.467 522.495 129.467 504.582 129.467 504.582 103.957 505.582 104.957 482 104.957ZM521.161 124.467 529.164 128.467 521.161 132.467Z"/><path d="M0-1 173.803-1 173.803 23.3531 172.803 22.3531 190.938 22.3531 190.938 24.3531 171.803 24.3531 171.803 0 172.803 1 0 1ZM189.604 19.3531 197.604 23.3531 189.604 27.3531Z" transform="matrix(1.00041 0 0 -1 332 151.301)"/><path d="M359 84.9652C359 79.7206 361.088 75.4691 363.664 75.4691L389.836 75.4691C392.412 75.4691 394.5 71.2175 394.5 65.973 394.5 71.2175 396.588 75.4691 399.164 75.4691L425.336 75.4691C427.912 75.4691 430 79.7206 430 84.9652" stroke="#000000" stroke-width="2" stroke-miterlimit="8" fill="none" fill-rule="evenodd"/><path d="M0-1 65.9004-1 65.9004 156.812 55.6866 156.812 55.6866 154.812 64.9004 154.812 63.9004 155.812 63.9004 0 64.9004 1 0 1ZM57.0199 159.812 49.0199 155.812 57.0199 151.812Z" transform="matrix(-1.83772e-16 -1 -1.00041 1.83697e-16 549.876 114.993)"/><path d="M201 43.2226C201 35.9132 206.928 29.9877 214.24 29.9877L574.76 29.9877C582.072 29.9877 588 35.9132 588 43.2226L588 166.691C588 174.001 582.072 179.926 574.76 179.926L214.24 179.926C206.928 179.926 201 174.001 201 166.691Z" stroke="#BFBFBF" stroke-width="2.00082" stroke-miterlimit="8" fill="none" fill-rule="evenodd"/><rect x="232" y="14.9938" width="145" height="41.9828" fill="#FFFFFF"/><text font-family="Calibri,Calibri_MSFontService,sans-serif" font-weight="700" font-size="13.3333" transform="matrix(1 0 0 0.99959 241.232 32)">BC:</text><text font-family="Calibri,Calibri_MSFontService,sans-serif" font-weight="700" font-size="13.3333" transform="matrix(1 0 0 0.99959 262.408 32)">Behavioral</text><text font-family="Calibri,Calibri_MSFontService,sans-serif" font-weight="700" font-size="13.3333" transform="matrix(1 0 0 0.99959 324.6 32)">Cloning</text><text font-family="Calibri,Calibri_MSFontService,sans-serif" font-weight="700" font-size="13.3333" transform="matrix(1 0 0 0.99959 241.232 48)">(</text><text font-family="Yu Gothic,Yu Gothic_MSFontService,sans-serif" font-weight="700" font-size="13.3333" transform="matrix(1 0 0 0.99959 245.401 48)">行動クローニング</text><text font-family="Calibri,Calibri_MSFontService,sans-serif" font-weight="700" font-size="13.3333" transform="matrix(1 0 0 0.99959 352.111 48)">)</text><path d="M216 506.792C216 503.48 226.297 500.795 239 500.795 251.703 500.795 262 503.48 262 506.792L262 530.782C262 534.095 251.703 536.78 239 536.78 226.297 536.78 216 534.095 216 530.782Z" fill="#FFF2CC" fill-rule="evenodd"/><path d="M262 506.792C262 510.104 251.703 512.79 239 512.79 226.297 512.79 216 510.104 216 506.792" stroke="#172C51" stroke-width="2.00082" stroke-miterlimit="8" fill="none" fill-rule="evenodd"/><path d="M216 506.792C216 503.48 226.297 500.795 239 500.795 251.703 500.795 262 503.48 262 506.792L262 530.782C262 534.095 251.703 536.78 239 536.78 226.297 536.78 216 534.095 216 530.782Z" stroke="#172C51" stroke-width="2.00082" stroke-miterlimit="8" fill="none" fill-rule="evenodd"/><text font-family="Calibri,Calibri_MSFontService,sans-serif" font-weight="700" font-size="13.3333" transform="matrix(1 0 0 0.99959 218.036 526)">dataset</text><path d="M288 500.795 316 500.795 316 526.096 305.312 536.78 288 536.78Z" fill="#FFF2CC" fill-rule="evenodd"/><path d="M305.312 536.78 307.449 528.233 316 526.096Z" fill="#CDC3A4" fill-rule="evenodd"/><path d="M305.312 536.78 307.449 528.233 316 526.096 305.312 536.78 288 536.78 288 500.795 316 500.795 316 526.096" stroke="#172C51" stroke-width="2.00082" stroke-miterlimit="8" fill="none" fill-rule="evenodd"/><text font-family="Yu Gothic,Yu Gothic_MSFontService,sans-serif" font-weight="700" font-size="12" transform="matrix(1 0 0 0.99959 289.796 517)">状態</text><path d="M343 510.291C343 507.806 345.015 505.793 347.5 505.793L409.5 505.793C411.985 505.793 414 507.806 414 510.291L414 528.283C414 530.768 411.985 532.782 409.5 532.782L347.5 532.782C345.015 532.782 343 530.768 343 528.283Z" stroke="#172C51" stroke-width="2.00082" stroke-miterlimit="8" fill="#DEEBF7" fill-rule="evenodd"/><text font-family="Yu Gothic,Yu Gothic_MSFontService,sans-serif" font-weight="700" font-size="12" transform="matrix(1 0 0 0.99959 342.648 515)">エージェント</text><text font-family="Calibri,Calibri_MSFontService,sans-serif" font-weight="700" font-size="12" transform="matrix(1 0 0 0.99959 360.235 530)">(Policy)</text><path d="M438 500.795 466 500.795 466 526.096 455.312 536.78 438 536.78Z" fill="#DEEBF7" fill-rule="evenodd"/><path d="M455.312 536.78 457.449 528.233 466 526.096Z" fill="#B2BDC7" fill-rule="evenodd"/><path d="M455.312 536.78 457.449 528.233 466 526.096 455.312 536.78 438 536.78 438 500.795 466 500.795 466 526.096" stroke="#172C51" stroke-width="2.00082" stroke-miterlimit="8" fill="none" fill-rule="evenodd"/><text font-family="Yu Gothic,Yu Gothic_MSFontService,sans-serif" font-weight="700" font-size="13.3333" transform="matrix(1 0 0 0.99959 438.983 517)">行動</text><path d="M316 517.787 336.297 517.787 336.297 519.787 316 519.787ZM334.963 514.787 342.966 518.787 334.963 522.787Z"/><path d="M414 517.787 431.093 517.787 431.093 519.787 414 519.787ZM429.759 514.787 437.762 518.787 429.759 522.787Z"/><path d="M262 517.787 281.026 517.787 281.026 519.787 262 519.787ZM279.692 514.787 287.695 518.787 279.692 522.787Z"/><rect x="316" y="437.82" width="40" height="34.9857" stroke="#172C51" stroke-width="2.00082" stroke-miterlimit="8" fill="#FFF2CC"/><text font-family="Yu Gothic,Yu Gothic_MSFontService,sans-serif" font-weight="700" font-size="12" transform="matrix(1 0 0 0.99959 323.859 452)">報酬</text><text font-family="Yu Gothic,Yu Gothic_MSFontService,sans-serif" font-weight="700" font-size="12" transform="matrix(1 0 0 0.99959 323.859 466)">関数</text><path d="M343 496.796C343 491.552 345.088 487.3 347.664 487.3L373.836 487.3C376.412 487.3 378.5 483.049 378.5 477.804 378.5 483.049 380.588 487.3 383.164 487.3L409.336 487.3C411.912 487.3 414 491.552 414 496.796" stroke="#000000" stroke-width="2" stroke-miterlimit="8" fill="none" fill-rule="evenodd"/><path d="M301 501.794 301 460.811 308.331 460.811 308.331 462.811 302 462.811 303 461.811 303 501.794ZM306.997 457.811 315 461.811 306.997 465.811Z" fill="#172C51"/><path d="M451 500.795 451 429.824 452 430.824 302 430.824 303 429.824 303 449.485 302 448.485 309.472 448.485 309.472 450.485 301 450.485 301 428.824 453 428.824 453 500.795ZM308.138 445.485 316.141 449.485 308.138 453.485Z"/><path d="M357 453.813 380 453.813 380 469.138 378 469.138 378 454.813 379 455.813 357 455.813ZM383.002 467.805 379 475.805 374.998 467.805Z"/><path d="M201 415.07C201 407.761 206.928 401.835 214.24 401.835L472.76 401.835C480.072 401.835 486 407.761 486 415.07L486 538.539C486 545.848 480.072 551.774 472.76 551.774L214.24 551.774C206.928 551.774 201 545.848 201 538.539Z" stroke="#BFBFBF" stroke-width="2.00082" stroke-miterlimit="8" fill="none" fill-rule="evenodd"/><rect x="232" y="381.843" width="173" height="41.9828" fill="#FFFFFF"/><text font-family="Calibri,Calibri_MSFontService,sans-serif" font-weight="700" font-size="13.3333" transform="matrix(1 0 0 0.99959 241.232 398)">RL:</text><text font-family="Calibri,Calibri_MSFontService,sans-serif" font-weight="700" font-size="13.3333" transform="matrix(1 0 0 0.99959 261.074 398)">Reinforcement</text><text font-family="Calibri,Calibri_MSFontService,sans-serif" font-weight="700" font-size="13.3333" transform="matrix(1 0 0 0.99959 346.276 398)">Learning</text><text font-family="Calibri,Calibri_MSFontService,sans-serif" font-weight="700" font-size="13.3333" transform="matrix(1 0 0 0.99959 241.232 414)">(</text><text font-family="Yu Gothic,Yu Gothic_MSFontService,sans-serif" font-weight="700" font-size="13.3333" transform="matrix(1 0 0 0.99959 245.401 414)">強化学習</text><text font-family="Calibri,Calibri_MSFontService,sans-serif" font-weight="700" font-size="13.3333" transform="matrix(1 0 0 0.99959 298.756 414)">)</text><path d="M217 307.874C217 304.561 227.297 301.876 240 301.876 252.703 301.876 263 304.561 263 307.874L263 331.864C263 335.176 252.703 337.861 240 337.861 227.297 337.861 217 335.176 217 331.864Z" fill="#FFF2CC" fill-rule="evenodd"/><path d="M263 307.874C263 311.186 252.703 313.871 240 313.871 227.297 313.871 217 311.186 217 307.874" stroke="#172C51" stroke-width="2.00082" stroke-miterlimit="8" fill="none" fill-rule="evenodd"/><path d="M217 307.874C217 304.561 227.297 301.876 240 301.876 252.703 301.876 263 304.561 263 307.874L263 331.864C263 335.176 252.703 337.861 240 337.861 227.297 337.861 217 335.176 217 331.864Z" stroke="#172C51" stroke-width="2.00082" stroke-miterlimit="8" fill="none" fill-rule="evenodd"/><text font-family="Calibri,Calibri_MSFontService,sans-serif" font-weight="700" font-size="13.3333" transform="matrix(1 0 0 0.99959 219.391 327)">dataset</text><path d="M305 278.886 333 278.886 333 305.186 322.312 315.87 305 315.87Z" fill="#FFF2CC" fill-rule="evenodd"/><path d="M322.312 315.87 324.449 307.323 333 305.186Z" fill="#CDC3A4" fill-rule="evenodd"/><path d="M322.312 315.87 324.449 307.323 333 305.186 322.312 315.87 305 315.87 305 278.886 333 278.886 333 305.186" stroke="#172C51" stroke-width="2.00082" stroke-miterlimit="8" fill="none" fill-rule="evenodd"/><text font-family="Yu Gothic,Yu Gothic_MSFontService,sans-serif" font-weight="700" font-size="12" transform="matrix(1 0 0 0.99959 307.408 296)">状態</text><path d="M305 323.867 333 323.867 333 355.166 322.312 365.85 305 365.85Z" fill="#FFF2CC" fill-rule="evenodd"/><path d="M322.312 365.85 324.449 357.303 333 355.166Z" fill="#CDC3A4" fill-rule="evenodd"/><path d="M322.312 365.85 324.449 357.303 333 355.166 322.312 365.85 305 365.85 305 323.867 333 323.867 333 355.166" stroke="#172C51" stroke-width="2.00082" stroke-miterlimit="8" fill="none" fill-rule="evenodd"/><text font-family="Yu Gothic,Yu Gothic_MSFontService,sans-serif" font-weight="700" font-size="12" transform="matrix(1 0 0 0.99959 307.408 336)">正解</text><text font-family="Yu Gothic,Yu Gothic_MSFontService,sans-serif" font-weight="700" font-size="12" transform="matrix(1 0 0 0.99959 307.408 350)">行動</text><path d="M263 318.869 284.976 318.869 284.976 345.005 283.976 344.005 298.283 344.005 298.283 346.005 282.976 346.005 282.976 319.869 283.976 320.869 263 320.869ZM296.949 341.005 304.952 345.005 296.949 349.005Z"/><path d="M0-1 21.9675-1 21.9675 22.4026 20.9675 21.4026 35.2683 21.4026 35.2683 23.4026 19.9675 23.4026 19.9675 0 20.9675 1 0 1ZM33.935 18.4026 41.935 22.4026 33.935 26.4026Z" transform="matrix(1.00041 0 0 -1 263 319.281)"/><path d="M360 288.382C360 285.897 362.015 283.884 364.5 283.884L427.5 283.884C429.985 283.884 432 285.897 432 288.382L432 306.374C432 308.859 429.985 310.872 427.5 310.872L364.5 310.872C362.015 310.872 360 308.859 360 306.374Z" stroke="#172C51" stroke-width="2.00082" stroke-miterlimit="8" fill="#DEEBF7" fill-rule="evenodd"/><text font-family="Yu Gothic,Yu Gothic_MSFontService,sans-serif" font-weight="700" font-size="12" transform="matrix(1 0 0 0.99959 360.261 293)">エージェント</text><text font-family="Calibri,Calibri_MSFontService,sans-serif" font-weight="700" font-size="12" transform="matrix(1 0 0 0.99959 377.848 308)">(Policy)</text><path d="M456 278.886 484 278.886 484 304.187 473.312 314.871 456 314.871Z" fill="#DEEBF7" fill-rule="evenodd"/><path d="M473.312 314.871 475.449 306.324 484 304.187Z" fill="#B2BDC7" fill-rule="evenodd"/><path d="M473.312 314.871 475.449 306.324 484 304.187 473.312 314.871 456 314.871 456 278.886 484 278.886 484 304.187" stroke="#172C51" stroke-width="2.00082" stroke-miterlimit="8" fill="none" fill-rule="evenodd"/><text font-family="Yu Gothic,Yu Gothic_MSFontService,sans-serif" font-weight="700" font-size="13.3333" transform="matrix(1 0 0 0.99959 456.595 295)">行動</text><path d="M0.0120149-0.999928 20.3007-0.756143 20.2767 1.24371-0.0120149 0.999928ZM19.0035-3.77195 26.9549 0.323885 18.9074 4.22748Z" transform="matrix(1.00041 0 0 -1 333 297.202)"/><path d="M432 295.878 449.093 295.878 449.093 297.878 432 297.878ZM447.759 292.878 455.762 296.878 447.759 300.878Z"/><path d="M571 299.377C571 296.893 573.015 294.879 575.5 294.879L637.5 294.879C639.985 294.879 642 296.893 642 299.377L642 317.37C642 319.854 639.985 321.868 637.5 321.868L575.5 321.868C573.015 321.868 571 319.854 571 317.37Z" stroke="#172C51" stroke-width="2.00082" stroke-miterlimit="8" fill="#DEEBF7" fill-rule="evenodd"/><text font-family="Yu Gothic,Yu Gothic_MSFontService,sans-serif" font-weight="700" font-size="14.6667" transform="matrix(1 0 0 0.99959 584.369 313)">識別器</text><path d="M513 296.878C513 293.014 515.91 289.881 519.5 289.881 523.09 289.881 526 293.014 526 296.878 526 300.743 523.09 303.875 519.5 303.875 515.91 303.875 513 300.743 513 296.878Z" stroke="#172C51" stroke-width="2.00082" stroke-miterlimit="8" fill="none" fill-rule="evenodd"/><path d="M0.00759979-0.999971 22.1296-0.831844 22.1144 1.1681-0.00759979 0.999971ZM20.8191-3.84189 28.7885 0.218793 20.7583 4.15788Z" transform="matrix(1.00041 0 0 -1 484 297.097)"/><path d="M513 321.368C513 317.78 516.134 314.871 520 314.871 523.866 314.871 527 317.78 527 321.368 527 324.957 523.866 327.866 520 327.866 516.134 327.866 513 324.957 513 321.368Z" stroke="#172C51" stroke-width="2.00082" stroke-miterlimit="8" fill="none" fill-rule="evenodd"/><path d="M0-1 187.385-1 187.385 10.044 185.385 10.044 185.385 0 186.385 1 0 1ZM190.385 8.71066 186.385 16.7107 182.385 8.71066Z" transform="matrix(1.00041 0 0 -1 333 344.576)"/><path d="M539 308.374C539 304.785 541.91 301.876 545.5 301.876 549.09 301.876 552 304.785 552 308.374 552 311.962 549.09 314.871 545.5 314.871 541.91 314.871 539 311.962 539 308.374Z" stroke="#172C51" stroke-width="2.00082" stroke-miterlimit="8" fill="none" fill-rule="evenodd"/><path d="M552 308.873 570.512 308.893" stroke="#000000" stroke-width="2.00082" stroke-miterlimit="8" fill="none" fill-rule="evenodd"/><path d="M0 1-20.1951 1-19.1951 0-19.1951 286.847-20.1951 285.847 9.08577 285.847 9.08577 287.847-21.1951 287.847-21.1951-1 0-1ZM7.75244 282.847 15.7524 286.847 7.75244 290.847Z" transform="matrix(1.83772e-16 1 1.00041 -1.83697e-16 319 278.886)"/><path d="M538 307.874 517 302.876" stroke="#172C51" stroke-width="2.00082" stroke-miterlimit="8" fill="none" fill-rule="evenodd"/><path d="M20.9914 5.99759 0 0" stroke="#172C51" stroke-width="2" stroke-linecap="square" stroke-miterlimit="8" stroke-dasharray="6 2" fill="none" fill-rule="evenodd" transform="matrix(1.00041 0 0 -1 517 313.871)"/><path d="M668 284.883 704 284.883 704 318.127 690.258 331.864 668 331.864Z" fill="#DEEBF7" fill-rule="evenodd"/><path d="M690.258 331.864 693.006 320.874 704 318.127Z" fill="#B2BDC7" fill-rule="evenodd"/><path d="M690.258 331.864 693.006 320.874 704 318.127 690.258 331.864 668 331.864 668 284.883 704 284.883 704 318.127" stroke="#172C51" stroke-width="2.00082" stroke-miterlimit="8" fill="none" fill-rule="evenodd"/><text font-family="Yu Gothic,Yu Gothic_MSFontService,sans-serif" font-weight="700" font-size="12" transform="matrix(1 0 0 0.99959 671.84 298)">予測</text><text font-family="Calibri,Calibri_MSFontService,sans-serif" font-weight="700" font-size="12" transform="matrix(1 0 0 0.99959 695.849 298)">/</text><text font-family="Yu Gothic,Yu Gothic_MSFontService,sans-serif" font-weight="700" font-size="12" transform="matrix(1 0 0 0.99959 674.427 312)">正解</text><path d="M642.01 307.873 661.541 308.059 661.522 310.059 641.99 309.873ZM660.235 305.046 668.2 309.122 660.159 313.046Z"/><path d="M360 252.896C360 247.652 362.088 243.4 364.664 243.4L391.336 243.4C393.912 243.4 396 239.149 396 233.904 396 239.149 398.088 243.4 400.664 243.4L427.336 243.4C429.912 243.4 432 247.652 432 252.896" stroke="#000000" stroke-width="2" stroke-miterlimit="8" fill="none" fill-rule="evenodd"/><path d="M568 284.883C568 279.639 570.088 275.387 572.664 275.387L613.55 275.387C616.125 275.387 618.214 271.135 618.214 265.891 618.214 271.135 620.302 275.387 622.877 275.387L635.336 275.387C637.912 275.387 640 279.639 640 284.883" stroke="#000000" stroke-width="2" stroke-miterlimit="8" fill="none" fill-rule="evenodd"/><path d="M0-1 69.2802-1 69.2802 291.034 57.7937 291.034 57.7937 289.034 68.2802 289.034 67.2802 290.034 67.2802 0 68.2802 1 0 1ZM59.127 294.034 51.127 290.034 59.127 286.034Z" transform="matrix(-1.83772e-16 -1 -1.00041 1.83697e-16 686.153 285.031)"/><path d="M0-1 66.9729-1 66.9729 20.3222 64.9729 20.3222 64.9729 0 65.9729 1 0 1ZM69.9729 18.9889 65.9729 26.9889 61.9729 18.9889Z" transform="matrix(-1.00041 0 0 1 686 237.902)"/><path d="M197 217.005C197 208.672 203.758 201.917 212.094 201.917L703.906 201.917C712.242 201.917 719 208.672 719 217.005L719 357.759C719 366.092 712.242 372.847 703.906 372.847L212.094 372.847C203.758 372.847 197 366.092 197 357.759Z" stroke="#BFBFBF" stroke-width="2.00082" stroke-miterlimit="8" fill="none" fill-rule="evenodd"/><rect x="234" y="187.923" width="316" height="24.9897" fill="#FFFFFF"/><text font-family="Calibri,Calibri_MSFontService,sans-serif" font-weight="700" font-size="13.3333" transform="matrix(1 0 0 0.99959 243.54 204)">GAIL:</text><text font-family="Calibri,Calibri_MSFontService,sans-serif" font-weight="700" font-size="13.3333" transform="matrix(1 0 0 0.99959 275.887 204)">Generative</text><text font-family="Calibri,Calibri_MSFontService,sans-serif" font-weight="700" font-size="13.3333" transform="matrix(1 0 0 0.99959 340.08 204)">Adversarial</text><text font-family="Calibri,Calibri_MSFontService,sans-serif" font-weight="700" font-size="13.3333" transform="matrix(1 0 0 0.99959 405.607 204)">Imitation</text><text font-family="Calibri,Calibri_MSFontService,sans-serif" font-weight="700" font-size="13.3333" transform="matrix(1 0 0 0.99959 459.796 204)">Learning</text><path d="M193 551.774C186.096 551.774 180.5 549.027 180.5 545.64L180.5 297.014C180.5 293.627 174.903 290.881 167.999 290.881 174.903 290.881 180.5 288.134 180.5 284.747L180.5 36.1214C180.5 32.7338 186.096 29.9877 193 29.9877" stroke="#000000" stroke-width="2.00082" stroke-miterlimit="8" fill="none" fill-rule="evenodd"/><path d="M516 437.82C516 434.508 526.297 431.823 539 431.823 551.703 431.823 562 434.508 562 437.82L562 461.811C562 465.123 551.703 467.808 539 467.808 526.297 467.808 516 465.123 516 461.811Z" fill="#FFF2CC" fill-rule="evenodd"/><path d="M562 437.82C562 441.133 551.703 443.818 539 443.818 526.297 443.818 516 441.133 516 437.82" stroke="#172C51" stroke-width="2.00082" stroke-miterlimit="8" fill="none" fill-rule="evenodd"/><path d="M516 437.82C516 434.508 526.297 431.823 539 431.823 551.703 431.823 562 434.508 562 437.82L562 461.811C562 465.123 551.703 467.808 539 467.808 526.297 467.808 516 465.123 516 461.811Z" stroke="#172C51" stroke-width="2.00082" stroke-miterlimit="8" fill="none" fill-rule="evenodd"/><text font-family="Calibri,Calibri_MSFontService,sans-serif" font-weight="700" font-size="13.3333" transform="matrix(1 0 0 0.99959 518.126 457)">dataset</text><path d="M588 431.823 616 431.823 616 457.124 605.312 467.808 588 467.808Z" fill="#FFF2CC" fill-rule="evenodd"/><path d="M605.312 467.808 607.449 459.261 616 457.124Z" fill="#CDC3A4" fill-rule="evenodd"/><path d="M605.312 467.808 607.449 459.261 616 457.124 605.312 467.808 588 467.808 588 431.823 616 431.823 616 457.124" stroke="#172C51" stroke-width="2.00082" stroke-miterlimit="8" fill="none" fill-rule="evenodd"/><text font-family="Yu Gothic,Yu Gothic_MSFontService,sans-serif" font-weight="700" font-size="12" transform="matrix(1 0 0 0.99959 589.886 448)">状態</text><path d="M643 441.319C643 438.835 645.015 436.821 647.5 436.821L710.5 436.821C712.985 436.821 715 438.835 715 441.319L715 459.311C715 461.796 712.985 463.81 710.5 463.81L647.5 463.81C645.015 463.81 643 461.796 643 459.311Z" stroke="#172C51" stroke-width="2.00082" stroke-miterlimit="8" fill="#FFF2CC" fill-rule="evenodd"/><text font-family="Yu Gothic,Yu Gothic_MSFontService,sans-serif" font-weight="700" font-size="12" transform="matrix(1 0 0 0.99959 660.746 453)">熟練者</text><path d="M738 431.823 766 431.823 766 457.124 755.312 467.808 738 467.808Z" fill="#FFF2CC" fill-rule="evenodd"/><path d="M755.312 467.808 757.449 459.261 766 457.124Z" fill="#CDC3A4" fill-rule="evenodd"/><path d="M755.312 467.808 757.449 459.261 766 457.124 755.312 467.808 738 467.808 738 431.823 766 431.823 766 457.124" stroke="#172C51" stroke-width="2.00082" stroke-miterlimit="8" fill="none" fill-rule="evenodd"/><text font-family="Yu Gothic,Yu Gothic_MSFontService,sans-serif" font-weight="700" font-size="13.3333" transform="matrix(1 0 0 0.99959 739.074 448)">行動</text><path d="M616 448.816 636.296 448.816 636.296 450.816 616 450.816ZM634.963 445.816 642.966 449.816 634.963 453.816Z"/><path d="M715 448.816 732.093 448.816 732.093 450.816 715 450.816ZM730.759 445.816 738.762 449.816 730.759 453.816Z"/><path d="M562 448.816 581.026 448.816 581.026 450.816 562 450.816ZM579.692 445.816 587.695 449.816 579.692 453.816Z"/><path d="M501 413.159C501 405.801 506.967 399.836 514.329 399.836L786.671 399.836C794.032 399.836 800 405.801 800 413.159L800 537.451C800 544.809 794.032 550.774 786.671 550.774L514.329 550.774C506.967 550.774 501 544.809 501 537.451Z" stroke="#BFBFBF" stroke-width="2.00082" stroke-miterlimit="8" fill="none" fill-rule="evenodd"/><rect x="532" y="379.844" width="220" height="41.9828" fill="#FFFFFF"/><text font-family="Calibri,Calibri_MSFontService,sans-serif" font-weight="700" font-size="13.3333" transform="matrix(1 0 0 0.99959 541.323 397)">IRL:</text><text font-family="Calibri,Calibri_MSFontService,sans-serif" font-weight="700" font-size="13.3333" transform="matrix(1 0 0 0.99959 564.666 397)">Inverse</text><text font-family="Calibri,Calibri_MSFontService,sans-serif" font-weight="700" font-size="13.3333" transform="matrix(1 0 0 0.99959 608.017 397)">Reinforcement</text><text font-family="Calibri,Calibri_MSFontService,sans-serif" font-weight="700" font-size="13.3333" transform="matrix(1 0 0 0.99959 693.219 397)">Learning</text><text font-family="Calibri,Calibri_MSFontService,sans-serif" font-weight="700" font-size="13.3333" transform="matrix(1 0 0 0.99959 541.323 413)">(</text><text font-family="Yu Gothic,Yu Gothic_MSFontService,sans-serif" font-weight="700" font-size="13.3333" transform="matrix(1 0 0 0.99959 545.492 413)">逆強化学習</text><text font-family="Calibri,Calibri_MSFontService,sans-serif" font-weight="700" font-size="13.3333" transform="matrix(1 0 0 0.99959 612.186 413)">)</text><path d="M740 493.797 776 493.797 776 527.042 762.258 540.778 740 540.778Z" fill="#DEEBF7" fill-rule="evenodd"/><path d="M762.258 540.778 765.006 529.789 776 527.042Z" fill="#B2BDC7" fill-rule="evenodd"/><path d="M762.258 540.778 765.006 529.789 776 527.042 762.258 540.778 740 540.778 740 493.797 776 493.797 776 527.042" stroke="#172C51" stroke-width="2.00082" stroke-miterlimit="8" fill="none" fill-rule="evenodd"/><text font-family="Yu Gothic,Yu Gothic_MSFontService,sans-serif" font-weight="700" font-size="12" transform="matrix(1 0 0 0.99959 745.545 514)">報酬</text><path d="M636 508.292C636 505.807 638.015 503.793 640.5 503.793L702.5 503.793C704.985 503.793 707 505.807 707 508.292L707 526.284C707 528.768 704.985 530.782 702.5 530.782L640.5 530.782C638.015 530.782 636 528.768 636 526.284Z" stroke="#172C51" stroke-width="2.00082" stroke-miterlimit="8" fill="#DEEBF7" fill-rule="evenodd"/><text font-family="Yu Gothic,Yu Gothic_MSFontService,sans-serif" font-weight="700" font-size="12" transform="matrix(1 0 0 0.99959 641.408 521)">報酬予測器</text><path d="M707.001 516.788 732.61 516.806 732.609 518.806 706.999 518.788ZM731.279 513.805 739.279 517.811 731.273 521.805Z"/><text fill="#FF0000" font-family="Yu Gothic,Yu Gothic_MSFontService,sans-serif" font-weight="700" font-size="13.3333" transform="matrix(1 0 0 0.99959 403.135 68)">学習</text><text fill="#FF0000" font-family="Yu Gothic,Yu Gothic_MSFontService,sans-serif" font-weight="700" font-size="13.3333" transform="matrix(1 0 0 0.99959 402.683 235)">学習</text><text fill="#FF0000" font-family="Yu Gothic,Yu Gothic_MSFontService,sans-serif" font-weight="700" font-size="13.3333" transform="matrix(1 0 0 0.99959 626.318 265)">学習</text><text fill="#FF0000" font-family="Yu Gothic,Yu Gothic_MSFontService,sans-serif" font-weight="700" font-size="13.3333" transform="matrix(1 0 0 0.99959 384.389 481)">学習</text><path d="M0-1 60.9754-1 60.9754 26.3198 58.9754 26.3198 58.9754 0 59.9754 1 0 1ZM63.9754 24.9865 59.9754 32.9865 55.9754 24.9865Z" transform="matrix(1.83772e-16 1 1.00041 -1.83697e-16 603 467.808)"/><path d="M754 465.809 754 478.649 613 478.649 614 477.649 614 512.258 613.018 511.259 617.707 511.342 622.796 511.525 622.792 511.525 625.885 511.622 625.822 513.621 622.727 513.523 617.644 513.341 617.662 513.341 612 513.241 612 476.649 753 476.649 752 477.649 752 465.809ZM624.621 508.589 632.521 512.79 624.419 516.586Z" fill="#172C51"/><text fill="#FF0000" font-family="Yu Gothic,Yu Gothic_MSFontService,sans-serif" font-weight="700" font-size="13.3333" transform="matrix(1 0 0 0.99959 659.675 500)">学習</text><path d="M97.0564 418.328 94.6673 413.38 95.8277 411.043 94.0529 409.874 93.5069 407.468 89.07 407.881 87.5 404.238 90.2304 399.083 89.6161 396.471 91.3908 395.096 89.4113 392.691 91.2543 390.285 92.5512 393.103 94.1212 391.935 94.7355 392.072 97.6024 389.941 95.8959 388.704 95.0086 390.835 93.0973 391.11 92.2099 389.872 94.0529 388.223 95.8277 384.511 100.265 386.642 102.858 383.343C108.774 387.925 112.164 395.257 111.391 404.719 110.094 403.253 108.524 400.893 107.5 400.32 106.476 399.747 104.315 399.759 104.155 400.114L106.544 402.451 103.951 405.063 104.428 406.644 101.903 409.324 101.903 411.867 100.469 414.685 98.3533 417.916 97.0564 418.328Z" stroke="#172C51" stroke-width="1.33388" stroke-miterlimit="8" fill-rule="evenodd"/><path d="M91.5 378.456 89.1364 381.004 88.5107 384.035 88.2326 386.79 85.0348 387.548C83.9341 388.122 83.2273 390.912 81.6283 390.235 80.0294 389.557 82.9376 386.067 82.9492 384.724L81.6979 382.175 82.3931 379.558 80.0294 381.624 78.5 379.144C80.6783 377.744 86.402 376.274 91.5 378.456Z" stroke="#172C51" stroke-width="1.33388" stroke-miterlimit="8" fill-rule="evenodd"/><path d="M80.2349 424.271 77.9331 420.476 76.5114 415.205 72.7878 411.409 72.9232 408.317 68.9966 405.857 66.0854 403.538 66.0854 401.991 63.8513 403.397C61.7751 396.556 69.3125 381.914 75.6989 380.344L77.5946 382.171 80.5734 382.593 81.0473 386.037 80.0995 388.075 78.1362 387.724 78.5424 386.81 78.7455 385.053 76.6468 387.091 74.548 388.005 73.3294 389.27 74.9542 391.589 75.6312 390.887 76.2405 388.567 78.6101 389.2 80.5734 391.589 80.3026 394.822 79.5579 395.244 78.5424 393.628 77.3915 395.174 73.6679 398.126 72.517 401.499 74.0741 403.538 76.5114 404.311 74.7511 405.224 73.0586 404.311 70.8245 400.726 68.7935 401.148 68.5904 403.678 70.7568 403.538 71.9754 406.279 73.7356 406.49 75.902 406.208 79.4225 407.825 81.4535 409.933 84.5001 410.707 83.6876 412.604 84.0938 415.064 82.2659 416.259 82.4013 418.859 80.9119 420.546 82.1982 425.326 80.2349 424.271Z" stroke="#172C51" stroke-width="1.33388" stroke-miterlimit="8" fill-rule="evenodd"/><path d="M62 400.836C62 387.586 72.969 376.845 86.5 376.845 100.031 376.845 111 387.586 111 400.836 111 414.085 100.031 424.826 86.5 424.826 72.969 424.826 62 414.085 62 400.836Z" stroke="#172C51" stroke-width="4.00164" stroke-miterlimit="8" fill="none" fill-rule="evenodd"/><path d="M101.5 415.33 101.822 413.864C102.479 413.213 105.083 410.841 105.445 411.422 105.807 412.004 104.277 413.376 103.996 414.004L103.754 415.19 101.5 415.33Z" stroke="#172C51" stroke-width="1.33388" stroke-miterlimit="8" fill-rule="evenodd"/><text font-family="Yu Gothic,Yu Gothic_MSFontService,sans-serif" font-weight="700" font-size="13.3333" transform="matrix(1 0 0 0.99959 78.2121 445)">環境</text><path d="M50 326.2C50 322.703 52.8356 319.869 56.3335 319.869L114.666 319.869C118.164 319.869 121 322.703 121 326.2L121 351.522C121 355.019 118.164 357.853 114.666 357.853L56.3335 357.853C52.8356 357.853 50 355.019 50 351.522Z" stroke="#172C51" stroke-width="2.00082" stroke-miterlimit="8" fill="#DEEBF7" fill-rule="evenodd"/><text font-family="Yu Gothic,Yu Gothic_MSFontService,sans-serif" font-weight="700" font-size="12" transform="matrix(1 0 0 0.99959 49.5563 335)">エージェント</text><text font-family="Calibri,Calibri_MSFontService,sans-serif" font-weight="700" font-size="12" transform="matrix(1 0 0 0.99959 67.1435 350)">(Policy)</text><path d="M57 401.836 29.9996 401.836 29.9996 343.859 41.3488 343.859 41.3488 345.859 31 345.859 32.0004 344.859 32.0004 400.836 31 399.836 57 399.836ZM40.0149 340.859 48.0182 344.859 40.0149 348.859Z" fill="#172C51"/><path d="M19.3226 57.9767-1 57.9767-1-1 17.0112-1 17.0112 1 0 1 1 0 1 56.9767 0 55.9767 19.3226 55.9767ZM17.9893 52.9767 25.9893 56.9767 17.9893 60.9767Z" fill="#172C51" transform="matrix(-1.00041 0 0 1 142 342.859)"/><rect x="119" y="360.852" width="47.0001" height="25.9894" fill="#FFFFFF"/><text font-family="Yu Gothic,Yu Gothic_MSFontService,sans-serif" font-weight="700" font-size="13.3333" transform="matrix(1 0 0 0.99959 128.986 377)">行動</text><rect x="9.00002" y="360.852" width="46" height="25.9894" fill="#FFFFFF"/><text font-family="Yu Gothic,Yu Gothic_MSFontService,sans-serif" font-weight="700" font-size="13.3333" transform="matrix(1 0 0 0.99959 18.674 377)">状態</text><path d="M14 324.401C14 317.482 19.6118 311.872 26.5344 311.872L148.466 311.872C155.388 311.872 161 317.482 161 324.401L161 441.285C161 448.204 155.388 453.814 148.466 453.814L26.5344 453.814C19.6118 453.814 14 448.204 14 441.285Z" stroke="#BFBFBF" stroke-width="2.00082" stroke-miterlimit="8" fill="none" fill-rule="evenodd"/><path d="M80 292.88 86.0001 292.88 86.0001 274.887 98 274.887 98 292.88 104 292.88 92 304.875Z" stroke="#BFBFBF" stroke-width="2.00082" stroke-miterlimit="8" fill="#FFFFFF" fill-rule="evenodd"/><text fill="#FF0000" font-family="Yu Gothic,Yu Gothic_MSFontService,sans-serif" font-weight="700" font-size="13.3333" transform="matrix(1 0 0 0.99959 108.463 293)">学習</text><rect x="51" y="114.953" width="81" height="25.9893" fill="#FFFFFF"/><text font-family="Calibri,Calibri_MSFontService,sans-serif" font-weight="700" font-size="13.3333" transform="matrix(1 0 0 0.99959 60.5603 132)">(</text><text font-family="Yu Gothic,Yu Gothic_MSFontService,sans-serif" font-weight="700" font-size="13.3333" transform="matrix(1 0 0 0.99959 64.7286 132)">模倣学習</text><text font-family="Calibri,Calibri_MSFontService,sans-serif" font-weight="700" font-size="13.3333" transform="matrix(1 0 0 0.99959 118.084 132)">)</text><text font-family="Calibri,Calibri_MSFontService,sans-serif" font-weight="700" font-size="13.3333" transform="matrix(1 0 0 0.99959 33.0008 114)">IL:</text><text font-family="Calibri,Calibri_MSFontService,sans-serif" font-weight="700" font-size="13.3333" transform="matrix(1 0 0 0.99959 48.8407 114)">Imitation</text><text font-family="Calibri,Calibri_MSFontService,sans-serif" font-weight="700" font-size="13.3333" transform="matrix(1 0 0 0.99959 103.03 114)">Learning</text><path d="M698 34.4859C698 32.5537 699.567 30.9873 701.5 30.9873L715.5 30.9873C717.433 30.9873 719 32.5537 719 34.4859L719 48.4801C719 50.4123 717.433 51.9787 715.5 51.9787L701.5 51.9787C699.567 51.9787 698 50.4123 698 48.4801Z" stroke="#172C51" stroke-width="2.00082" stroke-miterlimit="8" fill="#FFF2CC" fill-rule="evenodd"/><text font-family="Yu Gothic,Yu Gothic_MSFontService,sans-serif" font-weight="700" font-size="13.3333" transform="matrix(1 0 0 0.99959 723.992 46)">学習</text><text font-family="Yu Gothic,Yu Gothic_MSFontService,sans-serif" font-weight="700" font-size="13.3333" transform="matrix(1 0 0 0.99959 750.67 46)">環境</text><path d="M698 62.4745C698 60.5422 699.567 58.9759 701.5 58.9759L715.5 58.9759C717.433 58.9759 719 60.5422 719 62.4745L719 76.4686C719 78.4008 717.433 79.9672 715.5 79.9672L701.5 79.9672C699.567 79.9672 698 78.4008 698 76.4686Z" stroke="#172C51" stroke-width="2.00082" stroke-miterlimit="8" fill="#DEEBF7" fill-rule="evenodd"/><text font-family="Yu Gothic,Yu Gothic_MSFontService,sans-serif" font-weight="700" font-size="13.3333" transform="matrix(1 0 0 0.99959 723.992 74)">学習対象</text></g></svg>