<svg width="764" height="302" xmlns="http://www.w3.org/2000/svg" xmlns:xlink="http://www.w3.org/1999/xlink" overflow="hidden"><defs><clipPath id="clip0"><rect x="0" y="0" width="764" height="302"/></clipPath></defs><g clip-path="url(#clip0)"><rect x="0" y="0" width="764" height="302.468" fill="#FFFFFF"/><path d="M5.49998 214.622C5.49998 195.602 52.9578 180.183 111.5 180.183 170.042 180.183 217.5 195.602 217.5 214.622 217.5 233.643 170.042 249.062 111.5 249.062 52.9578 249.062 5.49998 233.643 5.49998 214.622Z" stroke="#172C51" stroke-width="1.33421" stroke-miterlimit="8" fill="none" fill-rule="evenodd"/><text fill="#0A0A0A" font-family="Yu Gothic,Yu Gothic_MSFontService,sans-serif" font-weight="700" font-size="14.6505" transform="matrix(1 0 0 0.998244 23.3087 210)">ガレージのドアが開く音が</text><text fill="#0A0A0A" font-family="Yu Gothic,Yu Gothic_MSFontService,sans-serif" font-weight="700" font-size="14.6505" transform="matrix(1 0 0 0.998244 37.985 227)">して、犬が吠え始めた</text><path d="M320.5 214.622C320.5 197.256 350.497 183.178 387.5 183.178 424.503 183.178 454.5 197.256 454.5 214.622 454.5 231.989 424.503 246.067 387.5 246.067 350.497 246.067 320.5 231.989 320.5 214.622Z" stroke="#172C51" stroke-width="1.33421" stroke-miterlimit="8" fill="none" fill-rule="evenodd"/><text fill="#0A0A0A" font-family="Yu Gothic,Yu Gothic_MSFontService,sans-serif" font-weight="700" font-size="14.6505" transform="matrix(1 0 0 0.998244 335.49 219)">誰かが帰宅した</text><path d="M556.5 212.626C556.5 195.259 601.943 181.181 658 181.181 714.057 181.181 759.5 195.259 759.5 212.626 759.5 229.992 714.057 244.071 658 244.071 601.943 244.071 556.5 229.992 556.5 212.626Z" stroke="#172C51" stroke-width="1.33421" stroke-miterlimit="8" fill="none" fill-rule="evenodd"/><text fill="#0A0A0A" font-family="Yu Gothic,Yu Gothic_MSFontService,sans-serif" font-weight="700" font-size="14.6505" transform="matrix(1 0 0 0.998244 576.881 208)">その人がすぐにドアから</text><text fill="#0A0A0A" font-family="Yu Gothic,Yu Gothic_MSFontService,sans-serif" font-weight="700" font-size="14.6505" transform="matrix(1 0 0 0.998244 598.888 225)">入ってくるだろう</text><text font-family="Calibri,Calibri_MSFontService,sans-serif" font-weight="700" font-size="14.6505" transform="matrix(1 0 0 0.998244 236.976 179)">Reasoning</text><text font-family="Yu Gothic,Yu Gothic_MSFontService,sans-serif" font-weight="700" font-size="14.6505" transform="matrix(1 0 0 0.998244 253.741 196)">推論</text><text font-family="Calibri,Calibri_MSFontService,sans-serif" font-weight="700" font-size="14.6505" transform="matrix(1 0 0 0.998244 99.4584 154)">Fact</text><text font-family="Yu Gothic,Yu Gothic_MSFontService,sans-serif" font-weight="700" font-size="14.6505" transform="matrix(1 0 0 0.998244 96.7099 171)">事実</text><text font-family="Calibri,Calibri_MSFontService,sans-serif" font-weight="700" font-size="14.6505" transform="matrix(1 0 0 0.998244 357.387 155)">Inference</text><text font-family="Yu Gothic,Yu Gothic_MSFontService,sans-serif" font-weight="700" font-size="14.6505" transform="matrix(1 0 0 0.998244 371.476 172)">推測</text><text font-family="Calibri,Calibri_MSFontService,sans-serif" font-weight="700" font-size="14.6505" transform="matrix(1 0 0 0.998244 622.26 155)">Prediction</text><text font-family="Yu Gothic,Yu Gothic_MSFontService,sans-serif" font-weight="700" font-size="14.6505" transform="matrix(1 0 0 0.998244 638.851 172)">予測</text><path d="M227.5 206.886 304 206.886 304 201.146 315.5 212.626 304 224.106 304 218.366 227.5 218.366Z" stroke="#172C51" stroke-width="1.33421" stroke-miterlimit="8" fill="none" fill-rule="evenodd"/><path d="M463.5 206.886 539 206.886 539 201.146 550.5 212.626 539 224.106 539 218.366 463.5 218.366Z" stroke="#172C51" stroke-width="1.33421" stroke-miterlimit="8" fill="none" fill-rule="evenodd"/><text font-family="Calibri,Calibri_MSFontService,sans-serif" font-weight="700" font-size="14.6505" transform="matrix(1 0 0 0.998244 473.39 179)">Reasoning</text><text font-family="Yu Gothic,Yu Gothic_MSFontService,sans-serif" font-weight="700" font-size="14.6505" transform="matrix(1 0 0 0.998244 490.154 196)">推論</text><path d="M200.5 50.5781C200.5 40.5623 208.634 32.4429 218.667 32.4429L222 32.4429 222 32.4429 254.25 32.4429 311.333 32.4429C321.366 32.4429 329.5 40.5623 329.5 50.5781L329.5 95.9146 329.5 95.9146 329.5 123.117 329.5 123.116C329.5 133.132 321.366 141.251 311.333 141.251L254.25 141.251 264.678 164.235 222 141.251 218.667 141.251C208.634 141.251 200.5 133.132 200.5 123.116L200.5 123.117 200.5 95.9146 200.5 95.9146Z" stroke="#BFBFBF" stroke-width="1.33421" stroke-miterlimit="8" fill="#FFF2CC" fill-rule="evenodd"/><text font-family="Yu Gothic,Yu Gothic_MSFontService,sans-serif" font-weight="700" font-size="14.6505" transform="matrix(1 0 0 0.998244 205.937 56)">論理的なルールや</text><text font-family="Yu Gothic,Yu Gothic_MSFontService,sans-serif" font-weight="700" font-size="14.6505" transform="matrix(1 0 0 0.998244 213.269 73)">原理を用いて、</text><text font-family="Yu Gothic,Yu Gothic_MSFontService,sans-serif" font-weight="700" font-size="14.6505" transform="matrix(1 0 0 0.998244 213.269 91)">既知の情報から</text><text fill="#0000FF" font-family="Yu Gothic,Yu Gothic_MSFontService,sans-serif" font-weight="700" font-size="14.6505" transform="matrix(1 0 0 0.998244 220.607 108)">新しい情報を</text><text fill="#0000FF" font-family="Yu Gothic,Yu Gothic_MSFontService,sans-serif" font-weight="700" font-size="14.6505" transform="matrix(1 0 0 0.998244 205.937 126)">導き出すプロセス</text><path d="M368.5 24.4573C368.5 15.0848 376.111 7.48685 385.5 7.48685L393.5 7.48685 393.5 7.48685 431 7.48685 501.5 7.48685C510.889 7.48685 518.5 15.0848 518.5 24.4573L518.5 66.8823 518.5 66.8823 518.5 92.3375 518.5 92.3372C518.5 101.71 510.889 109.308 501.5 109.308L431 109.308 379.961 136.205 393.5 109.308 385.5 109.308C376.111 109.308 368.5 101.71 368.5 92.3372L368.5 92.3375 368.5 66.8823 368.5 66.8823Z" stroke="#BFBFBF" stroke-width="1.33421" stroke-miterlimit="8" fill="#FFF2CC" fill-rule="evenodd"/><text font-family="Yu Gothic,Yu Gothic_MSFontService,sans-serif" font-weight="700" font-size="14.6505" transform="matrix(1 0 0 0.998244 399.019 28)">既知の事実や</text><text font-family="Yu Gothic,Yu Gothic_MSFontService,sans-serif" font-weight="700" font-size="14.6505" transform="matrix(1 0 0 0.998244 384.343 45)">証拠に基づいて、</text><text fill="#0000FF" font-family="Yu Gothic,Yu Gothic_MSFontService,sans-serif" font-weight="700" font-size="14.6505" transform="matrix(1 0 0 0.998244 377.005 63)">直接的に述べられて</text><text fill="#0000FF" font-family="Yu Gothic,Yu Gothic_MSFontService,sans-serif" font-weight="700" font-size="14.6505" transform="matrix(1 0 0 0.998244 377.005 80)">いない事柄</text><text font-family="Yu Gothic,Yu Gothic_MSFontService,sans-serif" font-weight="700" font-size="14.6505" transform="matrix(1 0 0 0.998244 450.386 80)">について</text><text font-family="Yu Gothic,Yu Gothic_MSFontService,sans-serif" font-weight="700" font-size="14.6505" transform="matrix(1 0 0 0.998244 377.005 98)">結論を導き出すこと</text><path d="M570.5 36.4362C570.5 28.7176 576.768 22.4605 584.5 22.4605L595.5 22.4605 595.5 22.4605 633 22.4605 706.5 22.4605C714.232 22.4605 720.5 28.7176 720.5 36.4362L720.5 71.3744 720.5 71.3744 720.5 92.3376 720.5 92.3372C720.5 100.056 714.232 106.313 706.5 106.313L633 106.313 639.087 136.866 595.5 106.313 584.5 106.313C576.768 106.313 570.5 100.056 570.5 92.3372L570.5 92.3376 570.5 71.3744 570.5 71.3744Z" stroke="#BFBFBF" stroke-width="1.33421" stroke-miterlimit="8" fill="#FFF2CC" fill-rule="evenodd"/><text font-family="Yu Gothic,Yu Gothic_MSFontService,sans-serif" font-weight="700" font-size="14.6505" transform="matrix(1 0 0 0.998244 579.2 43)">既存の知識、経験、</text><text font-family="Yu Gothic,Yu Gothic_MSFontService,sans-serif" font-weight="700" font-size="14.6505" transform="matrix(1 0 0 0.998244 586.538 60)">証拠に基づいて、</text><text fill="#0000FF" font-family="Yu Gothic,Yu Gothic_MSFontService,sans-serif" font-weight="700" font-size="14.6505" transform="matrix(1 0 0 0.998244 579.2 78)">未来に何が起こるか</text><text font-family="Yu Gothic,Yu Gothic_MSFontService,sans-serif" font-weight="700" font-size="14.6505" transform="matrix(1 0 0 0.998244 593.876 95)">を予想すること</text><text fill="#FF66FF" font-family="Yu Gothic,Yu Gothic_MSFontService,sans-serif" font-weight="700" font-size="14.6505" transform="matrix(1 0 0 0.998244 240.497 242)">プロセス</text><text fill="#FF66FF" font-family="Yu Gothic,Yu Gothic_MSFontService,sans-serif" font-weight="700" font-size="14.6505" transform="matrix(1 0 0 0.998244 469.91 242)">プロセス</text><text fill="#FF66FF" font-family="Yu Gothic,Yu Gothic_MSFontService,sans-serif" font-weight="700" font-size="14.6505" transform="matrix(1 0 0 0.998244 364.842 269)">タスク</text><text font-family="Calibri,Calibri_MSFontService,sans-serif" font-weight="700" font-size="14.6505" transform="matrix(1 0 0 0.998244 330.987 286)">(</text><text font-family="Yu Gothic,Yu Gothic_MSFontService,sans-serif" font-weight="700" font-size="14.6505" transform="matrix(1 0 0 0.998244 335.49 286)">タスクの成果物</text><text font-family="Calibri,Calibri_MSFontService,sans-serif" font-weight="700" font-size="14.6505" transform="matrix(1 0 0 0.998244 438.224 286)">)</text><text fill="#FF66FF" font-family="Yu Gothic,Yu Gothic_MSFontService,sans-serif" font-weight="700" font-size="14.6505" transform="matrix(1 0 0 0.998244 639.762 267)">タスク</text><text font-family="Calibri,Calibri_MSFontService,sans-serif" font-weight="700" font-size="14.6505" transform="matrix(1 0 0 0.998244 605.907 284)">(</text><text font-family="Yu Gothic,Yu Gothic_MSFontService,sans-serif" font-weight="700" font-size="14.6505" transform="matrix(1 0 0 0.998244 610.41 284)">タスクの成果物</text><text font-family="Calibri,Calibri_MSFontService,sans-serif" font-weight="700" font-size="14.6505" transform="matrix(1 0 0 0.998244 713.144 284)">)</text></g></svg>