<svg width="737" height="253" xmlns="http://www.w3.org/2000/svg" xmlns:xlink="http://www.w3.org/1999/xlink" overflow="hidden"><g><rect x="0" y="0" width="737" height="252.833" fill="#FFFFFF"/><path d="M35.5001 130.414C35.5001 127.103 45.7975 124.418 58.5001 124.418 71.2026 124.418 81.5 127.103 81.5 130.414L81.5 154.398C81.5 157.71 71.2026 160.394 58.5001 160.394 45.7975 160.394 35.5001 157.71 35.5001 154.398Z" fill="#FFF2CC" fill-rule="evenodd"/><path d="M81.5 130.414C81.5 133.726 71.2026 136.41 58.5001 136.41 45.7975 136.41 35.5001 133.726 35.5001 130.414" stroke="#172C51" stroke-width="1.33333" stroke-miterlimit="8" fill="none" fill-rule="evenodd"/><path d="M35.5001 130.414C35.5001 127.103 45.7975 124.418 58.5001 124.418 71.2026 124.418 81.5 127.103 81.5 130.414L81.5 154.398C81.5 157.71 71.2026 160.394 58.5001 160.394 45.7975 160.394 35.5001 157.71 35.5001 154.398Z" stroke="#172C51" stroke-width="1.33333" stroke-miterlimit="8" fill="none" fill-rule="evenodd"/><text font-family="Calibri,Calibri_MSFontService,sans-serif" font-weight="700" font-size="13.3246" transform="matrix(1 0 0 0.999342 37.4055 149)">dataset</text><path d="M107.5 124.418 135.5 124.418 135.5 149.713 124.812 160.394 107.5 160.394Z" fill="#FFF2CC" fill-rule="evenodd"/><path d="M124.812 160.394 126.949 151.849 135.5 149.713Z" fill="#CDC3A4" fill-rule="evenodd"/><path d="M124.812 160.394 126.949 151.849 135.5 149.713 124.812 160.394 107.5 160.394 107.5 124.418 135.5 124.418 135.5 149.713" stroke="#172C51" stroke-width="1.33333" stroke-miterlimit="8" fill="none" fill-rule="evenodd"/><text font-family="Yu Gothic,Yu Gothic_MSFontService,sans-serif" font-weight="700" font-size="11.9921" transform="matrix(1 0 0 0.999342 109.136 140)">状態</text><path d="M162.5 130.414C162.5 127.103 165.186 124.418 168.5 124.418L228.5 124.418C231.814 124.418 234.5 127.103 234.5 130.414L234.5 154.398C234.5 157.71 231.814 160.394 228.5 160.394L168.5 160.394C165.186 160.394 162.5 157.71 162.5 154.398Z" stroke="#172C51" stroke-width="1.33333" stroke-miterlimit="8" fill="#DEEBF7" fill-rule="evenodd"/><text font-family="Yu Gothic,Yu Gothic_MSFontService,sans-serif" font-weight="700" font-size="11.9921" transform="matrix(1 0 0 0.999342 161.967 138)">エージェント</text><text font-family="Calibri,Calibri_MSFontService,sans-serif" font-weight="700" font-size="11.9921" transform="matrix(1 0 0 0.999342 179.547 153)">(Policy)</text><path d="M258.5 124.418 286.5 124.418 286.5 149.713 275.812 160.394 258.5 160.394Z" fill="#DEEBF7" fill-rule="evenodd"/><path d="M275.812 160.394 277.949 151.849 286.5 149.713Z" fill="#B2BDC7" fill-rule="evenodd"/><path d="M275.812 160.394 277.949 151.849 286.5 149.713 275.812 160.394 258.5 160.394 258.5 124.418 286.5 124.418 286.5 149.713" stroke="#172C51" stroke-width="1.33333" stroke-miterlimit="8" fill="none" fill-rule="evenodd"/><text font-family="Yu Gothic,Yu Gothic_MSFontService,sans-serif" font-weight="700" font-size="13.3246" transform="matrix(1 0 0 0.999342 258.262 140)">行動</text><path d="M135.5 141.74 155.788 141.74 155.788 143.073 135.5 143.072ZM154.455 138.409 162.455 142.406 154.455 146.404Z"/><path d="M234.5 141.74 251.586 141.74 251.586 143.073 234.5 143.072ZM250.252 138.409 258.252 142.406 250.252 146.404Z"/><path d="M81.5001 141.74 100.518 141.74 100.518 143.073 81.5001 143.072ZM99.1848 138.409 107.185 142.406 99.1848 146.404Z"/><path d="M162.5 122.419C162.5 117.176 164.588 112.926 167.164 112.926L193.836 112.926C196.412 112.926 198.5 108.675 198.5 103.432 198.5 108.675 200.588 112.926 203.164 112.926L229.836 112.926C232.412 112.926 234.5 117.176 234.5 122.419" stroke="#000000" stroke-width="1.33246" stroke-miterlimit="8" fill="none" fill-rule="evenodd"/><path d="M10 37.3042C10 29.9478 15.9675 23.9842 23.3288 23.9842L280.671 23.9842C288.032 23.9842 294 29.9478 294 37.3042L294 161.565C294 168.921 288.032 174.885 280.671 174.885L23.3288 174.885C15.9675 174.885 10 168.921 10 161.565Z" stroke="#BFBFBF" stroke-width="2" stroke-miterlimit="8" fill="none" fill-rule="evenodd"/><rect x="34" y="11.9921" width="240" height="25.9829" fill="#FFFFFF"/><text font-family="Calibri,Calibri_MSFontService,sans-serif" font-weight="700" font-size="13.3246" transform="matrix(1 0 0 0.999342 43.8661 28)">RL:</text><text font-family="Calibri,Calibri_MSFontService,sans-serif" font-weight="700" font-size="13.3246" transform="matrix(1 0 0 0.999342 63.6995 28)">Reinforcement</text><text font-family="Calibri,Calibri_MSFontService,sans-serif" font-weight="700" font-size="13.3246" transform="matrix(1 0 0 0.999342 148.866 28)">Learning</text><text font-family="Calibri,Calibri_MSFontService,sans-serif" font-weight="700" font-size="13.3246" transform="matrix(1 0 0 0.999342 199.366 28)">(</text><text font-family="Yu Gothic,Yu Gothic_MSFontService,sans-serif" font-weight="700" font-size="13.3246" transform="matrix(1 0 0 0.999342 203.533 28)">強化学習</text><text font-family="Calibri,Calibri_MSFontService,sans-serif" font-weight="700" font-size="13.3246" transform="matrix(1 0 0 0.999342 256.866 28)">)</text><path d="M307 42.5678C307 31.7524 315.773 22.9849 326.596 22.9849L585.404 22.9849C596.227 22.9849 605 31.7524 605 42.5678L605 225.256C605 236.071 596.227 244.839 585.404 244.839L326.596 244.839C315.773 244.839 307 236.071 307 225.256Z" stroke="#BFBFBF" stroke-width="2" stroke-miterlimit="8" fill="none" fill-rule="evenodd"/><rect x="337" y="2.99802" width="221" height="41.9724" fill="#FFFFFF"/><text font-family="Calibri,Calibri_MSFontService,sans-serif" font-weight="700" font-size="13.3246" transform="matrix(1 0 0 0.999342 346.743 20)">IRL:</text><text font-family="Calibri,Calibri_MSFontService,sans-serif" font-weight="700" font-size="13.3246" transform="matrix(1 0 0 0.999342 370.076 20)">Inverse</text><text font-family="Calibri,Calibri_MSFontService,sans-serif" font-weight="700" font-size="13.3246" transform="matrix(1 0 0 0.999342 413.41 20)">Reinforcement</text><text font-family="Calibri,Calibri_MSFontService,sans-serif" font-weight="700" font-size="13.3246" transform="matrix(1 0 0 0.999342 498.576 20)">Learning</text><text font-family="Calibri,Calibri_MSFontService,sans-serif" font-weight="700" font-size="13.3246" transform="matrix(1 0 0 0.999342 346.743 36)">(</text><text font-family="Yu Gothic,Yu Gothic_MSFontService,sans-serif" font-weight="700" font-size="13.3246" transform="matrix(1 0 0 0.999342 350.91 36)">逆強化学習</text><text font-family="Calibri,Calibri_MSFontService,sans-serif" font-weight="700" font-size="13.3246" transform="matrix(1 0 0 0.999342 417.576 36)">)</text><text fill="#FF0000" font-family="Yu Gothic,Yu Gothic_MSFontService,sans-serif" font-weight="700" font-size="13.3246" transform="matrix(1 0 0 0.999342 203.691 104)">学習</text><path d="M615.5 58.9613C615.5 57.0295 617.067 55.4635 619 55.4635L633 55.4635C634.933 55.4635 636.5 57.0295 636.5 58.9613L636.5 72.9519C636.5 74.8837 634.933 76.4497 633 76.4497L619 76.4497C617.067 76.4497 615.5 74.8837 615.5 72.9519Z" stroke="#172C51" stroke-width="1.33333" stroke-miterlimit="8" fill="#FFF2CC" fill-rule="evenodd"/><text font-family="Yu Gothic,Yu Gothic_MSFontService,sans-serif" font-weight="700" font-size="13.3246" transform="matrix(1 0 0 0.999342 640.227 71)">学習環境</text><path d="M615.5 85.9435C615.5 84.0117 617.067 82.4457 619 82.4457L633 82.4457C634.933 82.4457 636.5 84.0117 636.5 85.9435L636.5 99.9342C636.5 101.866 634.933 103.432 633 103.432L619 103.432C617.067 103.432 615.5 101.866 615.5 99.9342Z" stroke="#172C51" stroke-width="1.33333" stroke-miterlimit="8" fill="#DEEBF7" fill-rule="evenodd"/><text font-family="Calibri,Calibri_MSFontService,sans-serif" font-weight="700" font-size="13.3246" transform="matrix(1 0 0 0.999342 642.169 97)">Policy</text><text font-family="Yu Gothic,Yu Gothic_MSFontService,sans-serif" font-weight="700" font-size="13.3246" transform="matrix(1 0 0 0.999342 675.003 97)">関連</text><path d="M615.5 31.9791C615.5 30.0473 617.067 28.4813 619 28.4813L633 28.4813C634.933 28.4813 636.5 30.0473 636.5 31.9791L636.5 45.9697C636.5 47.9015 634.933 49.4675 633 49.4675L619 49.4675C617.067 49.4675 615.5 47.9015 615.5 45.9697Z" stroke="#172C51" stroke-width="1.33333" stroke-miterlimit="8" fill="#FFCCFF" fill-rule="evenodd"/><text font-family="Yu Gothic,Yu Gothic_MSFontService,sans-serif" font-weight="700" font-size="13.3246" transform="matrix(1 0 0 0.999342 640.711 43)">熟練者スキル</text><path d="M373.5 111.593C373.5 108.19 383.798 105.431 396.5 105.431 409.203 105.431 419.5 108.19 419.5 111.593L419.5 136.244C419.5 139.647 409.203 142.406 396.5 142.406 383.798 142.406 373.5 139.647 373.5 136.244Z" fill="#FFF2CC" fill-rule="evenodd"/><path d="M419.5 111.593C419.5 114.997 409.203 117.756 396.5 117.756 383.798 117.756 373.5 114.997 373.5 111.593" stroke="#172C51" stroke-width="1.33333" stroke-miterlimit="8" fill="none" fill-rule="evenodd"/><path d="M373.5 111.593C373.5 108.19 383.798 105.431 396.5 105.431 409.203 105.431 419.5 108.19 419.5 111.593L419.5 136.244C419.5 139.647 409.203 142.406 396.5 142.406 383.798 142.406 373.5 139.647 373.5 136.244Z" stroke="#172C51" stroke-width="1.33333" stroke-miterlimit="8" fill="none" fill-rule="evenodd"/><text font-family="Calibri,Calibri_MSFontService,sans-serif" font-weight="700" font-size="13.3246" transform="matrix(1 0 0 0.999342 375.383 130)">dataset</text><path d="M455.5 83.4451 483.5 83.4451 483.5 108.74 472.812 119.421 455.5 119.421Z" fill="#FFF2CC" fill-rule="evenodd"/><path d="M472.812 119.421 474.949 110.876 483.5 108.74Z" fill="#CDC3A4" fill-rule="evenodd"/><path d="M472.812 119.421 474.949 110.876 483.5 108.74 472.812 119.421 455.5 119.421 455.5 83.4451 483.5 83.4451 483.5 108.74" stroke="#172C51" stroke-width="1.33333" stroke-miterlimit="8" fill="none" fill-rule="evenodd"/><text font-family="Yu Gothic,Yu Gothic_MSFontService,sans-serif" font-weight="700" font-size="11.9921" transform="matrix(1 0 0 0.999342 456.964 99)">状態</text><path d="M455.5 127.416 483.5 127.416 483.5 159.706 472.812 170.388 455.5 170.388Z" fill="#FFF2CC" fill-rule="evenodd"/><path d="M472.812 170.388 474.949 161.843 483.5 159.706Z" fill="#CDC3A4" fill-rule="evenodd"/><path d="M472.812 170.388 474.949 161.843 483.5 159.706 472.812 170.388 455.5 170.388 455.5 127.416 483.5 127.416 483.5 159.706" stroke="#172C51" stroke-width="1.33333" stroke-miterlimit="8" fill="none" fill-rule="evenodd"/><text font-family="Yu Gothic,Yu Gothic_MSFontService,sans-serif" font-weight="700" font-size="11.9921" transform="matrix(1 0 0 0.999342 456.964 140)">正解</text><text font-family="Yu Gothic,Yu Gothic_MSFontService,sans-serif" font-weight="700" font-size="11.9921" transform="matrix(1 0 0 0.999342 456.964 154)">行動</text><path d="M419.5 122.753 437.934 122.753 437.934 148.539 437.267 147.873 448.368 147.873 448.368 149.205 436.601 149.205 436.601 123.419 437.267 124.085 419.5 124.085ZM447.035 144.542 455.035 148.539 447.035 152.536Z"/><path d="M0-0.666228 18.4219-0.666228 18.4219 22.3879 17.7557 21.7216 28.8491 21.7216 28.8491 23.0541 17.0895 23.0541 17.0895 0 17.7557 0.666228 0 0.666228ZM27.5167 18.3905 35.5114 22.3879 27.5167 26.3852Z" transform="matrix(1.00066 0 0 -1 419.5 123.821)"/><path d="M314.5 113.092C314.5 110.517 316.589 108.429 319.167 108.429L357.833 108.429C360.411 108.429 362.5 110.517 362.5 113.092L362.5 131.746C362.5 134.322 360.411 136.41 357.833 136.41L319.167 136.41C316.589 136.41 314.5 134.322 314.5 131.746Z" stroke="#172C51" stroke-width="1.33333" stroke-miterlimit="8" stroke-dasharray="5.33333 4" fill="#FFCCFF" fill-rule="evenodd"/><text font-family="Yu Gothic,Yu Gothic_MSFontService,sans-serif" font-weight="700" font-size="11.9921" transform="matrix(1 0 0 0.999342 320.101 126)">熟練者</text><path d="M0-0.666228 5.32982-0.666228 5.32982 0.666228 0 0.666228ZM9.32719-0.666228 14.657-0.666228 14.657 0.666228 9.32719 0.666228ZM18.6544-0.666228 23.9842-0.666228 23.9842 0.666228 18.6544 0.666228ZM27.9816-0.666228 33.3114-0.666228 33.3114 0.666228 27.9816 0.666228ZM37.3088-0.666228 42.6386-0.666228 42.6386 0.666228 37.3088 0.666228ZM46.6359-0.666228 51.9658-0.666228 51.9658 0.666228 46.6359 0.666228ZM55.9631-0.666228 61.293-0.666228 61.293 0.666228 55.9631 0.666228ZM65.2903-0.666228 70.6201-0.666228 70.6201 0.666228 65.2903 0.666228ZM74.6175-0.666228 79.9473-0.666228 79.9473 0.666228 74.6175 0.666228ZM83.9447-0.666228 89.2745-0.666228 89.2745 0.666228 83.9447 0.666228ZM93.2719-0.666228 98.6017-0.666228 98.6017 0.666228 93.2719 0.666228ZM102.599-0.666228 107.929-0.666228 107.929 0.666228 102.599 0.666228ZM111.926-0.666228 115.591-0.666228 115.591 2.3318 114.258 2.3318 114.258 0 114.924 0.666228 111.926 0.666228ZM115.591 6.32916 115.591 11.659 114.258 11.659 114.258 6.32916ZM118.922 12.9914 114.924 20.9862 110.927 12.9914Z" transform="matrix(-1.00066 0 0 1 454.5 88.4418)"/><path d="M0-0.666228 5.32982-0.666228 5.32982 0.666228 0 0.666228ZM9.32719-0.666228 14.657-0.666228 14.657 0.666228 9.32719 0.666228ZM18.6544-0.666228 23.9842-0.666228 23.9842 0.666228 18.6544 0.666228ZM27.3153 0 27.3153 5.32982 28.6478 5.32982 28.6478 0ZM28.6478 9.32719 28.6478 14.657 27.3153 14.657 27.3153 9.32719ZM28.6478 18.6544 28.6478 23.9842 27.3153 23.9842 27.3153 18.6544ZM28.6478 27.9816 28.6478 33.3114 27.3153 33.3114 27.3153 27.9816ZM28.6478 37.3088 28.6478 42.6386 27.3153 42.6386 27.3153 37.3088ZM28.6478 46.6359 28.6478 51.9658 27.3153 51.9658 27.3153 46.6359ZM28.6478 55.9631 28.6478 61.293 27.3153 61.293 27.3153 55.9631ZM28.6478 65.2903 28.6478 70.6201 27.3153 70.6201 27.3153 65.2903ZM28.6478 74.6175 28.6478 79.9473 27.3153 79.9473 27.3153 74.6175ZM28.6478 83.9447 28.6478 89.2745 27.3153 89.2745 27.3153 83.9447ZM28.6478 93.2719 28.6478 98.6017 27.3153 98.6017 27.3153 93.2719ZM28.6478 102.599 28.6478 107.929 27.3153 107.929 27.3153 102.599ZM31.9789 107.929 27.9816 115.924 23.9842 107.929Z" transform="matrix(1.83818e-16 1 1.00066 -1.83697e-16 341.5 135.411)"/><path d="M502.5 98.7685C502.5 94.1691 506.231 90.4405 510.834 90.4405L544.167 90.4405C548.769 90.4405 552.5 94.1691 552.5 98.7685L552.5 148.069C552.5 152.668 548.769 156.397 544.167 156.397L510.834 156.397C506.231 156.397 502.5 152.668 502.5 148.069Z" stroke="#172C51" stroke-width="1.33333" stroke-miterlimit="8" fill="#EBCDFF" fill-rule="evenodd"/><text font-family="Yu Gothic,Yu Gothic_MSFontService,sans-serif" font-weight="700" font-size="11.9921" transform="matrix(1 0 0 0.999342 514.793 119)">報酬</text><text font-family="Yu Gothic,Yu Gothic_MSFontService,sans-serif" font-weight="700" font-size="11.9921" transform="matrix(1 0 0 0.999342 508.8 133)">予測器</text><path d="M569.5 105.431 597.5 105.431 597.5 131.725 586.812 142.406 569.5 142.406Z" fill="#EBCDFF" fill-rule="evenodd"/><path d="M586.812 142.406 588.949 133.861 597.5 131.725Z" fill="#BDA5CD" fill-rule="evenodd"/><path d="M586.812 142.406 588.949 133.861 597.5 131.725 586.812 142.406 569.5 142.406 569.5 105.431 597.5 105.431 597.5 131.725" stroke="#172C51" stroke-width="1.33333" stroke-miterlimit="8" fill="none" fill-rule="evenodd"/><text font-family="Yu Gothic,Yu Gothic_MSFontService,sans-serif" font-weight="700" font-size="11.9921" transform="matrix(1 0 0 0.999342 570.904 122)">報酬</text><path d="M483.5 97.769 495.833 97.769 495.833 99.1014 483.5 99.1014ZM494.5 94.4378 502.5 98.4352 494.5 102.433Z" fill="#172C51"/><path d="M485.5 140.741 496.833 140.741 496.833 142.073 485.5 142.073ZM495.5 137.41 503.5 141.407 495.5 145.404Z" fill="#172C51"/><path d="M552.5 122.753 563.833 122.753 563.833 124.085 552.5 124.085ZM562.5 119.421 570.5 123.419 562.5 127.416Z" fill="#172C51"/><text font-family="Yu Gothic,Yu Gothic_MSFontService,sans-serif" font-weight="700" font-size="13.3246" transform="matrix(1 0 0 0.999342 332.946 81)">熟練者スキルの再生</text><text fill="#FF0000" font-family="Yu Gothic,Yu Gothic_MSFontService,sans-serif" font-weight="700" font-size="13.3246" transform="matrix(1 0 0 0.999342 532.209 185)">学習</text><path d="M274.167 160.394 274.167 165.724 272.833 165.724 272.833 160.394ZM274.167 169.722 274.167 175.051 272.833 175.051 272.833 169.722ZM274.167 179.049 274.167 184.379 272.833 184.379 272.833 179.049ZM274.167 188.376 274.167 193.706 272.833 193.706 272.833 188.376ZM274.167 197.703 274.167 203.033 272.833 203.033 272.833 197.703ZM274.167 207.03 274.167 212.36 272.833 212.36 272.833 207.03ZM274.167 216.358 274.167 221.687 272.833 221.687 272.833 216.358ZM273.833 224.685 279.167 224.685 279.167 226.018 273.833 226.018ZM283.167 224.685 288.5 224.685 288.5 226.018 283.167 226.018ZM292.5 224.685 297.833 224.685 297.833 226.018 292.5 226.018ZM301.833 224.685 307.167 224.685 307.167 226.018 301.833 226.018ZM311.167 224.685 316.5 224.685 316.5 226.018 311.167 226.018ZM320.5 224.685 325.833 224.685 325.833 226.018 320.5 226.018ZM329.833 224.685 335.167 224.685 335.167 226.018 329.833 226.018ZM339.167 224.685 344.5 224.685 344.5 226.018 339.167 226.018ZM348.5 224.685 353.833 224.685 353.833 226.018 348.5 226.018ZM357.833 224.685 363.167 224.685 363.167 226.018 357.833 226.018ZM367.167 224.685 372.5 224.685 372.5 226.018 367.167 226.018ZM376.5 224.685 381.833 224.685 381.833 226.018 376.5 226.018ZM385.833 224.685 391.167 224.685 391.167 226.018 385.833 226.018ZM395.167 224.685 400.5 224.685 400.5 226.018 395.167 226.018ZM404.5 224.685 409.833 224.685 409.833 226.018 404.5 226.018ZM413.833 224.685 419.167 224.685 419.167 226.018 413.833 226.018ZM423.167 224.685 428.5 224.685 428.5 226.018 423.167 226.018ZM432.5 224.685 437.833 224.685 437.833 226.018 432.5 226.018ZM441.833 224.685 447.167 224.685 447.167 226.018 441.833 226.018ZM451.167 224.685 456.5 224.685 456.5 226.018 451.167 226.018ZM460.5 224.685 465.833 224.685 465.833 226.018 460.5 226.018ZM469.833 224.685 475.167 224.685 475.167 226.018 469.833 226.018ZM479.167 224.685 484.5 224.685 484.5 226.018 479.167 226.018ZM488.5 224.685 493.833 224.685 493.833 226.018 488.5 226.018ZM497.833 224.685 498.833 224.685 498.833 226.018 497.833 226.018ZM497.5 221.354 505.5 225.352 497.5 229.349Z" fill="#172C51"/><path d="M584.833 105.431 584.833 100.101 586.167 100.101 586.167 105.431ZM584.833 96.1034 584.833 90.7736 586.167 90.7736 586.167 96.1034ZM584.833 86.7762 584.833 81.4464 586.167 81.4464 586.167 86.7762ZM584.833 77.449 584.833 72.1192 586.167 72.1192 586.167 77.449ZM584.833 68.1218 584.833 62.792 586.167 62.792 586.167 68.1218ZM584.833 58.7947 584.833 56.4629 585.5 57.1291 582.5 57.1291 582.5 55.7966 586.167 55.7966 586.167 58.7947ZM578.5 57.1291 573.167 57.1291 573.167 55.7966 578.5 55.7966ZM569.167 57.1291 563.833 57.1291 563.833 55.7966 569.167 55.7966ZM559.833 57.1291 554.5 57.1291 554.5 55.7966 559.833 55.7966ZM550.5 57.1291 545.167 57.1291 545.167 55.7966 550.5 55.7966ZM541.167 57.1291 535.833 57.1291 535.833 55.7966 541.167 55.7966ZM531.833 57.1291 526.5 57.1291 526.5 55.7966 531.833 55.7966ZM522.5 57.1291 517.167 57.1291 517.167 55.7966 522.5 55.7966ZM513.167 57.1291 507.833 57.1291 507.833 55.7966 513.167 55.7966ZM503.833 57.1291 498.5 57.1291 498.5 55.7966 503.833 55.7966ZM494.5 57.1291 489.167 57.1291 489.167 55.7966 494.5 55.7966ZM485.167 57.1291 479.833 57.1291 479.833 55.7966 485.167 55.7966ZM475.833 57.1291 470.5 57.1291 470.5 55.7966 475.833 55.7966ZM466.5 57.1291 461.167 57.1291 461.167 55.7966 466.5 55.7966ZM457.167 57.1291 451.833 57.1291 451.833 55.7966 457.167 55.7966ZM447.833 57.1291 442.5 57.1291 442.5 55.7966 447.833 55.7966ZM438.5 57.1291 433.167 57.1291 433.167 55.7966 438.5 55.7966ZM429.167 57.1291 423.833 57.1291 423.833 55.7966 429.167 55.7966ZM419.833 57.1291 414.5 57.1291 414.5 55.7966 419.833 55.7966ZM410.5 57.1291 405.167 57.1291 405.167 55.7966 410.5 55.7966ZM401.167 57.1291 395.833 57.1291 395.833 55.7966 401.167 55.7966ZM391.833 57.1291 386.5 57.1291 386.5 55.7966 391.833 55.7966ZM382.5 57.1291 377.167 57.1291 377.167 55.7966 382.5 55.7966ZM373.167 57.1291 367.833 57.1291 367.833 55.7966 373.167 55.7966ZM363.833 57.1291 358.5 57.1291 358.5 55.7966 363.833 55.7966ZM354.5 57.1291 349.167 57.1291 349.167 55.7966 354.5 55.7966ZM345.167 57.1291 339.833 57.1291 339.833 55.7966 345.167 55.7966ZM335.833 57.1291 330.5 57.1291 330.5 55.7966 335.833 55.7966ZM326.5 57.1291 321.167 57.1291 321.167 55.7966 326.5 55.7966ZM317.167 57.1291 311.833 57.1291 311.833 55.7966 317.167 55.7966ZM307.833 57.1291 302.5 57.1291 302.5 55.7966 307.833 55.7966ZM298.5 57.1291 293.167 57.1291 293.167 55.7966 298.5 55.7966ZM289.167 57.1291 283.833 57.1291 283.833 55.7966 289.167 55.7966ZM279.833 57.1291 274.5 57.1291 274.5 55.7966 279.833 55.7966ZM270.5 57.1291 265.167 57.1291 265.167 55.7966 270.5 55.7966ZM261.167 57.1291 255.833 57.1291 255.833 55.7966 261.167 55.7966ZM251.833 57.1291 246.5 57.1291 246.5 55.7966 251.833 55.7966ZM242.5 57.1291 237.167 57.1291 237.167 55.7966 242.5 55.7966ZM233.167 57.1291 227.833 57.1291 227.833 55.7966 233.167 55.7966ZM223.833 57.1291 218.5 57.1291 218.5 55.7966 223.833 55.7966ZM214.5 57.1291 209.167 57.1291 209.167 55.7966 214.5 55.7966ZM205.167 57.1291 199.833 57.1291 199.833 55.7966 205.167 55.7966ZM199.167 59.1278 199.167 64.4576 197.833 64.4576 197.833 59.1278ZM199.167 68.455 199.167 73.7848 197.833 73.7848 197.833 68.455ZM199.167 77.7821 199.167 83.112 197.833 83.112 197.833 77.7821ZM199.167 87.1093 199.167 92.4392 197.833 92.4392 197.833 87.1093ZM202.5 93.8353 198.5 101.83 194.5 93.8353Z" fill="#172C51"/><path d="M470.167 170.388 470.167 175.718 468.833 175.718 468.833 170.388ZM470.167 179.715 470.167 185.045 468.833 185.045 468.833 179.715ZM470.167 189.042 470.167 194.372 468.833 194.372 468.833 189.042ZM470.167 198.369 470.167 203.699 468.833 203.699 468.833 198.369ZM470.167 207.697 470.167 210.361 469.5 209.695 472.167 209.695 472.167 211.028 468.833 211.028 468.833 207.697ZM476.167 209.695 481.5 209.695 481.5 211.028 476.167 211.028ZM485.5 209.695 490.833 209.695 490.833 211.028 485.5 211.028ZM494.833 209.695 498.833 209.695 498.833 211.028 494.833 211.028ZM497.5 206.364 505.5 210.361 497.5 214.359Z" fill="#172C51"/><path d="M506.5 206.864C506.5 203.828 508.963 201.367 512 201.367L541 201.367C544.038 201.367 546.5 203.828 546.5 206.864L546.5 228.849C546.5 231.885 544.038 234.346 541 234.346L512 234.346C508.963 234.346 506.5 231.885 506.5 228.849Z" stroke="#172C51" stroke-width="1.33333" stroke-miterlimit="8" fill="#FFF2CC" fill-rule="evenodd"/><text font-family="Calibri,Calibri_MSFontService,sans-serif" font-weight="700" font-size="11.9921" transform="matrix(1 0 0 0.999342 515.164 221)">Loss</text><path d="M552.5 159.395C552.5 164.086 550.632 167.889 548.327 167.889L531.673 167.889C529.368 167.889 527.5 171.693 527.5 176.384 527.5 171.693 525.632 167.889 523.327 167.889L506.673 167.889C504.368 167.889 502.5 164.086 502.5 159.395" stroke="#000000" stroke-width="1.33246" stroke-miterlimit="8" fill="none" fill-rule="evenodd"/><path d="M525.833 199.369 525.833 194.039 527.167 194.039 527.167 199.369ZM525.833 190.042 525.833 184.712 527.167 184.712 527.167 190.042ZM522.5 185.378 526.5 177.383 530.5 185.378Z" fill="#172C51"/><path d="M615.5 113.759C615.5 111.919 616.992 110.427 618.833 110.427L633.167 110.427C635.008 110.427 636.5 111.919 636.5 113.759L636.5 127.083C636.5 128.923 635.008 130.414 633.167 130.414L618.833 130.414C616.992 130.414 615.5 128.923 615.5 127.083Z" stroke="#172C51" stroke-width="1.33333" stroke-miterlimit="8" fill="#EBCDFF" fill-rule="evenodd"/><text font-family="Yu Gothic,Yu Gothic_MSFontService,sans-serif" font-weight="700" font-size="13.3246" transform="matrix(1 0 0 0.999342 641.083 125)">報酬関連</text></g></svg>