<svg width="548" height="350" xmlns="http://www.w3.org/2000/svg" xmlns:xlink="http://www.w3.org/1999/xlink" overflow="hidden"><defs><clipPath id="clip0"><rect x="0" y="0" width="548" height="350"/></clipPath></defs><g clip-path="url(#clip0)"><rect x="0" y="0" width="548" height="350.334" fill="#FFFFFF"/><path d="M98.7119 73.4532 132.265 114.987 89.6394 183.263 37.6367 171.28Z" stroke="#172C51" stroke-width="1.33425" stroke-miterlimit="8" fill="#D8F1D0" fill-rule="evenodd"/><text font-family="Yu Gothic,Yu Gothic_MSFontService,sans-serif" font-weight="700" font-size="14.6806" transform="matrix(0.529946 -0.849649 0.847224 0.530451 75.9999 153)">ラベル</text><text font-family="Yu Gothic,Yu Gothic_MSFontService,sans-serif" font-weight="700" font-size="14.6806" transform="matrix(0.529946 -0.849649 0.847224 0.530451 78.7431 181)">エンコーダー</text><path d="M17.6547 136.995C11.7483 133.301 9.95233 125.513 13.6433 119.601L41.7891 74.5186C45.4801 68.6066 53.2604 66.8089 59.1668 70.5034L59.1668 70.5035C65.0732 74.198 66.8692 81.9857 63.1782 87.8977L35.0323 132.98C31.3413 138.892 23.5611 140.69 17.6546 136.995Z" stroke="#172C51" stroke-width="1.33425" stroke-miterlimit="8" fill="#D8F1D0" fill-rule="evenodd"/><text font-family="Yu Gothic,Yu Gothic_MSFontService,sans-serif" font-weight="700" font-size="14.6806" transform="matrix(0.529946 -0.849649 0.847224 0.530451 31.1616 125)">ラベル</text><path d="M50.8566 111.417 62.0011 118.388 60.9412 120.085 49.7967 113.114ZM62.4602 115.134 67.1247 122.773 58.2207 121.924Z" fill="#172C51"/><path d="M111.244 148.658 122.388 155.629 121.328 157.327 110.184 150.356ZM122.848 152.375 127.512 160.014 118.608 159.166Z" fill="#172C51"/><path d="M259.5 65.5625 242.247 115.61 161.754 115.61 144.5 65.5625Z" stroke="#172C51" stroke-width="1.33333" stroke-miterlimit="8" fill="#D8F1D0" fill-rule="evenodd"/><text font-family="Yu Gothic,Yu Gothic_MSFontService,sans-serif" font-weight="700" font-size="14.6806" transform="matrix(1 0 0 1.00095 179.853 87)">ラベル</text><text font-family="Yu Gothic,Yu Gothic_MSFontService,sans-serif" font-weight="700" font-size="14.6806" transform="matrix(1 0 0 1.00095 165.186 104)">デコーダー</text><path d="M203 51.7159 203 65.062 201 65.062 201 51.7159ZM198 53.0505 202 45.0429 206 53.0505Z" fill="#172C51"/><path d="M203 122.784 203 136.13 201 136.13 201 122.784ZM198 124.118 202 116.111 206 124.118Z" fill="#172C51"/><path d="M162.5 30.0286C162.5 23.1185 168.096 17.5167 175 17.5167L229 17.5167C235.904 17.5167 241.5 23.1185 241.5 30.0286L241.5 30.0286C241.5 36.9387 235.904 42.5405 229 42.5405L175 42.5405C168.096 42.5405 162.5 36.9387 162.5 30.0286Z" stroke="#172C51" stroke-width="1.33333" stroke-miterlimit="8" fill="#D8F1D0" fill-rule="evenodd"/><text font-family="Yu Gothic,Yu Gothic_MSFontService,sans-serif" font-weight="700" font-size="14.6806" transform="matrix(1 0 0 1.00095 179.506 35)">ラベル</text><path d="M405.5 65.5625 388.247 115.61 306.754 115.61 289.5 65.5625Z" stroke="#172C51" stroke-width="1.33333" stroke-miterlimit="8" fill="#CAEEFB" fill-rule="evenodd"/><text font-family="Yu Gothic,Yu Gothic_MSFontService,sans-serif" font-weight="700" font-size="14.6806" transform="matrix(1 0 0 1.00095 317.93 87)">テキスト</text><text font-family="Yu Gothic,Yu Gothic_MSFontService,sans-serif" font-weight="700" font-size="14.6806" transform="matrix(1 0 0 1.00095 303.263 104)">エンコーダー</text><path d="M308.5 30.0287C308.5 23.1185 314.097 17.5167 321 17.5167L374 17.5167C380.904 17.5167 386.5 23.1185 386.5 30.0287L386.5 30.0287C386.5 36.9389 380.904 42.5407 374 42.5407L321 42.5407C314.097 42.5407 308.5 36.9388 308.5 30.0287Z" stroke="#172C51" stroke-width="1.33333" stroke-miterlimit="8" fill="#CAEEFB" fill-rule="evenodd"/><text font-family="Yu Gothic,Yu Gothic_MSFontService,sans-serif" font-weight="700" font-size="14.6806" transform="matrix(1 0 0 1.00095 317.583 35)">テキスト</text><path d="M347 44.0419 347 57.388 345 57.388 345 44.0419ZM350 56.0534 346 64.061 342 56.0534Z" fill="#172C51"/><path d="M347 115.11 347 128.456 345 128.456 345 115.11ZM350 127.121 346 135.129 342 127.121Z" fill="#172C51"/><path d="M507.677 171.24 455.053 180.094 416.575 109.392 452.546 69.938Z" stroke="#172C51" stroke-width="1.33431" stroke-miterlimit="8" fill="#CAEEFB" fill-rule="evenodd"/><text font-family="Yu Gothic,Yu Gothic_MSFontService,sans-serif" font-weight="700" font-size="14.6806" transform="matrix(0.478371 0.879833 -0.877321 0.478827 446.259 106)">テキスト</text><text font-family="Yu Gothic,Yu Gothic_MSFontService,sans-serif" font-weight="700" font-size="14.6806" transform="matrix(0.478371 0.879833 -0.877321 0.478827 427.837 108)">デコーダー</text><path d="M492.148 115.679 480.608 121.972 479.651 120.214 491.191 113.921ZM488.585 111.922 497.524 111.608 492.412 118.954Z" fill="#172C51"/><path d="M430.078 150.037 418.537 156.329 417.581 154.571 429.121 148.279ZM426.515 146.28 435.454 145.966 430.342 153.312Z" fill="#172C51"/><path d="M492.197 69.3565C498.313 66.0215 505.972 68.2809 509.304 74.403L534.71 121.087C538.042 127.209 535.785 134.876 529.669 138.21L529.669 138.21C523.552 141.545 515.893 139.286 512.561 133.164L487.155 86.4799C483.823 80.3578 486.08 72.6914 492.197 69.3564Z" stroke="#172C51" stroke-width="1.33431" stroke-miterlimit="8" fill="#CAEEFB" fill-rule="evenodd"/><text font-family="Yu Gothic,Yu Gothic_MSFontService,sans-serif" font-weight="700" font-size="14.6806" transform="matrix(0.478371 0.879833 -0.877321 0.478827 492.334 81)">テキスト</text><path d="M160.5 284.771 178.099 233.723 257.902 233.723 275.5 284.771Z" stroke="#172C51" stroke-width="1.33333" stroke-miterlimit="8" fill="#FBE3D6" fill-rule="evenodd"/><text font-family="Yu Gothic,Yu Gothic_MSFontService,sans-serif" font-weight="700" font-size="14.6806" transform="matrix(-1 1.22698e-16 -1.22348e-16 -1.00095 232.108 262)">画像</text><text font-family="Yu Gothic,Yu Gothic_MSFontService,sans-serif" font-weight="700" font-size="14.6806" transform="matrix(-1 1.22698e-16 -1.22348e-16 -1.00095 261.441 245)">エンコーダー</text><path d="M257.5 319.304C257.5 326.214 251.904 331.816 245 331.816L192 331.816C185.096 331.816 179.5 326.214 179.5 319.304L179.5 319.304C179.5 312.394 185.097 306.792 192 306.792L245 306.792C251.904 306.792 257.5 312.394 257.5 319.304Z" stroke="#172C51" stroke-width="1.33333" stroke-miterlimit="8" fill="#FBE3D6" fill-rule="evenodd"/><text font-family="Yu Gothic,Yu Gothic_MSFontService,sans-serif" font-weight="700" font-size="14.6806" transform="matrix(-1 1.22698e-16 -1.22348e-16 -1.00095 232.455 314)">画像</text><path d="M218 304.29 218 290.944 220 290.944 220 304.29ZM215 292.278 219 284.271 223 292.278Z" fill="#172C51"/><path d="M217 233.222 217 220.877 219 220.877 219 233.222ZM214 222.212 218 214.204 222 222.212Z" fill="#172C51"/><path d="M283.5 285.772 301.099 234.724 380.902 234.724 398.5 285.772Z" stroke="#172C51" stroke-width="1.33333" stroke-miterlimit="8" fill="#FBE3D6" fill-rule="evenodd"/><text font-family="Yu Gothic,Yu Gothic_MSFontService,sans-serif" font-weight="700" font-size="14.6806" transform="matrix(-1 1.22698e-16 -1.22348e-16 -1.00095 355.022 263)">画像</text><text font-family="Yu Gothic,Yu Gothic_MSFontService,sans-serif" font-weight="700" font-size="14.6806" transform="matrix(-1 1.22698e-16 -1.22348e-16 -1.00095 377.022 246)">デコーダー</text><path d="M339 297.617 339 285.272 341 285.272 341 297.617ZM344 296.282 340 304.29 336 296.282Z" fill="#172C51"/><path d="M339 226.549 339 214.204 341 214.204 341 226.549ZM344 225.214 340 233.222 336 225.214Z" fill="#172C51"/><path d="M380.5 320.806C380.5 327.992 374.68 333.818 367.5 333.818L315.5 333.818C308.32 333.818 302.5 327.992 302.5 320.806L302.5 320.806C302.5 313.619 308.32 307.793 315.5 307.793L367.5 307.793C374.68 307.793 380.5 313.619 380.5 320.806Z" stroke="#172C51" stroke-width="1.33333" stroke-miterlimit="8" fill="#FBE3D6" fill-rule="evenodd"/><text font-family="Yu Gothic,Yu Gothic_MSFontService,sans-serif" font-weight="700" font-size="14.6806" transform="matrix(-1 1.22698e-16 -1.22348e-16 -1.00095 355.368 315)">画像</text><path d="M121.5 172.664C121.5 149.446 190.672 130.624 276 130.624 361.328 130.624 430.5 149.446 430.5 172.664 430.5 195.883 361.328 214.705 276 214.705 190.672 214.705 121.5 195.883 121.5 172.664Z" stroke="#172C51" stroke-width="1.33333" stroke-miterlimit="8" fill="#FFE699" fill-rule="evenodd"/><text font-family="Yu Gothic,Yu Gothic_MSFontService,sans-serif" font-weight="700" font-size="14.6806" transform="matrix(1 0 0 1.00095 231.412 178)">共有潜在空間</text></g></svg>