<svg width="348" height="370" xmlns="http://www.w3.org/2000/svg" xmlns:xlink="http://www.w3.org/1999/xlink" overflow="hidden"><defs><clipPath id="clip0"><rect x="0" y="0" width="348" height="370"/></clipPath></defs><g clip-path="url(#clip0)"><rect x="0" y="0" width="348" height="370.311" fill="#FFFFFF"/><rect x="112.5" y="17.4675" width="149" height="19.9628" stroke="#172C51" stroke-width="1.33461" stroke-miterlimit="8" fill="#FAE177"/><rect x="12.5" y="94.3245" width="149" height="152.716" stroke="#172C51" stroke-width="1.33461" stroke-miterlimit="8" fill="#5A9BD3"/><text fill="#FFFFFF" font-family="Yu Gothic,Yu Gothic_MSFontService,sans-serif" font-weight="700" font-size="14.6535" transform="matrix(1 0 0 0.998143 49.769 148)">事前学習済</text><text fill="#FFFFFF" font-family="Yu Gothic,Yu Gothic_MSFontService,sans-serif" font-weight="700" font-size="14.6535" transform="matrix(1 0 0 0.998143 71.7901 165)">重み</text><text fill="#FFFFFF" font-family="Cambria Math,Cambria Math_MSFontService,sans-serif" font-weight="400" font-size="14.6535" transform="matrix(1 0 0 0.998143 54.0665 201)">𝑾</text><text fill="#FFFFFF" font-family="Cambria Math,Cambria Math_MSFontService,sans-serif" font-weight="400" font-size="14.6535" transform="matrix(1 0 0 0.998143 72.6576 201)">∈</text><text fill="#FFFFFF" font-family="Cambria Math,Cambria Math_MSFontService,sans-serif" font-weight="400" font-size="14.6535" transform="matrix(1 0 0 0.998143 85.9103 201)">ℝ</text><text fill="#FFFFFF" font-family="Cambria Math,Cambria Math_MSFontService,sans-serif" font-weight="400" font-size="10.697" transform="matrix(1 0 0 0.998143 96.9209 196)">𝒅</text><text fill="#FFFFFF" font-family="Cambria Math,Cambria Math_MSFontService,sans-serif" font-weight="400" font-size="10.697" transform="matrix(1 0 0 0.998143 103.761 196)">×</text><text fill="#FFFFFF" font-family="Cambria Math,Cambria Math_MSFontService,sans-serif" font-weight="400" font-size="10.697" transform="matrix(1 0 0 0.998143 111.435 196)">𝒅</text><path d="M191.5 94.3245 332.5 94.3245 304.3 144.232 219.7 144.232Z" stroke="#172C51" stroke-width="1.33461" stroke-miterlimit="8" fill="#EC7C2F" fill-rule="evenodd"/><text fill="#FFFFFF" font-family="Calibri,Calibri_MSFontService,sans-serif" font-style="italic" font-weight="700" font-size="14.6535" transform="matrix(1 0 0 0.998143 246.803 124)">B</text><text fill="#FFFFFF" font-family="Calibri,Calibri_MSFontService,sans-serif" font-weight="700" font-size="14.6535" transform="matrix(1 0 0 0.998143 258.314 124)">= 0</text><path d="M193.5 247.04 223.865 197.133 306.921 197.133 335.5 247.04 193.5 247.04Z" stroke="#172C51" stroke-width="1.33461" stroke-miterlimit="8" fill="#EC7C2F" fill-rule="evenodd"/><text fill="#FFFFFF" font-family="Cambria Math,Cambria Math_MSFontService,sans-serif" font-weight="400" font-size="14.6535" transform="matrix(1 0 0 0.998143 218.785 226)">𝑨</text><text fill="#FFFFFF" font-family="Cambria Math,Cambria Math_MSFontService,sans-serif" font-weight="400" font-size="14.6535" transform="matrix(1 0 0 0.998143 232.538 226)">=</text><text fill="#FFFFFF" font-family="Cambria Math,Cambria Math_MSFontService,sans-serif" font-weight="400" font-size="14.6535" transform="matrix(1 0 0 0.998143 247.626 226)">𝓝</text><path d="M98.5679 1.94644C100.053 2.33686 101.198 3.3486 102.003 4.98168 102.808 6.61475 103.21 8.54778 103.21 10.7808 103.21 13.0137 102.808 14.9468 102.003 16.5798 101.198 18.2129 100.053 19.2247 98.5679 19.6151L98.3893 19.0294C99.5415 18.5962 100.414 17.6523 101.007 16.1978 101.6 14.7432 101.896 12.9399 101.896 10.7879 101.896 8.6311 101.6 6.82424 101.007 5.36733 100.414 3.91042 99.5415 2.96533 98.3893 2.53207ZM66.9127 1.94644 67.0912 2.53207C65.939 2.96533 65.0666 3.91042 64.4738 5.36733 63.881 6.82424 63.5846 8.6311 63.5846 10.7879 63.5846 12.9399 63.881 14.7432 64.4738 16.1978 65.0666 17.6523 65.939 18.5962 67.0912 19.0294L66.9127 19.6151C65.4272 19.2247 64.2822 18.2129 63.4775 16.5798 62.6729 14.9468 62.2706 13.0137 62.2706 10.7808 62.2706 8.54778 62.6729 6.61475 63.4775 4.98168 64.2822 3.3486 65.4272 2.33686 66.9127 1.94644Z" fill="#FFFFFF" fill-rule="evenodd" transform="matrix(1.00186 0 0 1 201.375 211.299)"/><text fill="#FFFFFF" font-family="Cambria Math,Cambria Math_MSFontService,sans-serif" font-weight="400" font-size="14.6535" transform="matrix(1 0 0 0.998143 269.067 226)">𝟎</text><text fill="#FFFFFF" font-family="Cambria Math,Cambria Math_MSFontService,sans-serif" font-weight="400" font-size="14.6535" transform="matrix(1 0 0 0.998143 277.908 226)">,</text><text fill="#FFFFFF" font-family="Cambria Math,Cambria Math_MSFontService,sans-serif" font-weight="400" font-size="14.6535" transform="matrix(1 0 0 0.998143 283.36 226)">𝝈</text><text fill="#FFFFFF" font-family="Cambria Math,Cambria Math_MSFontService,sans-serif" font-weight="400" font-size="10.697" transform="matrix(1 0 0 0.998143 292.536 221)">𝟐</text><rect x="115.5" y="326.892" width="149" height="19.9628" stroke="#172C51" stroke-width="1.33461" stroke-miterlimit="8" fill="#FAE177"/><path d="M225 193.64C225 188.954 227.529 185.156 230.649 185.156L259.351 185.156C262.471 185.156 265 181.357 265 176.671 265 181.357 267.529 185.156 270.649 185.156L299.351 185.156C302.471 185.156 305 188.954 305 193.64" stroke="#000000" stroke-width="1.9982" stroke-miterlimit="8" fill="none" fill-rule="evenodd"/><path d="M116 321.402C116 316.716 118.529 312.918 121.649 312.918L184.351 312.918C187.471 312.918 190 309.119 190 304.434 190 309.119 192.529 312.918 195.649 312.918L258.351 312.918C261.471 312.918 264 316.716 264 321.402" stroke="#000000" stroke-width="1.9982" stroke-miterlimit="8" fill="none" fill-rule="evenodd"/><text font-family="Calibri,Calibri_MSFontService,sans-serif" font-weight="700" font-size="14.6535" transform="matrix(1 0 0 0.998143 95.2011 345)">X</text><text font-family="Times New Roman,Times New Roman_MSFontService,sans-serif" font-style="italic" font-weight="700" font-size="14.6535" transform="matrix(1 0 0 0.998143 187.334 296)">d</text><text font-family="Times New Roman,Times New Roman_MSFontService,sans-serif" font-style="italic" font-weight="700" font-size="14.6535" transform="matrix(1 0 0 0.998143 258.069 174)">r</text><text font-family="Calibri,Calibri_MSFontService,sans-serif" font-weight="700" font-size="14.6535" transform="matrix(1 0 0 0.998143 97.1276 35)">h</text><path d="M97.9113 74.0135 117.315 54.6462 113.568 50.9069 128.553 50.9069 128.553 65.8641 124.807 62.1248 105.404 81.4921Z" stroke="#172C51" stroke-width="1.33337" stroke-miterlimit="8" fill="#FFFFFF" fill-rule="evenodd"/><path d="M234.859 286.396 254.263 267.029 250.516 263.29 265.501 263.29 265.501 278.247 261.755 274.508 242.352 293.875Z" stroke="#172C51" stroke-width="1.33337" stroke-miterlimit="8" fill="#FFFFFF" fill-rule="evenodd"/><path d="M0 5.29306 27.415 5.29306 27.415 0 38.0011 10.5861 27.415 21.1722 27.415 15.8792 0 15.8792Z" stroke="#172C51" stroke-width="1.33337" stroke-miterlimit="8" fill="#FFFFFF" fill-rule="evenodd" transform="matrix(-0.707765 -0.706451 -0.707765 0.706451 156.986 282.657)"/><path d="M0 5.29306 27.415 5.29306 27.415 0 38.0011 10.5861 27.415 21.1722 27.415 15.8792 0 15.8792Z" stroke="#172C51" stroke-width="1.33337" stroke-miterlimit="8" fill="#FFFFFF" fill-rule="evenodd" transform="matrix(-0.707765 -0.706451 -0.707765 0.706451 264.098 72.2984)"/><path d="M165.139 60.2719 173.884 60.2719 173.884 51.1766 182.116 51.1766 182.116 60.2719 190.861 60.2719 190.861 68.4886 182.116 68.4886 182.116 77.5839 173.884 77.5839 173.884 68.4886 165.139 68.4886Z" stroke="#172C51" stroke-width="1.33461" stroke-miterlimit="8" fill="#FFFFFF" fill-rule="evenodd"/></g></svg>