<svg width="832" height="132" xmlns="http://www.w3.org/2000/svg" xmlns:xlink="http://www.w3.org/1999/xlink" overflow="hidden"><defs><clipPath id="clip0"><rect x="0" y="0" width="832" height="132"/></clipPath></defs><g clip-path="url(#clip0)"><rect x="0" y="0" width="832" height="131.588" fill="#FFFFFF"/><text font-family="Calibri,Calibri_MSFontService,sans-serif" font-weight="700" font-size="14.6297" transform="matrix(1 0 0 0.996882 15.5844 26)">Language Model</text><text font-family="Calibri,Calibri_MSFontService,sans-serif" font-weight="700" font-size="14.6297" transform="matrix(1 0 0 0.996882 24.5898 43)">(</text><text font-family="Yu Gothic,Yu Gothic_MSFontService,sans-serif" font-weight="700" font-size="14.6297" transform="matrix(1 0 0 0.996882 29.0925 43)">言語モデル</text><text font-family="Calibri,Calibri_MSFontService,sans-serif" font-weight="700" font-size="14.6297" transform="matrix(1 0 0 0.996882 102.47 43)">)</text><text font-family="Cambria Math,Cambria Math_MSFontService,sans-serif" font-weight="400" font-size="26.5995" transform="matrix(1 0 0 0.996882 179.517 38)">⊕</text><text font-family="Calibri,Calibri_MSFontService,sans-serif" font-weight="700" font-size="14.6297" transform="matrix(1 0 0 0.996882 163.01 84)">Reasoning</text><text font-family="Calibri,Calibri_MSFontService,sans-serif" font-weight="700" font-size="14.6297" transform="matrix(1 0 0 0.996882 159.088 101)">Mechanism</text><text font-family="Calibri,Calibri_MSFontService,sans-serif" font-weight="700" font-size="14.6297" transform="matrix(1 0 0 0.996882 160.589 119)">(</text><text font-family="Yu Gothic,Yu Gothic_MSFontService,sans-serif" font-weight="700" font-size="14.6297" transform="matrix(1 0 0 0.996882 165.092 119)">推論機構</text><text font-family="Calibri,Calibri_MSFontService,sans-serif" font-weight="700" font-size="14.6297" transform="matrix(1 0 0 0.996882 223.794 119)">)</text><text font-family="Calibri,Calibri_MSFontService,sans-serif" font-weight="700" font-size="14.6297" transform="matrix(1 0 0 0.996882 291.262 18)">Reasoning</text><text font-family="Calibri,Calibri_MSFontService,sans-serif" font-weight="700" font-size="14.6297" transform="matrix(1 0 0 0.996882 272.498 35)">Language Model</text><text font-family="Calibri,Calibri_MSFontService,sans-serif" font-weight="700" font-size="14.6297" transform="matrix(1 0 0 0.996882 266.828 53)">(</text><text font-family="Yu Gothic,Yu Gothic_MSFontService,sans-serif" font-weight="700" font-size="14.6297" transform="matrix(1 0 0 0.996882 271.33 53)">推論言語モデル</text><text font-family="Calibri,Calibri_MSFontService,sans-serif" font-weight="700" font-size="14.6297" transform="matrix(1 0 0 0.996882 374.059 53)">)</text><path d="M130.5 29.7399 180.179 29.7399 180.179 31.0699 130.5 31.0699ZM172.511 25.1756 181.503 30.4049 172.511 35.6342C172.192 35.8193 171.784 35.7121 171.598 35.3949 171.413 35.0776 171.52 34.6705 171.838 34.4854L179.843 29.8305 179.843 30.9793 171.838 26.3244C171.52 26.1393 171.413 25.7322 171.598 25.4149 171.784 25.0977 172.192 24.9905 172.511 25.1756Z" fill="#172C51"/><path d="M203.5 29.7399 254.179 29.7399 254.179 31.0699 203.5 31.0699ZM246.511 25.1756 255.503 30.4049 246.511 35.6342C246.192 35.8193 245.784 35.7121 245.598 35.3949 245.413 35.0776 245.52 34.6705 245.838 34.4854L253.843 29.8305 253.843 30.9793 245.838 26.3244C245.52 26.1393 245.413 25.7322 245.598 25.4149 245.784 25.0977 246.192 24.9905 246.511 25.1756Z" fill="#172C51"/><path d="M0-0.664987 23.6054-0.664987 23.6054 0.664987 0 0.664987ZM15.9606-5.22931 24.9251 0 15.9606 5.22931C15.6434 5.41437 15.2362 5.30721 15.0511 4.98998 14.8661 4.67275 14.9732 4.26556 15.2905 4.08051L23.2703-0.574402 23.2703 0.574402 15.2905-4.08051C14.9732-4.26556 14.8661-4.67275 15.0511-4.98998 15.2362-5.30721 15.6434-5.41437 15.9606-5.22931Z" fill="#172C51" transform="matrix(-1.84272e-16 -1 -1.00313 1.83697e-16 192.5 66.2926)"/><text font-family="Calibri,Calibri_MSFontService,sans-serif" font-weight="700" font-size="14.6297" transform="matrix(1 0 0 0.996882 470.667 26)">LLM</text><text font-family="Calibri,Calibri_MSFontService,sans-serif" font-weight="700" font-size="14.6297" transform="matrix(1 0 0 0.996882 420.056 43)">(</text><text font-family="Yu Gothic,Yu Gothic_MSFontService,sans-serif" font-weight="700" font-size="14.6297" transform="matrix(1 0 0 0.996882 424.559 43)">大規模言語モデル</text><text font-family="Calibri,Calibri_MSFontService,sans-serif" font-weight="700" font-size="14.6297" transform="matrix(1 0 0 0.996882 541.963 43)">)</text><text font-family="Cambria Math,Cambria Math_MSFontService,sans-serif" font-weight="400" font-size="26.5995" transform="matrix(1 0 0 0.996882 596.996 38)">⊕</text><text font-family="Calibri,Calibri_MSFontService,sans-serif" font-weight="700" font-size="14.6297" transform="matrix(1 0 0 0.996882 580.49 84)">Reasoning</text><text font-family="Calibri,Calibri_MSFontService,sans-serif" font-weight="700" font-size="14.6297" transform="matrix(1 0 0 0.996882 576.568 101)">Mechanism</text><text font-family="Calibri,Calibri_MSFontService,sans-serif" font-weight="700" font-size="14.6297" transform="matrix(1 0 0 0.996882 578.068 119)">(</text><text font-family="Yu Gothic,Yu Gothic_MSFontService,sans-serif" font-weight="700" font-size="14.6297" transform="matrix(1 0 0 0.996882 582.571 119)">推論機構</text><text font-family="Calibri,Calibri_MSFontService,sans-serif" font-weight="700" font-size="14.6297" transform="matrix(1 0 0 0.996882 641.273 119)">)</text><text font-family="Calibri,Calibri_MSFontService,sans-serif" font-weight="700" font-size="14.6297" transform="matrix(1 0 0 0.996882 727.389 25)">LRM</text><text font-family="Calibri,Calibri_MSFontService,sans-serif" font-weight="700" font-size="14.6297" transform="matrix(1 0 0 0.996882 677.859 42)">(</text><text font-family="Yu Gothic,Yu Gothic_MSFontService,sans-serif" font-weight="700" font-size="14.6297" transform="matrix(1 0 0 0.996882 682.362 42)">大規模推論モデル</text><text font-family="Calibri,Calibri_MSFontService,sans-serif" font-weight="700" font-size="14.6297" transform="matrix(1 0 0 0.996882 799.766 42)">)</text><path d="M547.5 29.7399 598.179 29.7399 598.179 31.0699 547.5 31.0699ZM590.511 25.1756 599.503 30.4049 590.511 35.6342C590.192 35.8193 589.784 35.7121 589.598 35.3949 589.413 35.0776 589.52 34.6705 589.838 34.4854L597.843 29.8305 597.843 30.9793 589.838 26.3244C589.52 26.1393 589.413 25.7322 589.598 25.4149 589.784 25.0977 590.192 24.9905 590.511 25.1756Z" fill="#172C51"/><path d="M621.5 29.7399 671.179 29.7399 671.179 31.0699 621.5 31.0699ZM663.51 25.1756 672.503 30.4049 663.51 35.6342C663.192 35.8193 662.784 35.7121 662.598 35.3949 662.413 35.0776 662.52 34.6705 662.838 34.4854L670.843 29.8305 670.843 30.9793 662.838 26.3244C662.52 26.1393 662.413 25.7322 662.598 25.4149 662.784 25.0977 663.192 24.9905 663.51 25.1756Z" fill="#172C51"/><path d="M0-0.664987 23.6054-0.664987 23.6054 0.664987 0 0.664987ZM15.9606-5.22931 24.9251 0 15.9606 5.22931C15.6434 5.41437 15.2362 5.30721 15.0511 4.98998 14.8661 4.67275 14.9732 4.26556 15.2905 4.08051L23.2703-0.574402 23.2703 0.574402 15.2905-4.08051C14.9732-4.26556 14.8661-4.67275 15.0511-4.98998 15.2362-5.30721 15.6434-5.41437 15.9606-5.22931Z" fill="#172C51" transform="matrix(-1.84272e-16 -1 -1.00313 1.83697e-16 609.5 66.2926)"/></g></svg>