<svg width="680" height="605" xmlns="http://www.w3.org/2000/svg" xmlns:xlink="http://www.w3.org/1999/xlink" overflow="hidden"><g><rect x="0" y="0" width="680" height="604.629" fill="#FFFFFF"/><path d="M341 142.148C370.787 100.313 385.149 78.1543 491 74.0771" stroke="#7F7F7F" stroke-width="1.99902" stroke-miterlimit="8" fill="none" fill-rule="evenodd"/><path d="M89 147.654C89 130.791 112.505 117.122 141.5 117.122 170.495 117.122 194 130.791 194 147.654 194 164.516 170.495 178.185 141.5 178.185 112.505 178.185 89 164.516 89 147.654Z" stroke="#172C51" stroke-width="1.99902" stroke-miterlimit="8" stroke-opacity="0.2" fill="none" fill-rule="evenodd"/><path d="M72 138.144C72 116.582 103.116 99.1031 141.5 99.1031 179.884 99.1031 211 116.582 211 138.144 211 159.705 179.884 177.184 141.5 177.184 103.116 177.184 72 159.705 72 138.144Z" stroke="#172C51" stroke-width="1.99902" stroke-miterlimit="8" stroke-opacity="0.301961" fill="none" fill-rule="evenodd"/><path d="M37 121.126C37 89.613 84.0101 64.0667 142 64.0667 199.99 64.0667 247 89.613 247 121.126 247 152.639 199.99 178.185 142 178.185 84.0101 178.185 37 152.639 37 121.126Z" stroke="#172C51" stroke-width="1.99902" stroke-miterlimit="8" stroke-opacity="0.501961" fill="none" fill-rule="evenodd"/><path d="M19 111.116C19 74.074 74.069 44.0458 142 44.0458 209.931 44.0458 265 74.074 265 111.116 265 148.157 209.931 178.185 142 178.185 74.069 178.185 19 148.157 19 111.116Z" stroke="#172C51" stroke-width="1.99902" stroke-miterlimit="8" fill="none" fill-rule="evenodd"/><path d="M52 129.134C52 102.044 91.6228 80.0834 140.5 80.0834 189.377 80.0834 229 102.044 229 129.134 229 156.225 189.377 178.185 140.5 178.185 91.6228 178.185 52 156.225 52 129.134Z" stroke="#172C51" stroke-width="1.99902" stroke-miterlimit="8" stroke-opacity="0.4" fill="none" fill-rule="evenodd"/><path d="M129 102.106 142 89.0928 155 102.106 148.5 102.106 148.5 128.133 135.5 128.133 135.5 102.106Z" stroke="#172C51" stroke-width="1.99902" stroke-miterlimit="8" fill="#FFFFFF" fill-rule="evenodd"/><path d="M84.2792 119.596 86.5357 101.405 104.708 103.664 99.6009 107.647 115.774 128.427 105.559 136.393 89.3864 115.613Z" stroke="#172C51" stroke-width="1.99981" stroke-miterlimit="8" fill="#FFFFFF" fill-rule="evenodd"/><path d="M0 12.9537 12.9537 0 25.9073 12.9537 19.4305 12.9537 19.4305 39.2789 6.47682 39.2789 6.47682 12.9537Z" stroke="#172C51" stroke-width="1.99981" stroke-miterlimit="8" fill="#FFFFFF" fill-rule="evenodd" transform="matrix(-0.78854 -0.614983 -0.614343 0.789362 206.933 107.505)"/><path d="M307 165.172 519.337 165.172 519.337 167.173 307 167.173ZM518.004 162.171 526 166.173 518.004 170.175Z" fill="#172C51"/><path d="M306 165.172 306 56.7224 307.999 56.7224 307.999 165.172ZM303.002 58.0564 307 50.052 310.998 58.0564Z" fill="#172C51"/><path d="M194 266.778C194 283.64 170.719 297.309 142 297.309 113.281 297.309 90 283.64 90 266.778 90 249.915 113.281 236.246 142 236.246 170.719 236.246 194 249.915 194 266.778Z" stroke="#172C51" stroke-width="1.99902" stroke-miterlimit="8" stroke-opacity="0.2" fill="none" fill-rule="evenodd"/><path d="M212 276.288C212 297.849 180.66 315.328 142 315.328 103.34 315.328 72 297.849 72 276.288 72 254.726 103.34 237.247 142 237.247 180.66 237.247 212 254.726 212 276.288Z" stroke="#172C51" stroke-width="1.99902" stroke-miterlimit="8" stroke-opacity="0.301961" fill="none" fill-rule="evenodd"/><path d="M247 293.305C247 324.818 199.99 350.365 142 350.365 84.0101 350.365 37 324.818 37 293.305 37 261.792 84.0101 236.246 142 236.246 199.99 236.246 247 261.792 247 293.305Z" stroke="#172C51" stroke-width="1.99902" stroke-miterlimit="8" stroke-opacity="0.501961" fill="none" fill-rule="evenodd"/><path d="M265 303.316C265 340.357 209.931 370.385 142 370.385 74.069 370.385 19 340.357 19 303.316 19 266.274 74.069 236.246 142 236.246 209.931 236.246 265 266.274 265 303.316Z" stroke="#172C51" stroke-width="1.99902" stroke-miterlimit="8" fill="none" fill-rule="evenodd"/><path d="M231 285.297C231 312.387 191.601 334.348 143 334.348 94.399 334.348 55 312.387 55 285.297 55 258.207 94.399 236.246 143 236.246 191.601 236.246 231 258.207 231 285.297Z" stroke="#172C51" stroke-width="1.99902" stroke-miterlimit="8" stroke-opacity="0.4" fill="none" fill-rule="evenodd"/><path d="M130 333.847 142.5 321.334 155 333.847 148.75 333.847 148.75 360.375 136.25 360.375 136.25 333.847Z" stroke="#172C51" stroke-width="1.99902" stroke-miterlimit="8" fill="#FFFFFF" fill-rule="evenodd"/><path d="M0 12.9537 12.9537 0 25.9073 12.9537 19.4305 12.9537 19.4305 39.2789 6.47682 39.2789 6.47682 12.9537Z" stroke="#172C51" stroke-width="1.99981" stroke-miterlimit="8" fill="#FFFFFF" fill-rule="evenodd" transform="matrix(-0.78854 -0.614983 -0.614343 0.789362 118.031 325.651)"/><path d="M174.468 335.485 176.724 317.293 194.897 319.552 189.789 323.535 205.962 344.316 195.748 352.282 179.575 331.502Z" stroke="#172C51" stroke-width="1.99981" stroke-miterlimit="8" fill="#FFFFFF" fill-rule="evenodd"/><path d="M334.5 141.647C334.5 137.777 337.41 134.64 341 134.64 344.59 134.64 347.5 137.777 347.5 141.647 347.5 145.517 344.59 148.655 341 148.655 337.41 148.655 334.5 145.517 334.5 141.647Z" stroke="#172C51" stroke-width="1.33268" stroke-miterlimit="8" fill="#D9D9D9" fill-rule="evenodd"/><path d="M360.5 108.613C360.5 104.743 363.41 101.606 367 101.606 370.59 101.606 373.5 104.743 373.5 108.613 373.5 112.483 370.59 115.62 367 115.62 363.41 115.62 360.5 112.483 360.5 108.613Z" stroke="#172C51" stroke-width="1.33268" stroke-miterlimit="8" fill="#D9D9D9" fill-rule="evenodd"/><path d="M395.5 87.0906C395.5 83.497 398.41 80.5838 402 80.5838 405.59 80.5838 408.5 83.497 408.5 87.0906 408.5 90.6842 405.59 93.5974 402 93.5974 398.41 93.5974 395.5 90.6842 395.5 87.0906Z" stroke="#172C51" stroke-width="1.33268" stroke-miterlimit="8" fill="#D9D9D9" fill-rule="evenodd"/><path d="M438.5 77.5807C438.5 73.7107 441.41 70.5735 445 70.5735 448.59 70.5735 451.5 73.7107 451.5 77.5807 451.5 81.4508 448.59 84.588 445 84.588 441.41 84.588 438.5 81.4508 438.5 77.5807Z" stroke="#172C51" stroke-width="1.33268" stroke-miterlimit="8" fill="#D9D9D9" fill-rule="evenodd"/><path d="M482.5 74.5776C482.5 70.7076 485.41 67.5704 489 67.5704 492.59 67.5704 495.5 70.7076 495.5 74.5776 495.5 78.4476 492.59 81.5849 489 81.5849 485.41 81.5849 482.5 78.4476 482.5 74.5776Z" stroke="#172C51" stroke-width="1.33268" stroke-miterlimit="8" fill="#D9D9D9" fill-rule="evenodd"/><path d="M341 339.353C370.986 296.903 385.443 274.418 492 270.281" stroke="#7F7F7F" stroke-width="1.99902" stroke-miterlimit="8" fill="none" fill-rule="evenodd"/><path d="M307 361.377 520.337 361.377 520.337 363.378 307 363.378ZM519.004 358.375 527 362.377 519.004 366.379Z" fill="#172C51"/><path d="M306 362.377 306 253.928 307.999 253.928 307.999 362.377ZM303.002 255.262 307 247.257 310.998 255.262Z" fill="#172C51"/><path d="M335.5 338.352C335.5 334.758 338.41 331.845 342 331.845 345.59 331.845 348.5 334.758 348.5 338.352 348.5 341.946 345.59 344.859 342 344.859 338.41 344.859 335.5 341.946 335.5 338.352Z" stroke="#172C51" stroke-width="1.33268" stroke-miterlimit="8" fill="#D9D9D9" fill-rule="evenodd"/><path d="M360.5 305.818C360.5 301.948 363.634 298.811 367.5 298.811 371.366 298.811 374.5 301.948 374.5 305.818 374.5 309.688 371.366 312.826 367.5 312.826 363.634 312.826 360.5 309.688 360.5 305.818Z" stroke="#172C51" stroke-width="1.33268" stroke-miterlimit="8" fill="#D9D9D9" fill-rule="evenodd"/><path d="M396.5 284.296C396.5 280.702 399.41 277.789 403 277.789 406.59 277.789 409.5 280.702 409.5 284.296 409.5 287.889 406.59 290.803 403 290.803 399.41 290.803 396.5 287.889 396.5 284.296Z" stroke="#172C51" stroke-width="1.33268" stroke-miterlimit="8" fill="#D9D9D9" fill-rule="evenodd"/><path d="M438.5 274.786C438.5 270.916 441.634 267.779 445.5 267.779 449.366 267.779 452.5 270.916 452.5 274.786 452.5 278.656 449.366 281.793 445.5 281.793 441.634 281.793 438.5 278.656 438.5 274.786Z" stroke="#172C51" stroke-width="1.33268" stroke-miterlimit="8" fill="#D9D9D9" fill-rule="evenodd"/><path d="M482.5 271.282C482.5 267.689 485.634 264.775 489.5 264.775 493.366 264.775 496.5 267.689 496.5 271.282 496.5 274.876 493.366 277.789 489.5 277.789 485.634 277.789 482.5 274.876 482.5 271.282Z" stroke="#172C51" stroke-width="1.33268" stroke-miterlimit="8" fill="#D9D9D9" fill-rule="evenodd"/><rect x="320" y="239.249" width="187" height="119.124" fill="#FFFFFF" fill-opacity="0.698039"/><rect x="483" y="263.274" width="13" height="13.0136" stroke="#172C51" stroke-width="1.99902" stroke-miterlimit="8" fill="#D9D9D9"/><rect x="438" y="264.275" width="13" height="12.0125" stroke="#172C51" stroke-width="1.99902" stroke-miterlimit="8" fill="#D9D9D9"/><rect x="396" y="267.278" width="13" height="12.0125" stroke="#172C51" stroke-width="1.99902" stroke-miterlimit="8" fill="#D9D9D9"/><rect x="360" y="273.284" width="13" height="12.0125" stroke="#172C51" stroke-width="1.99902" stroke-miterlimit="8" fill="#D9D9D9"/><rect x="335" y="314.327" width="12" height="12.0125" stroke="#172C51" stroke-width="1.99902" stroke-miterlimit="8" fill="#D9D9D9"/><text font-family="Yu Gothic,Yu Gothic_MSFontService,sans-serif" font-weight="700" font-size="14.6748" transform="matrix(1 0 0 1.00104 376.806 189)">モデルサイズ</text><text font-family="Yu Gothic,Yu Gothic_MSFontService,sans-serif" font-weight="700" font-size="14.6748" transform="matrix(1 0 0 1.00104 376.932 385)">モデルサイズ</text><text font-family="Yu Gothic,Yu Gothic_MSFontService,sans-serif" font-weight="700" font-size="14.6748" transform="matrix(-1.83697e-16 -1.00208 0.998959 -1.83888e-16 300.383 321)">精度</text><text font-family="Yu Gothic,Yu Gothic_MSFontService,sans-serif" font-weight="700" font-size="14.6748" transform="matrix(-1.83697e-16 -1.00208 0.998959 -1.83888e-16 299.365 128)">精度</text><path d="M265 525.547C265 562.589 209.931 592.617 142 592.617 74.069 592.617 19 562.589 19 525.547 19 488.505 74.069 458.477 142 458.477 209.931 458.477 265 488.505 265 525.547Z" stroke="#172C51" stroke-width="1.99902" stroke-miterlimit="8" fill="none" fill-rule="evenodd"/><path d="M97 508.529C97 496.919 117.147 487.507 142 487.507 166.853 487.507 187 496.919 187 508.529 187 520.139 166.853 529.551 142 529.551 117.147 529.551 97 520.139 97 508.529Z" stroke="#FF0000" stroke-width="1.99902" stroke-miterlimit="8" stroke-dasharray="7.99608 5.99706" fill="#FFFFFF" fill-rule="evenodd"/><text fill="#FF0000" font-family="Yu Gothic,Yu Gothic_MSFontService,sans-serif" font-weight="700" font-size="14.6748" transform="matrix(1 0 0 1.00104 105.669 514)">当たりくじ</text><text font-family="Yu Gothic,Yu Gothic_MSFontService,sans-serif" font-weight="700" font-size="14.6748" transform="matrix(1 0 0 1.00104 12.0028 32)">■</text><text font-family="Yu Gothic,Yu Gothic_MSFontService,sans-serif" font-weight="700" font-size="14.6748" transform="matrix(1 0 0 1.00104 29.994 32)">精度を上げるにはモデルサイズを大きくする必要がある</text><text font-family="Yu Gothic,Yu Gothic_MSFontService,sans-serif" font-weight="700" font-size="14.6748" transform="matrix(1 0 0 1.00104 11.1142 221)">■</text><text font-family="Yu Gothic,Yu Gothic_MSFontService,sans-serif" font-weight="700" font-size="14.6748" transform="matrix(1 0 0 1.00104 29.1054 221)">一旦</text><text font-family="Calibri,Calibri_MSFontService,sans-serif" font-weight="700" font-size="14.6748" transform="matrix(1 0 0 1.00104 58.4244 221)">,</text><text font-family="Yu Gothic,Yu Gothic_MSFontService,sans-serif" font-weight="700" font-size="14.6748" transform="matrix(1 0 0 1.00104 65.5875 221)">高精度のモデルが出来たら枝刈りしても精度はあまり落ちない</text><text font-family="Yu Gothic,Yu Gothic_MSFontService,sans-serif" font-weight="700" font-size="14.6748" transform="matrix(1 0 0 1.00104 9.5953 413)">■</text><text font-family="Yu Gothic,Yu Gothic_MSFontService,sans-serif" font-weight="700" font-size="14.6748" transform="matrix(1 0 0 1.00104 27.5865 413)">小サイズ・高精度の当りくじが存在して</text><text font-family="Calibri,Calibri_MSFontService,sans-serif" font-weight="700" font-size="14.6748" transform="matrix(1 0 0 1.00104 291.457 413)">,</text><text font-family="Calibri,Calibri_MSFontService,sans-serif" font-weight="700" font-size="14.6748" transform="matrix(1 0 0 1.00104 27.5865 430)">AI</text><text font-family="Yu Gothic,Yu Gothic_MSFontService,sans-serif" font-weight="700" font-size="14.6748" transform="matrix(1 0 0 1.00104 40.2469 430)">モデルに取り込まれると高精度になる</text><text font-family="Calibri,Calibri_MSFontService,sans-serif" font-weight="700" font-size="14.6748" transform="matrix(1 0 0 1.00104 289.458 430)">?</text><text font-family="Yu Gothic,Yu Gothic_MSFontService,sans-serif" font-weight="700" font-size="14.6748" transform="matrix(1 0 0 1.00104 27.5865 448)">枝刈りしても当りくじが削られなければ高精度を維持する？</text><path d="M383.184 131.56 387.96 124.804 392.688 118.834 397.923 113.67 400.937 111.371 404.271 109.292 408.004 107.424 412.201 105.767 416.93 104.318 422.257 103.075 428.253 102.035 434.988 101.195 442.533 100.552 448.971 100.211 449.077 102.209 442.655 102.55 442.687 102.547 435.177 103.187 435.216 103.183 428.524 104.018 428.571 104.011 422.627 105.042 422.683 105.031 417.417 106.259 417.482 106.242 412.824 107.669 412.898 107.643 408.778 109.27 408.858 109.234 405.206 111.061 405.288 111.016 402.034 113.045 402.111 112.991 399.186 115.223 399.281 115.14 394.135 120.217 394.216 120.126 389.543 126.026 389.576 125.983 384.816 132.715ZM441.249 96.081 451.005 101.105 441.834 107.133C441.373 107.436 440.753 107.307 440.45 106.845 440.147 106.383 440.276 105.763 440.737 105.46L448.475 100.374 448.566 102.1 440.335 97.8605C439.844 97.6077 439.651 97.0044 439.903 96.513 440.156 96.0216 440.759 95.8282 441.249 96.081Z" fill="#7F7F7F"/><path d="M337.507 282.132 338.65 277.53 340.662 271.863 343.118 267.021 346.076 262.943 349.582 259.579 353.669 256.872 358.367 254.755 363.711 253.149 369.748 251.971 376.532 251.141 384.117 250.582 392.559 250.218 401.913 249.977 412.231 249.785 423.568 249.57 423.562 249.571 435.975 249.26 436.025 251.261 423.609 251.571 412.268 251.786 401.953 251.978 401.961 251.978 392.62 252.218 392.637 252.218 384.218 252.58 384.249 252.579 376.703 253.135 376.75 253.13 370.026 253.953 370.096 253.942 364.142 255.104 364.238 255.08 359.004 256.653 359.127 256.607 354.563 258.663 354.704 258.586 350.76 261.198 350.9 261.085 347.524 264.326 347.641 264.192 344.782 268.133 344.865 267.998 342.474 272.712 342.524 272.594 340.55 278.154 340.578 278.06 339.447 282.615ZM345.649 276.429 337.999 284.3 334.92 273.76C334.765 273.229 335.069 272.674 335.599 272.519 336.129 272.364 336.684 272.668 336.839 273.198L339.437 282.092 337.761 281.676 344.216 275.034C344.601 274.638 345.234 274.629 345.63 275.014 346.025 275.4 346.034 276.033 345.649 276.429Z" fill="#7F7F7F"/><path d="M343 321.334C354.458 265.652 385.972 273.339 489 270.281" stroke="#7F7F7F" stroke-width="1.99902" stroke-miterlimit="8" fill="none" fill-rule="evenodd"/><path d="M89 561.084C89 544.222 112.281 530.552 141 530.552 169.719 530.552 193 544.222 193 561.084 193 577.946 169.719 591.616 141 591.616 112.281 591.616 89 577.946 89 561.084Z" stroke="#000000" stroke-width="1.99902" stroke-miterlimit="8" stroke-opacity="0.101961" fill="none" fill-rule="evenodd"/><path d="M72 552.074C72 530.237 103.116 512.533 141.5 512.533 179.884 512.533 211 530.237 211 552.074 211 573.912 179.884 591.616 141.5 591.616 103.116 591.616 72 573.912 72 552.074Z" stroke="#000000" stroke-width="1.99902" stroke-miterlimit="8" stroke-opacity="0.101961" fill="none" fill-rule="evenodd"/><path d="M37 534.556C37 503.043 84.0101 477.497 142 477.497 199.99 477.497 247 503.043 247 534.556 247 566.069 199.99 591.616 142 591.616 84.0101 591.616 37 566.069 37 534.556Z" stroke="#000000" stroke-width="1.99902" stroke-miterlimit="8" stroke-opacity="0.101961" fill="none" fill-rule="evenodd"/><path d="M52 542.565C52 515.474 91.6228 493.514 140.5 493.514 189.377 493.514 229 515.474 229 542.565 229 569.655 189.377 591.616 140.5 591.616 91.6228 591.616 52 569.655 52 542.565Z" stroke="#000000" stroke-width="1.99902" stroke-miterlimit="8" stroke-opacity="0.101961" fill="none" fill-rule="evenodd"/><path d="M193 490.01C193 506.872 169.719 520.542 141 520.542 112.281 520.542 89 506.872 89 490.01 89 473.148 112.281 459.478 141 459.478 169.719 459.478 193 473.148 193 490.01Z" stroke="#000000" stroke-width="1.99902" stroke-miterlimit="8" stroke-opacity="0.101961" fill="none" fill-rule="evenodd"/><path d="M210 499.019C210 520.857 178.884 538.56 140.5 538.56 102.116 538.56 71 520.857 71 499.019 71 477.181 102.116 459.478 140.5 459.478 178.884 459.478 210 477.181 210 499.019Z" stroke="#000000" stroke-width="1.99902" stroke-miterlimit="8" stroke-opacity="0.101961" fill="none" fill-rule="evenodd"/><path d="M246 516.537C246 548.051 198.766 573.597 140.5 573.597 82.2339 573.597 35 548.051 35 516.537 35 485.024 82.2339 459.478 140.5 459.478 198.766 459.478 246 485.024 246 516.537Z" stroke="#000000" stroke-width="1.99902" stroke-miterlimit="8" stroke-opacity="0.101961" fill="none" fill-rule="evenodd"/><path d="M230 508.029C230 535.395 190.377 557.58 141.5 557.58 92.6228 557.58 53 535.395 53 508.029 53 480.662 92.6228 458.477 141.5 458.477 190.377 458.477 230 480.662 230 508.029Z" stroke="#000000" stroke-width="1.99902" stroke-miterlimit="8" stroke-opacity="0.101961" fill="none" fill-rule="evenodd"/><text font-family="Yu Gothic,Yu Gothic_MSFontService,sans-serif" font-weight="700" font-size="14.6748" transform="matrix(1 0 0 1.00104 536.05 252)">枝刈りしただけでは</text><text font-family="Yu Gothic,Yu Gothic_MSFontService,sans-serif" font-weight="700" font-size="14.6748" transform="matrix(1 0 0 1.00104 536.05 269)">精度が落ちるので</text><text font-family="Yu Gothic,Yu Gothic_MSFontService,sans-serif" font-weight="700" font-size="14.6748" transform="matrix(1 0 0 1.00104 536.05 287)">再学習が必要。</text><text font-family="Yu Gothic,Yu Gothic_MSFontService,sans-serif" font-weight="700" font-size="14.6748" transform="matrix(1 0 0 1.00104 536.05 322)">普通に学習すると</text><text font-family="Yu Gothic,Yu Gothic_MSFontService,sans-serif" font-weight="700" font-size="14.6748" transform="matrix(1 0 0 1.00104 536.05 340)">小モデルの学習に</text><text font-family="Yu Gothic,Yu Gothic_MSFontService,sans-serif" font-weight="700" font-size="14.6748" transform="matrix(1 0 0 1.00104 536.05 357)">なるので</text><text font-family="Calibri,Calibri_MSFontService,sans-serif" font-weight="700" font-size="14.6748" transform="matrix(1 0 0 1.00104 594.688 357)">,</text><text font-family="Yu Gothic,Yu Gothic_MSFontService,sans-serif" font-weight="700" font-size="14.6748" transform="matrix(1 0 0 1.00104 601.851 357)">初期値を</text><text font-family="Yu Gothic,Yu Gothic_MSFontService,sans-serif" font-weight="700" font-size="14.6748" transform="matrix(1 0 0 1.00104 536.05 375)">枝刈り前のものに</text><text font-family="Yu Gothic,Yu Gothic_MSFontService,sans-serif" font-weight="700" font-size="14.6748" transform="matrix(1 0 0 1.00104 536.05 392)">巻き戻すなどの</text><text font-family="Yu Gothic,Yu Gothic_MSFontService,sans-serif" font-weight="700" font-size="14.6748" transform="matrix(1 0 0 1.00104 536.05 410)">細工</text><text font-family="Yu Gothic,Yu Gothic_MSFontService,sans-serif" font-weight="700" font-size="14.6748" transform="matrix(1 0 0 1.00104 565.369 410)">が行われる。</text></g></svg>