<svg width="548" height="605" xmlns="http://www.w3.org/2000/svg" xmlns:xlink="http://www.w3.org/1999/xlink" overflow="hidden"><defs><clipPath id="clip0"><rect x="0" y="0" width="548" height="605"/></clipPath></defs><g clip-path="url(#clip0)"><rect x="0" y="0" width="548" height="605.333" fill="#FFFFFF"/><path d="M352 321.177C363.458 266.613 394.972 274.146 498 271.149" stroke="#7F7F7F" stroke-width="2" stroke-miterlimit="8" fill="none" fill-rule="evenodd"/><path d="M350 142.078C379.787 100.264 394.149 78.116 500 74.0408" stroke="#7F7F7F" stroke-width="2" stroke-miterlimit="8" fill="none" fill-rule="evenodd"/><path d="M98 147.581C98 130.727 121.505 117.064 150.5 117.064 179.495 117.064 203 130.727 203 147.581 203 164.435 179.495 178.098 150.5 178.098 121.505 178.098 98 164.435 98 147.581Z" stroke="#172C51" stroke-width="2" stroke-miterlimit="8" stroke-opacity="0.2" fill="none" fill-rule="evenodd"/><path d="M81 138.576C81 116.749 112.116 99.0546 150.5 99.0546 188.884 99.0546 220 116.749 220 138.576 220 160.404 188.884 178.098 150.5 178.098 112.116 178.098 81 160.404 81 138.576Z" stroke="#172C51" stroke-width="2" stroke-miterlimit="8" stroke-opacity="0.301961" fill="none" fill-rule="evenodd"/><path d="M46 121.067C46 89.5691 93.0101 64.0353 151 64.0353 208.99 64.0353 256 89.5691 256 121.067 256 152.564 208.99 178.098 151 178.098 93.0101 178.098 46 152.564 46 121.067Z" stroke="#172C51" stroke-width="2" stroke-miterlimit="8" stroke-opacity="0.501961" fill="none" fill-rule="evenodd"/><path d="M28 111.061C28 74.0377 83.069 44.0243 151 44.0243 218.931 44.0243 274 74.0377 274 111.061 274 148.085 218.931 178.098 151 178.098 83.069 178.098 28 148.085 28 111.061Z" stroke="#172C51" stroke-width="2" stroke-miterlimit="8" fill="none" fill-rule="evenodd"/><path d="M61 129.071C61 101.994 100.623 80.0441 149.5 80.0441 198.377 80.0441 238 101.994 238 129.071 238 156.148 198.377 178.098 149.5 178.098 100.623 178.098 61 156.148 61 129.071Z" stroke="#172C51" stroke-width="2" stroke-miterlimit="8" stroke-opacity="0.4" fill="none" fill-rule="evenodd"/><path d="M138 102.056 151 89.0491 164 102.056 157.5 102.056 157.5 128.071 144.5 128.071 144.5 102.056Z" stroke="#172C51" stroke-width="2" stroke-miterlimit="8" fill="#FFFFFF" fill-rule="evenodd"/><path d="M93.2811 119.596 95.5387 101.405 113.72 103.664 108.61 107.647 124.791 128.427 114.571 136.393 98.3908 115.613Z" stroke="#172C51" stroke-width="2.00042" stroke-miterlimit="8" fill="#FFFFFF" fill-rule="evenodd"/><path d="M0 12.9577 12.9577 0 25.9153 12.9577 19.4365 12.9577 19.4365 39.2909 6.47884 39.2909 6.47884 12.9577Z" stroke="#172C51" stroke-width="2.00042" stroke-miterlimit="8" fill="#FFFFFF" fill-rule="evenodd" transform="matrix(-0.788686 -0.614796 -0.614457 0.789121 215.995 107.505)"/><path d="M316 165.091 529.333 165.091 529.333 167.092 316 167.092ZM528 162.089 536 166.092 528 170.094Z" fill="#172C51"/><path d="M315 165.091 315 56.6979 317 56.6979 317 165.091ZM312 58.032 316 50.0276 320 58.032Z" fill="#172C51"/><path d="M203 266.647C203 283.501 179.719 297.164 151 297.164 122.281 297.164 99 283.501 99 266.647 99 249.793 122.281 236.13 151 236.13 179.719 236.13 203 249.793 203 266.647Z" stroke="#172C51" stroke-width="2" stroke-miterlimit="8" stroke-opacity="0.2" fill="none" fill-rule="evenodd"/><path d="M221 276.152C221 297.703 189.66 315.174 151 315.174 112.34 315.174 81 297.703 81 276.152 81 254.601 112.34 237.131 151 237.131 189.66 237.131 221 254.601 221 276.152Z" stroke="#172C51" stroke-width="2" stroke-miterlimit="8" stroke-opacity="0.301961" fill="none" fill-rule="evenodd"/><path d="M256 293.662C256 325.436 208.99 351.193 151 351.193 93.0101 351.193 46 325.436 46 293.662 46 261.888 93.0101 236.13 151 236.13 208.99 236.13 256 261.888 256 293.662Z" stroke="#172C51" stroke-width="2" stroke-miterlimit="8" stroke-opacity="0.501961" fill="none" fill-rule="evenodd"/><path d="M274 303.167C274 340.191 218.931 370.204 151 370.204 83.069 370.204 28 340.191 28 303.167 28 266.144 83.069 236.13 151 236.13 218.931 236.13 274 266.144 274 303.167Z" stroke="#172C51" stroke-width="2" stroke-miterlimit="8" fill="none" fill-rule="evenodd"/><path d="M240 285.657C240 313.011 200.601 335.185 152 335.185 103.399 335.185 64 313.011 64 285.657 64 258.304 103.399 236.13 152 236.13 200.601 236.13 240 258.304 240 285.657Z" stroke="#172C51" stroke-width="2" stroke-miterlimit="8" stroke-opacity="0.4" fill="none" fill-rule="evenodd"/><path d="M139 333.684 151.5 321.177 164 333.684 157.75 333.684 157.75 360.198 145.25 360.198 145.25 333.684Z" stroke="#172C51" stroke-width="2" stroke-miterlimit="8" fill="#FFFFFF" fill-rule="evenodd"/><path d="M0 12.9577 12.9577 0 25.9153 12.9577 19.4365 12.9577 19.4365 39.2909 6.47884 39.2909 6.47884 12.9577Z" stroke="#172C51" stroke-width="2.00042" stroke-miterlimit="8" fill="#FFFFFF" fill-rule="evenodd" transform="matrix(-0.788686 -0.614796 -0.614457 0.789121 127.049 325.651)"/><path d="M183.514 335.485 185.771 317.293 203.953 319.552 198.843 323.535 215.024 344.316 204.804 352.282 188.624 331.502Z" stroke="#172C51" stroke-width="2.00042" stroke-miterlimit="8" fill="#FFFFFF" fill-rule="evenodd"/><path d="M343.5 141.578C343.5 137.71 346.41 134.574 350 134.574 353.59 134.574 356.5 137.71 356.5 141.578 356.5 145.446 353.59 148.582 350 148.582 346.41 148.582 343.5 145.446 343.5 141.578Z" stroke="#172C51" stroke-width="1.33333" stroke-miterlimit="8" fill="#D9D9D9" fill-rule="evenodd"/><path d="M369.5 108.56C369.5 104.692 372.41 101.556 376 101.556 379.59 101.556 382.5 104.692 382.5 108.56 382.5 112.428 379.59 115.564 376 115.564 372.41 115.564 369.5 112.428 369.5 108.56Z" stroke="#172C51" stroke-width="1.33333" stroke-miterlimit="8" fill="#D9D9D9" fill-rule="evenodd"/><path d="M404.5 87.048C404.5 83.4562 407.634 80.5444 411.5 80.5444 415.366 80.5444 418.5 83.4562 418.5 87.048 418.5 90.6398 415.366 93.5516 411.5 93.5516 407.634 93.5516 404.5 90.6398 404.5 87.048Z" stroke="#172C51" stroke-width="1.33333" stroke-miterlimit="8" fill="#D9D9D9" fill-rule="evenodd"/><path d="M447.5 77.5428C447.5 73.6747 450.41 70.5389 454 70.5389 457.59 70.5389 460.5 73.6747 460.5 77.5428 460.5 81.4109 457.59 84.5466 454 84.5466 450.41 84.5466 447.5 81.4109 447.5 77.5428Z" stroke="#172C51" stroke-width="1.33333" stroke-miterlimit="8" fill="#D9D9D9" fill-rule="evenodd"/><path d="M491.5 74.5411C491.5 70.673 494.41 67.5373 498 67.5373 501.59 67.5373 504.5 70.673 504.5 74.5411 504.5 78.4092 501.59 81.545 498 81.545 494.41 81.545 491.5 78.4092 491.5 74.5411Z" stroke="#172C51" stroke-width="1.33333" stroke-miterlimit="8" fill="#D9D9D9" fill-rule="evenodd"/><path d="M350 339.187C379.986 297.372 394.443 275.225 501 271.149" stroke="#7F7F7F" stroke-width="2" stroke-miterlimit="8" fill="none" fill-rule="evenodd"/><path d="M317 362.2 529.333 362.2 529.333 364.201 317 364.201ZM528 359.198 536 363.2 528 367.202Z" fill="#172C51"/><path d="M316 362.2 316 253.807 318 253.807 318 362.2ZM313 255.141 317 247.136 321 255.141Z" fill="#172C51"/><path d="M344.5 338.687C344.5 334.819 347.41 331.683 351 331.683 354.59 331.683 357.5 334.819 357.5 338.687 357.5 342.555 354.59 345.691 351 345.691 347.41 345.691 344.5 342.555 344.5 338.687Z" stroke="#172C51" stroke-width="1.33333" stroke-miterlimit="8" fill="#D9D9D9" fill-rule="evenodd"/><path d="M370.5 305.668C370.5 301.8 373.41 298.665 377 298.665 380.59 298.665 383.5 301.8 383.5 305.668 383.5 309.537 380.59 312.672 377 312.672 373.41 312.672 370.5 309.537 370.5 305.668Z" stroke="#172C51" stroke-width="1.33333" stroke-miterlimit="8" fill="#D9D9D9" fill-rule="evenodd"/><path d="M405.5 284.157C405.5 280.565 408.41 277.653 412 277.653 415.59 277.653 418.5 280.565 418.5 284.157 418.5 287.748 415.59 290.66 412 290.66 408.41 290.66 405.5 287.748 405.5 284.157Z" stroke="#172C51" stroke-width="1.33333" stroke-miterlimit="8" fill="#D9D9D9" fill-rule="evenodd"/><path d="M447.5 274.651C447.5 270.783 450.634 267.648 454.5 267.648 458.366 267.648 461.5 270.783 461.5 274.651 461.5 278.52 458.366 281.655 454.5 281.655 450.634 281.655 447.5 278.52 447.5 274.651Z" stroke="#172C51" stroke-width="1.33333" stroke-miterlimit="8" fill="#D9D9D9" fill-rule="evenodd"/><path d="M492.5 271.65C492.5 267.782 495.41 264.646 499 264.646 502.59 264.646 505.5 267.782 505.5 271.65 505.5 275.518 502.59 278.654 499 278.654 495.41 278.654 492.5 275.518 492.5 271.65Z" stroke="#172C51" stroke-width="1.33333" stroke-miterlimit="8" fill="#D9D9D9" fill-rule="evenodd"/><rect x="332" y="237.131" width="186" height="119.066" fill="#FFFFFF" fill-opacity="0.501961"/><rect x="492" y="263.145" width="13" height="13.0072" stroke="#172C51" stroke-width="2" stroke-miterlimit="8" fill="#D9D9D9"/><rect x="447" y="264.146" width="13" height="12.0066" stroke="#172C51" stroke-width="2" stroke-miterlimit="8" fill="#D9D9D9"/><rect x="406" y="267.147" width="12" height="13.0072" stroke="#172C51" stroke-width="2" stroke-miterlimit="8" fill="#D9D9D9"/><rect x="369" y="273.15" width="13" height="12.0066" stroke="#172C51" stroke-width="2" stroke-miterlimit="8" fill="#D9D9D9"/><rect x="344" y="314.173" width="12" height="13.0072" stroke="#172C51" stroke-width="2" stroke-miterlimit="8" fill="#D9D9D9"/><text font-family="Yu Gothic,Yu Gothic_MSFontService,sans-serif" font-weight="700" font-size="14.6748" transform="matrix(1 0 0 1.00055 385.951 189)">モデルサイズ</text><text font-family="Yu Gothic,Yu Gothic_MSFontService,sans-serif" font-weight="700" font-size="14.6748" transform="matrix(1 0 0 1.00055 386.077 384)">モデルサイズ</text><text font-family="Yu Gothic,Yu Gothic_MSFontService,sans-serif" font-weight="700" font-size="14.6748" transform="matrix(-1.83697e-16 -1.0011 0.999449 -1.83798e-16 309.491 321)">精度</text><text font-family="Yu Gothic,Yu Gothic_MSFontService,sans-serif" font-weight="700" font-size="14.6748" transform="matrix(-1.83697e-16 -1.0011 0.999449 -1.83798e-16 308.473 128)">精度</text><path d="M274 526.29C274 563.313 218.931 593.327 151 593.327 83.069 593.327 28 563.313 28 526.29 28 489.266 83.069 459.253 151 459.253 218.931 459.253 274 489.266 274 526.29Z" stroke="#172C51" stroke-width="2" stroke-miterlimit="8" fill="none" fill-rule="evenodd"/><path d="M138 517.285C138 505.681 158.147 496.273 183 496.273 207.853 496.273 228 505.681 228 517.285 228 528.889 207.853 538.297 183 538.297 158.147 538.297 138 528.889 138 517.285Z" stroke="#FF0000" stroke-width="2" stroke-miterlimit="8" stroke-dasharray="8 6" fill="#FFFFFF" fill-rule="evenodd"/><text fill="#FF0000" font-family="Yu Gothic,Yu Gothic_MSFontService,sans-serif" font-weight="700" font-size="14.6748" transform="matrix(1 0 0 1.00055 146.1 523)">当たりくじ</text><text font-family="Yu Gothic,Yu Gothic_MSFontService,sans-serif" font-weight="700" font-size="14.6748" transform="matrix(1 0 0 1.00055 20.9692 32)">●</text><text font-family="Yu Gothic,Yu Gothic_MSFontService,sans-serif" font-weight="700" font-size="14.6748" transform="matrix(1 0 0 1.00055 38.9692 32)">精度を上げるにはモデルサイズを大きくする必要がある</text><text font-family="Yu Gothic,Yu Gothic_MSFontService,sans-serif" font-weight="700" font-size="14.6748" transform="matrix(1 0 0 1.00055 20.0802 221)">●</text><text font-family="Yu Gothic,Yu Gothic_MSFontService,sans-serif" font-weight="700" font-size="14.6748" transform="matrix(1 0 0 1.00055 38.0802 221)">一旦</text><text font-family="Calibri,Calibri_MSFontService,sans-serif" font-weight="700" font-size="14.6748" transform="matrix(1 0 0 1.00055 67.4135 221)">,</text><text font-family="Yu Gothic,Yu Gothic_MSFontService,sans-serif" font-weight="700" font-size="14.6748" transform="matrix(1 0 0 1.00055 74.5802 221)">高精度のモデルが出来たら枝刈りしても精度はあまり落ちない</text><text font-family="Yu Gothic,Yu Gothic_MSFontService,sans-serif" font-weight="700" font-size="14.6748" transform="matrix(1 0 0 1.00055 18.5605 413)">●</text><text font-family="Yu Gothic,Yu Gothic_MSFontService,sans-serif" font-weight="700" font-size="14.6748" transform="matrix(1 0 0 1.00055 36.5605 413)">小サイズ・高精度の当りくじが存在して</text><text font-family="Calibri,Calibri_MSFontService,sans-serif" font-weight="700" font-size="14.6748" transform="matrix(1 0 0 1.00055 300.561 413)">,</text><text font-family="Calibri,Calibri_MSFontService,sans-serif" font-weight="700" font-size="14.6748" transform="matrix(1 0 0 1.00055 36.5605 430)">AI</text><text font-family="Yu Gothic,Yu Gothic_MSFontService,sans-serif" font-weight="700" font-size="14.6748" transform="matrix(1 0 0 1.00055 49.2272 430)">モデルに取り込まれると高精度になる</text><text font-family="Calibri,Calibri_MSFontService,sans-serif" font-weight="700" font-size="14.6748" transform="matrix(1 0 0 1.00055 298.561 430)">?</text><text font-family="Yu Gothic,Yu Gothic_MSFontService,sans-serif" font-weight="700" font-size="14.6748" transform="matrix(1 0 0 1.00055 36.5605 448)">枝刈りしても当りくじが削られなければ高精度を維持する？</text></g></svg>