<svg width="728" height="312" xmlns="http://www.w3.org/2000/svg" xmlns:xlink="http://www.w3.org/1999/xlink" overflow="hidden"><g><rect x="0" y="0" width="728" height="311.952" fill="#FFFFFF"/><path d="M514 56.195C514 54.9782 514.987 53.9918 516.203 53.9918L626.796 53.9918C628.013 53.9918 629 54.9782 629 56.195L629 69.7858C629 71.0026 628.013 71.989 626.796 71.989L516.203 71.989C514.987 71.989 514 71.0026 514 69.7858Z" stroke="#000000" stroke-width="2.00137" stroke-miterlimit="8" fill="#F4D7C1" fill-rule="evenodd"/><text font-family="Calibri,Calibri_MSFontService,sans-serif" font-weight="700" font-size="14.6745" transform="matrix(1 0 0 0.999847 550.806 68)">Router</text><path d="M575.001 23.9963 575.001 46.3216 572.999 46.3216 572.999 23.9963ZM578.003 44.9876 574 52.9919 569.997 44.9876Z"/><path d="M423 147.461C423 144.433 425.455 141.978 428.484 141.978L483.516 141.978C486.545 141.978 489 144.433 489 147.461L489 165.491C489 168.519 486.545 170.974 483.516 170.974L428.484 170.974C425.455 170.974 423 168.519 423 165.491Z" stroke="#000000" stroke-width="2.00137" stroke-miterlimit="8" fill="#C682FF" fill-rule="evenodd"/><text fill="#FFFFFF" font-family="Calibri,Calibri_MSFontService,sans-serif" font-weight="700" font-size="14.6745" transform="matrix(1 0 0 0.999847 432.769 161)">Expert1</text><path d="M498 147.461C498 144.433 500.455 141.978 503.484 141.978L558.516 141.978C561.545 141.978 564 144.433 564 147.461L564 165.491C564 168.519 561.545 170.974 558.516 170.974L503.484 170.974C500.455 170.974 498 168.519 498 165.491Z" fill="#E5CCFF" fill-rule="evenodd"/><text fill="#FFFFFF" font-family="Calibri,Calibri_MSFontService,sans-serif" font-weight="700" font-size="14.6745" transform="matrix(1 0 0 0.999847 507.334 161)">Expert2</text><path d="M572 147.461C572 144.433 574.455 141.978 577.484 141.978L632.516 141.978C635.545 141.978 638 144.433 638 147.461L638 165.491C638 168.519 635.545 170.974 632.516 170.974L577.484 170.974C574.455 170.974 572 168.519 572 165.491Z" fill="#F0E4FF" fill-rule="evenodd"/><text fill="#FFFFFF" font-family="Calibri,Calibri_MSFontService,sans-serif" font-weight="700" font-size="14.6745" transform="matrix(1 0 0 0.999847 581.151 161)">Expert3</text><path d="M645 147.461C645 144.433 647.455 141.978 650.484 141.978L705.516 141.978C708.545 141.978 711 144.433 711 147.461L711 165.491C711 168.519 708.545 170.974 705.516 170.974L650.484 170.974C647.455 170.974 645 168.519 645 165.491Z" fill="#DBB3FF" fill-rule="evenodd"/><text fill="#FFFFFF" font-family="Calibri,Calibri_MSFontService,sans-serif" font-weight="700" font-size="14.6745" transform="matrix(1 0 0 0.999847 654.413 161)">Expert4</text><path d="M535.001 108.983 535.001 118.361 458 118.361 459.001 117.36 459.001 133.308 456.999 133.308 456.999 116.36 534 116.36 532.999 117.36 532.999 108.983ZM462.003 131.974 458 139.979 453.997 131.974Z" fill="#172C51"/><path d="M459.001 170.974 459.001 185.433 458 184.433 575.001 184.433 575.001 211.296 572.999 211.296 572.999 185.433 574 186.434 456.999 186.434 456.999 170.974ZM578.003 209.962 574 217.967 569.997 209.962Z" fill="#172C51"/><rect x="527" y="76.9882" width="16.0001" height="33.9949" fill="#C682FF"/><rect x="549" y="92.9858" width="16.0001" height="17.9972" fill="#E5CCFF"/><rect x="571" y="103.984" width="14.9999" height="6.99891" fill="#F0E4FF"/><rect x="594" y="85.9868" width="15" height="24.9962" fill="#DBB3FF"/><rect x="418" y="36.9944" width="298" height="156.976" stroke="#3184A4" stroke-width="2.00137" stroke-miterlimit="8" stroke-dasharray="8.0055 6.00412" fill="none"/><path d="M523 110.983 613 110.983" stroke="#172C51" stroke-width="2.00137" stroke-miterlimit="8" fill="none" fill-rule="evenodd"/><path d="M174 50.1959C174 48.9791 174.987 47.9927 176.204 47.9927L286.796 47.9927C288.013 47.9927 289 48.9791 289 50.1959L289 63.7867C289 65.0035 288.013 65.9899 286.796 65.9899L176.204 65.9899C174.987 65.9899 174 65.0035 174 63.7867Z" stroke="#000000" stroke-width="2.00137" stroke-miterlimit="8" fill="#F4D7C1" fill-rule="evenodd"/><text font-family="Calibri,Calibri_MSFontService,sans-serif" font-weight="700" font-size="14.6745" transform="matrix(1 0 0 0.999847 210.635 62)">Router</text><path d="M233 29.9954 233 46.9929" stroke="#000000" stroke-width="2.00137" stroke-miterlimit="8" fill="none" fill-rule="evenodd"/><path d="M87 98.4686C87 95.4406 89.4551 92.9858 92.4836 92.9858L147.516 92.9858C150.545 92.9858 153 95.4406 153 98.4686L153 116.499C153 119.527 150.545 121.981 147.516 121.981L92.4836 121.981C89.4551 121.981 87 119.527 87 116.499Z" stroke="#000000" stroke-width="2.00137" stroke-miterlimit="8" fill="#C682FF" fill-rule="evenodd"/><text fill="#FFFFFF" font-family="Calibri,Calibri_MSFontService,sans-serif" font-weight="700" font-size="13.3405" transform="matrix(1 0 0 0.999847 95.273 111)">Expert1</text><text fill="#FFFFFF" font-family="Calibri,Calibri_MSFontService,sans-serif" font-weight="700" font-size="13.3405" transform="matrix(1 0 0 0.999847 137.969 111)">1</text><path d="M162 98.4686C162 95.4406 164.455 92.9858 167.484 92.9858L222.516 92.9858C225.545 92.9858 228 95.4406 228 98.4686L228 116.499C228 119.527 225.545 121.981 222.516 121.981L167.484 121.981C164.455 121.981 162 119.527 162 116.499Z" stroke="#000000" stroke-width="2.00137" stroke-miterlimit="8" fill="#A2A2A2" fill-rule="evenodd"/><text fill="#FFFFFF" font-family="Calibri,Calibri_MSFontService,sans-serif" font-weight="700" font-size="13.3405" transform="matrix(1 0 0 0.999847 169.838 111)">Expert2</text><text fill="#FFFFFF" font-family="Calibri,Calibri_MSFontService,sans-serif" font-weight="700" font-size="13.3405" transform="matrix(1 0 0 0.999847 212.534 111)">1</text><path d="M235 98.4686C235 95.4406 237.455 92.9858 240.484 92.9858L295.516 92.9858C298.545 92.9858 301 95.4406 301 98.4686L301 116.499C301 119.527 298.545 121.981 295.516 121.981L240.484 121.981C237.455 121.981 235 119.527 235 116.499Z" stroke="#000000" stroke-width="2.00137" stroke-miterlimit="8" fill="#A2A2A2" fill-rule="evenodd"/><text fill="#FFFFFF" font-family="Calibri,Calibri_MSFontService,sans-serif" font-weight="700" font-size="13.3405" transform="matrix(1 0 0 0.999847 243.655 111)">Expert3</text><text fill="#FFFFFF" font-family="Calibri,Calibri_MSFontService,sans-serif" font-weight="700" font-size="13.3405" transform="matrix(1 0 0 0.999847 286.351 111)">1</text><path d="M309 98.4686C309 95.4406 311.455 92.9858 314.484 92.9858L369.516 92.9858C372.545 92.9858 375 95.4406 375 98.4686L375 116.499C375 119.527 372.545 121.981 369.516 121.981L314.484 121.981C311.455 121.981 309 119.527 309 116.499Z" stroke="#000000" stroke-width="2.00137" stroke-miterlimit="8" fill="#A2A2A2" fill-rule="evenodd"/><text fill="#FFFFFF" font-family="Calibri,Calibri_MSFontService,sans-serif" font-weight="700" font-size="13.3405" transform="matrix(1 0 0 0.999847 316.917 111)">Expert4</text><text fill="#FFFFFF" font-family="Calibri,Calibri_MSFontService,sans-serif" font-weight="700" font-size="13.3405" transform="matrix(1 0 0 0.999847 359.613 111)">1</text><text font-family="Calibri,Calibri_MSFontService,sans-serif" font-weight="700" font-size="14.6745" transform="matrix(1 0 0 0.999847 209.157 25)">INPUT</text><text font-family="Calibri,Calibri_MSFontService,sans-serif" font-weight="700" font-size="14.6745" transform="matrix(1 0 0 0.999847 19.9302 113)">Layer 1</text><path d="M87 152.46C87 149.432 89.4551 146.978 92.4836 146.978L146.516 146.978C149.545 146.978 152 149.432 152 152.46L152 170.49C152 173.518 149.545 175.973 146.516 175.973L92.4836 175.973C89.4551 175.973 87 173.518 87 170.49Z" stroke="#000000" stroke-width="2.00137" stroke-miterlimit="8" fill="#A2A2A2" fill-rule="evenodd"/><text fill="#FFFFFF" font-family="Calibri,Calibri_MSFontService,sans-serif" font-weight="700" font-size="13.3405" transform="matrix(1 0 0 0.999847 94.7393 165)">Expert1</text><text fill="#FFFFFF" font-family="Calibri,Calibri_MSFontService,sans-serif" font-weight="700" font-size="13.3405" transform="matrix(1 0 0 0.999847 137.435 165)">2</text><path d="M161 152.46C161 149.432 163.455 146.978 166.484 146.978L221.516 146.978C224.545 146.978 227 149.432 227 152.46L227 170.49C227 173.518 224.545 175.973 221.516 175.973L166.484 175.973C163.455 175.973 161 173.518 161 170.49Z" stroke="#000000" stroke-width="2.00137" stroke-miterlimit="8" fill="#A2A2A2" fill-rule="evenodd"/><text fill="#FFFFFF" font-family="Calibri,Calibri_MSFontService,sans-serif" font-weight="700" font-size="13.3405" transform="matrix(1 0 0 0.999847 169.304 165)">Expert2</text><text fill="#FFFFFF" font-family="Calibri,Calibri_MSFontService,sans-serif" font-weight="700" font-size="13.3405" transform="matrix(1 0 0 0.999847 212 165)">2</text><path d="M235 152.46C235 149.432 237.455 146.978 240.484 146.978L295.516 146.978C298.545 146.978 301 149.432 301 152.46L301 170.49C301 173.518 298.545 175.973 295.516 175.973L240.484 175.973C237.455 175.973 235 173.518 235 170.49Z" stroke="#000000" stroke-width="2.00137" stroke-miterlimit="8" fill="#C682FF" fill-rule="evenodd"/><text fill="#FFFFFF" font-family="Calibri,Calibri_MSFontService,sans-serif" font-weight="700" font-size="13.3405" transform="matrix(1 0 0 0.999847 243.121 165)">Expert3</text><text fill="#FFFFFF" font-family="Calibri,Calibri_MSFontService,sans-serif" font-weight="700" font-size="13.3405" transform="matrix(1 0 0 0.999847 285.817 165)">2</text><path d="M308 152.46C308 149.432 310.455 146.978 313.484 146.978L368.516 146.978C371.545 146.978 374 149.432 374 152.46L374 170.49C374 173.518 371.545 175.973 368.516 175.973L313.484 175.973C310.455 175.973 308 173.518 308 170.49Z" stroke="#000000" stroke-width="2.00137" stroke-miterlimit="8" fill="#A2A2A2" fill-rule="evenodd"/><text fill="#FFFFFF" font-family="Calibri,Calibri_MSFontService,sans-serif" font-weight="700" font-size="13.3405" transform="matrix(1 0 0 0.999847 316.383 165)">Expert4</text><text fill="#FFFFFF" font-family="Calibri,Calibri_MSFontService,sans-serif" font-weight="700" font-size="13.3405" transform="matrix(1 0 0 0.999847 359.079 165)">2</text><text font-family="Calibri,Calibri_MSFontService,sans-serif" font-weight="700" font-size="14.6745" transform="matrix(1 0 0 0.999847 19.3965 167)">Layer 2</text><path d="M88 225.638C88 222.506 90.5397 219.966 93.6727 219.966L148.327 219.966C151.46 219.966 154 222.506 154 225.638L154 244.29C154 247.423 151.46 249.962 148.327 249.962L93.6727 249.962C90.5397 249.962 88 247.423 88 244.29Z" stroke="#000000" stroke-width="2.00137" stroke-miterlimit="8" fill="#A2A2A2" fill-rule="evenodd"/><text fill="#FFFFFF" font-family="Calibri,Calibri_MSFontService,sans-serif" font-weight="700" font-size="13.3405" transform="matrix(1 0 0 0.999847 95.64 239)">Expert1</text><text fill="#FFFFFF" font-family="Calibri,Calibri_MSFontService,sans-serif" font-weight="700" font-size="13.3405" transform="matrix(1 0 0 0.999847 138.336 239)">n</text><path d="M162 225.638C162 222.506 164.54 219.966 167.673 219.966L222.327 219.966C225.46 219.966 228 222.506 228 225.638L228 244.29C228 247.423 225.46 249.962 222.327 249.962L167.673 249.962C164.54 249.962 162 247.423 162 244.29Z" stroke="#000000" stroke-width="2.00137" stroke-miterlimit="8" fill="#C682FF" fill-rule="evenodd"/><text fill="#FFFFFF" font-family="Calibri,Calibri_MSFontService,sans-serif" font-weight="700" font-size="13.3405" transform="matrix(1 0 0 0.999847 170.205 239)">Expert2</text><text fill="#FFFFFF" font-family="Calibri,Calibri_MSFontService,sans-serif" font-weight="700" font-size="13.3405" transform="matrix(1 0 0 0.999847 212.901 239)">n</text><path d="M236 225.638C236 222.506 238.54 219.966 241.673 219.966L296.327 219.966C299.46 219.966 302 222.506 302 225.638L302 244.29C302 247.423 299.46 249.962 296.327 249.962L241.673 249.962C238.54 249.962 236 247.423 236 244.29Z" stroke="#000000" stroke-width="2.00137" stroke-miterlimit="8" fill="#A2A2A2" fill-rule="evenodd"/><text fill="#FFFFFF" font-family="Calibri,Calibri_MSFontService,sans-serif" font-weight="700" font-size="13.3405" transform="matrix(1 0 0 0.999847 244.022 239)">Expert3</text><text fill="#FFFFFF" font-family="Calibri,Calibri_MSFontService,sans-serif" font-weight="700" font-size="13.3405" transform="matrix(1 0 0 0.999847 286.718 239)">n</text><path d="M309 225.638C309 222.506 311.54 219.966 314.673 219.966L369.327 219.966C372.46 219.966 375 222.506 375 225.638L375 244.29C375 247.423 372.46 249.962 369.327 249.962L314.673 249.962C311.54 249.962 309 247.423 309 244.29Z" stroke="#000000" stroke-width="2.00137" stroke-miterlimit="8" fill="#A2A2A2" fill-rule="evenodd"/><text fill="#FFFFFF" font-family="Calibri,Calibri_MSFontService,sans-serif" font-weight="700" font-size="13.3405" transform="matrix(1 0 0 0.999847 317.284 239)">Expert4</text><text fill="#FFFFFF" font-family="Calibri,Calibri_MSFontService,sans-serif" font-weight="700" font-size="13.3405" transform="matrix(1 0 0 0.999847 359.98 239)">n</text><text font-family="Calibri,Calibri_MSFontService,sans-serif" font-weight="700" font-size="14.6745" transform="matrix(1 0 0 0.999847 20.4639 241)">Layer n</text><path d="M233 66.9898 233 79.4879 120 79.4879 120 91.9859" stroke="#172C51" stroke-width="2.00137" stroke-miterlimit="8" fill="none" fill-rule="evenodd"/><path d="M149.977 0 149.977 12.998 0 12.998 0 25.996" stroke="#172C51" stroke-width="2.00107" stroke-miterlimit="8" fill="none" fill-rule="evenodd" transform="matrix(-1.00015 0 0 1 267 121.981)"/><path d="M267 192.97 267 205.969 194 205.969 194 218.967" stroke="#172C51" stroke-width="2.00137" stroke-miterlimit="8" fill="none" fill-rule="evenodd"/><text font-family="Calibri,Calibri_MSFontService,sans-serif" font-weight="700" font-size="14.6745" transform="matrix(1 0 0 0.999847 264.377 190)">:</text><path d="M1.00053 0 1.00053 18.326-1.00053 18.326-1.00053 0ZM4.00214 16.992 0 24.9962-4.00214 16.992Z" transform="matrix(-1.00015 0 0 1 194 248.962)"/><text font-family="Calibri,Calibri_MSFontService,sans-serif" font-weight="700" font-size="14.6745" transform="matrix(1 0 0 0.999847 163.986 293)">OUTPUT</text><rect x="78" y="35.9944" width="306" height="102.984" stroke="#3184A4" stroke-width="2.00137" stroke-miterlimit="8" stroke-dasharray="8.0055 6.00412" fill="none"/><path d="M384 35.9945 420 35.9945 419.1 33.9949" stroke="#3184A4" stroke-width="2.00137" stroke-miterlimit="8" stroke-dasharray="8.0055 6.00412" fill="none" fill-rule="evenodd"/><path d="M382 140.979 415 191.971" stroke="#3184A4" stroke-width="2.00137" stroke-miterlimit="8" stroke-dasharray="8.0055 6.00412" fill="none" fill-rule="evenodd"/></g></svg>