<svg width="529" height="454" xmlns="http://www.w3.org/2000/svg" xmlns:xlink="http://www.w3.org/1999/xlink" overflow="hidden"><defs><clipPath id="clip0"><rect x="0" y="0" width="529" height="454"/></clipPath></defs><g clip-path="url(#clip0)"><rect x="0" y="0" width="529" height="453.642" fill="#FFFFFF"/><text font-family="Cambria Math,Cambria Math_MSFontService,sans-serif" font-weight="400" font-size="14.6828" transform="matrix(1 0 0 1.00142 170.741 69)">⊕</text><path d="M87.1667 130.685C84.5894 130.685 82.5 128.593 82.5 126.012L82.5 44.2294C82.5 41.6483 84.5894 39.556 87.1667 39.556L105.833 39.556C108.411 39.556 110.5 41.6483 110.5 44.2294L110.5 126.012C110.5 128.593 108.411 130.685 105.833 130.685Z" stroke="#172C51" stroke-width="1.3348" stroke-miterlimit="8" fill="#FFFFFF" fill-rule="evenodd"/><text font-family="Cambria Math,Cambria Math_MSFontService,sans-serif" font-weight="400" font-size="14.6828" transform="matrix(-1.83697e-16 -1.00284 0.998584 -1.83957e-16 101.198 102)">𝒉</text><path d="M43.8036 3.01741C45.1972 3.38491 46.2675 4.17839 47.0145 5.39784 47.7614 6.61729 48.1349 8.08851 48.1349 9.81149 48.1349 11.5392 47.7626 13.0105 47.018 14.2251 46.2735 15.4398 45.202 16.2309 43.8036 16.5984L43.6317 16.0472C44.7343 15.6797 45.554 14.9542 46.0909 13.8708 46.6279 12.7873 46.8963 11.4104 46.8963 9.7399 46.8963 8.12669 46.6291 6.78673 46.0945 5.72001 45.5599 4.65329 44.7319 3.93617 43.6103 3.56867ZM33.8976 3.01741 34.0909 3.56867C32.9741 3.93617 32.1472 4.65329 31.6103 5.72001 31.0733 6.78673 30.8048 8.12669 30.8048 9.7399 30.8048 11.4104 31.0733 12.7873 31.6103 13.8708 32.1472 14.9542 32.9669 15.6797 34.0694 16.0472L33.8976 16.5984C32.4992 16.2309 31.4277 15.4398 30.6831 14.2251 29.9386 13.0105 29.5663 11.5392 29.5663 9.81149 29.5663 8.08851 29.9398 6.61729 30.6867 5.39784 31.4337 4.17839 32.504 3.38491 33.8976 3.01741Z" fill-rule="evenodd" transform="matrix(-1.83957e-16 -1.00426 1 -1.84218e-16 87.2024 120.98)"/><text font-family="Cambria Math,Cambria Math_MSFontService,sans-serif" font-weight="400" font-size="14.6828" transform="matrix(-1.83697e-16 -1.00284 0.998584 -1.83957e-16 101.198 86)">𝒌</text><path d="M135.5 89.9939C135.5 86.4728 138.35 83.6184 141.867 83.6184L148.133 83.6184C151.65 83.6184 154.5 86.4728 154.5 89.9939L154.5 123.308C154.5 126.829 151.65 129.684 148.133 129.684L141.867 129.684C138.35 129.684 135.5 126.829 135.5 123.308Z" stroke="#172C51" stroke-width="1.33291" stroke-miterlimit="8" fill="#FFFFFF" fill-rule="evenodd"/><text font-family="Cambria Math,Cambria Math_MSFontService,sans-serif" font-weight="400" font-size="14.6828" transform="matrix(1 0 0 1.00142 138.866 111)">𝒇</text><path d="M210 131.686C207.515 131.686 205.5 129.669 205.5 127.18L205.5 44.0625C205.5 41.5736 207.515 39.556 210 39.556L228 39.556C230.485 39.556 232.5 41.5736 232.5 44.0625L232.5 127.18C232.5 129.669 230.485 131.686 228 131.686Z" stroke="#172C51" stroke-width="1.3348" stroke-miterlimit="8" fill="#FFFFFF" fill-rule="evenodd"/><text font-family="Cambria Math,Cambria Math_MSFontService,sans-serif" font-weight="400" font-size="14.6828" transform="matrix(-1.83697e-16 -1.00284 0.998584 -1.83957e-16 223.964 115)">𝒉</text><path d="M57.4599 3.01741C58.8535 3.38491 59.9238 4.17839 60.6708 5.39784 61.4177 6.61729 61.7912 8.08851 61.7912 9.81149 61.7912 11.5392 61.4189 13.0105 60.6744 14.2251 59.9298 15.4398 58.8583 16.2309 57.4599 16.5984L57.2881 16.0472C58.3906 15.6797 59.2103 14.9542 59.7473 13.8708 60.2842 12.7873 60.5527 11.4104 60.5527 9.7399 60.5527 8.12669 60.2854 6.78673 59.7508 5.72001 59.2163 4.65329 58.3882 3.93617 57.2666 3.56867ZM21.2462 3.01741 21.4395 3.56867C20.3227 3.93617 19.4958 4.65329 18.9589 5.72001 18.4219 6.78673 18.1534 8.12669 18.1534 9.7399 18.1534 11.4104 18.4219 12.7873 18.9589 13.8708 19.4958 14.9542 20.3155 15.6797 21.418 16.0472L21.2462 16.5984C19.8478 16.2309 18.7763 15.4398 18.0317 14.2251 17.2872 13.0105 16.9149 11.5392 16.9149 9.81149 16.9149 8.08851 17.2884 6.61729 18.0353 5.39784 18.7823 4.17839 19.8526 3.38491 21.2462 3.01741Z" fill-rule="evenodd" transform="matrix(-1.83957e-16 -1.00426 1 -1.84218e-16 209.968 121.537)"/><text font-family="Cambria Math,Cambria Math_MSFontService,sans-serif" font-weight="400" font-size="14.6828" transform="matrix(-1.83697e-16 -1.00284 0.998584 -1.83957e-16 223.964 100)">𝒌</text><text font-family="Cambria Math,Cambria Math_MSFontService,sans-serif" font-weight="400" font-size="14.6828" transform="matrix(-1.83697e-16 -1.00284 0.998584 -1.83957e-16 223.964 87)">+</text><text font-family="Cambria Math,Cambria Math_MSFontService,sans-serif" font-weight="400" font-size="14.6828" transform="matrix(-1.83697e-16 -1.00284 0.998584 -1.83957e-16 223.964 73)">𝟏</text><path d="M186.5 62.9226 204.18 62.9226 204.18 64.2574 186.5 64.2574ZM196.519 58.3417 205.503 63.59 196.519 68.8383C196.201 69.0241 195.793 68.9165 195.607 68.5981 195.422 68.2797 195.529 67.8711 195.847 67.6854L203.845 63.0135 203.845 64.1665 195.847 59.4947C195.529 59.309 195.422 58.9003 195.607 58.5819 195.793 58.2636 196.201 58.156 196.519 58.3417Z" fill="#172C51"/><path d="M110.5 62.9226 171.18 62.9226 171.18 64.2574 110.5 64.2574ZM163.519 58.3417 172.503 63.59 163.519 68.8383C163.201 69.0241 162.793 68.9165 162.607 68.5981 162.422 68.2797 162.529 67.8711 162.847 67.6854L170.845 63.0135 170.845 64.1665 162.847 59.4947C162.529 59.309 162.422 58.9003 162.607 58.5819 162.793 58.2636 163.201 58.156 163.519 58.3417Z" fill="#172C51"/><path d="M109.5 105.984 134.18 105.984 134.18 107.318 109.5 107.318ZM126.519 101.403 135.503 106.651 126.519 111.899C126.201 112.085 125.793 111.977 125.607 111.659 125.422 111.341 125.529 110.932 125.847 110.746L133.845 106.075 133.845 107.227 125.847 102.556C125.529 102.37 125.422 101.961 125.607 101.643 125.793 101.325 126.201 101.217 126.519 101.403Z" fill="#172C51"/><path d="M153.5 105.984 178.5 105.984 177.834 106.651 177.834 70.92 179.166 70.92 179.166 107.318 153.5 107.318ZM173.259 78.5925 178.5 69.5955 183.741 78.5925C183.926 78.9109 183.819 79.3196 183.501 79.5053 183.183 79.691 182.775 79.5835 182.59 79.2651L177.924 71.2563 179.076 71.2563 174.41 79.2651C174.225 79.5835 173.817 79.691 173.499 79.5053 173.181 79.3196 173.074 78.9109 173.259 78.5925Z" fill="#172C51"/><text font-family="Cambria Math,Cambria Math_MSFontService,sans-serif" font-weight="400" font-size="14.6828" transform="matrix(1 0 0 1.00142 293.833 67)">𝒉</text><path d="M24.8783 3.02169C26.274 3.38971 27.3458 4.18432 28.0938 5.4055 28.8418 6.62668 29.2158 8.09998 29.2158 9.8254 29.2158 11.5556 28.843 13.0289 28.0974 14.2453 27.3517 15.4617 26.2787 16.2539 24.8783 16.622L24.7063 16.0699C25.8103 15.7019 26.6312 14.9754 27.1689 13.8904 27.7066 12.8055 27.9755 11.4266 27.9755 9.75371 27.9755 8.13822 27.7078 6.79635 27.1725 5.72812 26.6372 4.65988 25.8079 3.94175 24.6847 3.57373ZM14.9583 3.02169 15.1519 3.57373C14.0335 3.94175 13.2054 4.65988 12.6677 5.72812 12.13 6.79635 11.8612 8.13822 11.8612 9.75371 11.8612 11.4266 12.13 12.8055 12.6677 13.8904 13.2054 14.9754 14.0263 15.7019 15.1304 16.0699L14.9583 16.622C13.5579 16.2539 12.4849 15.4617 11.7393 14.2453 10.9937 13.0289 10.6209 11.5556 10.6209 9.8254 10.6209 8.09998 10.9949 6.62668 11.7429 5.4055 12.4909 4.18432 13.5627 3.38971 14.9583 3.02169Z" fill-rule="evenodd" transform="matrix(1 0 0 1.00142 293.833 52.966)"/><text font-family="Cambria Math,Cambria Math_MSFontService,sans-serif" font-weight="400" font-size="14.6828" transform="matrix(1 0 0 1.00142 309.248 67)">𝒌</text><text font-family="Cambria Math,Cambria Math_MSFontService,sans-serif" font-weight="400" font-size="14.6828" transform="matrix(1 0 0 1.00142 406.289 26)">𝒉</text><path d="M53.2094 3.02169C54.605 3.38971 55.6768 4.18432 56.4248 5.4055 57.1729 6.62668 57.5469 8.09998 57.5469 9.8254 57.5469 11.5556 57.174 13.0289 56.4284 14.2453 55.6828 15.4617 54.6098 16.2539 53.2094 16.622L53.0373 16.0699C54.1414 15.7019 54.9623 14.9754 55.5 13.8904 56.0377 12.8055 56.3066 11.4266 56.3066 9.75371 56.3066 8.13822 56.0389 6.79635 55.5036 5.72812 54.9683 4.65988 54.139 3.94175 53.0158 3.57373ZM16.9444 3.02169 17.138 3.57373C16.0195 3.94175 15.1915 4.65988 14.6538 5.72812 14.1161 6.79635 13.8472 8.13822 13.8472 9.75371 13.8472 11.4266 14.1161 12.8055 14.6538 13.8904 15.1915 14.9754 16.0124 15.7019 17.1164 16.0699L16.9444 16.622C15.544 16.2539 14.471 15.4617 13.7253 14.2453 12.9797 13.0289 12.6069 11.5556 12.6069 9.8254 12.6069 8.09998 12.9809 6.62668 13.7289 5.4055 14.4769 4.18432 15.5487 3.38971 16.9444 3.02169Z" fill-rule="evenodd" transform="matrix(1 0 0 1.00142 404.303 12.2203)"/><text font-family="Cambria Math,Cambria Math_MSFontService,sans-serif" font-weight="400" font-size="14.6828" transform="matrix(1 0 0 1.00142 421.705 26)">𝒌</text><text font-family="Cambria Math,Cambria Math_MSFontService,sans-serif" font-weight="400" font-size="14.6828" transform="matrix(1 0 0 1.00142 433.961 26)">+</text><text font-family="Cambria Math,Cambria Math_MSFontService,sans-serif" font-weight="400" font-size="14.6828" transform="matrix(1 0 0 1.00142 448.216 26)">𝟏</text><path d="M271.5 124.677 477.5 124.677" stroke="#000000" stroke-width="1.33291" stroke-miterlimit="8" fill="none" fill-rule="evenodd"/><path d="M307.5 80.6141 307.5 124.677" stroke="#000000" stroke-width="1.33291" stroke-miterlimit="8" fill="none" fill-rule="evenodd"/><path d="M430.5 34.5489 430.5 124.677" stroke="#000000" stroke-width="1.33291" stroke-miterlimit="8" fill="none" fill-rule="evenodd"/><text font-family="Cambria Math,Cambria Math_MSFontService,sans-serif" font-weight="400" font-size="14.6828" transform="matrix(1 0 0 1.00142 295.552 143)">𝒌</text><text font-family="Yu Gothic,Yu Gothic_MSFontService,sans-serif" font-weight="400" font-size="14.6828" transform="matrix(1 0 0 1.00142 304.549 143)">層</text><text font-family="Cambria Math,Cambria Math_MSFontService,sans-serif" font-weight="400" font-size="14.6828" transform="matrix(1 0 0 1.00142 409.798 142)">𝒌</text><text font-family="Cambria Math,Cambria Math_MSFontService,sans-serif" font-weight="400" font-size="14.6828" transform="matrix(1 0 0 1.00142 422.054 142)">+</text><text font-family="Cambria Math,Cambria Math_MSFontService,sans-serif" font-weight="400" font-size="14.6828" transform="matrix(1 0 0 1.00142 436.31 142)">1</text><text font-family="Yu Gothic,Yu Gothic_MSFontService,sans-serif" font-weight="400" font-size="14.6828" transform="matrix(1 0 0 1.00142 444.474 142)">層</text><path d="M0 0 123 0" stroke="#000000" stroke-width="1.33291" stroke-miterlimit="8" stroke-dasharray="5.33165 3.99874" fill="none" fill-rule="evenodd" transform="matrix(1 0 0 -1.00142 307.5 79.6127)"/><path d="M443.5 34.5489C448.747 34.5489 453 36.4099 453 38.7055L453 52.9242C453 55.2198 457.253 57.0808 462.5 57.0808 457.253 57.0808 453 58.9418 453 61.2374L453 75.4561C453 77.7517 448.747 79.6127 443.5 79.6127" stroke="#000000" stroke-width="1.33291" stroke-miterlimit="8" fill="none" fill-rule="evenodd"/><text font-family="Cambria Math,Cambria Math_MSFontService,sans-serif" font-weight="400" font-size="14.6828" transform="matrix(1 0 0 1.00142 465.719 63)">𝒇</text><path d="M48.0503 1.95397C49.5415 2.3459 50.691 3.36156 51.4988 5.00095 52.3065 6.64034 52.7104 8.58085 52.7104 10.8225 52.7104 13.0641 52.3065 15.0046 51.4988 16.644 50.691 18.2834 49.5415 19.299 48.0503 19.691L47.8711 19.1031C49.0277 18.6681 49.9036 17.7206 50.4986 16.2604 51.0937 14.8003 51.3912 12.99 51.3912 10.8296 51.3912 8.66449 51.0937 6.85064 50.4986 5.38809 49.9036 3.92555 49.0277 2.9768 47.8711 2.54186ZM16.274 1.95397 16.4532 2.54186C15.2966 2.9768 14.4207 3.92555 13.8256 5.38809 13.2306 6.85064 12.9331 8.66449 12.9331 10.8296 12.9331 12.99 13.2306 14.8003 13.8256 16.2604 14.4207 17.7206 15.2966 18.6681 16.4532 19.1031L16.274 19.691C14.7828 19.299 13.6333 18.2834 12.8255 16.644 12.0178 15.0046 11.6139 13.0641 11.6139 10.8225 11.6139 8.58085 12.0178 6.64034 12.8255 5.00095 13.6333 3.36156 14.7828 2.3459 16.274 1.95397Z" fill-rule="evenodd" transform="matrix(1 0 0 1.00142 463.726 48.1094)"/><text font-family="Cambria Math,Cambria Math_MSFontService,sans-serif" font-weight="400" font-size="14.6828" transform="matrix(1 0 0 1.00142 480.634 63)">𝒉</text><path d="M41.7863 4.02279C43.182 4.39082 44.2538 5.18542 45.0018 6.4066 45.7498 7.62778 46.1238 9.10108 46.1238 10.8265 46.1238 12.5567 45.751 14.03 45.0054 15.2464 44.2598 16.4628 43.1867 17.255 41.7863 17.6231L41.6143 17.071C42.7183 16.703 43.5392 15.9765 44.0769 14.8915 44.6146 13.8066 44.8835 12.4277 44.8835 10.7548 44.8835 9.13932 44.6158 7.79746 44.0805 6.72922 43.5452 5.66099 42.716 4.94286 41.5928 4.57483ZM31.8663 4.02279 32.0599 4.57483C30.9415 4.94286 30.1134 5.66099 29.5757 6.72922 29.038 7.79746 28.7692 9.13932 28.7692 10.7548 28.7692 12.4277 29.038 13.8066 29.5757 14.8915 30.1134 15.9765 30.9343 16.703 32.0384 17.071L31.8663 17.6231C30.4659 17.255 29.3929 16.4628 28.6473 15.2464 27.9017 14.03 27.5289 12.5567 27.5289 10.8265 27.5289 9.10108 27.9029 7.62778 28.6509 6.4066 29.3989 5.18542 30.4707 4.39082 31.8663 4.02279Z" fill-rule="evenodd" transform="matrix(1 0 0 1.00142 463.726 48.1094)"/><text font-family="Cambria Math,Cambria Math_MSFontService,sans-serif" font-weight="400" font-size="14.6828" transform="matrix(1 0 0 1.00142 496.05 63)">𝒌</text><path d="M301.5 79.6127C301.5 76.2943 303.962 73.6042 307 73.6042 310.038 73.6042 312.5 76.2943 312.5 79.6127 312.5 82.9311 310.038 85.6212 307 85.6212 303.962 85.6212 301.5 82.9311 301.5 79.6127Z" stroke="#000000" stroke-width="1.33291" stroke-miterlimit="8" fill="#7F7F7F" fill-rule="evenodd"/><path d="M425.5 36.5518C425.5 33.2333 427.962 30.5432 431 30.5432 434.038 30.5432 436.5 33.2333 436.5 36.5518 436.5 39.8702 434.038 42.5603 431 42.5603 427.962 42.5603 425.5 39.8702 425.5 36.5518Z" stroke="#000000" stroke-width="1.33291" stroke-miterlimit="8" fill="#7F7F7F" fill-rule="evenodd"/><path d="M443.5 82.617C448.471 82.617 452.5 84.38 452.5 86.5548L452.5 99.2082C452.5 101.383 456.529 103.146 461.5 103.146 456.529 103.146 452.5 104.909 452.5 107.084L452.5 119.737C452.5 121.912 448.471 123.675 443.5 123.675" stroke="#000000" stroke-width="1.33291" stroke-miterlimit="8" fill="none" fill-rule="evenodd"/><text font-family="Cambria Math,Cambria Math_MSFontService,sans-serif" font-weight="400" font-size="14.6828" transform="matrix(1 0 0 1.00142 464.503 108)">𝒉</text><path d="M24.8783 3.02169C26.274 3.38971 27.3458 4.18432 28.0938 5.4055 28.8418 6.62668 29.2158 8.09998 29.2158 9.8254 29.2158 11.5556 28.843 13.0289 28.0974 14.2453 27.3517 15.4617 26.2787 16.2539 24.8783 16.622L24.7063 16.0699C25.8103 15.7019 26.6312 14.9754 27.1689 13.8904 27.7066 12.8055 27.9755 11.4266 27.9755 9.75371 27.9755 8.13822 27.7078 6.79635 27.1725 5.72812 26.6372 4.65988 25.8079 3.94175 24.6847 3.57373ZM14.9583 3.02169 15.1519 3.57373C14.0335 3.94175 13.2054 4.65988 12.6677 5.72812 12.13 6.79635 11.8612 8.13822 11.8612 9.75371 11.8612 11.4266 12.13 12.8055 12.6677 13.8904 13.2054 14.9754 14.0263 15.7019 15.1304 16.0699L14.9583 16.622C13.5579 16.2539 12.4849 15.4617 11.7393 14.2453 10.9937 13.0289 10.6209 11.5556 10.6209 9.8254 10.6209 8.09998 10.9949 6.62668 11.7429 5.4055 12.4909 4.18432 13.5627 3.38971 14.9583 3.02169Z" fill-rule="evenodd" transform="matrix(1 0 0 1.00142 464.503 94.0232)"/><text font-family="Cambria Math,Cambria Math_MSFontService,sans-serif" font-weight="400" font-size="14.6828" transform="matrix(1 0 0 1.00142 479.918 108)">𝒌</text><text font-family="Calibri,Calibri_MSFontService,sans-serif" font-weight="700" font-size="14.6828" transform="matrix(1 0 0 1.00142 15.0748 72)">Residual</text><text font-family="Calibri,Calibri_MSFontService,sans-serif" font-weight="700" font-size="14.6828" transform="matrix(1 0 0 1.00142 13.5753 89)">Network</text><text font-family="Calibri,Calibri_MSFontService,sans-serif" font-weight="700" font-size="14.6828" transform="matrix(1 0 0 1.00142 4.0783 107)">(skip</text><text font-family="Yu Gothic,Yu Gothic_MSFontService,sans-serif" font-weight="700" font-size="14.6828" transform="matrix(1 0 0 1.00142 32.9025 107)">接続</text><text font-family="Calibri,Calibri_MSFontService,sans-serif" font-weight="700" font-size="14.6828" transform="matrix(1 0 0 1.00142 62.2266 107)">)</text><text font-family="Yu Gothic,Yu Gothic_MSFontService,sans-serif" font-weight="700" font-size="14.6828" transform="matrix(1 0 0 1.00142 283.664 169)">定義域：レイヤー番号</text><text font-family="Calibri,Calibri_MSFontService,sans-serif" font-weight="700" font-size="14.6828" transform="matrix(1 0 0 1.00142 430.284 169)">(</text><text font-family="Yu Gothic,Yu Gothic_MSFontService,sans-serif" font-weight="700" font-size="14.6828" transform="matrix(1 0 0 1.00142 434.783 169)">離散的</text><text font-family="Calibri,Calibri_MSFontService,sans-serif" font-weight="700" font-size="14.6828" transform="matrix(1 0 0 1.00142 478.769 169)">)</text><path d="M374.5 187.766 379.75 187.766 379.75 178.753 390.25 178.753 390.25 187.766 395.5 187.766 385 196.779Z" stroke="#172C51" stroke-width="1.33291" stroke-miterlimit="8" fill="none" fill-rule="evenodd"/><text font-family="Yu Gothic,Yu Gothic_MSFontService,sans-serif" font-weight="700" font-size="14.6828" transform="matrix(1 0 0 1.00142 316.103 217)">定義域：時間</text><text font-family="Calibri,Calibri_MSFontService,sans-serif" font-weight="700" font-size="14.6828" transform="matrix(1 0 0 1.00142 404.075 217)">(</text><text font-family="Yu Gothic,Yu Gothic_MSFontService,sans-serif" font-weight="700" font-size="14.6828" transform="matrix(1 0 0 1.00142 408.573 217)">連続的</text><text font-family="Calibri,Calibri_MSFontService,sans-serif" font-weight="700" font-size="14.6828" transform="matrix(1 0 0 1.00142 452.56 217)">)</text><text font-family="Cambria Math,Cambria Math_MSFontService,sans-serif" font-weight="400" font-size="14.6828" transform="matrix(1 0 0 1.00142 287.117 296)">𝒉</text><path d="M23.872 3.02169C25.2676 3.38971 26.3394 4.18432 27.0874 5.4055 27.8354 6.62668 28.2094 8.09998 28.2094 9.8254 28.2094 11.5556 27.8366 13.0289 27.091 14.2453 26.3454 15.4617 25.2724 16.2539 23.872 16.622L23.6999 16.0699C24.804 15.7019 25.6249 14.9754 26.1626 13.8904 26.7003 12.8055 26.9691 11.4266 26.9691 9.75371 26.9691 8.13822 26.7015 6.79635 26.1662 5.72812 25.6308 4.65988 24.8016 3.94175 23.6784 3.57373ZM16.7844 3.02169 16.978 3.57373C15.8596 3.94175 15.0315 4.65988 14.4938 5.72812 13.9561 6.79635 13.6873 8.13822 13.6873 9.75371 13.6873 11.4266 13.9561 12.8055 14.4938 13.8904 15.0315 14.9754 15.8524 15.7019 16.9565 16.0699L16.7844 16.622C15.384 16.2539 14.311 15.4617 13.5654 14.2453 12.8198 13.0289 12.447 11.5556 12.447 9.8254 12.447 8.09998 12.821 6.62668 13.569 5.4055 14.317 4.18432 15.3888 3.38971 16.7844 3.02169Z" fill-rule="evenodd" transform="matrix(1 0 0 1.00142 285.291 281.756)"/><text font-family="Cambria Math,Cambria Math_MSFontService,sans-serif" font-weight="400" font-size="14.6828" transform="matrix(1 0 0 1.00142 302.532 296)">𝒕</text><text font-family="Cambria Math,Cambria Math_MSFontService,sans-serif" font-weight="400" font-size="14.6828" transform="matrix(1 0 0 1.00142 420.356 246)">𝒉</text><path d="M50.377 3.02169C51.7726 3.38971 52.8444 4.18432 53.5924 5.4055 54.3404 6.62668 54.7144 8.09998 54.7144 9.8254 54.7144 11.5556 54.3416 13.0289 53.596 14.2453 52.8504 15.4617 51.7774 16.2539 50.377 16.622L50.2049 16.0699C51.309 15.7019 52.1299 14.9754 52.6676 13.8904 53.2053 12.8055 53.4741 11.4266 53.4741 9.75371 53.4741 8.13822 53.2065 6.79635 52.6711 5.72812 52.1358 4.65988 51.3066 3.94175 50.1834 3.57373ZM16.9444 3.02169 17.138 3.57373C16.0195 3.94175 15.1915 4.65988 14.6538 5.72812 14.1161 6.79635 13.8472 8.13822 13.8472 9.75371 13.8472 11.4266 14.1161 12.8055 14.6538 13.8904 15.1915 14.9754 16.0124 15.7019 17.1164 16.0699L16.9444 16.622C15.544 16.2539 14.471 15.4617 13.7253 14.2453 12.9797 13.0289 12.6069 11.5556 12.6069 9.8254 12.6069 8.09998 12.9809 6.62668 13.7289 5.4055 14.4769 4.18432 15.5487 3.38971 16.9444 3.02169Z" fill-rule="evenodd" transform="matrix(1 0 0 1.00142 418.37 231.963)"/><text font-family="Cambria Math,Cambria Math_MSFontService,sans-serif" font-weight="400" font-size="14.6828" transform="matrix(1 0 0 1.00142 435.771 246)">𝒕</text><text font-family="Cambria Math,Cambria Math_MSFontService,sans-serif" font-weight="400" font-size="14.6828" transform="matrix(1 0 0 1.00142 445.194 246)">+</text><text font-family="Cambria Math,Cambria Math_MSFontService,sans-serif" font-weight="400" font-size="14.6828" transform="matrix(1 0 0 1.00142 459.45 246)">𝟏</text><path d="M258.5 360.01 495.5 360.01" stroke="#000000" stroke-width="1.33291" stroke-miterlimit="8" fill="none" fill-rule="evenodd"/><path d="M299.5 308.937 299.5 360.01" stroke="#000000" stroke-width="1.33291" stroke-miterlimit="8" fill="none" fill-rule="evenodd"/><path d="M442.5 255.862 442.5 359.008" stroke="#000000" stroke-width="1.33291" stroke-miterlimit="8" fill="none" fill-rule="evenodd"/><text font-family="Cambria Math,Cambria Math_MSFontService,sans-serif" font-weight="400" font-size="14.6828" transform="matrix(1 0 0 1.00142 297.255 379)">𝒕</text><text font-family="Cambria Math,Cambria Math_MSFontService,sans-serif" font-weight="400" font-size="14.6828" transform="matrix(1 0 0 1.00142 429.529 378)">𝒕</text><text font-family="Cambria Math,Cambria Math_MSFontService,sans-serif" font-weight="400" font-size="14.6828" transform="matrix(1 0 0 1.00142 438.952 378)">+</text><text font-family="Cambria Math,Cambria Math_MSFontService,sans-serif" font-weight="400" font-size="14.6828" transform="matrix(1 0 0 1.00142 453.208 378)">1</text><path d="M0 0 142 0" stroke="#000000" stroke-width="1.33291" stroke-miterlimit="8" stroke-dasharray="5.33165 3.99874" fill="none" fill-rule="evenodd" transform="matrix(1 0 0 -1.00142 300.5 307.936)"/><path d="M453.5 255.862C458.194 255.862 462 257.527 462 259.581L462 278.18C462 280.234 465.806 281.899 470.5 281.899 465.806 281.899 462 283.564 462 285.618L462 304.217C462 306.271 458.194 307.936 453.5 307.936" stroke="#000000" stroke-width="1.33291" stroke-miterlimit="8" fill="none" fill-rule="evenodd"/><text font-family="Cambria Math,Cambria Math_MSFontService,sans-serif" font-weight="400" font-size="14.6828" transform="matrix(1 0 0 1.00142 474.622 287)">𝒇</text><path d="M45.2179 1.95397C46.7091 2.3459 47.8586 3.36156 48.6663 5.00095 49.4741 6.64034 49.8779 8.58085 49.8779 10.8225 49.8779 13.0641 49.4741 15.0046 48.6663 16.644 47.8586 18.2834 46.7091 19.299 45.2179 19.691L45.0386 19.1031C46.1953 18.6681 47.0711 17.7206 47.6662 16.2604 48.2613 14.8003 48.5588 12.99 48.5588 10.8296 48.5588 8.66449 48.2613 6.85064 47.6662 5.38809 47.0711 3.92555 46.1953 2.9768 45.0386 2.54186ZM16.274 1.95397 16.4532 2.54186C15.2966 2.9768 14.4207 3.92555 13.8256 5.38809 13.2306 6.85064 12.9331 8.66449 12.9331 10.8296 12.9331 12.99 13.2306 14.8003 13.8256 16.2604 14.4207 17.7206 15.2966 18.6681 16.4532 19.1031L16.274 19.691C14.7828 19.299 13.6333 18.2834 12.8255 16.644 12.0178 15.0046 11.6139 13.0641 11.6139 10.8225 11.6139 8.58085 12.0178 6.64034 12.8255 5.00095 13.6333 3.36156 14.7828 2.3459 16.274 1.95397Z" fill-rule="evenodd" transform="matrix(1 0 0 1.00142 472.629 272.308)"/><text font-family="Cambria Math,Cambria Math_MSFontService,sans-serif" font-weight="400" font-size="14.6828" transform="matrix(1 0 0 1.00142 489.537 287)">𝒉</text><path d="M38.9539 4.02279C40.3495 4.39082 41.4213 5.18542 42.1693 6.4066 42.9173 7.62778 43.2913 9.10108 43.2913 10.8265 43.2913 12.5567 42.9185 14.03 42.1729 15.2464 41.4273 16.4628 40.3543 17.255 38.9539 17.6231L38.7818 17.071C39.8859 16.703 40.7068 15.9765 41.2445 14.8915 41.7822 13.8066 42.051 12.4277 42.051 10.7548 42.051 9.13932 41.7834 7.79746 41.2481 6.72922 40.7128 5.66099 39.8835 4.94286 38.7603 4.57483ZM31.8663 4.02279 32.0599 4.57483C30.9415 4.94286 30.1134 5.66099 29.5757 6.72922 29.038 7.79746 28.7692 9.13932 28.7692 10.7548 28.7692 12.4277 29.038 13.8066 29.5757 14.8915 30.1134 15.9765 30.9343 16.703 32.0384 17.071L31.8663 17.6231C30.4659 17.255 29.3929 16.4628 28.6473 15.2464 27.9017 14.03 27.5289 12.5567 27.5289 10.8265 27.5289 9.10108 27.9029 7.62778 28.6509 6.4066 29.3989 5.18542 30.4707 4.39082 31.8663 4.02279Z" fill-rule="evenodd" transform="matrix(1 0 0 1.00142 472.629 272.308)"/><text font-family="Cambria Math,Cambria Math_MSFontService,sans-serif" font-weight="400" font-size="14.6828" transform="matrix(1 0 0 1.00142 504.953 287)">𝒕</text><path d="M299.5 305.933 442.5 257.865" stroke="#000000" stroke-width="1.33291" stroke-miterlimit="8" stroke-dasharray="5.33165 3.99874" fill="none" fill-rule="evenodd"/><path d="M348.5 287.908 348.5 360.01" stroke="#000000" stroke-width="1.33291" stroke-miterlimit="8" fill="none" fill-rule="evenodd"/><text font-family="Cambria Math,Cambria Math_MSFontService,sans-serif" font-weight="400" font-size="14.6828" transform="matrix(1 0 0 1.00142 330.949 380)">𝒕</text><text font-family="Cambria Math,Cambria Math_MSFontService,sans-serif" font-weight="400" font-size="14.6828" transform="matrix(1 0 0 1.00142 340.373 380)">+</text><text font-family="Cambria Math,Cambria Math_MSFontService,sans-serif" font-weight="400" font-size="14.6828" transform="matrix(1 0 0 1.00142 354.629 380)">∆</text><text font-family="Cambria Math,Cambria Math_MSFontService,sans-serif" font-weight="400" font-size="14.6828" transform="matrix(1 0 0 1.00142 363.293 380)">𝒕</text><text font-family="Cambria Math,Cambria Math_MSFontService,sans-serif" font-weight="400" font-size="14.6828" transform="matrix(1 0 0 1.00142 322.11 277)">𝒉</text><path d="M56.3751 3.02169C57.7707 3.38971 58.8425 4.18432 59.5905 5.4055 60.3385 6.62668 60.7125 8.09998 60.7125 9.8254 60.7125 11.5556 60.3397 13.0289 59.5941 14.2453 58.8485 15.4617 57.7755 16.2539 56.3751 16.622L56.203 16.0699C57.3071 15.7019 58.128 14.9754 58.6657 13.8904 59.2034 12.8055 59.4722 11.4266 59.4722 9.75371 59.4722 8.13822 59.2046 6.79635 58.6693 5.72812 58.1339 4.65988 57.3047 3.94175 56.1815 3.57373ZM16.9444 3.02169 17.138 3.57373C16.0195 3.94175 15.1915 4.65988 14.6538 5.72812 14.1161 6.79635 13.8472 8.13822 13.8472 9.75371 13.8472 11.4266 14.1161 12.8055 14.6538 13.8904 15.1915 14.9754 16.0124 15.7019 17.1164 16.0699L16.9444 16.622C15.544 16.2539 14.471 15.4617 13.7253 14.2453 12.9797 13.0289 12.6069 11.5556 12.6069 9.8254 12.6069 8.09998 12.9809 6.62668 13.7289 5.4055 14.4769 4.18432 15.5487 3.38971 16.9444 3.02169Z" fill-rule="evenodd" transform="matrix(1 0 0 1.00142 320.124 263.237)"/><text font-family="Cambria Math,Cambria Math_MSFontService,sans-serif" font-weight="400" font-size="14.6828" transform="matrix(1 0 0 1.00142 337.525 277)">𝒕</text><text font-family="Cambria Math,Cambria Math_MSFontService,sans-serif" font-weight="400" font-size="14.6828" transform="matrix(1 0 0 1.00142 346.949 277)">+</text><text font-family="Cambria Math,Cambria Math_MSFontService,sans-serif" font-weight="400" font-size="14.6828" transform="matrix(1 0 0 1.00142 361.204 277)">∆</text><text font-family="Cambria Math,Cambria Math_MSFontService,sans-serif" font-weight="400" font-size="14.6828" transform="matrix(1 0 0 1.00142 369.868 277)">𝒕</text><path d="M368.5 285.905C371.814 285.905 374.5 287.08 374.5 288.53L374.5 293.794C374.5 295.244 377.186 296.42 380.5 296.42 377.186 296.42 374.5 297.595 374.5 299.045L374.5 304.309C374.5 305.759 371.814 306.935 368.5 306.935" stroke="#000000" stroke-width="1.33291" stroke-miterlimit="8" fill="none" fill-rule="evenodd"/><text font-family="Cambria Math,Cambria Math_MSFontService,sans-serif" font-weight="400" font-size="14.6828" transform="matrix(1 0 0 1.00142 381.904 302)">∆</text><text font-family="Cambria Math,Cambria Math_MSFontService,sans-serif" font-weight="400" font-size="14.6828" transform="matrix(1 0 0 1.00142 390.568 302)">𝒉</text><path d="M341.5 382.041C341.5 386.465 339.935 390.052 338.005 390.052L324.495 390.052C322.565 390.052 321 393.639 321 398.064 321 393.639 319.435 390.052 317.505 390.052L303.995 390.052C302.065 390.052 300.5 386.465 300.5 382.041" stroke="#000000" stroke-width="1.3348" stroke-miterlimit="8" fill="none" fill-rule="evenodd"/><text font-family="Cambria Math,Cambria Math_MSFontService,sans-serif" font-weight="400" font-size="14.6828" transform="matrix(1 0 0 1.00142 315.079 415)">∆</text><text font-family="Cambria Math,Cambria Math_MSFontService,sans-serif" font-weight="400" font-size="14.6828" transform="matrix(1 0 0 1.00142 323.743 415)">𝒕</text><path d="M442.5 413.085C442.5 417.509 440.935 421.096 439.005 421.096L374.495 421.096C372.565 421.096 371 424.683 371 429.108 371 424.683 369.435 421.096 367.505 421.096L302.995 421.096C301.065 421.096 299.5 417.509 299.5 413.085" stroke="#000000" stroke-width="1.3348" stroke-miterlimit="8" fill="none" fill-rule="evenodd"/><text font-family="Cambria Math,Cambria Math_MSFontService,sans-serif" font-weight="400" font-size="14.6828" transform="matrix(1 0 0 1.00142 367.547 448)">1</text><path d="M292.5 307.435C292.5 303.84 295.634 300.926 299.5 300.926 303.366 300.926 306.5 303.84 306.5 307.435 306.5 311.03 303.366 313.944 299.5 313.944 295.634 313.944 292.5 311.03 292.5 307.435Z" stroke="#000000" stroke-width="1.33291" stroke-miterlimit="8" fill="#A6A6A6" fill-rule="evenodd"/><path d="M435.5 258.366C435.5 254.771 438.634 251.857 442.5 251.857 446.366 251.857 449.5 254.771 449.5 258.366 449.5 261.961 446.366 264.875 442.5 264.875 438.634 264.875 435.5 261.961 435.5 258.366Z" stroke="#000000" stroke-width="1.33291" stroke-miterlimit="8" fill="#A6A6A6" fill-rule="evenodd"/><path d="M341.5 289.91C341.5 286.039 344.41 282.901 348 282.901 351.59 282.901 354.5 286.039 354.5 289.91 354.5 293.782 351.59 296.92 348 296.92 344.41 296.92 341.5 293.782 341.5 289.91Z" stroke="#000000" stroke-width="1.33291" stroke-miterlimit="8" fill="#A6A6A6" fill-rule="evenodd"/><path d="M255 94.634 255 89.3765 245.5 89.3765 245.5 78.8617 255 78.8617 255 73.6042 264.5 84.1191Z" stroke="#172C51" stroke-width="1.3348" stroke-miterlimit="8" fill="none" fill-rule="evenodd"/><text font-family="Cambria Math,Cambria Math_MSFontService,sans-serif" font-weight="400" font-size="14.6828" transform="matrix(1 0 0 1.00142 169.763 310)">⊕</text><path d="M80.1667 372.027C77.5894 372.027 75.5 369.934 75.5 367.353L75.5 286.572C75.5 283.991 77.5894 281.899 80.1667 281.899L98.8333 281.899C101.411 281.899 103.5 283.991 103.5 286.572L103.5 367.353C103.5 369.934 101.411 372.027 98.8333 372.027Z" stroke="#172C51" stroke-width="1.3348" stroke-miterlimit="8" fill="#FFFFFF" fill-rule="evenodd"/><text font-family="Cambria Math,Cambria Math_MSFontService,sans-serif" font-weight="400" font-size="14.6828" transform="matrix(-1.83697e-16 -1.00284 0.998584 -1.83957e-16 94.3678 342)">𝒉</text><path d="M42.3927 3.01741C43.7863 3.38491 44.8566 4.17839 45.6036 5.39784 46.3505 6.61729 46.724 8.08851 46.724 9.81149 46.724 11.5392 46.3517 13.0105 45.6072 14.2251 44.8626 15.4398 43.7911 16.2309 42.3927 16.5984L42.2209 16.0472C43.3234 15.6797 44.1431 14.9542 44.68 13.8708 45.217 12.7873 45.4854 11.4104 45.4854 9.7399 45.4854 8.12669 45.2182 6.78673 44.6836 5.72001 44.1491 4.65329 43.321 3.93617 42.1994 3.56867ZM35.3152 3.01741 35.5085 3.56867C34.3916 3.93617 33.5647 4.65329 33.0278 5.72001 32.4909 6.78673 32.2224 8.12669 32.2224 9.7399 32.2224 11.4104 32.4909 12.7873 33.0278 13.8708 33.5647 14.9542 34.3845 15.6797 35.487 16.0472L35.3152 16.5984C33.9167 16.2309 32.8452 15.4398 32.1007 14.2251 31.3561 13.0105 30.9839 11.5392 30.9839 9.81149 30.9839 8.08851 31.3573 6.61729 32.1043 5.39784 32.8512 4.17839 33.9215 3.38491 35.3152 3.01741Z" fill-rule="evenodd" transform="matrix(-1.83957e-16 -1.00426 1 -1.84218e-16 80.3722 362.727)"/><text font-family="Cambria Math,Cambria Math_MSFontService,sans-serif" font-weight="400" font-size="14.6828" transform="matrix(-1.83697e-16 -1.00284 0.998584 -1.83957e-16 94.3678 327)">𝒕</text><path d="M128.5 331.336C128.5 327.815 131.35 324.96 134.867 324.96L141.133 324.96C144.65 324.96 147.5 327.815 147.5 331.336L147.5 364.65C147.5 368.171 144.65 371.025 141.133 371.025L134.867 371.025C131.35 371.025 128.5 368.171 128.5 364.65Z" stroke="#172C51" stroke-width="1.33291" stroke-miterlimit="8" fill="#FFFFFF" fill-rule="evenodd"/><text font-family="Cambria Math,Cambria Math_MSFontService,sans-serif" font-weight="400" font-size="14.6828" transform="matrix(1 0 0 1.00142 132.036 353)">𝒇</text><path d="M213 373.028C210.515 373.028 208.5 371.011 208.5 368.522L208.5 285.404C208.5 282.915 210.515 280.898 213 280.898L231 280.898C233.485 280.898 235.5 282.915 235.5 285.404L235.5 368.522C235.5 371.011 233.485 373.028 231 373.028Z" stroke="#172C51" stroke-width="1.3348" stroke-miterlimit="8" fill="#FFFFFF" fill-rule="evenodd"/><text font-family="Cambria Math,Cambria Math_MSFontService,sans-serif" font-weight="400" font-size="14.6828" transform="matrix(-1.83697e-16 -1.00284 0.998584 -1.83957e-16 226.497 359)">𝒉</text><path d="M59.0372 3.01741C60.4308 3.38491 61.5011 4.17839 62.2481 5.39784 62.995 6.61729 63.3685 8.08851 63.3685 9.81149 63.3685 11.5392 62.9962 13.0105 62.2516 14.2251 61.5071 15.4398 60.4356 16.2309 59.0372 16.5984L58.8653 16.0472C59.9678 15.6797 60.7876 14.9542 61.3245 13.8708 61.8615 12.7873 62.1299 11.4104 62.1299 9.7399 62.1299 8.12669 61.8627 6.78673 61.3281 5.72001 60.7935 4.65329 59.9655 3.93617 58.8439 3.56867ZM19.6623 3.01741 19.8556 3.56867C18.7388 3.93617 17.9119 4.65329 17.3749 5.72001 16.838 6.78673 16.5695 8.12669 16.5695 9.7399 16.5695 11.4104 16.838 12.7873 17.3749 13.8708 17.9119 14.9542 18.7316 15.6797 19.8341 16.0472L19.6623 16.5984C18.2639 16.2309 17.1924 15.4398 16.4478 14.2251 15.7033 13.0105 15.331 11.5392 15.331 9.81149 15.331 8.08851 15.7045 6.61729 16.4514 5.39784 17.1983 4.17839 18.2686 3.38491 19.6623 3.01741Z" fill-rule="evenodd" transform="matrix(-1.83957e-16 -1.00426 1 -1.84218e-16 212.502 363.278)"/><text font-family="Cambria Math,Cambria Math_MSFontService,sans-serif" font-weight="400" font-size="14.6828" transform="matrix(-1.83697e-16 -1.00284 0.998584 -1.83957e-16 226.497 343)">𝒕</text><text font-family="Cambria Math,Cambria Math_MSFontService,sans-serif" font-weight="400" font-size="14.6828" transform="matrix(-1.83697e-16 -1.00284 0.998584 -1.83957e-16 226.497 334)">+</text><text font-family="Cambria Math,Cambria Math_MSFontService,sans-serif" font-weight="400" font-size="14.6828" transform="matrix(-1.83697e-16 -1.00284 0.998584 -1.83957e-16 226.497 319)">∆</text><text font-family="Cambria Math,Cambria Math_MSFontService,sans-serif" font-weight="400" font-size="14.6828" transform="matrix(-1.83697e-16 -1.00284 0.998584 -1.83957e-16 226.497 311)">𝒕</text><path d="M182.5 304.264 206.18 304.264 206.18 305.599 182.5 305.599ZM198.519 299.683 207.503 304.932 198.519 310.18C198.201 310.366 197.793 310.258 197.607 309.94 197.422 309.621 197.529 309.213 197.847 309.027L205.845 304.355 205.845 305.508 197.847 300.836C197.529 300.651 197.422 300.242 197.607 299.924 197.793 299.605 198.201 299.498 198.519 299.683Z" fill="#172C51"/><path d="M0-0.666457 68.6804-0.666457 68.6804 0.666457 0 0.666457ZM61.0187-5.24087 70.0031 0 61.0187 5.24087C60.7008 5.42633 60.2927 5.31894 60.1073 5.00101 59.9218 4.68307 60.0292 4.27499 60.3471 4.08953L68.3446-0.575671 68.3446 0.575671 60.3471-4.08953C60.0292-4.27499 59.9218-4.68307 60.1073-5.00101 60.2927-5.31894 60.7008-5.42633 61.0187-5.24087Z" fill="#172C51" transform="matrix(1 0 0 -1.00142 103.5 304.932)"/><path d="M102.5 347.325 127.18 347.325 127.18 348.66 102.5 348.66ZM119.519 342.744 128.503 347.993 119.519 353.241C119.201 353.427 118.793 353.319 118.607 353.001 118.422 352.682 118.529 352.274 118.847 352.088L126.845 347.416 126.845 348.569 118.847 343.897C118.529 343.712 118.422 343.303 118.607 342.985 118.793 342.666 119.201 342.559 119.519 342.744Z" fill="#172C51"/><path d="M146.5 347.325 170.18 347.325 170.18 348.66 146.5 348.66ZM162.519 342.744 171.503 347.993 162.519 353.241C162.201 353.427 161.793 353.319 161.607 353.001 161.422 352.682 161.529 352.274 161.847 352.088L169.845 347.416 169.845 348.569 161.847 343.897C161.529 343.712 161.422 343.303 161.607 342.985 161.793 342.666 162.201 342.559 162.519 342.744Z" fill="#172C51"/><path d="M256.5 319.953 256.5 324.96 265.5 324.96 265.5 334.974 256.5 334.974 256.5 339.981 247.5 329.967Z" stroke="#172C51" stroke-width="1.3348" stroke-miterlimit="8" fill="none" fill-rule="evenodd"/><text font-family="Calibri,Calibri_MSFontService,sans-serif" font-weight="700" font-size="14.6828" transform="matrix(1 0 0 1.00142 40.2048 325)">ODE</text><text font-family="Calibri,Calibri_MSFontService,sans-serif" font-weight="700" font-size="14.6828" transform="matrix(1 0 0 1.00142 13.3799 342)">Network</text><text font-family="Yu Gothic,Yu Gothic_MSFontService,sans-serif" font-weight="700" font-size="14.6828" transform="matrix(1 0 0 1.00142 65.991 412)">関数値</text><path d="M88.0006 393.557 88.0006 363.515 91.9994 363.515 91.9994 393.557ZM84.0019 363.515C84.0019 360.197 86.6873 357.508 90 357.508 93.3127 357.508 95.9981 360.197 95.9981 363.515 95.9981 366.832 93.3127 369.521 90 369.521 86.6873 369.521 84.0019 366.832 84.0019 363.515Z" fill="#C55A11" fill-opacity="0.301961"/><text font-family="Yu Gothic,Yu Gothic_MSFontService,sans-serif" font-weight="700" font-size="14.6828" transform="matrix(1 0 0 1.00142 118.195 412)">微分係数</text><path d="M136.001 393.557 136.001 363.515 139.999 363.515 139.999 393.557ZM132.002 363.515C132.002 360.197 134.687 357.508 138 357.508 141.313 357.508 143.998 360.197 143.998 363.515 143.998 366.832 141.313 369.521 138 369.521 134.687 369.521 132.002 366.832 132.002 363.515Z" fill="#C55A11" fill-opacity="0.301961"/><text font-family="Cambria Math,Cambria Math_MSFontService,sans-serif" font-weight="400" font-size="14.6828" transform="matrix(1 0 0 1.00142 170.298 352)">⊗</text><path d="M0-0.666457 29.6804-0.666457 29.6804 0.666457 0 0.666457ZM22.0187-5.24087 31.0031 0 22.0187 5.24087C21.7008 5.42633 21.2927 5.31894 21.1073 5.00101 20.9218 4.68307 21.0292 4.27499 21.3471 4.08953L29.3446-0.575671 29.3446 0.575671 21.3471-4.08953C21.0292-4.27499 20.9218-4.68307 21.1073-5.00101 21.2927-5.31894 21.7008-5.42633 22.0187-5.24087Z" fill="#172C51" transform="matrix(-1.83697e-16 -1.00142 -1 1.83957e-16 177.5 341.984)"/><path d="M0-0.666457 14.6804-0.666457 14.6804 0.666457 0 0.666457ZM7.01874-5.24087 16.0031 0 7.01874 5.24087C6.70081 5.42633 6.29272 5.31894 6.10726 5.00101 5.9218 4.68307 6.02919 4.27499 6.34713 4.08953L14.3446-0.575671 14.3446 0.575671 6.34713-4.08953C6.02919-4.27499 5.9218-4.68307 6.10726-5.00101 6.29272-5.31894 6.70081-5.42633 7.01874-5.24087Z" fill="#172C51" transform="matrix(-1.83697e-16 -1.00142 -1 1.83957e-16 176.5 369.022)"/><text font-family="Cambria Math,Cambria Math_MSFontService,sans-serif" font-weight="400" font-size="14.6828" transform="matrix(1 0 0 1.00142 168.782 381)">∆</text><text font-family="Cambria Math,Cambria Math_MSFontService,sans-serif" font-weight="400" font-size="14.6828" transform="matrix(1 0 0 1.00142 177.446 381)">𝒕</text><text font-family="Cambria Math,Cambria Math_MSFontService,sans-serif" font-weight="400" font-size="14.6828" transform="matrix(1 0 0 1.00142 180.213 334)">∆</text><text font-family="Cambria Math,Cambria Math_MSFontService,sans-serif" font-weight="400" font-size="14.6828" transform="matrix(1 0 0 1.00142 188.877 334)">𝒉</text></g></svg>