<svg width="764" height="397" xmlns="http://www.w3.org/2000/svg" xmlns:xlink="http://www.w3.org/1999/xlink" overflow="hidden"><defs><clipPath id="clip0"><rect x="0" y="0" width="764" height="397"/></clipPath></defs><g clip-path="url(#clip0)"><rect x="0" y="0" width="764" height="396.907" fill="#FFFFFF"/><path d="M498 112.973C498 100.274 514.565 89.9789 535 89.9789 555.435 89.9789 572 100.274 572 112.973 572 125.673 555.435 135.968 535 135.968 514.565 135.968 498 125.673 498 112.973Z" fill="#D9D9D9" fill-rule="evenodd"/><text font-family="Yu Gothic,Yu Gothic_MSFontService,sans-serif" font-weight="400" font-size="14.6728" transform="matrix(1 0 0 0.999765 498.274 109)">ч╢Щч╢Ъхнжч┐ТхЩи</text><text font-family="Calibri,Calibri_MSFontService,sans-serif" font-weight="400" font-size="14.6728" transform="matrix(1 0 0 0.999765 493.771 126)">(</text><text font-family="Yu Gothic,Yu Gothic_MSFontService,sans-serif" font-weight="400" font-size="14.6728" transform="matrix(1 0 0 0.999765 498.274 126)">чФЯц╢пхнжч┐ТхЩи</text><text font-family="Calibri,Calibri_MSFontService,sans-serif" font-weight="400" font-size="14.6728" transform="matrix(1 0 0 0.999765 571.655 126)">)</text><text font-family="Yu Gothic,Yu Gothic_MSFontService,sans-serif" font-weight="400" font-size="14.6728" transform="matrix(1 0 0 0.999765 427.794 118)">хИЖх╕Г</text><text font-family="Cambria Math,Cambria Math_MSFontService,sans-serif" font-weight="400" font-size="10.7112" transform="matrix(1 0 0 0.999765 456.806 121)">1</text><path d="M463 111.973 491.86 111.973 491.86 113.974 463 113.974ZM490.526 108.972 498.531 112.974 490.526 116.975Z" fill="#4472C4"/><text font-family="Yu Gothic,Yu Gothic_MSFontService,sans-serif" font-weight="400" font-size="14.6728" transform="matrix(1 0 0 0.999765 605.896 118)">ф╗ошкм</text><text font-family="Cambria Math,Cambria Math_MSFontService,sans-serif" font-weight="400" font-size="10.7112" transform="matrix(1 0 0 0.999765 634.908 121)">1</text><path d="M572 111.973 599.679 111.973 599.679 113.974 572 113.974ZM598.345 108.972 606.35 112.974 598.345 116.975Z" fill="#4472C4"/><text font-family="Calibri,Calibri_MSFontService,sans-serif" font-weight="400" font-size="14.6728" transform="matrix(1 0 0 0.999765 575.462 74)">(</text><text font-family="Yu Gothic,Yu Gothic_MSFontService,sans-serif" font-weight="400" font-size="14.6728" transform="matrix(1 0 0 0.999765 579.965 74)">хИЭцЬЯф╗ошкм</text><text font-family="Calibri,Calibri_MSFontService,sans-serif" font-weight="400" font-size="14.6728" transform="matrix(1 0 0 0.999765 638.67 74)">)</text><path d="M499 193.455C499 180.479 515.342 169.96 535.5 169.96 555.658 169.96 572 180.479 572 193.455 572 206.43 555.658 216.949 535.5 216.949 515.342 216.949 499 206.43 499 193.455Z" fill="#D9D9D9" fill-rule="evenodd"/><text font-family="Yu Gothic,Yu Gothic_MSFontService,sans-serif" font-weight="400" font-size="14.6728" transform="matrix(1 0 0 0.999765 498.942 190)">ч╢Щч╢Ъхнжч┐ТхЩи</text><text font-family="Calibri,Calibri_MSFontService,sans-serif" font-weight="400" font-size="14.6728" transform="matrix(1 0 0 0.999765 494.439 207)">(</text><text font-family="Yu Gothic,Yu Gothic_MSFontService,sans-serif" font-weight="400" font-size="14.6728" transform="matrix(1 0 0 0.999765 498.942 207)">чФЯц╢пхнжч┐ТхЩи</text><text font-family="Calibri,Calibri_MSFontService,sans-serif" font-weight="400" font-size="14.6728" transform="matrix(1 0 0 0.999765 572.323 207)">)</text><text font-family="Yu Gothic,Yu Gothic_MSFontService,sans-serif" font-weight="400" font-size="14.6728" transform="matrix(1 0 0 0.999765 428.462 198)">хИЖх╕Г</text><text font-family="Cambria Math,Cambria Math_MSFontService,sans-serif" font-weight="400" font-size="10.7112" transform="matrix(1 0 0 0.999765 457.814 202)">2</text><path d="M464 191.954 492.86 191.954 492.86 193.955 464 193.955ZM491.526 188.953 499.531 192.955 491.526 196.956Z" fill="#4472C4"/><text font-family="Yu Gothic,Yu Gothic_MSFontService,sans-serif" font-weight="400" font-size="14.6728" transform="matrix(1 0 0 0.999765 606.564 198)">ф╗ошкм</text><text font-family="Cambria Math,Cambria Math_MSFontService,sans-serif" font-weight="400" font-size="10.7112" transform="matrix(1 0 0 0.999765 635.916 201)">2</text><path d="M572 191.954 599.679 191.954 599.679 193.955 572 193.955ZM598.345 188.953 606.35 192.955 598.345 196.956Z" fill="#4472C4"/><path d="M511.432 86.8994 510.02 83.841 510.211 81.5989 511.344 79.8945 513.107 78.7198 515.281 77.9085 517.779 77.3115 523.36 76.3803 523.333 76.3851 529.117 75.2583 529.016 75.2836 531.717 74.4572 531.595 74.5032 534.019 73.4015 533.852 73.498 535.886 72.0462 535.692 72.2278 537.225 70.3507 538.775 71.6159 537.158 73.5968 534.936 75.1828 532.365 76.3515 529.552 77.2122 523.702 78.3516 518.142 79.2793 518.21 79.2655 515.806 79.8402 515.924 79.8045 513.916 80.5538 514.12 80.4492 512.621 81.4481 512.899 81.1691 512.02 82.4926 512.184 82.024 512.037 83.747 511.948 83.2429 513.249 86.0609ZM514.885 83.1155 516.116 91.9785 508.286 87.6455Z" fill="#4472C4"/><path d="M511.822 169.872 510.944 168.475 509.677 165.35 509.061 162.504 509.083 159.895 509.732 157.539 510.964 155.466 512.706 153.681 514.889 152.155 517.468 150.849 520.408 149.723 523.689 148.745 531.09 147.14 539.461 145.83 548.523 144.639 558.017 143.39 557.996 143.393 567.658 141.912 567.616 141.92 577.171 140.034 577.105 140.05 586.278 137.587 586.184 137.617 594.697 134.404 594.571 134.462 602.151 130.325 601.995 130.43 608.365 125.198 609.635 126.743 603.193 132.036 595.469 136.251 586.844 139.506 577.592 141.991 567.983 143.887 558.289 145.372 548.784 146.622 539.734 147.812 539.758 147.809 531.428 149.112 531.485 149.102 524.15 150.692 524.224 150.673 521.016 151.63 521.088 151.605 518.232 152.699 518.326 152.657 515.857 153.908 515.978 153.836 513.929 155.267 514.073 155.145 512.48 156.778 512.624 156.59 511.521 158.446 511.625 158.2 511.047 160.3 511.083 160.043 511.063 162.409 511.041 162.189 511.615 164.843 511.564 164.679 512.766 167.642 512.685 167.486 513.516 168.808ZM515.323 166.06 516.263 174.959 508.578 170.372Z" fill="#4472C4"/><path d="M501 271.436C501 258.461 517.342 247.942 537.5 247.942 557.658 247.942 574 258.461 574 271.436 574 284.412 557.658 294.931 537.5 294.931 517.342 294.931 501 284.412 501 271.436Z" fill="#D9D9D9" fill-rule="evenodd"/><text font-family="Yu Gothic,Yu Gothic_MSFontService,sans-serif" font-weight="400" font-size="14.6728" transform="matrix(1 0 0 0.999765 500.545 268)">ч╢Щч╢Ъхнжч┐ТхЩи</text><text font-family="Calibri,Calibri_MSFontService,sans-serif" font-weight="400" font-size="14.6728" transform="matrix(1 0 0 0.999765 496.042 285)">(</text><text font-family="Yu Gothic,Yu Gothic_MSFontService,sans-serif" font-weight="400" font-size="14.6728" transform="matrix(1 0 0 0.999765 500.545 285)">чФЯц╢пхнжч┐ТхЩи</text><text font-family="Calibri,Calibri_MSFontService,sans-serif" font-weight="400" font-size="14.6728" transform="matrix(1 0 0 0.999765 573.926 285)">)</text><text font-family="Yu Gothic,Yu Gothic_MSFontService,sans-serif" font-weight="400" font-size="14.6728" transform="matrix(1 0 0 0.999765 430.065 276)">хИЖх╕Г</text><text font-family="Cambria Math,Cambria Math_MSFontService,sans-serif" font-weight="400" font-size="10.7112" transform="matrix(1 0 0 0.999765 459.417 280)">ЁЭСШ</text><path d="M465 269.936 493.86 269.936 493.86 271.937 465 271.937ZM492.526 266.935 500.531 270.937 492.526 274.938Z" fill="#4472C4"/><text font-family="Yu Gothic,Yu Gothic_MSFontService,sans-serif" font-weight="400" font-size="14.6728" transform="matrix(1 0 0 0.999765 608.167 276)">ф╗ошкм</text><text font-family="Cambria Math,Cambria Math_MSFontService,sans-serif" font-weight="400" font-size="10.7112" transform="matrix(1 0 0 0.999765 637.519 279)">ЁЭСШ</text><path d="M574 269.936 601.679 269.936 601.679 271.937 574 271.937ZM600.345 266.935 608.35 270.937 600.345 274.938Z" fill="#4472C4"/><path d="M513.783 247.833 512.924 246.454 511.669 243.329 511.06 240.484 511.066 239.815 513.067 239.832 513.063 240.391 513.041 240.173 513.609 242.827 513.559 242.664 514.748 245.627 514.669 245.471 515.482 246.776ZM512.815 233.669 512.943 233.451 514.668 231.666 516.831 230.139 519.385 228.832 519.781 228.678 520.503 230.544 520.155 230.679 520.25 230.637 517.806 231.888 517.927 231.815 515.899 233.246 516.042 233.123 514.465 234.756 514.608 234.568 514.54 234.684ZM525.612 226.713 532.873 225.122 533.496 225.024 533.808 227 533.215 227.094 533.273 227.083 526.04 228.667ZM539.426 224.086 541.161 223.812 547.38 222.986 547.643 224.969 541.436 225.794 541.461 225.79 539.739 226.062ZM553.331 222.195 559.529 221.372 559.508 221.375 561.24 221.107 561.546 223.084 559.804 223.354 553.595 224.179ZM567.173 220.188 569.073 219.894 569.03 219.902 574.996 218.713 575.387 220.675 569.4 221.868 567.48 222.166ZM580.78 217.393 587.502 215.569 587.407 215.6 588.379 215.229 589.092 217.099 588.074 217.487 581.304 219.324ZM593.989 213.091 595.835 212.387 595.708 212.445 600.988 209.534 601.955 211.287 596.614 214.231 594.702 214.96ZM605.722 206.202 609.361 203.182 610.639 204.722 607 207.742ZM517.302 244.038 518.199 252.941 510.537 248.317Z" fill="#4472C4"/><path d="M502 347.918C502 335.219 518.342 324.924 538.5 324.924 558.658 324.924 575 335.219 575 347.918 575 360.618 558.658 370.913 538.5 370.913 518.342 370.913 502 360.618 502 347.918Z" fill="#D9D9D9" fill-rule="evenodd"/><text font-family="Yu Gothic,Yu Gothic_MSFontService,sans-serif" font-weight="400" font-size="14.6728" transform="matrix(1 0 0 0.999765 501.544 344)">ч╢Щч╢Ъхнжч┐ТхЩи</text><text font-family="Calibri,Calibri_MSFontService,sans-serif" font-weight="400" font-size="14.6728" transform="matrix(1 0 0 0.999765 497.041 361)">(</text><text font-family="Yu Gothic,Yu Gothic_MSFontService,sans-serif" font-weight="400" font-size="14.6728" transform="matrix(1 0 0 0.999765 501.544 361)">чФЯц╢пхнжч┐ТхЩи</text><text font-family="Calibri,Calibri_MSFontService,sans-serif" font-weight="400" font-size="14.6728" transform="matrix(1 0 0 0.999765 574.926 361)">)</text><path d="M466 346.918 494.86 346.918 494.86 348.919 466 348.919ZM493.526 343.917 501.531 347.918 493.526 351.92Z" fill="#4472C4"/><path d="M575 346.918 602.68 346.918 602.68 348.919 575 348.919ZM601.345 343.917 609.351 347.918 601.345 351.92Z" fill="#4472C4"/><path d="M514.822 323.836 513.944 322.439 512.677 319.314 512.061 316.467 512.066 315.827 514.068 315.844 514.063 316.373 514.041 316.153 514.615 318.807 514.564 318.643 515.766 321.606 515.685 321.449 516.516 322.771ZM513.816 309.679 513.964 309.43 515.706 307.645 517.889 306.119 520.468 304.812 520.783 304.692 521.499 306.56 521.232 306.663 521.326 306.621 518.857 307.872 518.978 307.8 516.929 309.231 517.073 309.109 515.48 310.742 515.624 310.554 515.536 310.701ZM526.541 302.753 526.689 302.709 534.09 301.104 534.497 301.04 534.807 303.017 534.428 303.076 534.485 303.066 527.15 304.656 527.224 304.637 527.113 304.67ZM540.429 300.112 542.461 299.794 548.383 299.015 548.644 300.999 542.734 301.776 542.758 301.773 540.739 302.089ZM554.336 298.233 561.017 297.354 560.996 297.357 562.248 297.165 562.551 299.143 561.289 299.336 554.597 300.216ZM568.182 296.256 570.658 295.876 570.616 295.884 576.012 294.819 576.4 296.782 570.983 297.851 568.486 298.233ZM581.81 293.556 589.278 291.551 589.184 291.581 589.439 291.485 590.146 293.357 589.844 293.47 582.329 295.488ZM595.056 289.365 597.697 288.368 597.571 288.426 602.12 285.943 603.079 287.699 598.469 290.215 595.763 291.237ZM606.966 282.775 611.365 279.161 612.635 280.707 608.236 284.321ZM518.323 320.024 519.263 328.923 511.578 324.336Z" fill="#4472C4"/><text font-family="Calibri,Calibri_MSFontService,sans-serif" font-weight="400" font-size="24.0101" transform="matrix(1 0 0 0.999765 446.665 244)">:</text><text font-family="Calibri,Calibri_MSFontService,sans-serif" font-weight="400" font-size="24.0101" transform="matrix(1 0 0 0.999765 444.393 327)">:</text><text font-family="Calibri,Calibri_MSFontService,sans-serif" font-weight="400" font-size="24.0101" transform="matrix(1 0 0 0.999765 623.082 242)">:</text><text font-family="Calibri,Calibri_MSFontService,sans-serif" font-weight="400" font-size="24.0101" transform="matrix(1 0 0 0.999765 620.811 326)">:</text><path d="M677.5 116.973C677.5 103.445 686.678 92.4783 698 92.4783 709.322 92.4783 718.5 103.445 718.5 116.973 718.5 130.5 709.322 141.467 698 141.467 686.678 141.467 677.5 130.5 677.5 116.973Z" stroke="#172C51" stroke-width="1.33421" stroke-miterlimit="8" fill="none" fill-rule="evenodd"/><path d="M665.5 151.964C665.5 119.111 680.275 92.4783 698.5 92.4783 716.725 92.4783 731.5 119.111 731.5 151.964 731.5 184.818 716.725 211.45 698.5 211.45 680.275 211.45 665.5 184.818 665.5 151.964Z" stroke="#172C51" stroke-width="1.33421" stroke-miterlimit="8" fill="none" fill-rule="evenodd"/><path d="M653.5 190.955C653.5 136.568 673.423 92.4783 698 92.4783 722.577 92.4783 742.5 136.568 742.5 190.955 742.5 245.342 722.577 289.432 698 289.432 673.423 289.432 653.5 245.342 653.5 190.955Z" stroke="#172C51" stroke-width="1.33421" stroke-miterlimit="8" fill="none" fill-rule="evenodd"/><text font-family="Yu Gothic,Yu Gothic_MSFontService,sans-serif" font-weight="400" font-size="14.6728" transform="matrix(1 0 0 0.999765 680.756 122)">ф╗ошкм</text><text font-family="Cambria Math,Cambria Math_MSFontService,sans-serif" font-weight="400" font-size="10.7112" transform="matrix(1 0 0 0.999765 709.768 125)">1</text><text font-family="Yu Gothic,Yu Gothic_MSFontService,sans-serif" font-weight="400" font-size="14.6728" transform="matrix(1 0 0 0.999765 681.424 199)">ф╗ошкм</text><text font-family="Cambria Math,Cambria Math_MSFontService,sans-serif" font-weight="400" font-size="10.7112" transform="matrix(1 0 0 0.999765 710.776 202)">2</text><text font-family="Yu Gothic,Yu Gothic_MSFontService,sans-serif" font-weight="400" font-size="14.6728" transform="matrix(1 0 0 0.999765 683.027 277)">ф╗ошкм</text><text font-family="Cambria Math,Cambria Math_MSFontService,sans-serif" font-weight="400" font-size="10.7112" transform="matrix(1 0 0 0.999765 712.38 280)">ЁЭСШ</text><text font-family="Calibri,Calibri_MSFontService,sans-serif" font-weight="400" font-size="24.0101" transform="matrix(1 0 0 0.999765 696.81 244)">:</text><path d="M644.5 231.946C644.5 154.92 668.453 92.4783 698 92.4783 727.547 92.4783 751.5 154.92 751.5 231.946 751.5 308.971 727.547 371.413 698 371.413 668.453 371.413 644.5 308.971 644.5 231.946Z" stroke="#172C51" stroke-width="1.33421" stroke-miterlimit="8" stroke-dasharray="5.33683 4.00262" fill="none" fill-rule="evenodd"/><text font-family="Yu Gothic,Yu Gothic_MSFontService,sans-serif" font-weight="400" font-size="14.6728" transform="matrix(1 0 0 0.999765 539.757 74)">ф╗ошкм</text><text font-family="Cambria Math,Cambria Math_MSFontService,sans-serif" font-weight="400" font-size="10.7112" transform="matrix(1 0 0 0.999765 569.11 77)">0</text><path d="M428 11.8307C428 8.05759 431.059 4.99884 434.833 4.99884L751.167 4.99884C754.941 4.99884 758 8.05759 758 11.8307L758 39.1573C758 42.9304 754.941 45.9892 751.167 45.9892L434.833 45.9892C431.059 45.9892 428 42.9304 428 39.1573Z" fill="#7030A0" fill-rule="evenodd" fill-opacity="0.101961"/><text fill="#7030A0" font-family="Calibri,Calibri_MSFontService,sans-serif" font-weight="700" font-size="14.6728" transform="matrix(1 0 0 0.999765 501.743 22)">Continual Learning(</text><text fill="#7030A0" font-family="Yu Gothic,Yu Gothic_MSFontService,sans-serif" font-weight="700" font-size="14.6728" transform="matrix(1 0 0 0.999765 620.655 22)">ч╢Щч╢Ъхнжч┐Т</text><text fill="#7030A0" font-family="Calibri,Calibri_MSFontService,sans-serif" font-weight="700" font-size="14.6728" transform="matrix(1 0 0 0.999765 679.36 22)">)</text><text fill="#7030A0" font-family="Calibri,Calibri_MSFontService,sans-serif" font-weight="700" font-size="14.6728" transform="matrix(1 0 0 0.999765 505.413 39)">Lifelong Learning (</text><text fill="#7030A0" font-family="Yu Gothic,Yu Gothic_MSFontService,sans-serif" font-weight="700" font-size="14.6728" transform="matrix(1 0 0 0.999765 616.986 39)">чФЯц╢пхнжч┐Т</text><text fill="#7030A0" font-family="Calibri,Calibri_MSFontService,sans-serif" font-weight="700" font-size="14.6728" transform="matrix(1 0 0 0.999765 675.691 39)">)</text><path d="M5.00002 11.8308C5.00002 8.05762 8.05951 4.99884 11.8336 4.99884L185.166 4.99884C188.941 4.99884 192 8.05762 192 11.8308L192 39.1572C192 42.9304 188.941 45.9892 185.166 45.9892L11.8336 45.9892C8.05951 45.9892 5.00002 42.9304 5.00002 39.1572Z" fill="#00B050" fill-rule="evenodd" fill-opacity="0.101961"/><text fill="#00B050" font-family="Calibri,Calibri_MSFontService,sans-serif" font-weight="700" font-size="14.6728" transform="matrix(1 0 0 0.999765 35.4195 22)">Perspective</text><text fill="#00B050" font-family="Calibri,Calibri_MSFontService,sans-serif" font-weight="700" font-size="14.6728" transform="matrix(1 0 0 0.999765 109.468 22)">Learning</text><text fill="#00B050" font-family="Calibri,Calibri_MSFontService,sans-serif" font-weight="700" font-size="14.6728" transform="matrix(1 0 0 0.999765 64.6919 39)">(</text><text fill="#00B050" font-family="Yu Gothic,Yu Gothic_MSFontService,sans-serif" font-weight="700" font-size="14.6728" transform="matrix(1 0 0 0.999765 69.1949 39)">х▒ХцЬЫхнжч┐Т</text><text fill="#00B050" font-family="Calibri,Calibri_MSFontService,sans-serif" font-weight="700" font-size="14.6728" transform="matrix(1 0 0 0.999765 127.9 39)">)</text><path d="M62 113.973C62 101.274 78.3416 90.9787 98.5 90.9787 118.658 90.9787 135 101.274 135 113.973 135 126.673 118.658 136.968 98.5 136.968 78.3416 136.968 62 126.673 62 113.973Z" fill="#00B050" fill-rule="evenodd" fill-opacity="0.101961"/><text fill="#00B050" font-family="Yu Gothic,Yu Gothic_MSFontService,sans-serif" font-weight="700" font-size="14.6728" transform="matrix(1 0 0 0.999765 83.6027 110)">х▒ХцЬЫ</text><text fill="#00B050" font-family="Yu Gothic,Yu Gothic_MSFontService,sans-serif" font-weight="700" font-size="14.6728" transform="matrix(1 0 0 0.999765 76.2646 127)">хнжч┐ТхЩи</text><text font-family="Yu Gothic,Yu Gothic_MSFontService,sans-serif" font-weight="400" font-size="14.6728" transform="matrix(1 0 0 0.999765 4.72645 72)">хИЖх╕Г</text><text font-family="Cambria Math,Cambria Math_MSFontService,sans-serif" font-weight="400" font-size="10.7112" transform="matrix(1 0 0 0.999765 33.7388 76)">1</text><text font-family="Yu Gothic,Yu Gothic_MSFontService,sans-serif" font-weight="400" font-size="14.6728" transform="matrix(1 0 0 0.999765 4.72645 102)">хИЖх╕Г</text><text font-family="Cambria Math,Cambria Math_MSFontService,sans-serif" font-weight="400" font-size="10.7112" transform="matrix(1 0 0 0.999765 34.079 106)">2</text><text font-family="Yu Gothic,Yu Gothic_MSFontService,sans-serif" font-weight="400" font-size="14.6728" transform="matrix(1 0 0 0.999765 4.72645 156)">хИЖх╕Г</text><text font-family="Cambria Math,Cambria Math_MSFontService,sans-serif" font-weight="400" font-size="10.7112" transform="matrix(1 0 0 0.999765 34.079 159)">ЁЭСШ</text><text font-family="Calibri,Calibri_MSFontService,sans-serif" font-weight="400" font-size="24.0101" transform="matrix(1 0 0 0.999765 21.0716 133)">:</text><text font-family="Calibri,Calibri_MSFontService,sans-serif" font-weight="400" font-size="24.0101" transform="matrix(1 0 0 0.999765 46.4252 134)">:</text><path d="M43.5918 73.1759 68.2122 91.2267 67.0287 92.8402 42.4083 74.7894ZM68.9115 88.0176 73 95.9775 64.1775 94.4716Z" fill="#00B050"/><path d="M46.3164 98.0277 60.9877 102.917 60.3548 104.815 45.6835 99.9259ZM60.6713 99.6479 67 105.975 58.1398 107.241Z" fill="#00B050"/><path d="M0.676009-0.737463 19.7539 16.7507 18.4019 18.2256-0.676009 0.737463ZM20.7987 13.6369 23.9943 21.9949 15.3906 19.5366Z" fill="#00B050" transform="matrix(1.00023 0 0 -1 44 150.965)"/><text fill="#00B050" font-family="Yu Gothic,Yu Gothic_MSFontService,sans-serif" font-weight="400" font-size="14.6728" transform="matrix(1 0 0 0.999765 80.7496 184)">ф╗ошкм</text><text fill="#00B050" font-family="Cambria Math,Cambria Math_MSFontService,sans-serif" font-weight="400" font-size="10.7112" transform="matrix(1 0 0 0.999765 110.102 178)">ЁЭС╗</text><path d="M98.0006 136.968 98.0006 160.291 95.9993 160.291 95.9993 136.968ZM101.003 158.957 97 166.961 92.9973 158.957Z" fill="#00B050"/><text fill="#00B050" font-family="Yu Gothic,Yu Gothic_MSFontService,sans-serif" font-weight="400" font-size="14.6728" transform="matrix(1 0 0 0.999765 138.543 184)">ф╗ошкм</text><text fill="#00B050" font-family="Cambria Math,Cambria Math_MSFontService,sans-serif" font-weight="400" font-size="10.7112" transform="matrix(1 0 0 0.999765 167.895 187)">ЁЭСШ</text><text fill="#00B050" font-family="Cambria Math,Cambria Math_MSFontService,sans-serif" font-weight="400" font-size="10.7112" transform="matrix(1 0 0 0.999765 174.713 187)">+</text><text fill="#00B050" font-family="Cambria Math,Cambria Math_MSFontService,sans-serif" font-weight="400" font-size="10.7112" transform="matrix(1 0 0 0.999765 182.552 187)">1</text><text fill="#00B050" font-family="Yu Gothic,Yu Gothic_MSFontService,sans-serif" font-weight="400" font-size="14.6728" transform="matrix(1 0 0 0.999765 139.097 206)">ф╗ошкм</text><text fill="#00B050" font-family="Cambria Math,Cambria Math_MSFontService,sans-serif" font-weight="400" font-size="10.7112" transform="matrix(1 0 0 0.999765 168.45 209)">ЁЭСШ</text><text fill="#00B050" font-family="Cambria Math,Cambria Math_MSFontService,sans-serif" font-weight="400" font-size="10.7112" transform="matrix(1 0 0 0.999765 175.268 209)">+</text><text fill="#00B050" font-family="Cambria Math,Cambria Math_MSFontService,sans-serif" font-weight="400" font-size="10.7112" transform="matrix(1 0 0 0.999765 183.106 209)">2</text><path d="M116 177.958 131.329 177.958 131.329 179.958 116 179.958ZM129.995 174.956 138 178.958 129.995 182.96Z" fill="#00B050"/><path d="M96.0007 187.956 96.0007 200.953 95 199.952 131.329 199.952 131.329 201.953 93.9994 201.953 93.9994 187.956ZM129.995 196.951 138 200.953 129.995 204.954Z" fill="#00B050"/><path d="M96.0007 201.953 96.0007 209.956 93.9994 209.956 93.9994 201.953ZM96.0007 215.958 96.0007 220.948 95 219.948 98.0145 219.948 98.0145 221.949 93.9994 221.949 93.9994 215.958ZM104.018 219.948 112.024 219.948 112.024 221.949 104.018 221.949ZM118.028 219.948 126.033 219.948 126.033 221.949 118.028 221.949ZM129.995 216.946 138 220.948 129.995 224.95Z" fill="#00B050"/><text fill="#00B050" font-family="Yu Gothic,Yu Gothic_MSFontService,sans-serif" font-weight="400" font-size="14.6728" transform="matrix(1 0 0 0.999765 144.683 228)">я╜ея╜ея╜е</text><path d="M204 11.8308C204 8.0576 207.059 4.99884 210.833 4.99884L408.167 4.99884C411.941 4.99884 415 8.0576 415 11.8308L415 39.1573C415 42.9304 411.941 45.9892 408.167 45.9892L210.833 45.9892C207.059 45.9892 204 42.9304 204 39.1573Z" fill="#FEE7DC" fill-rule="evenodd"/><text fill="#ED2C1D" font-family="Calibri,Calibri_MSFontService,sans-serif" font-weight="700" font-size="14.6728" transform="matrix(1 0 0 0.999765 253.648 22)">Inductive</text><text fill="#ED2C1D" font-family="Calibri,Calibri_MSFontService,sans-serif" font-weight="700" font-size="14.6728" transform="matrix(1 0 0 0.999765 313.688 22)">Learning</text><text fill="#ED2C1D" font-family="Calibri,Calibri_MSFontService,sans-serif" font-weight="700" font-size="14.6728" transform="matrix(1 0 0 0.999765 275.91 39)">(</text><text fill="#ED2C1D" font-family="Yu Gothic,Yu Gothic_MSFontService,sans-serif" font-weight="700" font-size="14.6728" transform="matrix(1 0 0 0.999765 280.413 39)">х╕░ч┤Нхнжч┐Т</text><text fill="#ED2C1D" font-family="Calibri,Calibri_MSFontService,sans-serif" font-weight="700" font-size="14.6728" transform="matrix(1 0 0 0.999765 339.118 39)">)</text><path d="M272 85.48C272 72.5043 283.193 61.9855 297 61.9855 310.807 61.9855 322 72.5043 322 85.48 322 98.4556 310.807 108.974 297 108.974 283.193 108.974 272 98.4556 272 85.48Z" fill="#D9D9D9" fill-rule="evenodd"/><text font-family="Yu Gothic,Yu Gothic_MSFontService,sans-serif" font-weight="400" font-size="14.6728" transform="matrix(1 0 0 0.999765 274.626 82)">уГЩуГ╝уВ╣</text><text font-family="Yu Gothic,Yu Gothic_MSFontService,sans-serif" font-weight="400" font-size="14.6728" transform="matrix(1 0 0 0.999765 274.626 99)">хнжч┐ТхЩи</text><text font-family="Yu Gothic,Yu Gothic_MSFontService,sans-serif" font-weight="400" font-size="14.6728" transform="matrix(1 0 0 0.999765 202.053 91)">хИЖх╕Г</text><text font-family="Cambria Math,Cambria Math_MSFontService,sans-serif" font-weight="400" font-size="10.7112" transform="matrix(1 0 0 0.999765 231.065 94)">1</text><path d="M237 84.9794 264.973 84.9795 264.973 86.9803 237 86.9802ZM263.639 81.9782 271.644 85.9799 263.639 89.9816Z" fill="#4472C4"/><text font-family="Yu Gothic,Yu Gothic_MSFontService,sans-serif" font-weight="400" font-size="14.6728" transform="matrix(1 0 0 0.999765 355.17 91)">ф╗ошкм</text><text font-family="Cambria Math,Cambria Math_MSFontService,sans-serif" font-weight="400" font-size="10.7112" transform="matrix(1 0 0 0.999765 384.182 94)">1</text><path d="M322 84.9794 348.973 84.9795 348.973 86.9803 322 86.9802ZM347.639 81.9782 355.644 85.9799 347.639 89.9816Z" fill="#4472C4"/><path d="M272 139.967C272 127.268 283.193 116.973 297 116.973 310.807 116.973 322 127.268 322 139.967 322 152.667 310.807 162.962 297 162.962 283.193 162.962 272 152.667 272 139.967Z" fill="#D9D9D9" fill-rule="evenodd"/><text font-family="Yu Gothic,Yu Gothic_MSFontService,sans-serif" font-weight="400" font-size="14.6728" transform="matrix(1 0 0 0.999765 275.294 136)">уГЩуГ╝уВ╣</text><text font-family="Yu Gothic,Yu Gothic_MSFontService,sans-serif" font-weight="400" font-size="14.6728" transform="matrix(1 0 0 0.999765 275.294 153)">хнжч┐ТхЩи</text><text font-family="Yu Gothic,Yu Gothic_MSFontService,sans-serif" font-weight="400" font-size="14.6728" transform="matrix(1 0 0 0.999765 202.72 145)">хИЖх╕Г</text><text font-family="Cambria Math,Cambria Math_MSFontService,sans-serif" font-weight="400" font-size="10.7112" transform="matrix(1 0 0 0.999765 232.073 148)">2</text><path d="M238 138.967 265.973 138.967 265.973 140.968 238 140.968ZM264.639 135.965 272.644 139.967 264.639 143.969Z" fill="#4472C4"/><text font-family="Yu Gothic,Yu Gothic_MSFontService,sans-serif" font-weight="400" font-size="14.6728" transform="matrix(1 0 0 0.999765 355.837 145)">ф╗ошкм</text><text font-family="Cambria Math,Cambria Math_MSFontService,sans-serif" font-weight="400" font-size="10.7112" transform="matrix(1 0 0 0.999765 385.19 148)">2</text><path d="M322 138.967 348.973 138.967 348.973 140.968 322 140.968ZM347.639 135.965 355.644 139.967 347.639 143.969Z" fill="#4472C4"/><path d="M274 205.452C274 192.476 285.193 181.957 299 181.957 312.807 181.957 324 192.476 324 205.452 324 218.427 312.807 228.946 299 228.946 285.193 228.946 274 218.427 274 205.452Z" fill="#D9D9D9" fill-rule="evenodd"/><text font-family="Yu Gothic,Yu Gothic_MSFontService,sans-serif" font-weight="400" font-size="14.6728" transform="matrix(1 0 0 0.999765 276.897 202)">уГЩуГ╝уВ╣</text><text font-family="Yu Gothic,Yu Gothic_MSFontService,sans-serif" font-weight="400" font-size="14.6728" transform="matrix(1 0 0 0.999765 276.897 219)">хнжч┐ТхЩи</text><text font-family="Yu Gothic,Yu Gothic_MSFontService,sans-serif" font-weight="400" font-size="14.6728" transform="matrix(1 0 0 0.999765 204.324 211)">хИЖх╕Г</text><text font-family="Cambria Math,Cambria Math_MSFontService,sans-serif" font-weight="400" font-size="10.7112" transform="matrix(1 0 0 0.999765 233.676 214)">ЁЭСШ</text><path d="M239 204.951 266.973 204.951 266.973 206.952 239 206.952ZM265.639 201.95 273.644 205.952 265.639 209.953Z" fill="#4472C4"/><text font-family="Yu Gothic,Yu Gothic_MSFontService,sans-serif" font-weight="400" font-size="14.6728" transform="matrix(1 0 0 0.999765 357.441 211)">ф╗ошкм</text><text font-family="Cambria Math,Cambria Math_MSFontService,sans-serif" font-weight="400" font-size="10.7112" transform="matrix(1 0 0 0.999765 386.793 214)">ЁЭСШ</text><path d="M324 204.951 350.973 204.951 350.973 206.952 324 206.952ZM349.639 201.95 357.644 205.952 349.639 209.953Z" fill="#4472C4"/><text font-family="Calibri,Calibri_MSFontService,sans-serif" font-weight="400" font-size="24.0101" transform="matrix(1 0 0 0.999765 219.445 178)">:</text><text font-family="Calibri,Calibri_MSFontService,sans-serif" font-weight="400" font-size="24.0101" transform="matrix(1 0 0 0.999765 370.877 177)">:</text><path d="M275 280.434C275 267.458 286.193 256.94 300 256.94 313.807 256.94 325 267.458 325 280.434 325 293.41 313.807 303.929 300 303.929 286.193 303.929 275 293.41 275 280.434Z" fill="#FEE7DC" fill-rule="evenodd"/><text fill="#ED2C1D" font-family="Yu Gothic,Yu Gothic_MSFontService,sans-serif" font-weight="700" font-size="14.6728" transform="matrix(1 0 0 0.999765 285.122 277)">х╕░ч┤Н</text><text fill="#ED2C1D" font-family="Yu Gothic,Yu Gothic_MSFontService,sans-serif" font-weight="700" font-size="14.6728" transform="matrix(1 0 0 0.999765 277.784 294)">хнжч┐ТхЩи</text><path d="M202 76.4821C202 72.3409 205.358 68.9838 209.5 68.9838L239.5 68.9838C243.642 68.9838 247 72.3409 247 76.4821L247 221.448C247 225.589 243.642 228.946 239.5 228.946L209.5 228.946C205.358 228.946 202 225.589 202 221.448Z" stroke="#EE3527" stroke-width="2.00131" stroke-miterlimit="8" fill="none" fill-rule="evenodd"/><path d="M347 75.3157C347 71.2665 350.283 67.984 354.333 67.984L383.667 67.984C387.717 67.984 391 71.2665 391 75.3157L391 221.615C391 225.664 387.717 228.946 383.667 228.946L354.333 228.946C350.283 228.946 347 225.664 347 221.615Z" stroke="#EE3527" stroke-width="2.00131" stroke-miterlimit="8" fill="none" fill-rule="evenodd"/><path d="M242.717 226.249 274.065 258.46 272.631 259.855 241.283 227.644ZM275.286 255.411 278 263.938 269.549 260.992Z" fill="#EE3527"/><path d="M0.717027-0.697648 32.0576 31.5135 30.6236 32.9088-0.717027 0.697648ZM33.2785 28.4646 35.9916 36.9914 27.5423 34.0458Z" fill="#EE3527" transform="matrix(-1.00023 0 0 1 351 228.946)"/><text fill="#ED2C1D" font-family="Yu Gothic,Yu Gothic_MSFontService,sans-serif" font-weight="400" font-size="14.6728" transform="matrix(1 0 0 0.999765 283.859 349)">ф╗ошкм</text><text fill="#ED2C1D" font-family="Cambria Math,Cambria Math_MSFontService,sans-serif" font-weight="400" font-size="10.7112" transform="matrix(1 0 0 0.999765 313.212 344)">ЁЭС╗</text><path d="M301.001 300.929 301.001 324.253 298.999 324.253 298.999 300.929ZM304.003 322.919 300 330.922 295.997 322.919Z" fill="#EE3527"/><text fill="#ED2C1D" font-family="Yu Gothic,Yu Gothic_MSFontService,sans-serif" font-weight="400" font-size="14.6728" transform="matrix(1 0 0 0.999765 341.653 349)">ф╗ошкм</text><text fill="#ED2C1D" font-family="Cambria Math,Cambria Math_MSFontService,sans-serif" font-weight="400" font-size="10.7112" transform="matrix(1 0 0 0.999765 371.005 352)">ЁЭСШ</text><text fill="#ED2C1D" font-family="Cambria Math,Cambria Math_MSFontService,sans-serif" font-weight="400" font-size="10.7112" transform="matrix(1 0 0 0.999765 377.823 352)">+</text><text fill="#ED2C1D" font-family="Cambria Math,Cambria Math_MSFontService,sans-serif" font-weight="400" font-size="10.7112" transform="matrix(1 0 0 0.999765 385.661 352)">1</text><text fill="#ED2C1D" font-family="Yu Gothic,Yu Gothic_MSFontService,sans-serif" font-weight="400" font-size="14.6728" transform="matrix(1 0 0 0.999765 342.207 372)">ф╗ошкм</text><text fill="#ED2C1D" font-family="Cambria Math,Cambria Math_MSFontService,sans-serif" font-weight="400" font-size="10.7112" transform="matrix(1 0 0 0.999765 371.56 375)">ЁЭСШ</text><text fill="#ED2C1D" font-family="Cambria Math,Cambria Math_MSFontService,sans-serif" font-weight="400" font-size="10.7112" transform="matrix(1 0 0 0.999765 378.378 375)">+</text><text fill="#ED2C1D" font-family="Cambria Math,Cambria Math_MSFontService,sans-serif" font-weight="400" font-size="10.7112" transform="matrix(1 0 0 0.999765 386.216 375)">2</text><path d="M319 341.919 334.329 341.919 334.329 343.92 319 343.92ZM332.995 338.918 341 342.919 332.995 346.921Z" fill="#EE3527"/><path d="M299.001 351.917 299.001 364.914 298 363.914 334.329 363.914 334.329 365.915 296.999 365.915 296.999 351.917ZM332.995 360.913 341 364.914 332.995 368.916Z" fill="#EE3527"/><path d="M299.001 365.914 299.001 373.917 296.999 373.917 296.999 365.914ZM299.001 379.92 299.001 384.91 298 383.909 301.014 383.909 301.014 385.91 296.999 385.91 296.999 379.92ZM307.018 383.909 315.023 383.909 315.023 385.91 307.018 385.91ZM321.027 383.909 329.033 383.909 329.033 385.91 321.027 385.91ZM332.995 380.908 341 384.91 332.995 388.911Z" fill="#EE3527"/><text fill="#ED2C1D" font-family="Yu Gothic,Yu Gothic_MSFontService,sans-serif" font-weight="400" font-size="14.6728" transform="matrix(1 0 0 0.999765 347.793 393)">я╜ея╜ея╜е</text></g></svg>