<svg width="922" height="408" xmlns="http://www.w3.org/2000/svg" xmlns:xlink="http://www.w3.org/1999/xlink" overflow="hidden"><defs><clipPath id="clip0"><rect x="0" y="0" width="922" height="408"/></clipPath></defs><g clip-path="url(#clip0)"><rect x="0" y="0" width="922" height="407.907" fill="#FFFFFF"/><path d="M602 114.474C602 101.498 621.7 90.9793 646 90.9793 670.301 90.9793 690 101.498 690 114.474 690 127.45 670.301 137.969 646 137.969 621.7 137.969 602 127.45 602 114.474Z" fill="#D9D9D9" fill-rule="evenodd"/><text font-family="Yu Gothic,Yu Gothic_MSFontService,sans-serif" font-weight="400" font-size="14.6607" transform="matrix(1 0 0 0.999772 609.338 111)">ч╢Щч╢Ъхнжч┐ТхЩи</text><text font-family="Calibri,Calibri_MSFontService,sans-serif" font-weight="400" font-size="14.6607" transform="matrix(1 0 0 0.999772 604.839 128)">(</text><text font-family="Yu Gothic,Yu Gothic_MSFontService,sans-serif" font-weight="400" font-size="14.6607" transform="matrix(1 0 0 0.999772 609.338 128)">чФЯц╢пхнжч┐ТхЩи</text><text font-family="Calibri,Calibri_MSFontService,sans-serif" font-weight="400" font-size="14.6607" transform="matrix(1 0 0 0.999772 682.658 128)">)</text><text font-family="Yu Gothic,Yu Gothic_MSFontService,sans-serif" font-weight="400" font-size="14.6607" transform="matrix(1 0 0 0.999772 520.261 119)">хИЖх╕Г</text><text font-family="Cambria Math,Cambria Math_MSFontService,sans-serif" font-weight="400" font-size="10.7023" transform="matrix(1 0 0 0.999772 549.249 123)">1</text><path d="M559 112.974 595.053 112.975 595.053 114.974 559 114.974ZM593.72 109.976 601.718 113.974 593.72 117.972Z" fill="#4472C4"/><text font-family="Yu Gothic,Yu Gothic_MSFontService,sans-serif" font-weight="400" font-size="14.6607" transform="matrix(1 0 0 0.999772 734.391 119)">ф╗ошкм</text><text font-family="Cambria Math,Cambria Math_MSFontService,sans-serif" font-weight="400" font-size="10.7023" transform="matrix(1 0 0 0.999772 763.379 122)">1</text><path d="M690 112.974 724.634 112.975 724.634 114.974 690 114.974ZM723.301 109.976 731.299 113.974 723.301 117.972Z" fill="#4472C4"/><text font-family="Calibri,Calibri_MSFontService,sans-serif" font-weight="400" font-size="14.6607" transform="matrix(1 0 0 0.999772 692.737 75)">(</text><text font-family="Yu Gothic,Yu Gothic_MSFontService,sans-serif" font-weight="400" font-size="14.6607" transform="matrix(1 0 0 0.999772 697.236 75)">хИЭцЬЯф╗ошкм</text><text font-family="Calibri,Calibri_MSFontService,sans-serif" font-weight="400" font-size="14.6607" transform="matrix(1 0 0 0.999772 755.892 75)">)</text><path d="M603 194.456C603 181.48 622.699 170.961 647 170.961 671.301 170.961 691 181.48 691 194.456 691 207.431 671.301 217.95 647 217.95 622.699 217.95 603 207.431 603 194.456Z" fill="#D9D9D9" fill-rule="evenodd"/><text font-family="Yu Gothic,Yu Gothic_MSFontService,sans-serif" font-weight="400" font-size="14.6607" transform="matrix(1 0 0 0.999772 610.141 191)">ч╢Щч╢Ъхнжч┐ТхЩи</text><text font-family="Calibri,Calibri_MSFontService,sans-serif" font-weight="400" font-size="14.6607" transform="matrix(1 0 0 0.999772 605.642 208)">(</text><text font-family="Yu Gothic,Yu Gothic_MSFontService,sans-serif" font-weight="400" font-size="14.6607" transform="matrix(1 0 0 0.999772 610.141 208)">чФЯц╢пхнжч┐ТхЩи</text><text font-family="Calibri,Calibri_MSFontService,sans-serif" font-weight="400" font-size="14.6607" transform="matrix(1 0 0 0.999772 683.461 208)">)</text><text font-family="Yu Gothic,Yu Gothic_MSFontService,sans-serif" font-weight="400" font-size="14.6607" transform="matrix(1 0 0 0.999772 520.897 199)">хИЖх╕Г</text><text font-family="Cambria Math,Cambria Math_MSFontService,sans-serif" font-weight="400" font-size="10.7023" transform="matrix(1 0 0 0.999772 550.225 203)">2</text><path d="M560 192.956 596.053 192.956 596.053 194.956 560 194.955ZM594.72 189.958 602.718 193.956 594.72 197.954Z" fill="#4472C4"/><text font-family="Yu Gothic,Yu Gothic_MSFontService,sans-serif" font-weight="400" font-size="14.6607" transform="matrix(1 0 0 0.999772 735.027 199)">ф╗ошкм</text><text font-family="Cambria Math,Cambria Math_MSFontService,sans-serif" font-weight="400" font-size="10.7023" transform="matrix(1 0 0 0.999772 764.355 202)">2</text><path d="M691 192.956 725.634 192.956 725.634 194.956 691 194.955ZM724.301 189.958 732.299 193.956 724.301 197.954Z" fill="#4472C4"/><path d="M619.073 89.4301 617.989 88.0605 617.03 85.3933 617.253 83.0853 618.584 81.3145 620.626 80.1124 623.16 79.2765 626.093 78.6566 632.698 77.6825 632.674 77.6863 639.53 76.5058 639.438 76.526 642.639 75.6603 642.527 75.6977 645.4 74.5436 645.239 74.6257 647.65 73.1047 647.449 73.2719 649.265 71.3055 650.734 72.6618 648.829 74.7251 646.23 76.3648 643.218 77.5747 639.915 78.468 633.002 79.6585 626.415 80.6298 626.476 80.6189 623.627 81.221 623.734 81.1923 621.354 81.9773 621.548 81.8894 619.771 82.9359 620.063 82.6751 619.02 84.0616 619.216 83.557 619.042 85.3621 618.988 84.9283 619.815 87.2306 619.658 86.9481 620.641 88.1893ZM622.118 85.2523 624.064 93.9786 615.914 90.2996Z" fill="#4472C4"/><path d="M618.643 171.286 617.351 169.539 615.823 166.404 615.074 163.525 615.101 160.87 615.892 158.478 617.377 156.399 619.454 154.629 622.049 153.12 625.118 151.827 628.625 150.71 632.536 149.739 636.814 148.89 641.426 148.136 651.465 146.829 662.354 145.638 673.766 144.389 673.748 144.391 685.362 142.91 685.327 142.916 696.812 141.03 696.756 141.041 707.781 138.578 707.7 138.6 717.933 135.387 717.819 135.43 726.93 131.294 726.821 131.352 730.852 128.883 730.768 128.94 734.394 126.176 735.606 127.766 731.94 130.561 727.813 133.089 718.591 137.276 708.258 140.52 697.164 142.999 685.633 144.891 673.992 146.375 662.571 147.625 651.693 148.815 651.713 148.812 641.7 150.116 641.732 150.111 637.154 150.86 637.187 150.854 632.949 151.696 632.995 151.685 629.138 152.642 629.201 152.624 625.768 153.718 625.853 153.686 622.885 154.938 622.999 154.881 620.537 156.312 620.683 156.208 618.768 157.841 618.933 157.661 617.608 159.517 617.743 159.25 617.048 161.35 617.099 161.045 617.075 163.412 617.043 163.15 617.733 165.804 617.664 165.618 619.108 168.581 619.013 168.424 620.25 170.097ZM621.792 167.189 623.528 175.96 615.468 172.086Z" fill="#4472C4"/><path d="M605 272.438C605 259.462 624.7 248.943 649 248.943 673.301 248.943 693 259.462 693 272.438 693 285.414 673.301 295.933 649 295.933 624.7 295.933 605 285.414 605 272.438Z" fill="#D9D9D9" fill-rule="evenodd"/><text font-family="Yu Gothic,Yu Gothic_MSFontService,sans-serif" font-weight="400" font-size="14.6607" transform="matrix(1 0 0 0.999772 612.068 269)">ч╢Щч╢Ъхнжч┐ТхЩи</text><text font-family="Calibri,Calibri_MSFontService,sans-serif" font-weight="400" font-size="14.6607" transform="matrix(1 0 0 0.999772 607.569 286)">(</text><text font-family="Yu Gothic,Yu Gothic_MSFontService,sans-serif" font-weight="400" font-size="14.6607" transform="matrix(1 0 0 0.999772 612.068 286)">чФЯц╢пхнжч┐ТхЩи</text><text font-family="Calibri,Calibri_MSFontService,sans-serif" font-weight="400" font-size="14.6607" transform="matrix(1 0 0 0.999772 685.388 286)">)</text><text font-family="Yu Gothic,Yu Gothic_MSFontService,sans-serif" font-weight="400" font-size="14.6607" transform="matrix(1 0 0 0.999772 522.498 277)">хИЖх╕Г</text><text font-family="Cambria Math,Cambria Math_MSFontService,sans-serif" font-weight="400" font-size="10.7023" transform="matrix(1 0 0 0.999772 551.826 281)">ЁЭСШ</text><path d="M562 270.938 598.053 270.939 598.053 272.938 562 272.938ZM596.72 267.94 604.718 271.938 596.72 275.936Z" fill="#4472C4"/><text font-family="Yu Gothic,Yu Gothic_MSFontService,sans-serif" font-weight="400" font-size="14.6607" transform="matrix(1 0 0 0.999772 736.628 277)">ф╗ошкм</text><text font-family="Cambria Math,Cambria Math_MSFontService,sans-serif" font-weight="400" font-size="10.7023" transform="matrix(1 0 0 0.999772 765.956 280)">ЁЭСШ</text><path d="M693 270.938 727.634 270.939 727.634 272.938 693 272.938ZM726.301 267.94 734.299 271.938 726.301 275.936Z" fill="#4472C4"/><path d="M620.643 249.268 619.351 247.522 617.823 244.386 617.138 241.753 619.074 241.25 619.733 243.786 619.664 243.6 621.108 246.563 621.013 246.407 622.25 248.079ZM618.735 235.281 619.377 234.382 621.454 232.611 624.049 231.103 625.63 230.436 626.407 232.278 624.885 232.92 624.999 232.863 622.537 234.294 622.683 234.191 620.768 235.823 620.933 235.643 620.362 236.443ZM631.459 228.485 634.536 227.722 638.814 226.872 639.354 226.784 639.677 228.757 639.154 228.842 639.187 228.836 634.949 229.678 634.995 229.668 631.94 230.425ZM645.316 225.872 653.247 224.839 653.505 226.822 645.574 227.854ZM659.23 224.18 664.354 223.62 667.181 223.31 667.399 225.298 664.571 225.607 659.448 226.168ZM673.145 222.658 675.766 222.371 675.748 222.373 681.067 221.695 681.32 223.678 675.992 224.358 673.362 224.645ZM687.018 220.937 687.362 220.893 687.327 220.898 694.877 219.659 695.201 221.631 687.633 222.874 687.271 222.92ZM700.719 218.585 708.525 216.841 708.961 218.792 701.155 220.536ZM714.195 215.171 719.933 213.369 719.819 213.413 721.625 212.593 722.452 214.413 720.591 215.258 714.794 217.078ZM727.087 210.113 728.93 209.276 728.821 209.334 732.852 206.865 732.768 206.923 733.76 206.166 734.973 207.756 733.94 208.543 729.813 211.071 727.914 211.933ZM623.792 245.172 625.528 253.942 617.468 250.068Z" fill="#4472C4"/><path d="M606 348.921C606 336.221 625.699 325.926 650 325.926 674.301 325.926 694 336.221 694 348.921 694 361.62 674.301 371.915 650 371.915 625.699 371.915 606 361.62 606 348.921Z" fill="#D9D9D9" fill-rule="evenodd"/><text font-family="Yu Gothic,Yu Gothic_MSFontService,sans-serif" font-weight="400" font-size="14.6607" transform="matrix(1 0 0 0.999772 613.27 345)">ч╢Щч╢Ъхнжч┐ТхЩи</text><text font-family="Calibri,Calibri_MSFontService,sans-serif" font-weight="400" font-size="14.6607" transform="matrix(1 0 0 0.999772 608.771 362)">(</text><text font-family="Yu Gothic,Yu Gothic_MSFontService,sans-serif" font-weight="400" font-size="14.6607" transform="matrix(1 0 0 0.999772 613.27 362)">чФЯц╢пхнжч┐ТхЩи</text><text font-family="Calibri,Calibri_MSFontService,sans-serif" font-weight="400" font-size="14.6607" transform="matrix(1 0 0 0.999772 686.59 362)">)</text><path d="M563 347.921 599.053 347.921 599.053 349.92 563 349.92ZM597.72 344.922 605.718 348.921 597.72 352.919Z" fill="#4472C4"/><path d="M694 347.921 728.634 347.921 728.634 349.92 694 349.92ZM727.301 344.922 735.299 348.921 727.301 352.919Z" fill="#4472C4"/><path d="M622.6 325.23 621.331 323.501 619.815 320.366 619.128 317.701 621.065 317.202 621.727 319.771 621.659 319.586 623.091 322.549 622.997 322.392 624.212 324.047ZM620.742 311.235 621.357 310.367 623.417 308.596 625.991 307.087 627.637 306.387 628.419 308.227 626.833 308.901 626.948 308.844 624.506 310.275 624.652 310.171 622.754 311.803 622.918 311.623 622.374 312.39ZM633.467 304.437 636.393 303.705 640.636 302.855 641.363 302.735 641.688 304.708 640.979 304.825 641.012 304.818 636.81 305.66 636.856 305.65 633.952 306.376ZM647.325 301.823 655.165 300.794 655.276 300.781 655.495 302.769 655.395 302.78 655.415 302.777 647.585 303.805ZM661.239 300.124 665.962 299.603 669.189 299.247 669.408 301.234 666.182 301.59 661.458 302.111ZM675.151 298.589 677.278 298.354 677.26 298.356 683.071 297.609 683.326 299.592 677.507 300.34 675.371 300.576ZM688.984 296.841 696.875 295.534 697.202 297.507 689.311 298.813ZM702.708 294.413 710.51 292.655 710.95 294.606 703.147 296.363ZM716.159 290.908 721.072 289.353 720.957 289.397 723.544 288.212 724.376 290.03 721.734 291.24 716.762 292.814ZM728.998 285.715 729.991 285.26 729.882 285.318 733.879 282.85 733.795 282.908 735.545 281.562 736.764 283.147 734.974 284.524 730.88 287.052 729.83 287.533ZM625.767 321.147 627.465 329.925 619.422 326.016Z" fill="#4472C4"/><text font-family="Calibri,Calibri_MSFontService,sans-serif" font-weight="400" font-size="23.9902" transform="matrix(1 0 0 0.999772 537.885 245)">:</text><text font-family="Calibri,Calibri_MSFontService,sans-serif" font-weight="400" font-size="23.9902" transform="matrix(1 0 0 0.999772 535.154 328)">:</text><text font-family="Calibri,Calibri_MSFontService,sans-serif" font-weight="400" font-size="23.9902" transform="matrix(1 0 0 0.999772 749.989 243)">:</text><text font-family="Calibri,Calibri_MSFontService,sans-serif" font-weight="400" font-size="23.9902" transform="matrix(1 0 0 0.999772 747.259 327)">:</text><path d="M817.5 118.973C817.5 105.445 828.469 94.4785 842 94.4785 855.531 94.4785 866.5 105.445 866.5 118.973 866.5 132.501 855.531 143.467 842 143.467 828.469 143.467 817.5 132.501 817.5 118.973Z" stroke="#172C51" stroke-width="1.33309" stroke-miterlimit="8" fill="none" fill-rule="evenodd"/><path d="M802.5 153.465C802.5 120.888 820.409 94.4785 842.5 94.4785 864.591 94.4785 882.5 120.888 882.5 153.465 882.5 186.042 864.591 212.452 842.5 212.452 820.409 212.452 802.5 186.042 802.5 153.465Z" stroke="#172C51" stroke-width="1.33309" stroke-miterlimit="8" fill="none" fill-rule="evenodd"/><path d="M788.5 191.956C788.5 137.569 812.453 93.4787 842 93.4787 871.547 93.4787 895.5 137.569 895.5 191.956 895.5 246.344 871.547 290.434 842 290.434 812.453 290.434 788.5 246.344 788.5 191.956Z" stroke="#172C51" stroke-width="1.33309" stroke-miterlimit="8" fill="none" fill-rule="evenodd"/><text font-family="Yu Gothic,Yu Gothic_MSFontService,sans-serif" font-weight="400" font-size="14.6607" transform="matrix(1 0 0 0.999772 824.394 123)">ф╗ошкм</text><text font-family="Cambria Math,Cambria Math_MSFontService,sans-serif" font-weight="400" font-size="10.7023" transform="matrix(1 0 0 0.999772 853.383 126)">1</text><text font-family="Yu Gothic,Yu Gothic_MSFontService,sans-serif" font-weight="400" font-size="14.6607" transform="matrix(1 0 0 0.999772 825.031 200)">ф╗ошкм</text><text font-family="Cambria Math,Cambria Math_MSFontService,sans-serif" font-weight="400" font-size="10.7023" transform="matrix(1 0 0 0.999772 854.359 203)">2</text><text font-family="Yu Gothic,Yu Gothic_MSFontService,sans-serif" font-weight="400" font-size="14.6607" transform="matrix(1 0 0 0.999772 826.632 278)">ф╗ошкм</text><text font-family="Cambria Math,Cambria Math_MSFontService,sans-serif" font-weight="400" font-size="10.7023" transform="matrix(1 0 0 0.999772 855.96 281)">ЁЭСШ</text><text font-family="Calibri,Calibri_MSFontService,sans-serif" font-weight="400" font-size="23.9902" transform="matrix(1 0 0 0.999772 838.632 245)">:</text><path d="M777.5 232.947C777.5 155.921 806.378 93.4787 842 93.4787 877.622 93.4787 906.5 155.921 906.5 232.947 906.5 309.973 877.622 372.415 842 372.415 806.378 372.415 777.5 309.973 777.5 232.947Z" stroke="#172C51" stroke-width="1.33309" stroke-miterlimit="8" stroke-dasharray="5.33237 3.99928" fill="none" fill-rule="evenodd"/><text font-family="Yu Gothic,Yu Gothic_MSFontService,sans-serif" font-weight="400" font-size="14.6607" transform="matrix(1 0 0 0.999772 654.707 75)">ф╗ошкм</text><text font-family="Cambria Math,Cambria Math_MSFontService,sans-serif" font-weight="400" font-size="10.7023" transform="matrix(1 0 0 0.999772 684.035 78)">0</text><path d="M517 12.8304C517 9.05729 520.059 5.9986 523.833 5.9986L907.167 5.9986C910.941 5.9986 914 9.05729 914 12.8304L914 40.1575C914 43.9306 910.941 46.9893 907.167 46.9893L523.833 46.9893C520.059 46.9893 517 43.9306 517 40.1575Z" fill="#7030A0" fill-rule="evenodd" fill-opacity="0.101961"/><text fill="#7030A0" font-family="Calibri,Calibri_MSFontService,sans-serif" font-weight="700" font-size="14.6607" transform="matrix(1 0 0 0.999772 624.553 23)">Continual Learning(</text><text fill="#7030A0" font-family="Yu Gothic,Yu Gothic_MSFontService,sans-serif" font-weight="700" font-size="14.6607" transform="matrix(1 0 0 0.999772 743.365 23)">ч╢Щч╢Ъхнжч┐Т</text><text fill="#7030A0" font-family="Calibri,Calibri_MSFontService,sans-serif" font-weight="700" font-size="14.6607" transform="matrix(1 0 0 0.999772 802.021 23)">)</text><text fill="#7030A0" font-family="Calibri,Calibri_MSFontService,sans-serif" font-weight="700" font-size="14.6607" transform="matrix(1 0 0 0.999772 628.219 40)">Lifelong Learning (</text><text fill="#7030A0" font-family="Yu Gothic,Yu Gothic_MSFontService,sans-serif" font-weight="700" font-size="14.6607" transform="matrix(1 0 0 0.999772 739.699 40)">чФЯц╢пхнжч┐Т</text><text fill="#7030A0" font-family="Calibri,Calibri_MSFontService,sans-serif" font-weight="700" font-size="14.6607" transform="matrix(1 0 0 0.999772 798.355 40)">)</text><path d="M8.99995 12.8305C8.99995 9.05733 12.0594 5.9986 15.8334 5.9986L226.167 5.9986C229.941 5.9986 233 9.05733 233 12.8305L233 40.1572C233 43.9303 229.941 46.9891 226.167 46.9891L15.8334 46.9891C12.0594 46.9891 8.99995 43.9303 8.99995 40.1572Z" fill="#00B050" fill-rule="evenodd" fill-opacity="0.101961"/><text fill="#00B050" font-family="Calibri,Calibri_MSFontService,sans-serif" font-weight="700" font-size="14.6607" transform="matrix(1 0 0 0.999772 58.223 23)">Perspective</text><text fill="#00B050" font-family="Calibri,Calibri_MSFontService,sans-serif" font-weight="700" font-size="14.6607" transform="matrix(1 0 0 0.999772 132.21 23)">Learning</text><text fill="#00B050" font-family="Calibri,Calibri_MSFontService,sans-serif" font-weight="700" font-size="14.6607" transform="matrix(1 0 0 0.999772 87.4644 40)">(</text><text fill="#00B050" font-family="Yu Gothic,Yu Gothic_MSFontService,sans-serif" font-weight="700" font-size="14.6607" transform="matrix(1 0 0 0.999772 91.9636 40)">х▒ХцЬЫхнжч┐Т</text><text fill="#00B050" font-family="Calibri,Calibri_MSFontService,sans-serif" font-weight="700" font-size="14.6607" transform="matrix(1 0 0 0.999772 150.62 40)">)</text><path d="M77 115.474C77 102.498 96.6995 91.979 121 91.979 145.301 91.979 165 102.498 165 115.474 165 128.449 145.301 138.968 121 138.968 96.6995 138.968 77 128.449 77 115.474Z" fill="#00B050" fill-rule="evenodd" fill-opacity="0.101961"/><text fill="#00B050" font-family="Yu Gothic,Yu Gothic_MSFontService,sans-serif" font-weight="700" font-size="14.6607" transform="matrix(1 0 0 0.999772 106.312 112)">х▒ХцЬЫ</text><text fill="#00B050" font-family="Yu Gothic,Yu Gothic_MSFontService,sans-serif" font-weight="700" font-size="14.6607" transform="matrix(1 0 0 0.999772 98.9802 129)">хнжч┐ТхЩи</text><text font-family="Yu Gothic,Yu Gothic_MSFontService,sans-serif" font-weight="400" font-size="14.6607" transform="matrix(1 0 0 0.999772 11.6118 73)">хИЖх╕Г</text><text font-family="Cambria Math,Cambria Math_MSFontService,sans-serif" font-weight="400" font-size="10.7023" transform="matrix(1 0 0 0.999772 40.5999 77)">1</text><text font-family="Yu Gothic,Yu Gothic_MSFontService,sans-serif" font-weight="400" font-size="14.6607" transform="matrix(1 0 0 0.999772 11.4452 103)">хИЖх╕Г</text><text font-family="Cambria Math,Cambria Math_MSFontService,sans-serif" font-weight="400" font-size="10.7023" transform="matrix(1 0 0 0.999772 40.7732 107)">2</text><text font-family="Yu Gothic,Yu Gothic_MSFontService,sans-serif" font-weight="400" font-size="14.6607" transform="matrix(1 0 0 0.999772 11.1186 157)">хИЖх╕Г</text><text font-family="Cambria Math,Cambria Math_MSFontService,sans-serif" font-weight="400" font-size="10.7023" transform="matrix(1 0 0 0.999772 40.4466 160)">ЁЭСШ</text><text font-family="Calibri,Calibri_MSFontService,sans-serif" font-weight="400" font-size="23.9902" transform="matrix(1 0 0 0.999772 26.1994 134)">:</text><text font-family="Calibri,Calibri_MSFontService,sans-serif" font-weight="400" font-size="23.9902" transform="matrix(1 0 0 0.999772 56.6817 135)">:</text><path d="M54.5214 74.13 84.8338 92.6501 83.7911 94.3559 53.4786 75.8358ZM85.2604 89.3963 90 96.9779 81.0896 96.2198Z" fill="#00B050"/><path d="M58.2599 99.012 77.8237 104.278 77.3038 106.208 57.7401 100.942ZM77.3162 101.036 84 106.976 75.2368 108.758Z" fill="#00B050"/><path d="M0.62114-0.783179 24.3934 18.0706 23.1511 19.6369-0.62114 0.783179ZM25.2125 14.8929 28.9934 22.9947 20.2434 21.1583Z" fill="#00B050" transform="matrix(1.00023 0 0 -1 56 152.965)"/><text fill="#00B050" font-family="Yu Gothic,Yu Gothic_MSFontService,sans-serif" font-weight="400" font-size="14.6607" transform="matrix(1 0 0 0.999772 102.594 185)">ф╗ошкм</text><text fill="#00B050" font-family="Cambria Math,Cambria Math_MSFontService,sans-serif" font-weight="400" font-size="10.7023" transform="matrix(1 0 0 0.999772 131.922 179)">ЁЭС╗</text><path d="M120 138.968 120 161.298 118 161.298 118 138.968ZM122.999 159.965 119 167.962 115.001 159.965Z" fill="#00B050"/><text fill="#00B050" font-family="Yu Gothic,Yu Gothic_MSFontService,sans-serif" font-weight="400" font-size="14.6607" transform="matrix(1 0 0 0.999772 169.385 185)">ф╗ошкм</text><text fill="#00B050" font-family="Cambria Math,Cambria Math_MSFontService,sans-serif" font-weight="400" font-size="10.7023" transform="matrix(1 0 0 0.999772 198.713 188)">ЁЭСШ</text><text fill="#00B050" font-family="Cambria Math,Cambria Math_MSFontService,sans-serif" font-weight="400" font-size="10.7023" transform="matrix(1 0 0 0.999772 205.525 188)">+</text><text fill="#00B050" font-family="Cambria Math,Cambria Math_MSFontService,sans-serif" font-weight="400" font-size="10.7023" transform="matrix(1 0 0 0.999772 213.357 188)">1</text><text fill="#00B050" font-family="Yu Gothic,Yu Gothic_MSFontService,sans-serif" font-weight="400" font-size="14.6607" transform="matrix(1 0 0 0.999772 170.051 207)">ф╗ошкм</text><text fill="#00B050" font-family="Cambria Math,Cambria Math_MSFontService,sans-serif" font-weight="400" font-size="10.7023" transform="matrix(1 0 0 0.999772 199.38 210)">ЁЭСШ</text><text fill="#00B050" font-family="Cambria Math,Cambria Math_MSFontService,sans-serif" font-weight="400" font-size="10.7023" transform="matrix(1 0 0 0.999772 206.192 210)">+</text><text fill="#00B050" font-family="Cambria Math,Cambria Math_MSFontService,sans-serif" font-weight="400" font-size="10.7023" transform="matrix(1 0 0 0.999772 214.024 210)">2</text><path d="M142 178.959 161.335 178.959 161.335 180.959 142 180.959ZM160.001 175.961 168 179.959 160.001 183.957Z" fill="#00B050"/><path d="M118 188.957 118 201.954 117 200.954 161.335 200.954 161.335 202.954 116 202.954 116 188.957ZM160.001 197.956 168 201.954 160.001 205.952Z" fill="#00B050"/><path d="M118 202.954 118 210.951 116 210.951 116 202.954ZM118 216.948 118 221.949 117 220.95 119.996 220.95 119.996 222.949 116 222.949 116 216.948ZM125.995 220.95 133.994 220.95 133.994 222.949 125.995 222.949ZM139.992 220.95 147.991 220.95 147.991 222.949 139.992 222.949ZM153.99 220.95 161.335 220.95 161.335 222.949 153.99 222.949ZM160.001 217.951 168 221.949 160.001 225.948Z" fill="#00B050"/><text fill="#00B050" font-family="Yu Gothic,Yu Gothic_MSFontService,sans-serif" font-weight="400" font-size="14.6607" transform="matrix(1 0 0 0.999772 176.767 229)">я╜ея╜ея╜е</text><path d="M248 12.8304C248 9.05729 251.059 5.9986 254.833 5.9986L495.167 5.9986C498.941 5.9986 502 9.05729 502 12.8304L502 40.1575C502 43.9306 498.941 46.9893 495.167 46.9893L254.833 46.9893C251.059 46.9893 248 43.9306 248 40.1575Z" fill="#FEE7DC" fill-rule="evenodd"/><text fill="#ED2C1D" font-family="Calibri,Calibri_MSFontService,sans-serif" font-weight="700" font-size="14.6607" transform="matrix(1 0 0 0.999772 319.174 23)">Inductive</text><text fill="#ED2C1D" font-family="Calibri,Calibri_MSFontService,sans-serif" font-weight="700" font-size="14.6607" transform="matrix(1 0 0 0.999772 379.163 23)">Learning</text><text fill="#ED2C1D" font-family="Calibri,Calibri_MSFontService,sans-serif" font-weight="700" font-size="14.6607" transform="matrix(1 0 0 0.999772 341.424 40)">(</text><text fill="#ED2C1D" font-family="Yu Gothic,Yu Gothic_MSFontService,sans-serif" font-weight="700" font-size="14.6607" transform="matrix(1 0 0 0.999772 345.923 40)">х╕░ч┤Нхнжч┐Т</text><text fill="#ED2C1D" font-family="Calibri,Calibri_MSFontService,sans-serif" font-weight="700" font-size="14.6607" transform="matrix(1 0 0 0.999772 404.579 40)">)</text><path d="M330 86.4803C330 73.5045 343.208 62.9856 359.5 62.9856 375.792 62.9856 389 73.5045 389 86.4803 389 99.456 375.792 109.975 359.5 109.975 343.208 109.975 330 99.456 330 86.4803Z" fill="#D9D9D9" fill-rule="evenodd"/><text font-family="Yu Gothic,Yu Gothic_MSFontService,sans-serif" font-weight="400" font-size="14.6607" transform="matrix(1 0 0 0.999772 337.468 83)">уГЩуГ╝уВ╣</text><text font-family="Yu Gothic,Yu Gothic_MSFontService,sans-serif" font-weight="400" font-size="14.6607" transform="matrix(1 0 0 0.999772 337.468 100)">хнжч┐ТхЩи</text><text font-family="Yu Gothic,Yu Gothic_MSFontService,sans-serif" font-weight="400" font-size="14.6607" transform="matrix(1 0 0 0.999772 248.855 92)">хИЖх╕Г</text><text font-family="Cambria Math,Cambria Math_MSFontService,sans-serif" font-weight="400" font-size="10.7023" transform="matrix(1 0 0 0.999772 277.843 95)">1</text><path d="M288 85.9806 322.987 85.9807 322.987 87.9799 288 87.9798ZM321.653 82.9819 329.652 86.9803 321.653 90.9787Z" fill="#4472C4"/><text font-family="Yu Gothic,Yu Gothic_MSFontService,sans-serif" font-weight="400" font-size="14.6607" transform="matrix(1 0 0 0.999772 432.946 92)">ф╗ошкм</text><text font-family="Cambria Math,Cambria Math_MSFontService,sans-serif" font-weight="400" font-size="10.7023" transform="matrix(1 0 0 0.999772 461.934 95)">1</text><path d="M389 85.9806 422.784 85.9807 422.784 87.9799 389 87.9798ZM421.451 82.9819 429.45 86.9803 421.451 90.9787Z" fill="#4472C4"/><path d="M330 141.468C330 128.492 343.431 117.973 360 117.973 376.569 117.973 390 128.492 390 141.468 390 154.444 376.569 164.962 360 164.962 343.431 164.962 330 154.444 330 141.468Z" fill="#D9D9D9" fill-rule="evenodd"/><text font-family="Yu Gothic,Yu Gothic_MSFontService,sans-serif" font-weight="400" font-size="14.6607" transform="matrix(1 0 0 0.999772 338.271 138)">уГЩуГ╝уВ╣</text><text font-family="Yu Gothic,Yu Gothic_MSFontService,sans-serif" font-weight="400" font-size="14.6607" transform="matrix(1 0 0 0.999772 338.271 154)">хнжч┐ТхЩи</text><text font-family="Yu Gothic,Yu Gothic_MSFontService,sans-serif" font-weight="400" font-size="14.6607" transform="matrix(1 0 0 0.999772 249.491 146)">хИЖх╕Г</text><text font-family="Cambria Math,Cambria Math_MSFontService,sans-serif" font-weight="400" font-size="10.7023" transform="matrix(1 0 0 0.999772 278.819 149)">2</text><path d="M289 139.968 323.987 139.968 323.987 141.968 289 141.968ZM322.653 136.97 330.652 140.968 322.653 144.966Z" fill="#4472C4"/><text font-family="Yu Gothic,Yu Gothic_MSFontService,sans-serif" font-weight="400" font-size="14.6607" transform="matrix(1 0 0 0.999772 433.582 146)">ф╗ошкм</text><text font-family="Cambria Math,Cambria Math_MSFontService,sans-serif" font-weight="400" font-size="10.7023" transform="matrix(1 0 0 0.999772 462.91 149)">2</text><path d="M390 139.968 423.784 139.968 423.784 141.968 390 141.968ZM422.451 136.97 430.45 140.968 422.451 144.966Z" fill="#4472C4"/><path d="M332 206.453C332 193.477 345.431 182.958 362 182.958 378.569 182.958 392 193.477 392 206.453 392 219.429 378.569 229.948 362 229.948 345.431 229.948 332 219.429 332 206.453Z" fill="#D9D9D9" fill-rule="evenodd"/><text font-family="Yu Gothic,Yu Gothic_MSFontService,sans-serif" font-weight="400" font-size="14.6607" transform="matrix(1 0 0 0.999772 340.198 203)">уГЩуГ╝уВ╣</text><text font-family="Yu Gothic,Yu Gothic_MSFontService,sans-serif" font-weight="400" font-size="14.6607" transform="matrix(1 0 0 0.999772 340.198 220)">хнжч┐ТхЩи</text><text font-family="Yu Gothic,Yu Gothic_MSFontService,sans-serif" font-weight="400" font-size="14.6607" transform="matrix(1 0 0 0.999772 251.092 212)">хИЖх╕Г</text><text font-family="Cambria Math,Cambria Math_MSFontService,sans-serif" font-weight="400" font-size="10.7023" transform="matrix(1 0 0 0.999772 280.42 215)">ЁЭСШ</text><path d="M291 205.953 325.987 205.953 325.987 207.953 291 207.952ZM324.653 202.955 332.652 206.953 324.653 210.951Z" fill="#4472C4"/><text font-family="Yu Gothic,Yu Gothic_MSFontService,sans-serif" font-weight="400" font-size="14.6607" transform="matrix(1 0 0 0.999772 435.183 212)">ф╗ошкм</text><text font-family="Cambria Math,Cambria Math_MSFontService,sans-serif" font-weight="400" font-size="10.7023" transform="matrix(1 0 0 0.999772 464.511 215)">ЁЭСШ</text><path d="M392 205.953 425.784 205.953 425.784 207.953 392 207.952ZM424.451 202.955 432.45 206.953 424.451 210.951Z" fill="#4472C4"/><text font-family="Calibri,Calibri_MSFontService,sans-serif" font-weight="400" font-size="23.9902" transform="matrix(1 0 0 0.999772 264.701 179)">:</text><text font-family="Calibri,Calibri_MSFontService,sans-serif" font-weight="400" font-size="23.9902" transform="matrix(1 0 0 0.999772 446.766 178)">:</text><path d="M333 281.436C333 268.46 346.431 257.941 363 257.941 379.569 257.941 393 268.46 393 281.436 393 294.412 379.569 304.931 363 304.931 346.431 304.931 333 294.412 333 281.436Z" fill="#FEE7DC" fill-rule="evenodd"/><text fill="#ED2C1D" font-family="Yu Gothic,Yu Gothic_MSFontService,sans-serif" font-weight="700" font-size="14.6607" transform="matrix(1 0 0 0.999772 348.597 278)">х╕░ч┤Н</text><text fill="#ED2C1D" font-family="Yu Gothic,Yu Gothic_MSFontService,sans-serif" font-weight="700" font-size="14.6607" transform="matrix(1 0 0 0.999772 341.265 295)">хнжч┐ТхЩи</text><path d="M246 78.8155C246 73.9381 249.955 69.9841 254.833 69.9841L290.167 69.9841C295.045 69.9841 299 73.9381 299 78.8155L299 221.116C299 225.994 295.045 229.948 290.167 229.948L254.833 229.948C249.955 229.948 246 225.994 246 221.116Z" stroke="#EE3527" stroke-width="1.99964" stroke-miterlimit="8" fill="none" fill-rule="evenodd"/><path d="M420 77.8158C420 72.9383 423.955 68.9843 428.833 68.9843L464.166 68.9843C469.045 68.9843 473 72.9383 473 77.8158L473 221.116C473 225.994 469.045 229.948 464.166 229.948L428.833 229.948C423.955 229.948 420 225.994 420 221.116Z" stroke="#EE3527" stroke-width="1.99964" stroke-miterlimit="8" fill="none" fill-rule="evenodd"/><path d="M294.652 227.19 332.6 259.835 331.295 261.351 293.348 228.706ZM333.545 256.693 337 264.94 328.328 262.755Z" fill="#EE3527"/><path d="M0.643337-0.76505 39.533 31.9376 38.2463 33.4677-0.643337 0.76505ZM40.443 28.7847 43.99 36.9916 35.2963 34.9051Z" fill="#EE3527" transform="matrix(-1.00023 0 0 1 425 229.948)"/><text fill="#ED2C1D" font-family="Yu Gothic,Yu Gothic_MSFontService,sans-serif" font-weight="400" font-size="14.6607" transform="matrix(1 0 0 0.999772 346.79 350)">ф╗ошкм</text><text fill="#ED2C1D" font-family="Cambria Math,Cambria Math_MSFontService,sans-serif" font-weight="400" font-size="10.7023" transform="matrix(1 0 0 0.999772 376.118 345)">ЁЭС╗</text><path d="M365 301.931 365 325.26 363 325.26 363 301.931ZM367.999 323.928 364 331.924 360.001 323.928Z" fill="#EE3527"/><text fill="#ED2C1D" font-family="Yu Gothic,Yu Gothic_MSFontService,sans-serif" font-weight="400" font-size="14.6607" transform="matrix(1 0 0 0.999772 413.582 350)">ф╗ошкм</text><text fill="#ED2C1D" font-family="Cambria Math,Cambria Math_MSFontService,sans-serif" font-weight="400" font-size="10.7023" transform="matrix(1 0 0 0.999772 442.91 353)">ЁЭСШ</text><text fill="#ED2C1D" font-family="Cambria Math,Cambria Math_MSFontService,sans-serif" font-weight="400" font-size="10.7023" transform="matrix(1 0 0 0.999772 449.722 353)">+</text><text fill="#ED2C1D" font-family="Cambria Math,Cambria Math_MSFontService,sans-serif" font-weight="400" font-size="10.7023" transform="matrix(1 0 0 0.999772 457.554 353)">1</text><text fill="#ED2C1D" font-family="Yu Gothic,Yu Gothic_MSFontService,sans-serif" font-weight="400" font-size="14.6607" transform="matrix(1 0 0 0.999772 414.248 373)">ф╗ошкм</text><text fill="#ED2C1D" font-family="Cambria Math,Cambria Math_MSFontService,sans-serif" font-weight="400" font-size="10.7023" transform="matrix(1 0 0 0.999772 443.576 376)">ЁЭСШ</text><text fill="#ED2C1D" font-family="Cambria Math,Cambria Math_MSFontService,sans-serif" font-weight="400" font-size="10.7023" transform="matrix(1 0 0 0.999772 450.388 376)">+</text><text fill="#ED2C1D" font-family="Cambria Math,Cambria Math_MSFontService,sans-serif" font-weight="400" font-size="10.7023" transform="matrix(1 0 0 0.999772 458.22 376)">2</text><path d="M386 341.922 405.334 341.922 405.334 343.922 386 343.922ZM404.001 338.924 412 342.922 404.001 346.92Z" fill="#EE3527"/><path d="M362 352.92 362 365.917 361 364.917 405.334 364.917 405.334 366.916 360 366.916 360 352.92ZM404.001 361.918 412 365.917 404.001 369.915Z" fill="#EE3527"/><path d="M362 366.916 362 374.913 360 374.913 360 366.916ZM362 380.911 362 385.912 361 384.913 363.996 384.913 363.996 386.912 360 386.912 360 380.911ZM369.995 384.913 377.993 384.913 377.993 386.912 369.995 386.912ZM383.992 384.913 391.991 384.913 391.991 386.912 383.992 386.912ZM397.99 384.913 405.334 384.913 405.334 386.912 397.99 386.912ZM404.001 381.914 412 385.912 404.001 389.911Z" fill="#EE3527"/><text fill="#ED2C1D" font-family="Yu Gothic,Yu Gothic_MSFontService,sans-serif" font-weight="400" font-size="14.6607" transform="matrix(1 0 0 0.999772 420.964 394)">я╜ея╜ея╜е</text></g></svg>