<svg width="567" height="397" xmlns="http://www.w3.org/2000/svg" xmlns:xlink="http://www.w3.org/1999/xlink" overflow="hidden"><defs><clipPath id="clip0"><rect x="0" y="0" width="567" height="397"/></clipPath></defs><g clip-path="url(#clip0)"><rect x="0" y="0" width="567" height="397.167" fill="#FFFFFF"/><path d="M12 59.8585C12 54.4254 16.4026 50.021 21.8334 50.021L61.1666 50.021C66.5974 50.021 71 54.4254 71 59.8585L71 228.262C71 233.696 66.5974 238.1 61.1666 238.1L21.8334 238.1C16.4026 238.1 12 233.696 12 228.262Z" fill="#E2F0D9" fill-rule="evenodd"/><path d="M92 65.0699C92 57.8637 97.8394 52.0218 105.043 52.0218L220.957 52.0218C228.161 52.0218 234 57.8637 234 65.0699L234 227.053C234 234.259 228.161 240.101 220.957 240.101L105.043 240.101C97.8394 240.101 92 234.259 92 227.053Z" fill="#DEEBF7" fill-rule="evenodd"/><path d="M247 61.8278C247 57.5171 250.493 54.0227 254.802 54.0227L295.198 54.0227C299.507 54.0227 303 57.5171 303 61.8278L303 235.297C303 239.608 299.507 243.102 295.198 243.102L254.802 243.102C250.493 243.102 247 239.608 247 235.297Z" fill="#FFF2CC" fill-rule="evenodd"/><path d="M324 63.8287C324 59.518 327.493 56.0235 331.802 56.0235L372.198 56.0235C376.507 56.0235 380 59.518 380 63.8287L380 236.297C380 240.608 376.507 244.102 372.198 244.102L331.802 244.102C327.493 244.102 324 240.608 324 236.297Z" fill="#FBE5D6" fill-rule="evenodd"/><path d="M406 65.4396C406 59.1342 411.109 54.0227 417.412 54.0227L546.588 54.0227C552.891 54.0227 558 59.1342 558 65.4396L558 231.685C558 237.991 552.891 243.102 546.588 243.102L417.412 243.102C411.109 243.102 406 237.991 406 231.685Z" fill="#DAE3F3" fill-rule="evenodd"/><path d="M27.5001 110.546C27.5001 102.811 33.9919 96.5406 42.0001 96.5406 50.0082 96.5406 56.5001 102.811 56.5001 110.546 56.5001 118.282 50.0082 124.552 42.0001 124.552 33.9919 124.552 27.5001 118.282 27.5001 110.546Z" stroke="#172C51" stroke-width="1.33333" stroke-miterlimit="8" fill="none" fill-rule="evenodd"/><text font-family="Cambria Math,Cambria Math_MSFontService,sans-serif" font-weight="400" font-size="14.6728" transform="matrix(1 0 0 1.00042 32.2901 115)">𝒙</text><text font-family="Cambria Math,Cambria Math_MSFontService,sans-serif" font-weight="400" font-size="10.7112" transform="matrix(1 0 0 1.00042 40.7901 118)">𝟏</text><path d="M27.5001 177.074C27.5001 169.063 33.9919 162.568 42.0001 162.568 50.0082 162.568 56.5001 169.063 56.5001 177.074 56.5001 185.086 50.0082 191.58 42.0001 191.58 33.9919 191.58 27.5001 185.086 27.5001 177.074Z" stroke="#172C51" stroke-width="1.33333" stroke-miterlimit="8" fill="none" fill-rule="evenodd"/><text font-family="Cambria Math,Cambria Math_MSFontService,sans-serif" font-weight="400" font-size="14.6728" transform="matrix(1 0 0 1.00042 31.9567 182)">𝒙</text><text font-family="Cambria Math,Cambria Math_MSFontService,sans-serif" font-weight="400" font-size="10.7112" transform="matrix(1 0 0 1.00042 40.4567 185)">𝒏</text><path d="M107.5 82.0345C107.5 74.023 113.992 67.5284 122 67.5284 130.008 67.5284 136.5 74.023 136.5 82.0345 136.5 90.046 130.008 96.5406 122 96.5406 113.992 96.5406 107.5 90.046 107.5 82.0345Z" stroke="#172C51" stroke-width="1.33333" stroke-miterlimit="8" fill="none" fill-rule="evenodd"/><path d="M107.5 146.061C107.5 138.05 113.992 131.555 122 131.555 130.008 131.555 136.5 138.05 136.5 146.061 136.5 154.073 130.008 160.567 122 160.567 113.992 160.567 107.5 154.073 107.5 146.061Z" stroke="#172C51" stroke-width="1.33333" stroke-miterlimit="8" fill="none" fill-rule="evenodd"/><path d="M107.5 210.088C107.5 202.077 113.992 195.582 122 195.582 130.008 195.582 136.5 202.077 136.5 210.088 136.5 218.1 130.008 224.594 122 224.594 113.992 224.594 107.5 218.1 107.5 210.088Z" stroke="#172C51" stroke-width="1.33333" stroke-miterlimit="8" fill="none" fill-rule="evenodd"/><path d="M187.5 82.0345C187.5 74.023 193.768 67.5284 201.5 67.5284 209.232 67.5284 215.5 74.023 215.5 82.0345 215.5 90.046 209.232 96.5406 201.5 96.5406 193.768 96.5406 187.5 90.046 187.5 82.0345Z" stroke="#172C51" stroke-width="1.33333" stroke-miterlimit="8" fill="none" fill-rule="evenodd"/><path d="M187.5 146.061C187.5 138.05 193.768 131.555 201.5 131.555 209.232 131.555 215.5 138.05 215.5 146.061 215.5 154.073 209.232 160.567 201.5 160.567 193.768 160.567 187.5 154.073 187.5 146.061Z" stroke="#172C51" stroke-width="1.33333" stroke-miterlimit="8" fill="none" fill-rule="evenodd"/><path d="M187.5 210.088C187.5 202.077 193.768 195.582 201.5 195.582 209.232 195.582 215.5 202.077 215.5 210.088 215.5 218.1 209.232 224.594 201.5 224.594 193.768 224.594 187.5 218.1 187.5 210.088Z" stroke="#172C51" stroke-width="1.33333" stroke-miterlimit="8" fill="none" fill-rule="evenodd"/><path d="M263.5 110.546C263.5 102.811 269.992 96.5406 278 96.5406 286.008 96.5406 292.5 102.811 292.5 110.546 292.5 118.282 286.008 124.552 278 124.552 269.992 124.552 263.5 118.282 263.5 110.546Z" stroke="#172C51" stroke-width="1.33333" stroke-miterlimit="8" fill="none" fill-rule="evenodd"/><text font-family="Cambria Math,Cambria Math_MSFontService,sans-serif" font-weight="400" font-size="14.6728" transform="matrix(1 0 0 1.00042 267.346 115)">𝒖</text><text font-family="Cambria Math,Cambria Math_MSFontService,sans-serif" font-weight="400" font-size="10.7112" transform="matrix(1 0 0 1.00042 276.846 118)">𝟏</text><path d="M263.5 177.074C263.5 169.063 269.992 162.568 278 162.568 286.008 162.568 292.5 169.063 292.5 177.074 292.5 185.086 286.008 191.58 278 191.58 269.992 191.58 263.5 185.086 263.5 177.074Z" stroke="#172C51" stroke-width="1.33333" stroke-miterlimit="8" fill="none" fill-rule="evenodd"/><text font-family="Cambria Math,Cambria Math_MSFontService,sans-serif" font-weight="400" font-size="14.6728" transform="matrix(1 0 0 1.00042 265.513 182)">𝒖</text><text font-family="Cambria Math,Cambria Math_MSFontService,sans-serif" font-weight="400" font-size="10.7112" transform="matrix(1 0 0 1.00042 275.013 185)">𝒎</text><path d="M0.105017-0.316358 49.3987 16.047 49.1887 16.6797-0.105017 0.316358ZM49.2885 12.147 55.6209 18.4637 46.7681 19.7396Z" transform="matrix(1 0 0 -1.00042 52.5001 100.006)"/><path d="M56.638 110.243 106.19 132.783 105.914 133.39 56.3621 110.85ZM106.494 128.891 112.121 135.847 103.183 136.177Z"/><path d="M52.766 120.35 108.55 194.203 108.019 194.605 52.2341 120.752ZM110.672 190.927 112.304 199.725 104.289 195.753Z"/><path d="M0.260836-0.207547 55.9136 69.7346 55.392 70.1497-0.260836 0.207547ZM57.9526 66.4082 59.8037 75.1588 51.6925 71.3893Z" transform="matrix(1 0 0 -1.00042 52.5001 167.729)"/><path d="M0.1737-0.284499 45.9218 27.6469 45.5744 28.2159-0.1737 0.284499ZM46.6945 23.8226 51.4381 31.4054 42.5257 30.6505Z" transform="matrix(1 0 0 -1.00042 56.5001 176.98)"/><path d="M52.6248 187.27 102.063 207.229 101.814 207.848 52.3753 187.888ZM102.199 203.328 108.121 210.035 99.2053 210.75Z"/><path d="M136.5 81.2008 180.383 81.2009 180.383 81.8678 136.5 81.8678ZM179.049 77.5327 187.049 81.5344 179.049 85.536Z"/><path d="M132.699 92.2712 186.262 132.067 185.864 132.602 132.301 92.8066ZM187.377 128.326 191.415 136.311 182.608 134.752Z"/><path d="M132.792 92.3789 188.508 194.276 187.923 194.596 132.208 92.6989ZM191.085 191.346 191.415 200.287 184.066 195.186Z"/><path d="M0.19874-0.267607 53.7615 39.5111 53.3641 40.0463-0.19874 0.267607ZM54.8773 35.7724 58.915 43.7535 50.1075 42.195Z" transform="matrix(1 0 0 -1.00042 132.5 136.311)"/><path d="M136.5 145.228 180.383 145.228 180.383 145.895 136.5 145.895ZM179.049 141.56 187.049 145.561 179.049 149.563Z"/><path d="M132.734 155.328 182.714 204.524 182.246 205 132.266 155.803ZM184.335 200.974 187.232 209.44 178.724 206.679Z"/><path d="M0.277351-0.184899 65.5926 97.7887 65.0378 98.1585-0.277351 0.184899ZM67.9037 94.6453 69.0131 103.521 61.2473 99.0829Z" transform="matrix(1 0 0 -1.00042 132.5 200.105)"/><path d="M0.233783-0.237606 50.2139 48.9384 49.7463 49.4136-0.233783 0.237606ZM51.835 45.3896 54.7322 53.8517 46.2242 51.0921Z" transform="matrix(1 0 0 -1.00042 136.5 209.44)"/><path d="M136.5 209.255 180.383 209.255 180.383 209.922 136.5 209.922ZM179.049 205.586 187.049 209.588 179.049 213.59Z"/><path d="M215.611 81.22 261.394 97.4623 261.171 98.0909 215.389 81.8486ZM261.363 93.5593 267.566 100.006 258.689 101.102Z"/><path d="M211.766 92.3383 264.005 161.747 263.472 162.148 211.234 92.7395ZM266.132 158.475 267.749 167.276 259.741 163.289Z"/><path d="M0.145638-0.299835 46.2148 22.0772 45.9235 22.6768-0.145638 0.299835ZM46.6174 18.1964 52.0658 25.2898 43.1221 25.3925Z" transform="matrix(1 0 0 -1.00042 211.5 135.847)"/><path d="M215.681 145.281 257.965 172.625 257.603 173.186 215.319 145.841ZM258.836 168.821 263.383 176.526 254.493 175.542Z"/><path d="M0.2717-0.193107 52.6581 73.5143 52.1147 73.9005-0.2717 0.193107ZM54.8744 70.3033 56.2486 79.1414 48.3536 74.9379Z" transform="matrix(1 0 0 -1.00042 211.5 199.725)"/><path d="M0.1342-0.305125 46.0975 19.9105 45.8291 20.5208-0.1342 0.305125ZM46.3532 16.0173 52.0658 22.8996 43.1324 23.3403Z" transform="matrix(1 0 0 -1.00042 215.5 209.488)"/><path d="M339.5 82.0345C339.5 74.023 345.992 67.5284 354 67.5284 362.008 67.5284 368.5 74.023 368.5 82.0345 368.5 90.046 362.008 96.5406 354 96.5406 345.992 96.5406 339.5 90.046 339.5 82.0345Z" stroke="#172C51" stroke-width="1.33333" stroke-miterlimit="8" fill="none" fill-rule="evenodd"/><text font-family="Cambria Math,Cambria Math_MSFontService,sans-serif" font-weight="400" font-size="14.6728" transform="matrix(1 0 0 1.00042 344.208 87)">𝝏</text><text font-family="Cambria Math,Cambria Math_MSFontService,sans-serif" font-weight="400" font-size="10.7112" transform="matrix(1 0 0 1.00042 353.041 90)">𝒙</text><path d="M337.5 139.058C337.5 131.047 343.768 124.552 351.5 124.552 359.232 124.552 365.5 131.047 365.5 139.058 365.5 147.07 359.232 153.565 351.5 153.565 343.768 153.565 337.5 147.07 337.5 139.058Z" stroke="#172C51" stroke-width="1.33333" stroke-miterlimit="8" fill="none" fill-rule="evenodd"/><text font-family="Cambria Math,Cambria Math_MSFontService,sans-serif" font-weight="400" font-size="14.6728" transform="matrix(1 0 0 1.00042 341.344 143)">𝝏</text><text font-family="Cambria Math,Cambria Math_MSFontService,sans-serif" font-weight="400" font-size="10.7112" transform="matrix(1 0 0 1.00042 350.178 146)">𝒚</text><path d="M418.5 100.709C418.5 96.7493 421.709 93.5393 425.667 93.5393L535.333 93.5393C539.291 93.5393 542.5 96.7493 542.5 100.709L542.5 129.388C542.5 133.347 539.291 136.557 535.333 136.557L425.667 136.557C421.709 136.557 418.5 133.347 418.5 129.388Z" stroke="#172C51" stroke-width="1.33333" stroke-miterlimit="8" fill="none" fill-rule="evenodd"/><text font-family="Yu Gothic,Yu Gothic_MSFontService,sans-serif" font-weight="700" font-size="14.6728" transform="matrix(1 0 0 1.00042 436.304 120)">偏微分方程式</text><path d="M418.5 162.902C418.5 158.85 421.783 155.565 425.833 155.565L535.167 155.565C539.217 155.565 542.5 158.85 542.5 162.902L542.5 192.247C542.5 196.299 539.217 199.584 535.167 199.584L425.833 199.584C421.783 199.584 418.5 196.299 418.5 192.247Z" stroke="#172C51" stroke-width="1.33333" stroke-miterlimit="8" fill="none" fill-rule="evenodd"/><text font-family="Yu Gothic,Yu Gothic_MSFontService,sans-serif" font-weight="700" font-size="14.6728" transform="matrix(1 0 0 1.00042 450.971 183)">境界条件</text><path d="M337.5 212.589C337.5 204.854 343.768 198.583 351.5 198.583 359.232 198.583 365.5 204.854 365.5 212.589 365.5 220.325 359.232 226.595 351.5 226.595 343.768 226.595 337.5 220.325 337.5 212.589Z" stroke="#172C51" stroke-width="1.33333" stroke-miterlimit="8" fill="none" fill-rule="evenodd"/><text font-family="Cambria Math,Cambria Math_MSFontService,sans-serif" font-weight="400" font-size="14.6728" transform="matrix(1 0 0 1.00042 338.178 217)">𝝏</text><text font-family="Cambria Math,Cambria Math_MSFontService,sans-serif" font-weight="400" font-size="10.7112" transform="matrix(1 0 0 1.00042 347.011 220)">𝒚𝒚</text><text font-family="Calibri,Calibri_MSFontService,sans-serif" font-weight="700" font-size="14.6728" transform="matrix(1 0 0 1.00042 348.898 175)">:</text><path d="M0.11141-0.314164 45.8939 15.9214 45.6711 16.5497-0.11141 0.314164ZM45.8628 12.0199 52.0658 18.4637 43.189 19.5599Z" transform="matrix(1 0 0 -1.00042 287.5 100.006)"/><path d="M292.617 110.234 335.66 126.366 335.426 126.99 292.383 110.859ZM335.697 122.463 341.786 129.018 332.891 129.958Z"/><path d="M287.779 120.368 337.606 196.789 337.047 197.154 287.221 120.733ZM339.948 193.668 340.969 202.558 333.248 198.04Z"/><path d="M0.266291-0.2005 52.5049 69.1792 51.9723 69.5802-0.266291 0.2005ZM54.6321 65.9085 56.2486 74.7055 48.2411 70.7205Z" transform="matrix(1 0 0 -1.00042 287.5 167.276)"/><path d="M0.214037-0.255537 40.2062 33.2418 39.7781 33.7529-0.214037 0.255537ZM41.5384 29.5747 45.1029 37.7781 36.4015 35.7076Z" transform="matrix(1 0 0 -1.00042 292.5 177.353)"/><path d="M287.654 186.283 331.03 208.938 330.722 209.529 287.346 186.874ZM331.545 205.069 336.786 212.32 327.843 212.163Z"/><path d="M368.683 81.2556 413.581 110.763 413.215 111.321 368.317 81.813ZM414.48 106.965 418.97 114.704 410.087 113.654Z"/><path d="M0.0782498-0.324019 51.0303 11.9808 50.8738 12.6288-0.0782498 0.324019ZM50.595 8.1036 57.4324 13.8698 48.717 15.88Z" transform="matrix(1 0 0 -1.00042 361.5 129.424)"/><path d="M0.278645-0.182943 54.0523 81.721 53.495 82.0869-0.278645 0.182943ZM56.3855 78.5939 57.4324 87.4767 49.6981 82.9846Z" transform="matrix(1 0 0 -1.00042 361.5 203.062)"/><path d="M365.696 139.289 413.558 174.179 413.165 174.718 365.304 139.828ZM414.64 170.428 418.75 178.376 409.928 176.897Z"/><path d="M364.781 92.3598 415.853 172.597 415.29 172.955 364.219 92.718ZM418.229 169.501 419.152 178.402 411.481 173.8Z"/><path d="M0.182376-0.279016 47.8517 30.8795 47.487 31.4375-0.182376 0.279016ZM48.7418 27.0808 53.2497 34.806 44.3648 33.7772Z" transform="matrix(1 0 0 -1.00042 365.5 212.395)"/><text fill="#548235" font-family="Yu Gothic,Yu Gothic_MSFontService,sans-serif" font-weight="700" font-size="14.6728" transform="matrix(1 0 0 1.00042 18.7289 26)">定義域</text><text fill="#548235" font-family="Yu Gothic,Yu Gothic_MSFontService,sans-serif" font-weight="700" font-size="14.6728" transform="matrix(1 0 0 1.00042 26.0623 43)">変数</text><text fill="#2E75B6" font-family="Yu Gothic,Yu Gothic_MSFontService,sans-serif" font-weight="700" font-size="14.6728" transform="matrix(1 0 0 1.00042 124.951 27)">ターゲット</text><text fill="#2E75B6" font-family="Yu Gothic,Yu Gothic_MSFontService,sans-serif" font-weight="700" font-size="14.6728" transform="matrix(1 0 0 1.00042 146.951 44)">関数</text><text fill="#BF9000" font-family="Yu Gothic,Yu Gothic_MSFontService,sans-serif" font-weight="700" font-size="14.6728" transform="matrix(1 0 0 1.00042 249.361 29)">デザイン</text><text fill="#BF9000" font-family="Yu Gothic,Yu Gothic_MSFontService,sans-serif" font-weight="700" font-size="14.6728" transform="matrix(1 0 0 1.00042 264.028 46)">変数</text><text fill="#C55A11" font-family="Yu Gothic,Yu Gothic_MSFontService,sans-serif" font-weight="700" font-size="14.6728" transform="matrix(1 0 0 1.00042 335.173 29)">自動</text><text fill="#C55A11" font-family="Yu Gothic,Yu Gothic_MSFontService,sans-serif" font-weight="700" font-size="14.6728" transform="matrix(1 0 0 1.00042 335.173 46)">微分</text><text fill="#2F5597" font-family="Yu Gothic,Yu Gothic_MSFontService,sans-serif" font-weight="700" font-size="14.6728" transform="matrix(1 0 0 1.00042 467.416 29)">物理</text><text fill="#2F5597" font-family="Yu Gothic,Yu Gothic_MSFontService,sans-serif" font-weight="700" font-size="14.6728" transform="matrix(1 0 0 1.00042 467.416 46)">損失</text><path d="M235.5 293.79C235.5 290.383 238.261 287.621 241.667 287.621L317.333 287.621C320.739 287.621 323.5 290.383 323.5 293.79L323.5 318.467C323.5 321.874 320.739 324.636 317.333 324.636L241.667 324.636C238.261 324.636 235.5 321.874 235.5 318.467Z" stroke="#172C51" stroke-width="1.33333" stroke-miterlimit="8" fill="none" fill-rule="evenodd"/><text font-family="Yu Gothic,Yu Gothic_MSFontService,sans-serif" font-weight="700" font-size="14.6728" transform="matrix(1 0 0 1.00042 249.361 311)">損失関数</text><path d="M129.5 304.128 165.5 285.62 201.5 304.128 165.5 322.635Z" stroke="#172C51" stroke-width="1.33333" stroke-miterlimit="8" fill="none" fill-rule="evenodd"/><text font-family="Calibri,Calibri_MSFontService,sans-serif" font-weight="700" font-size="14.6728" transform="matrix(1 0 0 1.00042 157.984 309)">&lt;ε</text><text font-family="Calibri,Calibri_MSFontService,sans-serif" font-weight="700" font-size="14.6728" transform="matrix(1 0 0 1.00042 106.098 297)">No</text><text font-family="Calibri,Calibri_MSFontService,sans-serif" font-weight="700" font-size="14.6728" transform="matrix(1 0 0 1.00042 172.912 341)">Yes</text><text font-family="Yu Gothic,Yu Gothic_MSFontService,sans-serif" font-weight="700" font-size="14.6728" transform="matrix(1 0 0 1.00042 47.67 296)">反復</text><text font-family="Yu Gothic,Yu Gothic_MSFontService,sans-serif" font-weight="700" font-size="14.6728" transform="matrix(1 0 0 1.00042 148.995 378)">完了</text><path d="M481.167 243.602 481.167 306.295 325.82 306.295 325.82 304.961 480.5 304.961 479.833 305.628 479.833 243.602ZM333.484 310.873 324.497 305.628 333.484 300.384C333.802 300.198 334.21 300.306 334.396 300.624 334.581 300.942 334.474 301.35 334.156 301.536L326.156 306.204 326.156 305.052 334.156 309.721C334.474 309.906 334.581 310.315 334.396 310.633 334.21 310.951 333.802 311.059 333.484 310.873Z" fill="#172C51"/><path d="M235.5 307.296 203.82 307.296 203.82 305.962 235.5 305.962ZM211.484 311.874 202.497 306.629 211.484 301.384C211.802 301.198 212.21 301.306 212.396 301.624 212.581 301.942 212.474 302.351 212.156 302.536L204.156 307.205 204.156 306.053 212.156 310.721C212.474 310.907 212.581 311.315 212.396 311.633 212.21 311.952 211.802 312.059 211.484 311.874Z" fill="#172C51"/><path d="M129.5 304.294 42.8334 304.294 42.8334 242.922 44.1667 242.922 44.1667 303.628 43.5001 302.961 129.5 302.961ZM38.2575 250.589 43.5001 241.598 48.7426 250.589C48.9281 250.908 48.8207 251.316 48.5026 251.501 48.1846 251.687 47.7764 251.58 47.5909 251.261L42.9242 243.258 44.0759 243.258 39.4092 251.261C39.2237 251.58 38.8155 251.687 38.4975 251.501 38.1794 251.316 38.072 250.908 38.2575 250.589Z" fill="#172C51"/><path d="M165.167 321.635 165.167 357.33 163.833 357.33 163.833 321.635ZM169.743 349.663 164.5 358.654 159.258 349.663C159.072 349.345 159.179 348.936 159.497 348.751 159.816 348.565 160.224 348.672 160.409 348.991L165.076 356.994 163.924 356.994 168.591 348.991C168.776 348.672 169.185 348.565 169.503 348.751 169.821 348.936 169.928 349.345 169.743 349.663Z" fill="#172C51"/><path d="M276.167 241.601 276.167 246.937 274.833 246.937 274.833 241.601ZM276.167 250.939 276.167 256.274 274.833 256.274 274.833 250.939ZM276.167 260.276 276.167 265.612 274.833 265.612 274.833 260.276ZM276.167 269.613 276.167 274.949 274.833 274.949 274.833 269.613ZM276.167 278.951 276.167 284.286 274.833 284.286 274.833 278.951ZM280.743 278.633 275.5 287.624 270.258 278.633C270.072 278.315 270.179 277.906 270.497 277.721 270.816 277.535 271.224 277.643 271.409 277.961L276.076 285.964 274.924 285.964 279.591 277.961C279.776 277.643 280.185 277.535 280.503 277.721 280.821 277.906 280.928 278.315 280.743 278.633Z" fill="#172C51"/><path d="M283.527 387.663 286.122 377.28 296.5 374.684 283.527 387.663 247.5 387.663 247.5 358.651 296.5 358.651 296.5 374.684" stroke="#172C51" stroke-width="1.33333" stroke-miterlimit="8" stroke-dasharray="5.33333 4" fill="none" fill-rule="evenodd"/><text font-family="Yu Gothic,Yu Gothic_MSFontService,sans-serif" font-weight="700" font-size="14.6728" transform="matrix(1 0 0 1.00042 256.989 377)">正解</text><path d="M274.833 358.651 274.833 353.315 276.167 353.315 276.167 358.651ZM274.833 349.313 274.833 343.978 276.167 343.978 276.167 349.313ZM274.833 339.976 274.833 334.641 276.167 334.641 276.167 339.976ZM274.833 330.639 274.833 325.303 276.167 325.303 276.167 330.639ZM270.258 331.623 275.5 322.632 280.743 331.623C280.928 331.942 280.821 332.35 280.503 332.536 280.185 332.721 279.776 332.614 279.591 332.295L274.924 324.292 276.076 324.292 271.409 332.295C271.224 332.614 270.816 332.721 270.497 332.536 270.179 332.35 270.072 331.942 270.258 331.623Z" fill="#172C51"/><text font-family="Calibri,Calibri_MSFontService,sans-serif" font-weight="700" font-size="14.6728" transform="matrix(1 0 0 1.00042 274.552 148)">:</text><text font-family="Calibri,Calibri_MSFontService,sans-serif" font-weight="700" font-size="14.6728" transform="matrix(1 0 0 1.00042 39.4133 148)">:</text></g></svg>