<svg width="491" height="302" xmlns="http://www.w3.org/2000/svg" xmlns:xlink="http://www.w3.org/1999/xlink" overflow="hidden"><g><rect x="0" y="0" width="491" height="301.872" fill="#FFFFFF"/><path d="M349 40.7507C349 35.3583 353.373 30.9868 358.768 30.9868L454.232 30.9868C459.627 30.9868 464 35.3583 464 40.7507L464 234.133C464 239.525 459.627 243.896 454.232 243.896L358.768 243.896C353.373 243.896 349 239.525 349 234.133Z" stroke="#000000" stroke-width="1.99864" stroke-miterlimit="8" fill="#DCF0FE" fill-rule="evenodd"/><path d="M209 46.5729C209 40.1731 214.19 34.9851 220.593 34.9851L311.407 34.9851C317.81 34.9851 323 40.1731 323 46.5729L323 228.31C323 234.71 317.81 239.898 311.407 239.898L220.593 239.898C214.19 239.898 209 234.71 209 228.31Z" fill="#EAF1F7" fill-rule="evenodd"/><path d="M8.00003 132.752C8.00003 123.473 15.5253 115.951 24.8082 115.951L105.192 115.951C114.475 115.951 122 123.473 122 132.752L122 217.1C122 226.379 114.475 233.901 105.192 233.901L24.8082 233.901C15.5253 233.901 8.00003 226.379 8.00003 217.1Z" fill="#EAF1F7" fill-rule="evenodd"/><text font-family="Yu Gothic,Yu Gothic_MSFontService,sans-serif" font-weight="700" font-size="14.6505" transform="matrix(1 0 0 0.999576 35.9975 171)">ノイズの</text><text font-family="Yu Gothic,Yu Gothic_MSFontService,sans-serif" font-weight="700" font-size="14.6505" transform="matrix(1 0 0 0.999576 35.9975 188)">ある画像</text><path d="M178.397 117.95C181.492 117.95 184 120.457 184 123.55L184 226.301C184 229.394 181.492 231.901 178.397 231.901L151.603 231.901C148.508 231.901 146 229.394 146 226.301L146 123.55C146 120.457 148.508 117.95 151.603 117.95Z" fill="#EAF1F7" fill-rule="evenodd"/><text font-family="Calibri,Calibri_MSFontService,sans-serif" font-weight="700" font-size="14.6505" transform="matrix(6.12323e-17 0.999151 -1.00042 6.12064e-17 159.737 120)">16</text><text font-family="Yu Gothic,Yu Gothic_MSFontService,sans-serif" font-weight="700" font-size="14.6505" transform="matrix(6.12323e-17 0.999151 -1.00042 6.12064e-17 159.737 135)">×</text><text font-family="Calibri,Calibri_MSFontService,sans-serif" font-weight="700" font-size="14.6505" transform="matrix(6.12323e-17 0.999151 -1.00042 6.12064e-17 159.737 149)">16</text><text font-family="Yu Gothic,Yu Gothic_MSFontService,sans-serif" font-weight="700" font-size="14.6505" transform="matrix(6.12323e-17 0.999151 -1.00042 6.12064e-17 159.737 168)">パッチ</text><text font-family="Yu Gothic,Yu Gothic_MSFontService,sans-serif" font-weight="700" font-size="14.6505" transform="matrix(6.12323e-17 0.999151 -1.00042 6.12064e-17 159.737 215)">化</text><path d="M113 261.607C113 259.002 115.112 256.891 117.718 256.891L222.282 256.891C224.888 256.891 227 259.002 227 261.607L227 284.161C227 286.766 224.888 288.877 222.282 288.877L117.718 288.877C115.112 288.877 113 286.766 113 284.161Z" fill="#EAF1F7" fill-rule="evenodd"/><text font-family="Calibri,Calibri_MSFontService,sans-serif" font-weight="700" font-size="14.6505" transform="matrix(1 0 0 0.999576 124.345 278)">1</text><text font-family="Yu Gothic,Yu Gothic_MSFontService,sans-serif" font-weight="700" font-size="14.6505" transform="matrix(1 0 0 0.999576 131.84 278)">×</text><text font-family="Calibri,Calibri_MSFontService,sans-serif" font-weight="700" font-size="14.6505" transform="matrix(1 0 0 0.999576 146.497 278)">1</text><text font-family="Yu Gothic,Yu Gothic_MSFontService,sans-serif" font-weight="700" font-size="14.6505" transform="matrix(1 0 0 0.999576 157.323 278)">パッチ化</text><path d="M245 65.1327C245 62.2839 247.31 59.9745 250.16 59.9745L285.84 59.9745C288.69 59.9745 291 62.2839 291 65.1327L291 89.8015C291 92.6503 288.69 94.9597 285.84 94.9597L250.16 94.9597C247.31 94.9597 245 92.6503 245 89.8015Z" stroke="#000000" stroke-width="1.99864" stroke-miterlimit="8" fill="#E1EBE0" fill-rule="evenodd"/><path d="M380 65.1327C380 62.2839 382.31 59.9745 385.16 59.9745L421.84 59.9745C424.69 59.9745 427 62.2839 427 65.1327L427 89.8014C427 92.6502 424.69 94.9596 421.84 94.9596L385.16 94.9596C382.31 94.9596 380 92.6502 380 89.8014Z" stroke="#000000" stroke-width="1.99864" stroke-miterlimit="8" fill="#E1EBE0" fill-rule="evenodd"/><path d="M245 182.083C245 179.234 247.31 176.925 250.16 176.925L285.84 176.925C288.69 176.925 291 179.234 291 182.083L291 206.752C291 209.601 288.69 211.91 285.84 211.91L250.16 211.91C247.31 211.91 245 209.601 245 206.752Z" stroke="#000000" stroke-width="1.99864" stroke-miterlimit="8" fill="#C1D3FB" fill-rule="evenodd"/><path d="M380 184.082C380 181.233 382.31 178.924 385.16 178.924L421.84 178.924C424.69 178.924 427 181.233 427 184.082L427 208.751C427 211.6 424.69 213.909 421.84 213.909L385.16 213.909C382.31 213.909 380 211.6 380 208.751Z" stroke="#000000" stroke-width="1.99864" stroke-miterlimit="8" fill="#C1D3FB" fill-rule="evenodd"/><text font-family="Calibri,Calibri_MSFontService,sans-serif" font-weight="700" font-size="14.6505" transform="matrix(1 0 0 0.999576 227.535 31)">DiT</text><text font-family="Yu Gothic,Yu Gothic_MSFontService,sans-serif" font-weight="700" font-size="14.6505" transform="matrix(1 0 0 0.999576 247.688 31)">ブロック</text><text font-family="Yu Gothic,Yu Gothic_MSFontService,sans-serif" font-weight="700" font-size="14.6505" transform="matrix(1 0 0 0.999576 254.05 56)">条件</text><text font-family="Yu Gothic,Yu Gothic_MSFontService,sans-serif" font-weight="700" font-size="14.6505" transform="matrix(1 0 0 0.999576 93.4661 74)">時間ステップと</text><text font-family="Yu Gothic,Yu Gothic_MSFontService,sans-serif" font-weight="700" font-size="14.6505" transform="matrix(1 0 0 0.999576 93.4661 91)">クラス埋め込み</text><text font-family="Calibri,Calibri_MSFontService,sans-serif" font-weight="700" font-size="14.6505" transform="matrix(1 0 0 0.999576 232.227 140)">AdaLN</text><text font-family="Calibri,Calibri_MSFontService,sans-serif" font-weight="700" font-size="14.6505" transform="matrix(1 0 0 0.999576 271.867 140)">-</text><text font-family="Calibri,Calibri_MSFontService,sans-serif" font-weight="700" font-size="14.6505" transform="matrix(1 0 0 0.999576 276.364 140)">Zero</text><text font-family="Calibri,Calibri_MSFontService,sans-serif" font-weight="700" font-size="14.6505" transform="matrix(1 0 0 0.999576 227.897 229)">SemanticToken</text><text font-family="Calibri,Calibri_MSFontService,sans-serif" font-weight="700" font-size="14.6505" transform="matrix(1 0 0 0.999576 371.637 231)">Pixel Token</text><text font-family="Yu Gothic,Yu Gothic_MSFontService,sans-serif" font-weight="700" font-size="14.6505" transform="matrix(1 0 0 0.999576 251.005 257)">×</text><text font-family="Calibri,Calibri_MSFontService,sans-serif" font-weight="700" font-size="14.6505" transform="matrix(1 0 0 0.999576 265.662 257)">N</text><text font-family="Yu Gothic,Yu Gothic_MSFontService,sans-serif" font-weight="700" font-size="14.6505" transform="matrix(1 0 0 0.999576 390.655 260)">×</text><text font-family="Calibri,Calibri_MSFontService,sans-serif" font-weight="700" font-size="14.6505" transform="matrix(1 0 0 0.999576 405.312 260)">M</text><text font-family="Calibri,Calibri_MSFontService,sans-serif" font-weight="700" font-size="14.6505" transform="matrix(1 0 0 0.999576 367.552 141)">AdaLN</text><text font-family="Calibri,Calibri_MSFontService,sans-serif" font-weight="700" font-size="14.6505" transform="matrix(1 0 0 0.999576 407.191 141)">-</text><text font-family="Calibri,Calibri_MSFontService,sans-serif" font-weight="700" font-size="14.6505" transform="matrix(1 0 0 0.999576 411.688 141)">Zero</text><path d="M0-0.998897 39.6335-0.998897 39.6335 41.073 37.6357 41.073 37.6357 0 38.6346 0.998897 0 0.998897ZM42.6302 39.7411 38.6346 47.7323 34.639 39.7411Z" transform="matrix(1.83775e-16 1 1.00042 -1.83697e-16 64.9999 233.901)"/><path d="M0-0.998897 108.489-0.998897 108.489 76.6133 107.491 75.6144 146.176 75.6144 146.176 77.6122 106.492 77.6122 106.492 0 107.491 0.998897 0 0.998897ZM144.844 72.6177 152.835 76.6133 144.844 80.6089Z" transform="matrix(1.00042 0 0 -1 227 272.53)"/><path d="M122 172.927 138.94 172.927 138.94 174.925 122 174.925ZM137.607 169.931 145.602 173.926 137.607 177.922Z"/><path d="M184 173.927 215.468 173.927 215.468 194.297 214.469 193.298 238.275 193.298 238.275 195.296 213.469 195.296 213.469 174.926 214.469 175.925 184 175.925ZM236.943 190.301 244.937 194.297 236.943 198.292Z"/><path d="M0.0799554-0.995692 4.31181-0.655869 8.57621 0.350167 12.7564 1.96648 16.8204 4.14486 20.7381 6.83889 24.4795 10.0037 28.0148 13.5957 31.326 17.5872 37.0686 26.4913 39.479 31.3848 41.5183 36.4773 43.1622 41.7443 44.378 47.144 45.1323 52.6344 45.3891 58.1258 45.6438 63.5724 45.6356 63.4831 46.3779 68.8871 46.3628 68.8036 47.5604 74.1224 47.5394 74.0441 49.1597 79.2351 49.1335 79.1614 51.1438 84.1819 51.1126 84.1118 53.4807 88.9193 53.424 88.8193 59.103 97.6247 59.0323 97.5283 62.2782 101.441 62.2214 101.378 65.6948 104.907 65.628 104.845 69.2966 107.949 69.2175 107.888 73.0486 110.523 72.9545 110.465 76.9157 112.589 76.804 112.537 80.8628 114.107 80.6723 114.054 82.3706 114.347 82.0311 116.316 80.2349 116.006 76.0261 114.378 71.9621 112.2 68.0444 109.506 64.303 106.341 60.7677 102.749 57.4565 98.7578 51.7139 89.8537 49.3035 84.9602 47.2643 79.8677 45.6203 74.6007 44.4045 69.201 43.6502 63.7105 43.3935 58.2191 43.1388 52.7726 43.147 52.8619 42.4046 47.4579 42.4197 47.5414 41.2221 42.2226 41.2431 42.3008 39.6229 37.1099 39.6491 37.1836 37.6387 32.1631 37.6699 32.2332 35.3019 27.4257 35.3585 27.5257 29.6795 18.7203 29.7502 18.8167 26.5043 14.9039 26.5612 14.9669 23.0877 11.4376 23.1545 11.4996 19.4859 8.39636 19.5651 8.45679 15.7339 5.82227 15.828 5.8796 11.8668 3.75636 11.9785 3.80764 7.91977 2.23829 8.05065 2.27882 3.9269 1.30596 4.07631 1.32945-0.0799554 0.995692ZM81.4927 111.179 88.7825 116.345 80.2762 119.078Z" transform="matrix(1.00042 0 0 -1 291 194.312)"/><path d="M0.0126787-0.998817 30.3991-0.6131 30.3737 1.38453-0.0126787 0.998817ZM29.1054-3.62646 37.0452 0.470242 29.004 4.36408Z" transform="matrix(1.00042 0 0 -1 208 78.4371)"/><path d="M268.999 94.9596 268.999 120.812 267.001 120.812 267.001 94.9596ZM271.997 119.48 268 127.472 264.003 119.48Z"/><path d="M0.998897-3.22206e-06 0.998981 25.8526-0.998814 25.8526-0.998897 3.22206e-06ZM3.99567 24.5207 0.000104871 32.5119-3.99551 24.5208Z" transform="matrix(-1.00042 0 0 1 268 143.939)"/><text font-family="Yu Gothic,Yu Gothic_MSFontService,sans-serif" font-weight="700" font-size="14.6505" transform="matrix(1 0 0 0.999576 387.671 56)">条件</text><text font-family="Calibri,Calibri_MSFontService,sans-serif" font-weight="700" font-size="14.6505" transform="matrix(1 0 0 0.999576 372.582 26)">PiT</text><text font-family="Yu Gothic,Yu Gothic_MSFontService,sans-serif" font-weight="700" font-size="14.6505" transform="matrix(1 0 0 0.999576 391.402 26)">ブロック</text><path d="M404.999 94.9596 404.999 120.812 403.001 120.812 403.001 94.9596ZM407.997 119.48 404 127.472 400.003 119.48Z"/><path d="M403.999 145.938 403.999 171.791 402.001 171.791 402.001 145.938ZM406.997 170.459 403 178.45 399.003 170.459Z"/><path d="M427 195.918 475.409 195.918 475.409 197.915 427 197.915ZM474.077 192.921 482.071 196.917 474.077 200.912Z"/></g></svg>