<svg width="314" height="113" xmlns="http://www.w3.org/2000/svg" xmlns:xlink="http://www.w3.org/1999/xlink" overflow="hidden"><g><rect x="0" y="0" width="314" height="112.548" fill="#FFFFFF"/><path d="M52.8327 97.1101 52.8327 14.7621 54.1674 14.7621 54.1674 97.1101ZM48.252 22.4037 53.5 13.4429 58.7481 22.4037C58.9339 22.7208 58.8263 23.1278 58.5079 23.3128 58.1896 23.4977 57.7809 23.3906 57.5952 23.0735L52.9236 15.097 54.0765 15.097 49.4049 23.0735C49.2192 23.3906 48.8105 23.4977 48.4922 23.3128 48.1738 23.1278 48.0662 22.7208 48.252 22.4037Z"/><path d="M53.5 96.4454 228.179 96.4454 228.179 97.7748 53.5 97.7748ZM220.506 91.883 229.503 97.1101 220.506 102.337C220.188 102.522 219.779 102.415 219.594 102.098 219.408 101.781 219.515 101.374 219.834 101.189L227.842 96.5359 227.842 97.6842 219.834 93.0313C219.515 92.8463 219.408 92.4393 219.594 92.1222 219.779 91.8051 220.188 91.698 220.506 91.883Z"/><path d="M64.5 17.4301C64.6046 42.3944 94.7043 45.999 114.593 47.0906 115.301 66.8541 145.366 68.3989 174.154 68.6873 176.867 85.1894 206.385 84.7294 222.5 86.154" stroke="#000000" stroke-width="1.33475" stroke-miterlimit="8" fill="none" fill-rule="evenodd"/><text font-family="Yu Gothic,Yu Gothic_MSFontService,sans-serif" font-weight="400" font-size="14.6235" transform="matrix(1 0 0 0.996 15.2607 67)">誤差</text><text font-family="Yu Gothic,Yu Gothic_MSFontService,sans-serif" font-weight="400" font-size="14.6235" transform="matrix(1 0 0 0.996 237.282 102)">学習回数</text><text font-family="Yu Gothic,Yu Gothic_MSFontService,sans-serif" font-weight="400" font-size="14.6235" transform="matrix(1 0 0 0.996 178.687 29)">プラトー</text><path d="M98.3679 38.6527 169.398 23.914 169.602 24.8901 98.5721 39.6288ZM107.104 42.5418 97.4978 39.3425 105.023 32.5884C105.228 32.4041 105.544 32.4205 105.729 32.625 105.915 32.8295 105.898 33.1447 105.693 33.3291L98.8053 39.511 98.629 38.6679 107.422 41.5962C107.684 41.6835 107.826 41.966 107.738 42.2271 107.65 42.4882 107.367 42.6291 107.104 42.5418Z"/><path d="M151.44 64.1338 169.042 24.2016 169.958 24.6024 152.357 64.5346ZM159.69 59.3041 151.499 65.2401 150.343 55.217C150.311 54.9435 150.508 54.6963 150.783 54.6649 151.058 54.6334 151.306 54.8297 151.337 55.1032L152.396 64.2773 151.604 63.9311 159.101 58.4979C159.324 58.3359 159.637 58.3851 159.8 58.6077 159.963 58.8303 159.913 59.1421 159.69 59.3041Z"/><path d="M-0.00467044 58.6546 29.434-0.222949 30.3258 0.222949 0.887126 59.1005ZM8.44316 54.2408-0.00103329 59.7621-0.650587 49.694C-0.668314 49.4192-0.459948 49.1821-0.185189 49.1644 0.0895704 49.1467 0.326677 49.355 0.344403 49.6298L0.938934 58.845 0.168619 58.4599 7.89752 53.4063C8.12797 53.2557 8.43692 53.3203 8.5876 53.5508 8.73827 53.7812 8.6736 54.0902 8.44316 54.2408Z" transform="matrix(-1.00402 0 0 1 199.5 24.402)"/></g></svg>