<svg width="416" height="227" xmlns="http://www.w3.org/2000/svg" xmlns:xlink="http://www.w3.org/1999/xlink" overflow="hidden"><g><rect x="0" y="0" width="416" height="226.985" fill="#FFFFFF"/><path d="M72.333 89.349 72.333 215.575" stroke="#000000" stroke-width="1.3344" stroke-linejoin="round" stroke-miterlimit="10" fill="none" fill-rule="evenodd"/><path d="M127.863 11.4251 127.863 215.575" stroke="#000000" stroke-width="1.3344" stroke-linejoin="round" stroke-miterlimit="10" fill="none" fill-rule="evenodd"/><path d="M264.487 50.387 264.487 215.575" stroke="#000000" stroke-width="1.3344" stroke-linejoin="round" stroke-miterlimit="10" fill="none" fill-rule="evenodd"/><path d="M127.196 51.0542 405.266 51.0542" stroke="#000000" stroke-width="1.3344" stroke-linejoin="round" stroke-miterlimit="10" fill="none" fill-rule="evenodd"/><path d="M9.6161 90.0161 405.266 90.0161" stroke="#000000" stroke-width="1.3344" stroke-linejoin="round" stroke-miterlimit="10" fill="none" fill-rule="evenodd"/><path d="M71.6658 152.462 405.266 152.462" stroke="#000000" stroke-width="1.3344" stroke-linejoin="round" stroke-miterlimit="10" fill="none" fill-rule="evenodd"/><path d="M10.2833 11.4251 10.2833 90.0161" stroke="#FFFFFF" stroke-width="1.3344" stroke-linejoin="round" stroke-miterlimit="10" fill="none" fill-rule="evenodd"/><path d="M10.2833 90.0161 10.2833 215.575" stroke="#000000" stroke-width="1.3344" stroke-linejoin="round" stroke-miterlimit="10" fill="none" fill-rule="evenodd"/><path d="M404.599 11.4251 404.599 215.575" stroke="#000000" stroke-width="1.3344" stroke-linejoin="round" stroke-miterlimit="10" fill="none" fill-rule="evenodd"/><path d="M9.6161 12.0922 127.863 12.0922" stroke="#FFFFFF" stroke-width="1.3344" stroke-linejoin="round" stroke-miterlimit="10" fill="none" fill-rule="evenodd"/><path d="M127.863 12.0922 405.266 12.0922" stroke="#000000" stroke-width="1.3344" stroke-linejoin="round" stroke-miterlimit="10" fill="none" fill-rule="evenodd"/><path d="M9.6161 214.908 405.266 214.908" stroke="#000000" stroke-width="1.3344" stroke-linejoin="round" stroke-miterlimit="10" fill="none" fill-rule="evenodd"/><text fill="#FF0066" font-family="Yu Gothic,Yu Gothic_MSFontService,sans-serif" font-weight="700" font-size="14.6774" transform="matrix(1 0 0 0.999933 247.466 31)">囚人</text><text fill="#FF0066" font-family="Calibri,Calibri_MSFontService,sans-serif" font-weight="700" font-size="14.6774" transform="matrix(1 0 0 0.999933 276.823 31)">B</text><text fill="#FF0066" font-family="Yu Gothic,Yu Gothic_MSFontService,sans-serif" font-weight="700" font-size="14.6774" transform="matrix(1 0 0 0.999933 319.865 70)">自白</text><text fill="#FF0066" font-family="Yu Gothic,Yu Gothic_MSFontService,sans-serif" font-weight="700" font-size="14.6774" transform="matrix(1 0 0 0.999933 181.497 70)">黙秘</text><text fill="#0000FF" font-family="Yu Gothic,Yu Gothic_MSFontService,sans-serif" font-weight="700" font-size="14.6774" transform="matrix(1 0 0 0.999933 274.095 109)">囚人</text><text fill="#0000FF" font-family="Calibri,Calibri_MSFontService,sans-serif" font-weight="700" font-size="14.6774" transform="matrix(1 0 0 0.999933 303.452 109)">A</text><text fill="#0000FF" font-family="Yu Gothic,Yu Gothic_MSFontService,sans-serif" font-weight="700" font-size="14.6774" transform="matrix(1 0 0 0.999933 312.292 109)">：</text><text fill="#0000FF" font-family="Calibri,Calibri_MSFontService,sans-serif" font-weight="700" font-size="14.6774" transform="matrix(1 0 0 0.999933 326.97 109)">20</text><text fill="#0000FF" font-family="Yu Gothic,Yu Gothic_MSFontService,sans-serif" font-weight="700" font-size="14.6774" transform="matrix(1 0 0 0.999933 341.982 109)">年</text><text fill="#FF0066" font-family="Yu Gothic,Yu Gothic_MSFontService,sans-serif" font-weight="700" font-size="14.6774" transform="matrix(1 0 0 0.999933 274.095 126)">囚人</text><text fill="#FF0066" font-family="Calibri,Calibri_MSFontService,sans-serif" font-weight="700" font-size="14.6774" transform="matrix(1 0 0 0.999933 303.452 126)">B</text><text fill="#FF0066" font-family="Yu Gothic,Yu Gothic_MSFontService,sans-serif" font-weight="700" font-size="14.6774" transform="matrix(1 0 0 0.999933 311.625 126)">：無罪</text><text fill="#0000FF" font-family="Yu Gothic,Yu Gothic_MSFontService,sans-serif" font-weight="700" font-size="14.6774" transform="matrix(1 0 0 0.999933 137.471 109)">囚人</text><text fill="#0000FF" font-family="Calibri,Calibri_MSFontService,sans-serif" font-weight="700" font-size="14.6774" transform="matrix(1 0 0 0.999933 166.828 109)">A</text><text fill="#0000FF" font-family="Yu Gothic,Yu Gothic_MSFontService,sans-serif" font-weight="700" font-size="14.6774" transform="matrix(1 0 0 0.999933 175.668 109)">：</text><text fill="#0000FF" font-family="Calibri,Calibri_MSFontService,sans-serif" font-weight="700" font-size="14.6774" transform="matrix(1 0 0 0.999933 190.347 109)">5</text><text fill="#0000FF" font-family="Yu Gothic,Yu Gothic_MSFontService,sans-serif" font-weight="700" font-size="14.6774" transform="matrix(1 0 0 0.999933 197.853 109)">年</text><text fill="#FF0066" font-family="Yu Gothic,Yu Gothic_MSFontService,sans-serif" font-weight="700" font-size="14.6774" transform="matrix(1 0 0 0.999933 137.471 126)">囚人</text><text fill="#FF0066" font-family="Calibri,Calibri_MSFontService,sans-serif" font-weight="700" font-size="14.6774" transform="matrix(1 0 0 0.999933 166.828 126)">B</text><text fill="#FF0066" font-family="Yu Gothic,Yu Gothic_MSFontService,sans-serif" font-weight="700" font-size="14.6774" transform="matrix(1 0 0 0.999933 175.001 126)">：</text><text fill="#FF0066" font-family="Calibri,Calibri_MSFontService,sans-serif" font-weight="700" font-size="14.6774" transform="matrix(1 0 0 0.999933 189.679 126)">5</text><text fill="#FF0066" font-family="Yu Gothic,Yu Gothic_MSFontService,sans-serif" font-weight="700" font-size="14.6774" transform="matrix(1 0 0 0.999933 197.186 126)">年</text><text fill="#0000FF" font-family="Yu Gothic,Yu Gothic_MSFontService,sans-serif" font-weight="700" font-size="14.6774" transform="matrix(1 0 0 0.999933 85.4197 126)">黙秘</text><text fill="#0000FF" font-family="Yu Gothic,Yu Gothic_MSFontService,sans-serif" font-weight="700" font-size="14.6774" transform="matrix(1 0 0 0.999933 22.2095 158)">囚人</text><text fill="#0000FF" font-family="Calibri,Calibri_MSFontService,sans-serif" font-weight="700" font-size="14.6774" transform="matrix(1 0 0 0.999933 51.5664 158)">A</text><text fill="#0000FF" font-family="Yu Gothic,Yu Gothic_MSFontService,sans-serif" font-weight="700" font-size="14.6774" transform="matrix(1 0 0 0.999933 274.095 171)">囚人</text><text fill="#0000FF" font-family="Calibri,Calibri_MSFontService,sans-serif" font-weight="700" font-size="14.6774" transform="matrix(1 0 0 0.999933 303.452 171)">A</text><text fill="#0000FF" font-family="Yu Gothic,Yu Gothic_MSFontService,sans-serif" font-weight="700" font-size="14.6774" transform="matrix(1 0 0 0.999933 312.292 171)">：</text><text fill="#0000FF" font-family="Calibri,Calibri_MSFontService,sans-serif" font-weight="700" font-size="14.6774" transform="matrix(1 0 0 0.999933 326.97 171)">10</text><text fill="#0000FF" font-family="Yu Gothic,Yu Gothic_MSFontService,sans-serif" font-weight="700" font-size="14.6774" transform="matrix(1 0 0 0.999933 341.982 171)">年</text><text fill="#FF0066" font-family="Yu Gothic,Yu Gothic_MSFontService,sans-serif" font-weight="700" font-size="14.6774" transform="matrix(1 0 0 0.999933 274.095 188)">囚人</text><text fill="#FF0066" font-family="Calibri,Calibri_MSFontService,sans-serif" font-weight="700" font-size="14.6774" transform="matrix(1 0 0 0.999933 303.452 188)">B</text><text fill="#FF0066" font-family="Yu Gothic,Yu Gothic_MSFontService,sans-serif" font-weight="700" font-size="14.6774" transform="matrix(1 0 0 0.999933 311.625 188)">：</text><text fill="#FF0066" font-family="Calibri,Calibri_MSFontService,sans-serif" font-weight="700" font-size="14.6774" transform="matrix(1 0 0 0.999933 326.303 188)">10</text><text fill="#FF0066" font-family="Yu Gothic,Yu Gothic_MSFontService,sans-serif" font-weight="700" font-size="14.6774" transform="matrix(1 0 0 0.999933 341.315 188)">年</text><text fill="#0000FF" font-family="Yu Gothic,Yu Gothic_MSFontService,sans-serif" font-weight="700" font-size="14.6774" transform="matrix(1 0 0 0.999933 137.471 171)">囚人</text><text fill="#0000FF" font-family="Calibri,Calibri_MSFontService,sans-serif" font-weight="700" font-size="14.6774" transform="matrix(1 0 0 0.999933 166.828 171)">A</text><text fill="#0000FF" font-family="Yu Gothic,Yu Gothic_MSFontService,sans-serif" font-weight="700" font-size="14.6774" transform="matrix(1 0 0 0.999933 175.668 171)">：無罪</text><text fill="#FF0066" font-family="Yu Gothic,Yu Gothic_MSFontService,sans-serif" font-weight="700" font-size="14.6774" transform="matrix(1 0 0 0.999933 137.471 188)">囚人</text><text fill="#FF0066" font-family="Calibri,Calibri_MSFontService,sans-serif" font-weight="700" font-size="14.6774" transform="matrix(1 0 0 0.999933 166.828 188)">B</text><text fill="#FF0066" font-family="Yu Gothic,Yu Gothic_MSFontService,sans-serif" font-weight="700" font-size="14.6774" transform="matrix(1 0 0 0.999933 175.001 188)">：</text><text fill="#FF0066" font-family="Calibri,Calibri_MSFontService,sans-serif" font-weight="700" font-size="14.6774" transform="matrix(1 0 0 0.999933 189.679 188)">20</text><text fill="#FF0066" font-family="Yu Gothic,Yu Gothic_MSFontService,sans-serif" font-weight="700" font-size="14.6774" transform="matrix(1 0 0 0.999933 204.692 188)">年</text><text fill="#0000FF" font-family="Yu Gothic,Yu Gothic_MSFontService,sans-serif" font-weight="700" font-size="14.6774" transform="matrix(1 0 0 0.999933 85.4197 189)">自白</text><path d="M219.5 103.493 250.5 103.493 250.5 166.489 229.529 166.489" stroke="#0000FF" stroke-width="3.00241" stroke-miterlimit="8" fill="none" fill-rule="evenodd"/><path d="M360.5 102.493 385.5 102.493 385.5 166.489 361.97 166.489" stroke="#0000FF" stroke-width="3.00241" stroke-miterlimit="8" fill="none" fill-rule="evenodd"/><path d="M201.5 131.491 201.5 142.49 343.5 142.49 343.5 132.77" stroke="#FF0066" stroke-width="3.00241" stroke-miterlimit="8" fill="none" fill-rule="evenodd"/><path d="M201.5 193.487 201.5 204.486 343.5 204.486 343.5 194.766" stroke="#FF0066" stroke-width="3.00241" stroke-miterlimit="8" fill="none" fill-rule="evenodd"/></g></svg>