<svg width="435" height="359" xmlns="http://www.w3.org/2000/svg" xmlns:xlink="http://www.w3.org/1999/xlink" overflow="hidden"><g><rect x="0" y="0" width="435" height="358.725" fill="#FFFFFF"/><path d="M79.9334 19.1938C67.589 25.5651 68.1383 45.2584 60.9319 55.4911 53.7255 65.7239 50.6232 95.1352 71.5959 101.442 92.5687 107.749 179.723 103.566 186.768 93.3332 193.813 83.1003 185.637 65.0482 180.176 56.2635 174.715 47.4788 161.53 47.1247 154 40.6247 146.471 34.1246 147.343 20.8348 134.999 17.263 122.654 13.6913 92.2779 12.8224 79.9334 19.1938Z" stroke="#A6A6A6" stroke-width="3.0023" stroke-miterlimit="8" fill="none" fill-rule="evenodd"/><path d="M308.68 111.396C298.439 106.07 292.89 86.115 293.553 77.2469 294.217 68.3787 308.851 64.3417 310.339 55.8708 311.826 47.3998 309.388 32.5975 321.053 28.7371 332.719 24.8766 335.953 28.726 347.823 28.0753 359.694 27.4245 380.06 20.6613 392.274 24.8325 404.489 29.0036 414.533 48.5468 421.112 53.1023 427.692 57.6577 423.189 82.5228 420.139 91.5417 417.089 100.561 413.669 104.272 402.812 107.215 391.956 110.158 370.688 108.504 355 109.201 339.311 109.897 318.921 116.721 308.68 111.396Z" stroke="#A6A6A6" stroke-width="3.0023" stroke-miterlimit="8" fill="none" fill-rule="evenodd"/><path d="M341.091 304.123C318.704 302.645 273.929 289.54 263.611 279.839 249.79 266.284 267.44 254.913 276.07 249.774 284.701 244.635 302.092 251.123 315.395 249.003 328.697 246.883 335.576 233.007 355.887 237.054 376.198 241.101 394.302 255.813 395.211 264.036 396.119 272.259 406.956 282.023 397.936 288.704 388.916 295.386 363.479 305.6 341.091 304.123Z" stroke="#A6A6A6" stroke-width="3.0023" stroke-miterlimit="8" fill="none" fill-rule="evenodd"/><path d="M137.433 235.328C106.221 202.522 57.7271 91.7066 105.706 78.0161 153.684 64.3256 147.235 143.627 179.221 171.783 211.207 199.939 320.964 225.641 292.977 274.85 264.989 324.058 168.645 268.133 137.433 235.328Z" stroke="#A6A6A6" stroke-width="3.0023" stroke-miterlimit="8" fill="none" fill-rule="evenodd"/><path d="M53.804 283.557C57.489 275.072 103.454 255.187 116.255 256.353 129.055 257.519 121.233 267.623 138.364 267.623 155.496 267.623 191.635 276.173 193.445 291.33 195.255 306.487 151.811 297.613 135.261 300.269L94.1448 307.264C80.8918 304.803 50.119 292.043 53.804 283.557Z" stroke="#A6A6A6" stroke-width="3.0023" stroke-miterlimit="8" fill="none" fill-rule="evenodd"/><path d="M49.5 61.4529 49.5 309.681 343.5 309.681 343.5 310.262" stroke="#172C51" stroke-width="1.33436" stroke-miterlimit="8" fill="none" fill-rule="evenodd"/><path d="M24.8328 164.374 24.8328 103.093 26.1671 103.093 26.1671 164.374ZM21.4969 104.426 25.5 96.426 29.503 104.426Z" fill="#172C51"/><path d="M210.5 333.577 335.828 333.577 335.828 334.91 210.5 334.91ZM334.494 330.244 342.5 334.244 334.494 338.244Z" fill="#172C51"/><text font-family="Calibri,Calibri_MSFontService,sans-serif" font-weight="700" font-size="14.6667" transform="matrix(1 0 0 0.999234 88.3295 50)">Analogy</text><text font-family="Calibri,Calibri_MSFontService,sans-serif" font-weight="700" font-size="14.6667" transform="matrix(1 0 0 0.999234 93.8337 67)">(</text><text font-family="Yu Gothic,Yu Gothic_MSFontService,sans-serif" font-weight="700" font-size="14.6667" transform="matrix(1 0 0 0.999234 98.3371 67)">類推</text><text font-family="Calibri,Calibri_MSFontService,sans-serif" font-weight="700" font-size="14.6667" transform="matrix(1 0 0 0.999234 127.693 67)">)</text><text font-family="Yu Gothic,Yu Gothic_MSFontService,sans-serif" font-weight="700" font-size="14.6667" transform="matrix(1 0 0 0.999234 138.308 216)">メタファー</text><text font-family="Yu Gothic,Yu Gothic_MSFontService,sans-serif" font-weight="700" font-size="14.6667" transform="matrix(1 0 0 0.999234 96.4795 287)">外れ値</text><text font-family="Yu Gothic,Yu Gothic_MSFontService,sans-serif" font-weight="700" font-size="14.6667" transform="matrix(1 0 0 0.999234 341.394 68)">逐語的</text><text font-family="Yu Gothic,Yu Gothic_MSFontService,sans-serif" font-weight="700" font-size="14.6667" transform="matrix(1 0 0 0.999234 341.394 85)">類似性</text><text font-family="Yu Gothic,Yu Gothic_MSFontService,sans-serif" font-weight="700" font-size="14.6667" transform="matrix(1 0 0 0.999234 305.022 271)">単なる</text><text font-family="Yu Gothic,Yu Gothic_MSFontService,sans-serif" font-weight="700" font-size="14.6667" transform="matrix(1 0 0 0.999234 349.056 271)">外観</text><text font-family="Yu Gothic,Yu Gothic_MSFontService,sans-serif" font-weight="700" font-size="14.6667" transform="matrix(1 0 0 0.999234 305.022 288)">上の類似</text><text font-family="Yu Gothic,Yu Gothic_MSFontService,sans-serif" font-weight="700" font-size="14.6667" transform="matrix(-1.83697e-16 -0.998468 1.00077 -1.83556e-16 29.419 256)">関係</text><text font-family="Yu Gothic,Yu Gothic_MSFontService,sans-serif" font-weight="700" font-size="14.6667" transform="matrix(-1.83697e-16 -0.998468 1.00077 -1.83556e-16 29.419 226)">性の共有</text><text font-family="Yu Gothic,Yu Gothic_MSFontService,sans-serif" font-weight="700" font-size="14.6667" transform="matrix(1 0 0 0.999234 131.903 341)">属性の共有</text></g></svg>