<svg width="765" height="265" xmlns="http://www.w3.org/2000/svg" xmlns:xlink="http://www.w3.org/1999/xlink" overflow="hidden"><g><rect x="0" y="0" width="765" height="264.614" fill="#FFFFFF"/><path d="M292.556 223.519 290.167 218.557 291.328 216.213 289.553 215.042 289.007 212.629 284.57 213.043 283 209.39 285.73 204.221 285.116 201.602 286.891 200.223 284.911 197.811 286.754 195.399 288.051 198.224 289.621 197.053 290.236 197.191 293.102 195.054 291.396 193.813 290.509 195.95 288.597 196.226 287.71 194.985 289.553 193.331 291.328 189.609 295.765 191.746 298.358 188.437C304.274 193.032 307.664 200.384 306.891 209.872 305.594 208.402 304.024 206.036 303 205.461 301.976 204.887 299.815 204.898 299.655 205.255L302.044 207.598 299.451 210.217 299.928 211.802 297.403 214.49 297.403 217.04 295.969 219.866 293.853 223.105 292.556 223.519Z" stroke="#172C51" stroke-width="1.99913" stroke-miterlimit="8" fill-rule="evenodd"/><path d="M287 183.537 284.636 186.092 284.011 189.132 283.733 191.895 280.535 192.654C279.434 193.23 278.727 196.027 277.128 195.348 275.529 194.669 278.438 191.169 278.449 189.822L277.198 187.267 277.893 184.642 275.529 186.714 274 184.228C276.178 182.823 281.902 181.35 287 183.537Z" stroke="#172C51" stroke-width="1.99913" stroke-miterlimit="8" fill-rule="evenodd"/><path d="M274.735 229.502 272.433 225.78 271.011 220.612 267.288 216.891 267.423 213.859 263.497 211.447 260.585 209.173 260.585 207.657 258.351 209.035C256.275 202.328 263.812 187.972 270.199 186.433L272.095 188.224 275.073 188.638 275.547 192.015 274.599 194.013 272.636 193.668 273.042 192.773 273.245 191.05 271.147 193.048 269.048 193.944 267.829 195.184 269.454 197.458 270.131 196.769 270.741 194.495 273.11 195.115 275.073 197.458 274.803 200.628 274.058 201.042 273.042 199.457 271.891 200.973 268.168 203.867 267.017 207.175 268.574 209.173 271.011 209.931 269.251 210.827 267.559 209.931 265.324 206.417 263.293 206.83 263.09 209.311 265.257 209.173 266.475 211.861 268.236 212.067 270.402 211.792 273.922 213.377 275.953 215.444 279 216.202 278.188 218.063 278.594 220.474 276.766 221.646 276.901 224.196 275.412 225.849 276.698 230.535 274.735 229.502Z" stroke="#172C51" stroke-width="1.99913" stroke-miterlimit="8" fill-rule="evenodd"/><path d="M258 206.479C258 193.194 268.969 182.423 282.5 182.423 296.031 182.423 307 193.194 307 206.479 307 219.765 296.031 230.535 282.5 230.535 268.969 230.535 258 219.765 258 206.479Z" stroke="#172C51" stroke-width="1.99913" stroke-miterlimit="8" fill="none" fill-rule="evenodd"/><path d="M297 220.512 297.242 219.043C297.735 218.39 299.687 216.011 299.959 216.594 300.23 217.177 299.083 218.553 298.872 219.183L298.691 220.372 297 220.512Z" stroke="#172C51" stroke-width="1.99913" stroke-miterlimit="8" fill-rule="evenodd"/><path d="M199.5 47.1556C199.5 37.9962 206.908 30.571 216.046 30.571L346.954 30.571C356.092 30.571 363.5 37.9962 363.5 47.1556L363.5 146.293C363.5 155.453 356.092 162.878 346.954 162.878L216.046 162.878C206.908 162.878 199.5 155.453 199.5 146.293Z" stroke="#172C51" stroke-width="1.33275" stroke-miterlimit="8" fill="#FFFFFF" fill-rule="evenodd"/><text font-family="Yu Gothic,Yu Gothic_MSFontService,sans-serif" font-weight="700" font-size="12.0227" transform="matrix(1 0 0 1.00233 208.839 48)">モデルレス・エージェント</text><path d="M306.5 124.289C306.5 120.69 309.41 117.773 313 117.773L344 117.773C347.59 117.773 350.5 120.69 350.5 124.289L350.5 150.349C350.5 153.947 347.59 156.864 344 156.864L313 156.864C309.41 156.864 306.5 153.947 306.5 150.349Z" stroke="#172C51" stroke-width="1.33275" stroke-miterlimit="8" fill="#DEEBF7" fill-rule="evenodd"/><text font-family="Calibri,Calibri_MSFontService,sans-serif" font-weight="700" font-size="12.0227" transform="matrix(1 0 0 1.00233 313.183 141)">Policy</text><text font-family="Yu Gothic,Yu Gothic_MSFontService,sans-serif" font-weight="700" font-size="13.3585" transform="matrix(1 0 0 1.00233 267.61 250)">環境</text><path d="M252.507 207.449 232.834 207.656 232.834 161.539 234.166 161.539 234.166 206.981 233.493 206.313 252.493 206.113ZM229.502 162.875 233.5 154.86 237.498 162.875Z" fill="#172C51"/><path d="M12.3361 52.6651-0.666376 52.6625-0.666376 0 0.666376 0 0.666376 51.9963 0.000131265 51.3299 12.3364 51.3323ZM11.0043 48.0002 19 52 11.0027 55.9967Z" fill="#172C51" transform="matrix(-1 0 0 1.00233 329.5 155.862)"/><rect x="307" y="170.396" width="46" height="26.0604" fill="#FFFFFF"/><text font-family="Yu Gothic,Yu Gothic_MSFontService,sans-serif" font-weight="700" font-size="13.3585" transform="matrix(1 0 0 1.00233 316.291 187)">行動</text><path d="M381.5 48.2865C381.5 38.5025 389.413 30.571 399.174 30.571L531.826 30.571C541.587 30.571 549.5 38.5025 549.5 48.2865L549.5 154.184C549.5 163.968 541.587 171.899 531.826 171.899L399.174 171.899C389.413 171.899 381.5 163.968 381.5 154.184Z" stroke="#172C51" stroke-width="1.33275" stroke-miterlimit="8" fill="#FFFFFF" fill-rule="evenodd"/><text font-family="Yu Gothic,Yu Gothic_MSFontService,sans-serif" font-weight="700" font-size="12.0227" transform="matrix(1 0 0 1.00233 387.003 48)">モデルベース・エージェント</text><path d="M389.5 85.532C389.5 82.3028 392.112 79.6849 395.333 79.6849L430.667 79.6849C433.888 79.6849 436.5 82.3028 436.5 85.532L436.5 108.919C436.5 112.149 433.888 114.766 430.667 114.766L395.333 114.766C392.112 114.766 389.5 112.149 389.5 108.919Z" stroke="#172C51" stroke-width="1.33275" stroke-miterlimit="8" fill="#DEEBF7" fill-rule="evenodd"/><text font-family="Calibri,Calibri_MSFontService,sans-serif" font-weight="700" font-size="12.0227" transform="matrix(1 0 0 1.00233 395.623 93)">World</text><text font-family="Calibri,Calibri_MSFontService,sans-serif" font-weight="700" font-size="12.0227" transform="matrix(1 0 0 1.00233 396.289 108)">Model</text><path d="M491.5 131.138C491.5 127.632 494.336 124.79 497.833 124.79L532.167 124.79C535.664 124.79 538.5 127.632 538.5 131.138L538.5 156.53C538.5 160.036 535.664 162.878 532.167 162.878L497.833 162.878C494.336 162.878 491.5 160.036 491.5 156.53Z" stroke="#172C51" stroke-width="1.33275" stroke-miterlimit="8" fill="#DEEBF7" fill-rule="evenodd"/><text font-family="Calibri,Calibri_MSFontService,sans-serif" font-weight="700" font-size="12.0227" transform="matrix(1 0 0 1.00233 499.782 148)">Policy</text><text font-family="Yu Gothic,Yu Gothic_MSFontService,sans-serif" font-weight="700" font-size="13.3585" transform="matrix(1 0 0 1.00233 455.873 248)">環境</text><path d="M437.5 144.168 484.836 144.168 484.836 145.504 437.5 145.504ZM483.503 140.829 491.5 144.836 483.503 148.844Z" fill="#172C51"/><text font-family="Yu Gothic,Yu Gothic_MSFontService,sans-serif" font-weight="700" font-size="13.3585" transform="matrix(1 0 0 1.00233 509.145 70)">報酬</text><path d="M440.5 64.149C440.5 61.1043 442.962 58.6361 446 58.6361L502 58.6361C505.038 58.6361 507.5 61.1043 507.5 64.149L507.5 86.2C507.5 89.2447 505.038 91.7129 502 91.7129L446 91.7129C442.962 91.7129 440.5 89.2447 440.5 86.2Z" stroke="#172C51" stroke-width="1.33275" stroke-miterlimit="8" fill="#DEEBF7" fill-rule="evenodd"/><text font-family="Yu Gothic,Yu Gothic_MSFontService,sans-serif" font-weight="700" font-size="12.0227" transform="matrix(1 0 0 1.00233 449.354 71)">価値関数</text><text font-family="Calibri,Calibri_MSFontService,sans-serif" font-weight="700" font-size="12.0227" transform="matrix(1 0 0 1.00233 442.603 85)">or</text><text font-family="Yu Gothic,Yu Gothic_MSFontService,sans-serif" font-weight="700" font-size="12.0227" transform="matrix(1 0 0 1.00233 456.098 85)">報酬関数</text><text font-family="Yu Gothic,Yu Gothic_MSFontService,sans-serif" font-weight="700" font-size="13.3585" transform="matrix(1 0 0 1.00233 447.814 162)">状態</text><path d="M256.5 136.15 298.836 136.15 298.836 137.486 256.5 137.486ZM297.503 132.81 305.5 136.818 297.503 140.825Z" fill="#172C51"/><text font-family="Yu Gothic,Yu Gothic_MSFontService,sans-serif" font-weight="700" font-size="13.3585" transform="matrix(1 0 0 1.00233 266.586 130)">状態</text><path d="M211.5 126.548C211.5 121.702 215.419 117.773 220.254 117.773L248.746 117.773C253.581 117.773 257.5 121.702 257.5 126.548L257.5 146.085C257.5 150.931 253.581 154.86 248.746 154.86L220.254 154.86C215.419 154.86 211.5 150.931 211.5 146.085Z" stroke="#172C51" stroke-width="1.33275" stroke-miterlimit="8" fill="#DEEBF7" fill-rule="evenodd"/><text font-family="Yu Gothic,Yu Gothic_MSFontService,sans-serif" font-weight="700" font-size="12.0227" transform="matrix(1 0 0 1.00233 222.148 133)">特徴</text><text font-family="Yu Gothic,Yu Gothic_MSFontService,sans-serif" font-weight="700" font-size="12.0227" transform="matrix(1 0 0 1.00233 222.148 147)">抽出</text><path d="M414.834 78.6826 414.834 69.9961 436.836 69.9961 436.836 71.332 415.5 71.332 416.166 70.664 416.166 78.6826ZM435.503 66.6565 443.5 70.664 435.503 74.6716Z" fill="#172C51"/><path d="M507.5 74.0054 519.166 74.0054 519.166 121.117 517.834 121.117 517.834 74.6733 518.5 75.3413 507.5 75.3413ZM522.498 119.782 518.5 127.797 514.502 119.782Z" fill="#172C51"/><text font-family="Yu Gothic,Yu Gothic_MSFontService,sans-serif" font-weight="700" font-size="13.3585" transform="matrix(1 0 0 1.00233 406.788 64)">計画</text><path d="M390.5 137.444C390.5 133.776 393.466 130.804 397.124 130.804L430.875 130.804C434.534 130.804 437.5 133.776 437.5 137.444L437.5 152.229C437.5 155.896 434.534 158.869 430.875 158.869L397.124 158.869C393.466 158.869 390.5 155.896 390.5 152.229Z" stroke="#172C51" stroke-width="1.33275" stroke-miterlimit="8" fill="#DEEBF7" fill-rule="evenodd"/><text font-family="Yu Gothic,Yu Gothic_MSFontService,sans-serif" font-weight="700" font-size="12.0227" transform="matrix(1 0 0 1.00233 401.419 141)">特徴</text><text font-family="Yu Gothic,Yu Gothic_MSFontService,sans-serif" font-weight="700" font-size="12.0227" transform="matrix(1 0 0 1.00233 401.419 155)">抽出</text><path d="M-0.666376 19-0.666376 6.66376 0.666376 6.66376 0.666376 19ZM-3.99826 7.99652 0 0 3.99826 7.99652Z" fill="#172C51" transform="matrix(-1 0 0 1.00233 414.5 111.759)"/><text font-family="Yu Gothic,Yu Gothic_MSFontService,sans-serif" font-weight="700" font-size="13.3585" transform="matrix(1 0 0 1.00233 419.707 127)">状態</text><text font-family="Yu Gothic,Yu Gothic_MSFontService,sans-serif" font-weight="700" font-size="13.3585" transform="matrix(1 0 0 1.00233 331.101 85)">報酬</text><path d="M248.5 63.1467C248.5 60.102 250.963 57.6338 254 57.6338L309 57.6338C312.038 57.6338 314.5 60.102 314.5 63.1467L314.5 85.1976C314.5 88.2423 312.038 90.7106 309 90.7106L254 90.7106C250.963 90.7106 248.5 88.2423 248.5 85.1976Z" stroke="#172C51" stroke-width="1.33275" stroke-miterlimit="8" fill="#DEEBF7" fill-rule="evenodd"/><text font-family="Yu Gothic,Yu Gothic_MSFontService,sans-serif" font-weight="700" font-size="12.0227" transform="matrix(1 0 0 1.00233 256.932 70)">価値関数</text><text font-family="Calibri,Calibri_MSFontService,sans-serif" font-weight="700" font-size="12.0227" transform="matrix(1 0 0 1.00233 250.189 84)">or</text><text font-family="Yu Gothic,Yu Gothic_MSFontService,sans-serif" font-weight="700" font-size="12.0227" transform="matrix(1 0 0 1.00233 263.683 84)">報酬関数</text><path d="M231.834 115.769 231.834 73.0031 242.836 73.0031 242.836 74.339 232.5 74.339 233.166 73.6711 233.166 115.769ZM241.503 69.6635 249.5 73.6711 241.503 77.6786Z" fill="#172C51"/><path d="M314.5 73.0031 330.166 73.0031 330.166 111.094 328.834 111.094 328.834 73.671 329.5 74.339 314.5 74.339ZM333.498 109.758 329.5 117.773 325.502 109.758Z" fill="#172C51"/><text font-family="Yu Gothic,Yu Gothic_MSFontService,sans-serif" font-weight="700" font-size="13.3585" transform="matrix(1 0 0 1.00233 202.71 83)">状態</text><path d="M6.49995 13.6986C6.49995 11.392 8.36546 9.52211 10.6667 9.52211L80.3332 9.52211C82.6345 9.52211 84.5 11.392 84.5 13.6986L84.5 30.4039C84.5 32.7105 82.6345 34.5803 80.3332 34.5803L10.6667 34.5803C8.36546 34.5803 6.49995 32.7105 6.49995 30.4039Z" stroke="#172C51" stroke-width="1.33275" stroke-miterlimit="8" fill="#E2F0D9" fill-rule="evenodd"/><text font-family="Yu Gothic,Yu Gothic_MSFontService,sans-serif" font-weight="700" font-size="12.0227" transform="matrix(1 0 0 1.00233 8.66945 25)">エージェント</text><path d="M59.5 58.8033C59.5 56.4967 61.3655 54.6269 63.6667 54.6269L124.333 54.6269C126.635 54.6269 128.5 56.4967 128.5 58.8033L128.5 75.5085C128.5 77.8151 126.635 79.6849 124.333 79.6849L63.6667 79.6849C61.3655 79.6849 59.5 77.8151 59.5 75.5085Z" stroke="#172C51" stroke-width="1.33275" stroke-miterlimit="8" fill="#E2F0D9" fill-rule="evenodd"/><text font-family="Yu Gothic,Yu Gothic_MSFontService,sans-serif" font-weight="700" font-size="12.0227" transform="matrix(1 0 0 1.00233 63.4588 70)">モデルレス</text><path d="M59.5 211.157C59.5 208.85 61.3655 206.981 63.6667 206.981L135.333 206.981C137.634 206.981 139.5 208.85 139.5 211.157L139.5 227.862C139.5 230.169 137.634 232.039 135.333 232.039L63.6667 232.039C61.3655 232.039 59.5 230.169 59.5 227.862Z" stroke="#172C51" stroke-width="1.33275" stroke-miterlimit="8" fill="#E2F0D9" fill-rule="evenodd"/><text font-family="Yu Gothic,Yu Gothic_MSFontService,sans-serif" font-weight="700" font-size="12.0227" transform="matrix(1 0 0 1.00233 63.0793 223)">モデルベース</text><path d="M110.5 99.8987C110.5 97.5921 112.365 95.7222 114.667 95.7222L175.333 95.7222C177.634 95.7222 179.5 97.5921 179.5 99.8987L179.5 116.604C179.5 118.911 177.634 120.78 175.333 120.78L114.667 120.78C112.365 120.78 110.5 118.911 110.5 116.604Z" stroke="#172C51" stroke-width="1.33275" stroke-miterlimit="8" fill="#E2F0D9" fill-rule="evenodd"/><text font-family="Yu Gothic,Yu Gothic_MSFontService,sans-serif" font-weight="700" font-size="12.0227" transform="matrix(1 0 0 1.00233 114.562 112)">価値ベース</text><path d="M110.5 136.985C110.5 134.678 112.365 132.808 114.667 132.808L175.333 132.808C177.634 132.808 179.5 134.678 179.5 136.985L179.5 153.69C179.5 155.997 177.634 157.866 175.333 157.866L114.667 157.866C112.365 157.866 110.5 155.997 110.5 153.69Z" stroke="#172C51" stroke-width="1.33275" stroke-miterlimit="8" fill="#E2F0D9" fill-rule="evenodd"/><text font-family="Calibri,Calibri_MSFontService,sans-serif" font-weight="700" font-size="12.0227" transform="matrix(1 0 0 1.00233 111.813 149)">Policy</text><text font-family="Yu Gothic,Yu Gothic_MSFontService,sans-serif" font-weight="700" font-size="12.0227" transform="matrix(1 0 0 1.00233 141.3 149)">ベース</text><path d="M110.5 172.066C110.5 169.76 112.365 167.89 114.667 167.89L175.333 167.89C177.634 167.89 179.5 169.76 179.5 172.066L179.5 188.771C179.5 191.078 177.634 192.948 175.333 192.948L114.667 192.948C112.365 192.948 110.5 191.078 110.5 188.771Z" stroke="#172C51" stroke-width="1.33275" stroke-miterlimit="8" fill="#E2F0D9" fill-rule="evenodd"/><text font-family="Calibri,Calibri_MSFontService,sans-serif" font-weight="700" font-size="12.0227" transform="matrix(1 0 0 1.00233 116.145 184)">Actor</text><text font-family="Calibri,Calibri_MSFontService,sans-serif" font-weight="700" font-size="12.0227" transform="matrix(1 0 0 1.00233 143.466 184)">-</text><text font-family="Calibri,Calibri_MSFontService,sans-serif" font-weight="700" font-size="12.0227" transform="matrix(1 0 0 1.00233 147.131 184)">Critic</text><path d="M0 0C16.0446 0 32.0891 7.19497 32.0891 14.3899" stroke="#000000" stroke-width="1.33275" stroke-miterlimit="8" fill="none" fill-rule="evenodd" transform="matrix(1.83697e-16 1.00233 1 -1.84124e-16 45.5 34.5803)"/><path d="M0 0C92.004 0 184.008 7.19497 184.008 14.3899" stroke="#000000" stroke-width="1.33275" stroke-miterlimit="8" fill="none" fill-rule="evenodd" transform="matrix(1.83697e-16 1.00233 1 -1.84124e-16 45.5 34.5803)"/><path d="M0 0C14.3132 0 28.6264 8.35059 28.6264 16.7012" stroke="#000000" stroke-width="1.33275" stroke-miterlimit="8" fill="none" fill-rule="evenodd" transform="matrix(1.83697e-16 1.00233 1 -1.84124e-16 93.5001 79.6849)"/><path d="M0 0C32.7884 0 65.5769 8.35059 65.5769 16.7012" stroke="#000000" stroke-width="1.33275" stroke-miterlimit="8" fill="none" fill-rule="evenodd" transform="matrix(1.83697e-16 1.00233 1 -1.84124e-16 93.5 79.6849)"/><path d="M0 0C50.205 0 100.41 8.35059 100.41 16.7011" stroke="#000000" stroke-width="1.33275" stroke-miterlimit="8" fill="none" fill-rule="evenodd" transform="matrix(1.83697e-16 1.00233 1 -1.84124e-16 93.5 79.6849)"/><rect x="208" y="171.398" width="46" height="26.0605" fill="#FFFFFF"/><text font-family="Yu Gothic,Yu Gothic_MSFontService,sans-serif" font-weight="700" font-size="13.3585" transform="matrix(1 0 0 1.00233 217.381 189)">観測</text><path d="M671.556 223.519 669.167 218.557 670.328 216.213 668.553 215.042 668.007 212.629 663.57 213.043 662 209.39 664.73 204.221 664.116 201.602 665.891 200.223 663.911 197.811 665.754 195.399 667.051 198.224 668.621 197.053 669.236 197.191 672.102 195.054 670.396 193.813 669.509 195.95 667.597 196.226 666.71 194.985 668.553 193.331 670.328 189.609 674.765 191.746 677.358 188.437C683.274 193.032 686.664 200.384 685.891 209.872 684.594 208.402 683.024 206.036 682 205.461 680.976 204.887 678.815 204.898 678.655 205.255L681.044 207.598 678.451 210.217 678.928 211.802 676.403 214.49 676.403 217.04 674.969 219.866 672.853 223.105 671.556 223.519Z" stroke="#172C51" stroke-width="1.99913" stroke-miterlimit="8" fill-rule="evenodd"/><path d="M666 183.537 663.818 186.092 663.241 189.132 662.984 191.895 660.032 192.654C659.016 193.23 658.364 196.027 656.888 195.348 655.412 194.669 658.096 191.169 658.107 189.822L656.952 187.267 657.594 184.642 655.412 186.714 654 184.228C656.011 182.823 661.294 181.35 666 183.537Z" stroke="#172C51" stroke-width="1.99913" stroke-miterlimit="8" fill-rule="evenodd"/><path d="M654.735 229.502 652.433 225.78 651.011 220.612 647.288 216.891 647.423 213.859 643.497 211.447 640.585 209.173 640.585 207.657 638.351 209.035C636.275 202.328 643.812 187.972 650.199 186.433L652.094 188.224 655.073 188.638 655.547 192.015 654.599 194.013 652.636 193.668 653.042 192.773 653.245 191.05 651.147 193.048 649.048 193.944 647.829 195.184 649.454 197.458 650.131 196.769 650.74 194.495 653.11 195.115 655.073 197.458 654.803 200.628 654.058 201.042 653.042 199.457 651.891 200.973 648.168 203.867 647.017 207.175 648.574 209.173 651.011 209.931 649.251 210.827 647.559 209.931 645.324 206.417 643.293 206.83 643.09 209.311 645.257 209.173 646.475 211.861 648.236 212.067 650.402 211.792 653.922 213.377 655.953 215.444 659 216.202 658.188 218.063 658.594 220.474 656.766 221.646 656.901 224.196 655.412 225.849 656.698 230.535 654.735 229.502Z" stroke="#172C51" stroke-width="1.99913" stroke-miterlimit="8" fill-rule="evenodd"/><path d="M638 206.479C638 193.194 648.745 182.423 662 182.423 675.255 182.423 686 193.194 686 206.479 686 219.765 675.255 230.535 662 230.535 648.745 230.535 638 219.765 638 206.479Z" stroke="#172C51" stroke-width="1.99913" stroke-miterlimit="8" fill="none" fill-rule="evenodd"/><path d="M677 220.512 677.242 219.043C677.735 218.39 679.687 216.011 679.959 216.594 680.23 217.177 679.083 218.553 678.872 219.183L678.691 220.372 677 220.512Z" stroke="#172C51" stroke-width="1.99913" stroke-miterlimit="8" fill-rule="evenodd"/><text font-family="Yu Gothic,Yu Gothic_MSFontService,sans-serif" font-weight="700" font-size="13.3585" transform="matrix(1 0 0 1.00233 647.792 248)">環境</text><path d="M582.5 134.07C582.5 131.712 584.407 129.801 586.759 129.801L647.241 129.801C649.593 129.801 651.5 131.712 651.5 134.07L651.5 143.575C651.5 145.932 649.593 147.843 647.241 147.843L586.759 147.843C584.407 147.843 582.5 145.932 582.5 143.575Z" stroke="#172C51" stroke-width="1.33275" stroke-miterlimit="8" fill="#DEEBF7" fill-rule="evenodd"/><text font-family="Yu Gothic,Yu Gothic_MSFontService,sans-serif" font-weight="700" font-size="12.0227" transform="matrix(1 0 0 1.00233 592.307 143)">特徴抽出</text><path d="M666.5 59.7781C666.5 56.9331 668.801 54.6269 671.639 54.6269L742.361 54.6269C745.199 54.6269 747.5 56.9331 747.5 59.7781L747.5 90.571C747.5 93.4159 745.199 95.7222 742.361 95.7222L671.639 95.7222C668.801 95.7222 666.5 93.4159 666.5 90.571Z" stroke="#172C51" stroke-width="1.33275" stroke-miterlimit="8" fill="#FFFFFF" fill-rule="evenodd"/><text font-family="Calibri,Calibri_MSFontService,sans-serif" font-weight="700" font-size="12.0227" transform="matrix(1 0 0 1.00233 693.72 68)">Critic</text><path d="M666.5 115.032C666.5 112.117 668.857 109.755 671.765 109.755L743.235 109.755C746.143 109.755 748.5 112.117 748.5 115.032L748.5 146.576C748.5 149.49 746.143 151.852 743.235 151.852L671.765 151.852C668.857 151.852 666.5 149.49 666.5 146.576Z" stroke="#172C51" stroke-width="1.33275" stroke-miterlimit="8" fill="#FFFFFF" fill-rule="evenodd"/><text font-family="Calibri,Calibri_MSFontService,sans-serif" font-weight="700" font-size="12.0227" transform="matrix(1 0 0 1.00233 693.259 124)">Actor</text><path d="M683.5 132.641C683.5 131.073 684.769 129.801 686.333 129.801L732.667 129.801C734.231 129.801 735.5 131.073 735.5 132.641L735.5 144.001C735.5 145.569 734.231 146.841 732.667 146.841L686.333 146.841C684.769 146.841 683.5 145.569 683.5 144.001Z" stroke="#172C51" stroke-width="1.33275" stroke-miterlimit="8" fill="#DEEBF7" fill-rule="evenodd"/><text font-family="Calibri,Calibri_MSFontService,sans-serif" font-weight="700" font-size="12.0227" transform="matrix(1 0 0 1.00233 694.247 142)">Policy</text><path d="M677.5 74.8405C677.5 73.0875 678.918 71.6664 680.667 71.6664L735.333 71.6664C737.082 71.6664 738.5 73.0875 738.5 74.8405L738.5 87.5365C738.5 89.2895 737.082 90.7106 735.333 90.7106L680.667 90.7106C678.918 90.7106 677.5 89.2895 677.5 87.5365Z" stroke="#172C51" stroke-width="1.33275" stroke-miterlimit="8" fill="#DEEBF7" fill-rule="evenodd"/><text font-family="Yu Gothic,Yu Gothic_MSFontService,sans-serif" font-weight="700" font-size="12.0227" transform="matrix(1 0 0 1.00233 683.802 85)">価値関数</text><path d="M612.834 117.773 612.834 74.0055 659.836 74.0055 659.836 75.3413 613.5 75.3413 614.166 74.6734 614.166 117.773ZM658.503 70.6658 666.5 74.6734 658.503 78.6809Z" fill="#172C51"/><path d="M612.834 128.799 612.834 118.108 659.836 118.108 659.836 119.444 613.5 119.444 614.166 118.776 614.166 128.799ZM658.503 114.768 666.5 118.776 658.503 122.783Z" fill="#172C51"/><path d="M-0.666376 19-0.666376 6.66376 0.666376 6.66376 0.666376 19ZM-3.99826 7.99652 0 0 3.99826 7.99652Z" fill="#172C51" transform="matrix(1 -1.2275e-16 -1.22465e-16 -1.00233 708.5 113.764)"/><path d="M569.5 45.2821C569.5 37.1573 576.071 30.571 584.177 30.571L746.823 30.571C754.929 30.571 761.5 37.1573 761.5 45.2821L761.5 146.162C761.5 154.287 754.929 160.874 746.823 160.874L584.177 160.874C576.071 160.874 569.5 154.287 569.5 146.162Z" stroke="#172C51" stroke-width="1.33275" stroke-miterlimit="8" stroke-dasharray="5.33101 3.99826" fill="none" fill-rule="evenodd"/><text font-family="Calibri,Calibri_MSFontService,sans-serif" font-weight="700" font-size="13.3585" transform="matrix(1 0 0 1.00233 577.837 100)">Share</text><path d="M433.507 212.46 413.834 212.667 413.834 166.55 415.166 166.55 415.166 211.992 414.493 211.324 433.493 211.124ZM410.502 167.886 414.5 159.871 418.498 167.886Z" fill="#172C51"/><path d="M18.3362 48.6654-0.666376 48.6628-0.666376 0 0.666376 0 0.666376 47.9965 9.21264e-05 47.3301 18.3364 47.3327ZM17.0041 44.0006 25 48 17.003 51.9971Z" fill="#172C51" transform="matrix(-1 0 0 1.00233 515.5 163.88)"/><rect x="389" y="178.414" width="47.0001" height="25.0582" fill="#FFFFFF"/><text font-family="Yu Gothic,Yu Gothic_MSFontService,sans-serif" font-weight="700" font-size="13.3585" transform="matrix(1 0 0 1.00233 398.91 195)">観測</text><rect x="488" y="175.407" width="46" height="26.0605" fill="#FFFFFF"/><text font-family="Yu Gothic,Yu Gothic_MSFontService,sans-serif" font-weight="700" font-size="13.3585" transform="matrix(1 0 0 1.00233 497.332 193)">行動</text><path d="M474.556 223.519 472.167 218.557 473.328 216.213 471.553 215.042 471.007 212.629 466.57 213.043 465 209.39 467.73 204.221 467.116 201.602 468.891 200.223 466.911 197.811 468.754 195.399 470.051 198.224 471.621 197.053 472.236 197.191 475.102 195.054 473.396 193.813 472.509 195.95 470.597 196.226 469.71 194.985 471.553 193.331 473.328 189.609 477.765 191.746 480.358 188.437C486.274 193.032 489.665 200.384 488.891 209.872 487.594 208.402 486.024 206.036 485 205.461 483.976 204.887 481.815 204.898 481.655 205.255L484.044 207.598 481.451 210.217 481.928 211.802 479.403 214.49 479.403 217.04 477.969 219.866 475.853 223.105 474.556 223.519Z" stroke="#172C51" stroke-width="1.99913" stroke-miterlimit="8" fill-rule="evenodd"/><path d="M469 183.537 466.636 186.092 466.011 189.132 465.733 191.895 462.535 192.654C461.434 193.23 460.727 196.027 459.128 195.348 457.529 194.669 460.438 191.169 460.449 189.822L459.198 187.267 459.893 184.642 457.529 186.714 456 184.228C458.178 182.823 463.902 181.35 469 183.537Z" stroke="#172C51" stroke-width="1.99913" stroke-miterlimit="8" fill-rule="evenodd"/><path d="M457.735 229.502 455.433 225.78 454.011 220.612 450.288 216.891 450.423 213.859 446.496 211.447 443.585 209.173 443.585 207.657 441.351 209.035C439.275 202.328 446.812 187.972 453.199 186.433L455.094 188.224 458.073 188.638 458.547 192.015 457.599 194.013 455.636 193.668 456.042 192.773 456.245 191.05 454.147 193.048 452.048 193.944 450.829 195.184 452.454 197.458 453.131 196.769 453.74 194.495 456.11 195.115 458.073 197.458 457.802 200.628 457.058 201.042 456.042 199.457 454.891 200.973 451.168 203.867 450.017 207.175 451.574 209.173 454.011 209.931 452.251 210.827 450.559 209.931 448.324 206.417 446.293 206.83 446.09 209.311 448.257 209.173 449.475 211.861 451.236 212.067 453.402 211.792 456.922 213.377 458.953 215.444 462 216.202 461.188 218.063 461.594 220.474 459.766 221.646 459.901 224.196 458.412 225.849 459.698 230.535 457.735 229.502Z" stroke="#172C51" stroke-width="1.99913" stroke-miterlimit="8" fill-rule="evenodd"/><path d="M440 206.479C440 193.194 450.969 182.423 464.5 182.423 478.031 182.423 489 193.194 489 206.479 489 219.765 478.031 230.535 464.5 230.535 450.969 230.535 440 219.765 440 206.479Z" stroke="#172C51" stroke-width="1.99913" stroke-miterlimit="8" fill="none" fill-rule="evenodd"/><path d="M479 220.512 479.322 219.043C479.98 218.39 482.583 216.011 482.945 216.594 483.307 217.177 481.778 218.553 481.496 219.183L481.254 220.372 479 220.512Z" stroke="#172C51" stroke-width="1.99913" stroke-miterlimit="8" fill-rule="evenodd"/><path d="M634.507 207.422 612.834 207.656 612.834 154.523 614.166 154.523 614.166 206.981 613.493 206.313 634.493 206.086ZM609.502 155.858 613.5 147.843 617.498 155.858Z" fill="#172C51"/><path d="M12.3361 51.6651-0.666376 51.6626-0.666376 0 0.666376 0 0.666376 50.9964 0.000128963 50.33 12.3364 50.3324ZM11.0043 47.0002 19 51 11.0027 54.9967Z" fill="#172C51" transform="matrix(-1 0 0 1.00233 709.5 152.855)"/><rect x="586" y="166.386" width="46" height="26.0605" fill="#FFFFFF"/><text font-family="Yu Gothic,Yu Gothic_MSFontService,sans-serif" font-weight="700" font-size="13.3585" transform="matrix(1 0 0 1.00233 595.156 183)">観測</text><rect x="689" y="166.386" width="45.9999" height="26.0605" fill="#FFFFFF"/><text font-family="Yu Gothic,Yu Gothic_MSFontService,sans-serif" font-weight="700" font-size="13.3585" transform="matrix(1 0 0 1.00233 698.375 184)">行動</text></g></svg>