<svg width="945" height="582" xmlns="http://www.w3.org/2000/svg" xmlns:xlink="http://www.w3.org/1999/xlink" overflow="hidden"><defs><clipPath id="clip0"><rect x="0" y="0" width="945" height="582"/></clipPath></defs><g clip-path="url(#clip0)"><rect x="0" y="0" width="945" height="581.897" fill="#FFFFFF"/><path d="M165 114.524C165 111.463 167.482 108.981 170.545 108.981L294.455 108.981C297.518 108.981 300 111.463 300 114.524L300 175.424C300 178.486 297.518 180.968 294.455 180.968L170.545 180.968C167.482 180.968 165 178.486 165 175.424Z" fill="#CAE5F2" fill-rule="evenodd"/><path d="M223 128.477C223 122.679 227.477 117.979 233 117.979 238.523 117.979 243 122.679 243 128.477 243 134.275 238.523 138.975 233 138.975 227.477 138.975 223 134.275 223 128.477Z" stroke="#000000" stroke-width="2.00035" stroke-miterlimit="8" fill="none" fill-rule="evenodd"/><path d="M237.077 122.022C236.506 121.476 236.418 120.639 236.883 120.153 237.347 119.668 238.187 119.717 238.759 120.263 239.331 120.81 239.418 121.646 238.954 122.132 238.489 122.618 237.649 122.569 237.077 122.022Z" stroke="#000000" stroke-width="2.00017" stroke-miterlimit="8" fill="none" fill-rule="evenodd"/><path d="M237.813 128.835C237.88 127.826 238.595 127.052 239.41 127.106 240.225 127.16 240.832 128.021 240.765 129.03 240.698 130.039 239.984 130.814 239.168 130.76 238.353 130.706 237.746 129.844 237.813 128.835Z" stroke="#000000" stroke-width="2.00035" stroke-miterlimit="8" fill="none" fill-rule="evenodd"/><path d="M228.063 124.756C228.145 123.52 229.232 122.585 230.491 122.668 231.75 122.752 232.704 123.821 232.623 125.057 232.541 126.293 231.454 127.228 230.195 127.145 228.936 127.062 227.981 125.992 228.063 124.756Z" stroke="#000000" stroke-width="2.00035" stroke-miterlimit="8" fill="none" fill-rule="evenodd"/><path d="M227.726 132.434C227.398 131.762 227.552 131.013 228.069 130.761 228.586 130.508 229.271 130.848 229.599 131.52 229.927 132.192 229.774 132.941 229.257 133.193 228.74 133.446 228.055 133.106 227.726 132.434Z" stroke="#000000" stroke-width="2.00028" stroke-miterlimit="8" fill="none" fill-rule="evenodd"/><path d="M234.39 138.975C231.363 138.924 231.304 135.149 233.688 134.229 236.072 133.309 238.529 135.02 237.9 137.479" stroke="#000000" stroke-width="2.00035" stroke-miterlimit="8" fill="none" fill-rule="evenodd"/><text font-family="Calibri,Calibri_MSFontService,sans-serif" font-weight="700" font-size="13.3333" transform="matrix(1 0 0 0.999824 181.911 158)">6</text><text font-family="Yu Gothic,Yu Gothic_MSFontService,sans-serif" font-weight="700" font-size="13.3333" transform="matrix(1 0 0 0.999824 188.745 158)">歳の子供に月面</text><text font-family="Yu Gothic,Yu Gothic_MSFontService,sans-serif" font-weight="700" font-size="13.3333" transform="matrix(1 0 0 0.999824 181.911 174)">着陸を説明する</text><path d="M234 185.967 234 210.295 232 210.295 232 185.967ZM237.001 208.962 233 216.962 228.999 208.962Z" fill="#172C51"/><path d="M165 232.722C165 226.227 170.267 220.961 176.763 220.961L288.237 220.961C294.733 220.961 300 226.227 300 232.722L300 324.18C300 330.675 294.733 335.941 288.237 335.941L176.763 335.941C170.267 335.941 165 330.675 165 324.18Z" fill="#F6F6F4" fill-rule="evenodd"/><text font-family="Yu Gothic,Yu Gothic_MSFontService,sans-serif" font-weight="700" font-size="13.3333" transform="matrix(1 0 0 0.999824 191.375 315)">ある人が月に</text><text font-family="Yu Gothic,Yu Gothic_MSFontService,sans-serif" font-weight="700" font-size="13.3333" transform="matrix(1 0 0 0.999824 191.375 331)">行</text><text font-family="Yu Gothic,Yu Gothic_MSFontService,sans-serif" font-weight="700" font-size="13.3333" transform="matrix(1 0 0 0.999824 204.711 331)">きました</text><text font-family="Yu Gothic,Yu Gothic_MSFontService,sans-serif" font-weight="700" font-size="13.3333" transform="matrix(1 0 0 0.999824 258.054 331)">･･･</text><path d="M209 255.455C209 243.031 219.074 232.959 231.5 232.959 243.926 232.959 254 243.031 254 255.455 254 267.879 243.926 277.951 231.5 277.951 219.074 277.951 209 267.879 209 255.455Z" stroke="#000000" stroke-width="2.00035" stroke-miterlimit="8" fill="none" fill-rule="evenodd"/><path d="M214.632 269.468C214.666 269.074 214.118 267.115 215.034 266.766 215.951 266.417 222.857 263.974 224.154 264.537 225.45 265.1 225.808 270.819 231.664 270.954 237.52 271.089 238.313 265.055 239.576 264.74 240.839 264.425 248.695 266.248 248.896 267.036L249.5 269.4C246.773 273.396 237.944 278.44 232.133 278.451 226.322 278.462 215.94 274.32 214.632 269.468Z" stroke="#000000" stroke-width="0.333392" stroke-miterlimit="8" fill-rule="evenodd"/><path d="M226.707 259.807 226.638 261.829C225.586 260.723 223.811 259.515 223.328 256.993 222.994 258.077 223.282 258.554 223.259 259.335 222.627 258.976 219.926 256.583 219.535 255.089 219.144 253.594 222.132 240.371 223.397 239.45 224.661 238.529 225.431 237.934 227.121 237.428 228.81 236.923 228.741 235.046 233.189 235.541 237.637 236.035 241.717 241.461 242.637 244.438 243.556 247.415 244.544 253.538 244.498 255.021 244.453 256.504 241.315 259.852 240.706 260.211L241.602 257.65C240.177 258.886 239.269 260.779 237.327 261.357L238.361 258.998C237.476 259.223 234.58 262.52 231.913 262.453 229.247 262.385 227.603 259.953 226.707 259.807Z" stroke="#000000" stroke-width="0.333392" stroke-miterlimit="8" fill-rule="evenodd"/><path d="M232.559 260.454C230.438 260.495 226.512 257.96 225.876 255.72 225.24 253.481 225.629 248.111 225.518 246.722L226.644 247.067C227.046 245.711 227.293 244.01 228.898 242.679 228.232 244.084 227.566 245.835 228.002 246.919L229.973 246.993C230.212 245.629 230.349 244.191 230.869 242.827 230.596 244.602 230.63 246.032 230.895 247.191L231.433 247.043C231.142 245.687 231.569 243.912 231.74 242.457 231.484 244.807 231.791 246.812 232.278 247.141L235.197 246.796C234.838 245.925 234.172 245.374 234.121 244.183 234.787 245.317 235.273 246.328 236.426 246.254 236.298 245.605 236.118 244.98 236.042 244.306 236.955 245.933 238.124 246.821 239.294 247.117 239.268 249.508 239.904 254.212 239.063 256.213 238.222 258.214 234.68 260.412 232.559 260.454Z" stroke="#000000" stroke-width="0.333392" stroke-miterlimit="8" fill="#FFFFFF" fill-rule="evenodd"/><path d="M228.393 292.45 237.022 283.354 239.299 285.513 230.669 294.609Z" stroke="#000000" stroke-miterlimit="8" fill="none" fill-rule="evenodd"/><path d="M228.263 293.448 227.5 296.448 230.5 295.402" stroke="#000000" stroke-width="1.00018" stroke-miterlimit="8" fill="none" fill-rule="evenodd"/><path d="M227.5 296.448 235.5 296.448" stroke="#000000" stroke-width="1.00018" stroke-miterlimit="8" fill="none" fill-rule="evenodd"/><path d="M237.5 296.448 239.5 296.448" stroke="#000000" stroke-width="1.00018" stroke-miterlimit="8" fill="none" fill-rule="evenodd"/><path d="M236.5 284.45 239.5 286.449" stroke="#000000" stroke-width="1.00018" stroke-miterlimit="8" fill="none" fill-rule="evenodd"/><path d="M234 341.94 234 367.267 232 367.267 232 341.94ZM237.001 365.934 233 373.934 228.999 365.934Z" fill="#01B7FF"/><path d="M165 386.291C165 381.675 168.742 377.933 173.359 377.933L291.641 377.933C296.258 377.933 300 381.675 300 386.291L300 503.552C300 508.168 296.258 511.91 291.641 511.91L173.359 511.91C168.742 511.91 165 508.168 165 503.552Z" fill="#F6F6F4" fill-rule="evenodd"/><path d="M227.968 469.125 236.598 460.029 238.874 462.187 230.245 471.284Z" stroke="#000000" stroke-miterlimit="8" fill="none" fill-rule="evenodd"/><path d="M228.263 469.417 227.5 472.417 230.5 471.371" stroke="#000000" stroke-width="1.00018" stroke-miterlimit="8" fill="none" fill-rule="evenodd"/><path d="M227.5 472.417 234.5 472.417" stroke="#000000" stroke-width="1.00018" stroke-miterlimit="8" fill="none" fill-rule="evenodd"/><path d="M236.5 472.417 239.5 472.417" stroke="#000000" stroke-width="1.00018" stroke-miterlimit="8" fill="none" fill-rule="evenodd"/><path d="M236.5 461.419 238.5 463.418" stroke="#000000" stroke-width="1.00018" stroke-miterlimit="8" fill="none" fill-rule="evenodd"/><path d="M219 491.126 219 502.911 202 502.911 202 484.914 212.833 484.914 219 491.126Z" stroke="#000000" stroke-width="2.00035" stroke-miterlimit="8" fill="none" fill-rule="evenodd"/><path d="M212 484.914 212 491.913 219 491.913" stroke="#000000" stroke-width="2.00035" stroke-miterlimit="8" fill="none" fill-rule="evenodd"/><path d="M205 489.914 212 489.914" stroke="#000000" stroke-width="2.00035" stroke-miterlimit="8" fill="none" fill-rule="evenodd"/><path d="M205 494.913 216 494.913" stroke="#000000" stroke-width="2.00035" stroke-miterlimit="8" fill="none" fill-rule="evenodd"/><path d="M205 498.912 216 498.912" stroke="#000000" stroke-width="2.00035" stroke-miterlimit="8" fill="none" fill-rule="evenodd"/><path d="M242 491.126 242 502.911 225 502.911 225 484.914 235.833 484.914 242 491.126Z" stroke="#000000" stroke-width="2.00035" stroke-miterlimit="8" fill="none" fill-rule="evenodd"/><path d="M236 484.914 236 491.913 242 491.913" stroke="#000000" stroke-width="2.00035" stroke-miterlimit="8" fill="none" fill-rule="evenodd"/><path d="M228 489.914 236 489.914" stroke="#000000" stroke-width="2.00035" stroke-miterlimit="8" fill="none" fill-rule="evenodd"/><path d="M228 494.913 239 494.913" stroke="#000000" stroke-width="2.00035" stroke-miterlimit="8" fill="none" fill-rule="evenodd"/><path d="M228 498.912 239 498.912" stroke="#000000" stroke-width="2.00035" stroke-miterlimit="8" fill="none" fill-rule="evenodd"/><path d="M263 491.126 263 502.911 247 502.911 247 484.914 257.195 484.914 263 491.126Z" stroke="#000000" stroke-width="2.00035" stroke-miterlimit="8" fill="none" fill-rule="evenodd"/><path d="M257 484.914 257 491.913 264 491.913" stroke="#000000" stroke-width="2.00035" stroke-miterlimit="8" fill="none" fill-rule="evenodd"/><path d="M250 489.914 257 489.914" stroke="#000000" stroke-width="2.00035" stroke-miterlimit="8" fill="none" fill-rule="evenodd"/><path d="M250 494.913 261 494.913" stroke="#000000" stroke-width="2.00035" stroke-miterlimit="8" fill="none" fill-rule="evenodd"/><path d="M250 498.912 261 498.912" stroke="#000000" stroke-width="2.00035" stroke-miterlimit="8" fill="none" fill-rule="evenodd"/><path d="M220 407.928 245 446.921" stroke="#000000" stroke-width="2.00035" stroke-miterlimit="8" fill="none" fill-rule="evenodd"/><path d="M245 407.928 219 447.921" stroke="#000000" stroke-width="2.00035" stroke-miterlimit="8" fill="none" fill-rule="evenodd"/><path d="M220 406.928 258 427.925" stroke="#000000" stroke-width="2.00035" stroke-miterlimit="8" fill="none" fill-rule="evenodd"/><path d="M245 407.928 207 426.925" stroke="#000000" stroke-width="2.00035" stroke-miterlimit="8" fill="none" fill-rule="evenodd"/><path d="M207 427.924 245 447.921" stroke="#000000" stroke-width="2.00035" stroke-miterlimit="8" fill="none" fill-rule="evenodd"/><path d="M220 406.928 207 426.925" stroke="#000000" stroke-width="2.00035" stroke-miterlimit="8" fill="none" fill-rule="evenodd"/><path d="M245 407.928 257 427.924" stroke="#000000" stroke-width="2.00035" stroke-miterlimit="8" fill="none" fill-rule="evenodd"/><path d="M258 427.924 220 447.921" stroke="#000000" stroke-width="2.00035" stroke-miterlimit="8" fill="none" fill-rule="evenodd"/><path d="M207 427.924 219 447.921" stroke="#000000" stroke-width="2.00035" stroke-miterlimit="8" fill="none" fill-rule="evenodd"/><path d="M257 427.924 245 447.921" stroke="#000000" stroke-width="2.00035" stroke-miterlimit="8" fill="none" fill-rule="evenodd"/><path d="M215 407.428C215 404.943 217.015 402.929 219.5 402.929 221.985 402.929 224 404.943 224 407.428 224 409.913 221.985 411.927 219.5 411.927 217.015 411.927 215 409.913 215 407.428Z" stroke="#FFFFFF" stroke-width="2.00035" stroke-miterlimit="8" fill-rule="evenodd"/><path d="M240 407.428C240 404.943 242.015 402.929 244.5 402.929 246.985 402.929 249 404.943 249 407.428 249 409.913 246.985 411.927 244.5 411.927 242.015 411.927 240 409.913 240 407.428Z" stroke="#FFFFFF" stroke-width="2.00035" stroke-miterlimit="8" fill-rule="evenodd"/><path d="M203 427.425C203 424.94 205.015 422.925 207.5 422.925 209.985 422.925 212 424.94 212 427.425 212 429.909 209.985 431.924 207.5 431.924 205.015 431.924 203 429.909 203 427.425Z" stroke="#FFFFFF" stroke-width="2.00035" stroke-miterlimit="8" fill-rule="evenodd"/><path d="M228 427.425C228 424.94 230.015 422.925 232.5 422.925 234.985 422.925 237 424.94 237 427.425 237 429.909 234.985 431.924 232.5 431.924 230.015 431.924 228 429.909 228 427.425Z" stroke="#FFFFFF" stroke-width="2.00035" stroke-miterlimit="8" fill-rule="evenodd"/><path d="M253 427.425C253 424.94 255.015 422.925 257.5 422.925 259.985 422.925 262 424.94 262 427.425 262 429.909 259.985 431.924 257.5 431.924 255.015 431.924 253 429.909 253 427.425Z" stroke="#FFFFFF" stroke-width="2.00035" stroke-miterlimit="8" fill-rule="evenodd"/><path d="M215 447.421C215 444.936 217.015 442.922 219.5 442.922 221.985 442.922 224 444.936 224 447.421 224 449.906 221.985 451.92 219.5 451.92 217.015 451.92 215 449.906 215 447.421Z" stroke="#FFFFFF" stroke-width="2.00035" stroke-miterlimit="8" fill-rule="evenodd"/><path d="M240 447.421C240 444.936 242.015 442.922 244.5 442.922 246.985 442.922 249 444.936 249 447.421 249 449.906 246.985 451.92 244.5 451.92 242.015 451.92 240 449.906 240 447.421Z" stroke="#FFFFFF" stroke-width="2.00035" stroke-miterlimit="8" fill-rule="evenodd"/><text font-family="Calibri,Calibri_MSFontService,sans-serif" font-weight="700" font-size="14.6667" transform="matrix(1 0 0 0.999824 221.005 400)">SFT</text><path d="M464 115.524C464 112.463 466.483 109.981 469.545 109.981L594.455 109.981C597.518 109.981 600 112.463 600 115.524L600 176.424C600 179.486 597.518 181.968 594.455 181.968L469.545 181.968C466.483 181.968 464 179.486 464 176.424Z" fill="#CAE5F2" fill-rule="evenodd"/><path d="M522 129.477C522 123.679 526.477 118.979 532 118.979 537.523 118.979 542 123.679 542 129.477 542 135.275 537.523 139.975 532 139.975 526.477 139.975 522 135.275 522 129.477Z" stroke="#000000" stroke-width="2.00035" stroke-miterlimit="8" fill="none" fill-rule="evenodd"/><path d="M536.176 122.846C535.604 122.299 535.517 121.463 535.981 120.977 536.445 120.491 537.285 120.54 537.857 121.087 538.429 121.633 538.516 122.47 538.052 122.956 537.588 123.441 536.748 123.392 536.176 122.846Z" stroke="#000000" stroke-width="2.00017" stroke-miterlimit="8" fill="none" fill-rule="evenodd"/><path d="M536.911 129.659C536.978 128.65 537.693 127.876 538.508 127.93 539.323 127.984 539.93 128.845 539.863 129.854 539.797 130.863 539.082 131.637 538.267 131.584 537.451 131.53 536.845 130.668 536.911 129.659Z" stroke="#000000" stroke-width="2.00035" stroke-miterlimit="8" fill="none" fill-rule="evenodd"/><path d="M527.161 125.58C527.243 124.344 528.33 123.409 529.589 123.492 530.848 123.575 531.802 124.645 531.721 125.881 531.639 127.117 530.552 128.052 529.293 127.969 528.034 127.885 527.08 126.816 527.161 125.58Z" stroke="#000000" stroke-width="2.00035" stroke-miterlimit="8" fill="none" fill-rule="evenodd"/><path d="M526.825 133.257C526.497 132.586 526.65 131.837 527.167 131.584 527.684 131.332 528.369 131.672 528.697 132.343 529.025 133.015 528.872 133.764 528.355 134.017 527.838 134.269 527.153 133.929 526.825 133.257Z" stroke="#000000" stroke-width="2.00028" stroke-miterlimit="8" fill="none" fill-rule="evenodd"/><path d="M533.789 139.975C530.257 139.924 530.188 136.149 532.97 135.229 535.751 134.309 538.617 136.02 537.884 138.479" stroke="#000000" stroke-width="2.00035" stroke-miterlimit="8" fill="none" fill-rule="evenodd"/><text font-family="Calibri,Calibri_MSFontService,sans-serif" font-weight="700" font-size="13.3333" transform="matrix(1 0 0 0.999824 481.009 158)">6</text><text font-family="Yu Gothic,Yu Gothic_MSFontService,sans-serif" font-weight="700" font-size="13.3333" transform="matrix(1 0 0 0.999824 487.844 158)">歳の子供に月面</text><text font-family="Yu Gothic,Yu Gothic_MSFontService,sans-serif" font-weight="700" font-size="13.3333" transform="matrix(1 0 0 0.999824 481.009 174)">着陸を説明する</text><path d="M467 196.132C467 192.727 469.761 189.967 473.167 189.967L522.833 189.967C526.239 189.967 529 192.727 529 196.132L529 220.794C529 224.2 526.239 226.96 522.833 226.96L473.167 226.96C469.761 226.96 467 224.2 467 220.794Z" fill="#F6F6F4" fill-rule="evenodd"/><path d="M537 196.132C537 192.727 539.761 189.967 543.167 189.967L592.833 189.967C596.239 189.967 599 192.727 599 196.132L599 220.794C599 224.2 596.239 226.96 592.833 226.96L543.167 226.96C539.761 226.96 537 224.2 537 220.794Z" fill="#F6F6F4" fill-rule="evenodd"/><path d="M465 243.124C465 238.614 468.656 234.959 473.167 234.959L519.833 234.959C524.344 234.959 528 238.614 528 243.124L528 275.785C528 280.294 524.344 283.95 519.833 283.95L473.167 283.95C468.656 283.95 465 280.294 465 275.785Z" fill="#F6F6F4" fill-rule="evenodd"/><path d="M537 244.124C537 239.614 540.656 235.958 545.167 235.958L591.833 235.958C596.344 235.958 600 239.614 600 244.124L600 276.784C600 281.294 596.344 284.95 591.833 284.95L545.167 284.95C540.656 284.95 537 281.294 537 276.784Z" fill="#F6F6F4" fill-rule="evenodd"/><path d="M490.5 203.464C490.5 199.599 493.858 196.465 498 196.465 502.142 196.465 505.5 199.599 505.5 203.464 505.5 207.329 502.142 210.463 498 210.463 493.858 210.463 490.5 207.329 490.5 203.464Z" stroke="#172C51" stroke-width="1.33357" stroke-miterlimit="8" fill="#404453" fill-rule="evenodd"/><text fill="#FFFFFF" font-family="Calibri,Calibri_MSFontService,sans-serif" font-weight="700" font-size="14.6667" transform="matrix(1 0 0 0.999824 492.777 208)">A</text><text font-family="Yu Gothic,Yu Gothic_MSFontService,sans-serif" font-weight="700" font-size="8" transform="matrix(1 0 0 0.999824 471.201 222)">重力</text><text font-family="Yu Gothic,Yu Gothic_MSFontService,sans-serif" font-weight="700" font-size="8" transform="matrix(1 0 0 0.999824 487.204 222)">を</text><text font-family="Yu Gothic,Yu Gothic_MSFontService,sans-serif" font-weight="700" font-size="8" transform="matrix(1 0 0 0.999824 495.205 222)">説明</text><text font-family="Yu Gothic,Yu Gothic_MSFontService,sans-serif" font-weight="700" font-size="8" transform="matrix(1 0 0 0.999824 511.208 222)">･･･</text><text font-family="Yu Gothic,Yu Gothic_MSFontService,sans-serif" font-weight="700" font-size="8" transform="matrix(1 0 0 0.999824 541.897 222)">戦争</text><text font-family="Yu Gothic,Yu Gothic_MSFontService,sans-serif" font-weight="700" font-size="8" transform="matrix(1 0 0 0.999824 557.9 222)">を</text><text font-family="Yu Gothic,Yu Gothic_MSFontService,sans-serif" font-weight="700" font-size="8" transform="matrix(1 0 0 0.999824 565.901 222)">説明</text><text font-family="Yu Gothic,Yu Gothic_MSFontService,sans-serif" font-weight="700" font-size="8" transform="matrix(1 0 0 0.999824 581.904 222)">･･･</text><path d="M561.5 203.964C561.5 199.823 564.858 196.465 569 196.465 573.142 196.465 576.5 199.823 576.5 203.964 576.5 208.105 573.142 211.463 569 211.463 564.858 211.463 561.5 208.105 561.5 203.964Z" stroke="#172C51" stroke-width="1.33357" stroke-miterlimit="8" fill="#404453" fill-rule="evenodd"/><text fill="#FFFFFF" font-family="Calibri,Calibri_MSFontService,sans-serif" font-weight="700" font-size="14.6667" transform="matrix(1 0 0 0.999824 564.301 209)">B</text><path d="M489.5 249.456C489.5 245.591 492.858 242.457 497 242.457 501.142 242.457 504.5 245.591 504.5 249.456 504.5 253.321 501.142 256.455 497 256.455 492.858 256.455 489.5 253.321 489.5 249.456Z" stroke="#172C51" stroke-width="1.33357" stroke-miterlimit="8" fill="#404453" fill-rule="evenodd"/><text fill="#FFFFFF" font-family="Calibri,Calibri_MSFontService,sans-serif" font-weight="700" font-size="14.6667" transform="matrix(1 0 0 0.999824 492.783 254)">C</text><path d="M561.5 248.956C561.5 244.815 564.858 241.457 569 241.457 573.142 241.457 576.5 244.815 576.5 248.956 576.5 253.098 573.142 256.455 569 256.455 564.858 256.455 561.5 253.098 561.5 248.956Z" stroke="#172C51" stroke-width="1.33357" stroke-miterlimit="8" fill="#404453" fill-rule="evenodd"/><text fill="#FFFFFF" font-family="Calibri,Calibri_MSFontService,sans-serif" font-weight="700" font-size="14.6667" transform="matrix(1 0 0 0.999824 564.295 254)">D</text><text font-family="Yu Gothic,Yu Gothic_MSFontService,sans-serif" font-weight="700" font-size="8" transform="matrix(1 0 0 0.999824 471.201 269)">月</text><text font-family="Yu Gothic,Yu Gothic_MSFontService,sans-serif" font-weight="700" font-size="8" transform="matrix(1 0 0 0.999824 479.202 269)">は</text><text font-family="Yu Gothic,Yu Gothic_MSFontService,sans-serif" font-weight="700" font-size="8" transform="matrix(1 0 0 0.999824 487.204 269)">衛星</text><text font-family="Yu Gothic,Yu Gothic_MSFontService,sans-serif" font-weight="700" font-size="8" transform="matrix(1 0 0 0.999824 503.207 269)">で</text><text font-family="Yu Gothic,Yu Gothic_MSFontService,sans-serif" font-weight="700" font-size="8" transform="matrix(1 0 0 0.999824 511.208 269)">･･･</text><text font-family="Yu Gothic,Yu Gothic_MSFontService,sans-serif" font-weight="700" font-size="8" transform="matrix(1 0 0 0.999824 546.354 268)">ある人が月に</text><text font-family="Yu Gothic,Yu Gothic_MSFontService,sans-serif" font-weight="700" font-size="8" transform="matrix(1 0 0 0.999824 546.354 278)">行</text><text font-family="Yu Gothic,Yu Gothic_MSFontService,sans-serif" font-weight="700" font-size="8" transform="matrix(1 0 0 0.999824 554.356 278)">きました</text><text font-family="Yu Gothic,Yu Gothic_MSFontService,sans-serif" font-weight="700" font-size="8" transform="matrix(1 0 0 0.999824 586.361 278)">･･･</text><path d="M466 334.068C466 328.476 470.534 323.943 476.127 323.943L591.873 323.943C597.466 323.943 602 328.476 602 334.068L602 412.8C602 418.392 597.466 422.925 591.873 422.925L476.127 422.925C470.534 422.925 466 418.392 466 412.8Z" fill="#F6F6F4" fill-rule="evenodd"/><path d="M511 359.936C511 347.788 520.85 337.94 533 337.94 545.15 337.94 555 347.788 555 359.936 555 372.085 545.15 381.933 533 381.933 520.85 381.933 511 372.085 511 359.936Z" stroke="#000000" stroke-width="2.00035" stroke-miterlimit="8" fill="none" fill-rule="evenodd"/><path d="M516.632 373.449C516.666 373.055 516.118 371.097 517.034 370.748 517.951 370.399 524.857 367.956 526.154 368.519 527.45 369.082 527.808 374.8 533.664 374.935 539.52 375.07 540.313 369.037 541.576 368.721 542.839 368.406 550.695 370.23 550.896 371.018L551.5 373.382C548.773 377.378 539.944 382.421 534.133 382.433 528.322 382.444 517.94 378.301 516.632 373.449Z" stroke="#000000" stroke-width="0.333392" stroke-miterlimit="8" fill-rule="evenodd"/><path d="M528.418 363.789 528.352 365.811C527.343 364.704 525.638 363.497 525.175 360.974 524.855 362.059 525.13 362.536 525.108 363.317 524.502 362.957 521.909 360.564 521.534 359.07 521.158 357.576 524.027 344.353 525.241 343.432 526.454 342.511 527.194 341.915 528.816 341.41 530.438 340.904 530.371 339.028 534.641 339.522 538.911 340.017 542.828 345.443 543.711 348.42 544.594 351.397 545.543 357.52 545.498 359.003 545.454 360.486 542.442 363.834 541.857 364.193L542.718 361.632C541.35 362.867 540.478 364.76 538.614 365.339L539.607 362.98C538.757 363.204 535.977 366.502 533.417 366.434 530.857 366.367 529.279 363.935 528.418 363.789Z" stroke="#000000" stroke-width="0.333392" stroke-miterlimit="8" fill-rule="evenodd"/><path d="M533.559 365.435C531.438 365.478 527.512 362.802 526.876 360.439 526.24 358.075 526.629 352.407 526.518 350.941L527.644 351.305C528.046 349.874 528.293 348.078 529.898 346.673 529.232 348.156 528.566 350.004 529.002 351.149L530.973 351.227C531.212 349.787 531.349 348.269 531.869 346.829 531.596 348.703 531.63 350.212 531.895 351.435L532.433 351.279C532.142 349.848 532.569 347.974 532.74 346.439 532.484 348.92 532.791 351.036 533.278 351.383L536.197 351.019C535.838 350.099 535.172 349.518 535.121 348.26 535.787 349.457 536.273 350.524 537.426 350.446 537.298 349.761 537.118 349.102 537.042 348.391 537.955 350.108 539.124 351.045 540.294 351.357 540.268 353.881 540.904 358.847 540.063 360.959 539.222 363.071 535.68 365.392 533.559 365.435Z" stroke="#000000" stroke-width="0.333392" stroke-miterlimit="8" fill="#FFFFFF" fill-rule="evenodd"/><path d="M540.5 398.93C540.5 394.788 543.858 391.431 548 391.431 552.142 391.431 555.5 394.788 555.5 398.93 555.5 403.071 552.142 406.428 548 406.428 543.858 406.428 540.5 403.071 540.5 398.93Z" stroke="#172C51" stroke-width="1.33357" stroke-miterlimit="8" fill="#404453" fill-rule="evenodd"/><text fill="#FFFFFF" font-family="Calibri,Calibri_MSFontService,sans-serif" font-weight="700" font-size="14.6667" transform="matrix(1 0 0 0.999824 542.833 403)">A</text><path d="M568.5 398.93C568.5 394.788 571.858 391.431 576 391.431 580.142 391.431 583.5 394.788 583.5 398.93 583.5 403.071 580.142 406.428 576 406.428 571.858 406.428 568.5 403.071 568.5 398.93Z" stroke="#172C51" stroke-width="1.33357" stroke-miterlimit="8" fill="#404453" fill-rule="evenodd"/><text fill="#FFFFFF" font-family="Calibri,Calibri_MSFontService,sans-serif" font-weight="700" font-size="14.6667" transform="matrix(1 0 0 0.999824 571.099 403)">B</text><path d="M512.5 398.93C512.5 394.788 515.634 391.431 519.5 391.431 523.366 391.431 526.5 394.788 526.5 398.93 526.5 403.071 523.366 406.428 519.5 406.428 515.634 406.428 512.5 403.071 512.5 398.93Z" stroke="#172C51" stroke-width="1.33357" stroke-miterlimit="8" fill="#404453" fill-rule="evenodd"/><text fill="#FFFFFF" font-family="Calibri,Calibri_MSFontService,sans-serif" font-weight="700" font-size="14.6667" transform="matrix(1 0 0 0.999824 515.03 403)">C</text><path d="M482.5 398.93C482.5 394.788 485.858 391.431 490 391.431 494.142 391.431 497.5 394.788 497.5 398.93 497.5 403.071 494.142 406.428 490 406.428 485.858 406.428 482.5 403.071 482.5 398.93Z" stroke="#172C51" stroke-width="1.33357" stroke-miterlimit="8" fill="#404453" fill-rule="evenodd"/><text fill="#FFFFFF" font-family="Calibri,Calibri_MSFontService,sans-serif" font-weight="700" font-size="14.6667" transform="matrix(1 0 0 0.999824 484.577 403)">D</text><text font-family="Yu Gothic,Yu Gothic_MSFontService,sans-serif" font-weight="700" font-size="10.6667" transform="matrix(1 0 0 0.999824 499.793 403)">＞</text><text font-family="Yu Gothic,Yu Gothic_MSFontService,sans-serif" font-weight="700" font-size="10.6667" transform="matrix(1 0 0 0.999824 528.425 403)">＞</text><text font-family="Calibri,Calibri_MSFontService,sans-serif" font-weight="700" font-size="10.6667" transform="matrix(1 0 0 0.999824 558.501 402)">=</text><path d="M599 287.949C599 292.643 594.869 296.448 589.773 296.448L541.227 296.448C536.131 296.448 532 300.253 532 304.946 532 300.253 527.869 296.448 522.773 296.448L474.227 296.448C469.131 296.448 465 292.643 465 287.949" stroke="#8E8EA0" stroke-width="2" stroke-miterlimit="8" fill="none" fill-rule="evenodd"/><path d="M534 303.946 534 312.277 532 312.277 532 303.946ZM537.001 310.944 533 318.944 528.999 310.944Z" fill="#8E8EA0"/><path d="M534.167 426.425 534.167 451.752 532.833 451.752 532.833 426.425ZM537.501 450.419 533.5 458.419 529.499 450.419Z" fill="#01B7FF"/><path d="M465 469.164C465 465.162 468.244 461.919 472.246 461.919L591.754 461.919C595.756 461.919 599 465.162 599 469.164L599 563.654C599 567.656 595.756 570.899 591.754 570.899L472.246 570.899C468.244 570.899 465 567.656 465 563.654Z" fill="#F6F6F4" fill-rule="evenodd"/><path d="M540.5 551.903C540.5 547.761 543.858 544.404 548 544.404 552.142 544.404 555.5 547.761 555.5 551.903 555.5 556.044 552.142 559.401 548 559.401 543.858 559.401 540.5 556.044 540.5 551.903Z" stroke="#172C51" stroke-width="1.33357" stroke-miterlimit="8" fill="#404453" fill-rule="evenodd"/><text fill="#FFFFFF" font-family="Calibri,Calibri_MSFontService,sans-serif" font-weight="700" font-size="14.6667" transform="matrix(1 0 0 0.999824 543.039 557)">A</text><path d="M568.5 551.903C568.5 547.761 571.858 544.404 576 544.404 580.142 544.404 583.5 547.761 583.5 551.903 583.5 556.044 580.142 559.401 576 559.401 571.858 559.401 568.5 556.044 568.5 551.903Z" stroke="#172C51" stroke-width="1.33357" stroke-miterlimit="8" fill="#404453" fill-rule="evenodd"/><text fill="#FFFFFF" font-family="Calibri,Calibri_MSFontService,sans-serif" font-weight="700" font-size="14.6667" transform="matrix(1 0 0 0.999824 571.305 557)">B</text><path d="M512.5 551.903C512.5 547.761 515.858 544.404 520 544.404 524.142 544.404 527.5 547.761 527.5 551.903 527.5 556.044 524.142 559.401 520 559.401 515.858 559.401 512.5 556.044 512.5 551.903Z" stroke="#172C51" stroke-width="1.33357" stroke-miterlimit="8" fill="#404453" fill-rule="evenodd"/><text fill="#FFFFFF" font-family="Calibri,Calibri_MSFontService,sans-serif" font-weight="700" font-size="14.6667" transform="matrix(1 0 0 0.999824 515.236 557)">C</text><path d="M482.5 551.903C482.5 547.761 485.858 544.404 490 544.404 494.142 544.404 497.5 547.761 497.5 551.903 497.5 556.044 494.142 559.401 490 559.401 485.858 559.401 482.5 556.044 482.5 551.903Z" stroke="#172C51" stroke-width="1.33357" stroke-miterlimit="8" fill="#404453" fill-rule="evenodd"/><text fill="#FFFFFF" font-family="Calibri,Calibri_MSFontService,sans-serif" font-weight="700" font-size="14.6667" transform="matrix(1 0 0 0.999824 484.782 557)">D</text><text font-family="Yu Gothic,Yu Gothic_MSFontService,sans-serif" font-weight="700" font-size="10.6667" transform="matrix(1 0 0 0.999824 499.998 557)">＞</text><text font-family="Yu Gothic,Yu Gothic_MSFontService,sans-serif" font-weight="700" font-size="10.6667" transform="matrix(1 0 0 0.999824 528.631 557)">＞</text><text font-family="Calibri,Calibri_MSFontService,sans-serif" font-weight="700" font-size="10.6667" transform="matrix(1 0 0 0.999824 558.706 556)">=</text><path d="M519 488.914 545 527.907" stroke="#000000" stroke-width="2.00035" stroke-miterlimit="8" fill="none" fill-rule="evenodd"/><path d="M545 487.914 519 528.907" stroke="#000000" stroke-width="2.00035" stroke-miterlimit="8" fill="none" fill-rule="evenodd"/><path d="M520 487.914 558 507.91" stroke="#000000" stroke-width="2.00035" stroke-miterlimit="8" fill="none" fill-rule="evenodd"/><path d="M545 487.914 507 507.91" stroke="#000000" stroke-width="2.00035" stroke-miterlimit="8" fill="none" fill-rule="evenodd"/><path d="M507 507.91 544 528.907" stroke="#000000" stroke-width="2.00035" stroke-miterlimit="8" fill="none" fill-rule="evenodd"/><path d="M520 487.914 507 507.91" stroke="#000000" stroke-width="2.00035" stroke-miterlimit="8" fill="none" fill-rule="evenodd"/><path d="M545 488.914 557 508.91" stroke="#000000" stroke-width="2.00035" stroke-miterlimit="8" fill="none" fill-rule="evenodd"/><path d="M558 508.91 520 528.907" stroke="#000000" stroke-width="2.00035" stroke-miterlimit="8" fill="none" fill-rule="evenodd"/><path d="M507 508.91 519 528.907" stroke="#000000" stroke-width="2.00035" stroke-miterlimit="8" fill="none" fill-rule="evenodd"/><path d="M557 508.91 545 528.907" stroke="#000000" stroke-width="2.00035" stroke-miterlimit="8" fill="none" fill-rule="evenodd"/><path d="M515 488.414C515 485.929 517.015 483.915 519.5 483.915 521.985 483.915 524 485.929 524 488.414 524 490.899 521.985 492.913 519.5 492.913 517.015 492.913 515 490.899 515 488.414Z" stroke="#FFFFFF" stroke-width="2.00035" stroke-miterlimit="8" fill-rule="evenodd"/><path d="M540 488.414C540 485.929 542.015 483.915 544.5 483.915 546.985 483.915 549 485.929 549 488.414 549 490.899 546.985 492.913 544.5 492.913 542.015 492.913 540 490.899 540 488.414Z" stroke="#FFFFFF" stroke-width="2.00035" stroke-miterlimit="8" fill-rule="evenodd"/><path d="M503 508.41C503 505.925 505.015 503.911 507.5 503.911 509.985 503.911 512 505.925 512 508.41 512 510.895 509.985 512.909 507.5 512.909 505.015 512.909 503 510.895 503 508.41Z" stroke="#FFFFFF" stroke-width="2.00035" stroke-miterlimit="8" fill-rule="evenodd"/><path d="M528 508.41C528 505.925 530.015 503.911 532.5 503.911 534.985 503.911 537 505.925 537 508.41 537 510.895 534.985 512.909 532.5 512.909 530.015 512.909 528 510.895 528 508.41Z" stroke="#FFFFFF" stroke-width="2.00035" stroke-miterlimit="8" fill-rule="evenodd"/><path d="M553 508.41C553 505.925 555.015 503.911 557.5 503.911 559.985 503.911 562 505.925 562 508.41 562 510.895 559.985 512.909 557.5 512.909 555.015 512.909 553 510.895 553 508.41Z" stroke="#FFFFFF" stroke-width="2.00035" stroke-miterlimit="8" fill-rule="evenodd"/><path d="M515 527.907C515 525.146 516.791 522.908 519 522.908 521.209 522.908 523 525.146 523 527.907 523 530.668 521.209 532.906 519 532.906 516.791 532.906 515 530.668 515 527.907Z" stroke="#FFFFFF" stroke-width="2.00035" stroke-miterlimit="8" fill-rule="evenodd"/><path d="M540 527.907C540 525.146 542.015 522.908 544.5 522.908 546.985 522.908 549 525.146 549 527.907 549 530.668 546.985 532.906 544.5 532.906 542.015 532.906 540 530.668 540 527.907Z" stroke="#FFFFFF" stroke-width="2.00035" stroke-miterlimit="8" fill-rule="evenodd"/><text font-family="Calibri,Calibri_MSFontService,sans-serif" font-weight="700" font-size="14.6667" transform="matrix(1 0 0 0.999824 522.015 480)">RM</text><path d="M769 114.406C769 110.858 771.877 107.981 775.426 107.981L899.574 107.981C903.123 107.981 906 110.858 906 114.406L906 175.543C906 179.091 903.123 181.968 899.574 181.968L775.426 181.968C771.877 181.968 769 179.091 769 175.543Z" fill="#CAE5F2" fill-rule="evenodd"/><path d="M769 219.082C769 215.15 772.188 211.963 776.121 211.963L898.879 211.963C902.812 211.963 906 215.15 906 219.082L906 286.828C906 290.761 902.812 293.948 898.879 293.948L776.121 293.948C772.188 293.948 769 290.761 769 286.828Z" fill="#F6F6F4" fill-rule="evenodd"/><path d="M768 329.633C768 326.491 770.548 323.943 773.691 323.943L898.309 323.943C901.452 323.943 904 326.491 904 329.633L904 366.244C904 369.387 901.452 371.934 898.309 371.934L773.691 371.934C770.548 371.934 768 369.387 768 366.244Z" fill="#F6F6F4" fill-rule="evenodd"/><path d="M770 409.049C770 405.117 773.188 401.929 777.121 401.929L898.879 401.929C902.812 401.929 906 405.117 906 409.049L906 476.795C906 480.727 902.812 483.915 898.879 483.915L777.121 483.915C773.188 483.915 770 480.727 770 476.795Z" fill="#F6F6F4" fill-rule="evenodd"/><path d="M769 517.077C769 514.775 770.866 512.909 773.168 512.909L901.832 512.909C904.134 512.909 906 514.775 906 517.077L906 556.734C906 559.035 904.134 560.901 901.832 560.901L773.168 560.901C770.866 560.901 769 559.035 769 556.734Z" fill="#F6F6F4" fill-rule="evenodd"/><text font-family="Cambria Math,Cambria Math_MSFontService,sans-serif" font-weight="400" font-size="24" transform="matrix(1 0 0 0.999824 824.113 546)">𝑟</text><text font-family="Cambria Math,Cambria Math_MSFontService,sans-serif" font-weight="400" font-size="17.52" transform="matrix(1 0 0 0.999824 832.808 550)">𝑘</text><path d="M825 239.958 851 278.951" stroke="#000000" stroke-width="2.00035" stroke-miterlimit="8" fill="none" fill-rule="evenodd"/><path d="M851 238.958 825 278.951" stroke="#000000" stroke-width="2.00035" stroke-miterlimit="8" fill="none" fill-rule="evenodd"/><path d="M825 238.958 863 258.954" stroke="#000000" stroke-width="2.00035" stroke-miterlimit="8" fill="none" fill-rule="evenodd"/><path d="M851 238.958 813 258.954" stroke="#000000" stroke-width="2.00035" stroke-miterlimit="8" fill="none" fill-rule="evenodd"/><path d="M812 258.954 850 279.951" stroke="#000000" stroke-width="2.00035" stroke-miterlimit="8" fill="none" fill-rule="evenodd"/><path d="M825 238.958 813 258.954" stroke="#000000" stroke-width="2.00035" stroke-miterlimit="8" fill="none" fill-rule="evenodd"/><path d="M850 239.958 863 259.954" stroke="#000000" stroke-width="2.00035" stroke-miterlimit="8" fill="none" fill-rule="evenodd"/><path d="M863 259.954 825 279.951" stroke="#000000" stroke-width="2.00035" stroke-miterlimit="8" fill="none" fill-rule="evenodd"/><path d="M813 259.954 825 279.951" stroke="#000000" stroke-width="2.00035" stroke-miterlimit="8" fill="none" fill-rule="evenodd"/><path d="M863 259.954 850 279.951" stroke="#000000" stroke-width="2.00035" stroke-miterlimit="8" fill="none" fill-rule="evenodd"/><path d="M820 239.458C820 236.973 822.015 234.959 824.5 234.959 826.985 234.959 829 236.973 829 239.458 829 241.943 826.985 243.957 824.5 243.957 822.015 243.957 820 241.943 820 239.458Z" stroke="#FFFFFF" stroke-width="2.00035" stroke-miterlimit="8" fill-rule="evenodd"/><path d="M846 239.458C846 236.973 848.015 234.959 850.5 234.959 852.985 234.959 855 236.973 855 239.458 855 241.943 852.985 243.957 850.5 243.957 848.015 243.957 846 241.943 846 239.458Z" stroke="#FFFFFF" stroke-width="2.00035" stroke-miterlimit="8" fill-rule="evenodd"/><path d="M808 258.954C808 256.193 810.015 253.955 812.5 253.955 814.985 253.955 817 256.193 817 258.954 817 261.715 814.985 263.953 812.5 263.953 810.015 263.953 808 261.715 808 258.954Z" stroke="#FFFFFF" stroke-width="2.00035" stroke-miterlimit="8" fill-rule="evenodd"/><path d="M834 258.954C834 256.193 836.015 253.955 838.5 253.955 840.985 253.955 843 256.193 843 258.954 843 261.715 840.985 263.953 838.5 263.953 836.015 263.953 834 261.715 834 258.954Z" stroke="#FFFFFF" stroke-width="2.00035" stroke-miterlimit="8" fill-rule="evenodd"/><path d="M858 258.954C858 256.193 860.015 253.955 862.5 253.955 864.985 253.955 867 256.193 867 258.954 867 261.715 864.985 263.953 862.5 263.953 860.015 263.953 858 261.715 858 258.954Z" stroke="#FFFFFF" stroke-width="2.00035" stroke-miterlimit="8" fill-rule="evenodd"/><path d="M820 278.951C820 276.19 822.015 273.952 824.5 273.952 826.985 273.952 829 276.19 829 278.951 829 281.712 826.985 283.95 824.5 283.95 822.015 283.95 820 281.712 820 278.951Z" stroke="#FFFFFF" stroke-width="2.00035" stroke-miterlimit="8" fill-rule="evenodd"/><path d="M846 278.951C846 276.19 848.015 273.952 850.5 273.952 852.985 273.952 855 276.19 855 278.951 855 281.712 852.985 283.95 850.5 283.95 848.015 283.95 846 281.712 846 278.951Z" stroke="#FFFFFF" stroke-width="2.00035" stroke-miterlimit="8" fill-rule="evenodd"/><path d="M825 429.924 850 469.917" stroke="#000000" stroke-width="2.00035" stroke-miterlimit="8" fill="none" fill-rule="evenodd"/><path d="M850 429.924 824 469.917" stroke="#000000" stroke-width="2.00035" stroke-miterlimit="8" fill="none" fill-rule="evenodd"/><path d="M825 429.924 863 449.921" stroke="#000000" stroke-width="2.00035" stroke-miterlimit="8" fill="none" fill-rule="evenodd"/><path d="M850 429.924 812 448.921" stroke="#000000" stroke-width="2.00035" stroke-miterlimit="8" fill="none" fill-rule="evenodd"/><path d="M812 449.921 850 470.917" stroke="#000000" stroke-width="2.00035" stroke-miterlimit="8" fill="none" fill-rule="evenodd"/><path d="M825 429.924 812 448.921" stroke="#000000" stroke-width="2.00035" stroke-miterlimit="8" fill="none" fill-rule="evenodd"/><path d="M850 429.924 863 449.921" stroke="#000000" stroke-width="2.00035" stroke-miterlimit="8" fill="none" fill-rule="evenodd"/><path d="M863 450.92 825 469.917" stroke="#000000" stroke-width="2.00035" stroke-miterlimit="8" fill="none" fill-rule="evenodd"/><path d="M812 450.92 824 470.917" stroke="#000000" stroke-width="2.00035" stroke-miterlimit="8" fill="none" fill-rule="evenodd"/><path d="M862 449.921 850 470.917" stroke="#000000" stroke-width="2.00035" stroke-miterlimit="8" fill="none" fill-rule="evenodd"/><path d="M820 429.924C820 427.163 822.015 424.925 824.5 424.925 826.985 424.925 829 427.163 829 429.924 829 432.685 826.985 434.923 824.5 434.923 822.015 434.923 820 432.685 820 429.924Z" stroke="#FFFFFF" stroke-width="2.00035" stroke-miterlimit="8" fill-rule="evenodd"/><path d="M846 429.924C846 427.163 847.791 424.925 850 424.925 852.209 424.925 854 427.163 854 429.924 854 432.685 852.209 434.923 850 434.923 847.791 434.923 846 432.685 846 429.924Z" stroke="#FFFFFF" stroke-width="2.00035" stroke-miterlimit="8" fill-rule="evenodd"/><path d="M808 449.921C808 447.16 810.015 444.921 812.5 444.921 814.985 444.921 817 447.16 817 449.921 817 452.682 814.985 454.92 812.5 454.92 810.015 454.92 808 452.682 808 449.921Z" stroke="#FFFFFF" stroke-width="2.00035" stroke-miterlimit="8" fill-rule="evenodd"/><path d="M834 449.921C834 447.16 835.791 444.921 838 444.921 840.209 444.921 842 447.16 842 449.921 842 452.682 840.209 454.92 838 454.92 835.791 454.92 834 452.682 834 449.921Z" stroke="#FFFFFF" stroke-width="2.00035" stroke-miterlimit="8" fill-rule="evenodd"/><path d="M858 449.921C858 447.16 860.015 444.921 862.5 444.921 864.985 444.921 867 447.16 867 449.921 867 452.682 864.985 454.92 862.5 454.92 860.015 454.92 858 452.682 858 449.921Z" stroke="#FFFFFF" stroke-width="2.00035" stroke-miterlimit="8" fill-rule="evenodd"/><path d="M820 469.417C820 466.932 822.015 464.918 824.5 464.918 826.985 464.918 829 466.932 829 469.417 829 471.902 826.985 473.916 824.5 473.916 822.015 473.916 820 471.902 820 469.417Z" stroke="#FFFFFF" stroke-width="2.00035" stroke-miterlimit="8" fill-rule="evenodd"/><path d="M845 469.417C845 466.932 847.015 464.918 849.5 464.918 851.985 464.918 854 466.932 854 469.417 854 471.902 851.985 473.916 849.5 473.916 847.015 473.916 845 471.902 845 469.417Z" stroke="#FFFFFF" stroke-width="2.00035" stroke-miterlimit="8" fill-rule="evenodd"/><text font-family="Calibri,Calibri_MSFontService,sans-serif" font-weight="700" font-size="14.6667" transform="matrix(1 0 0 0.999824 828.153 423)">RM</text><text font-family="Calibri,Calibri_MSFontService,sans-serif" font-weight="700" font-size="14.6667" transform="matrix(1 0 0 0.999824 824.728 234)">PPO</text><path d="M829.489 137.622C829.483 136.794 830.751 136.996 831.234 136.817 831.716 136.639 832.376 136.76 832.382 136.551 832.011 136.22 831.166 136.491 831.243 135.782 831.321 135.073 832.142 135.686 832.453 135.826L833.214 136.231 833.96 135.75C834.104 135.343 834.076 134.161 834.232 133.514 834.388 132.867 834.846 132.119 834.896 131.869 834.946 131.619 834.062 131.113 833.745 130.68 833.428 130.247 833.42 129.695 832.992 129.27 832.563 128.845 831.77 128.657 831.172 128.13 830.574 127.602 830.099 126.907 829.404 126.106 828.708 125.305 826.992 124.857 827 123.323 827.008 121.789 828.958 122.685 829.293 122.072 829.628 121.459 830.348 120.935 831.05 120.982 831.753 121.028 832.033 121.943 833.506 122.351 834.978 122.758 838.926 123.265 839.886 123.427 840.846 123.59 842.487 125.56 843.683 126.64L845.173 127.153C844.772 128.546 843.455 130.383 843.865 131.582 843.997 131.657 845.007 126.668 846.302 126.716 847.597 126.764 846.675 128.758 846.769 129.537L846.863 131.389C846.694 132.062 845.833 132.828 845.754 133.577 845.676 134.327 847.048 135.522 846.393 135.886 845.737 136.25 845.592 134.542 845.118 134.759 844.634 134.867 844.972 136.805 843.89 136.936 842.808 137.067 843.933 135.253 843.806 134.877 843.645 134.534 842.465 135.271 842.529 134.488 842.593 133.705 844.149 134.555 844.815 134.014 845.401 133.544 846.217 132.107 846.159 131.301 845.681 132.162 845.047 133.492 844.437 133.844 843.826 134.196 843.4 133.842 842.495 133.438 841.589 133.035 842.902 129.677 843.087 129.256 842.258 129.329 842.184 131.627 841.873 132.243 841.561 132.859 838.197 132.694 837.295 132.452 836.392 132.21 836.823 131.376 836.459 130.788 836.095 130.201 835.75 129.39 835.108 128.927 835.677 129.958 835.984 130.823 836.422 131.771 836.293 132.765 835.748 134.903 835.588 135.805 835.429 136.706 835.747 136.878 835.464 137.18 835.181 137.482 834.535 137.341 833.888 137.618 833.242 137.895 832.181 139.428 831.588 138.844 830.994 138.26 832.98 137.891 832.525 137.618 832.166 137.44 829.495 138.45 829.489 137.622Z" fill-rule="evenodd"/><path d="M833 129.753C832.925 129.673 832.207 129.01 831.801 128.979 831.394 128.948 831.335 129.388 830.562 129.566 829.789 129.744 826.663 129.106 827.03 129.833 827.397 130.56 828.831 129.957 828.967 130.246 829.103 130.535 826.628 131.543 827.583 131.834 828.539 132.125 829.051 131.14 829.56 130.953 830.07 130.767 830.254 130.793 830.641 130.713 830.751 130.891 829.69 131.425 830.193 131.887 830.696 132.35 831.372 130.882 831.84 130.526 832.308 130.171 832.574 129.984 833 129.753Z" fill-rule="evenodd"/><text font-family="Yu Gothic,Yu Gothic_MSFontService,sans-serif" font-weight="700" font-size="13.3333" transform="matrix(1 0 0 0.999824 792.047 155)">かえるに関する</text><text font-family="Yu Gothic,Yu Gothic_MSFontService,sans-serif" font-weight="700" font-size="13.3333" transform="matrix(1 0 0 0.999824 792.047 171)">物語を書く</text><text font-family="Yu Gothic,Yu Gothic_MSFontService,sans-serif" font-weight="700" font-size="13.3333" transform="matrix(1 0 0 0.999824 785.849 352)">むかしむかし</text><text font-family="Yu Gothic,Yu Gothic_MSFontService,sans-serif" font-weight="700" font-size="13.3333" transform="matrix(1 0 0 0.999824 865.863 352)">･･･</text><path d="M839 483.915 839 503.243 837 503.243 837 483.915ZM842.001 501.91 838 509.91 833.999 501.91Z" fill="#8E8EA0"/><path d="M839 373.934 839 393.263 837 393.263 837 373.934ZM842.001 391.929 838 399.929 833.999 391.929Z" fill="#8E8EA0"/><path d="M839 294.948 839 314.277 837 314.277 837 294.948ZM842.001 312.943 838 320.943 833.999 312.943Z" fill="#8E8EA0"/><path d="M839 183.968 839 203.296 837 203.296 837 183.968ZM842.001 201.963 838 209.963 833.999 201.963Z" fill="#8E8EA0"/><path d="M909.814 536.905 933 536.905 932 537.905 932 251.956 933 252.956 915.668 252.956 915.668 250.956 934 250.956 934 538.905 909.814 538.905ZM917.001 255.956 909 251.956 917.001 247.956Z" fill="#0FB7FF"/><text font-family="Calibri,Calibri_MSFontService,sans-serif" font-weight="700" font-size="16" transform="matrix(1 0 0 0.999824 12.566 31)">Step1</text><text font-family="Yu Gothic,Yu Gothic_MSFontService,sans-serif" font-weight="700" font-size="16" transform="matrix(1 0 0 0.999824 12.566 50)">デモデータを集め</text><text font-family="Yu Gothic,Yu Gothic_MSFontService,sans-serif" font-weight="700" font-size="16" transform="matrix(1 0 0 0.999824 12.566 69)">教師あり学習で</text><text font-family="Yu Gothic,Yu Gothic_MSFontService,sans-serif" font-weight="700" font-size="16" transform="matrix(1 0 0 0.999824 12.566 88)">ポリシーを訓練する</text><text font-family="Yu Gothic,Yu Gothic_MSFontService,sans-serif" font-weight="700" font-size="14.6667" transform="matrix(1 0 0 0.999824 12.566 127)">プロンプト・</text><text font-family="Yu Gothic,Yu Gothic_MSFontService,sans-serif" font-weight="700" font-size="14.6667" transform="matrix(1 0 0 0.999824 12.566 144)">データセット</text><text font-family="Yu Gothic,Yu Gothic_MSFontService,sans-serif" font-weight="700" font-size="14.6667" transform="matrix(1 0 0 0.999824 12.566 162)">からプロンプトを</text><text font-family="Yu Gothic,Yu Gothic_MSFontService,sans-serif" font-weight="700" font-size="14.6667" transform="matrix(1 0 0 0.999824 12.566 179)">サンプルする</text><text font-family="Yu Gothic,Yu Gothic_MSFontService,sans-serif" font-weight="700" font-size="14.6667" transform="matrix(1 0 0 0.999824 12.566 238)">ラベラーは望ましい</text><text font-family="Yu Gothic,Yu Gothic_MSFontService,sans-serif" font-weight="700" font-size="14.6667" transform="matrix(1 0 0 0.999824 12.566 255)">出力動作をデモする</text><text font-family="Yu Gothic,Yu Gothic_MSFontService,sans-serif" font-weight="700" font-size="14.6667" transform="matrix(1 0 0 0.999824 12.566 390)">データは教師あり</text><text font-family="Yu Gothic,Yu Gothic_MSFontService,sans-serif" font-weight="700" font-size="14.6667" transform="matrix(1 0 0 0.999824 12.566 407)">学習で</text><text font-family="Calibri,Calibri_MSFontService,sans-serif" font-weight="700" font-size="14.6667" transform="matrix(1 0 0 0.999824 56.5738 407)">GPT</text><text font-family="Calibri,Calibri_MSFontService,sans-serif" font-weight="700" font-size="14.6667" transform="matrix(1 0 0 0.999824 81.0781 407)">-</text><text font-family="Calibri,Calibri_MSFontService,sans-serif" font-weight="700" font-size="14.6667" transform="matrix(1 0 0 0.999824 85.5789 407)">3</text><text font-family="Yu Gothic,Yu Gothic_MSFontService,sans-serif" font-weight="700" font-size="14.6667" transform="matrix(1 0 0 0.999824 93.0802 407)">を</text><text font-family="Yu Gothic,Yu Gothic_MSFontService,sans-serif" font-weight="700" font-size="14.6667" transform="matrix(1 0 0 0.999824 12.566 425)">ファインチューニング</text><text font-family="Calibri,Calibri_MSFontService,sans-serif" font-weight="700" font-size="14.6667" transform="matrix(1 0 0 0.999824 12.566 442)">(</text><text font-family="Yu Gothic,Yu Gothic_MSFontService,sans-serif" font-weight="700" font-size="14.6667" transform="matrix(1 0 0 0.999824 17.0668 442)">微調整</text><text font-family="Calibri,Calibri_MSFontService,sans-serif" font-weight="700" font-size="14.6667" transform="matrix(1 0 0 0.999824 61.0746 442)">)</text><text font-family="Yu Gothic,Yu Gothic_MSFontService,sans-serif" font-weight="700" font-size="14.6667" transform="matrix(1 0 0 0.999824 65.5753 442)">するのに</text><text font-family="Yu Gothic,Yu Gothic_MSFontService,sans-serif" font-weight="700" font-size="14.6667" transform="matrix(1 0 0 0.999824 12.566 460)">使われる</text><text font-family="Calibri,Calibri_MSFontService,sans-serif" font-weight="700" font-size="16" transform="matrix(1 0 0 0.999824 328.712 31)">Step2</text><text font-family="Yu Gothic,Yu Gothic_MSFontService,sans-serif" font-weight="700" font-size="16" transform="matrix(1 0 0 0.999824 328.712 50)">比較データを集め</text><text font-family="Calibri,Calibri_MSFontService,sans-serif" font-weight="700" font-size="16" transform="matrix(1 0 0 0.999824 456.735 50)">,</text><text font-family="Yu Gothic,Yu Gothic_MSFontService,sans-serif" font-weight="700" font-size="16" transform="matrix(1 0 0 0.999824 328.712 69)">報酬モデルをトレーニングする</text><text font-family="Yu Gothic,Yu Gothic_MSFontService,sans-serif" font-weight="700" font-size="14.6667" transform="matrix(1 0 0 0.999824 328.712 120)">プロンプトと</text><text font-family="Yu Gothic,Yu Gothic_MSFontService,sans-serif" font-weight="700" font-size="14.6667" transform="matrix(1 0 0 0.999824 328.712 137)">いくつかの</text><text font-family="Yu Gothic,Yu Gothic_MSFontService,sans-serif" font-weight="700" font-size="14.6667" transform="matrix(1 0 0 0.999824 328.712 155)">モデル出力が</text><text font-family="Yu Gothic,Yu Gothic_MSFontService,sans-serif" font-weight="700" font-size="14.6667" transform="matrix(1 0 0 0.999824 328.712 172)">サンプルされる</text><text font-family="Yu Gothic,Yu Gothic_MSFontService,sans-serif" font-weight="700" font-size="14.6667" transform="matrix(1 0 0 0.999824 329.448 337)">ラベラーは出力を</text><text font-family="Yu Gothic,Yu Gothic_MSFontService,sans-serif" font-weight="700" font-size="14.6667" transform="matrix(1 0 0 0.999824 329.448 354)">ベストから最悪まで</text><text font-family="Yu Gothic,Yu Gothic_MSFontService,sans-serif" font-weight="700" font-size="14.6667" transform="matrix(1 0 0 0.999824 329.448 372)">ランク付けする</text><text font-family="Yu Gothic,Yu Gothic_MSFontService,sans-serif" font-weight="700" font-size="14.6667" transform="matrix(1 0 0 0.999824 332.733 476)">そのデータは</text><text font-family="Yu Gothic,Yu Gothic_MSFontService,sans-serif" font-weight="700" font-size="14.6667" transform="matrix(1 0 0 0.999824 332.733 493)">報酬モデルの</text><text font-family="Yu Gothic,Yu Gothic_MSFontService,sans-serif" font-weight="700" font-size="14.6667" transform="matrix(1 0 0 0.999824 332.733 511)">訓練に使われる</text><text font-family="Calibri,Calibri_MSFontService,sans-serif" font-weight="700" font-size="16" transform="matrix(1 0 0 0.999824 634.698 31)">Step3</text><text font-family="Yu Gothic,Yu Gothic_MSFontService,sans-serif" font-weight="700" font-size="16" transform="matrix(1 0 0 0.999824 634.698 50)">強化学習を使って</text><text font-family="Yu Gothic,Yu Gothic_MSFontService,sans-serif" font-weight="700" font-size="16" transform="matrix(1 0 0 0.999824 634.698 69)">報酬モデルに対して</text><text font-family="Yu Gothic,Yu Gothic_MSFontService,sans-serif" font-weight="700" font-size="16" transform="matrix(1 0 0 0.999824 634.698 88)">ポリシーを最適化する</text><text font-family="Yu Gothic,Yu Gothic_MSFontService,sans-serif" font-weight="700" font-size="14.6667" transform="matrix(1 0 0 0.999824 634.698 123)">データセットから</text><text font-family="Yu Gothic,Yu Gothic_MSFontService,sans-serif" font-weight="700" font-size="14.6667" transform="matrix(1 0 0 0.999824 634.698 140)">新たなプロンプトを</text><text font-family="Yu Gothic,Yu Gothic_MSFontService,sans-serif" font-weight="700" font-size="14.6667" transform="matrix(1 0 0 0.999824 634.698 158)">サンプルする</text><text font-family="Yu Gothic,Yu Gothic_MSFontService,sans-serif" font-weight="700" font-size="14.6667" transform="matrix(1 0 0 0.999824 633.545 225)">ポリシーが</text><text font-family="Yu Gothic,Yu Gothic_MSFontService,sans-serif" font-weight="700" font-size="14.6667" transform="matrix(1 0 0 0.999824 633.545 242)">出力を生成する</text><text font-family="Yu Gothic,Yu Gothic_MSFontService,sans-serif" font-weight="700" font-size="14.6667" transform="matrix(1 0 0 0.999824 636.833 411)">出力に対して</text><text font-family="Yu Gothic,Yu Gothic_MSFontService,sans-serif" font-weight="700" font-size="14.6667" transform="matrix(1 0 0 0.999824 636.833 428)">報酬モデルが</text><text font-family="Yu Gothic,Yu Gothic_MSFontService,sans-serif" font-weight="700" font-size="14.6667" transform="matrix(1 0 0 0.999824 636.833 446)">報酬を計算する</text><text font-family="Calibri,Calibri_MSFontService,sans-serif" font-weight="700" font-size="14.6667" transform="matrix(1 0 0 0.999824 633.545 525)">PPO</text><text font-family="Yu Gothic,Yu Gothic_MSFontService,sans-serif" font-weight="700" font-size="14.6667" transform="matrix(1 0 0 0.999824 659.216 525)">を使った</text><text font-family="Yu Gothic,Yu Gothic_MSFontService,sans-serif" font-weight="700" font-size="14.6667" transform="matrix(1 0 0 0.999824 633.545 542)">ポリシーの更新</text><text font-family="Yu Gothic,Yu Gothic_MSFontService,sans-serif" font-weight="700" font-size="14.6667" transform="matrix(1 0 0 0.999824 633.545 560)">に報酬が使われる</text><path d="M313 16.997 313 570.899" stroke="#F0F0F0" stroke-width="2.00035" stroke-miterlimit="8" fill="none" fill-rule="evenodd"/><path d="M613 16.997 613 570.899" stroke="#F0F0F0" stroke-width="2.00035" stroke-miterlimit="8" fill="none" fill-rule="evenodd"/></g></svg>