<svg width="680" height="293" xmlns="http://www.w3.org/2000/svg" xmlns:xlink="http://www.w3.org/1999/xlink" overflow="hidden"><defs><clipPath id="clip0"><rect x="0" y="0" width="680" height="293"/></clipPath></defs><g clip-path="url(#clip0)"><rect x="0" y="0" width="680" height="293.31" fill="#FFFFFF"/><path d="M132.445 250.765 129.459 244.535 130.91 241.593 128.691 240.122 128.009 237.093 122.462 237.612 120.5 233.026 123.913 226.535 123.145 223.247 125.363 221.516 122.889 218.488 125.193 215.459 126.814 219.007 128.776 217.536 129.544 217.709 133.128 215.026 130.995 213.469 129.886 216.151 127.497 216.497 126.387 214.94 128.691 212.863 130.91 208.19 136.456 210.873 139.698 206.719C147.093 212.488 151.331 221.718 150.364 233.631 148.742 231.785 146.78 228.814 145.5 228.093 144.22 227.372 141.518 227.386 141.319 227.834L144.306 230.776 141.063 234.064 141.66 236.054 138.503 239.429 138.503 242.631 136.712 246.179 134.067 250.246 132.445 250.765Z" stroke="#172C51" stroke-width="1.33268" stroke-miterlimit="8" fill-rule="evenodd"/><path d="M125.5 200.079 122.591 203.22 121.821 206.956 121.479 210.352 117.543 211.286C116.188 211.994 115.318 215.432 113.35 214.597 111.382 213.763 114.962 209.461 114.976 207.805L113.436 204.664 114.291 201.437 111.382 203.984 109.5 200.928C112.181 199.202 119.225 197.39 125.5 200.079Z" stroke="#172C51" stroke-width="1.33268" stroke-miterlimit="8" fill-rule="evenodd"/><path d="M110.813 257.483 107.744 252.838 105.848 246.386 100.884 241.74 101.064 237.955 95.8287 234.944 91.9472 232.105 91.9472 230.212 88.9684 231.933C86.2001 223.56 96.2499 205.637 104.765 203.716L107.293 205.952 111.264 206.469 111.896 210.684 110.633 213.179 108.015 212.749 108.556 211.63 108.827 209.48 106.029 211.974 103.231 213.093 101.606 214.641 103.772 217.48 104.675 216.62 105.487 213.781 108.647 214.555 111.264 217.48 110.903 221.438 109.91 221.954 108.556 219.975 107.022 221.868 102.057 225.481 100.523 229.61 102.599 232.105 105.848 233.051 103.501 234.17 101.245 233.051 98.2659 228.664 95.5579 229.18 95.2871 232.277 98.1756 232.105 99.8005 235.46 102.147 235.718 105.036 235.374 109.73 237.353 112.438 239.934 116.5 240.88 115.417 243.203 115.958 246.214 113.521 247.676 113.702 250.859 111.716 252.924 113.431 258.774 110.813 257.483Z" stroke="#172C51" stroke-width="1.33268" stroke-miterlimit="8" fill-rule="evenodd"/><path d="M88 228.242C88 211.655 101.879 198.21 119 198.21 136.121 198.21 150 211.655 150 228.242 150 244.828 136.121 258.273 119 258.273 101.879 258.273 88 244.828 88 228.242Z" stroke="#172C51" stroke-width="3.99804" stroke-miterlimit="8" fill="none" fill-rule="evenodd"/><path d="M138.5 246.761 138.822 244.927C139.479 244.112 142.083 241.142 142.445 241.87 142.807 242.598 141.277 244.315 140.996 245.102L140.754 246.586 138.5 246.761Z" stroke="#172C51" stroke-width="1.33268" stroke-miterlimit="8" fill-rule="evenodd"/><text font-family="Yu Gothic,Yu Gothic_MSFontService,sans-serif" font-weight="700" font-size="13.3409" transform="matrix(1 0 0 1.00106 105.997 278)">環境</text><path d="M72 145.821C72 142.688 74.5371 140.148 77.6668 140.148L157.333 140.148C160.463 140.148 163 142.688 163 145.821L163 168.512C163 171.645 160.463 174.184 157.333 174.184L77.6668 174.184C74.5371 174.184 72 171.645 72 168.512Z" stroke="#172C51" stroke-width="1.99902" stroke-miterlimit="8" fill="#FFFFFF" fill-rule="evenodd"/><text font-family="Yu Gothic,Yu Gothic_MSFontService,sans-serif" font-weight="700" font-size="14.675" transform="matrix(1 0 0 1.00106 73.6576 163)">エージェント</text><path d="M60.8998 228.236 53.746 227.514 46.9861 225.414 40.8695 222.09 35.5412 217.689 31.145 212.355 27.825 206.232 25.7266 199.465 24.9954 192.203 25.7266 184.942 27.825 178.175 31.145 172.052 35.5412 166.718 40.8695 162.317 47.0005 158.986 54.1221 157.023 54.6526 158.952 47.6417 160.884 47.8532 160.799 41.9079 164.03 42.0672 163.922 36.8873 168.2 37.0222 168.065 32.7484 173.251 32.8559 173.091 29.6289 179.043 29.705 178.862 27.6656 185.439 27.7055 185.243 26.9944 192.304 26.9944 192.103 27.7055 199.164 27.6656 198.968 29.705 205.545 29.6289 205.364 32.8559 211.316 32.7484 211.156 37.0222 216.342 36.8873 216.207 42.0672 220.485 41.9079 220.377 47.8532 223.608 47.6727 223.532 54.2426 225.573 54.0465 225.533 61.1003 226.245ZM52.5725 154.18 61 157.166 53.5572 162.124Z" fill="#172C51"/><path d="M175.1 155.17 182.254 155.892 189.014 157.992 195.131 161.316 200.459 165.717 204.855 171.051 208.175 177.174 210.273 183.941 211.005 191.202 210.273 198.464 208.175 205.231 204.855 211.354 200.459 216.688 195.131 221.089 189 224.42 181.878 226.383 181.347 224.453 188.358 222.521 188.147 222.607 194.092 219.376 193.933 219.484 199.113 215.206 198.978 215.341 203.252 210.155 203.144 210.315 206.371 204.363 206.295 204.544 208.334 197.967 208.294 198.163 209.006 191.102 209.006 191.303 208.294 184.242 208.334 184.438 206.295 177.861 206.371 178.042 203.144 172.09 203.252 172.25 198.978 167.064 199.113 167.199 193.933 162.921 194.092 163.028 188.147 159.798 188.327 159.874 181.757 157.833 181.953 157.873 174.9 157.161ZM183.428 229.226 175 226.239 182.443 221.282Z" fill="#172C51"/><rect x="3" y="179.19" width="46" height="26.0275" fill="#FFFFFF"/><text font-family="Yu Gothic,Yu Gothic_MSFontService,sans-serif" font-weight="700" font-size="13.3409" transform="matrix(1 0 0 1.00106 12.7605 196)">観測</text><rect x="184" y="178.189" width="46" height="26.0276" fill="#FFFFFF"/><text font-family="Yu Gothic,Yu Gothic_MSFontService,sans-serif" font-weight="700" font-size="13.3409" transform="matrix(1 0 0 1.00106 193.466 196)">行動</text><path d="M28.0012 178.149 28.7135 159.962 29.581 151.277 30.764 142.957 32.2462 135.037 34.0105 127.561 36.0404 120.573 38.3196 114.118 40.8326 108.238 43.5651 102.979 46.5047 98.3815 49.6416 94.4917 53.0012 91.3264 57.1262 89.0826 58.0806 90.841 54.0693 93.0229 54.2771 92.8724 51.0614 95.902 51.1541 95.8019 48.0946 99.5958 48.1587 99.5067 45.2729 104.02 45.3179 103.942 42.6235 109.128 42.6556 109.06 40.1702 114.875 40.1936 114.815 37.9346 121.213 37.952 121.159 35.9372 128.095 35.9501 128.045 34.197 135.474 34.2067 135.428 32.7329 143.304 32.74 143.26 31.563 151.538 31.568 151.497 30.7056 160.131 30.7098 160.07 29.9987 178.228ZM55.2041 86.4935 64 88.0933 57.444 94.1776Z" fill="#172C51"/><path d="M72 78.917C72 75.6918 74.6117 73.0774 77.8334 73.0774L157.167 73.0774C160.388 73.0774 163 75.6918 163 78.917L163 102.275C163 105.5 160.388 108.114 157.167 108.114L77.8334 108.114C74.6117 108.114 72 105.5 72 102.275Z" stroke="#172C51" stroke-width="1.99902" stroke-miterlimit="8" fill="#FFFFFF" fill-rule="evenodd"/><text font-family="Yu Gothic,Yu Gothic_MSFontService,sans-serif" font-weight="700" font-size="14.675" transform="matrix(1 0 0 1.00106 80.9873 96)">報酬モデル</text><text font-family="Yu Gothic,Yu Gothic_MSFontService,sans-serif" font-weight="700" font-size="14.675" transform="matrix(1 0 0 1.00106 79.932 25)">人間からの</text><text font-family="Yu Gothic,Yu Gothic_MSFontService,sans-serif" font-weight="700" font-size="14.675" transform="matrix(1 0 0 1.00106 65.2725 42)">フィードバック</text><path d="M117 48.0508 117 54.0543 115.001 54.0543 115.001 48.0508ZM117 56.0554 117 62.0588 115.001 62.0588 115.001 56.0554ZM117 64.06 117 65.4058 115.001 65.4058 115.001 64.06ZM119.998 64.0717 116 72.0763 112.002 64.0717Z" fill="#172C51"/><path d="M117 113.12 117 130.475 115.001 130.475 115.001 113.12ZM119.998 129.141 116 137.145 112.002 129.141Z" fill="#172C51"/><text font-family="Yu Gothic,Yu Gothic_MSFontService,sans-serif" font-weight="700" font-size="14.675" transform="matrix(1 0 0 1.00106 123.408 130)">予測された報酬</text><path d="M199.785 45.4669C196.655 31.8317 212.772 19.2747 235.783 17.42 245.108 16.6685 254.588 17.792 262.708 20.6107 271.311 11.001 291.416 7.34884 307.613 12.4534 310.445 13.3459 313.045 14.4772 315.33 15.812 322.031 7.84628 338.352 4.61001 351.785 8.58357 355.503 9.68335 358.746 11.2739 361.265 13.2331 372.065 5.70003 391.15 4.76952 403.892 11.1547 409.247 13.8384 412.856 17.5399 414.101 21.6246 431.797 24.4857 442.236 35.3233 437.418 45.831 437.013 46.7144 436.505 47.5799 435.897 48.4214 450.089 59.3702 446.615 75.0632 428.137 83.4725 422.385 86.0903 415.591 87.7851 408.411 88.3935 408.252 100.173 391.995 109.645 372.101 109.551 365.455 109.519 358.952 108.399 353.314 106.315 346.585 119.521 323.115 126.985 300.891 122.987 291.577 121.311 283.53 117.767 278.121 112.96 255.367 121.093 225.833 116.718 212.155 103.188 211.982 103.018 211.813 102.846 211.646 102.673 196.755 103.706 183.266 97.4091 181.518 88.6081 180.586 83.9171 183.199 79.2217 188.661 75.7734 175.767 71.2749 171.435 61.4011 178.986 53.7196 183.343 49.288 190.983 46.3584 199.558 45.8317Z" stroke="#D9D9D9" stroke-width="1.33268" stroke-miterlimit="8" fill="none" fill-rule="evenodd"/><path d="M166.26 99.1719C166.26 100.969 164.805 102.425 163.01 102.425 161.215 102.425 159.76 100.969 159.76 99.1719 159.76 97.375 161.215 95.9183 163.01 95.9183 164.805 95.9183 166.26 97.375 166.26 99.1719Z" stroke="#D9D9D9" stroke-width="1.33268" stroke-miterlimit="8" fill="none" fill-rule="evenodd"/><path d="M176.829 97.4739C176.829 101.067 173.919 103.981 170.329 103.981 166.74 103.981 163.83 101.067 163.83 97.4739 163.83 93.8802 166.74 90.967 170.329 90.967 173.919 90.967 176.829 93.8802 176.829 97.4739Z" stroke="#D9D9D9" stroke-width="1.33268" stroke-miterlimit="8" fill="none" fill-rule="evenodd"/><path d="M193.731 94.3066C193.731 99.6971 189.365 104.067 183.981 104.067 178.596 104.067 174.231 99.6971 174.231 94.3066 174.231 88.916 178.596 84.5461 183.981 84.5461 189.365 84.5461 193.731 88.916 193.731 94.3066Z" stroke="#D9D9D9" stroke-width="1.33268" stroke-miterlimit="8" fill="none" fill-rule="evenodd"/><path d="M204.723 77.4781C199.218 77.7335 193.714 76.9794 188.949 75.3172M218.64 101.125C216.426 101.647 214.106 101.995 211.738 102.159M278.106 112.488C276.441 111.008 275.047 109.426 273.948 107.77M355.001 100.724C354.757 102.479 354.2 104.214 353.341 105.9M388.016 68.7398C400.497 72.3397 408.374 79.866 408.262 88.086M435.77 48.1347C433.749 50.9338 430.663 53.4168 426.755 55.389M414.138 21.2179C414.482 22.3482 414.642 23.4955 414.614 24.6439M356.564 17.2216C357.739 15.641 359.295 14.1693 361.183 12.8523M313.369 19.3038C313.848 17.9976 314.599 16.7318 315.606 15.5356M262.676 20.5835C265.614 21.6034 268.332 22.8309 270.77 24.2392M201.198 49.3141C200.557 48.0561 200.085 46.77 199.786 45.4678" stroke="#D9D9D9" stroke-width="1.33268" stroke-miterlimit="8" fill="none" fill-rule="evenodd"/><text font-family="Yu Gothic,Yu Gothic_MSFontService,sans-serif" font-weight="700" font-size="14.675" transform="matrix(1 0 0 1.00106 221.445 41)">人間からのフィードバックを</text><text font-family="Yu Gothic,Yu Gothic_MSFontService,sans-serif" font-weight="700" font-size="14.675" transform="matrix(1 0 0 1.00106 221.445 58)">使って報酬モデルを作って</text><text font-family="Yu Gothic,Yu Gothic_MSFontService,sans-serif" font-weight="700" font-size="14.675" transform="matrix(1 0 0 1.00106 221.445 76)">みたら</text><text font-family="Calibri,Calibri_MSFontService,sans-serif" font-weight="700" font-size="14.675" transform="matrix(1 0 0 1.00106 265.423 76)">,</text><text font-family="Yu Gothic,Yu Gothic_MSFontService,sans-serif" font-weight="700" font-size="14.675" transform="matrix(1 0 0 1.00106 272.586 76)">人間が式</text><text font-family="Yu Gothic,Yu Gothic_MSFontService,sans-serif" font-weight="700" font-size="14.675" transform="matrix(1 0 0 1.00106 331.224 76)">で</text><text font-family="Yu Gothic,Yu Gothic_MSFontService,sans-serif" font-weight="700" font-size="14.675" transform="matrix(1 0 0 1.00106 345.884 76)">表現でき</text><text font-family="Yu Gothic,Yu Gothic_MSFontService,sans-serif" font-weight="700" font-size="14.675" transform="matrix(1 0 0 1.00106 404.521 76)">ない</text><text font-family="Yu Gothic,Yu Gothic_MSFontService,sans-serif" font-weight="700" font-size="14.675" transform="matrix(1 0 0 1.00106 221.445 93)">ような微妙な報酬を予測できた</text><text font-family="Yu Gothic,Yu Gothic_MSFontService,sans-serif" font-weight="700" font-size="13.3409" transform="matrix(1 0 0 1.00106 513.84 263)">環境</text><path d="M476 143.986C476 140.761 478.612 138.146 481.834 138.146L560.167 138.146C563.388 138.146 566 140.761 566 143.986L566 167.344C566 170.569 563.388 173.183 560.167 173.183L481.834 173.183C478.612 173.183 476 170.569 476 167.344Z" stroke="#172C51" stroke-width="1.99902" stroke-miterlimit="8" fill="#FFFFFF" fill-rule="evenodd"/><text font-family="Yu Gothic,Yu Gothic_MSFontService,sans-serif" font-weight="700" font-size="14.675" transform="matrix(1 0 0 1.00106 484.181 161)">言語モデル</text><path d="M463.898 227.235 456.743 226.502 449.981 224.371 443.864 221 438.536 216.537 434.141 211.128 430.823 204.921 428.726 198.062 427.996 190.702 428.726 183.342 430.823 176.483 434.141 170.276 438.536 164.867 443.864 160.404 449.996 157.024 457.12 155.033 457.657 156.961 450.645 158.921 450.858 158.834 444.913 162.11 445.073 162.001 439.893 166.34 440.027 166.204 435.753 171.464 435.859 171.305 432.632 177.341 432.706 177.162 430.667 183.833 430.706 183.639 429.995 190.801 429.995 190.603 430.706 197.765 430.667 197.571 432.706 204.242 432.632 204.063 435.859 210.099 435.753 209.94 440.027 215.199 439.893 215.063 445.073 219.403 444.913 219.294 450.858 222.57 450.677 222.492 457.246 224.563 457.048 224.522 464.102 225.244ZM455.567 152.193 464 155.164 456.566 160.135Z" fill="#172C51"/><path d="M578.102 153.168 585.257 153.9 592.019 156.031 598.136 159.403 603.464 163.866 607.859 169.275 611.177 175.482 613.274 182.341 614.004 189.701 613.274 197.061 611.177 203.92 607.859 210.127 603.464 215.536 598.136 219.999 592.004 223.378 584.88 225.369 584.343 223.442 591.355 221.482 591.142 221.569 597.087 218.293 596.927 218.402 602.107 214.062 601.973 214.198 606.247 208.939 606.141 209.098 609.368 203.062 609.294 203.241 611.333 196.57 611.294 196.764 612.005 189.602 612.005 189.8 611.294 182.638 611.333 182.832 609.294 176.161 609.368 176.34 606.141 170.303 606.247 170.463 601.973 165.203 602.107 165.339 596.927 161 597.087 161.109 591.142 157.832 591.323 157.91 584.754 155.84 584.952 155.881 577.898 155.159ZM586.433 228.21 578 225.238 585.434 220.268Z" fill="#172C51"/><rect x="563" y="176.187" width="100" height="26.0275" fill="#FFFFFF"/><text font-family="Yu Gothic,Yu Gothic_MSFontService,sans-serif" font-weight="700" font-size="13.3409" transform="matrix(1 0 0 1.00106 572.734 194)">トークン生成</text><path d="M428.001 189.181 428.208 178.618 428.816 168.341 429.806 158.419 431.157 148.903 432.85 139.845 434.864 131.296 437.182 123.307 439.784 115.928 442.652 109.208 445.769 103.2 449.121 97.9507 452.695 93.5128 456.482 89.9398 460.517 87.2652 462.271 86.7714 462.813 88.6978 461.209 89.1492 461.49 89.0203 457.657 91.561 457.791 91.4549 454.116 94.9221 454.208 94.822 450.712 99.1638 450.776 99.0748 447.478 104.239 447.523 104.162 444.443 110.097 444.475 110.029 441.635 116.684 441.658 116.624 439.077 123.946 439.094 123.892 436.791 131.83 436.804 131.781 434.801 140.282 434.81 140.236 433.126 149.249 433.133 149.206 431.788 158.68 431.793 158.638 430.807 168.52 430.81 168.479 430.204 178.717 430.206 178.678 429.999 189.22ZM460.265 84.1844 469 86.0912 462.235 91.9422Z" fill="#172C51"/><path d="M476 77.749C476 74.616 478.537 72.0763 481.667 72.0763L560.333 72.0763C563.463 72.0763 566 74.616 566 77.749L566 100.44C566 103.573 563.463 106.112 560.333 106.112L481.667 106.112C478.537 106.112 476 103.573 476 100.44Z" stroke="#172C51" stroke-width="1.99902" stroke-miterlimit="8" fill="#FFFFFF" fill-rule="evenodd"/><text font-family="Yu Gothic,Yu Gothic_MSFontService,sans-serif" font-weight="700" font-size="14.675" transform="matrix(1 0 0 1.00106 484.181 94)">報酬モデル</text><text font-family="Yu Gothic,Yu Gothic_MSFontService,sans-serif" font-weight="700" font-size="14.675" transform="matrix(1 0 0 1.00106 483.126 24)">人間からの</text><text font-family="Yu Gothic,Yu Gothic_MSFontService,sans-serif" font-weight="700" font-size="14.675" transform="matrix(1 0 0 1.00106 468.466 41)">フィードバック</text><path d="M520 46.0488 520 52.0522 518 52.0522 518 46.0488ZM520 54.0533 520 60.0567 518 60.0567 518 54.0533ZM520 62.0579 520 63.4037 518 63.4037 518 62.0579ZM522.998 62.0696 519 70.0742 515.002 62.0696Z" fill="#172C51"/><path d="M520 111.118 520 128.473 518 128.473 518 111.118ZM522.998 127.138 519 135.143 515.002 127.138Z" fill="#172C51"/><path d="M478 214.894C478 211.761 480.537 209.221 483.667 209.221L562.333 209.221C565.463 209.221 568 211.761 568 214.894L568 237.585C568 240.718 565.463 243.258 562.333 243.258L483.667 243.258C480.537 243.258 478 240.718 478 237.585Z" stroke="#172C51" stroke-width="1.99902" stroke-miterlimit="8" fill="#FFFFFF" fill-rule="evenodd"/><text font-family="Yu Gothic,Yu Gothic_MSFontService,sans-serif" font-weight="700" font-size="14.675" transform="matrix(1 0 0 1.00106 484.31 223)">プロンプト</text><text font-family="Calibri,Calibri_MSFontService,sans-serif" font-weight="700" font-size="14.675" transform="matrix(1 0 0 1.00106 557.608 223)">,</text><text font-family="Yu Gothic,Yu Gothic_MSFontService,sans-serif" font-weight="700" font-size="14.675" transform="matrix(1 0 0 1.00106 508.212 240)">文章</text></g></svg>