<svg width="888" height="520" xmlns="http://www.w3.org/2000/svg" xmlns:xlink="http://www.w3.org/1999/xlink" overflow="hidden"><defs><clipPath id="clip0"><rect x="0" y="0" width="888" height="520"/></clipPath></defs><g clip-path="url(#clip0)"><rect x="0" y="0" width="888" height="520.431" fill="#FFFFFF"/><path d="M732 164.307C732 161.449 734.315 159.132 737.171 159.132L792.829 159.132C795.685 159.132 798 161.449 798 164.307L798 220.011C798 222.869 795.685 225.187 792.829 225.187L737.171 225.187C734.315 225.187 732 222.869 732 220.011Z" fill="#E2D2D5" fill-rule="evenodd"/><path d="M153 363.605C153 360.121 155.823 357.296 159.304 357.296L206.696 357.296C210.178 357.296 213 360.121 213 363.605L213 417.041C213 420.526 210.178 423.351 206.696 423.351L159.304 423.351C155.823 423.351 153 420.526 153 417.041Z" fill="#D0EBFB" fill-rule="evenodd"/><path d="M165 403.929C166.267 402.508 168.432 399.314 169.066 394.171 169.699 389.028 167.048 379.607 168.801 373.072 170.553 366.537 175.046 361.775 184.886 362.347 194.726 362.918 196.538 371.475 197.083 377.556 197.628 383.636 196.686 391.035 197.172 395.665 197.658 400.296 198.144 401.819 200 405.336L165 403.929Z" fill="#3D5B65" fill-rule="evenodd"/><path d="M157 417.346C157.964 415.122 157.52 408.477 160.543 404.98 163.565 401.484 178.875 401.991 182.462 396.328 191.771 402.963 200.768 401.053 205.358 404.526 209.948 408 208.044 413.408 210 417.17L157 417.346Z" fill="#92BBD3" fill-rule="evenodd"/><path d="M174 400.999C176.025 400.449 177.296 398.812 178.079 396.714 178.862 394.616 178.36 391.685 178.7 388.411L187.034 388.322C187.094 390.807 187.271 396.357 188.099 398.499 188.926 400.642 190.729 400.657 192 401.178 189.34 401.892 187.034 403.499 184.02 403.32 181.005 403.142 174.813 402.175 174 400.999Z" fill="#FFFFFF" fill-rule="evenodd"/><path d="M175 383.852C177.07 380.994 183.115 379.041 185.607 376.783 188.1 374.525 189.245 372.976 189.955 370.307 193.356 375.12 191.899 381.728 192.705 382.122 193.512 382.515 194.072 377.159 194.795 377.921 195.518 378.682 194.218 384.154 192.607 383.775 191.325 390.698 189.411 390.846 188.269 392.73 187.127 394.615 186.871 394.769 185.755 395.084 184.64 395.398 182.829 395.555 181.575 394.617 180.322 393.679 177.851 391.831 176.755 390.037 175.659 388.243 175.759 387.382 175 383.852Z" fill="#FFFFFF" fill-rule="evenodd"/><path d="M115 46.721C115 44.6856 116.649 43.0357 118.682 43.0357L249.318 43.0357C251.351 43.0357 253 44.6856 253 46.721L253 134.429C253 136.464 251.351 138.114 249.318 138.114L118.682 138.114C116.649 138.114 115 136.464 115 134.429Z" fill="#F9E3D5" fill-rule="evenodd"/><rect x="153" y="51.0423" width="67.9999" height="80.0663" stroke="#A38E80" stroke-width="1.99962" stroke-miterlimit="8" fill="#F8FBF1"/><path d="M160 59.0489 213 59.0489" stroke="#A38E80" stroke-width="1.99962" stroke-miterlimit="8" fill="none" fill-rule="evenodd"/><path d="M160 65.0539 213 65.0539" stroke="#A38E80" stroke-width="1.99962" stroke-miterlimit="8" fill="none" fill-rule="evenodd"/><path d="M160 78.0646 213 78.0646" stroke="#A38E80" stroke-width="1.99962" stroke-miterlimit="8" fill="none" fill-rule="evenodd"/><path d="M160 84.0696 213 84.0696" stroke="#A38E80" stroke-width="1.99962" stroke-miterlimit="8" fill="none" fill-rule="evenodd"/><path d="M160 96.0797 213 96.0797" stroke="#A38E80" stroke-width="1.99962" stroke-miterlimit="8" fill="none" fill-rule="evenodd"/><path d="M160 103.085 213 103.085" stroke="#A38E80" stroke-width="1.99962" stroke-miterlimit="8" fill="none" fill-rule="evenodd"/><path d="M160 109.09 213 109.09" stroke="#A38E80" stroke-width="1.99962" stroke-miterlimit="8" fill="none" fill-rule="evenodd"/><path d="M160 116.096 213 116.096" stroke="#A38E80" stroke-width="1.99962" stroke-miterlimit="8" fill="none" fill-rule="evenodd"/><path d="M160 71.0589 195 71.0589" stroke="#A38E80" stroke-width="1.99962" stroke-miterlimit="8" fill="none" fill-rule="evenodd"/><path d="M160 91.0755 174 91.0755" stroke="#A38E80" stroke-width="1.99962" stroke-miterlimit="8" fill="none" fill-rule="evenodd"/><path d="M160 121.1 185 121.1" stroke="#A38E80" stroke-width="1.99962" stroke-miterlimit="8" fill="none" fill-rule="evenodd"/><path d="M114 165.068C114 162.342 116.208 160.133 118.931 160.133L247.069 160.133C249.792 160.133 252 162.342 252 165.068L252 232.261C252 234.987 249.792 237.197 247.069 237.197L118.931 237.197C116.208 237.197 114 234.987 114 232.261Z" fill="#F9E3D5" fill-rule="evenodd"/><rect x="123" y="170.141" width="41" height="26.0215" stroke="#A38E80" stroke-width="1.99962" stroke-miterlimit="8" fill="#F6F5EB"/><path d="M127 178.148 160 178.148 159.438 178.148" stroke="#A38E80" stroke-width="1.99962" stroke-miterlimit="8" fill="none" fill-rule="evenodd"/><path d="M127 183.152 160 183.152 159.438 183.152" stroke="#A38E80" stroke-width="1.99962" stroke-miterlimit="8" fill="none" fill-rule="evenodd"/><path d="M127 189.157 137 189.157" stroke="#A38E80" stroke-width="1.99962" stroke-miterlimit="8" fill="none" fill-rule="evenodd"/><rect x="136" y="174.144" width="42" height="26.0216" stroke="#A38E80" stroke-width="1.99962" stroke-miterlimit="8" fill="#F6F5EB"/><path d="M141 182.151 173 182.151 172.455 182.151" stroke="#A38E80" stroke-width="1.99962" stroke-miterlimit="8" fill="none" fill-rule="evenodd"/><path d="M141 188.156 173 188.156 172.455 188.156" stroke="#A38E80" stroke-width="1.99962" stroke-miterlimit="8" fill="none" fill-rule="evenodd"/><path d="M141 193.16 150 193.16" stroke="#A38E80" stroke-width="1.99962" stroke-miterlimit="8" fill="none" fill-rule="evenodd"/><rect x="149" y="181.15" width="42" height="27.0224" stroke="#A38E80" stroke-width="1.99962" stroke-miterlimit="8" fill="#F6F5EB"/><path d="M154 189.157 187 189.157 186.437 189.157" stroke="#A38E80" stroke-width="1.99962" stroke-miterlimit="8" fill="none" fill-rule="evenodd"/><path d="M154 195.162 187 195.162 186.437 195.162" stroke="#A38E80" stroke-width="1.99962" stroke-miterlimit="8" fill="none" fill-rule="evenodd"/><path d="M154 200.166 163 200.166" stroke="#A38E80" stroke-width="1.99962" stroke-miterlimit="8" fill="none" fill-rule="evenodd"/><rect x="163" y="187.155" width="41.0001" height="27.0225" stroke="#A38E80" stroke-width="1.99962" stroke-miterlimit="8" fill="#F6F5EB"/><path d="M167 195.162 200 195.162 199.438 195.162" stroke="#A38E80" stroke-width="1.99962" stroke-miterlimit="8" fill="none" fill-rule="evenodd"/><path d="M167 201.167 200 201.167 199.438 201.167" stroke="#A38E80" stroke-width="1.99962" stroke-miterlimit="8" fill="none" fill-rule="evenodd"/><path d="M167 206.171 177 206.171" stroke="#A38E80" stroke-width="1.99962" stroke-miterlimit="8" fill="none" fill-rule="evenodd"/><rect x="162" y="187.155" width="42" height="27.0225" stroke="#A38E80" stroke-width="1.99962" stroke-miterlimit="8" fill="#F6F5EB"/><path d="M167 195.162 200 195.162 199.438 195.162" stroke="#A38E80" stroke-width="1.99962" stroke-miterlimit="8" fill="none" fill-rule="evenodd"/><path d="M167 201.167 200 201.167 199.438 201.167" stroke="#A38E80" stroke-width="1.99962" stroke-miterlimit="8" fill="none" fill-rule="evenodd"/><path d="M167 206.171 176 206.171" stroke="#A38E80" stroke-width="1.99962" stroke-miterlimit="8" fill="none" fill-rule="evenodd"/><rect x="174" y="192.159" width="42" height="26.0216" stroke="#A38E80" stroke-width="1.99962" stroke-miterlimit="8" fill="#F6F5EB"/><path d="M179 200.166 212 200.166 211.438 200.166" stroke="#A38E80" stroke-width="1.99962" stroke-miterlimit="8" fill="none" fill-rule="evenodd"/><path d="M179 206.171 212 206.171 211.438 206.171" stroke="#A38E80" stroke-width="1.99962" stroke-miterlimit="8" fill="none" fill-rule="evenodd"/><path d="M179 211.175 188 211.175" stroke="#A38E80" stroke-width="1.99962" stroke-miterlimit="8" fill="none" fill-rule="evenodd"/><rect x="189" y="199.165" width="42" height="26.0215" stroke="#A38E80" stroke-width="1.99962" stroke-miterlimit="8" fill="#F6F5EB"/><path d="M194 207.172 227 207.172 226.438 207.172" stroke="#A38E80" stroke-width="1.99962" stroke-miterlimit="8" fill="none" fill-rule="evenodd"/><path d="M194 212.176 227 212.176 226.438 212.176" stroke="#A38E80" stroke-width="1.99962" stroke-miterlimit="8" fill="none" fill-rule="evenodd"/><path d="M194 218.181 203 218.181" stroke="#A38E80" stroke-width="1.99962" stroke-miterlimit="8" fill="none" fill-rule="evenodd"/><rect x="203" y="205.17" width="42" height="26.0216" stroke="#A38E80" stroke-width="1.99962" stroke-miterlimit="8" fill="#F6F5EB"/><path d="M208 213.177 240 213.177 239.455 213.177" stroke="#A38E80" stroke-width="1.99962" stroke-miterlimit="8" fill="none" fill-rule="evenodd"/><path d="M208 218.181 240 218.181 239.455 218.181" stroke="#A38E80" stroke-width="1.99962" stroke-miterlimit="8" fill="none" fill-rule="evenodd"/><path d="M208 224.186 217 224.186" stroke="#A38E80" stroke-width="1.99962" stroke-miterlimit="8" fill="none" fill-rule="evenodd"/><path d="M114 275.682C114 273.22 115.994 271.225 118.454 271.225L171.546 271.225C174.006 271.225 176 273.22 176 275.682L176 307.801C176 310.263 174.006 312.259 171.546 312.259L118.454 312.259C115.994 312.259 114 310.263 114 307.801Z" fill="#F9E3D5" fill-rule="evenodd"/><rect x="125" y="278.231" width="41.0001" height="27.0224" stroke="#A38E80" stroke-width="1.99962" stroke-miterlimit="8" fill="#F6F5EB"/><path d="M130 286.237 162 286.237 161.455 286.237" stroke="#A38E80" stroke-width="1.99962" stroke-miterlimit="8" fill="none" fill-rule="evenodd"/><path d="M130 292.242 162 292.242 161.455 292.242" stroke="#A38E80" stroke-width="1.99962" stroke-miterlimit="8" fill="none" fill-rule="evenodd"/><path d="M130 297.246 139 297.246" stroke="#A38E80" stroke-width="1.99962" stroke-miterlimit="8" fill="none" fill-rule="evenodd"/><path d="M160 304.753C160 301.16 162.91 298.247 166.5 298.247 170.09 298.247 173 301.16 173 304.753 173 308.345 170.09 311.258 166.5 311.258 162.91 311.258 160 308.345 160 304.753Z" fill="#C29E87" fill-rule="evenodd"/><text fill="#FFFFFF" font-family="Cambria Math,Cambria Math_MSFontService,sans-serif" font-weight="400" font-size="10.6735" transform="matrix(1 0 0 1.00083 163.483 309)">𝑗</text><path d="M194 275.682C194 273.22 195.994 271.225 198.454 271.225L252.546 271.225C255.006 271.225 257 273.22 257 275.682L257 307.801C257 310.263 255.006 312.259 252.546 312.259L198.454 312.259C195.994 312.259 194 310.263 194 307.801Z" fill="#F9E3D5" fill-rule="evenodd"/><rect x="204" y="279.231" width="41" height="26.0215" stroke="#A38E80" stroke-width="1.99962" stroke-miterlimit="8" fill="#F6F5EB"/><path d="M208 287.238 241 287.238 240.438 287.238" stroke="#A38E80" stroke-width="1.99962" stroke-miterlimit="8" fill="none" fill-rule="evenodd"/><path d="M208 293.243 241 293.243 240.438 293.243" stroke="#A38E80" stroke-width="1.99962" stroke-miterlimit="8" fill="none" fill-rule="evenodd"/><path d="M208 298.247 218 298.247" stroke="#A38E80" stroke-width="1.99962" stroke-miterlimit="8" fill="none" fill-rule="evenodd"/><path d="M239 305.253C239 301.936 241.91 299.248 245.5 299.248 249.09 299.248 252 301.936 252 305.253 252 308.569 249.09 311.258 245.5 311.258 241.91 311.258 239 308.569 239 305.253Z" fill="#C29E87" fill-rule="evenodd"/><text fill="#FFFFFF" font-family="Cambria Math,Cambria Math_MSFontService,sans-serif" font-weight="400" font-size="10.6735" transform="matrix(1 0 0 1.00083 241.155 309)">𝑘</text><path d="M186 138.114 186 156.15 184 156.15 184 138.114ZM190.529 148.649 185 158.136 179.471 148.649C179.192 148.171 179.354 147.559 179.83 147.28 180.307 147.002 180.92 147.163 181.198 147.64L185.864 155.646 184.136 155.646 188.802 147.64C189.08 147.163 189.693 147.002 190.17 147.28 190.647 147.559 190.808 148.171 190.529 148.649Z" fill="#A38E80"/><path d="M144 243.201 144 261.237 142 261.237 142 243.201ZM148.529 253.736 143 263.223 137.471 253.736C137.192 253.259 137.354 252.646 137.83 252.367 138.307 252.089 138.92 252.25 139.198 252.727L143.864 260.733 142.136 260.733 146.802 252.727C147.08 252.25 147.693 252.089 148.17 252.367 148.647 252.646 148.808 253.259 148.529 253.736Z" fill="#A38E80"/><path d="M225 243.201 225 261.237 223 261.237 223 243.201ZM229.529 253.736 224 263.223 218.471 253.736C218.192 253.259 218.353 252.646 218.83 252.367 219.307 252.089 219.92 252.25 220.198 252.727L224.864 260.733 223.136 260.733 227.802 252.727C228.08 252.25 228.693 252.089 229.17 252.367 229.646 252.646 229.808 253.259 229.529 253.736Z" fill="#A38E80"/><path d="M224 319.265C224 324.516 223.291 328.772 222.417 328.772L184.583 328.772C183.709 328.772 183 333.029 183 338.28 183 333.029 182.291 328.772 181.417 328.772L143.583 328.772C142.709 328.772 142 324.516 142 319.265" stroke="#A38E80" stroke-width="2.00128" stroke-miterlimit="8" fill="none" fill-rule="evenodd"/><path d="M184 331.275 184 350.311 182 350.311 182 331.275ZM188.529 342.81 183 352.297 177.471 342.81C177.192 342.332 177.353 341.72 177.83 341.441 178.307 341.163 178.92 341.324 179.198 341.801L183.864 349.806 182.136 349.806 186.802 341.801C187.08 341.324 187.693 341.163 188.17 341.441 188.647 341.72 188.808 342.332 188.529 342.81Z" fill="#A38E80"/><path d="M185 424.352 185 442.387 183 442.387 183 424.352ZM189.529 434.886 184 444.373 178.471 434.886C178.192 434.409 178.353 433.796 178.83 433.517 179.307 433.239 179.92 433.4 180.198 433.878L184.864 441.883 183.136 441.883 187.802 433.878C188.08 433.4 188.693 433.239 189.17 433.517 189.647 433.796 189.808 434.409 189.529 434.886Z" fill="#A38E80"/><path d="M109 453.876C109 450.836 111.462 448.372 114.5 448.372L254.5 448.372C257.538 448.372 260 450.836 260 453.876L260 475.894C260 478.934 257.538 481.399 254.5 481.399L114.5 481.399C111.462 481.399 109 478.934 109 475.894Z" fill="#D1D2F1" fill-rule="evenodd"/><text fill="#696F95" font-family="Cambria Math,Cambria Math_MSFontService,sans-serif" font-weight="400" font-size="14.6761" transform="matrix(1 0 0 1.00083 121.325 470)">𝒋</text><text fill="#696F95" font-family="Cambria Math,Cambria Math_MSFontService,sans-serif" font-weight="400" font-size="14.6761" transform="matrix(1 0 0 1.00083 126.991 470)"></text><text fill="#696F95" font-family="Yu Gothic,Yu Gothic_MSFontService,sans-serif" font-weight="700" font-size="14.6761" transform="matrix(1 0 0 1.00083 130.157 470)">の方が</text><text fill="#696F95" font-family="Cambria Math,Cambria Math_MSFontService,sans-serif" font-weight="400" font-size="14.6761" transform="matrix(1 0 0 1.00083 174.148 470)"></text><text fill="#696F95" font-family="Cambria Math,Cambria Math_MSFontService,sans-serif" font-weight="400" font-size="14.6761" transform="matrix(1 0 0 1.00083 177.314 470)">𝒌</text><text fill="#696F95" font-family="Cambria Math,Cambria Math_MSFontService,sans-serif" font-weight="400" font-size="14.6761" transform="matrix(1 0 0 1.00083 186.313 470)"></text><text fill="#696F95" font-family="Yu Gothic,Yu Gothic_MSFontService,sans-serif" font-weight="700" font-size="14.6761" transform="matrix(1 0 0 1.00083 189.479 470)">より良い</text><path d="M368 50.1431C368 45.665 371.627 42.0348 376.102 42.0348L461.898 42.0348C466.373 42.0348 470 45.665 470 50.1431L470 129.005C470 133.483 466.373 137.114 461.898 137.114L376.102 137.114C371.627 137.114 368 133.483 368 129.005Z" fill="#F9E3D5" fill-rule="evenodd"/><rect x="379" y="53.044" width="60" height="70.058" stroke="#A38E80" stroke-width="1.99962" stroke-miterlimit="8" fill="#F8FBF1"/><path d="M385 59.0489 431 59.0489" stroke="#A38E80" stroke-width="1.99962" stroke-miterlimit="8" fill="none" fill-rule="evenodd"/><path d="M385 65.0539 431 65.0539" stroke="#A38E80" stroke-width="1.99962" stroke-miterlimit="8" fill="none" fill-rule="evenodd"/><path d="M385 76.063 431 76.063" stroke="#A38E80" stroke-width="1.99962" stroke-miterlimit="8" fill="none" fill-rule="evenodd"/><path d="M385 82.068 431 82.068" stroke="#A38E80" stroke-width="1.99962" stroke-miterlimit="8" fill="none" fill-rule="evenodd"/><path d="M385 93.0771 431 93.0771" stroke="#A38E80" stroke-width="1.99962" stroke-miterlimit="8" fill="none" fill-rule="evenodd"/><path d="M385 98.0812 431 98.0812" stroke="#A38E80" stroke-width="1.99962" stroke-miterlimit="8" fill="none" fill-rule="evenodd"/><path d="M385 104.086 431 104.086" stroke="#A38E80" stroke-width="1.99962" stroke-miterlimit="8" fill="none" fill-rule="evenodd"/><path d="M385 110.091 431 110.091" stroke="#A38E80" stroke-width="1.99962" stroke-miterlimit="8" fill="none" fill-rule="evenodd"/><path d="M385 70.058 416 70.058" stroke="#A38E80" stroke-width="1.99962" stroke-miterlimit="8" fill="none" fill-rule="evenodd"/><path d="M385 88.0729 397 88.0729" stroke="#A38E80" stroke-width="1.99962" stroke-miterlimit="8" fill="none" fill-rule="evenodd"/><path d="M385 115.095 407 115.095" stroke="#A38E80" stroke-width="1.99962" stroke-miterlimit="8" fill="none" fill-rule="evenodd"/><rect x="414" y="104.086" width="41" height="26.0215" stroke="#A38E80" stroke-width="1.99962" stroke-miterlimit="8" fill="#F6F5EB"/><path d="M419 112.093 451 112.093 450.455 112.093" stroke="#A38E80" stroke-width="1.99962" stroke-miterlimit="8" fill="none" fill-rule="evenodd"/><path d="M419 117.097 451 117.097 450.455 117.097" stroke="#A38E80" stroke-width="1.99962" stroke-miterlimit="8" fill="none" fill-rule="evenodd"/><path d="M419 123.102 428 123.102" stroke="#A38E80" stroke-width="1.99962" stroke-miterlimit="8" fill="none" fill-rule="evenodd"/><path d="M449 123.602C449 120.01 451.91 117.097 455.5 117.097 459.09 117.097 462 120.01 462 123.602 462 127.195 459.09 130.108 455.5 130.108 451.91 130.108 449 127.195 449 123.602Z" fill="#C29E87" fill-rule="evenodd"/><text fill="#FFFFFF" font-family="Cambria Math,Cambria Math_MSFontService,sans-serif" font-weight="400" font-size="10.6735" transform="matrix(1 0 0 1.00083 452.447 127)">𝑗</text><path d="M481 48.1415C481 43.6634 484.627 40.0332 489.102 40.0332L575.898 40.0332C580.373 40.0332 584 43.6634 584 48.1415L584 127.004C584 131.482 580.373 135.112 575.898 135.112L489.102 135.112C484.627 135.112 481 131.482 481 127.004Z" fill="#F9E3D5" fill-rule="evenodd"/><rect x="492" y="51.0423" width="60" height="70.058" stroke="#A38E80" stroke-width="1.99962" stroke-miterlimit="8" fill="#F8FBF1"/><path d="M498 58.0481 545 58.0481" stroke="#A38E80" stroke-width="1.99962" stroke-miterlimit="8" fill="none" fill-rule="evenodd"/><path d="M498 63.0523 545 63.0523" stroke="#A38E80" stroke-width="1.99962" stroke-miterlimit="8" fill="none" fill-rule="evenodd"/><path d="M498 74.0613 545 74.0613" stroke="#A38E80" stroke-width="1.99962" stroke-miterlimit="8" fill="none" fill-rule="evenodd"/><path d="M498 80.0663 545 80.0663" stroke="#A38E80" stroke-width="1.99962" stroke-miterlimit="8" fill="none" fill-rule="evenodd"/><path d="M498 91.0755 545 91.0755" stroke="#A38E80" stroke-width="1.99962" stroke-miterlimit="8" fill="none" fill-rule="evenodd"/><path d="M498 96.0797 545 96.0797" stroke="#A38E80" stroke-width="1.99962" stroke-miterlimit="8" fill="none" fill-rule="evenodd"/><path d="M498 102.085 545 102.085" stroke="#A38E80" stroke-width="1.99962" stroke-miterlimit="8" fill="none" fill-rule="evenodd"/><path d="M498 108.09 545 108.09" stroke="#A38E80" stroke-width="1.99962" stroke-miterlimit="8" fill="none" fill-rule="evenodd"/><path d="M498 69.0572 529 69.0572" stroke="#A38E80" stroke-width="1.99962" stroke-miterlimit="8" fill="none" fill-rule="evenodd"/><path d="M498 86.0713 510 86.0713" stroke="#A38E80" stroke-width="1.99962" stroke-miterlimit="8" fill="none" fill-rule="evenodd"/><path d="M498 113.094 520 113.094" stroke="#A38E80" stroke-width="1.99962" stroke-miterlimit="8" fill="none" fill-rule="evenodd"/><rect x="527" y="102.085" width="42" height="26.0216" stroke="#A38E80" stroke-width="1.99962" stroke-miterlimit="8" fill="#F6F5EB"/><path d="M532 110.091 565 110.091 564.438 110.091" stroke="#A38E80" stroke-width="1.99962" stroke-miterlimit="8" fill="none" fill-rule="evenodd"/><path d="M532 115.095 565 115.095 564.438 115.095" stroke="#A38E80" stroke-width="1.99962" stroke-miterlimit="8" fill="none" fill-rule="evenodd"/><path d="M532 121.1 541 121.1" stroke="#A38E80" stroke-width="1.99962" stroke-miterlimit="8" fill="none" fill-rule="evenodd"/><path d="M563 121.601C563 118.008 565.686 115.095 569 115.095 572.314 115.095 575 118.008 575 121.601 575 125.194 572.314 128.106 569 128.106 565.686 128.106 563 125.194 563 121.601Z" fill="#C29E87" fill-rule="evenodd"/><text fill="#FFFFFF" font-family="Cambria Math,Cambria Math_MSFontService,sans-serif" font-weight="400" font-size="10.6735" transform="matrix(1 0 0 1.00083 564.767 125)">𝑘</text><path d="M419 138.114 419 156.15 417 156.15 417 138.114ZM423.529 148.649 418 158.136 412.471 148.649C412.192 148.171 412.353 147.559 412.83 147.28 413.307 147.002 413.92 147.163 414.198 147.64L418.864 155.646 417.136 155.646 421.802 147.64C422.08 147.163 422.693 147.002 423.17 147.28 423.647 147.559 423.808 148.171 423.529 148.649Z" fill="#A38E80"/><path d="M533 138.114 533 156.15 531 156.15 531 138.114ZM537.529 148.649 532 158.136 526.471 148.649C526.192 148.171 526.353 147.559 526.83 147.28 527.307 147.002 527.92 147.163 528.198 147.64L532.864 155.646 531.136 155.646 535.802 147.64C536.08 147.163 536.693 147.002 537.17 147.28 537.647 147.559 537.808 148.171 537.529 148.649Z" fill="#A38E80"/><path d="M402 453.876C402 450.836 404.462 448.372 407.5 448.372L548.5 448.372C551.538 448.372 554 450.836 554 453.876L554 475.894C554 478.934 551.538 481.399 548.5 481.399L407.5 481.399C404.462 481.399 402 478.934 402 475.894Z" fill="#D1D2F1" fill-rule="evenodd"/><text fill="#696F95" font-family="Cambria Math,Cambria Math_MSFontService,sans-serif" font-weight="400" font-size="14.6761" transform="matrix(1 0 0 1.00083 414.756 470)">𝒋</text><text fill="#696F95" font-family="Cambria Math,Cambria Math_MSFontService,sans-serif" font-weight="400" font-size="14.6761" transform="matrix(1 0 0 1.00083 420.421 470)"></text><text fill="#696F95" font-family="Yu Gothic,Yu Gothic_MSFontService,sans-serif" font-weight="700" font-size="14.6761" transform="matrix(1 0 0 1.00083 423.587 470)">の方が</text><text fill="#696F95" font-family="Cambria Math,Cambria Math_MSFontService,sans-serif" font-weight="400" font-size="14.6761" transform="matrix(1 0 0 1.00083 467.579 470)"></text><text fill="#696F95" font-family="Cambria Math,Cambria Math_MSFontService,sans-serif" font-weight="400" font-size="14.6761" transform="matrix(1 0 0 1.00083 470.745 470)">𝒌</text><text fill="#696F95" font-family="Cambria Math,Cambria Math_MSFontService,sans-serif" font-weight="400" font-size="14.6761" transform="matrix(1 0 0 1.00083 479.744 470)"></text><text fill="#696F95" font-family="Yu Gothic,Yu Gothic_MSFontService,sans-serif" font-weight="700" font-size="14.6761" transform="matrix(1 0 0 1.00083 482.91 470)">より良い</text><path d="M699 43.7185C699 41.6832 700.649 40.0332 702.682 40.0332L833.318 40.0332C835.351 40.0332 837 41.6832 837 43.7185L837 131.427C837 133.462 835.351 135.112 833.318 135.112L702.682 135.112C700.649 135.112 699 133.462 699 131.427Z" fill="#F9E3D5" fill-rule="evenodd"/><rect x="737" y="48.0398" width="67.9999" height="80.0663" stroke="#A38E80" stroke-width="1.99962" stroke-miterlimit="8" fill="#F8FBF1"/><path d="M744 56.0464 797 56.0464" stroke="#A38E80" stroke-width="1.99962" stroke-miterlimit="8" fill="none" fill-rule="evenodd"/><path d="M744 63.0523 797 63.0523" stroke="#A38E80" stroke-width="1.99962" stroke-miterlimit="8" fill="none" fill-rule="evenodd"/><path d="M744 75.0622 797 75.0622" stroke="#A38E80" stroke-width="1.99962" stroke-miterlimit="8" fill="none" fill-rule="evenodd"/><path d="M744 81.0672 797 81.0672" stroke="#A38E80" stroke-width="1.99962" stroke-miterlimit="8" fill="none" fill-rule="evenodd"/><path d="M744 94.0779 797 94.0779" stroke="#A38E80" stroke-width="1.99962" stroke-miterlimit="8" fill="none" fill-rule="evenodd"/><path d="M744 100.083 797 100.083" stroke="#A38E80" stroke-width="1.99962" stroke-miterlimit="8" fill="none" fill-rule="evenodd"/><path d="M744 106.088 797 106.088" stroke="#A38E80" stroke-width="1.99962" stroke-miterlimit="8" fill="none" fill-rule="evenodd"/><path d="M744 113.094 797 113.094" stroke="#A38E80" stroke-width="1.99962" stroke-miterlimit="8" fill="none" fill-rule="evenodd"/><path d="M744 69.0572 779 69.0572" stroke="#A38E80" stroke-width="1.99962" stroke-miterlimit="8" fill="none" fill-rule="evenodd"/><path d="M744 88.0729 758 88.0729" stroke="#A38E80" stroke-width="1.99962" stroke-miterlimit="8" fill="none" fill-rule="evenodd"/><path d="M744 119.099 769 119.099" stroke="#A38E80" stroke-width="1.99962" stroke-miterlimit="8" fill="none" fill-rule="evenodd"/><path d="M767 138.114 767 156.15 765 156.15 765 138.114ZM771.529 148.649 766 158.136 760.471 148.649C760.192 148.171 760.353 147.559 760.83 147.28 761.307 147.002 761.92 147.163 762.198 147.64L766.864 155.646 765.136 155.646 769.802 147.64C770.08 147.163 770.693 147.002 771.169 147.28 771.646 147.559 771.808 148.171 771.529 148.649Z" fill="#A38E80"/><path d="M736 272.68C736 270.218 737.994 268.222 740.454 268.222L793.546 268.222C796.006 268.222 798 270.218 798 272.68L798 304.799C798 307.261 796.006 309.256 793.546 309.256L740.454 309.256C737.994 309.256 736 307.261 736 304.799Z" fill="#F9E3D5" fill-rule="evenodd"/><rect x="747" y="276.229" width="41.0001" height="26.0216" stroke="#A38E80" stroke-width="1.99962" stroke-miterlimit="8" fill="#F6F5EB"/><path d="M751 284.236 784 284.236 783.438 284.236" stroke="#A38E80" stroke-width="1.99962" stroke-miterlimit="8" fill="none" fill-rule="evenodd"/><path d="M751 289.24 784 289.24 783.438 289.24" stroke="#A38E80" stroke-width="1.99962" stroke-miterlimit="8" fill="none" fill-rule="evenodd"/><path d="M751 295.245 761 295.245" stroke="#A38E80" stroke-width="1.99962" stroke-miterlimit="8" fill="none" fill-rule="evenodd"/><path d="M419 246.204 419 264.239 417 264.239 417 246.204ZM423.529 256.738 418 266.225 412.471 256.738C412.192 256.261 412.353 255.648 412.83 255.37 413.307 255.091 413.92 255.253 414.198 255.73L418.864 263.735 417.136 263.735 421.802 255.73C422.08 255.253 422.693 255.091 423.17 255.37 423.647 255.648 423.808 256.261 423.529 256.738Z" fill="#A38E80"/><path d="M533 245.203 533 264.239 531 264.239 531 245.203ZM537.529 256.738 532 266.225 526.471 256.738C526.192 256.261 526.353 255.648 526.83 255.37 527.307 255.091 527.92 255.253 528.198 255.73L532.864 263.735 531.136 263.735 535.802 255.73C536.08 255.253 536.693 255.091 537.17 255.37 537.647 255.648 537.808 256.261 537.529 256.738Z" fill="#A38E80"/><path d="M550 322.267C550 327.795 548.259 332.275 546.111 332.275L480.388 332.275C478.241 332.275 476.5 336.756 476.5 342.284 476.5 336.756 474.759 332.275 472.611 332.275L406.888 332.275C404.741 332.275 403 327.795 403 322.267" stroke="#A38E80" stroke-width="2.00128" stroke-miterlimit="8" fill="none" fill-rule="evenodd"/><path d="M478 338.28 478 357.316 476 357.316 476 338.28ZM482.529 349.816 477 359.302 471.471 349.816C471.192 349.338 471.353 348.725 471.83 348.447 472.307 348.169 472.92 348.33 473.198 348.807L477.864 356.812 476.136 356.812 480.802 348.807C481.08 348.33 481.693 348.169 482.17 348.447 482.647 348.725 482.808 349.338 482.529 349.816Z" fill="#A38E80"/><path d="M474 432.358 474 414.323 476 414.323 476 432.358ZM469.471 421.824 475 412.337 480.529 421.824C480.808 422.301 480.647 422.914 480.17 423.192 479.693 423.471 479.08 423.31 478.802 422.832L474.136 414.827 475.864 414.827 471.198 422.832C470.92 423.31 470.307 423.471 469.83 423.192 469.353 422.914 469.192 422.301 469.471 421.824Z" fill="#A38E80"/><path d="M385 169.311C385 166.453 387.315 164.136 390.171 164.136L445.829 164.136C448.685 164.136 451 166.453 451 169.311L451 225.015C451 227.874 448.685 230.191 445.829 230.191L390.171 230.191C387.315 230.191 385 227.874 385 225.015Z" fill="#DEEDCE" fill-rule="evenodd"/><path d="M433.017 219.532C432.738 216.116 435.882 212.456 438.919 212.456L447.887 212.18C450.628 212.134 450.721 212.394 450.861 215.121 450.907 218.475 450.954 221.829 451 225.182 451 227.771 448.553 230.053 445.377 230.053L435.991 230.191C433.25 230.099 433.223 230.543 433.162 228.215 433.101 225.887 433.017 223.575 433.017 219.532Z" fill="#82936F" fill-rule="evenodd"/><text fill="#FFFFFF" font-family="Cambria Math,Cambria Math_MSFontService,sans-serif" font-weight="400" font-size="14.6761" transform="matrix(1 0 0 1.00083 436.799 227)">𝑟</text><path d="M405.5 181.15C405.5 178.663 407.515 176.646 410 176.646 412.485 176.646 414.5 178.663 414.5 181.15 414.5 183.637 412.485 185.654 410 185.654 407.515 185.654 405.5 183.637 405.5 181.15Z" stroke="#829373" stroke-width="1.33308" stroke-miterlimit="8" fill="none" fill-rule="evenodd"/><path d="M423.5 181.15C423.5 178.663 425.515 176.646 428 176.646 430.485 176.646 432.5 178.663 432.5 181.15 432.5 183.637 430.485 185.654 428 185.654 425.515 185.654 423.5 183.637 423.5 181.15Z" stroke="#829373" stroke-width="1.33308" stroke-miterlimit="8" fill="none" fill-rule="evenodd"/><path d="M406.5 211.175C406.5 208.688 408.515 206.671 411 206.671 413.485 206.671 415.5 208.688 415.5 211.175 415.5 213.662 413.485 215.679 411 215.679 408.515 215.679 406.5 213.662 406.5 211.175Z" stroke="#829373" stroke-width="1.33308" stroke-miterlimit="8" fill="none" fill-rule="evenodd"/><path d="M424.5 211.175C424.5 208.688 426.515 206.671 429 206.671 431.485 206.671 433.5 208.688 433.5 211.175 433.5 213.662 431.485 215.679 429 215.679 426.515 215.679 424.5 213.662 424.5 211.175Z" stroke="#829373" stroke-width="1.33308" stroke-miterlimit="8" fill="none" fill-rule="evenodd"/><path d="M399.5 196.163C399.5 193.675 401.515 191.659 404 191.659 406.485 191.659 408.5 193.675 408.5 196.163 408.5 198.65 406.485 200.666 404 200.666 401.515 200.666 399.5 198.65 399.5 196.163Z" stroke="#829373" stroke-width="1.33308" stroke-miterlimit="8" fill="none" fill-rule="evenodd"/><path d="M415.5 196.663C415.5 194.452 417.515 192.66 420 192.66 422.485 192.66 424.5 194.452 424.5 196.663 424.5 198.874 422.485 200.666 420 200.666 417.515 200.666 415.5 198.874 415.5 196.663Z" stroke="#829373" stroke-width="1.33308" stroke-miterlimit="8" fill="none" fill-rule="evenodd"/><path d="M429.5 196.163C429.5 193.675 431.515 191.659 434 191.659 436.485 191.659 438.5 193.675 438.5 196.163 438.5 198.65 436.485 200.666 434 200.666 431.515 200.666 429.5 198.65 429.5 196.163Z" stroke="#829373" stroke-width="1.33308" stroke-miterlimit="8" fill="none" fill-rule="evenodd"/><path d="M0 0 5.98995 6.39953" stroke="#829373" stroke-width="1.99962" stroke-miterlimit="8" fill="none" fill-rule="evenodd" transform="matrix(-1 0 0 1.00083 409.99 185.153)"/><path d="M410 185.153 419.461 191.824" stroke="#829373" stroke-width="1.99962" stroke-miterlimit="8" fill="none" fill-rule="evenodd"/><path d="M410 185.153 433.38 191.548" stroke="#829373" stroke-width="1.99962" stroke-miterlimit="8" fill="none" fill-rule="evenodd"/><path d="M0 0 23.8073 6.13397" stroke="#829373" stroke-width="1.99962" stroke-miterlimit="8" fill="none" fill-rule="evenodd" transform="matrix(-1 0 0 1.00083 427.807 185.153)"/><path d="M0 0 8.35675 6.39953" stroke="#829373" stroke-width="1.99962" stroke-miterlimit="8" fill="none" fill-rule="evenodd" transform="matrix(-1 0 0 1.00083 427.357 185.153)"/><path d="M428 185.153 433.563 191.282" stroke="#829373" stroke-width="1.99962" stroke-miterlimit="8" fill="none" fill-rule="evenodd"/><path d="M404 200.166 410.403 206.22" stroke="#829373" stroke-width="1.99962" stroke-miterlimit="8" fill="none" fill-rule="evenodd"/><path d="M404 200.166 428.221 206.486" stroke="#829373" stroke-width="1.99962" stroke-miterlimit="8" fill="none" fill-rule="evenodd"/><path d="M0 0 9.04723 5.78306" stroke="#829373" stroke-width="1.99962" stroke-miterlimit="8" fill="none" fill-rule="evenodd" transform="matrix(-1 0 0 1.00083 419.047 200.166)"/><path d="M419 200.166 427.77 206.22" stroke="#829373" stroke-width="1.99962" stroke-miterlimit="8" fill="none" fill-rule="evenodd"/><path d="M0 0 22.9671 6.05902" stroke="#829373" stroke-width="1.99962" stroke-miterlimit="8" fill="none" fill-rule="evenodd" transform="matrix(-1 0 0 1.00083 432.967 200.166)"/><path d="M0 0 5.14979 6.32469" stroke="#829373" stroke-width="1.99962" stroke-miterlimit="8" fill="none" fill-rule="evenodd" transform="matrix(-1 0 0 1.00083 433.15 200.166)"/><path d="M499 169.311C499 166.453 501.315 164.136 504.171 164.136L559.829 164.136C562.685 164.136 565 166.453 565 169.311L565 225.015C565 227.874 562.685 230.191 559.829 230.191L504.171 230.191C501.315 230.191 499 227.874 499 225.015Z" fill="#DDEECE" fill-rule="evenodd"/><path d="M548.016 219.532C547.753 216.116 550.722 212.456 553.59 212.456L562.06 212.18C564.649 212.134 564.737 212.394 564.868 215.121 564.912 218.475 564.956 221.829 565 225.182 565 227.771 562.689 230.053 559.69 230.053L550.825 230.191C548.236 230.099 548.211 230.543 548.153 228.215 548.096 225.887 548.016 223.575 548.016 219.532Z" fill="#80936C" fill-rule="evenodd"/><text fill="#FFFFFF" font-family="Cambria Math,Cambria Math_MSFontService,sans-serif" font-weight="400" font-size="14.6761" transform="matrix(1 0 0 1.00083 551.06 226)">𝑟</text><path d="M520.5 180.65C520.5 178.439 522.515 176.646 525 176.646 527.485 176.646 529.5 178.439 529.5 180.65 529.5 182.861 527.485 184.653 525 184.653 522.515 184.653 520.5 182.861 520.5 180.65Z" stroke="#829373" stroke-width="1.33308" stroke-miterlimit="8" fill="#DDEECE" fill-rule="evenodd"/><path d="M538.5 181.15C538.5 178.663 540.291 176.646 542.5 176.646 544.709 176.646 546.5 178.663 546.5 181.15 546.5 183.637 544.709 185.654 542.5 185.654 540.291 185.654 538.5 183.637 538.5 181.15Z" stroke="#829373" stroke-width="1.33308" stroke-miterlimit="8" fill="#DDEECE" fill-rule="evenodd"/><path d="M520.5 210.675C520.5 208.464 522.515 206.671 525 206.671 527.485 206.671 529.5 208.464 529.5 210.675 529.5 212.886 527.485 214.678 525 214.678 522.515 214.678 520.5 212.886 520.5 210.675Z" stroke="#829373" stroke-width="1.33308" stroke-miterlimit="8" fill="#DDEECE" fill-rule="evenodd"/><path d="M538.5 211.175C538.5 208.688 540.515 206.671 543 206.671 545.485 206.671 547.5 208.688 547.5 211.175 547.5 213.662 545.485 215.679 543 215.679 540.515 215.679 538.5 213.662 538.5 211.175Z" stroke="#829373" stroke-width="1.33308" stroke-miterlimit="8" fill="#DDEECE" fill-rule="evenodd"/><path d="M514.5 196.163C514.5 193.675 516.515 191.659 519 191.659 521.485 191.659 523.5 193.675 523.5 196.163 523.5 198.65 521.485 200.666 519 200.666 516.515 200.666 514.5 198.65 514.5 196.163Z" stroke="#829373" stroke-width="1.33308" stroke-miterlimit="8" fill="#DDEECE" fill-rule="evenodd"/><path d="M529.5 196.163C529.5 193.675 531.515 191.659 534 191.659 536.485 191.659 538.5 193.675 538.5 196.163 538.5 198.65 536.485 200.666 534 200.666 531.515 200.666 529.5 198.65 529.5 196.163Z" stroke="#829373" stroke-width="1.33308" stroke-miterlimit="8" fill="#DDEECE" fill-rule="evenodd"/><path d="M543.5 196.163C543.5 193.675 545.515 191.659 548 191.659 550.485 191.659 552.5 193.675 552.5 196.163 552.5 198.65 550.485 200.666 548 200.666 545.515 200.666 543.5 198.65 543.5 196.163Z" stroke="#829373" stroke-width="1.33308" stroke-miterlimit="8" fill="#DDEECE" fill-rule="evenodd"/><path d="M0 0 5.98995 6.39953" stroke="#829373" stroke-width="1.99962" stroke-miterlimit="8" fill="#DDEECE" fill-rule="evenodd" transform="matrix(-1 0 0 1.00083 523.99 184.153)"/><path d="M524 184.153 533.461 190.823" stroke="#829373" stroke-width="1.99962" stroke-miterlimit="8" fill="#DDEECE" fill-rule="evenodd"/><path d="M524 184.153 547.38 190.547" stroke="#829373" stroke-width="1.99962" stroke-miterlimit="8" fill="#DDEECE" fill-rule="evenodd"/><path d="M0 0 23.8073 6.13397" stroke="#829373" stroke-width="1.99962" stroke-miterlimit="8" fill="#DDEECE" fill-rule="evenodd" transform="matrix(-1 0 0 1.00083 541.807 185.153)"/><path d="M0 0 8.35675 6.39953" stroke="#829373" stroke-width="1.99962" stroke-miterlimit="8" fill="#DDEECE" fill-rule="evenodd" transform="matrix(-1 0 0 1.00083 542.357 185.153)"/><path d="M542 185.153 547.563 191.282" stroke="#829373" stroke-width="1.99962" stroke-miterlimit="8" fill="#DDEECE" fill-rule="evenodd"/><path d="M518 200.166 524.403 206.22" stroke="#829373" stroke-width="1.99962" stroke-miterlimit="8" fill="#DDEECE" fill-rule="evenodd"/><path d="M518 200.166 542.221 206.486" stroke="#829373" stroke-width="1.99962" stroke-miterlimit="8" fill="#DDEECE" fill-rule="evenodd"/><path d="M0 0 9.04723 5.78306" stroke="#829373" stroke-width="1.99962" stroke-miterlimit="8" fill="#DDEECE" fill-rule="evenodd" transform="matrix(-1 0 0 1.00083 534.047 200.166)"/><path d="M534 200.166 542.77 206.22" stroke="#829373" stroke-width="1.99962" stroke-miterlimit="8" fill="#DDEECE" fill-rule="evenodd"/><path d="M0 0 22.9671 6.05902" stroke="#829373" stroke-width="1.99962" stroke-miterlimit="8" fill="#DDEECE" fill-rule="evenodd" transform="matrix(-1 0 0 1.00083 547.967 200.166)"/><path d="M0 0 5.14979 6.32469" stroke="#829373" stroke-width="1.99962" stroke-miterlimit="8" fill="#DDEECE" fill-rule="evenodd" transform="matrix(-1 0 0 1.00083 547.15 200.166)"/><path d="M735 351.384C735 348.569 737.28 346.287 740.093 346.287L794.907 346.287C797.72 346.287 800 348.569 800 351.384L800 408.245C800 411.06 797.72 413.342 794.907 413.342L740.093 413.342C737.28 413.342 735 411.06 735 408.245Z" fill="#DDEECE" fill-rule="evenodd"/><path d="M783.017 402.684C782.738 399.268 785.882 395.608 788.919 395.608L797.887 395.332C800.628 395.286 800.721 395.546 800.861 398.273 800.907 401.626 800.954 404.98 801 408.334 801 410.923 798.553 413.205 795.377 413.205L785.991 413.342C783.25 413.251 783.223 413.695 783.162 411.367 783.101 409.039 783.017 406.727 783.017 402.684Z" fill="#80936C" fill-rule="evenodd"/><text fill="#FFFFFF" font-family="Cambria Math,Cambria Math_MSFontService,sans-serif" font-weight="400" font-size="14.6761" transform="matrix(1 0 0 1.00083 786.639 410)">𝑟</text><path d="M755.5 363.801C755.5 361.59 757.515 359.798 760 359.798 762.485 359.798 764.5 361.59 764.5 363.801 764.5 366.012 762.485 367.805 760 367.805 757.515 367.805 755.5 366.012 755.5 363.801Z" stroke="#829373" stroke-width="1.33308" stroke-miterlimit="8" fill="#DDEECE" fill-rule="evenodd"/><path d="M773.5 364.302C773.5 361.814 775.515 359.798 778 359.798 780.485 359.798 782.5 361.814 782.5 364.302 782.5 366.789 780.485 368.806 778 368.806 775.515 368.806 773.5 366.789 773.5 364.302Z" stroke="#829373" stroke-width="1.33308" stroke-miterlimit="8" fill="#DDEECE" fill-rule="evenodd"/><path d="M756.5 393.826C756.5 391.615 758.515 389.823 761 389.823 763.485 389.823 765.5 391.615 765.5 393.826 765.5 396.037 763.485 397.83 761 397.83 758.515 397.83 756.5 396.037 756.5 393.826Z" stroke="#829373" stroke-width="1.33308" stroke-miterlimit="8" fill="#DDEECE" fill-rule="evenodd"/><path d="M774.5 394.327C774.5 391.839 776.291 389.823 778.5 389.823 780.709 389.823 782.5 391.839 782.5 394.327 782.5 396.814 780.709 398.83 778.5 398.83 776.291 398.83 774.5 396.814 774.5 394.327Z" stroke="#829373" stroke-width="1.33308" stroke-miterlimit="8" fill="#DDEECE" fill-rule="evenodd"/><path d="M749.5 379.314C749.5 376.827 751.515 374.811 754 374.811 756.485 374.811 758.5 376.827 758.5 379.314 758.5 381.802 756.485 383.818 754 383.818 751.515 383.818 749.5 381.802 749.5 379.314Z" stroke="#829373" stroke-width="1.33308" stroke-miterlimit="8" fill="#DDEECE" fill-rule="evenodd"/><path d="M765.5 379.314C765.5 376.827 767.515 374.811 770 374.811 772.485 374.811 774.5 376.827 774.5 379.314 774.5 381.802 772.485 383.818 770 383.818 767.515 383.818 765.5 381.802 765.5 379.314Z" stroke="#829373" stroke-width="1.33308" stroke-miterlimit="8" fill="#DDEECE" fill-rule="evenodd"/><path d="M779.5 379.314C779.5 376.827 781.515 374.811 784 374.811 786.485 374.811 788.5 376.827 788.5 379.314 788.5 381.802 786.485 383.818 784 383.818 781.515 383.818 779.5 381.802 779.5 379.314Z" stroke="#829373" stroke-width="1.33308" stroke-miterlimit="8" fill="#DDEECE" fill-rule="evenodd"/><path d="M0 0 5.98995 6.39953" stroke="#829373" stroke-width="1.99962" stroke-miterlimit="8" fill="#DDEECE" fill-rule="evenodd" transform="matrix(-1 0 0 1.00083 759.99 367.304)"/><path d="M760 367.304 769.461 373.975" stroke="#829373" stroke-width="1.99962" stroke-miterlimit="8" fill="#DDEECE" fill-rule="evenodd"/><path d="M760 367.304 783.381 373.699" stroke="#829373" stroke-width="1.99962" stroke-miterlimit="8" fill="#DDEECE" fill-rule="evenodd"/><path d="M0 0 23.8073 6.13397" stroke="#829373" stroke-width="1.99962" stroke-miterlimit="8" fill="#DDEECE" fill-rule="evenodd" transform="matrix(-1 0 0 1.00083 777.807 368.305)"/><path d="M0 0 8.35675 6.39953" stroke="#829373" stroke-width="1.99962" stroke-miterlimit="8" fill="#DDEECE" fill-rule="evenodd" transform="matrix(-1 0 0 1.00083 777.357 368.305)"/><path d="M778 368.305 783.563 374.434" stroke="#829373" stroke-width="1.99962" stroke-miterlimit="8" fill="#DDEECE" fill-rule="evenodd"/><path d="M754 383.318 760.403 389.371" stroke="#829373" stroke-width="1.99962" stroke-miterlimit="8" fill="#DDEECE" fill-rule="evenodd"/><path d="M754 383.318 778.221 389.637" stroke="#829373" stroke-width="1.99962" stroke-miterlimit="8" fill="#DDEECE" fill-rule="evenodd"/><path d="M0 0 9.04723 5.78306" stroke="#829373" stroke-width="1.99962" stroke-miterlimit="8" fill="#DDEECE" fill-rule="evenodd" transform="matrix(-1 0 0 1.00083 769.047 383.318)"/><path d="M769 383.318 777.77 389.371" stroke="#829373" stroke-width="1.99962" stroke-miterlimit="8" fill="#DDEECE" fill-rule="evenodd"/><path d="M0 0 22.9671 6.05902" stroke="#829373" stroke-width="1.99962" stroke-miterlimit="8" fill="#DDEECE" fill-rule="evenodd" transform="matrix(-1 0 0 1.00083 782.967 383.318)"/><path d="M0 0 5.14979 6.32469" stroke="#829373" stroke-width="1.99962" stroke-miterlimit="8" fill="#DDEECE" fill-rule="evenodd" transform="matrix(-1 0 0 1.00083 783.15 383.318)"/><path d="M780.016 215.529C779.753 212.113 782.722 208.453 785.59 208.453L794.06 208.177C796.649 208.131 796.737 208.391 796.868 211.118 796.912 214.471 796.956 217.825 797 221.179 797 223.768 794.689 226.05 791.69 226.05L782.825 226.187C780.236 226.096 780.211 226.54 780.153 224.212 780.095 221.884 780.016 219.572 780.016 215.529Z" fill="#766472" fill-rule="evenodd"/><text fill="#FFFFFF" font-family="Cambria Math,Cambria Math_MSFontService,sans-serif" font-weight="400" font-size="14.6761" transform="matrix(1 0 0 1.00083 782.112 222)">𝜋</text><path d="M752.5 177.147C752.5 174.659 754.291 172.643 756.5 172.643 758.709 172.643 760.5 174.659 760.5 177.147 760.5 179.634 758.709 181.651 756.5 181.651 754.291 181.651 752.5 179.634 752.5 177.147Z" stroke="#829373" stroke-width="1.33308" stroke-miterlimit="8" fill="none" fill-rule="evenodd"/><path d="M769.5 177.147C769.5 174.659 771.515 172.643 774 172.643 776.485 172.643 778.5 174.659 778.5 177.147 778.5 179.634 776.485 181.651 774 181.651 771.515 181.651 769.5 179.634 769.5 177.147Z" stroke="#829373" stroke-width="1.33308" stroke-miterlimit="8" fill="none" fill-rule="evenodd"/><path d="M752.5 207.172C752.5 204.684 754.515 202.668 757 202.668 759.485 202.668 761.5 204.684 761.5 207.172 761.5 209.659 759.485 211.675 757 211.675 754.515 211.675 752.5 209.659 752.5 207.172Z" stroke="#829373" stroke-width="1.33308" stroke-miterlimit="8" fill="none" fill-rule="evenodd"/><path d="M770.5 207.172C770.5 204.684 772.515 202.668 775 202.668 777.485 202.668 779.5 204.684 779.5 207.172 779.5 209.659 777.485 211.675 775 211.675 772.515 211.675 770.5 209.659 770.5 207.172Z" stroke="#829373" stroke-width="1.33308" stroke-miterlimit="8" fill="none" fill-rule="evenodd"/><path d="M746.5 192.159C746.5 189.672 748.515 187.656 751 187.656 753.485 187.656 755.5 189.672 755.5 192.159 755.5 194.647 753.485 196.663 751 196.663 748.515 196.663 746.5 194.647 746.5 192.159Z" stroke="#829373" stroke-width="1.33308" stroke-miterlimit="8" fill="none" fill-rule="evenodd"/><path d="M761.5 192.159C761.5 189.672 763.515 187.656 766 187.656 768.485 187.656 770.5 189.672 770.5 192.159 770.5 194.647 768.485 196.663 766 196.663 763.515 196.663 761.5 194.647 761.5 192.159Z" stroke="#829373" stroke-width="1.33308" stroke-miterlimit="8" fill="none" fill-rule="evenodd"/><path d="M775.5 192.159C775.5 189.672 777.515 187.656 780 187.656 782.485 187.656 784.5 189.672 784.5 192.159 784.5 194.647 782.485 196.663 780 196.663 777.515 196.663 775.5 194.647 775.5 192.159Z" stroke="#829373" stroke-width="1.33308" stroke-miterlimit="8" fill="none" fill-rule="evenodd"/><path d="M0 0 5.98995 6.39953" stroke="#829373" stroke-width="1.99962" stroke-miterlimit="8" fill="#DDEECE" fill-rule="evenodd" transform="matrix(-1 0 0 1.00083 755.99 181.15)"/><path d="M756 181.15 765.461 187.821" stroke="#829373" stroke-width="1.99962" stroke-miterlimit="8" fill="#DDEECE" fill-rule="evenodd"/><path d="M756 181.15 779.381 187.545" stroke="#829373" stroke-width="1.99962" stroke-miterlimit="8" fill="#DDEECE" fill-rule="evenodd"/><path d="M0 0 23.8073 6.13397" stroke="#829373" stroke-width="1.99962" stroke-miterlimit="8" fill="#DDEECE" fill-rule="evenodd" transform="matrix(-1 0 0 1.00083 773.807 181.15)"/><path d="M0 0 8.35675 6.39953" stroke="#829373" stroke-width="1.99962" stroke-miterlimit="8" fill="#DDEECE" fill-rule="evenodd" transform="matrix(-1 0 0 1.00083 774.357 181.15)"/><path d="M774 181.15 779.563 187.279" stroke="#829373" stroke-width="1.99962" stroke-miterlimit="8" fill="#DDEECE" fill-rule="evenodd"/><path d="M750 196.162 756.403 202.216" stroke="#829373" stroke-width="1.99962" stroke-miterlimit="8" fill="#DDEECE" fill-rule="evenodd"/><path d="M750 196.162 774.221 202.482" stroke="#829373" stroke-width="1.99962" stroke-miterlimit="8" fill="#DDEECE" fill-rule="evenodd"/><path d="M0 0 9.04723 5.78306" stroke="#829373" stroke-width="1.99962" stroke-miterlimit="8" fill="#DDEECE" fill-rule="evenodd" transform="matrix(-1 0 0 1.00083 765.047 196.162)"/><path d="M766 196.162 774.77 202.216" stroke="#829373" stroke-width="1.99962" stroke-miterlimit="8" fill="#DDEECE" fill-rule="evenodd"/><path d="M0 0 22.9671 6.05902" stroke="#829373" stroke-width="1.99962" stroke-miterlimit="8" fill="#DDEECE" fill-rule="evenodd" transform="matrix(-1 0 0 1.00083 778.967 196.162)"/><path d="M0 0 5.14979 6.32469" stroke="#829373" stroke-width="1.99962" stroke-miterlimit="8" fill="#DDEECE" fill-rule="evenodd" transform="matrix(-1 0 0 1.00083 779.15 196.162)"/><path d="M769 237.197 769 255.232 767 255.232 767 237.197ZM773.529 247.731 768 257.218 762.471 247.731C762.192 247.254 762.353 246.641 762.83 246.362 763.307 246.084 763.92 246.245 764.198 246.722L768.864 254.728 767.136 254.728 771.802 246.722C772.08 246.245 772.693 246.084 773.17 246.362 773.647 246.641 773.808 247.254 773.529 247.731Z" fill="#A38E80"/><path d="M769 316.262 769 334.297 767 334.297 767 316.262ZM773.529 326.796 768 336.283 762.471 326.796C762.192 326.319 762.353 325.706 762.83 325.428 763.307 325.149 763.92 325.311 764.198 325.788L768.864 333.793 767.136 333.793 771.802 325.788C772.08 325.311 772.693 325.149 773.17 325.428 773.647 325.706 773.808 326.319 773.529 326.796Z" fill="#A38E80"/><path d="M769 422.35 769 440.385 767 440.385 767 422.35ZM773.529 432.884 768 442.371 762.471 432.884C762.192 432.407 762.353 431.794 762.83 431.516 763.307 431.237 763.92 431.399 764.198 431.876L768.864 439.881 767.136 439.881 771.802 431.876C772.08 431.399 772.693 431.237 773.17 431.516 773.647 431.794 773.808 432.407 773.529 432.884Z" fill="#A38E80"/><path d="M400.212 386.936 396.519 382.205 398.094 380.973 401.788 385.704ZM395.288 380.628 395.082 380.365 392.007 375.483 393.699 374.416 396.747 379.255 396.689 379.173 396.863 379.396ZM390.941 373.79 390.449 373.009 388.105 368.399 389.887 367.492 392.211 372.06 392.165 371.981 392.633 372.723ZM387.198 366.616 386.373 364.993 384.766 361.04 386.618 360.286 388.209 364.199 388.174 364.123 388.98 365.708ZM384.012 359.187 382.877 356.396 381.948 353.47 383.854 352.864 384.771 355.752 384.744 355.678 385.864 358.432ZM381.343 351.563 379.988 347.297 379.618 345.738 381.564 345.276 381.925 346.798 381.905 346.726 383.248 350.957ZM379.157 343.791 377.772 337.949 379.718 337.487 381.102 343.329ZM377.428 335.905 376.468 329.978 378.442 329.658 379.402 335.584ZM376.148 328.003 376.132 327.908 375.596 321.954 377.587 321.774 378.121 327.693 378.112 327.622 378.122 327.682ZM375.416 319.96 375.219 317.775 375.143 313.896 377.143 313.857 377.217 317.701 377.214 317.631 377.407 319.781ZM375.104 311.895 375.018 307.456 375.102 305.823 377.099 305.926 377.016 307.524 377.018 307.453 377.103 311.856ZM375.205 303.824 375.514 297.828 377.511 297.931 377.202 303.927ZM375.713 295.765 376.457 289.807 378.441 290.055 377.698 296.013ZM376.704 287.822 376.86 286.574 377.813 281.848 379.774 282.244 378.828 286.933 378.84 286.859 378.689 288.07ZM378.209 279.886 378.959 276.169 379.585 273.966 381.508 274.514 380.893 276.679 380.911 276.603 380.169 280.282ZM380.132 272.042 381.774 266.267 383.697 266.815 382.056 272.589ZM382.474 264.307 384.58 258.685 386.453 259.388 384.347 265.009ZM385.282 256.811 385.651 255.828 387.814 251.278 389.62 252.138 387.475 256.649 387.508 256.571 387.155 257.514ZM388.674 249.47 390.299 246.052 391.473 244.065 393.194 245.084 392.043 247.032 392.085 246.953 390.479 250.33ZM392.49 242.342 394.822 238.393 396.544 239.411 394.211 243.361ZM387.109 242.544 396.692 237.193 396.63 248.175C396.627 248.728 396.176 249.173 395.624 249.17 395.072 249.167 394.627 248.717 394.63 248.164L394.683 238.896 396.17 239.776 388.084 244.292C387.601 244.561 386.992 244.388 386.723 243.905 386.454 243.423 386.627 242.813 387.109 242.544Z" fill="#172C51"/><path d="M24.2121 149.616 20.5186 144.889 22.0943 143.657 25.7878 148.384ZM19.2875 143.313 19.0819 143.05 16.0073 138.172 17.699 137.106 20.7466 141.941 20.6887 141.858 20.8632 142.082ZM14.9411 136.48 14.4492 135.7 12.105 131.094 13.8871 130.187 16.2105 134.752 16.1653 134.673 16.6327 135.414ZM11.198 129.312 10.3726 127.69 8.76557 123.741 10.6177 122.988 12.2089 126.898 12.1739 126.821 12.9801 128.405ZM8.01187 121.889 6.87706 119.1 5.94819 116.177 7.8539 115.572 8.77084 118.457 8.74406 118.383 9.86401 121.135ZM5.34258 114.272 3.98784 110.009 3.6184 108.451 5.56403 107.99 5.92484 109.511 5.90488 109.439 7.24829 113.666ZM3.15686 106.506 1.77224 100.669 3.71787 100.207 5.10249 106.044ZM1.42795 98.6263 0.467807 92.7048 2.44165 92.3847 3.40179 98.3063ZM0.14776 90.7309 0.132347 90.6359-0.404381 84.6867 1.58716 84.507 2.1207 90.421 2.11186 90.3508 2.12161 90.4109ZM-0.584054 82.6951-0.781014 80.512-0.856701 76.6354 1.14254 76.5964 1.21754 80.4377 1.21369 80.3674 1.40748 82.5155ZM-0.895734 74.6362-0.982316 70.2015-0.898032 68.5692 1.09893 68.6723 1.01648 70.2691 1.01762 70.198 1.10351 74.5971ZM-0.79492 66.5722-0.485584 60.5813 1.51138 60.6844 1.20204 66.6753ZM-0.286612 58.5199 0.456738 52.5673 2.44095 52.815 1.6976 58.7677ZM0.704521 50.583 0.860214 49.3363 1.81352 44.6141 3.7736 45.0098 2.82771 49.6952 2.83978 49.6213 2.68873 50.8308ZM2.20922 42.6541 2.95906 38.9397 3.58505 36.7394 5.50835 37.2866 4.89303 39.4494 4.91142 39.3737 4.1693 43.0498ZM4.13222 34.8161 5.77376 29.0462 7.69706 29.5934 6.05553 35.3633ZM6.47435 27.0876 8.58036 21.4706 10.4527 22.1726 8.3467 27.7896ZM9.28236 19.5982 9.65066 18.6159 11.8145 14.0692 13.6201 14.9285 11.4746 19.4366 11.508 19.3579 11.1547 20.3002ZM12.6738 12.2637 14.2991 8.8484 15.4725 6.86301 17.194 7.8804 16.0434 9.82721 16.0855 9.74816 14.4794 13.1229ZM16.4899 5.14155 18.8221 1.19554 20.5435 2.21294 18.2114 6.15895ZM11.1093 5.34303 20.6924-0.00398916 20.6297 10.9697C20.6266 11.5219 20.1764 11.9669 19.6242 11.9638 19.072 11.9606 18.627 11.5104 18.6301 10.9583L18.683 1.69853 20.1699 2.57734 12.0836 7.08922C11.6014 7.35827 10.9924 7.18548 10.7234 6.70329 10.4543 6.22109 10.6271 5.61208 11.1093 5.34303Z" fill="#172C51" transform="matrix(-1 0 0 1.00083 578 236.196)"/><path d="M34.1761 237.567 30.7769 232.624 32.4245 231.491 35.8237 236.434ZM29.6438 230.976 27.0102 227.147 26.3081 225.881 28.0567 224.911 28.7355 226.135 28.685 226.053 31.2914 229.843ZM25.338 224.133 22.4278 218.887 24.1763 217.917 27.0866 223.163ZM21.4577 217.138 20.5523 215.506 18.8279 211.657 20.6528 210.84 22.3597 214.65 22.3215 214.574 23.2062 216.168ZM18.0104 209.832 15.5579 204.358 17.3828 203.54 19.8353 209.015ZM14.7366 202.451 12.7139 196.803 14.5964 196.129 16.6192 201.777ZM12.0396 194.921 10.0168 189.273 11.8993 188.599 13.9221 194.247ZM9.45399 187.281 7.83807 181.504 9.76378 180.965 11.3797 186.742ZM7.29943 179.578 5.96097 174.793 5.73677 173.719 7.69419 173.31 7.91155 174.351 7.8957 174.286 9.22514 179.039ZM5.32808 171.761 4.10199 165.889 6.05941 165.48 7.28549 171.353ZM3.6933 163.932 2.81153 159.709 2.56447 157.977 4.54404 157.695 4.78657 159.394 4.7755 159.331 5.65071 163.523ZM2.28196 155.998 1.43442 150.059 3.41399 149.777 4.26152 155.715ZM1.15191 148.08 0.58071 144.077 0.420934 142.065 2.41428 141.907 2.57159 143.888 2.56469 143.826 3.13148 147.797ZM0.262647 140.072-0.212214 134.092 1.78114 133.933 2.256 139.913ZM-0.370501 132.098-0.694044 128.024-0.727955 126.05 1.27137 126.016 1.30475 127.958 1.30176 127.897 1.62285 131.94ZM-0.762312 124.051-0.865384 118.053 1.13395 118.019 1.23702 124.017ZM-0.899741 116.054-0.975003 111.674-0.898676 109.995 1.09889 110.086 1.02398 111.734 1.02486 111.671 1.09959 116.02ZM-0.807893 107.997-0.535543 102.005 1.46202 102.095 1.18967 108.088ZM-0.444759 100.007-0.224201 95.1538-0.092565 93.9562 1.89509 94.1747 1.76695 95.3405 1.77191 95.2766 1.5528 100.098ZM0.125905 91.9686 0.781313 86.0056 2.76897 86.2241 2.11356 92.187ZM0.999782 84.018 1.59655 78.5885 1.70207 77.9947 3.67085 78.3445 3.57114 78.9057 3.58057 78.84 2.98744 84.2364ZM2.0519 76.0259 3.10138 70.1195 5.07017 70.4694 4.02068 76.3757ZM3.45121 68.1508 4.5007 62.2444 6.46949 62.5942 5.42 68.5006ZM4.99363 60.2351 6.4508 54.4159 8.39054 54.9017 6.93337 60.7209ZM6.93653 52.4762 8.3937 46.657 10.3334 47.1427 8.87626 52.9619ZM8.98301 44.6709 10.8629 38.9742 12.7618 39.6009 10.8819 45.2976ZM11.4896 37.0753 13.3695 31.3786 15.2684 32.0053 13.3885 37.702ZM14.0572 29.4194 16.3749 23.8863 18.2193 24.6589 15.9016 30.1919ZM17.1475 22.042 19.4652 16.5089 21.3095 17.2815 18.9918 22.8145ZM20.2378 14.6646 20.3496 14.3975 23.0227 9.25882 24.7967 10.1816 22.1427 15.2835 22.1779 15.2084 22.0821 15.4371ZM23.9455 7.48486 26.7139 2.16297 28.4879 3.08577 25.7195 8.40766ZM19.6884 5.8534 28.9682-0.00411094 29.4992 10.9569C29.5259 11.5084 29.1004 11.9772 28.5489 12.0039 27.9974 12.0306 27.5286 11.6052 27.5019 11.0536L27.0538 1.8046 28.5862 2.60169 20.7557 7.54434C20.2888 7.83908 19.6713 7.69948 19.3766 7.23254 19.0818 6.7656 19.2214 6.14814 19.6884 5.8534Z" fill="#172C51" transform="matrix(-1 0 0 1.00083 827 230.191)"/><path d="M403 279.02C403 276.926 404.696 275.228 406.788 275.228L431.212 275.228C433.304 275.228 435 276.926 435 279.02L435 302.462C435 304.556 433.304 306.254 431.212 306.254L406.788 306.254C404.696 306.254 403 304.556 403 302.462Z" fill="#F1F1F1" fill-rule="evenodd"/><text fill="#505050" font-family="Cambria Math,Cambria Math_MSFontService,sans-serif" font-weight="400" font-size="24.0154" transform="matrix(1 0 0 1.00083 400.538 299)"></text><text fill="#505050" font-family="Cambria Math,Cambria Math_MSFontService,sans-serif" font-weight="400" font-size="24.0154" transform="matrix(1 0 0 1.00083 405.87 299)"></text><text fill="#505050" font-family="Cambria Math,Cambria Math_MSFontService,sans-serif" font-weight="400" font-size="24.0154" transform="matrix(1 0 0 1.00083 411.203 299)">𝒓</text><text fill="#505050" font-family="Cambria Math,Cambria Math_MSFontService,sans-serif" font-weight="400" font-size="17.5312" transform="matrix(1 0 0 1.00083 424.034 303)">𝒋</text><path d="M519 279.898C519 277.872 520.641 276.229 522.666 276.229L547.334 276.229C549.359 276.229 551 277.872 551 279.898L551 302.584C551 304.611 549.359 306.254 547.334 306.254L522.666 306.254C520.641 306.254 519 304.611 519 302.584Z" fill="#F1F1F1" fill-rule="evenodd"/><text fill="#505050" font-family="Cambria Math,Cambria Math_MSFontService,sans-serif" font-weight="400" font-size="24.0154" transform="matrix(1 0 0 1.00083 514.595 300)"></text><text fill="#505050" font-family="Cambria Math,Cambria Math_MSFontService,sans-serif" font-weight="400" font-size="24.0154" transform="matrix(1 0 0 1.00083 519.927 300)"></text><text fill="#505050" font-family="Cambria Math,Cambria Math_MSFontService,sans-serif" font-weight="400" font-size="24.0154" transform="matrix(1 0 0 1.00083 525.26 300)">𝒓</text><text fill="#505050" font-family="Cambria Math,Cambria Math_MSFontService,sans-serif" font-weight="400" font-size="17.5312" transform="matrix(1 0 0 1.00083 538.091 305)">𝒌</text><path d="M390 378.378C390 376.131 391.82 374.31 394.064 374.31L552.936 374.31C555.18 374.31 557 376.131 557 378.378L557 401.268C557 403.515 555.18 405.336 552.936 405.336L394.064 405.336C391.82 405.336 390 403.515 390 401.268Z" fill="#F0F0F0" fill-rule="evenodd"/><text fill="#5D5D5D" font-family="Cambria Math,Cambria Math_MSFontService,sans-serif" font-weight="400" font-size="14.6761" transform="matrix(1 0 0 1.00083 394.097 395)">𝒍𝒐𝒔𝒔</text><text fill="#5D5D5D" font-family="Cambria Math,Cambria Math_MSFontService,sans-serif" font-weight="400" font-size="14.6761" transform="matrix(1 0 0 1.00083 426.831 395)">=</text><text fill="#5D5D5D" font-family="Cambria Math,Cambria Math_MSFontService,sans-serif" font-weight="400" font-size="14.6761" transform="matrix(1 0 0 1.00083 441.902 395)">𝒍𝒐𝒈</text><path d="M149.534 1.72212C151.135 2.53427 152.407 4.02481 153.35 6.19374 154.294 8.36266 154.766 10.9042 154.766 13.8184 154.766 16.7135 154.294 19.2551 153.35 21.4431 152.407 23.6311 151.135 25.1264 149.534 25.929L149.305 25.3558C150.585 24.5245 151.587 23.0961 152.311 21.0705 153.035 19.0449 153.397 16.6323 153.397 13.8327 153.397 10.9807 153.033 8.55256 152.304 6.54846 151.575 4.54435 150.576 3.12667 149.305 2.2954ZM80.7313 1.72212 80.9678 2.2954C79.697 3.12667 78.6974 4.54435 77.9688 6.54846 77.2403 8.55256 76.876 10.9807 76.876 13.8327 76.876 16.6323 77.2367 19.0449 77.9581 21.0705 78.6795 23.0961 79.6827 24.5245 80.9678 25.3558L80.7313 25.929C79.1357 25.1264 77.8661 23.6311 76.9226 21.4431 75.9791 19.2551 75.5073 16.7135 75.5073 13.8184 75.5073 10.9042 75.9791 8.36266 76.9226 6.19374 77.8661 4.02481 79.1357 2.53427 80.7313 1.72212Z" fill="#5D5D5D" fill-rule="evenodd" transform="matrix(1 0 0 1.00083 394.097 376.821)"/><text fill="#5D5D5D" font-family="Cambria Math,Cambria Math_MSFontService,sans-serif" font-weight="400" font-size="14.6761" transform="matrix(1 0 0 1.00083 475.535 395)">𝝈</text><path d="M142.892 4.955C144.382 5.34674 145.531 6.36193 146.338 8.00057 147.146 9.63921 147.55 11.5788 147.55 13.8194 147.55 16.06 147.146 17.9996 146.338 19.6382 145.531 21.2769 144.382 22.2921 142.892 22.6838L142.712 22.0962C143.869 21.6615 144.744 20.7143 145.339 19.2549 145.934 17.7954 146.231 15.9859 146.231 13.8266 146.231 11.6624 145.934 9.84941 145.339 8.38754 144.744 6.92566 143.869 5.97736 142.712 5.54262ZM96.5508 4.955 96.73 5.54262C95.5738 5.97736 94.6984 6.92566 94.1036 8.38754 93.5088 9.84941 93.2114 11.6624 93.2114 13.8266 93.2114 15.9859 93.5088 17.7954 94.1036 19.2549 94.6984 20.7143 95.5738 21.6615 96.73 22.0962L96.5508 22.6838C95.0603 22.2921 93.9113 21.2769 93.1039 19.6382 92.2966 17.9996 91.8929 16.06 91.8929 13.8194 91.8929 11.5788 92.2966 9.63921 93.1039 8.00057 93.9113 6.36193 95.0603 5.34674 96.5508 4.955Z" fill="#5D5D5D" fill-rule="evenodd" transform="matrix(1 0 0 1.00083 394.097 376.821)"/><text fill="#5D5D5D" font-family="Cambria Math,Cambria Math_MSFontService,sans-serif" font-weight="400" font-size="14.6761" transform="matrix(1 0 0 1.00083 491.286 395)">𝒓</text><text fill="#5D5D5D" font-family="Cambria Math,Cambria Math_MSFontService,sans-serif" font-weight="400" font-size="10.7135" transform="matrix(1 0 0 1.00083 499.118 398)">𝒋</text><text fill="#5D5D5D" font-family="Cambria Math,Cambria Math_MSFontService,sans-serif" font-weight="400" font-size="14.6761" transform="matrix(1 0 0 1.00083 507.149 395)">−</text><text fill="#5D5D5D" font-family="Cambria Math,Cambria Math_MSFontService,sans-serif" font-weight="400" font-size="14.6761" transform="matrix(1 0 0 1.00083 521.407 395)">𝒓</text><text fill="#5D5D5D" font-family="Cambria Math,Cambria Math_MSFontService,sans-serif" font-weight="400" font-size="10.7135" transform="matrix(1 0 0 1.00083 529.239 398)">𝒌</text><path d="M753 456.166C753 454.072 754.696 452.375 756.789 452.375L781.211 452.375C783.304 452.375 785 454.072 785 456.166L785 479.609C785 481.703 783.304 483.4 781.211 483.4L756.789 483.4C754.696 483.4 753 481.703 753 479.609Z" fill="#F1F1F1" fill-rule="evenodd"/><text fill="#505050" font-family="Cambria Math,Cambria Math_MSFontService,sans-serif" font-weight="400" font-size="24.0154" transform="matrix(1 0 0 1.00083 759.853 477)">𝒓</text><text font-family="Yu Gothic,Yu Gothic_MSFontService,sans-serif" font-weight="700" font-size="16.0103" transform="matrix(1 0 0 1.00083 12.0636 36)">①</text><text font-family="Yu Gothic,Yu Gothic_MSFontService,sans-serif" font-weight="700" font-size="16.0103" transform="matrix(1 0 0 1.00083 44.0576 36)">人間のフィードバックを集める</text><text font-family="Yu Gothic,Yu Gothic_MSFontService,sans-serif" font-weight="700" font-size="16.0103" transform="matrix(1 0 0 1.00083 294.152 35)">②</text><text font-family="Yu Gothic,Yu Gothic_MSFontService,sans-serif" font-weight="700" font-size="16.0103" transform="matrix(1 0 0 1.00083 326.146 35)">報酬モデルを訓練する</text><text font-family="Yu Gothic,Yu Gothic_MSFontService,sans-serif" font-weight="700" font-size="16.0103" transform="matrix(1 0 0 1.00083 603.498 33)">③</text><text font-family="Calibri,Calibri_MSFontService,sans-serif" font-weight="700" font-size="16.0103" transform="matrix(1 0 0 1.00083 635.492 33)">PPO</text><text font-family="Yu Gothic,Yu Gothic_MSFontService,sans-serif" font-weight="700" font-size="16.0103" transform="matrix(1 0 0 1.00083 663.32 33)">を使ってポリシーを訓練する</text><path d="M281 21.0175 281 492.408" stroke="#172C51" stroke-width="1.99962" stroke-miterlimit="8" stroke-dasharray="1.99962 1.99962" fill="none" fill-rule="evenodd"/><path d="M594 21.0175 594 492.408" stroke="#172C51" stroke-width="1.99962" stroke-miterlimit="8" stroke-dasharray="1.99962 1.99962" fill="none" fill-rule="evenodd"/><text font-family="Calibri,Calibri_MSFontService,sans-serif" font-weight="400" font-size="14.6761" transform="matrix(1 0 0 1.00083 17.4701 61)">Reddit</text><text font-family="Yu Gothic,Yu Gothic_MSFontService,sans-serif" font-weight="400" font-size="14.6761" transform="matrix(1 0 0 1.00083 56.2962 61)">への投</text><text font-family="Yu Gothic,Yu Gothic_MSFontService,sans-serif" font-weight="400" font-size="14.6761" transform="matrix(1 0 0 1.00083 17.4701 78)">稿と要約のペ</text><text font-family="Yu Gothic,Yu Gothic_MSFontService,sans-serif" font-weight="400" font-size="14.6761" transform="matrix(1 0 0 1.00083 17.4701 96)">アのデータ</text><text font-family="Yu Gothic,Yu Gothic_MSFontService,sans-serif" font-weight="400" font-size="14.6761" transform="matrix(1 0 0 1.00083 17.4701 113)">セットからサ</text><text font-family="Yu Gothic,Yu Gothic_MSFontService,sans-serif" font-weight="400" font-size="14.6761" transform="matrix(1 0 0 1.00083 17.4701 131)">ンプルされた</text><text font-family="Calibri,Calibri_MSFontService,sans-serif" font-weight="400" font-size="14.6761" transform="matrix(1 0 0 1.00083 17.4701 149)">Reddit</text><text font-family="Yu Gothic,Yu Gothic_MSFontService,sans-serif" font-weight="400" font-size="14.6761" transform="matrix(1 0 0 1.00083 56.2962 149)">投稿</text><text font-family="Yu Gothic,Yu Gothic_MSFontService,sans-serif" font-weight="400" font-size="14.6761" transform="matrix(1 0 0 1.00083 17.4701 181)">一組の要約を</text><text font-family="Yu Gothic,Yu Gothic_MSFontService,sans-serif" font-weight="400" font-size="14.6761" transform="matrix(1 0 0 1.00083 17.4701 199)">サンプルする</text><text font-family="Yu Gothic,Yu Gothic_MSFontService,sans-serif" font-weight="400" font-size="14.6761" transform="matrix(1 0 0 1.00083 17.4701 217)">ために様々な</text><text font-family="Yu Gothic,Yu Gothic_MSFontService,sans-serif" font-weight="400" font-size="14.6761" transform="matrix(1 0 0 1.00083 17.4701 234)">ポリシーを使</text><text font-family="Yu Gothic,Yu Gothic_MSFontService,sans-serif" font-weight="400" font-size="14.6761" transform="matrix(1 0 0 1.00083 17.4701 252)">う</text><text font-family="Yu Gothic,Yu Gothic_MSFontService,sans-serif" font-weight="400" font-size="14.6761" transform="matrix(1 0 0 1.00083 17.4701 283)">評価用に</text><text font-family="Calibri,Calibri_MSFontService,sans-serif" font-weight="400" font-size="14.6761" transform="matrix(1 0 0 1.00083 76.1258 283)">2</text><text font-family="Yu Gothic,Yu Gothic_MSFontService,sans-serif" font-weight="400" font-size="14.6761" transform="matrix(1 0 0 1.00083 17.4701 300)">つの要約が</text><text font-family="Yu Gothic,Yu Gothic_MSFontService,sans-serif" font-weight="400" font-size="14.6761" transform="matrix(1 0 0 1.00083 17.4701 318)">選択される</text><text font-family="Yu Gothic,Yu Gothic_MSFontService,sans-serif" font-weight="400" font-size="14.6761" transform="matrix(1 0 0 1.00083 17.4701 370)">どちらの要約</text><text font-family="Yu Gothic,Yu Gothic_MSFontService,sans-serif" font-weight="400" font-size="14.6761" transform="matrix(1 0 0 1.00083 17.4701 388)">の方が良いか</text><text font-family="Yu Gothic,Yu Gothic_MSFontService,sans-serif" font-weight="400" font-size="14.6761" transform="matrix(1 0 0 1.00083 17.4701 406)">人間が判断す</text><text font-family="Yu Gothic,Yu Gothic_MSFontService,sans-serif" font-weight="400" font-size="14.6761" transform="matrix(1 0 0 1.00083 17.4701 423)">る</text><text font-family="Yu Gothic,Yu Gothic_MSFontService,sans-serif" font-weight="400" font-size="14.6761" transform="matrix(1 0 0 1.00083 297.047 60)">人間が判</text><text font-family="Yu Gothic,Yu Gothic_MSFontService,sans-serif" font-weight="400" font-size="14.6761" transform="matrix(1 0 0 1.00083 297.047 78)">断した</text><text font-family="Calibri,Calibri_MSFontService,sans-serif" font-weight="400" font-size="14.6761" transform="matrix(1 0 0 1.00083 341.039 78)">2</text><text font-family="Yu Gothic,Yu Gothic_MSFontService,sans-serif" font-weight="400" font-size="14.6761" transform="matrix(1 0 0 1.00083 348.537 78)">つ</text><text font-family="Yu Gothic,Yu Gothic_MSFontService,sans-serif" font-weight="400" font-size="14.6761" transform="matrix(1 0 0 1.00083 297.047 96)">の要約を</text><text font-family="Yu Gothic,Yu Gothic_MSFontService,sans-serif" font-weight="400" font-size="14.6761" transform="matrix(1 0 0 1.00083 297.047 113)">持つ投稿</text><text font-family="Yu Gothic,Yu Gothic_MSFontService,sans-serif" font-weight="400" font-size="14.6761" transform="matrix(1 0 0 1.00083 297.047 131)">が報酬モ</text><text font-family="Yu Gothic,Yu Gothic_MSFontService,sans-serif" font-weight="400" font-size="14.6761" transform="matrix(1 0 0 1.00083 297.047 148)">デルに入</text><text font-family="Yu Gothic,Yu Gothic_MSFontService,sans-serif" font-weight="400" font-size="14.6761" transform="matrix(1 0 0 1.00083 297.047 166)">力される</text><text font-family="Yu Gothic,Yu Gothic_MSFontService,sans-serif" font-weight="400" font-size="14.6761" transform="matrix(1 0 0 1.00083 297.047 200)">報酬モデ</text><text font-family="Yu Gothic,Yu Gothic_MSFontService,sans-serif" font-weight="400" font-size="14.6761" transform="matrix(1 0 0 1.00083 297.047 218)">ルはそれ</text><text font-family="Yu Gothic,Yu Gothic_MSFontService,sans-serif" font-weight="400" font-size="14.6761" transform="matrix(1 0 0 1.00083 297.047 236)">ぞれの要</text><text font-family="Yu Gothic,Yu Gothic_MSFontService,sans-serif" font-weight="400" font-size="14.6761" transform="matrix(1 0 0 1.00083 297.047 253)">約に対し</text><text font-family="Yu Gothic,Yu Gothic_MSFontService,sans-serif" font-weight="400" font-size="14.6761" transform="matrix(1 0 0 1.00083 297.047 271)">て報酬</text><text font-family="Calibri,Calibri_MSFontService,sans-serif" font-weight="400" font-size="14.6761" transform="matrix(1 0 0 1.00083 344.371 271)">r</text><text font-family="Yu Gothic,Yu Gothic_MSFontService,sans-serif" font-weight="400" font-size="14.6761" transform="matrix(1 0 0 1.00083 297.047 288)">を計算す</text><text font-family="Yu Gothic,Yu Gothic_MSFontService,sans-serif" font-weight="400" font-size="14.6761" transform="matrix(1 0 0 1.00083 297.047 306)">る</text><text font-family="Yu Gothic,Yu Gothic_MSFontService,sans-serif" font-weight="400" font-size="14.6761" transform="matrix(1 0 0 1.00083 297.047 350)">報酬と人間</text><text font-family="Yu Gothic,Yu Gothic_MSFontService,sans-serif" font-weight="400" font-size="14.6761" transform="matrix(1 0 0 1.00083 297.047 368)">のラベルに</text><text font-family="Yu Gothic,Yu Gothic_MSFontService,sans-serif" font-weight="400" font-size="14.6761" transform="matrix(1 0 0 1.00083 297.047 386)">基づいて損</text><text font-family="Yu Gothic,Yu Gothic_MSFontService,sans-serif" font-weight="400" font-size="14.6761" transform="matrix(1 0 0 1.00083 297.047 404)">失が計算さ</text><text font-family="Yu Gothic,Yu Gothic_MSFontService,sans-serif" font-weight="400" font-size="14.6761" transform="matrix(1 0 0 1.00083 297.047 422)">れ</text><text font-family="Calibri,Calibri_MSFontService,sans-serif" font-weight="400" font-size="14.6761" transform="matrix(1 0 0 1.00083 311.711 422)">,</text><text font-family="Yu Gothic,Yu Gothic_MSFontService,sans-serif" font-weight="400" font-size="14.6761" transform="matrix(1 0 0 1.00083 315.377 422)">報酬モデ</text><text font-family="Yu Gothic,Yu Gothic_MSFontService,sans-serif" font-weight="400" font-size="14.6761" transform="matrix(1 0 0 1.00083 297.047 439)">ルの更新に</text><text font-family="Yu Gothic,Yu Gothic_MSFontService,sans-serif" font-weight="400" font-size="14.6761" transform="matrix(1 0 0 1.00083 297.047 457)">使われる</text><text font-family="Yu Gothic,Yu Gothic_MSFontService,sans-serif" font-weight="400" font-size="14.6761" transform="matrix(1 0 0 1.00083 601.347 58)">データセット</text><text font-family="Yu Gothic,Yu Gothic_MSFontService,sans-serif" font-weight="400" font-size="14.6761" transform="matrix(1 0 0 1.00083 601.347 76)">から新たな投</text><text font-family="Yu Gothic,Yu Gothic_MSFontService,sans-serif" font-weight="400" font-size="14.6761" transform="matrix(1 0 0 1.00083 601.347 94)">稿がサンプル</text><text font-family="Yu Gothic,Yu Gothic_MSFontService,sans-serif" font-weight="400" font-size="14.6761" transform="matrix(1 0 0 1.00083 601.347 111)">される</text><text font-family="Yu Gothic,Yu Gothic_MSFontService,sans-serif" font-weight="400" font-size="14.6761" transform="matrix(1 0 0 1.00083 601.347 180)">ポリシー</text><text font-family="Calibri,Calibri_MSFontService,sans-serif" font-weight="400" font-size="14.6761" transform="matrix(1 0 0 1.00083 660.003 180)">π</text><text font-family="Yu Gothic,Yu Gothic_MSFontService,sans-serif" font-weight="400" font-size="14.6761" transform="matrix(1 0 0 1.00083 668.168 180)">が</text><text font-family="Yu Gothic,Yu Gothic_MSFontService,sans-serif" font-weight="400" font-size="14.6761" transform="matrix(1 0 0 1.00083 601.347 197)">その投稿に対</text><text font-family="Yu Gothic,Yu Gothic_MSFontService,sans-serif" font-weight="400" font-size="14.6761" transform="matrix(1 0 0 1.00083 601.347 215)">する要約を生</text><text font-family="Yu Gothic,Yu Gothic_MSFontService,sans-serif" font-weight="400" font-size="14.6761" transform="matrix(1 0 0 1.00083 601.347 232)">成する</text><text font-family="Yu Gothic,Yu Gothic_MSFontService,sans-serif" font-weight="400" font-size="14.6761" transform="matrix(1 0 0 1.00083 601.347 359)">報酬モデルが</text><text font-family="Yu Gothic,Yu Gothic_MSFontService,sans-serif" font-weight="400" font-size="14.6761" transform="matrix(1 0 0 1.00083 601.347 377)">その要約に対</text><text font-family="Yu Gothic,Yu Gothic_MSFontService,sans-serif" font-weight="400" font-size="14.6761" transform="matrix(1 0 0 1.00083 601.347 395)">して報酬を計</text><text font-family="Yu Gothic,Yu Gothic_MSFontService,sans-serif" font-weight="400" font-size="14.6761" transform="matrix(1 0 0 1.00083 601.347 412)">算する</text><text font-family="Calibri,Calibri_MSFontService,sans-serif" font-weight="400" font-size="14.6761" transform="matrix(1 0 0 1.00083 601.347 445)">PPO</text><text font-family="Yu Gothic,Yu Gothic_MSFontService,sans-serif" font-weight="400" font-size="14.6761" transform="matrix(1 0 0 1.00083 626.009 445)">によるポ</text><text font-family="Yu Gothic,Yu Gothic_MSFontService,sans-serif" font-weight="400" font-size="14.6761" transform="matrix(1 0 0 1.00083 601.347 462)">リシーの更新</text><text font-family="Yu Gothic,Yu Gothic_MSFontService,sans-serif" font-weight="400" font-size="14.6761" transform="matrix(1 0 0 1.00083 601.347 480)">にその報酬が</text><text font-family="Yu Gothic,Yu Gothic_MSFontService,sans-serif" font-weight="400" font-size="14.6761" transform="matrix(1 0 0 1.00083 601.347 497)">使われる</text></g></svg>