<svg width="446" height="293" xmlns="http://www.w3.org/2000/svg" xmlns:xlink="http://www.w3.org/1999/xlink" overflow="hidden"><defs><clipPath id="clip0"><rect x="0" y="0" width="446" height="293"/></clipPath></defs><g clip-path="url(#clip0)"><rect x="0" y="0" width="446" height="293.167" fill="#FFFFFF"/><path d="M127.844 250.643 124.758 244.415 126.257 241.474 123.964 240.004 123.259 236.977 117.528 237.496 115.5 232.912 119.027 226.425 118.233 223.138 120.526 221.408 117.969 218.381 120.349 215.353 122.025 218.9 124.052 217.429 124.846 217.602 128.549 214.921 126.345 213.364 125.199 216.045 122.73 216.391 121.584 214.834 123.964 212.759 126.257 208.088 131.988 210.769 135.338 206.618C142.979 212.384 147.358 221.61 146.359 233.517 144.684 231.672 142.656 228.702 141.333 227.981 140.011 227.261 137.219 227.275 137.013 227.722L140.099 230.663 136.749 233.949 137.366 235.939 134.104 239.312 134.104 242.512 132.252 246.058 129.519 250.124 127.844 250.643Z" stroke="#172C51" stroke-width="1.33333" stroke-miterlimit="8" fill-rule="evenodd"/><path d="M120.5 199.981 117.591 203.121 116.821 206.855 116.479 210.249 112.543 211.183C111.188 211.89 110.318 215.327 108.35 214.492 106.382 213.658 109.962 209.358 109.976 207.703L108.436 204.563 109.291 201.339 106.382 203.885 104.5 200.83C107.181 199.104 114.226 197.294 120.5 199.981Z" stroke="#172C51" stroke-width="1.33333" stroke-miterlimit="8" fill-rule="evenodd"/><path d="M106.016 258.335 103.057 253.607 101.229 247.041 96.4415 242.313 96.6155 238.461 91.567 235.396 87.8241 232.507 87.8241 230.581 84.9517 232.332C82.2823 223.811 91.9732 205.571 100.184 203.616L102.622 205.892 106.452 206.417 107.061 210.707 105.842 213.246 103.318 212.809 103.84 211.67 104.101 209.482 101.403 212.021 98.7046 213.159 97.1378 214.735 99.2269 217.624 100.097 216.748 100.881 213.859 103.927 214.647 106.452 217.624 106.103 221.651 105.146 222.176 103.84 220.163 102.36 222.089 97.573 225.766 96.0933 229.968 98.0953 232.507 101.229 233.47 98.9657 234.609 96.7896 233.47 93.9172 229.005 91.3059 229.531 91.0447 232.682 93.8301 232.507 95.3969 235.922 97.6601 236.184 100.445 235.834 104.972 237.848 107.583 240.474 111.5 241.437 110.456 243.801 110.978 246.865 108.628 248.354 108.802 251.593 106.887 253.694 108.541 259.648 106.016 258.335Z" stroke="#172C51" stroke-width="1.33333" stroke-miterlimit="8" fill-rule="evenodd"/><path d="M84 228.63C84 211.776 97.8792 198.113 115 198.113 132.121 198.113 146 211.776 146 228.63 146 245.484 132.121 259.147 115 259.147 97.8792 259.147 84 245.484 84 228.63Z" stroke="#172C51" stroke-width="4" stroke-miterlimit="8" fill="none" fill-rule="evenodd"/><path d="M133.5 246.64 133.822 244.807C134.48 243.992 137.083 241.024 137.445 241.751 137.807 242.479 136.278 244.196 135.996 244.982L135.754 246.466 133.5 246.64Z" stroke="#172C51" stroke-width="1.33333" stroke-miterlimit="8" fill-rule="evenodd"/><text font-family="Yu Gothic,Yu Gothic_MSFontService,sans-serif" font-weight="700" font-size="13.3409" transform="matrix(1 0 0 1.00057 101.294 278)">環境</text><path d="M68 145.75C68 142.618 70.5371 140.08 73.6667 140.08L152.333 140.08C155.463 140.08 158 142.618 158 145.75L158 168.429C158 171.561 155.463 174.099 152.333 174.099L73.6667 174.099C70.5371 174.099 68 171.561 68 168.429Z" stroke="#172C51" stroke-width="2" stroke-miterlimit="8" fill="#FFFFFF" fill-rule="evenodd"/><text font-family="Yu Gothic,Yu Gothic_MSFontService,sans-serif" font-weight="700" font-size="14.675" transform="matrix(1 0 0 1.00057 68.9387 162)">エージェント</text><path d="M55.8983 229.125 48.7432 228.393 41.9812 226.263 35.8638 222.893 30.536 218.432 26.1411 213.026 22.8228 206.822 20.7258 199.966 19.9951 192.61 20.7258 185.253 22.8228 178.397 26.1411 172.193 30.536 166.787 35.8638 162.326 41.9958 158.948 49.1167 156.959 49.6545 158.886 42.6453 160.844 42.8587 160.757 36.9134 164.032 37.0729 163.923 31.893 168.26 32.027 168.124 27.7532 173.381 27.8591 173.222 24.6322 179.256 24.7067 179.076 22.6673 185.744 22.7062 185.55 21.9951 192.709 21.9951 192.511 22.7062 199.669 22.6673 199.475 24.7067 206.143 24.6322 205.964 27.8591 211.997 27.7532 211.838 32.027 217.095 31.893 216.959 37.0729 221.296 36.9134 221.187 42.8587 224.462 42.6767 224.384 49.2466 226.454 49.048 226.413 56.1017 227.134ZM47.563 154.118 56 157.089 48.5624 162.06Z" fill="#172C51"/><path d="M170.1 155.093 177.254 155.815 184.014 157.914 190.131 161.236 195.459 165.635 199.855 170.966 203.175 177.087 205.274 183.85 206.005 191.109 205.274 198.367 203.175 205.131 199.855 211.251 195.459 216.582 190.131 220.981 184 224.311 176.881 226.271 176.35 224.342 183.358 222.412 183.147 222.497 189.092 219.268 188.932 219.376 194.112 215.1 193.977 215.235 198.251 210.052 198.144 210.211 201.371 204.263 201.294 204.443 203.334 197.87 203.294 198.066 204.005 191.008 204.005 191.209 203.294 184.151 203.334 184.348 201.294 177.774 201.371 177.955 198.144 172.006 198.251 172.165 193.977 166.983 194.112 167.118 188.932 162.841 189.092 162.949 183.147 159.72 183.327 159.796 176.757 157.756 176.953 157.796 169.9 157.084ZM178.432 229.114 170 226.129 177.446 221.17Z" fill="#172C51"/><rect x="-2" y="179.102" width="47" height="26.0148" fill="#FFFFFF"/><text font-family="Yu Gothic,Yu Gothic_MSFontService,sans-serif" font-weight="700" font-size="13.3409" transform="matrix(1 0 0 1.00057 8.01186 196)">観測</text><rect x="179" y="178.101" width="47" height="26.0148" fill="#FFFFFF"/><text font-family="Yu Gothic,Yu Gothic_MSFontService,sans-serif" font-weight="700" font-size="13.3409" transform="matrix(1 0 0 1.00057 188.806 195)">行動</text><path d="M23.0008 178.062 23.713 159.883 24.5806 151.202 25.7635 142.887 27.2457 134.97 29.0101 127.498 31.04 120.514 33.3192 114.062 35.8322 108.185 38.5647 102.928 41.5043 98.333 44.6413 94.445 48.0009 91.2812 52.1231 89.0404 53.0779 90.7988 49.0694 92.9778 49.2774 92.8272 46.0618 95.8554 46.1545 95.7552 43.095 99.5473 43.1591 99.4582 40.2734 103.969 40.3183 103.891 37.6239 109.075 37.6561 109.007 35.1706 114.819 35.1941 114.759 32.9351 121.154 32.9525 121.1 30.9377 128.032 30.9506 127.983 29.1975 135.408 29.2072 135.362 27.7334 143.234 27.7405 143.19 26.5635 151.464 26.5686 151.422 25.7061 160.052 25.7103 159.992 24.9992 178.141ZM50.1996 86.4516 59 88.0501 52.4417 94.1354Z" fill="#172C51"/><path d="M68 78.8783C68 75.6548 70.6117 73.0415 73.8335 73.0415L152.167 73.0415C155.388 73.0415 158 75.6548 158 78.8783L158 102.225C158 105.448 155.388 108.061 152.167 108.061L73.8335 108.061C70.6117 108.061 68 105.448 68 102.225Z" stroke="#172C51" stroke-width="2" stroke-miterlimit="8" fill="#FFFFFF" fill-rule="evenodd"/><text font-family="Yu Gothic,Yu Gothic_MSFontService,sans-serif" font-weight="700" font-size="14.675" transform="matrix(1 0 0 1.00057 76.2721 96)">報酬モデル</text><text font-family="Yu Gothic,Yu Gothic_MSFontService,sans-serif" font-weight="700" font-size="14.675" transform="matrix(1 0 0 1.00057 75.2163 25)">人間からの</text><text font-family="Yu Gothic,Yu Gothic_MSFontService,sans-serif" font-weight="700" font-size="14.675" transform="matrix(1 0 0 1.00057 60.5497 42)">フィードバック</text><path d="M112 48.0273 112 54.0307 110 54.0307 110 48.0273ZM112 56.0319 112 62.0353 110 62.0353 110 56.0319ZM112 64.0364 112 65.3705 110 65.3705 110 64.0364ZM115 64.0364 111 72.041 107 64.0364Z" fill="#172C51"/><path d="M112 113.064 112 130.408 110 130.408 110 113.064ZM115 129.073 111 137.078 107 129.073Z" fill="#172C51"/><text font-family="Yu Gothic,Yu Gothic_MSFontService,sans-serif" font-weight="700" font-size="14.675" transform="matrix(1 0 0 1.00057 118.714 129)">予測された報酬</text><path d="M194.875 45.4447C191.733 31.8162 207.91 19.2653 231.007 17.4115 240.367 16.6603 249.882 17.7833 258.032 20.6007 266.668 10.9957 286.847 7.34527 303.104 12.4473 305.947 13.3394 308.556 14.4702 310.85 15.8043 317.576 7.84247 333.958 4.60779 347.44 8.57941 351.172 9.67865 354.427 11.2684 356.956 13.2266 367.796 5.69728 386.952 4.76722 399.741 11.1493 405.116 13.8316 408.739 17.5313 409.988 21.614 427.75 24.4737 438.228 35.306 433.392 45.8086 432.985 46.6915 432.475 47.5566 431.865 48.3977 446.11 59.3412 442.623 75.0264 424.076 83.4317 418.303 86.0482 411.484 87.7422 404.277 88.3502 404.117 100.124 387.8 109.592 367.832 109.497 361.161 109.466 354.634 108.346 348.975 106.263 342.221 119.463 318.663 126.923 296.357 122.927 287.008 121.252 278.931 117.71 273.503 112.905 250.664 121.034 221.02 116.661 207.291 103.138 207.118 102.967 206.948 102.796 206.781 102.623 191.834 103.656 178.295 97.3614 176.54 88.5648 175.605 83.876 178.228 79.183 183.71 75.7363 170.768 71.24 166.42 61.371 173.999 53.6933 178.372 49.2639 186.041 46.3357 194.648 45.8093Z" stroke="#D9D9D9" stroke-width="1.33333" stroke-miterlimit="8" fill="none" fill-rule="evenodd"/><path d="M161.214 99.1233C161.214 100.919 159.759 102.375 157.964 102.375 156.169 102.375 154.714 100.919 154.714 99.1233 154.714 97.3273 156.169 95.8713 157.964 95.8713 159.759 95.8713 161.214 97.3273 161.214 99.1233Z" stroke="#D9D9D9" stroke-width="1.33333" stroke-miterlimit="8" fill="none" fill-rule="evenodd"/><path d="M171.818 97.4242C171.818 101.016 168.908 103.928 165.318 103.928 161.728 103.928 158.818 101.016 158.818 97.4242 158.818 93.8323 161.728 90.9206 165.318 90.9206 168.908 90.9206 171.818 93.8323 171.818 97.4242Z" stroke="#D9D9D9" stroke-width="1.33333" stroke-miterlimit="8" fill="none" fill-rule="evenodd"/><path d="M188.755 94.262C188.755 99.6499 184.39 104.018 179.005 104.018 173.62 104.018 169.255 99.6499 169.255 94.262 169.255 88.8742 173.62 84.5065 179.005 84.5065 184.39 84.5065 188.755 88.8742 188.755 94.262Z" stroke="#D9D9D9" stroke-width="1.33333" stroke-miterlimit="8" fill="none" fill-rule="evenodd"/><path d="M199.831 77.4401C194.306 77.6954 188.782 76.9418 183.999 75.2804M213.8 101.076C211.578 101.598 209.249 101.945 206.873 102.109M273.488 112.433C271.816 110.953 270.417 109.373 269.314 107.718M350.669 100.675C350.423 102.429 349.864 104.163 349.002 105.848M383.806 68.7062C396.334 72.3043 404.239 79.8269 404.128 88.0429M431.738 48.1112C429.709 50.9089 426.612 53.3906 422.689 55.3619M410.025 21.2075C410.371 22.3373 410.531 23.4841 410.503 24.6319M352.238 17.2132C353.417 15.6334 354.978 14.1624 356.873 12.8461M308.881 19.2944C309.362 17.9888 310.116 16.7237 311.126 15.5281M258 20.5734C260.949 21.5928 263.677 22.8198 266.124 24.2274M196.294 49.29C195.65 48.0326 195.176 46.7471 194.876 45.4456" stroke="#D9D9D9" stroke-width="1.33333" stroke-miterlimit="8" fill="none" fill-rule="evenodd"/><text fill="#7F7F7F" font-family="Yu Gothic,Yu Gothic_MSFontService,sans-serif" font-weight="700" font-size="13.3409" transform="matrix(1 0 0 1.00057 216.798 26)">人間からのフィードバックを</text><text fill="#7F7F7F" font-family="Yu Gothic,Yu Gothic_MSFontService,sans-serif" font-weight="700" font-size="13.3409" transform="matrix(1 0 0 1.00057 216.798 42)">使って報酬モデルを作って</text><text fill="#7F7F7F" font-family="Yu Gothic,Yu Gothic_MSFontService,sans-serif" font-weight="700" font-size="13.3409" transform="matrix(1 0 0 1.00057 216.798 58)">みたら</text><text fill="#7F7F7F" font-family="Calibri,Calibri_MSFontService,sans-serif" font-weight="700" font-size="13.3409" transform="matrix(1 0 0 1.00057 256.798 58)">,</text><text fill="#7F7F7F" font-family="Yu Gothic,Yu Gothic_MSFontService,sans-serif" font-weight="700" font-size="13.3409" transform="matrix(1 0 0 1.00057 263.298 58)">人間が式</text><text fill="#7F7F7F" font-family="Yu Gothic,Yu Gothic_MSFontService,sans-serif" font-weight="700" font-size="13.3409" transform="matrix(1 0 0 1.00057 316.632 58)">で</text><text fill="#7F7F7F" font-family="Yu Gothic,Yu Gothic_MSFontService,sans-serif" font-weight="700" font-size="13.3409" transform="matrix(1 0 0 1.00057 329.965 58)">は</text><text fill="#7F7F7F" font-family="Yu Gothic,Yu Gothic_MSFontService,sans-serif" font-weight="700" font-size="13.3409" transform="matrix(1 0 0 1.00057 343.298 58)">与えられない</text><text fill="#7F7F7F" font-family="Yu Gothic,Yu Gothic_MSFontService,sans-serif" font-weight="700" font-size="13.3409" transform="matrix(1 0 0 1.00057 216.798 74)">ような微妙な報酬を予測</text><text fill="#7F7F7F" font-family="Yu Gothic,Yu Gothic_MSFontService,sans-serif" font-weight="700" font-size="13.3409" transform="matrix(1 0 0 1.00057 363.465 74)">できた</text><text fill="#7F7F7F" font-family="Yu Gothic,Yu Gothic_MSFontService,sans-serif" font-weight="700" font-size="13.3409" transform="matrix(1 0 0 1.00057 216.798 90)">『</text><text fill="#7F7F7F" font-family="Calibri,Calibri_MSFontService,sans-serif" font-weight="400" font-size="13.3409" transform="matrix(1 0 0 1.00057 230.132 90)">Deep reinforcement learning</text><text fill="#7F7F7F" font-family="Calibri,Calibri_MSFontService,sans-serif" font-weight="400" font-size="13.3409" transform="matrix(1 0 0 1.00057 230.132 106)">from</text><text fill="#7F7F7F" font-family="Calibri,Calibri_MSFontService,sans-serif" font-weight="400" font-size="13.3409" transform="matrix(1 0 0 1.00057 259.465 106)">human preferences</text><text fill="#7F7F7F" font-family="Yu Gothic,Yu Gothic_MSFontService,sans-serif" font-weight="700" font-size="13.3409" transform="matrix(1 0 0 1.00057 365.298 106)">』</text><text fill="#7F7F7F" font-family="Calibri,Calibri_MSFontService,sans-serif" font-weight="700" font-size="13.3409" transform="matrix(1 0 0 1.00057 378.632 106)">(2017)</text></g></svg>