<svg width="255" height="302" xmlns="http://www.w3.org/2000/svg" xmlns:xlink="http://www.w3.org/1999/xlink" overflow="hidden"><defs><clipPath id="clip0"><rect x="0" y="0" width="255" height="302"/></clipPath></defs><g clip-path="url(#clip0)"><rect x="0" y="0" width="255" height="301.864" fill="#FFFFFF"/><path d="M138.844 254.386 135.758 248.164 137.257 245.227 134.964 243.758 134.259 240.734 128.528 241.252 126.5 236.673 130.027 230.192 129.233 226.909 131.526 225.181 128.969 222.156 131.349 219.132 133.024 222.675 135.052 221.206 135.846 221.379 139.549 218.7 137.345 217.145 136.199 219.824 133.73 220.169 132.584 218.614 134.964 216.54 137.257 211.874 142.988 214.553 146.338 210.405C153.979 216.166 158.358 225.382 157.359 237.277 155.684 235.434 153.656 232.467 152.333 231.747 151.011 231.027 148.219 231.042 148.013 231.488L151.099 234.426 147.749 237.709 148.366 239.697 145.104 243.066 145.104 246.263 143.252 249.806 140.519 253.867 138.844 254.386Z" stroke="#172C51" stroke-width="1.33246" stroke-miterlimit="8" fill-rule="evenodd"/><path d="M132.5 203.861 129.409 207.194 128.591 211.157 128.227 214.76 124.045 215.751C122.606 216.501 121.682 220.149 119.591 219.264 117.5 218.378 121.303 213.814 121.318 212.058L119.682 208.725 120.591 205.302 117.5 208.004 115.5 204.762C118.349 202.93 125.833 201.008 132.5 203.861Z" stroke="#172C51" stroke-width="1.33246" stroke-miterlimit="8" fill-rule="evenodd"/><path d="M117.016 262.07 114.057 257.347 112.229 250.787 107.441 246.064 107.615 242.216 102.567 239.155 98.8241 236.269 98.8241 234.345 95.9516 236.094C93.2822 227.581 102.973 209.36 111.184 207.407L113.622 209.681 117.451 210.205 118.061 214.491 116.842 217.027 114.318 216.59 114.84 215.453 115.101 213.267 112.403 215.803 109.705 216.94 108.138 218.514 110.227 221.4 111.097 220.526 111.881 217.64 114.927 218.427 117.451 221.4 117.103 225.424 116.146 225.948 114.84 223.937 113.36 225.861 108.573 229.534 107.093 233.732 109.095 236.269 112.229 237.231 109.966 238.368 107.79 237.231 104.917 232.77 102.306 233.295 102.045 236.444 104.83 236.269 106.397 239.68 108.66 239.942 111.445 239.592 115.972 241.604 118.583 244.228 122.5 245.19 121.455 247.551 121.978 250.612 119.628 252.099 119.802 255.335 117.887 257.434 119.54 263.382 117.016 262.07Z" stroke="#172C51" stroke-width="1.33246" stroke-miterlimit="8" fill-rule="evenodd"/><path d="M95 232.395C95 215.558 108.879 201.909 126 201.909 143.121 201.909 157 215.558 157 232.395 157 249.233 143.121 262.882 126 262.882 108.879 262.882 95 249.233 95 232.395Z" stroke="#172C51" stroke-width="3.99739" stroke-miterlimit="8" fill="none" fill-rule="evenodd"/><path d="M144.5 251.387 144.903 249.555C145.724 248.741 148.978 245.776 149.431 246.503 149.884 247.23 147.972 248.945 147.62 249.73L147.318 251.212 144.5 251.387Z" stroke="#172C51" stroke-width="1.33246" stroke-miterlimit="8" fill-rule="evenodd"/><text font-family="Yu Gothic,Yu Gothic_MSFontService,sans-serif" font-weight="700" font-size="13.3186" transform="matrix(1 0 0 0.99955 112.799 282)">環境</text><path d="M79 149.766C79 146.546 81.6118 143.935 84.8335 143.935L164.166 143.935C167.388 143.935 170 146.546 170 149.766L170 173.089C170 176.309 167.388 178.919 164.166 178.919L84.8335 178.919C81.6118 178.919 79 176.309 79 173.089Z" stroke="#172C51" stroke-width="1.99869" stroke-miterlimit="8" fill="#FFFFFF" fill-rule="evenodd"/><text font-family="Yu Gothic,Yu Gothic_MSFontService,sans-serif" font-weight="700" font-size="14.6505" transform="matrix(1 0 0 0.99955 80.4651 167)">エージェント</text><path d="M67.8983 232.889 60.7433 232.158 53.9815 230.03 47.8642 226.664 42.5364 222.207 38.1416 216.807 34.8233 210.609 32.7264 203.76 31.9957 196.412 32.7264 189.063 34.8233 182.214 38.1416 176.016 42.5364 170.616 47.8642 166.159 53.996 162.785 61.121 160.797 61.6585 162.721 54.6451 164.678 54.8583 164.591 48.9131 167.863 49.0725 167.754 43.8926 172.087 44.0265 171.951 39.7526 177.202 39.8585 177.043 36.6315 183.071 36.706 182.892 34.6666 189.553 34.7055 189.359 33.9944 196.51 33.9944 196.313 34.7055 203.464 34.6666 203.271 36.706 209.931 36.6315 209.752 39.8585 215.78 39.7526 215.621 44.0265 220.872 43.8926 220.737 49.0725 225.069 48.9131 224.96 54.8583 228.232 54.6765 228.154 61.2464 230.222 61.0479 230.181 68.1016 230.902ZM59.5688 157.961 68 160.928 60.5666 165.889Z" fill="#172C51"/><path d="M182.102 158.934 189.257 159.666 196.018 161.794 202.136 165.16 207.464 169.616 211.858 175.017 215.177 181.215 217.274 188.063 218.004 195.412 217.274 202.761 215.177 209.61 211.858 215.807 207.464 221.208 202.136 225.664 196.004 229.039 188.879 231.027 188.341 229.103 195.355 227.146 195.142 227.233 201.087 223.961 200.927 224.07 206.107 219.737 205.973 219.873 210.247 214.621 210.141 214.78 213.368 208.753 213.294 208.932 215.333 202.271 215.294 202.465 216.006 195.313 216.006 195.511 215.294 188.36 215.333 188.553 213.294 181.892 213.368 182.071 210.141 176.044 210.247 176.203 205.973 170.951 206.107 171.087 200.927 166.754 201.087 166.863 195.142 163.592 195.323 163.669 188.754 161.602 188.952 161.643 181.898 160.922ZM190.431 233.863 182 230.896 189.433 225.934Z" fill="#172C51"/><rect x="9.99997" y="183.917" width="46.0001" height="25.9883" fill="#FFFFFF"/><text font-family="Yu Gothic,Yu Gothic_MSFontService,sans-serif" font-weight="700" font-size="13.3186" transform="matrix(1 0 0 0.99955 19.5781 200)">観測</text><rect x="191" y="182.918" width="46" height="25.9883" fill="#FFFFFF"/><text font-family="Yu Gothic,Yu Gothic_MSFontService,sans-serif" font-weight="700" font-size="13.3186" transform="matrix(1 0 0 0.99955 200.254 200)">行動</text><path d="M35.0014 181.879 35.7137 163.719 36.5812 155.047 37.7642 146.739 39.2463 138.831 41.0107 131.366 43.0406 124.389 45.3198 117.944 47.8328 112.073 50.5653 106.822 53.5048 102.232 56.6417 98.3475 60.0013 95.1871 64.1272 92.9461 65.0815 94.7014 61.0692 96.8807 61.277 96.7305 58.0613 99.7555 58.154 99.6556 55.0945 103.444 55.1586 103.355 52.2728 107.861 52.3178 107.783 49.6233 112.962 49.6555 112.894 47.17 118.7 47.1935 118.64 44.9345 125.028 44.9519 124.974 42.937 131.9 42.95 131.851 41.1969 139.268 41.2066 139.222 39.7327 147.086 39.7398 147.043 38.5629 155.308 38.5679 155.266 37.7055 163.888 37.7096 163.827 36.9986 181.957ZM62.2056 90.3611 71 91.9587 64.4447 98.0325Z" fill="#172C51"/><path d="M79 83.6292C79 80.5009 81.5371 77.965 84.6668 77.965L164.333 77.965C167.463 77.965 170 80.5009 170 83.6292L170 106.285C170 109.414 167.463 111.95 164.333 111.95L84.6668 111.95C81.5371 111.95 79 109.414 79 106.285Z" stroke="#172C51" stroke-width="1.99869" stroke-miterlimit="8" fill="#FFFFFF" fill-rule="evenodd"/><text font-family="Yu Gothic,Yu Gothic_MSFontService,sans-serif" font-weight="700" font-size="14.6505" transform="matrix(1 0 0 0.99955 95.1222 100)">報酬予測</text><text font-family="Yu Gothic,Yu Gothic_MSFontService,sans-serif" font-weight="700" font-size="14.6505" transform="matrix(1 0 0 0.99955 86.7386 30)">人間からの</text><text font-family="Yu Gothic,Yu Gothic_MSFontService,sans-serif" font-weight="700" font-size="14.6505" transform="matrix(1 0 0 0.99955 72.0816 47)">フィードバック</text><path d="M123.999 51.9766 123.999 57.97 122.001 57.97 122.001 51.9766ZM123.999 59.9678 123.999 65.9612 122.001 65.9612 122.001 59.9678ZM123.999 67.959 123.999 69.3065 122.001 69.3065 122.001 67.959ZM126.997 67.9746 123 75.9658 119.003 67.9746Z" fill="#172C51"/><path d="M122.999 116.947 122.999 134.277 121.001 134.277 121.001 116.947ZM125.997 132.945 122 140.937 118.003 132.945Z" fill="#172C51"/><text font-family="Yu Gothic,Yu Gothic_MSFontService,sans-serif" font-weight="700" font-size="14.6505" transform="matrix(1 0 0 0.99955 130.208 134)">予測された報酬</text></g></svg>