<svg width="680" height="189" xmlns="http://www.w3.org/2000/svg" xmlns:xlink="http://www.w3.org/1999/xlink" overflow="hidden"><defs><clipPath id="clip0"><rect x="0" y="0" width="680" height="189"/></clipPath></defs><g clip-path="url(#clip0)"><rect x="0" y="0" width="680" height="189.093" fill="#FFFFFF"/><text fill="#7F7F7F" font-family="Calibri,Calibri_MSFontService,sans-serif" font-weight="700" font-size="14.6667" transform="matrix(1 0 0 1.00049 27.011 137)">3.</text><text fill="#7F7F7F" font-family="Yu Gothic,Yu Gothic_MSFontService,sans-serif" font-weight="700" font-size="14.6667" transform="matrix(1 0 0 1.00049 53.1649 137)">フィードバック</text><text fill="#7F7F7F" font-family="Cambria Math,Cambria Math_MSFontService,sans-serif" font-weight="400" font-size="14.6667" transform="matrix(1 0 0 1.00049 159.113 137)">𝒇</text><text font-family="Calibri,Calibri_MSFontService,sans-serif" font-weight="700" font-size="14.6667" transform="matrix(1 0 0 1.00049 56.33 154)">n</text><text font-family="Yu Gothic,Yu Gothic_MSFontService,sans-serif" font-weight="700" font-size="14.6667" transform="matrix(1 0 0 1.00049 67.4912 154)">は含めない。</text><text fill="#7F7F7F" font-family="Calibri,Calibri_MSFontService,sans-serif" font-weight="700" font-size="14.6667" transform="matrix(1 0 0 1.00049 27.011 38)">1.</text><text fill="#7F7F7F" font-family="Yu Gothic,Yu Gothic_MSFontService,sans-serif" font-weight="700" font-size="14.6667" transform="matrix(1 0 0 1.00049 53.1649 38)">質問</text><text fill="#7F7F7F" font-family="Cambria Math,Cambria Math_MSFontService,sans-serif" font-weight="400" font-size="14.6667" transform="matrix(1 0 0 1.00049 85.8155 38)">𝒙</text><text font-family="Calibri,Calibri_MSFontService,sans-serif" font-weight="700" font-size="14.6667" transform="matrix(1 0 0 1.00049 56.33 55)">1</text><text font-family="Yu Gothic,Yu Gothic_MSFontService,sans-serif" font-weight="700" font-size="14.6667" transform="matrix(1 0 0 1.00049 63.8263 55)">～</text><text font-family="Calibri,Calibri_MSFontService,sans-serif" font-weight="700" font-size="14.6667" transform="matrix(1 0 0 1.00049 78.4858 55)">n</text><text font-family="Yu Gothic,Yu Gothic_MSFontService,sans-serif" font-weight="700" font-size="14.6667" transform="matrix(1 0 0 1.00049 89.647 55)">のすべての数を返す</text><text font-family="Calibri,Calibri_MSFontService,sans-serif" font-weight="700" font-size="14.6667" transform="matrix(1 0 0 1.00049 221.582 55)">python</text><text font-family="Yu Gothic,Yu Gothic_MSFontService,sans-serif" font-weight="700" font-size="14.6667" transform="matrix(1 0 0 1.00049 265.061 55)">関数を書いてください。</text><text font-family="Yu Gothic,Yu Gothic_MSFontService,sans-serif" font-weight="700" font-size="14.6667" transform="matrix(1 0 0 1.00049 56.33 73)">答えは簡潔に。</text><text fill="#7F7F7F" font-family="Calibri,Calibri_MSFontService,sans-serif" font-weight="700" font-size="14.6667" transform="matrix(1 0 0 1.00049 458.003 38)">2.</text><text fill="#7F7F7F" font-family="Yu Gothic,Yu Gothic_MSFontService,sans-serif" font-weight="700" font-size="14.6667" transform="matrix(1 0 0 1.00049 484.157 38)">解答</text><text fill="#7F7F7F" font-family="Cambria Math,Cambria Math_MSFontService,sans-serif" font-weight="400" font-size="14.6667" transform="matrix(1 0 0 1.00049 516.808 38)">𝒚</text><text fill="#7F7F7F" font-family="Cambria Math,Cambria Math_MSFontService,sans-serif" font-weight="400" font-size="14.6667" transform="matrix(1 0 0 1.00049 525.637 38)">~</text><text fill="#7F7F7F" font-family="Cambria Math,Cambria Math_MSFontService,sans-serif" font-weight="400" font-size="14.6667" transform="matrix(1 0 0 1.00049 536.132 38)">𝝅</text><text fill="#7F7F7F" font-family="Cambria Math,Cambria Math_MSFontService,sans-serif" font-weight="400" font-size="10.7067" transform="matrix(1 0 0 1.00049 546.127 41)">𝜽</text><path d="M122.526 3.01836C123.92 3.38598 124.99 4.17971 125.738 5.39954 126.485 6.61938 126.858 8.09106 126.858 9.81458 126.858 11.5429 126.486 13.0146 125.741 14.2296 124.996 15.4447 123.925 16.236 122.526 16.6036L122.354 16.0522C123.457 15.6846 124.277 14.9589 124.814 13.8751 125.351 12.7914 125.619 11.414 125.619 9.74297 125.619 8.12925 125.352 6.78887 124.817 5.72181 124.283 4.65475 123.454 3.93741 122.332 3.56979ZM101.015 3.01836 101.208 3.56979C100.091 3.93741 99.264 4.65475 98.7269 5.72181 98.1898 6.78887 97.9212 8.12925 97.9212 9.74297 97.9212 11.414 98.1898 12.7914 98.7269 13.8751 99.264 14.9589 100.084 15.6846 101.187 16.0522L101.015 16.6036C99.6161 16.236 98.5443 15.4447 97.7995 14.2296 97.0547 13.0146 96.6823 11.5429 96.6823 9.81458 96.6823 8.09106 97.0559 6.61938 97.8031 5.39954 98.5502 4.17971 99.6209 3.38598 101.015 3.01836Z" fill="#7F7F7F" fill-rule="evenodd" transform="matrix(1 0 0 1.00049 458.003 24.1143)"/><text fill="#7F7F7F" font-family="Cambria Math,Cambria Math_MSFontService,sans-serif" font-weight="400" font-size="14.6667" transform="matrix(1 0 0 1.00049 559.48 38)">∙</text><text fill="#7F7F7F" font-family="Cambria Math,Cambria Math_MSFontService,sans-serif" font-weight="400" font-size="14.6667" transform="matrix(1 0 0 1.00049 566.903 38)">|</text><text fill="#7F7F7F" font-family="Cambria Math,Cambria Math_MSFontService,sans-serif" font-weight="400" font-size="14.6667" transform="matrix(1 0 0 1.00049 571.568 38)">𝒙</text><text font-family="Yu Gothic,Yu Gothic_MSFontService,sans-serif" font-weight="700" font-size="14.6667" transform="matrix(1 0 0 1.00049 458.003 55)">‘’‘</text><text font-family="Calibri,Calibri_MSFontService,sans-serif" font-weight="700" font-size="14.6667" transform="matrix(1 0 0 1.00049 470.497 55)">python</text><text font-family="Calibri,Calibri_MSFontService,sans-serif" font-weight="700" font-size="14.6667" transform="matrix(1 0 0 1.00049 458.003 73)">def</text><text font-family="Calibri,Calibri_MSFontService,sans-serif" font-weight="700" font-size="14.6667" transform="matrix(1 0 0 1.00049 481.159 73)">numbers_up_to_n</text><text font-family="Calibri,Calibri_MSFontService,sans-serif" font-weight="700" font-size="14.6667" transform="matrix(1 0 0 1.00049 593.437 73)">(n):</text><text font-family="Calibri,Calibri_MSFontService,sans-serif" font-weight="700" font-size="14.6667" transform="matrix(1 0 0 1.00049 471.33 91)">return list(range(1,</text><text font-family="Calibri,Calibri_MSFontService,sans-serif" font-weight="700" font-size="14.6667" transform="matrix(1 0 0 1.00049 589.606 91)">n</text><text font-family="Calibri,Calibri_MSFontService,sans-serif" font-weight="700" font-size="14.6667" transform="matrix(1 0 0 1.00049 600.767 91)">+</text><text font-family="Calibri,Calibri_MSFontService,sans-serif" font-weight="700" font-size="14.6667" transform="matrix(1 0 0 1.00049 611.428 91)">1))</text><text font-family="Yu Gothic,Yu Gothic_MSFontService,sans-serif" font-weight="700" font-size="14.6667" transform="matrix(1 0 0 1.00049 458.003 108)">‘’‘</text><text fill="#7F7F7F" font-family="Calibri,Calibri_MSFontService,sans-serif" font-weight="700" font-size="14.6667" transform="matrix(1 0 0 1.00049 251.354 159)">4.</text><text fill="#7F7F7F" font-family="Yu Gothic,Yu Gothic_MSFontService,sans-serif" font-weight="700" font-size="14.6667" transform="matrix(1 0 0 1.00049 277.508 159)">自己教師</text><text fill="#FF0000" font-family="Cambria Math,Cambria Math_MSFontService,sans-serif" font-weight="400" font-size="14.6667" transform="matrix(1 0 0 1.00049 339.478 159)">𝝅</text><text fill="#FF0000" font-family="Cambria Math,Cambria Math_MSFontService,sans-serif" font-weight="400" font-size="10.7067" transform="matrix(1 0 0 1.00049 349.473 162)">𝜽</text><path d="M147.7 3.01836C149.094 3.38598 150.165 4.17971 150.912 5.39954 151.659 6.61938 152.033 8.09106 152.033 9.81458 152.033 11.5429 151.66 13.0146 150.915 14.2296 150.171 15.4447 149.099 16.236 147.7 16.6036L147.528 16.0522C148.631 15.6846 149.451 14.9589 149.988 13.8751 150.525 12.7914 150.794 11.414 150.794 9.74297 150.794 8.12925 150.526 6.78887 149.992 5.72181 149.457 4.65475 148.629 3.93741 147.507 3.56979ZM111.01 3.01836 111.203 3.56979C110.086 3.93741 109.259 4.65475 108.722 5.72181 108.185 6.78887 107.916 8.12925 107.916 9.74297 107.916 11.414 108.185 12.7914 108.722 13.8751 109.259 14.9589 110.079 15.6846 111.182 16.0522L111.01 16.6036C109.611 16.236 108.539 15.4447 107.795 14.2296 107.05 13.0146 106.677 11.5429 106.677 9.81458 106.677 8.09106 107.051 6.61938 107.798 5.39954 108.545 4.17971 109.616 3.38598 111.01 3.01836Z" fill="#FF0000" fill-rule="evenodd" transform="matrix(1 0 0 1.00049 251.354 145.346)"/><text fill="#FF0000" font-family="Cambria Math,Cambria Math_MSFontService,sans-serif" font-weight="400" font-size="14.6667" transform="matrix(1 0 0 1.00049 362.827 159)">𝒚</text><text fill="#FF0000" font-family="Cambria Math,Cambria Math_MSFontService,sans-serif" font-weight="400" font-size="14.6667" transform="matrix(1 0 0 1.00049 371.655 159)">|</text><text fill="#FF0000" font-family="Cambria Math,Cambria Math_MSFontService,sans-serif" font-weight="400" font-size="14.6667" transform="matrix(1 0 0 1.00049 376.32 159)">𝒙</text><text fill="#FF0000" font-family="Cambria Math,Cambria Math_MSFontService,sans-serif" font-weight="400" font-size="14.6667" transform="matrix(1 0 0 1.00049 384.816 159)">,</text><text fill="#FF0000" font-family="Cambria Math,Cambria Math_MSFontService,sans-serif" font-weight="400" font-size="14.6667" transform="matrix(1 0 0 1.00049 390.26 159)">𝒇</text><text fill="#7F7F7F" font-family="Yu Gothic,Yu Gothic_MSFontService,sans-serif" font-weight="700" font-size="14.6667" transform="matrix(1 0 0 1.00049 408.004 159)">による信用割り当て</text><path d="M183.564 133.273 194.63 134.343 194.619 134.342 206.228 135.273 206.218 135.273 218.326 136.064 218.317 136.063 230.882 136.714 230.874 136.713 243.855 137.223 243.847 137.223 257.201 137.591 257.191 137.591 284.851 137.901 284.838 137.901 313.487 137.639 313.474 137.639 342.774 136.802 342.761 136.803 372.376 135.385 372.363 135.386 401.955 133.385 401.941 133.386 431.174 130.798 431.159 130.799 459.696 127.619 459.679 127.621 487.182 123.845 487.168 123.847 500.427 121.734 500.417 121.736 513.291 119.473 513.279 119.475 525.727 117.061 525.714 117.063 537.693 114.498 537.679 114.501 549.147 111.783 549.131 111.787 560.045 108.917 560.028 108.922 570.347 105.899 570.327 105.905 580.009 102.729 579.985 102.737 588.988 99.4068 588.961 99.4176 596.026 96.4446 596.542 97.6736 589.464 100.652 580.436 103.992 570.732 107.176 560.393 110.204 549.462 113.079 537.979 115.8 525.987 118.368 513.527 120.785 500.642 123.05 487.371 125.165 459.852 128.943 431.299 132.125 402.052 134.715 372.446 136.717 342.818 138.135 313.505 138.972 284.843 139.234 257.17 138.924 243.806 138.555 230.817 138.045 218.243 137.394 206.126 136.603 194.508 135.671 183.436 134.6ZM587.191 95.1981 597.503 96.5461 591.254 104.863C591.033 105.157 590.615 105.217 590.321 104.995 590.027 104.774 589.968 104.356 590.189 104.062L595.751 96.6585 596.198 97.7201 587.018 96.5202C586.654 96.4725 586.396 96.1379 586.444 95.7728 586.492 95.4077 586.826 95.1504 587.191 95.1981Z" fill="#172C51"/><path d="M597 82.8088C597 80.7266 598.687 79.0387 600.768 79.0387L608.232 79.0387C610.313 79.0387 612 80.7266 612 82.8088L612 91.2766C612 93.3587 610.313 95.0466 608.232 95.0466L600.768 95.0466C598.687 95.0466 597 93.3587 597 91.2766Z" fill="#FF0000" fill-rule="evenodd" fill-opacity="0.301961"/><path d="M9.50002 27.948C9.50002 17.762 17.7533 9.50467 27.9343 9.50467L655.066 9.50467C665.247 9.50467 673.5 17.762 673.5 27.948L673.5 160.144C673.5 170.33 665.247 178.587 655.066 178.587L27.9343 178.587C17.7533 178.587 9.50002 170.33 9.50002 160.144Z" stroke="#7F7F7F" stroke-width="1.33268" stroke-miterlimit="8" fill="none" fill-rule="evenodd"/></g></svg>