<svg width="435" height="274" xmlns="http://www.w3.org/2000/svg" xmlns:xlink="http://www.w3.org/1999/xlink" overflow="hidden"><g><rect x="0" y="0" width="435" height="273.79" fill="#FFFFFF"/><path d="M5.00005 112.648C5.00005 105.068 11.1492 98.9241 18.7345 98.9241L416.266 98.9241C423.851 98.9241 430 105.068 430 112.648L430 254.071C430 261.65 423.851 267.795 416.266 267.795L18.7345 267.795C11.1492 267.795 5.00005 261.65 5.00005 254.071Z" fill="#FBE5D6" fill-rule="evenodd"/><path d="M5.00005 19.0627C5.00005 12.9496 9.9595 7.99391 16.0773 7.99391L418.923 7.99391C425.041 7.99391 430 12.9496 430 19.0627L430 81.8604C430 87.9735 425.041 92.9292 418.923 92.9292L16.0773 92.9292C9.9595 92.9292 5.00005 87.9735 5.00005 81.8604Z" fill="#F2F2F2" fill-rule="evenodd"/><text font-family="Yu Gothic,Yu Gothic_MSFontService,sans-serif" font-weight="700" font-size="14.6667" transform="matrix(1 0 0 0.999234 14.6929 35)">標準的</text><text font-family="Calibri,Calibri_MSFontService,sans-serif" font-weight="700" font-size="14.6667" transform="matrix(1 0 0 0.999234 62.0626 35)">Weak</text><text font-family="Calibri,Calibri_MSFontService,sans-serif" font-weight="700" font-size="14.6667" transform="matrix(1 0 0 0.999234 96.9226 35)">-</text><text font-family="Calibri,Calibri_MSFontService,sans-serif" font-weight="700" font-size="14.6667" transform="matrix(1 0 0 0.999234 101.426 35)">to</text><text font-family="Calibri,Calibri_MSFontService,sans-serif" font-weight="700" font-size="14.6667" transform="matrix(1 0 0 0.999234 114.436 35)">-</text><text font-family="Calibri,Calibri_MSFontService,sans-serif" font-weight="700" font-size="14.6667" transform="matrix(1 0 0 0.999234 118.939 35)">Strong</text><text font-family="Yu Gothic,Yu Gothic_MSFontService,sans-serif" font-weight="700" font-size="14.6667" transform="matrix(1 0 0 0.999234 162.306 35)">汎化</text><rect x="15.5" y="50.4613" width="49.0001" height="25.98" stroke="#172C51" stroke-width="1.33436" stroke-miterlimit="8" fill="none"/><text font-family="Yu Gothic,Yu Gothic_MSFontService,sans-serif" font-weight="700" font-size="14.6667" transform="matrix(1 0 0 0.999234 24.8058 68)">問い</text><rect x="93.5" y="50.4613" width="74" height="25.98" stroke="#172C51" stroke-width="1.33436" stroke-miterlimit="8" fill="none"/><text font-family="Yu Gothic,Yu Gothic_MSFontService,sans-serif" font-weight="700" font-size="14.6667" transform="matrix(1 0 0 0.999234 100.329 68)">弱い教師</text><rect x="199.5" y="50.4613" width="108" height="25.98" stroke="#172C51" stroke-width="1.33436" stroke-miterlimit="8" fill="none"/><text font-family="Yu Gothic,Yu Gothic_MSFontService,sans-serif" font-weight="700" font-size="14.6667" transform="matrix(1 0 0 0.999234 201.399 68)">弱教師あり学習</text><rect x="336.5" y="50.4613" width="72.0001" height="25.98" stroke="#172C51" stroke-width="1.33436" stroke-miterlimit="8" fill="none"/><text font-family="Yu Gothic,Yu Gothic_MSFontService,sans-serif" font-weight="700" font-size="14.6667" transform="matrix(1 0 0 0.999234 343.058 68)">強い生徒</text><text font-family="Yu Gothic,Yu Gothic_MSFontService,sans-serif" font-weight="700" font-size="14.6667" transform="matrix(1 0 0 0.999234 14.6929 123)">選択的</text><text font-family="Calibri,Calibri_MSFontService,sans-serif" font-weight="700" font-size="14.6667" transform="matrix(1 0 0 0.999234 62.0626 123)">Weak</text><text font-family="Calibri,Calibri_MSFontService,sans-serif" font-weight="700" font-size="14.6667" transform="matrix(1 0 0 0.999234 96.9226 123)">-</text><text font-family="Calibri,Calibri_MSFontService,sans-serif" font-weight="700" font-size="14.6667" transform="matrix(1 0 0 0.999234 101.426 123)">to</text><text font-family="Calibri,Calibri_MSFontService,sans-serif" font-weight="700" font-size="14.6667" transform="matrix(1 0 0 0.999234 114.436 123)">-</text><text font-family="Calibri,Calibri_MSFontService,sans-serif" font-weight="700" font-size="14.6667" transform="matrix(1 0 0 0.999234 118.939 123)">Strong</text><text font-family="Yu Gothic,Yu Gothic_MSFontService,sans-serif" font-weight="700" font-size="14.6667" transform="matrix(1 0 0 0.999234 162.306 123)">汎化</text><rect x="15.5" y="162.375" width="49.0001" height="25.9802" stroke="#172C51" stroke-width="1.33436" stroke-miterlimit="8" fill="none"/><text font-family="Yu Gothic,Yu Gothic_MSFontService,sans-serif" font-weight="700" font-size="14.6667" transform="matrix(1 0 0 0.999234 24.8058 180)">問い</text><rect x="95.5" y="131.399" width="74" height="25.9801" stroke="#172C51" stroke-width="1.33436" stroke-miterlimit="8" fill="none"/><text font-family="Yu Gothic,Yu Gothic_MSFontService,sans-serif" font-weight="700" font-size="14.6667" transform="matrix(1 0 0 0.999234 102.835 149)">弱い教師</text><rect x="96.5" y="192.352" width="72" height="25.9802" stroke="#172C51" stroke-width="1.33436" stroke-miterlimit="8" fill="none"/><text font-family="Yu Gothic,Yu Gothic_MSFontService,sans-serif" font-weight="700" font-size="14.6667" transform="matrix(1 0 0 0.999234 102.521 210)">強い生徒</text><rect x="199.5" y="131.399" width="108" height="25.9801" stroke="#172C51" stroke-width="1.33436" stroke-miterlimit="8" fill="none"/><text font-family="Yu Gothic,Yu Gothic_MSFontService,sans-serif" font-weight="700" font-size="14.6667" transform="matrix(1 0 0 0.999234 201.399 149)">弱教師あり学習</text><rect x="199.5" y="231.323" width="108" height="25.98" stroke="#172C51" stroke-width="1.33436" stroke-miterlimit="8" fill="none"/><text font-family="Yu Gothic,Yu Gothic_MSFontService,sans-serif" font-weight="700" font-size="14.6667" transform="matrix(1 0 0 0.999234 223.416 249)">自己推論</text><rect x="336.5" y="167.372" width="72.0001" height="24.9808" stroke="#172C51" stroke-width="1.33436" stroke-miterlimit="8" fill="none"/><text font-family="Yu Gothic,Yu Gothic_MSFontService,sans-serif" font-weight="700" font-size="14.6667" transform="matrix(1 0 0 0.999234 343.058 184)">強い生徒</text><path d="M64.5 62.7847 86.6426 62.7848 86.6426 64.1181 64.5 64.118ZM85.3082 59.4514 93.3143 63.4514 85.3082 67.4514Z"/><path d="M167.5 62.7847 192.774 62.7848 192.774 64.1181 167.5 64.118ZM191.44 59.4514 199.446 63.4514 191.44 67.4514Z"/><path d="M307.5 62.7847 330.269 62.7848 330.269 64.1181 307.5 64.118ZM328.935 59.4514 336.941 63.4514 328.935 67.4514Z"/><path d="M0.464437-0.47827 26.9776 25.268 26.0487 26.2245-0.464437 0.47827ZM28.3432 21.9478 31.2959 30.3907 22.77 27.687Z" transform="matrix(1.00077 0 0 -1 64.5 174.78)"/><path d="M64.9614 174.884 92.0885 200.836 91.1657 201.799 64.0386 175.847ZM93.4317 197.506 96.4463 205.928 87.8949 203.285Z"/><text font-family="Yu Gothic,Yu Gothic_MSFontService,sans-serif" font-weight="700" font-size="14.6667" transform="matrix(1 0 0 0.999234 80.5435 186)">答えを知ってる？</text><path d="M169.5 143.723 192.269 143.723 192.269 145.056 169.5 145.056ZM190.935 140.389 198.941 144.389 190.935 148.389Z"/><path d="M0.328673-0.580016 79.3402 44.1928 78.6828 45.3529-0.328673 0.580016ZM79.8236 40.6355 84.8118 48.0596 75.8795 47.5956Z" fill="#BF9000" transform="matrix(1.00077 0 0 -1 168.5 205.439)"/><path d="M132.741 217.711 193.23 241.092 192.748 242.336 132.259 218.954ZM193.189 237.503 199.211 244.119 190.3 244.964Z"/><path d="M168.694 204.705 247.188 228.552 246.799 229.828 168.306 205.98ZM246.881 224.975 253.377 231.129 244.552 232.629Z" fill="#C55A11"/><path d="M0.606503-0.276765 27.257 58.1253 26.044 58.6788-0.606503 0.276765ZM29.736 55.5285 29.4182 64.4671 22.458 58.8496Z" fill="#C55A11" transform="matrix(1.00077 0 0 -1 307.5 244.829)"/><path d="M308.012 143.962 333.172 174.014 332.148 174.87 306.988 144.817ZM334.874 170.853 336.941 179.555 328.733 175.986Z" fill="#BF9000"/><text fill="#BF9000" font-family="Yu Gothic,Yu Gothic_MSFontService,sans-serif" font-weight="700" font-size="14.6667" transform="matrix(1 0 0 0.999234 219.93 191)">知らない</text><text fill="#C55A11" font-family="Yu Gothic,Yu Gothic_MSFontService,sans-serif" font-weight="700" font-size="14.6667" transform="matrix(1 0 0 0.999234 218.364 218)">知っている</text></g></svg>