<svg width="633" height="416" xmlns="http://www.w3.org/2000/svg" xmlns:xlink="http://www.w3.org/1999/xlink" overflow="hidden"><defs><clipPath id="clip0"><rect x="0" y="0" width="633" height="416"/></clipPath></defs><g clip-path="url(#clip0)"><rect x="0" y="0" width="633" height="416.334" fill="#FFFFFF"/><path d="M8.50005 31.3585C8.50005 29.2397 10.2163 27.5221 12.3334 27.5221L137.667 27.5221C139.784 27.5221 141.5 29.2397 141.5 31.3585L141.5 46.7041C141.5 48.8229 139.784 50.5406 137.667 50.5406L12.3334 50.5406C10.2163 50.5406 8.50005 48.8229 8.50005 46.7041Z" stroke="#84A0BF" stroke-width="1.33333" stroke-miterlimit="8" fill="#D6E9FE" fill-rule="evenodd"/><text font-family="Calibri,Calibri_MSFontService,sans-serif" font-weight="700" font-size="14.6784" transform="matrix(1 0 0 1.0008 59.1342 44)">Conv</text><path d="M8.50005 75.3938C8.50005 73.275 10.2163 71.5574 12.3334 71.5574L137.667 71.5574C139.784 71.5574 141.5 73.275 141.5 75.3938L141.5 90.7394C141.5 92.8582 139.784 94.5758 137.667 94.5758L12.3334 94.5758C10.2163 94.5758 8.50005 92.8582 8.50005 90.7394Z" stroke="#93BD82" stroke-width="1.33333" stroke-miterlimit="8" fill="#CEEAD6" fill-rule="evenodd"/><text font-family="Calibri,Calibri_MSFontService,sans-serif" font-weight="700" font-size="14.6784" transform="matrix(1 0 0 1.0008 39.8009 88)">BatchNorm</text><path d="M8.50005 118.428C8.50005 116.31 10.2163 114.592 12.3334 114.592L137.667 114.592C139.784 114.592 141.5 116.31 141.5 118.428L141.5 133.774C141.5 135.893 139.784 137.61 137.667 137.61L12.3334 137.61C10.2163 137.61 8.50005 135.893 8.50005 133.774Z" stroke="#E8D094" stroke-width="1.33333" stroke-miterlimit="8" fill="#FFF3C9" fill-rule="evenodd"/><text font-family="Calibri,Calibri_MSFontService,sans-serif" font-weight="700" font-size="14.6784" transform="matrix(1 0 0 1.0008 58.7176 131)">ReLU</text><path d="M68 165.132 81 165.132" stroke="#000000" stroke-width="2" stroke-miterlimit="8" fill="none" fill-rule="evenodd"/><path d="M74 158.127 74 172.138" stroke="#000000" stroke-width="2.0016" stroke-miterlimit="8" fill="none" fill-rule="evenodd"/><path d="M65 165.633C65 160.382 69.2533 156.125 74.5 156.125 79.7467 156.125 84 160.382 84 165.633 84 170.884 79.7467 175.14 74.5 175.14 69.2533 175.14 65 170.884 65 165.633Z" stroke="#000000" stroke-width="2" stroke-miterlimit="8" fill="none" fill-rule="evenodd"/><path d="M75 6.00481 75 18.348 73 18.348 73 6.00481ZM78 17.0136 74 25.0201 70 17.0136Z" fill="#172C51"/><path d="M75 51.0409 75 63.3841 73 63.3841 73 51.0409ZM78 62.0497 74 70.0561 70 62.0497Z" fill="#172C51"/><path d="M75 94.0754 75 106.419 73 106.419 73 94.0754ZM78 105.084 74 113.091 70 105.084Z" fill="#172C51"/><path d="M75 137.11 75 149.453 73 149.453 73 137.11ZM78 148.119 74 156.125 70 148.119Z" fill="#172C51"/><path d="M8.50005 199.493C8.50005 197.374 10.2163 195.657 12.3334 195.657L137.667 195.657C139.784 195.657 141.5 197.374 141.5 199.493L141.5 214.839C141.5 216.958 139.784 218.675 137.667 218.675L12.3334 218.675C10.2163 218.675 8.50005 216.958 8.50005 214.839Z" stroke="#84A0BF" stroke-width="1.33333" stroke-miterlimit="8" fill="#D6E9FE" fill-rule="evenodd"/><text font-family="Calibri,Calibri_MSFontService,sans-serif" font-weight="700" font-size="14.6784" transform="matrix(1 0 0 1.0008 59.1342 212)">Conv</text><path d="M8.50005 243.529C8.50005 241.41 10.2163 239.692 12.3334 239.692L137.667 239.692C139.784 239.692 141.5 241.41 141.5 243.529L141.5 258.874C141.5 260.993 139.784 262.711 137.667 262.711L12.3334 262.711C10.2163 262.711 8.50005 260.993 8.50005 258.874Z" stroke="#93BD82" stroke-width="1.33333" stroke-miterlimit="8" fill="#CEEAD6" fill-rule="evenodd"/><text font-family="Calibri,Calibri_MSFontService,sans-serif" font-weight="700" font-size="14.6784" transform="matrix(1 0 0 1.0008 39.8009 256)">BatchNorm</text><path d="M8.50005 286.563C8.50005 284.444 10.2163 282.727 12.3334 282.727L137.667 282.727C139.784 282.727 141.5 284.444 141.5 286.563L141.5 301.909C141.5 304.027 139.784 305.745 137.667 305.745L12.3334 305.745C10.2163 305.745 8.50005 304.027 8.50005 301.909Z" stroke="#E8D094" stroke-width="1.33333" stroke-miterlimit="8" fill="#FFF3C9" fill-rule="evenodd"/><text font-family="Calibri,Calibri_MSFontService,sans-serif" font-weight="700" font-size="14.6784" transform="matrix(1 0 0 1.0008 58.7176 299)">ReLU</text><path d="M68 334.268 81 334.268" stroke="#000000" stroke-width="2" stroke-miterlimit="8" fill="none" fill-rule="evenodd"/><path d="M74.0001 327.262 74.0001 340.273" stroke="#000000" stroke-width="2.0016" stroke-miterlimit="8" fill="none" fill-rule="evenodd"/><path d="M65 333.767C65 328.517 69.2533 324.26 74.5 324.26 79.7467 324.26 84 328.517 84 333.767 84 339.018 79.7467 343.275 74.5 343.275 69.2533 343.275 65 339.018 65 333.767Z" stroke="#000000" stroke-width="2" stroke-miterlimit="8" fill="none" fill-rule="evenodd"/><path d="M75 175.14 75 186.483 73 186.483 73 175.14ZM78 185.148 74 193.155 70 185.148Z" fill="#172C51"/><path d="M75 219.176 75 231.519 73 231.519 73 219.176ZM78 230.184 74 238.191 70 230.184Z" fill="#172C51"/><path d="M75 262.21 75 274.553 73 274.553 73 262.21ZM78 273.219 74 281.225 70 273.219Z" fill="#172C51"/><path d="M75 306.245 75 318.589 73 318.589 73 306.245ZM78 317.254 74 325.261 70 317.254Z" fill="#172C51"/><path d="M75 344.276 75 356.619 73 356.619 73 344.276ZM78 355.285 74 363.291 70 355.285Z" fill="#172C51"/><path d="M74.5001 9.00727 165 9.00727 165 167.134 91.4304 167.134 91.4304 164.132 163.5 164.132 162 165.633 162 10.5085 163.5 12.0097 74.5001 12.0097ZM92.9305 170.136 83.9305 165.633 92.9305 161.129Z" fill="#FF0000"/><path d="M74.5001 180.144 165 180.144 165 336.27 91.4304 336.27 91.4304 333.267 163.5 333.267 162 334.768 162 181.646 163.5 183.147 74.5001 183.147ZM92.9305 339.272 83.9305 334.768 92.9305 330.265Z" fill="#FF0000"/><rect x="222.5" y="16.5133" width="4" height="143.115" stroke="#172C51" stroke-width="1.33333" stroke-miterlimit="8" fill="#4472C4"/><rect x="238.5" y="16.5133" width="3" height="143.115" stroke="#172C51" stroke-width="1.33333" stroke-miterlimit="8" fill="#4472C4"/><path d="M210.5 16.5133 210.5 159.628" stroke="#4472C4" stroke-width="3" stroke-miterlimit="8" fill="none" fill-rule="evenodd"/><rect x="333.5" y="321.758" width="17" height="15.012" stroke="#172C51" stroke-width="1.33333" stroke-miterlimit="8" fill="#4472C4"/><rect x="360.5" y="321.758" width="18" height="15.012" stroke="#172C51" stroke-width="1.33333" stroke-miterlimit="8" fill="#4472C4"/><rect x="311.5" y="321.758" width="8" height="15.012" stroke="#172C51" stroke-width="1.33333" stroke-miterlimit="8" fill="#4472C4"/><rect x="391.5" y="353.784" width="36" height="7.00562" stroke="#172C51" stroke-width="1.33333" stroke-miterlimit="8" fill="#4472C4"/><rect x="440.5" y="353.784" width="35" height="7.00562" stroke="#172C51" stroke-width="1.33333" stroke-miterlimit="8" fill="#4472C4"/><rect x="361.5" y="353.784" width="17" height="7.00562" stroke="#172C51" stroke-width="1.33333" stroke-miterlimit="8" fill="#4472C4"/><rect x="478.5" y="321.758" width="17" height="15.012" stroke="#172C51" stroke-width="1.33333" stroke-miterlimit="8" fill="#4472C4"/><rect x="450.5" y="321.758" width="18" height="15.012" stroke="#172C51" stroke-width="1.33333" stroke-miterlimit="8" fill="#4472C4"/><rect x="509.5" y="321.758" width="8" height="15.012" stroke="#172C51" stroke-width="1.33333" stroke-miterlimit="8" fill="#4472C4"/><rect x="288.5" y="269.716" width="8" height="36.0289" stroke="#172C51" stroke-width="1.33333" stroke-miterlimit="8" fill="#4472C4"/><rect x="310.5" y="269.716" width="8" height="36.0289" stroke="#172C51" stroke-width="1.33333" stroke-miterlimit="8" fill="#4472C4"/><rect x="271.5" y="269.716" width="3" height="36.0289" stroke="#172C51" stroke-width="1.33333" stroke-miterlimit="8" fill="#4472C4"/><rect x="531.5" y="267.715" width="9" height="36.0289" stroke="#172C51" stroke-width="1.33333" stroke-miterlimit="8" fill="#4472C4"/><rect x="510.5" y="267.715" width="8" height="36.0289" stroke="#172C51" stroke-width="1.33333" stroke-miterlimit="8" fill="#4472C4"/><rect x="553.5" y="267.715" width="4" height="36.0289" stroke="#172C51" stroke-width="1.33333" stroke-miterlimit="8" fill="#4472C4"/><rect x="253.5" y="180.645" width="3.99998" height="72.0577" stroke="#172C51" stroke-width="1.33333" stroke-miterlimit="8" fill="#4472C4"/><rect x="270.5" y="180.645" width="5" height="72.0577" stroke="#172C51" stroke-width="1.33333" stroke-miterlimit="8" fill="#4472C4"/><rect x="237.5" y="180.645" width="4" height="72.0577" stroke="#172C51" stroke-width="1.33333" stroke-miterlimit="8" fill="#4472C4"/><rect x="572.5" y="179.644" width="3" height="72.0577" stroke="#172C51" stroke-width="1.33333" stroke-miterlimit="8" fill="#4472C4"/><rect x="553.5" y="179.644" width="6" height="72.0577" stroke="#172C51" stroke-width="1.33333" stroke-miterlimit="8" fill="#4472C4"/><rect x="588.5" y="179.644" width="3" height="72.0577" stroke="#172C51" stroke-width="1.33333" stroke-miterlimit="8" fill="#4472C4"/><rect x="604.5" y="16.5133" width="4" height="144.115" stroke="#172C51" stroke-width="1.33333" stroke-miterlimit="8" fill="#4472C4"/><rect x="589.5" y="16.5133" width="3" height="144.115" stroke="#172C51" stroke-width="1.33333" stroke-miterlimit="8" fill="#4472C4"/><path d="M620.5 160.629 620.5 16.5133" stroke="#4472C4" stroke-width="3" stroke-miterlimit="8" fill="none" fill-rule="evenodd"/><path d="M0-1 6.33333-1 6.33333 1 0 1ZM5-4 13 0 5 4Z" fill="#172C51" transform="matrix(1 0 0 -1.0008 210 88.0706)"/><path d="M0-1 6.33333-1 6.33333 1 0 1ZM5-4 13 0 5 4Z" fill="#172C51" transform="matrix(1 0 0 -1.0008 225 88.0706)"/><path d="M0-1 6.33333-1 6.33333 1 0 1ZM5-4 13 0 5 4Z" fill="#172C51" transform="matrix(6.12323e-17 1.0008 1 -6.12814e-17 239 164.132)"/><path d="M0-1 7.33333-1 7.33333 1 0 1ZM6-4 14 0 6 4Z" fill="#172C51" transform="matrix(1 0 0 -1.0008 241 216.173)"/><path d="M0-1 6.33333-1 6.33333 1 0 1ZM5-4 13 0 5 4Z" fill="#172C51" transform="matrix(1 0 0 -1.0008 257 216.173)"/><path d="M0-1 6.33333-1 6.33333 1 0 1ZM5-4 13 0 5 4Z" fill="#172C51" transform="matrix(6.12323e-17 1.0008 1 -6.12814e-17 273 254.204)"/><path d="M0-1 6.33333-1 6.33333 1 0 1ZM5-4 13 0 5 4Z" fill="#172C51" transform="matrix(1 0 0 -1.0008 275 288.231)"/><path d="M0-1 6.33333-1 6.33333 1 0 1ZM5-4 13 0 5 4Z" fill="#172C51" transform="matrix(1 0 0 -1.0008 297 288.231)"/><path d="M0-1 6.33333-1 6.33333 1 0 1ZM5-4 13 0 5 4Z" fill="#172C51" transform="matrix(6.12323e-17 1.0008 1 -6.12814e-17 314 307.246)"/><path d="M0-1 6.33333-1 6.33333 1 0 1ZM5-4 13 0 5 4Z" fill="#172C51" transform="matrix(6.12323e-17 1.0008 1 -6.12814e-17 368 339.272)"/><path d="M0-1 6.33333-1 6.33333 1 0 1ZM5-4 13 0 5 4Z" fill="#172C51" transform="matrix(1 0 0 -1.0008 320 329.264)"/><path d="M0-1 6.33333-1 6.33333 1 0 1ZM5-4 13 0 5 4Z" fill="#172C51" transform="matrix(1 0 0 -1.0008 349 329.264)"/><path d="M0-1 6.33333-1 6.33333 1 0 1ZM5-4 13 0 5 4Z" fill="#172C51" transform="matrix(1 0 0 -1.0008 466 329.264)"/><path d="M0-1 7.33333-1 7.33333 1 0 1ZM6-4 14 0 6 4Z" fill="#172C51" transform="matrix(1 0 0 -1.0008 496 329.264)"/><path d="M0-1 6.33333-1 6.33333 1 0 1ZM5-4 13 0 5 4Z" fill="#172C51" transform="matrix(1 0 0 -1.0008 379 357.286)"/><path d="M0-1 7.33333-1 7.33333 1 0 1ZM6-4 14 0 6 4Z" fill="#172C51" transform="matrix(1 0 0 -1.0008 427 357.286)"/><path d="M0-1 6.33333-1 6.33333 1 0 1ZM5-4 13 0 5 4Z" fill="#172C51" transform="matrix(-1.83697e-16 -1.0008 -1 1.83844e-16 459 351.281)"/><path d="M0-1 7.33333-1 7.33333 1 0 1ZM6-4 14 0 6 4Z" fill="#172C51" transform="matrix(-1.83697e-16 -1.0008 -1 1.83844e-16 513 317.254)"/><path d="M0-1 6.33333-1 6.33333 1 0 1ZM5-4 13 0 5 4Z" fill="#172C51" transform="matrix(-1.83697e-16 -1.0008 -1 1.83844e-16 556 264.212)"/><path d="M0-1 6.33333-1 6.33333 1 0 1ZM5-4 13 0 5 4Z" fill="#172C51" transform="matrix(-1.83697e-16 -1.0008 -1 1.83844e-16 590 177.142)"/><path d="M0-1 6.33333-1 6.33333 1 0 1ZM5-4 13 0 5 4Z" fill="#172C51" transform="matrix(1 0 0 -1.0008 519 287.23)"/><path d="M0-1 6.33333-1 6.33333 1 0 1ZM5-4 13 0 5 4Z" fill="#172C51" transform="matrix(1 0 0 -1.0008 540 287.23)"/><path d="M0-1 7.33333-1 7.33333 1 0 1ZM6-4 14 0 6 4Z" fill="#172C51" transform="matrix(1 0 0 -1.0008 558 215.172)"/><path d="M0-1 6.33333-1 6.33333 1 0 1ZM5-4 13 0 5 4Z" fill="#172C51" transform="matrix(1 0 0 -1.0008 575 215.172)"/><path d="M0-1 7.33333-1 7.33333 1 0 1ZM6-4 14 0 6 4Z" fill="#172C51" transform="matrix(1 0 0 -1.0008 591 89.0714)"/><path d="M0-1 6.33333-1 6.33333 1 0 1ZM5-4 13 0 5 4Z" fill="#172C51" transform="matrix(1 0 0 -1.0008 608 89.0714)"/><path d="M0-1.5 335.5-1.5 335.5 1.5 0 1.5ZM334-4.5 343 0 334 4.5Z" fill="#FF0000" transform="matrix(1 0 0 -1.0008 244.5 88.571)"/><path d="M0-1.5 266.5-1.5 266.5 1.5 0 1.5ZM265-4.5 274 0 265 4.5Z" fill="#FF0000" transform="matrix(1 0 0 -1.0008 278.5 215.673)"/><path d="M320.5 286.229 501 286.229 501 289.232 320.5 289.232ZM499.5 283.227 508.5 287.731 499.5 292.234Z" fill="#FF0000"/><path d="M379.5 328.263 441 328.263 441 331.265 379.5 331.265ZM439.5 325.261 448.5 329.764 439.5 334.268Z" fill="#FF0000"/><text font-family="Yu Gothic,Yu Gothic_MSFontService,sans-serif" font-weight="700" font-size="14.6784" transform="matrix(1 0 0 1.0008 22.6322 389)">短距離スキップ接続</text><text font-family="Yu Gothic,Yu Gothic_MSFontService,sans-serif" font-weight="700" font-size="14.6784" transform="matrix(1 0 0 1.0008 46.2122 406)">（例</text><text font-family="Calibri,Calibri_MSFontService,sans-serif" font-weight="700" font-size="14.6784" transform="matrix(1 0 0 1.0008 75.5455 406)">:</text><text font-family="Calibri,Calibri_MSFontService,sans-serif" font-weight="700" font-size="14.6784" transform="matrix(1 0 0 1.0008 82.8788 406)">ResNet)</text><text font-family="Yu Gothic,Yu Gothic_MSFontService,sans-serif" font-weight="700" font-size="14.6784" transform="matrix(1 0 0 1.0008 355.742 393)">長距離スキップ接続</text><text font-family="Yu Gothic,Yu Gothic_MSFontService,sans-serif" font-weight="700" font-size="14.6784" transform="matrix(1 0 0 1.0008 385.322 410)">（例</text><text font-family="Calibri,Calibri_MSFontService,sans-serif" font-weight="700" font-size="14.6784" transform="matrix(1 0 0 1.0008 414.655 410)">:</text><text font-family="Calibri,Calibri_MSFontService,sans-serif" font-weight="700" font-size="14.6784" transform="matrix(1 0 0 1.0008 421.988 410)">UNet)</text></g></svg>