<svg width="501" height="312" xmlns="http://www.w3.org/2000/svg" xmlns:xlink="http://www.w3.org/1999/xlink" overflow="hidden"><defs><clipPath id="clip0"><rect x="0" y="0" width="501" height="312"/></clipPath></defs><g clip-path="url(#clip0)"><rect x="0" y="0" width="501" height="312.063" fill="#FFFFFF"/><rect x="39.5" y="31.5064" width="16.0001" height="98.0197" stroke="#172C51" stroke-width="1.33378" stroke-miterlimit="8" fill="#DEEBF7"/><rect x="33.5" y="37.5076" width="16.0001" height="99.0199" stroke="#172C51" stroke-width="1.33378" stroke-miterlimit="8" fill="#DEEBF7"/><rect x="27.5" y="44.5089" width="16.0001" height="98.0198" stroke="#172C51" stroke-width="1.33378" stroke-miterlimit="8" fill="#DEEBF7"/><rect x="21.5" y="50.5101" width="16.0001" height="98.0198" stroke="#172C51" stroke-width="1.33378" stroke-miterlimit="8" fill="#DEEBF7"/><rect x="15.5" y="56.5113" width="16.0001" height="98.0198" stroke="#172C51" stroke-width="1.33378" stroke-miterlimit="8" fill="#DEEBF7"/><rect x="9.49996" y="63.5128" width="16.0001" height="98.0198" stroke="#172C51" stroke-width="1.33378" stroke-miterlimit="8" fill="#DEEBF7"/><path d="M141.5 183.537 141.5 131.526 156.5 141.929 156.5 173.135Z" stroke="#172C51" stroke-width="1.33405" stroke-miterlimit="8" fill="#E2F0D9" fill-rule="evenodd"/><path d="M0 0 52 0 41.6 15 10.4 15Z" stroke="#172C51" stroke-width="1.33378" stroke-miterlimit="8" fill="#E2F0D9" fill-rule="evenodd" transform="matrix(-6.12323e-17 -1.0002 -1 6.12447e-17 224.5 183.537)"/><path d="M141.5 242.549 141.5 189.538 156.5 200.14 156.5 231.947Z" stroke="#172C51" stroke-width="1.33405" stroke-miterlimit="8" fill="#C5E0B4" fill-rule="evenodd"/><path d="M0 0 53 0 42.4 15 10.6 15Z" stroke="#172C51" stroke-width="1.33378" stroke-miterlimit="8" fill="#C5E0B4" fill-rule="evenodd" transform="matrix(-6.12323e-17 -1.0002 -1 6.12447e-17 224.5 242.549)"/><path d="M141.5 303.561 141.5 250.55 156.5 261.153 156.5 292.959Z" stroke="#172C51" stroke-width="1.33405" stroke-miterlimit="8" fill="#A9D18E" fill-rule="evenodd"/><path d="M0 0 53 0 42.4 15 10.6 15Z" stroke="#172C51" stroke-width="1.33378" stroke-miterlimit="8" fill="#A9D18E" fill-rule="evenodd" transform="matrix(-6.12323e-17 -1.0002 -1 6.12447e-17 224.5 303.561)"/><path d="M142.5 60.6791C142.5 55.0629 147.052 50.5101 152.667 50.5101L210.333 50.5101C215.948 50.5101 220.5 55.0629 220.5 60.6791L220.5 101.354C220.5 106.97 215.948 111.522 210.333 111.522L152.667 111.522C147.052 111.522 142.5 106.97 142.5 101.354Z" stroke="#172C51" stroke-width="1.33378" stroke-miterlimit="8" fill="#4472C4" fill-rule="evenodd"/><text fill="#FFFFFF" font-family="Yu Gothic,Yu Gothic_MSFontService,sans-serif" font-weight="700" font-size="14.6745" transform="matrix(1 0 0 1.0002 151.838 77)">密な重み</text><text fill="#FFFFFF" font-family="Yu Gothic,Yu Gothic_MSFontService,sans-serif" font-weight="700" font-size="14.6745" transform="matrix(1 0 0 1.0002 159.587 94)">の</text><text fill="#FFFFFF" font-family="Calibri,Calibri_MSFontService,sans-serif" font-weight="700" font-size="14.6745" transform="matrix(1 0 0 1.0002 174.258 94)">DNN</text><path d="M300.549 57.4152C298.093 40.9967 310.735 25.8763 328.785 23.643 336.1 22.738 343.536 24.0908 349.905 27.485 356.653 15.9136 372.423 11.5159 385.128 17.6624 387.349 18.7372 389.388 20.0995 391.181 21.7067 396.437 12.1149 409.239 8.21797 419.776 13.0027 422.692 14.327 425.236 16.2422 427.212 18.6013 435.683 9.53051 450.653 8.41004 460.647 16.0987 464.848 19.3302 467.679 23.7873 468.655 28.7058 482.536 32.151 490.724 45.201 486.945 57.8537 486.627 58.9174 486.228 59.9596 485.752 60.9728 496.884 74.1568 494.159 93.0532 479.665 103.179 475.153 106.331 469.824 108.372 464.193 109.105 464.067 123.289 451.316 134.695 435.711 134.581 430.498 134.543 425.398 133.195 420.975 130.685 415.697 146.587 397.287 155.575 379.855 150.76 372.549 148.742 366.237 144.475 361.995 138.686 344.147 148.48 320.98 143.212 310.251 126.919 310.116 126.714 309.983 126.507 309.853 126.3 298.172 127.543 287.591 119.961 286.22 109.363 285.49 103.715 287.539 98.0607 291.823 93.9084 281.709 88.4916 278.312 76.6022 284.235 67.3526 287.652 62.0164 293.645 58.4888 300.371 57.8545Z" fill="#DEEBF7" fill-rule="evenodd"/><path d="M333.603 137.031C333.603 139.195 331.849 140.949 329.686 140.949 327.523 140.949 325.769 139.195 325.769 137.031 325.769 134.868 327.523 133.114 329.686 133.114 331.849 133.114 333.603 134.868 333.603 137.031Z" fill="#DEEBF7" fill-rule="evenodd"/><path d="M338.639 135.937C338.639 140.264 335.132 143.772 330.806 143.772 326.479 143.772 322.972 140.264 322.972 135.937 322.972 131.61 326.479 128.102 330.806 128.102 335.132 128.102 338.639 131.61 338.639 135.937Z" fill="#DEEBF7" fill-rule="evenodd"/><path d="M338.073 140.319C338.073 146.809 332.812 152.071 326.323 152.071 319.833 152.071 314.572 146.809 314.572 140.319 314.572 133.828 319.833 128.566 326.323 128.566 332.812 128.566 338.073 133.828 338.073 140.319Z" fill="#DEEBF7" fill-rule="evenodd"/><path d="M300.549 57.4152C298.093 40.9967 310.735 25.8763 328.785 23.643 336.1 22.738 343.536 24.0908 349.905 27.485 356.653 15.9136 372.423 11.5159 385.128 17.6624 387.349 18.7372 389.388 20.0995 391.181 21.7067 396.437 12.1149 409.239 8.21797 419.776 13.0027 422.692 14.327 425.236 16.2422 427.212 18.6013 435.683 9.53051 450.653 8.41004 460.647 16.0987 464.848 19.3302 467.679 23.7873 468.655 28.7058 482.536 32.151 490.724 45.201 486.945 57.8537 486.627 58.9174 486.228 59.9596 485.752 60.9728 496.884 74.1568 494.159 93.0532 479.665 103.179 475.153 106.331 469.824 108.372 464.193 109.105 464.067 123.289 451.316 134.695 435.711 134.581 430.498 134.543 425.398 133.195 420.975 130.685 415.697 146.587 397.287 155.575 379.855 150.76 372.549 148.742 366.237 144.475 361.995 138.686 344.147 148.48 320.98 143.212 310.251 126.919 310.116 126.714 309.983 126.507 309.853 126.3 298.172 127.543 287.591 119.961 286.22 109.363 285.49 103.715 287.539 98.0607 291.823 93.9084 281.709 88.4916 278.312 76.6022 284.235 67.3526 287.652 62.0164 293.645 58.4888 300.371 57.8545Z" stroke="#172C51" stroke-width="1.33378" stroke-miterlimit="8" stroke-dasharray="5.33511 4.00133" fill="none" fill-rule="evenodd"/><path d="M333.603 137.031C333.603 139.195 331.849 140.949 329.686 140.949 327.523 140.949 325.769 139.195 325.769 137.031 325.769 134.868 327.523 133.114 329.686 133.114 331.849 133.114 333.603 134.868 333.603 137.031Z" stroke="#172C51" stroke-width="1.33378" stroke-miterlimit="8" stroke-dasharray="5.33511 4.00133" fill="none" fill-rule="evenodd"/><path d="M338.639 135.937C338.639 140.264 335.132 143.772 330.806 143.772 326.479 143.772 322.972 140.264 322.972 135.937 322.972 131.61 326.479 128.102 330.806 128.102 335.132 128.102 338.639 131.61 338.639 135.937Z" stroke="#172C51" stroke-width="1.33378" stroke-miterlimit="8" stroke-dasharray="5.33511 4.00133" fill="none" fill-rule="evenodd"/><path d="M338.073 140.319C338.073 146.809 332.812 152.071 326.323 152.071 319.833 152.071 314.572 146.809 314.572 140.319 314.572 133.828 319.833 128.566 326.323 128.566 332.812 128.566 338.073 133.828 338.073 140.319Z" stroke="#172C51" stroke-width="1.33378" stroke-miterlimit="8" stroke-dasharray="5.33511 4.00133" fill="none" fill-rule="evenodd"/><path d="M304.422 95.9611C300.104 96.2686 295.787 95.3607 292.049 93.3591M315.338 124.435C313.602 125.064 311.782 125.483 309.925 125.681M361.983 138.118C360.677 136.336 359.583 134.431 358.721 132.437M422.299 123.952C422.107 126.066 421.67 128.155 420.996 130.185M448.195 85.4391C457.985 89.7738 464.163 98.8365 464.076 108.734M485.652 60.6277C484.067 63.9981 481.646 66.988 478.581 69.3629M468.684 28.2161C468.955 29.5772 469.08 30.9587 469.058 32.3415M423.525 23.404C424.446 21.5008 425.666 19.7287 427.147 18.1429M389.642 25.9113C390.018 24.3384 390.608 22.8143 391.397 21.3739M349.88 27.4522C352.184 28.6803 354.316 30.1585 356.229 31.8542M301.657 62.0478C301.154 60.533 300.784 58.9843 300.549 57.4164" stroke="#172C51" stroke-width="1.33378" stroke-miterlimit="8" stroke-dasharray="5.33511 4.00133" fill="none" fill-rule="evenodd"/><path d="M328.5 69.0139C328.5 57.1374 341.484 47.5096 357.5 47.5096 373.516 47.5096 386.5 57.1374 386.5 69.0139 386.5 80.8905 373.516 90.5183 357.5 90.5183 341.484 90.5183 328.5 80.8905 328.5 69.0139Z" stroke="#172C51" stroke-width="1.33378" stroke-miterlimit="8" fill="#E2F0D9" fill-rule="evenodd"/><text fill="#548235" font-family="Yu Gothic,Yu Gothic_MSFontService,sans-serif" font-weight="700" font-size="14.6745" transform="matrix(1 0 0 1.0002 342.396 65)">部分</text><text fill="#548235" font-family="Yu Gothic,Yu Gothic_MSFontService,sans-serif" font-weight="700" font-size="14.6745" transform="matrix(1 0 0 1.0002 342.396 82)">空間</text><path d="M341.5 100.02C341.5 88.1437 356.275 78.5159 374.5 78.5159 392.725 78.5159 407.5 88.1437 407.5 100.02 407.5 111.897 392.725 121.525 374.5 121.525 356.275 121.525 341.5 111.897 341.5 100.02Z" stroke="#172C51" stroke-width="1.33378" stroke-miterlimit="8" fill="#C5E0B4" fill-rule="evenodd"/><text fill="#548235" font-family="Yu Gothic,Yu Gothic_MSFontService,sans-serif" font-weight="700" font-size="14.6745" transform="matrix(1 0 0 1.0002 344.798 104)">部分空間</text><path d="M375.5 72.0145C375.5 60.138 390.498 50.5101 409 50.5101 427.502 50.5101 442.5 60.138 442.5 72.0145 442.5 83.891 427.502 93.5188 409 93.5188 390.498 93.5188 375.5 83.891 375.5 72.0145Z" stroke="#172C51" stroke-width="1.33378" stroke-miterlimit="8" fill="#A9D18E" fill-rule="evenodd"/><text fill="#548235" font-family="Yu Gothic,Yu Gothic_MSFontService,sans-serif" font-weight="700" font-size="14.6745" transform="matrix(1 0 0 1.0002 379.438 77)">部分空間</text><path d="M55.0008 79.0156 63.0779 79.0219 70.9028 79.0396 78.2201 79.0671 84.7765 79.1028 90.3185 79.145 92.6308 79.168 94.596 79.1921 96.1813 79.2171 97.3595 79.2428 98.1251 79.2701 98.4078 79.2998 98.6563 79.3259 98.5875 79.3211 99.3117 79.347 99.2978 79.3466 100.466 79.372 100.46 79.3719 102.04 79.3968 102.037 79.3968 103.998 79.4208 106.306 79.4438 111.843 79.486 118.396 79.5216 125.71 79.5491 133.532 79.5667 134.939 79.5678 134.937 81.5689 133.527 81.5678 125.703 81.5501 118.385 81.5226 111.828 81.487 106.286 81.4448 103.974 81.4217 102.011 81.3977 100.425 81.3727 99.2472 81.347 98.4816 81.3196 98.1989 81.2899 97.9505 81.2638 98.0192 81.2687 97.295 81.2428 97.3089 81.2432 96.1407 81.2177 96.1468 81.2178 94.5663 81.193 94.5697 81.193 92.6109 81.169 90.3032 81.146 84.7656 81.1038 78.2126 81.0682 70.8982 81.0407 63.0764 81.023 54.9993 81.0167ZM133.607 76.5652 141.607 80.5735 133.601 84.5695Z" fill="#4472C4"/><path d="M0.000583812-1.00033 11.2868-0.993746 16.4805-0.986187 21.1338-0.976386 25.0668-0.964791 28.0998-0.951853 30.0604-0.937964 30.7576-0.923558 31.448-0.909262 31.4344-0.909451 33.3855-0.895612 36.4143-0.882693 40.3451-0.871112 44.9968-0.861326 50.189-0.853782 54.8055-0.851094 54.8043 1.14957 50.1861 1.14688 44.9926 1.13934 40.3392 1.12954 36.4058 1.11795 33.3713 1.105 31.4134 1.09112 30.7163 1.07668 30.0259 1.06241 30.0395 1.0626 28.0912 1.04879 25.0609 1.03587 21.1295 1.02428 16.4776 1.01448 11.2856 1.00692-0.000583812 1.00033ZM53.4734-3.85287 61.4738 0.153122 53.4688 4.14979Z" fill="#4472C4" transform="matrix(1 0 0 -1.0002 220 80.1693)"/><path d="M55.0549 79.0172 59.1203 79.2406 63.2024 79.8998 67.2136 80.9615 71.1432 82.4033 78.5158 86.2643 85.1362 91.2833 90.7216 97.2114 93.0741 100.481 95.0646 103.883 96.6729 107.41 97.8651 111.035 98.6064 114.729 98.8568 118.393 99.1026 121.992 99.0854 121.864 99.8022 125.435 99.7716 125.319 100.928 128.834 100.888 128.732 102.452 132.162 102.405 132.072 104.346 135.39 104.295 135.311 106.581 138.488 106.497 138.387 111.98 144.206 111.856 144.095 118.344 149.013 118.204 148.924 125.444 152.716 125.325 152.663 129.149 154.066 129.061 154.038 132.979 155.075 132.832 155.048 134.196 155.197 133.978 157.186 132.54 157.029 128.504 155.961 124.574 154.519 117.202 150.658 110.581 145.639 104.996 139.711 102.643 136.442 100.653 133.039 99.0446 129.512 97.8524 125.888 97.1111 122.194 96.8607 118.529 96.6149 114.93 96.6321 115.059 95.9153 111.487 95.9459 111.603 94.7896 108.088 94.8297 108.19 93.2654 104.76 93.3122 104.85 91.3712 101.532 91.4227 101.611 89.1364 98.434 89.2203 98.5357 83.7374 92.7164 83.8611 92.8276 77.3737 87.9093 77.514 87.9984 70.2732 84.2064 70.3927 84.2594 66.5683 82.8562 66.6569 82.8841 62.7383 81.8469 62.8347 81.8674 58.8534 81.2245 58.9579 81.2358 54.9451 81.0152ZM133.189 152.07 140.717 156.906 132.332 160.028Z" fill="#548235"/><path d="M55.1073 79.0214 58.8032 79.42 62.5492 80.6067 66.2023 82.5036 69.7385 85.049 73.1364 88.1868 76.3746 91.8653 79.4302 96.0344 82.2786 100.645 84.8943 105.65 87.2573 111.013 91.0755 122.522 92.495 128.629 93.5417 134.872 94.1908 141.217 94.4124 147.58 94.4121 147.572 94.6835 153.901 94.6765 153.819 95.4677 160.098 95.4548 160.021 96.731 166.202 96.713 166.129 98.4396 172.161 98.4169 172.091 100.559 177.925 100.532 177.858 103.055 183.445 103.023 183.379 105.893 188.669 105.855 188.604 109.036 193.547 108.991 193.483 112.45 198.03 112.397 197.965 116.098 202.066 116.034 202.001 119.943 205.607 119.865 205.542 123.948 208.604 123.852 208.54 128.074 211.008 127.957 210.95 132.283 212.773 132.091 212.714 134.332 213.165 133.937 215.127 131.598 214.656 127.12 212.768 122.794 210.239 118.624 207.113 114.644 203.441 110.884 199.275 107.376 194.664 104.152 189.656 101.247 184.302 98.6937 178.649 96.5263 172.747 94.7793 166.643 93.4876 160.388 92.6864 154.028 92.4131 147.654 92.1925 141.321 92.1971 141.388 91.5547 135.108 91.5633 135.172 90.527 128.991 90.5392 129.052 89.1372 123.02 89.1621 123.109 85.3734 111.688 85.4074 111.776 83.077 106.487 83.1059 106.547 80.5222 101.604 80.5577 101.667 77.749 97.1199 77.7932 97.1855 74.7875 93.0844 74.8435 93.1541 71.669 89.548 71.7412 89.622 68.4261 86.5606 68.5203 86.6375 65.0927 84.1702 65.2161 84.2462 61.704 82.4225 61.8628 82.4883 58.2945 81.3578 58.4893 81.3988 54.8928 81.0109ZM133.458 209.982 140.717 215.213 132.178 217.883Z" fill="#548235"/><path d="M55.1996 79.0358 58.1309 79.6326 61.1218 81.4216 63.9634 84.2074 66.6792 87.8983 69.2763 92.4264 71.7478 97.7271 74.0795 103.734 76.2537 110.379 78.2509 117.593 80.0508 125.306 81.6325 133.448 82.9762 141.956 84.8564 159.736 85.5208 178.066 85.8432 187.251 85.8385 187.184 86.7784 196.295 86.7696 196.231 88.2857 205.199 88.2733 205.138 90.3244 213.89 90.3084 213.831 92.8535 222.296 92.8337 222.237 95.8315 230.343 95.8074 230.284 99.2168 237.959 99.1876 237.898 102.967 245.07 102.932 245.008 107.041 251.605 106.996 251.54 111.393 257.49 111.337 257.421 115.981 262.653 115.909 262.58 120.758 267.022 120.664 266.945 125.679 270.525 125.555 270.45 130.693 273.096 130.494 273.019 134.408 274.067 133.891 276 129.873 274.925 124.575 272.196 119.452 268.539 114.519 264.021 109.811 258.716 105.364 252.697 101.214 246.035 97.4021 238.802 93.9662 231.067 90.9465 222.902 88.3836 214.377 86.3182 205.564 84.7916 196.533 83.845 187.355 83.5214 178.139 82.8583 159.843 82.8632 159.912 80.9893 142.192 80.996 142.243 79.6591 133.777 79.6652 133.812 78.0904 125.706 78.0982 125.743 76.3072 118.068 76.3173 118.107 74.3317 110.935 74.3451 110.979 72.1865 104.382 72.2047 104.433 69.8948 98.4821 69.9207 98.5429 67.481 93.3105 67.5199 93.3855 64.9721 88.9433 65.0342 89.0385 62.3999 85.4585 62.5053 85.58 59.8062 82.9338 59.993 83.078 57.2506 81.4376 57.5645 81.5594 54.8005 80.9966ZM133.529 270.861 140.717 276.189 132.143 278.745Z" fill="#548235"/><path d="M0.0398147-0.99954 6.4702-0.743399 12.8866 0.00748055 19.1991 1.21822 25.3585 2.8559 31.3156 4.88793 37.0213 7.28204 42.4266 10.0063 47.4823 13.0294 52.1391 16.3202 56.3477 19.8486 60.0579 23.585 63.2191 27.5008 65.7784 31.5682 67.6805 35.7587 68.8667 40.0418 69.2688 44.3067 69.4779 48.4837 69.4685 48.3882 70.0749 52.5108 70.0467 52.3803 72.3483 60.3979 72.2897 60.2433 75.8661 67.7408 75.7863 67.6031 80.425 74.3206 80.321 74.1937 85.8095 79.871 85.7104 79.7814 88.707 82.1488 88.6274 82.092 91.7568 84.1018 91.664 84.049 94.8995 85.6688 94.7326 85.6032 98.245 86.6307 97.6833 88.5509 94.0844 87.4981 90.7206 85.8141 87.5051 83.7489 84.4176 81.3097 78.8254 75.5251 74.0947 68.6742 70.4482 61.0297 68.1052 52.8681 67.4821 48.6318 67.2717 44.4287 67.2749 44.4726 66.8832 40.3175 66.915 40.4906 65.7733 36.368 65.8265 36.5145 63.9847 32.4569 64.0489 32.5762 61.5571 28.6161 61.6254 28.7117 58.5335 24.8817 58.6021 24.9582 54.9602 21.2907 55.0273 21.3524 50.8854 17.8799 50.9508 17.9303 46.3588 14.6853 46.4228 14.7269 41.4308 11.742 41.4939 11.7767 36.152 9.08428 36.2151 9.11341 30.5731 6.74604 30.6372 6.77039 24.7452 4.76056 24.8111 4.78054 18.7191 3.16076 18.7877 3.17644 12.5457 1.97921 12.6178 1.99034 6.27577 1.24817 6.35223 1.25415-0.0398147 0.99954ZM97.3508 83.4178 104.53 88.7573 95.951 91.2971Z" fill="#548235" transform="matrix(1 0 0 -1.0002 224 156.789)"/><path d="M0.0384955-0.999592 14.1667-0.455496 28.2197 1.13447 42.0485 3.69884 55.5438 7.16796 68.5963 11.4725 81.0965 16.5435 92.9352 22.3124 104.003 28.7108 114.191 35.6713 123.389 43.1267 131.487 51.0112 138.374 59.2595 143.927 67.792 146.184 72.1725 148.058 76.5892 149.542 81.0481 150.625 85.5558 150.884 87.8319 148.896 88.0578 148.644 85.8427 148.666 85.9634 147.607 81.5572 147.63 81.6395 146.172 77.2592 146.2 77.3339 144.356 72.9883 144.388 73.0556 142.172 68.7532 142.223 68.8408 136.73 60.4006 136.8 60.4961 129.984 52.333 130.054 52.4086 122.026 44.5919 122.094 44.6523 112.963 37.2512 113.028 37.3001 102.906 30.384 102.969 30.4241 91.9646 24.0622 92.027 24.0954 80.2507 18.357 80.3129 18.3847 67.8752 13.339 67.9379 13.3621 54.949 9.07846 55.0133 9.09729 41.5835 5.64501 41.6502 5.65974 27.8897 3.10805 27.9596 3.11847 13.9787 1.53666 14.0527 1.54226-0.0384955 0.999592ZM153.752 86.2496 150.502 94.5856 145.783 86.9837Z" fill="#548235" transform="matrix(1 0 0 -1.0002 224 215.629)"/><path d="M0.0281198-0.999937 9.83621-0.724119 19.6517 0.0939346 29.4268 1.43576 39.1426 3.28369 48.7798 5.62012 58.3195 8.42746 67.7425 11.6881 77.03 15.3846 86.1628 19.4994 95.122 24.0151 103.889 28.9142 112.452 34.1848 128.843 45.7379 144.169 58.5531 158.259 72.4785 164.808 79.8288 170.985 87.399 176.78 95.1797 182.172 103.154 187.143 111.304 191.673 119.613 195.744 128.064 199.334 136.64 202.426 145.323 205 154.096 207.036 162.942 208.515 171.843 209.416 180.782 209.493 183.041 207.493 183.109 207.418 180.883 207.422 180.949 206.527 172.076 206.536 172.139 205.067 163.3 205.079 163.361 203.057 154.574 203.072 154.631 200.515 145.913 200.532 145.967 197.459 137.337 197.478 137.388 193.908 128.861 193.93 128.909 189.882 120.504 189.905 120.549 185.398 112.283 185.423 112.325 180.477 104.216 180.502 104.255 175.135 96.3193 175.162 96.3565 169.394 88.6118 169.421 88.6467 163.272 81.1105 163.3 81.1435 156.787 73.8331 156.83 73.8792 142.792 60.0053 142.853 60.0612 127.592 47.2992 127.657 47.3494 111.325 35.8381 111.377 35.8723 102.858 30.6291 102.894 30.6504 94.1647 25.772 94.2024 25.7921 85.2818 21.2958 85.3211 21.3146 76.2284 17.2178 76.2694 17.2352 67.0239 13.5554 67.0667 13.5713 57.6874 10.3258 57.7322 10.3401 48.2382 7.54624 48.2849 7.55877 38.6955 5.23391 38.7442 5.24446 29.0783 3.406 29.1292 3.41433 19.406 2.07964 19.4589 2.08547 9.69748 1.27192 9.75244 1.27498-0.0281198 0.999937ZM212.447 181.606 208.72 189.74 204.449 181.878Z" fill="#548235" transform="matrix(1 0 0 -1.0002 224 275.796)"/><text font-family="Calibri,Calibri_MSFontService,sans-serif" font-weight="700" font-size="14.6745" transform="matrix(1 0 0 1.0002 158.242 166)">LoRA1</text><text font-family="Calibri,Calibri_MSFontService,sans-serif" font-weight="700" font-size="14.6745" transform="matrix(1 0 0 1.0002 159.131 223)">LoRA2</text><text font-family="Calibri,Calibri_MSFontService,sans-serif" font-weight="700" font-size="14.6745" transform="matrix(1 0 0 1.0002 158.242 287)">LoRA3</text><text font-family="Yu Gothic,Yu Gothic_MSFontService,sans-serif" font-weight="700" font-size="14.6745" transform="matrix(1 0 0 1.0002 138.171 42)">ベースモデル</text></g></svg>