<svg width="548" height="189" xmlns="http://www.w3.org/2000/svg" xmlns:xlink="http://www.w3.org/1999/xlink" overflow="hidden"><g><rect x="0" y="0" width="548" height="189" fill="#FFFFFF"/><rect x="41.5001" y="29.5001" width="16" height="98" stroke="#172C51" stroke-width="1.33333" stroke-miterlimit="8" fill="#DEEBF7"/><rect x="34.5001" y="35.5001" width="17" height="98" stroke="#172C51" stroke-width="1.33333" stroke-miterlimit="8" fill="#DEEBF7"/><rect x="28.5001" y="41.5001" width="17" height="99" stroke="#172C51" stroke-width="1.33333" stroke-miterlimit="8" fill="#DEEBF7"/><rect x="22.5001" y="48.5001" width="17" height="98" stroke="#172C51" stroke-width="1.33333" stroke-miterlimit="8" fill="#DEEBF7"/><rect x="16.5001" y="54.5001" width="17" height="98" stroke="#172C51" stroke-width="1.33333" stroke-miterlimit="8" fill="#E2F0D9"/><rect x="10.5001" y="60.5001" width="17" height="99" stroke="#172C51" stroke-width="1.33333" stroke-miterlimit="8" fill="#E2F0D9"/><path d="M143.5 181.5 143.5 128.5 158.5 139.1 158.5 170.9Z" stroke="#172C51" stroke-width="1.33333" stroke-miterlimit="8" fill="#E2F0D9" fill-rule="evenodd"/><path d="M0 0 53 0 42.4 15 10.6 15Z" stroke="#172C51" stroke-width="1.33333" stroke-miterlimit="8" fill="#E2F0D9" fill-rule="evenodd" transform="matrix(-6.12323e-17 -1 -1 6.12323e-17 225.5 181.5)"/><path d="M144.5 58.6669C144.5 53.0519 149.052 48.5001 154.667 48.5001L212.333 48.5001C217.948 48.5001 222.5 53.0519 222.5 58.6669L222.5 99.3332C222.5 104.948 217.948 109.5 212.333 109.5L154.667 109.5C149.052 109.5 144.5 104.948 144.5 99.3332Z" stroke="#172C51" stroke-width="1.33333" stroke-miterlimit="8" fill="#4472C4" fill-rule="evenodd"/><text fill="#FFFFFF" font-family="Yu Gothic,Yu Gothic_MSFontService,sans-serif" font-weight="700" font-size="14.6667" transform="translate(153.283 75)">密な重み</text><text fill="#FFFFFF" font-family="Yu Gothic,Yu Gothic_MSFontService,sans-serif" font-weight="700" font-size="14.6667" transform="translate(161.03 92)">の</text><text fill="#FFFFFF" font-family="Calibri,Calibri_MSFontService,sans-serif" font-weight="700" font-size="14.6667" transform="translate(175.696 92)">DNN</text><path d="M301.549 55.0695C299.093 38.7712 311.735 23.7616 329.785 21.5447 337.1 20.6463 344.536 21.9892 350.905 25.3585 357.653 13.8719 373.423 9.50643 386.128 15.6079 388.349 16.6749 390.388 18.0271 392.181 19.6226 397.437 10.101 410.239 6.23267 420.776 10.9823 423.692 12.2969 426.236 14.1981 428.212 16.5399 436.683 7.53559 451.653 6.42333 461.648 14.0556 465.848 17.2634 468.679 21.6879 469.656 26.5704 483.536 29.9904 491.724 42.9447 487.945 55.5047 487.627 56.5606 487.229 57.5952 486.752 58.601 497.884 71.6883 495.159 90.4464 480.665 100.498 476.153 103.627 470.824 105.653 465.193 106.38 465.067 120.46 452.316 131.783 436.711 131.67 431.498 131.632 426.398 130.294 421.975 127.802 416.697 143.588 398.287 152.51 380.855 147.73 373.549 145.727 367.237 141.491 362.995 135.745 345.147 145.467 321.98 140.237 311.251 124.064 311.116 123.861 310.983 123.656 310.853 123.449 299.172 124.684 288.591 117.157 287.22 106.637 286.49 101.03 288.539 95.4172 292.823 91.2953 282.709 85.9182 279.312 74.1159 285.235 64.9341 288.652 59.6369 294.645 56.1351 301.371 55.5055Z" fill="#DEEBF7" fill-rule="evenodd"/><path d="M334.575 134.102C334.575 136.25 332.834 137.991 330.686 137.991 328.538 137.991 326.797 136.25 326.797 134.102 326.797 131.955 328.538 130.214 330.686 130.214 332.834 130.214 334.575 131.955 334.575 134.102Z" fill="#DEEBF7" fill-rule="evenodd"/><path d="M339.577 133.023C339.577 137.318 336.095 140.801 331.799 140.801 327.504 140.801 324.021 137.318 324.021 133.023 324.021 128.727 327.504 125.245 331.799 125.245 336.095 125.245 339.577 128.727 339.577 133.023Z" fill="#DEEBF7" fill-rule="evenodd"/><path d="M338.996 137.359C338.996 143.802 333.773 149.025 327.329 149.025 320.886 149.025 315.663 143.802 315.663 137.359 315.663 130.916 320.886 125.692 327.329 125.692 333.773 125.692 338.996 130.916 338.996 137.359Z" fill="#DEEBF7" fill-rule="evenodd"/><path d="M301.549 55.0695C299.093 38.7712 311.735 23.7616 329.785 21.5447 337.1 20.6463 344.536 21.9892 350.905 25.3585 357.653 13.8719 373.423 9.50643 386.128 15.6079 388.349 16.6749 390.388 18.0271 392.181 19.6226 397.437 10.101 410.239 6.23267 420.776 10.9823 423.692 12.2969 426.236 14.1981 428.212 16.5399 436.683 7.53559 451.653 6.42333 461.648 14.0556 465.848 17.2634 468.679 21.6879 469.656 26.5704 483.536 29.9904 491.724 42.9447 487.945 55.5047 487.627 56.5606 487.229 57.5952 486.752 58.601 497.884 71.6883 495.159 90.4464 480.665 100.498 476.153 103.627 470.824 105.653 465.193 106.38 465.067 120.46 452.316 131.783 436.711 131.67 431.498 131.632 426.398 130.294 421.975 127.802 416.697 143.588 398.287 152.51 380.855 147.73 373.549 145.727 367.237 141.491 362.995 135.745 345.147 145.467 321.98 140.237 311.251 124.064 311.116 123.861 310.983 123.656 310.853 123.449 299.172 124.684 288.591 117.157 287.22 106.637 286.49 101.03 288.539 95.4172 292.823 91.2953 282.709 85.9182 279.312 74.1159 285.235 64.9341 288.652 59.6369 294.645 56.1351 301.371 55.5055Z" stroke="#172C51" stroke-width="1.33333" stroke-miterlimit="8" stroke-dasharray="5.33333 4" fill="none" fill-rule="evenodd"/><path d="M334.575 134.102C334.575 136.25 332.834 137.991 330.686 137.991 328.538 137.991 326.797 136.25 326.797 134.102 326.797 131.955 328.538 130.214 330.686 130.214 332.834 130.214 334.575 131.955 334.575 134.102Z" stroke="#172C51" stroke-width="1.33333" stroke-miterlimit="8" stroke-dasharray="5.33333 4" fill="none" fill-rule="evenodd"/><path d="M339.577 133.023C339.577 137.318 336.095 140.801 331.799 140.801 327.504 140.801 324.021 137.318 324.021 133.023 324.021 128.727 327.504 125.245 331.799 125.245 336.095 125.245 339.577 128.727 339.577 133.023Z" stroke="#172C51" stroke-width="1.33333" stroke-miterlimit="8" stroke-dasharray="5.33333 4" fill="none" fill-rule="evenodd"/><path d="M338.996 137.359C338.996 143.802 333.773 149.025 327.329 149.025 320.886 149.025 315.663 143.802 315.663 137.359 315.663 130.916 320.886 125.692 327.329 125.692 333.773 125.692 338.996 130.916 338.996 137.359Z" stroke="#172C51" stroke-width="1.33333" stroke-miterlimit="8" stroke-dasharray="5.33333 4" fill="none" fill-rule="evenodd"/><path d="M305.422 93.3329C301.104 93.6382 296.787 92.7369 293.049 90.75M316.338 121.599C314.602 122.223 312.782 122.639 310.925 122.835M362.983 135.181C361.677 133.412 360.583 131.521 359.721 129.542M423.299 121.119C423.107 123.217 422.67 125.291 421.996 127.306M449.195 82.888C458.985 87.191 465.163 96.1873 465.076 106.013M486.652 58.2584C485.067 61.6041 482.647 64.5721 479.581 66.9296M469.684 26.0843C469.955 27.4354 470.08 28.8068 470.058 30.1795M424.525 21.3075C425.446 19.4182 426.666 17.659 428.147 16.0849M390.642 23.7963C391.018 22.235 391.608 20.722 392.397 19.2922M350.88 25.326C353.184 26.5451 355.316 28.0124 357.229 29.6957M302.657 59.6681C302.154 58.1644 301.784 56.6271 301.549 55.0706" stroke="#172C51" stroke-width="1.33333" stroke-miterlimit="8" stroke-dasharray="5.33333 4" fill="none" fill-rule="evenodd"/><path d="M357.5 156C357.5 144.126 370.484 134.5 386.5 134.5 402.516 134.5 415.5 144.126 415.5 156 415.5 167.874 402.516 177.5 386.5 177.5 370.484 177.5 357.5 167.874 357.5 156Z" stroke="#172C51" stroke-width="1.33333" stroke-miterlimit="8" fill="#E2F0D9" fill-rule="evenodd"/><path d="M57.0008 77 65.0752 77.0063 72.8974 77.0239 80.2124 77.0514 86.7666 77.0871 92.3067 77.1292 94.6183 77.1523 96.5828 77.1764 98.1675 77.2013 99.3454 77.227 100.111 77.2543 100.393 77.284 100.642 77.3101 100.573 77.3053 101.297 77.3311 101.283 77.3307 102.451 77.3562 102.445 77.3561 104.025 77.381 104.021 77.3809 105.982 77.4049 108.289 77.4279 113.824 77.4701 120.375 77.5057 127.686 77.5331 135.506 77.5508 136.912 77.5519 136.91 79.5519 135.501 79.5508 127.679 79.5331 120.364 79.5057 113.809 79.47 108.269 79.4278 105.957 79.4048 103.995 79.3807 102.41 79.3558 101.232 79.3301 100.467 79.3027 100.185 79.2731 99.9362 79.247 100.005 79.2518 99.2809 79.226 99.2948 79.2264 98.127 79.2009 98.1331 79.201 96.5531 79.1762 96.5565 79.1762 94.5984 79.1522 92.2915 79.1292 86.7557 79.087 80.2049 79.0514 72.8929 79.0239 65.0736 79.0063 56.9992 79ZM135.581 74.5509 143.578 78.5571 135.575 82.5509Z" fill="#4472C4"/><path d="M0.000583617-1 11.2831-0.993415 16.4751-0.985859 21.1267-0.976061 25.0584-0.96447 28.0904-0.951536 30.0504-0.937652 30.7474-0.923251 31.4376-0.908959 31.424-0.909149 33.3744-0.895314 36.4022-0.882399 40.3317-0.870822 44.9819-0.861039 50.1723-0.853498 54.7872-0.850811 54.7861 1.14919 50.1694 1.1465 44.9777 1.13896 40.3258 1.12917 36.3937 1.11758 33.3602 1.10464 31.403 1.09075 30.7061 1.07632 30.0159 1.06206 30.0295 1.06225 28.0819 1.04845 25.0525 1.03552 21.1225 1.02393 16.4721 1.01414 11.2819 1.00658-0.000583617 1ZM53.4557-3.85159 61.4533 0.153071 53.451 4.14841Z" fill="#4472C4" transform="matrix(1 0 0 -1 222 78.1531)"/><path d="M57.0549 77.0015 61.1189 77.2248 65.1996 77.8837 69.2095 78.9448 73.1378 80.3858 80.508 84.2447 87.1261 89.2611 92.7097 95.1861 95.0614 98.4535 97.0513 101.854 98.659 105.379 99.8508 109.002 100.592 112.694 100.842 116.356 101.088 119.954 101.071 119.825 101.787 123.395 101.757 123.279 102.913 126.792 102.872 126.69 104.436 130.118 104.39 130.028 106.33 133.345 106.278 133.265 108.564 136.441 108.48 136.339 113.961 142.155 113.837 142.044 120.323 146.96 120.182 146.871 127.421 150.661 127.301 150.608 131.125 152.01 131.036 151.982 134.953 153.019 134.806 152.992 136.169 153.141 135.952 155.129 134.514 154.972 130.479 153.904 126.551 152.463 119.181 148.604 112.563 143.588 106.979 137.663 104.628 134.395 102.638 130.995 101.03 127.47 99.8381 123.847 99.097 120.155 98.8468 116.493 98.601 112.895 98.6182 113.024 97.9017 109.454 97.9322 109.57 96.7764 106.057 96.8165 106.159 95.2527 102.73 95.2994 102.82 93.3591 99.5043 93.4105 99.5835 91.125 96.408 91.2089 96.5097 85.7278 90.6935 85.8515 90.8046 79.3663 85.8889 79.5065 85.9779 72.2681 82.188 72.3876 82.2409 68.5644 80.8385 68.653 80.8664 64.7357 79.8298 64.8321 79.8503 60.852 79.2077 60.9566 79.2189 56.9451 78.9985ZM135.163 150.015 142.689 154.849 134.306 157.969Z" fill="#548235"/><path d="M225.001 154 237.304 154.01 249.223 154.037 260.368 154.081 265.531 154.107 270.355 154.136 274.793 154.168 278.796 154.202 282.316 154.238 285.308 154.276 287.72 154.315 289.51 154.355 290.656 154.397 291.069 154.442 291.448 154.483 291.377 154.478 292.48 154.518 292.466 154.518 294.246 154.558 294.239 154.558 296.647 154.596 296.643 154.596 299.631 154.634 303.147 154.67 307.147 154.704 311.582 154.736 316.404 154.765 321.565 154.792 332.708 154.835 344.623 154.863 350.258 154.867 350.257 156.867 344.618 156.863 332.7 156.835 321.555 156.792 316.392 156.765 311.568 156.736 307.13 156.704 303.126 156.67 299.605 156.634 296.616 156.596 294.204 156.557 292.414 156.517 291.268 156.475 290.855 156.43 290.476 156.39 290.547 156.395 289.444 156.354 289.458 156.355 287.679 156.315 287.685 156.315 285.277 156.276 285.281 156.276 282.296 156.238 278.779 156.202 274.778 156.168 270.343 156.136 265.521 156.107 260.361 156.08 249.218 156.037 237.303 156.01 224.999 156ZM348.927 151.866 356.924 155.872 348.921 159.866Z" fill="#548235"/><text font-family="Calibri,Calibri_MSFontService,sans-serif" font-weight="700" font-size="14.6667" transform="translate(162.599 161)">LoRA</text><path d="M425.5 137.5C429.09 137.5 432 138.499 432 139.731L432 156.769C432 158.001 434.91 159 438.5 159 434.91 159 432 159.999 432 161.231L432 178.269C432 179.501 429.09 180.5 425.5 180.5" stroke="#548235" stroke-width="1.33333" stroke-miterlimit="8" fill="none" fill-rule="evenodd"/><text fill="#548235" font-family="Yu Gothic,Yu Gothic_MSFontService,sans-serif" font-weight="700" font-size="14.6667" transform="translate(442.385 153)">軽量な行列で</text><text fill="#548235" font-family="Calibri,Calibri_MSFontService,sans-serif" font-weight="700" font-size="14.6667" transform="translate(442.385 170)">Finetuning</text><text font-family="Yu Gothic,Yu Gothic_MSFontService,sans-serif" font-weight="700" font-size="14.6667" transform="translate(138.769 43)">ベースモデル</text></g></svg>