<svg width="529" height="246" xmlns="http://www.w3.org/2000/svg" xmlns:xlink="http://www.w3.org/1999/xlink" overflow="hidden"><defs><clipPath id="clip0"><rect x="0" y="0" width="529" height="246"/></clipPath></defs><g clip-path="url(#clip0)"><rect x="0" y="0" width="529" height="246.411" fill="#FFFFFF"/><rect x="36.5" y="18.5309" width="17" height="99.1656" stroke="#172C51" stroke-width="1.33291" stroke-miterlimit="8" fill="#DEEBF7"/><rect x="30.5" y="25.5426" width="17" height="98.1639" stroke="#172C51" stroke-width="1.33291" stroke-miterlimit="8" fill="#DEEBF7"/><rect x="24.5" y="31.5527" width="17" height="98.1639" stroke="#172C51" stroke-width="1.33291" stroke-miterlimit="8" fill="#DEEBF7"/><rect x="18.5" y="37.5627" width="17" height="99.1655" stroke="#172C51" stroke-width="1.33291" stroke-miterlimit="8" fill="#DEEBF7"/><rect x="12.5" y="44.5744" width="17" height="98.1639" stroke="#172C51" stroke-width="1.33291" stroke-miterlimit="8" fill="#DEEBF7"/><rect x="6.5" y="50.5844" width="17" height="98.1639" stroke="#172C51" stroke-width="1.33291" stroke-miterlimit="8" fill="#DEEBF7"/><path d="M139.5 171.787 139.5 118.698 153.5 129.316 153.5 161.169Z" stroke="#172C51" stroke-width="1.33514" stroke-miterlimit="8" fill="#E2F0D9" fill-rule="evenodd"/><path d="M0 0 53 0 42.4 15 10.6 15Z" stroke="#172C51" stroke-width="1.33291" stroke-miterlimit="8" fill="#E2F0D9" fill-rule="evenodd" transform="matrix(-6.12323e-17 -1.00167 -1 6.13347e-17 221.5 171.787)"/><path d="M139.5 239.9 139.5 186.812 153.5 197.43 153.5 229.283Z" stroke="#172C51" stroke-width="1.33514" stroke-miterlimit="8" fill="#FFE699" fill-rule="evenodd"/><path d="M0 0 53 0 42.4 15 10.6 15Z" stroke="#172C51" stroke-width="1.33291" stroke-miterlimit="8" fill="#FFE699" fill-rule="evenodd" transform="matrix(-6.12323e-17 -1.00167 -1 6.13347e-17 221.5 239.9)"/><path d="M325.5 56.0936C325.5 44.1997 338.484 34.5577 354.5 34.5577 370.516 34.5577 383.5 44.1997 383.5 56.0936 383.5 67.9876 370.516 77.6296 354.5 77.6296 338.484 77.6296 325.5 67.9876 325.5 56.0936Z" stroke="#172C51" stroke-width="1.33291" stroke-miterlimit="8" fill="#E2F0D9" fill-rule="evenodd"/><text fill="#548235" font-family="Yu Gothic,Yu Gothic_MSFontService,sans-serif" font-weight="700" font-size="14.6866" transform="matrix(1 0 0 1.00167 339.613 52)">部分</text><text fill="#548235" font-family="Yu Gothic,Yu Gothic_MSFontService,sans-serif" font-weight="700" font-size="14.6866" transform="matrix(1 0 0 1.00167 339.613 69)">空間</text><path d="M338.5 87.1455C338.5 75.2515 353.498 65.6095 372 65.6095 390.501 65.6095 405.5 75.2515 405.5 87.1455 405.5 99.0395 390.501 108.681 372 108.681 353.498 108.681 338.5 99.0395 338.5 87.1455Z" stroke="#172C51" stroke-width="1.33291" stroke-miterlimit="8" fill="#C5E0B4" fill-rule="evenodd"/><text fill="#548235" font-family="Yu Gothic,Yu Gothic_MSFontService,sans-serif" font-weight="700" font-size="14.6866" transform="matrix(1 0 0 1.00167 342.013 92)">部分空間</text><path d="M373.5 59.0987C373.5 47.2047 388.275 37.5627 406.5 37.5627 424.725 37.5627 439.5 47.2047 439.5 59.0987 439.5 70.9926 424.725 80.6346 406.5 80.6346 388.275 80.6346 373.5 70.9926 373.5 59.0987Z" stroke="#172C51" stroke-width="1.33291" stroke-miterlimit="8" fill="#A9D18E" fill-rule="evenodd"/><text fill="#548235" font-family="Yu Gothic,Yu Gothic_MSFontService,sans-serif" font-weight="700" font-size="14.6866" transform="matrix(1 0 0 1.00167 376.63 64)">部分空間</text><path d="M53.0549 67.1139 57.1176 67.3375 61.197 67.9973 65.2057 69.0598 69.1327 70.5028 76.5006 74.3669 83.1166 79.3901 88.6985 85.3231 91.0494 88.5949 93.0387 92.0004 94.6459 95.5302 95.8373 99.1576 96.5782 102.855 96.8283 106.522 97.0741 110.125 97.0568 109.996 97.7731 113.57 97.7426 113.454 98.8981 116.972 98.858 116.869 100.421 120.303 100.375 120.213 102.314 123.533 102.263 123.454 104.548 126.634 104.464 126.532 109.943 132.356 109.82 132.245 116.303 137.167 116.163 137.078 123.399 140.873 123.279 140.82 127.101 142.224 127.013 142.197 130.929 143.235 130.781 143.207 132.144 143.356 131.927 145.347 130.49 145.19 126.456 144.121 122.529 142.678 115.161 138.814 108.545 133.79 102.963 127.857 100.613 124.586 98.6233 121.18 97.0161 117.65 95.8246 114.023 95.0838 110.326 94.8336 106.659 94.5879 103.056 94.6051 103.185 93.8888 99.6106 93.9193 99.7265 92.7639 96.2085 92.8039 96.3111 91.2406 92.8777 91.2873 92.9679 89.3476 89.6472 89.3991 89.7265 87.1143 86.5467 87.1981 86.6485 81.7188 80.8244 81.8424 80.9357 75.3592 76.0134 75.4994 76.1025 68.2633 72.3074 68.3827 72.3604 64.5608 70.956 64.6493 70.984 60.7332 69.946 60.8296 69.9665 56.8508 69.323 56.9553 69.3343 52.9451 69.1136ZM131.139 140.226 138.662 145.067 130.282 148.191Z" fill="#548235"/><path d="M53.103 67.1177 57.2091 67.5438 61.3602 68.8093 65.4151 70.8354 69.3453 73.5577 73.1256 76.917 76.7306 80.8577 80.1337 85.326 83.307 90.2691 86.2216 95.6349 88.848 101.371 91.1558 107.426 93.1144 113.746 94.6928 120.281 95.8596 126.977 96.5831 133.783 96.8301 140.609 97.0758 147.4 97.0708 147.331 97.7871 154.068 97.7779 154.002 98.9333 160.634 98.9202 160.571 100.483 167.043 100.467 166.981 102.406 173.241 102.385 173.181 104.67 179.175 104.645 179.115 107.244 184.79 107.213 184.729 110.094 190.033 110.057 189.97 113.188 194.848 113.142 194.782 116.494 199.183 116.436 199.114 119.976 202.983 119.902 202.91 123.598 206.195 123.504 206.121 127.325 208.768 127.203 208.695 131.119 210.652 130.88 210.569 132.336 210.878 131.921 212.837 130.341 212.501 126.247 210.456 122.317 207.733 118.536 204.374 114.931 200.433 111.528 195.965 108.355 191.022 105.44 185.656 102.814 179.92 100.506 173.865 98.5476 167.545 96.9693 161.01 95.8025 154.314 95.079 147.508 94.832 140.682 94.5863 133.891 94.5912 133.961 93.875 127.223 93.8842 127.289 92.7287 120.657 92.7419 120.721 91.1786 114.248 91.1955 114.31 89.2558 108.05 89.2766 108.11 86.9918 102.116 87.017 102.176 84.4185 96.5009 84.4491 96.562 81.5682 91.2585 81.6055 91.3215 78.4737 86.443 78.5197 86.5087 75.1683 82.1083 75.2261 82.1775 71.6865 78.3083 71.7601 78.3808 68.0636 75.096 68.1584 75.1705 64.3365 72.5232 64.4588 72.5956 60.5428 70.6389 60.6979 70.7008 56.7191 69.4878 56.9072 69.5259 52.897 69.1097ZM131.613 207.667 138.662 213.177 130.032 215.52Z" fill="#BF9000"/><path d="M0.0397889-0.998893 6.46601-0.742917 12.8783 0.0074757 19.1867 1.21743 25.3421 2.85405 31.2953 4.88476 36.9973 7.27732 42.3991 9.99986 47.4515 13.0209 52.1054 16.3097 56.3112 19.8357 60.0191 23.5697 63.1781 27.483 65.7358 31.5477 67.6367 35.7356 68.8221 40.0158 69.2239 44.278 69.4329 48.4524 69.4235 48.3569 70.0295 52.4768 70.0013 52.3464 72.3015 60.3588 72.2429 60.2043 75.8169 67.697 75.7373 67.5593 80.3729 74.2724 80.269 74.1457 85.754 79.8193 85.6549 79.7297 88.6495 82.0956 88.57 82.0388 91.6973 84.0474 91.6046 83.9946 94.8381 85.6133 94.6712 85.5478 98.1814 86.5746 97.62 88.4935 94.0235 87.4414 90.6618 85.7585 87.4484 83.6947 84.363 81.2571 78.7744 75.4762 74.0467 68.6298 70.4026 60.9902 68.0611 52.8338 67.4384 48.6003 67.2281 44.4 67.2313 44.4438 66.8399 40.2914 66.8717 40.4644 65.7307 36.3445 65.7838 36.4909 63.9432 32.4359 64.0074 32.5551 61.5172 28.5976 61.5855 28.6932 58.4956 24.8656 58.5641 24.942 54.9246 21.2769 54.9917 21.3386 50.8525 17.8683 50.9178 17.9186 46.3288 14.6758 46.3927 14.7174 41.404 11.7344 41.4671 11.7691 36.1285 9.0784 36.1917 9.10751 30.5533 6.74167 30.6174 6.766 24.7292 4.75748 24.795 4.77744 18.707 3.15871 18.7755 3.17438 12.5375 1.97793 12.6096 1.98905 6.27171 1.24736 6.34811 1.25334-0.0397889 0.998893ZM97.2878 83.3638 104.463 88.6998 95.8889 91.238Z" fill="#548235" transform="matrix(1 0 0 -1.00167 221 144.942)"/><text font-family="Calibri,Calibri_MSFontService,sans-serif" font-weight="700" font-size="14.6866" transform="matrix(1 0 0 1.00167 155.577 154)">LoRA1</text><text font-family="Calibri,Calibri_MSFontService,sans-serif" font-weight="700" font-size="14.6866" transform="matrix(1 0 0 1.00167 155.577 224)">LoRA2</text><text fill="#548235" font-family="Yu Gothic,Yu Gothic_MSFontService,sans-serif" font-weight="700" font-size="14.6866" transform="matrix(1 0 0 1.00167 334.992 22)">汎用部分空間</text><path d="M396.5 95.1589C396.5 83.2649 411.275 73.6229 429.5 73.6229 447.725 73.6229 462.5 83.2649 462.5 95.1589 462.5 107.053 447.725 116.695 429.5 116.695 411.275 116.695 396.5 107.053 396.5 95.1589Z" stroke="#172C51" stroke-width="1.33291" stroke-miterlimit="8" fill="#FFE699" fill-rule="evenodd"/><text fill="#BF9000" font-family="Yu Gothic,Yu Gothic_MSFontService,sans-serif" font-weight="700" font-size="14.6866" transform="matrix(1 0 0 1.00167 399.772 100)">部分空間</text><path d="M0.0284631-0.99928 19.5459-0.443353 38.9371 1.17933 58.0214 3.79677 76.6471 7.33804 94.6627 11.7324 111.917 16.9094 128.258 22.7988 143.535 29.3309 157.588 36.4324 164.124 40.1833 170.292 44.0479 176.08 48.0222 181.47 52.098 186.444 56.2676 190.981 60.5231 195.063 64.8569 198.671 69.262 201.783 73.7311 204.38 78.2571 206.439 82.8324 207.945 87.4673 208.34 89.9901 206.365 90.2999 205.982 87.8555 206.019 88.0095 204.554 83.5019 204.594 83.6034 202.577 79.1224 202.621 79.2096 200.071 74.764 200.117 74.8378 197.052 70.4366 197.099 70.4986 193.538 66.1505 193.584 66.2026 189.547 61.9165 189.591 61.9602 185.096 57.745 185.138 57.7819 180.205 53.6464 180.244 53.6777 174.892 49.6307 174.929 49.6575 169.177 45.708 169.212 45.731 163.079 41.8878 163.112 41.9077 156.616 38.1797 156.663 38.2049 142.662 31.1298 142.72 31.1567 127.499 24.6486 127.553 24.6699 111.265 18.7995 111.316 18.8166 94.1132 13.6549 94.1636 13.6686 76.1983 9.28655 76.2484 9.29743 57.6733 5.76577 57.7242 5.77409 38.6916 3.16374 38.7441 3.16953 19.4066 1.55135 19.4615 1.55442-0.0284631 0.99928ZM211.16 88.3354 208.164 96.7601 203.222 89.3086Z" fill="#BF9000" transform="matrix(1 0 0 -1.00167 221 213.116)"/><text fill="#BF9000" font-family="Yu Gothic,Yu Gothic_MSFontService,sans-serif" font-weight="700" font-size="14.6866" transform="matrix(1 0 0 1.00167 438.693 134)">タスク固有</text><text fill="#BF9000" font-family="Yu Gothic,Yu Gothic_MSFontService,sans-serif" font-weight="700" font-size="14.6866" transform="matrix(1 0 0 1.00167 438.693 151)">部分空間</text></g></svg>