<svg width="850" height="129" xmlns="http://www.w3.org/2000/svg" xmlns:xlink="http://www.w3.org/1999/xlink" overflow="hidden"><g><rect x="0" y="0" width="850" height="128.548" fill="#FFFFFF"/><text font-family="Calibri,Calibri_MSFontService,sans-serif" font-weight="700" font-size="14.7237" transform="matrix(-1.83697e-16 -1.00859 0.995734 -1.84484e-16 17.5362 58)">Gato</text><text font-family="Calibri,Calibri_MSFontService,sans-serif" font-weight="700" font-size="14.7237" transform="matrix(-1.83697e-16 -1.00859 0.995734 -1.84484e-16 34.4598 56)">RT</text><text font-family="Calibri,Calibri_MSFontService,sans-serif" font-weight="700" font-size="14.7237" transform="matrix(-1.83697e-16 -1.00859 0.995734 -1.84484e-16 34.4598 40)">-</text><text font-family="Calibri,Calibri_MSFontService,sans-serif" font-weight="700" font-size="14.7237" transform="matrix(-1.83697e-16 -1.00859 0.995734 -1.84484e-16 34.4598 36)">1</text><text font-family="Calibri,Calibri_MSFontService,sans-serif" font-weight="700" font-size="14.7237" transform="matrix(-1.83697e-16 -1.00859 0.995734 -1.84484e-16 52.3868 63)">VIMA</text><text font-family="Calibri,Calibri_MSFontService,sans-serif" font-weight="700" font-size="14.7237" transform="matrix(-1.83697e-16 -1.00859 0.995734 -1.84484e-16 70.31 52)">ACT</text><text font-family="Calibri,Calibri_MSFontService,sans-serif" font-weight="700" font-size="14.7237" transform="matrix(-1.83697e-16 -1.00859 0.995734 -1.84484e-16 105.647 54)">RT</text><text font-family="Calibri,Calibri_MSFontService,sans-serif" font-weight="700" font-size="14.7237" transform="matrix(-1.83697e-16 -1.00859 0.995734 -1.84484e-16 105.647 38)">-</text><text font-family="Calibri,Calibri_MSFontService,sans-serif" font-weight="700" font-size="14.7237" transform="matrix(-1.83697e-16 -1.00859 0.995734 -1.84484e-16 105.647 34)">2</text><text font-family="Calibri,Calibri_MSFontService,sans-serif" font-weight="700" font-size="14.7237" transform="matrix(-1.83697e-16 -1.00859 0.995734 -1.84484e-16 122.571 84)">VoxPoser</text><text font-family="Calibri,Calibri_MSFontService,sans-serif" font-weight="700" font-size="14.7237" transform="matrix(-1.83697e-16 -1.00859 0.995734 -1.84484e-16 140.498 121)">Diffusion Policy</text><text font-family="Calibri,Calibri_MSFontService,sans-serif" font-weight="700" font-size="14.7237" transform="matrix(-1.83697e-16 -1.00859 0.995734 -1.84484e-16 158.421 55)">Octo</text><text font-family="Calibri,Calibri_MSFontService,sans-serif" font-weight="700" font-size="14.7237" transform="matrix(-1.83697e-16 -1.00859 0.995734 -1.84484e-16 175.348 83)">OpenVLA</text><text font-family="Calibri,Calibri_MSFontService,sans-serif" font-weight="700" font-size="14.7237" transform="matrix(-1.83697e-16 -1.00859 0.995734 -1.84484e-16 217.555 86)">Deer</text><text font-family="Calibri,Calibri_MSFontService,sans-serif" font-weight="700" font-size="14.7237" transform="matrix(-1.83697e-16 -1.00859 0.995734 -1.84484e-16 217.555 56)">-</text><text font-family="Calibri,Calibri_MSFontService,sans-serif" font-weight="700" font-size="14.7237" transform="matrix(-1.83697e-16 -1.00859 0.995734 -1.84484e-16 217.555 52)">VLA</text><text font-family="Calibri,Calibri_MSFontService,sans-serif" font-weight="700" font-size="14.7237" transform="matrix(-1.83697e-16 -1.00859 0.995734 -1.84484e-16 234.478 91)">Uni</text><text font-family="Calibri,Calibri_MSFontService,sans-serif" font-weight="700" font-size="14.7237" transform="matrix(-1.83697e-16 -1.00859 0.995734 -1.84484e-16 234.478 70)">-</text><text font-family="Calibri,Calibri_MSFontService,sans-serif" font-weight="700" font-size="14.7237" transform="matrix(-1.83697e-16 -1.00859 0.995734 -1.84484e-16 234.478 65)">NaVid</text><text font-family="Calibri,Calibri_MSFontService,sans-serif" font-weight="700" font-size="14.7237" transform="matrix(-1.83697e-16 -1.00859 0.995734 -1.84484e-16 252.405 68)">ReVLA</text><text font-family="Calibri,Calibri_MSFontService,sans-serif" font-weight="700" font-size="14.7237" transform="matrix(-1.83697e-16 -1.00859 0.995734 -1.84484e-16 270.329 84)">Occllama</text><text font-family="Calibri,Calibri_MSFontService,sans-serif" font-weight="700" font-size="14.7237" transform="matrix(-1.83697e-16 -1.00859 0.995734 -1.84484e-16 287.256 54)">PI</text><text font-family="Calibri,Calibri_MSFontService,sans-serif" font-weight="700" font-size="14.7237" transform="matrix(-1.83697e-16 -1.00859 0.995734 -1.84484e-16 287.256 43)">-</text><text font-family="Calibri,Calibri_MSFontService,sans-serif" font-weight="700" font-size="14.7237" transform="matrix(-1.83697e-16 -1.00859 0.995734 -1.84484e-16 287.256 38)">O</text><text font-family="Calibri,Calibri_MSFontService,sans-serif" font-weight="700" font-size="14.7237" transform="matrix(-1.83697e-16 -1.00859 0.995734 -1.84484e-16 305.179 73)">RDT</text><text font-family="Calibri,Calibri_MSFontService,sans-serif" font-weight="700" font-size="14.7237" transform="matrix(-1.83697e-16 -1.00859 0.995734 -1.84484e-16 305.179 48)">-</text><text font-family="Calibri,Calibri_MSFontService,sans-serif" font-weight="700" font-size="14.7237" transform="matrix(-1.83697e-16 -1.00859 0.995734 -1.84484e-16 305.179 44)">1B</text><text font-family="Calibri,Calibri_MSFontService,sans-serif" font-weight="700" font-size="14.7237" transform="matrix(-1.83697e-16 -1.00859 0.995734 -1.84484e-16 322.103 71)">CogAct</text><text font-family="Calibri,Calibri_MSFontService,sans-serif" font-weight="700" font-size="14.7237" transform="matrix(-1.83697e-16 -1.00859 0.995734 -1.84484e-16 340.03 81)">EdgeVLA</text><text font-family="Calibri,Calibri_MSFontService,sans-serif" font-weight="700" font-size="14.7237" transform="matrix(-1.83697e-16 -1.00859 0.995734 -1.84484e-16 357.953 75)">ShowUI</text><text font-family="Calibri,Calibri_MSFontService,sans-serif" font-weight="700" font-size="14.7237" transform="matrix(-1.83697e-16 -1.00859 0.995734 -1.84484e-16 374.881 69)">NaviLa</text><text font-family="Calibri,Calibri_MSFontService,sans-serif" font-weight="700" font-size="14.7237" transform="matrix(-1.83697e-16 -1.00859 0.995734 -1.84484e-16 392.804 87)">Quar</text><text font-family="Calibri,Calibri_MSFontService,sans-serif" font-weight="700" font-size="14.7237" transform="matrix(-1.83697e-16 -1.00859 0.995734 -1.84484e-16 392.804 56)">-</text><text font-family="Calibri,Calibri_MSFontService,sans-serif" font-weight="700" font-size="14.7237" transform="matrix(-1.83697e-16 -1.00859 0.995734 -1.84484e-16 392.804 52)">VLA</text><text font-family="Calibri,Calibri_MSFontService,sans-serif" font-weight="700" font-size="14.7237" transform="matrix(-1.83697e-16 -1.00859 0.995734 -1.84484e-16 409.727 68)">BI</text><text font-family="Calibri,Calibri_MSFontService,sans-serif" font-weight="700" font-size="14.7237" transform="matrix(-1.83697e-16 -1.00859 0.995734 -1.84484e-16 409.727 56)">-</text><text font-family="Calibri,Calibri_MSFontService,sans-serif" font-weight="700" font-size="14.7237" transform="matrix(-1.83697e-16 -1.00859 0.995734 -1.84484e-16 409.727 52)">VLA</text><text font-family="Calibri,Calibri_MSFontService,sans-serif" font-weight="700" font-size="14.7237" transform="matrix(-1.83697e-16 -1.00859 0.995734 -1.84484e-16 427.654 107)">RoboMamba</text><text font-family="Calibri,Calibri_MSFontService,sans-serif" font-weight="700" font-size="14.7237" transform="matrix(-1.83697e-16 -1.00859 0.995734 -1.84484e-16 445.578 61)">Otter</text><text font-family="Calibri,Calibri_MSFontService,sans-serif" font-weight="700" font-size="14.7237" transform="matrix(-1.83697e-16 -1.00859 0.995734 -1.84484e-16 480.188 84)">PointVLA</text><text font-family="Calibri,Calibri_MSFontService,sans-serif" font-weight="700" font-size="14.7237" transform="matrix(-1.83697e-16 -1.00859 0.995734 -1.84484e-16 497.112 100)">CombatVLA</text><text font-family="Calibri,Calibri_MSFontService,sans-serif" font-weight="700" font-size="14.7237" transform="matrix(-1.83697e-16 -1.00859 0.995734 -1.84484e-16 515.039 93)">HybridVLA</text><text font-family="Calibri,Calibri_MSFontService,sans-serif" font-weight="700" font-size="14.7237" transform="matrix(-1.83697e-16 -1.00859 0.995734 -1.84484e-16 532.962 68)">CoVLA</text><text font-family="Calibri,Calibri_MSFontService,sans-serif" font-weight="700" font-size="14.7237" transform="matrix(-1.83697e-16 -1.00859 0.995734 -1.84484e-16 549.89 118)">OpenDriveVLA</text><text font-family="Calibri,Calibri_MSFontService,sans-serif" font-weight="700" font-size="14.7237" transform="matrix(-1.83697e-16 -1.00859 0.995734 -1.84484e-16 567.813 70)">ORION</text><text font-family="Calibri,Calibri_MSFontService,sans-serif" font-weight="700" font-size="14.7237" transform="matrix(-1.83697e-16 -1.00859 0.995734 -1.84484e-16 584.737 92)">ObjectVLA</text><text font-family="Calibri,Calibri_MSFontService,sans-serif" font-weight="700" font-size="14.7237" transform="matrix(-1.83697e-16 -1.00859 0.995734 -1.84484e-16 602.664 74)">ConRFT</text><text font-family="Calibri,Calibri_MSFontService,sans-serif" font-weight="700" font-size="14.7237" transform="matrix(-1.83697e-16 -1.00859 0.995734 -1.84484e-16 620.587 82)">HI Robot</text><text font-family="Calibri,Calibri_MSFontService,sans-serif" font-weight="700" font-size="14.7237" transform="matrix(-1.83697e-16 -1.00859 0.995734 -1.84484e-16 637.514 51)">TLA</text><text font-family="Calibri,Calibri_MSFontService,sans-serif" font-weight="700" font-size="14.7237" transform="matrix(-1.83697e-16 -1.00859 0.995734 -1.84484e-16 655.437 81)">RaceVLA</text><text font-family="Calibri,Calibri_MSFontService,sans-serif" font-weight="700" font-size="14.7237" transform="matrix(-1.83697e-16 -1.00859 0.995734 -1.84484e-16 672.361 75)">DexVLA</text><text font-family="Calibri,Calibri_MSFontService,sans-serif" font-weight="700" font-size="14.7237" transform="matrix(-1.83697e-16 -1.00859 0.995734 -1.84484e-16 690.288 120)">Humanoid</text><text font-family="Calibri,Calibri_MSFontService,sans-serif" font-weight="700" font-size="14.7237" transform="matrix(-1.83697e-16 -1.00859 0.995734 -1.84484e-16 690.288 56)">-</text><text font-family="Calibri,Calibri_MSFontService,sans-serif" font-weight="700" font-size="14.7237" transform="matrix(-1.83697e-16 -1.00859 0.995734 -1.84484e-16 690.288 52)">VLA</text><text font-family="Calibri,Calibri_MSFontService,sans-serif" font-weight="700" font-size="14.7237" transform="matrix(-1.83697e-16 -1.00859 0.995734 -1.84484e-16 708.211 78)">SafeVLA</text><text font-family="Calibri,Calibri_MSFontService,sans-serif" font-weight="700" font-size="14.7237" transform="matrix(-1.83697e-16 -1.00859 0.995734 -1.84484e-16 725.139 112)">MoManipVLA</text><text font-family="Calibri,Calibri_MSFontService,sans-serif" font-weight="700" font-size="14.7237" transform="matrix(-1.83697e-16 -1.00859 0.995734 -1.84484e-16 743.062 93)">VLA</text><text font-family="Calibri,Calibri_MSFontService,sans-serif" font-weight="700" font-size="14.7237" transform="matrix(-1.83697e-16 -1.00859 0.995734 -1.84484e-16 743.062 69)">-</text><text font-family="Calibri,Calibri_MSFontService,sans-serif" font-weight="700" font-size="14.7237" transform="matrix(-1.83697e-16 -1.00859 0.995734 -1.84484e-16 743.062 65)">Cache</text><text font-family="Calibri,Calibri_MSFontService,sans-serif" font-weight="700" font-size="14.7237" transform="matrix(-1.83697e-16 -1.00859 0.995734 -1.84484e-16 759.986 78)">TinyVLA</text><text font-family="Calibri,Calibri_MSFontService,sans-serif" font-weight="700" font-size="14.7237" transform="matrix(-1.83697e-16 -1.00859 0.995734 -1.84484e-16 777.913 84)">Gr00t N1</text><text font-family="Calibri,Calibri_MSFontService,sans-serif" font-weight="700" font-size="14.7237" transform="matrix(-1.83697e-16 -1.00859 0.995734 -1.84484e-16 795.836 65)">NORA</text><text font-family="Calibri,Calibri_MSFontService,sans-serif" font-weight="700" font-size="14.7237" transform="matrix(-1.83697e-16 -1.00859 0.995734 -1.84484e-16 812.763 94)">SpatialVLA</text><text font-family="Calibri,Calibri_MSFontService,sans-serif" font-weight="700" font-size="14.7237" transform="matrix(-1.83697e-16 -1.00859 0.995734 -1.84484e-16 830.687 91)">MoLe</text><text font-family="Calibri,Calibri_MSFontService,sans-serif" font-weight="700" font-size="14.7237" transform="matrix(-1.83697e-16 -1.00859 0.995734 -1.84484e-16 830.687 56)">-</text><text font-family="Calibri,Calibri_MSFontService,sans-serif" font-weight="700" font-size="14.7237" transform="matrix(-1.83697e-16 -1.00859 0.995734 -1.84484e-16 830.687 52)">VLA</text><text font-family="Calibri,Calibri_MSFontService,sans-serif" font-weight="700" font-size="14.7237" transform="matrix(1 0 0 1.00428 8.33962 18)">2022</text><text font-family="Calibri,Calibri_MSFontService,sans-serif" font-weight="700" font-size="14.7237" transform="matrix(1 0 0 1.00428 95.5598 16)">2023</text><text font-family="Calibri,Calibri_MSFontService,sans-serif" font-weight="700" font-size="14.7237" transform="matrix(1 0 0 1.00428 207.599 18)">2024</text><text font-family="Calibri,Calibri_MSFontService,sans-serif" font-weight="700" font-size="14.7237" transform="matrix(1 0 0 1.00428 469.499 16)">2025</text></g></svg>