<svg width="915" height="340" xmlns="http://www.w3.org/2000/svg" xmlns:xlink="http://www.w3.org/1999/xlink" overflow="hidden"><g><rect x="0" y="0" width="915" height="339.71" fill="#FFFFFF"/><path d="M94.9996 233.8 94.9996 71.6079 97.0004 71.6079 97.0004 233.8ZM91.9986 72.9405 96 64.9444 100.001 72.9405Z"/><path d="M95.0748 230.805 248.424 242.296 248.274 244.29 94.9251 232.799ZM247.319 239.207 255 243.792 246.72 247.18Z" fill="#172C51"/><path d="M96.3751 232.728 13.5576 266.199 12.8073 264.346 95.6249 230.875ZM15.9195 268.479 7.00003 267.771 12.9185 261.066Z" fill="#172C51"/><path d="M374 233.8 374 71.6079 376 71.6079 376 233.8ZM370.999 72.9405 375 64.9444 379.001 72.9405Z"/><path d="M375.075 230.805 528.424 242.296 528.274 244.29 374.925 232.799ZM527.319 239.207 535 243.792 526.72 247.18Z" fill="#172C51"/><path d="M375.379 232.727 293.551 266.173 292.794 264.323 374.621 230.877ZM295.922 268.444 287 267.771 292.892 261.043Z" fill="#172C51"/><path d="M720 206.823 720 44.631 722 44.631 722 206.823ZM716.999 45.9636 721 37.9675 725.001 45.9636Z"/><path d="M720.075 203.828 873.424 215.32 873.275 217.313 719.925 205.822ZM872.319 212.23 880 216.815 871.72 220.203Z" fill="#172C51"/><path d="M721.384 205.748 638.542 240.158 637.774 238.312 720.616 203.902ZM640.926 242.415 632 241.793 637.854 235.032Z" fill="#172C51"/><text font-family="Calibri,Calibri_MSFontService,sans-serif" font-weight="700" font-size="14.6595" transform="matrix(1 0 0 0.999146 39.7918 199)">king</text><path d="M57.5 175.85C57.5 172.263 60.634 169.355 64.5 169.355 68.366 169.355 71.5 172.263 71.5 175.85 71.5 179.436 68.366 182.344 64.5 182.344 60.634 182.344 57.5 179.436 57.5 175.85Z" stroke="#000000" stroke-width="1.33382" stroke-miterlimit="8" fill="#4472C4" fill-rule="evenodd"/><path d="M132.5 200.828C132.5 197.242 135.41 194.334 139 194.334 142.59 194.334 145.5 197.242 145.5 200.828 145.5 204.415 142.59 207.323 139 207.323 135.41 207.323 132.5 204.415 132.5 200.828Z" stroke="#000000" stroke-width="1.33382" stroke-miterlimit="8" fill="#512B76" fill-rule="evenodd"/><path d="M70.3212 175.902 76.0055 177.828 75.3631 179.721 69.6787 177.795ZM77.9003 178.47 83.5846 180.396 82.9421 182.289 77.2578 180.363ZM85.4794 181.038 91.1637 182.964 90.5212 184.857 84.8369 182.931ZM93.0584 183.605 98.7427 185.531 98.1002 187.424 92.4159 185.499ZM100.637 186.173 106.322 188.099 105.679 189.992 99.995 188.066ZM108.217 188.741 113.901 190.667 113.258 192.56 107.574 190.634ZM115.796 191.309 121.48 193.234 120.837 195.128 115.153 193.202ZM123.375 193.876 125.672 194.655 125.029 196.548 122.732 195.769ZM125.433 191.388 131.635 197.831 122.755 198.923Z" fill="#512B76"/><text font-family="Calibri,Calibri_MSFontService,sans-serif" font-weight="700" font-size="14.6595" transform="matrix(1 0 0 0.999146 124.044 221)">queen</text><text font-family="Calibri,Calibri_MSFontService,sans-serif" font-weight="700" font-size="14.6595" transform="matrix(1 0 0 0.999146 117.291 150)">man</text><path d="M126.5 131.887C126.5 128.3 129.41 125.393 133 125.393 136.59 125.393 139.5 128.3 139.5 131.887 139.5 135.474 136.59 138.382 133 138.382 129.41 138.382 126.5 135.474 126.5 131.887Z" stroke="#000000" stroke-width="1.33382" stroke-miterlimit="8" fill="#4472C4" fill-rule="evenodd"/><path d="M201.5 156.866C201.5 153.279 204.41 150.371 208 150.371 211.59 150.371 214.5 153.279 214.5 156.866 214.5 160.453 211.59 163.36 208 163.36 204.41 163.36 201.5 160.453 201.5 156.866Z" stroke="#000000" stroke-width="1.33382" stroke-miterlimit="8" fill="#512B76" fill-rule="evenodd"/><path d="M139.326 131.941 145.001 133.895 144.349 135.785 138.674 133.831ZM146.892 134.547 152.567 136.501 151.915 138.391 146.24 136.437ZM154.458 137.152 160.133 139.106 159.481 140.996 153.806 139.042ZM162.024 139.758 167.699 141.712 167.047 143.602 161.373 141.648ZM169.591 142.363 175.265 144.317 174.613 146.207 168.939 144.253ZM177.157 144.968 182.831 146.922 182.18 148.812 176.505 146.858ZM184.723 147.574 190.398 149.528 189.746 151.418 184.071 149.464ZM192.289 150.179 193.694 150.663 193.042 152.553 191.637 152.069ZM193.471 147.395 199.641 153.869 190.755 154.916Z" fill="#512B76"/><text font-family="Calibri,Calibri_MSFontService,sans-serif" font-weight="700" font-size="14.6595" transform="matrix(1 0 0 0.999146 186.984 178)">woman</text><text font-family="Yu Gothic,Yu Gothic_MSFontService,sans-serif" font-weight="700" font-size="14.6595" transform="matrix(1 0 0 0.999146 63.0149 55)">男性</text><text font-family="Calibri,Calibri_MSFontService,sans-serif" font-weight="700" font-size="14.6595" transform="matrix(1 0 0 0.999146 92.3589 55)">-</text><text font-family="Yu Gothic,Yu Gothic_MSFontService,sans-serif" font-weight="700" font-size="14.6595" transform="matrix(1 0 0 0.999146 96.8605 55)">女性</text><text font-family="Calibri,Calibri_MSFontService,sans-serif" font-weight="700" font-size="14.6595" transform="matrix(1 0 0 0.999146 312.022 208)">walking</text><path d="M328.5 183.343C328.5 179.481 331.41 176.349 335 176.349 338.59 176.349 341.5 179.481 341.5 183.343 341.5 187.206 338.59 190.337 335 190.337 331.41 190.337 328.5 187.206 328.5 183.343Z" stroke="#000000" stroke-width="1.33382" stroke-miterlimit="8" fill="#F5F200" fill-rule="evenodd"/><path d="M413.5 138.382C413.5 134.519 416.41 131.388 420 131.388 423.59 131.388 426.5 134.519 426.5 138.382 426.5 142.244 423.59 145.376 420 145.376 416.41 145.376 413.5 142.244 413.5 138.382Z" stroke="#000000" stroke-width="1.33382" stroke-miterlimit="8" fill="#FB3215" fill-rule="evenodd"/><path d="M0.44738-0.893796 5.81016 1.79049 4.9154 3.57808-0.44738 0.893796ZM7.59775 2.68525 12.9605 5.36953 12.0658 7.15712 6.70299 4.47284ZM14.7481 6.26429 20.1109 8.94857 19.2161 10.7362 13.8534 8.05188ZM21.8985 9.84333 27.2613 12.5276 26.3665 14.3152 21.0037 11.6309ZM29.0489 13.4224 34.4116 16.1067 33.5169 17.8942 28.1541 15.21ZM36.1992 17.0014 41.562 19.6857 40.6672 21.4733 35.3045 18.789ZM43.3496 20.5805 48.7124 23.2647 47.8176 25.0523 42.4548 22.368ZM50.5 24.1595 55.8627 26.8438 54.968 28.6314 49.6052 25.9471ZM57.6503 27.7385 63.0131 30.4228 62.1183 32.2104 56.7556 29.5261ZM64.3308 27.6967 69.5287 34.9702 60.5912 34.7644Z" fill="#E1913F" transform="matrix(1.00085 0 0 -1 344 178.847)"/><text font-family="Calibri,Calibri_MSFontService,sans-serif" font-weight="700" font-size="14.6595" transform="matrix(1 0 0 0.999146 401.587 126)">walked</text><text font-family="Calibri,Calibri_MSFontService,sans-serif" font-weight="700" font-size="14.6595" transform="matrix(1 0 0 0.999146 382.394 280)">swimming</text><path d="M406.5 256.78C406.5 253.194 409.41 250.286 413 250.286 416.59 250.286 419.5 253.194 419.5 256.78 419.5 260.367 416.59 263.275 413 263.275 409.41 263.275 406.5 260.367 406.5 256.78Z" stroke="#000000" stroke-width="1.33382" stroke-miterlimit="8" fill="#F5F200" fill-rule="evenodd"/><path d="M457.5 206.823C457.5 203.236 460.41 200.329 464 200.329 467.59 200.329 470.5 203.236 470.5 206.823 470.5 210.41 467.59 213.318 464 213.318 460.41 213.318 457.5 210.41 457.5 206.823Z" stroke="#000000" stroke-width="1.33382" stroke-miterlimit="8" fill="#FB3215" fill-rule="evenodd"/><path d="M0.71582-0.697583 4.90132 3.59734 3.46968 4.9925-0.71582 0.697583ZM6.29648 5.02898 10.482 9.3239 9.05034 10.7191 4.86484 6.42414ZM11.8771 10.7555 16.0626 15.0505 14.631 16.4456 10.4455 12.1507ZM17.4578 16.4821 21.6433 20.777 20.2117 22.1722 16.0262 17.8773ZM23.0385 22.2087 27.224 26.5036 25.7923 27.8987 21.6068 23.6038ZM28.6191 27.9352 32.8046 32.2301 31.373 33.6253 27.1875 29.3304ZM34.1998 33.6618 35.8947 35.401 34.4631 36.7962 32.7682 35.0569ZM37.1884 32.3942 39.7307 40.965 31.3487 37.8564Z" fill="#E1913F" transform="matrix(1.00085 0 0 -1 418 252.784)"/><text font-family="Calibri,Calibri_MSFontService,sans-serif" font-weight="700" font-size="14.6595" transform="matrix(1 0 0 0.999146 445.268 193)">swam</text><text font-family="Yu Gothic,Yu Gothic_MSFontService,sans-serif" font-weight="700" font-size="14.6595" transform="matrix(1 0 0 0.999146 344.409 53)">動詞</text><text font-family="Calibri,Calibri_MSFontService,sans-serif" font-weight="700" font-size="14.6595" transform="matrix(1 0 0 0.999146 373.753 53)">-</text><text font-family="Yu Gothic,Yu Gothic_MSFontService,sans-serif" font-weight="700" font-size="14.6595" transform="matrix(1 0 0 0.999146 378.255 53)">時制</text><text font-family="Calibri,Calibri_MSFontService,sans-serif" font-weight="700" font-size="14.6595" transform="matrix(1 0 0 0.999146 542.787 173)">Ankara</text><path d="M563.5 151.87C563.5 148.283 566.41 145.376 570 145.376 573.59 145.376 576.5 148.283 576.5 151.87 576.5 155.457 573.59 158.365 570 158.365 566.41 158.365 563.5 155.457 563.5 151.87Z" stroke="#000000" stroke-width="1.33382" stroke-miterlimit="8" fill="#60AB46" fill-rule="evenodd"/><path d="M601.5 116.9C601.5 113.313 604.41 110.406 608 110.406 611.59 110.406 614.5 113.313 614.5 116.9 614.5 120.487 611.59 123.395 608 123.395 604.41 123.395 601.5 120.487 601.5 116.9Z" stroke="#000000" stroke-width="1.33382" stroke-miterlimit="8" fill="#815D05" fill-rule="evenodd"/><path d="M0.677172-0.735159 5.08812 3.32787 3.73378 4.79819-0.677172 0.735159ZM6.55844 4.68222 10.9694 8.74525 9.61505 10.2156 5.2041 6.15254ZM12.4397 10.0996 16.8507 14.1626 15.4963 15.6329 11.0854 11.5699ZM18.321 15.517 20.6617 17.673 19.3073 19.1433 16.9666 16.9873ZM21.7583 14.5854 24.8318 22.9803 16.2717 20.4021Z" fill="#686964" transform="matrix(-1.00085 0 0 1 601 123.894)"/><text font-family="Calibri,Calibri_MSFontService,sans-serif" font-weight="700" font-size="14.6595" transform="matrix(1 0 0 0.999146 593.726 104)">Turkey</text><text font-family="Calibri,Calibri_MSFontService,sans-serif" font-weight="700" font-size="14.6595" transform="matrix(1 0 0 0.999146 628.93 136)">Ottawa</text><path d="M650.5 114.902C650.5 111.315 653.41 108.407 657 108.407 660.59 108.407 663.5 111.315 663.5 114.902 663.5 118.489 660.59 121.396 657 121.396 653.41 121.396 650.5 118.489 650.5 114.902Z" stroke="#000000" stroke-width="1.33382" stroke-miterlimit="8" fill="#60AB46" fill-rule="evenodd"/><path d="M688.5 79.9316C688.5 76.3448 691.41 73.4372 695 73.4372 698.59 73.4372 701.5 76.3448 701.5 79.9316 701.5 83.5184 698.59 86.4261 695 86.4261 691.41 86.4261 688.5 83.5184 688.5 79.9316Z" stroke="#000000" stroke-width="1.33382" stroke-miterlimit="8" fill="#815D05" fill-rule="evenodd"/><path d="M0.677172-0.735159 5.08812 3.32787 3.73378 4.79819-0.677172 0.735159ZM6.55844 4.68222 10.9694 8.74525 9.61505 10.2156 5.2041 6.15254ZM12.4397 10.0996 16.8507 14.1626 15.4963 15.6329 11.0854 11.5699ZM18.321 15.517 20.6617 17.673 19.3073 19.1433 16.9666 16.9873ZM21.7583 14.5854 24.8318 22.9803 16.2717 20.4021Z" fill="#686964" transform="matrix(-1.00085 0 0 1 688 86.9257)"/><text font-family="Calibri,Calibri_MSFontService,sans-serif" font-weight="700" font-size="14.6595" transform="matrix(1 0 0 0.999146 662.552 71)">Canada</text><text font-family="Calibri,Calibri_MSFontService,sans-serif" font-weight="700" font-size="14.6595" transform="matrix(1 0 0 0.999146 592.856 227)">Moscow</text><path d="M620.5 208.822C620.5 205.235 623.41 202.327 627 202.327 630.59 202.327 633.5 205.235 633.5 208.822 633.5 212.408 630.59 215.316 627 215.316 623.41 215.316 620.5 212.408 620.5 208.822Z" stroke="#000000" stroke-width="1.33382" stroke-miterlimit="8" fill="#60AB46" fill-rule="evenodd"/><path d="M658.5 173.851C658.5 170.265 661.41 167.357 665 167.357 668.59 167.357 671.5 170.265 671.5 173.851 671.5 177.438 668.59 180.346 665 180.346 661.41 180.346 658.5 177.438 658.5 173.851Z" stroke="#000000" stroke-width="1.33382" stroke-miterlimit="8" fill="#815D05" fill-rule="evenodd"/><path d="M0.660763-0.749942 5.16041 3.21464 3.83889 4.71452-0.660763 0.749942ZM6.6603 4.53616 11.1599 8.50074 9.83842 10.0006 5.33877 6.03605ZM12.6598 9.82227 17.1595 13.7869 15.8379 15.2867 11.3383 11.3222ZM18.6594 15.1084 20.5439 16.7689 19.2224 18.2687 17.3378 16.6083ZM21.571 13.6572 24.8317 21.9812 16.216 19.5954Z" fill="#686964" transform="matrix(-1.00085 0 0 1 658 180.845)"/><text font-family="Calibri,Calibri_MSFontService,sans-serif" font-weight="700" font-size="14.6595" transform="matrix(1 0 0 0.999146 652.374 163)">Russia</text><text font-family="Calibri,Calibri_MSFontService,sans-serif" font-weight="700" font-size="14.6595" transform="matrix(1 0 0 0.999146 661.336 310)">Hanoi</text><path d="M675.5 289.752C675.5 286.166 678.41 283.258 682 283.258 685.59 283.258 688.5 286.166 688.5 289.752 688.5 293.339 685.59 296.247 682 296.247 678.41 296.247 675.5 293.339 675.5 289.752Z" stroke="#000000" stroke-width="1.33382" stroke-miterlimit="8" fill="#60AB46" fill-rule="evenodd"/><path d="M713.5 254.782C713.5 251.195 716.41 248.288 720 248.288 723.59 248.288 726.5 251.195 726.5 254.782 726.5 258.369 723.59 261.277 720 261.277 716.41 261.277 713.5 258.369 713.5 254.782Z" stroke="#000000" stroke-width="1.33382" stroke-miterlimit="8" fill="#815D05" fill-rule="evenodd"/><path d="M0.660763-0.749942 5.16041 3.21464 3.83889 4.71452-0.660763 0.749942ZM6.6603 4.53616 11.1599 8.50074 9.83842 10.0006 5.33877 6.03605ZM12.6598 9.82227 17.1595 13.7869 15.8379 15.2867 11.3383 11.3222ZM18.6594 15.1084 20.5439 16.7689 19.2224 18.2687 17.3378 16.6083ZM21.571 13.6572 24.8317 21.9812 16.216 19.5954Z" fill="#686964" transform="matrix(-1.00085 0 0 1 713 261.776)"/><text font-family="Calibri,Calibri_MSFontService,sans-serif" font-weight="700" font-size="14.6595" transform="matrix(1 0 0 0.999146 699.073 243)">Vietnam</text><text font-family="Calibri,Calibri_MSFontService,sans-serif" font-weight="700" font-size="14.6595" transform="matrix(1 0 0 0.999146 736.408 299)">Tokyo</text><path d="M750.5 276.763C750.5 273.177 753.41 270.269 757 270.269 760.59 270.269 763.5 273.177 763.5 276.763 763.5 280.35 760.59 283.258 757 283.258 753.41 283.258 750.5 280.35 750.5 276.763Z" stroke="#000000" stroke-width="1.33382" stroke-miterlimit="8" fill="#60AB46" fill-rule="evenodd"/><path d="M788.5 242.293C788.5 238.43 791.41 235.299 795 235.299 798.59 235.299 801.5 238.43 801.5 242.293 801.5 246.156 798.59 249.287 795 249.287 791.41 249.287 788.5 246.156 788.5 242.293Z" stroke="#000000" stroke-width="1.33382" stroke-miterlimit="8" fill="#815D05" fill-rule="evenodd"/><path d="M0.677172-0.735159 5.08812 3.32787 3.73378 4.79819-0.677172 0.735159ZM6.55844 4.68222 10.9694 8.74525 9.61505 10.2156 5.2041 6.15254ZM12.4397 10.0996 16.8507 14.1626 15.4963 15.6329 11.0854 11.5699ZM18.321 15.517 20.6617 17.673 19.3073 19.1433 16.9666 16.9873ZM21.7583 14.5854 24.8318 22.9803 16.2717 20.4021Z" fill="#686964" transform="matrix(-1.00085 0 0 1 788 248.787)"/><text font-family="Calibri,Calibri_MSFontService,sans-serif" font-weight="700" font-size="14.6595" transform="matrix(1 0 0 0.999146 779.814 228)">Japan</text><text font-family="Calibri,Calibri_MSFontService,sans-serif" font-weight="700" font-size="14.6595" transform="matrix(1 0 0 0.999146 787.51 323)">Beijing</text><path d="M800.5 301.742C800.5 298.155 803.634 295.248 807.5 295.248 811.366 295.248 814.5 298.155 814.5 301.742 814.5 305.329 811.366 308.237 807.5 308.237 803.634 308.237 800.5 305.329 800.5 301.742Z" stroke="#000000" stroke-width="1.33382" stroke-miterlimit="8" fill="#60AB46" fill-rule="evenodd"/><path d="M838.5 266.772C838.5 263.185 841.41 260.278 845 260.278 848.59 260.278 851.5 263.185 851.5 266.772 851.5 270.359 848.59 273.266 845 273.266 841.41 273.266 838.5 270.359 838.5 266.772Z" stroke="#000000" stroke-width="1.33382" stroke-miterlimit="8" fill="#815D05" fill-rule="evenodd"/><path d="M0.675848-0.736376 5.0941 3.31871 3.74241 4.79146-0.675848 0.736376ZM6.56686 4.67041 10.9851 8.7255 9.63342 10.1982 5.21516 6.14316ZM12.4579 10.0772 16.8761 14.1323 15.5244 15.605 11.1062 11.5499ZM18.3489 15.484 19.6564 16.684 18.3047 18.1568 16.9972 16.9567ZM20.7455 13.5935 23.8385 21.9812 15.2724 19.423Z" fill="#686964" transform="matrix(-1.00085 0 0 1 838 273.766)"/><text font-family="Calibri,Calibri_MSFontService,sans-serif" font-weight="700" font-size="14.6595" transform="matrix(1 0 0 0.999146 833.375 253)">China</text><text font-family="Calibri,Calibri_MSFontService,sans-serif" font-weight="700" font-size="14.6595" transform="matrix(1 0 0 0.999146 810.079 204)">Berlin</text><path d="M823.5 183.843C823.5 180.256 826.41 177.348 830 177.348 833.59 177.348 836.5 180.256 836.5 183.843 836.5 187.43 833.59 190.337 830 190.337 826.41 190.337 823.5 187.43 823.5 183.843Z" stroke="#000000" stroke-width="1.33382" stroke-miterlimit="8" fill="#60AB46" fill-rule="evenodd"/><path d="M861.5 148.873C861.5 145.286 864.41 142.378 868 142.378 871.59 142.378 874.5 145.286 874.5 148.873 874.5 152.46 871.59 155.367 868 155.367 864.41 155.367 861.5 152.46 861.5 148.873Z" stroke="#000000" stroke-width="1.33382" stroke-miterlimit="8" fill="#815D05" fill-rule="evenodd"/><path d="M0.660761-0.749943 5.16042 3.21463 3.8389 4.71451-0.660761 0.749943ZM6.66031 4.53615 11.16 8.50072 9.83844 10.0006 5.33878 6.03604ZM12.6599 9.82224 17.1595 13.7868 15.838 15.2867 11.3383 11.3221ZM18.6594 15.1083 20.5439 16.7688 19.2224 18.2686 17.3379 16.6082ZM21.5709 13.6571 24.8317 21.9811 16.216 19.5953Z" fill="#686964" transform="matrix(-1.00085 0 0 1 861 155.867)"/><text font-family="Calibri,Calibri_MSFontService,sans-serif" font-weight="700" font-size="14.6595" transform="matrix(1 0 0 0.999146 842.94 136)">Germany</text><text font-family="Calibri,Calibri_MSFontService,sans-serif" font-weight="700" font-size="14.6595" transform="matrix(1 0 0 0.999146 809.632 113)">Rome</text><path d="M819.5 92.9205C819.5 89.3338 822.41 86.4261 826 86.4261 829.59 86.4261 832.5 89.3338 832.5 92.9205 832.5 96.5073 829.59 99.415 826 99.415 822.41 99.415 819.5 96.5073 819.5 92.9205Z" stroke="#000000" stroke-width="1.33382" stroke-miterlimit="8" fill="#60AB46" fill-rule="evenodd"/><path d="M857.5 57.9505C857.5 54.3637 860.41 51.456 864 51.456 867.59 51.456 870.5 54.3637 870.5 57.9505 870.5 61.5373 867.59 64.4449 864 64.4449 860.41 64.4449 857.5 61.5373 857.5 57.9505Z" stroke="#000000" stroke-width="1.33382" stroke-miterlimit="8" fill="#815D05" fill-rule="evenodd"/><path d="M0.660763-0.749942 5.16041 3.21464 3.83889 4.71452-0.660763 0.749942ZM6.6603 4.53616 11.1599 8.50074 9.83842 10.0006 5.33877 6.03605ZM12.6598 9.82227 17.1595 13.7869 15.8379 15.2867 11.3383 11.3222ZM18.6594 15.1084 20.5439 16.7689 19.2224 18.2687 17.3378 16.6083ZM21.571 13.6572 24.8317 21.9812 16.216 19.5954Z" fill="#686964" transform="matrix(-1.00085 0 0 1 857 64.9444)"/><text font-family="Calibri,Calibri_MSFontService,sans-serif" font-weight="700" font-size="14.6595" transform="matrix(1 0 0 0.999146 853.871 46)">Italy</text><text font-family="Calibri,Calibri_MSFontService,sans-serif" font-weight="700" font-size="14.6595" transform="matrix(1 0 0 0.999146 727.624 136)">Madrid</text><path d="M738.5 114.902C738.5 111.315 741.41 108.407 745 108.407 748.59 108.407 751.5 111.315 751.5 114.902 751.5 118.489 748.59 121.396 745 121.396 741.41 121.396 738.5 118.489 738.5 114.902Z" stroke="#000000" stroke-width="1.33382" stroke-miterlimit="8" fill="#60AB46" fill-rule="evenodd"/><path d="M776.5 79.9316C776.5 76.3448 779.41 73.4372 783 73.4372 786.59 73.4372 789.5 76.3448 789.5 79.9316 789.5 83.5184 786.59 86.4261 783 86.4261 779.41 86.4261 776.5 83.5184 776.5 79.9316Z" stroke="#000000" stroke-width="1.33382" stroke-miterlimit="8" fill="#815D05" fill-rule="evenodd"/><path d="M0.660763-0.749942 5.16041 3.21464 3.83889 4.71452-0.660763 0.749942ZM6.6603 4.53616 11.1599 8.50074 9.83842 10.0006 5.33877 6.03605ZM12.6598 9.82227 17.1595 13.7869 15.8379 15.2867 11.3383 11.3222ZM18.6594 15.1084 20.5439 16.7689 19.2224 18.2687 17.3378 16.6083ZM21.571 13.6572 24.8317 21.9812 16.216 19.5954Z" fill="#686964" transform="matrix(-1.00085 0 0 1 776 86.9257)"/><text font-family="Calibri,Calibri_MSFontService,sans-serif" font-weight="700" font-size="14.6595" transform="matrix(1 0 0 0.999146 768.128 66)">Spain</text><text font-family="Yu Gothic,Yu Gothic_MSFontService,sans-serif" font-weight="700" font-size="14.6595" transform="matrix(1 0 0 0.999146 699.75 26)">国</text><text font-family="Calibri,Calibri_MSFontService,sans-serif" font-weight="700" font-size="14.6595" transform="matrix(1 0 0 0.999146 714.422 26)">-</text><text font-family="Yu Gothic,Yu Gothic_MSFontService,sans-serif" font-weight="700" font-size="14.6595" transform="matrix(1 0 0 0.999146 718.924 26)">首都</text></g></svg>