<svg width="312" height="219" xmlns="http://www.w3.org/2000/svg" xmlns:xlink="http://www.w3.org/1999/xlink" overflow="hidden"><defs><clipPath id="clip0"><rect x="0" y="0" width="312" height="219"/></clipPath></defs><g clip-path="url(#clip0)"><rect x="0" y="0" width="312" height="218.717" fill="#FFFFFF"/><text font-family="Calibri,Calibri_MSFontService,sans-serif" font-weight="700" font-size="14.6555" transform="matrix(1 0 0 0.998706 167.723 26)">Goal</text><text font-family="Calibri,Calibri_MSFontService,sans-serif" font-weight="700" font-size="14.6555" transform="matrix(1 0 0 0.998706 69.4994 201)">Planning</text><text font-family="Calibri,Calibri_MSFontService,sans-serif" font-weight="700" font-size="14.6555" transform="matrix(1 0 0 0.998706 259.462 201)">Policy</text><path d="M186.5 34.4554 99.5 183.263" stroke="#00B050" stroke-width="1.33405" stroke-miterlimit="8" fill="none" fill-rule="evenodd"/><path d="M142.83 108.779 267.033 179.388 266.373 180.546 142.17 109.937ZM267.524 175.834 272.5 183.263 263.564 182.782Z" fill="#00B050"/><path d="M85.8887 0 0 148.807" stroke="#0070C0" stroke-width="1.33232" stroke-miterlimit="8" fill="none" fill-rule="evenodd" transform="matrix(-1.0013 0 0 1 272.5 34.4554)"/><path d="M0.329548-0.578936 124.372 70.0298 123.713 71.1877-0.329548 0.578936ZM124.862 66.4761 129.832 73.9043 120.907 73.4233Z" fill="#0070C0" transform="matrix(-1.0013 0 0 1 229.5 109.358)"/><path d="M185.833 183.263 185.833 41.117 187.167 41.117 187.167 183.263ZM182.498 42.4493 186.5 34.4554 190.502 42.4493Z" fill="#FF0000"/><text fill="#FF0000" font-family="Yu Gothic,Yu Gothic_MSFontService,sans-serif" font-weight="700" font-size="14.6555" transform="matrix(1 0 0 0.998706 150.574 200)">逆強化学習</text><text fill="#00B050" font-family="Yu Gothic,Yu Gothic_MSFontService,sans-serif" font-weight="700" font-size="14.6555" transform="matrix(0.5 -0.863785 0.867148 0.499353 122.173 132)">強化学習</text><path d="M101.5 182.264 271.5 182.264" stroke="#FF0000" stroke-width="1.33405" stroke-miterlimit="8" fill="none" fill-rule="evenodd"/><text fill="#0070C0" font-family="Yu Gothic,Yu Gothic_MSFontService,sans-serif" font-weight="700" font-size="14.6555" transform="matrix(0.5 0.863785 -0.867148 0.499353 209.308 62)">この論文の結果</text><path d="M14.8125 145.939C13.8699 139.428 18.723 133.432 25.6522 132.546 28.46 132.187 31.3147 132.724 33.7596 134.07 36.3503 129.481 42.4041 127.737 47.2812 130.174 48.1341 130.601 48.9168 131.141 49.605 131.778 51.6227 127.975 56.5373 126.429 60.5821 128.327 61.7016 128.852 62.6781 129.611 63.4367 130.547 66.6888 126.95 72.4355 126.505 76.2722 129.554 77.8848 130.836 78.9716 132.603 79.3464 134.554 84.6749 135.92 87.8183 141.095 86.3674 146.113 86.2454 146.534 86.0924 146.948 85.9095 147.349 90.1829 152.578 89.1368 160.071 83.5728 164.087 81.8408 165.337 79.7951 166.146 77.6331 166.436 77.5851 172.061 72.69 176.584 66.6996 176.539 64.6982 176.524 62.7403 175.989 61.0425 174.994 59.0163 181.3 51.9489 184.864 45.257 182.955 42.4525 182.155 40.0294 180.463 38.4009 178.167 31.5492 182.051 22.6559 179.962 18.5372 173.501 18.4853 173.42 18.4343 173.338 18.3842 173.255 13.9001 173.748 9.83831 170.741 9.31201 166.539 9.03148 164.299 9.81832 162.057 11.4629 160.41 7.58025 158.262 6.276 153.547 8.54975 149.879 9.8615 147.763 12.1622 146.364 14.7442 146.113Z" stroke="#172C51" stroke-width="1.33405" stroke-miterlimit="8" fill="none" fill-rule="evenodd"/><path d="M94.0399 177.929C94.0399 178.787 93.3435 179.483 92.4844 179.483 91.6253 179.483 90.9289 178.787 90.9289 177.929 90.9289 177.071 91.6253 176.376 92.4844 176.376 93.3435 176.376 94.0399 177.071 94.0399 177.929Z" stroke="#172C51" stroke-width="1.33405" stroke-miterlimit="8" fill="none" fill-rule="evenodd"/><path d="M92.5599 176.385C92.5599 178.101 91.167 179.492 89.4488 179.492 87.7306 179.492 86.3377 178.101 86.3377 176.385 86.3377 174.669 87.7306 173.278 89.4488 173.278 91.167 173.278 92.5599 174.669 92.5599 176.385Z" stroke="#172C51" stroke-width="1.33405" stroke-miterlimit="8" fill="none" fill-rule="evenodd"/><path d="M88.3078 173.43C88.3078 176.004 86.2184 178.091 83.6411 178.091 81.0638 178.091 78.9745 176.004 78.9745 173.43 78.9745 170.856 81.0638 168.77 83.6411 168.77 86.2184 168.77 88.3078 170.856 88.3078 173.43Z" stroke="#172C51" stroke-width="1.33405" stroke-miterlimit="8" fill="none" fill-rule="evenodd"/><path d="M16.2993 161.224C14.6418 161.346 12.9844 160.986 11.5498 160.192M20.49 172.516C19.8234 172.765 19.1247 172.931 18.4119 173.01M38.3962 177.942C37.8949 177.235 37.4751 176.48 37.1441 175.689M61.5506 172.324C61.4769 173.163 61.3093 173.991 61.0506 174.796M71.4919 157.052C75.2501 158.771 77.6218 162.365 77.5883 166.29M85.8712 147.213C85.2626 148.549 84.3335 149.735 83.1566 150.677M79.3575 134.36C79.4612 134.899 79.5092 135.447 79.5008 135.996M62.0212 132.451C62.3749 131.697 62.8433 130.994 63.4119 130.365M49.0143 133.446C49.1587 132.822 49.3849 132.217 49.6879 131.646M33.75 134.057C34.6346 134.544 35.453 135.13 36.1872 135.802M15.2381 147.776C15.045 147.175 14.9028 146.561 14.8128 145.939" stroke="#172C51" stroke-width="1.33405" stroke-miterlimit="8" fill="none" fill-rule="evenodd"/><text font-family="Calibri,Calibri_MSFontService,sans-serif" font-weight="700" font-size="14.6555" transform="matrix(1 0 0 0.998706 25.9195 150)">World</text><text font-family="Calibri,Calibri_MSFontService,sans-serif" font-weight="700" font-size="14.6555" transform="matrix(1 0 0 0.998706 25.0857 167)">Model</text></g></svg>