<svg width="643" height="435" xmlns="http://www.w3.org/2000/svg" xmlns:xlink="http://www.w3.org/1999/xlink" overflow="hidden"><defs><clipPath id="clip0"><rect x="0" y="0" width="643" height="435"/></clipPath></defs><g clip-path="url(#clip0)"><rect x="0" y="0" width="643" height="434.995" fill="#FFFFFF"/><text font-family="Calibri,Calibri_MSFontService,sans-serif" font-weight="700" font-size="14.6779" transform="matrix(1 0 0 0.999989 171.517 101)">Goal</text><text font-family="Calibri,Calibri_MSFontService,sans-serif" font-weight="700" font-size="14.6779" transform="matrix(1 0 0 0.999989 157.586 118)">(Reward)</text><text font-family="Calibri,Calibri_MSFontService,sans-serif" font-weight="700" font-size="14.6779" transform="matrix(1 0 0 0.999989 68.9642 296)">Planning</text><text font-family="Calibri,Calibri_MSFontService,sans-serif" font-weight="700" font-size="14.6779" transform="matrix(1 0 0 0.999989 258.973 296)">Policy</text><path d="M185.5 128.499 99.5 277.497" stroke="#00B050" stroke-width="1.33437" stroke-miterlimit="8" fill="none" fill-rule="evenodd"/><path d="M142.832 202.919 266.045 273.598 265.381 274.756 142.168 204.076ZM266.547 270.041 271.5 277.497 262.563 276.985Z" fill="#00B050"/><path d="M85.999 0 0 148.998" stroke="#0070C0" stroke-width="1.33436" stroke-miterlimit="8" fill="none" fill-rule="evenodd" transform="matrix(-1.00001 0 0 1 271.5 128.499)"/><path d="M0.330052-0.579821 124.53 70.1189 123.87 71.2785-0.330052 0.579821ZM125.021 66.5596 129.999 73.9992 121.06 73.5175Z" fill="#0070C0" transform="matrix(-1.00001 0 0 1 229.5 203.498)"/><path d="M184.833 277.497 184.833 135.17 186.167 135.17 186.167 277.497ZM181.497 136.505 185.5 128.499 189.503 136.505Z" fill="#FF0000"/><text fill="#FF0000" font-family="Yu Gothic,Yu Gothic_MSFontService,sans-serif" font-weight="700" font-size="14.6779" transform="matrix(1 0 0 0.999989 150.059 294)">逆強化学習</text><text fill="#00B050" font-family="Yu Gothic,Yu Gothic_MSFontService,sans-serif" font-weight="700" font-size="14.6779" transform="matrix(0.5 -0.866006 0.866035 0.499994 121.651 227)">強化学習</text><path d="M101.5 276.497 271.5 276.497" stroke="#FF0000" stroke-width="1.33437" stroke-miterlimit="8" fill="none" fill-rule="evenodd"/><text fill="#0070C0" font-family="Yu Gothic,Yu Gothic_MSFontService,sans-serif" font-weight="700" font-size="14.6779" transform="matrix(0.5 0.866006 -0.866035 0.499994 208.807 156)">この論文の結果</text><path d="M14.8125 240.125C13.87 233.606 18.7231 227.602 25.6522 226.715 28.46 226.356 31.3147 226.893 33.7596 228.241 36.3503 223.646 42.4041 221.9 47.2813 224.341 48.1341 224.767 48.9168 225.308 49.605 225.946 51.6227 222.138 56.5373 220.591 60.5821 222.49 61.7016 223.016 62.6781 223.777 63.4368 224.713 66.6889 221.112 72.4355 220.667 76.2722 223.72 77.8848 225.003 78.9716 226.773 79.3464 228.726 84.6749 230.094 87.8183 235.275 86.3674 240.299 86.2455 240.721 86.0924 241.135 85.9095 241.538 90.183 246.773 89.1368 254.276 83.5728 258.296 81.8408 259.548 79.7951 260.358 77.6331 260.649 77.5851 266.281 72.69 270.81 66.6996 270.765 64.6982 270.75 62.7403 270.214 61.0425 269.218 59.0164 275.532 51.949 279.101 45.2571 277.189 42.4525 276.388 40.0294 274.693 38.4009 272.395 31.5492 276.284 22.656 274.192 18.5373 267.723 18.4854 267.641 18.4344 267.559 18.3843 267.477 13.9001 267.97 9.83835 264.96 9.31205 260.752 9.03152 258.509 9.81836 256.264 11.4629 254.615 7.58029 252.464 6.27604 247.744 8.54979 244.071 9.86154 241.952 12.1622 240.551 14.7443 240.299Z" stroke="#172C51" stroke-width="1.33437" stroke-miterlimit="8" fill="none" fill-rule="evenodd"/><path d="M94.04 272.157C94.04 273.016 93.3435 273.712 92.4844 273.712 91.6254 273.712 90.9289 273.016 90.9289 272.157 90.9289 271.298 91.6254 270.601 92.4844 270.601 93.3435 270.601 94.04 271.298 94.04 272.157Z" stroke="#172C51" stroke-width="1.33437" stroke-miterlimit="8" fill="none" fill-rule="evenodd"/><path d="M92.5599 270.611C92.5599 272.329 91.167 273.722 89.4488 273.722 87.7306 273.722 86.3377 272.329 86.3377 270.611 86.3377 268.892 87.7306 267.499 89.4488 267.499 91.167 267.499 92.5599 268.892 92.5599 270.611Z" stroke="#172C51" stroke-width="1.33437" stroke-miterlimit="8" fill="none" fill-rule="evenodd"/><path d="M88.3078 267.652C88.3078 270.229 86.2185 272.319 83.6412 272.319 81.0638 272.319 78.9745 270.229 78.9745 267.652 78.9745 265.075 81.0638 262.986 83.6412 262.986 86.2185 262.986 88.3078 265.075 88.3078 267.652Z" stroke="#172C51" stroke-width="1.33437" stroke-miterlimit="8" fill="none" fill-rule="evenodd"/><path d="M16.2994 255.43C14.6418 255.552 12.9845 255.192 11.5498 254.397M20.49 266.736C19.8235 266.986 19.1248 267.152 18.412 267.231M38.3963 272.169C37.8949 271.462 37.4752 270.705 37.1442 269.914M61.5506 266.545C61.4769 267.384 61.3093 268.213 61.0507 269.02M71.4919 251.252C75.2501 252.973 77.6218 256.572 77.5883 260.502M85.8712 241.401C85.2626 242.739 84.3335 243.926 83.1567 244.869M79.3575 228.531C79.4612 229.072 79.5092 229.62 79.5008 230.169M62.0212 226.62C62.3749 225.865 62.8433 225.161 63.4119 224.531M49.0144 227.616C49.1587 226.991 49.3849 226.386 49.6879 225.814M33.75 228.228C34.6346 228.715 35.4531 229.302 36.1873 229.976M15.2381 241.964C15.045 241.363 14.9028 240.748 14.8128 240.126" stroke="#172C51" stroke-width="1.33437" stroke-miterlimit="8" fill="none" fill-rule="evenodd"/><text font-family="Calibri,Calibri_MSFontService,sans-serif" font-weight="700" font-size="14.6779" transform="matrix(1 0 0 0.999989 25.3737 244)">World</text><text font-family="Calibri,Calibri_MSFontService,sans-serif" font-weight="700" font-size="14.6779" transform="matrix(1 0 0 0.999989 24.5397 261)">Model</text><path d="M471.5 345.996C471.5 340.749 475.753 336.496 481 336.496 486.247 336.496 490.5 340.749 490.5 345.996 490.5 351.243 486.247 355.496 481 355.496 475.753 355.496 471.5 351.243 471.5 345.996Z" stroke="#172C51" stroke-width="1.33437" stroke-miterlimit="8" fill="none" fill-rule="evenodd"/><text font-family="Calibri,Calibri_MSFontService,sans-serif" font-weight="700" font-size="14.6779" transform="matrix(1 0 0 0.999989 476.804 351)">X</text><path d="M490.5 377.996C490.5 372.749 494.977 368.496 500.5 368.496 506.023 368.496 510.5 372.749 510.5 377.996 510.5 383.242 506.023 387.496 500.5 387.496 494.977 387.496 490.5 383.242 490.5 377.996Z" stroke="#0070C0" stroke-width="1.33437" stroke-miterlimit="8" fill="none" fill-rule="evenodd"/><text font-family="Calibri,Calibri_MSFontService,sans-serif" font-weight="700" font-size="14.6779" transform="matrix(1 0 0 0.999989 496.185 383)">Y</text><path d="M490.779 378.383 487.617 377.797 484.492 376.108 481.616 373.526 479.065 370.209 476.92 366.304 475.264 361.941 474.764 359.225 476.077 358.983 476.566 361.64 476.533 361.524 478.151 365.787 478.112 365.702 480.21 369.521 480.154 369.436 482.637 372.663 482.554 372.574 485.325 375.062 485.196 374.972 488.159 376.574 487.963 376.504 491.023 377.071ZM471.64 360.978 474.5 352.496 479.569 359.873Z" fill="#FF0000"/><path d="M490.622 344.84 493.784 345.426 496.909 347.115 499.785 349.698 502.336 353.015 504.481 356.92 506.137 361.282 506.637 363.998 505.324 364.24 504.835 361.583 504.868 361.699 503.25 357.437 503.289 357.521 501.191 353.702 501.247 353.788 498.764 350.56 498.847 350.649 496.077 348.161 496.205 348.251 493.242 346.65 493.438 346.719 490.379 346.152ZM509.761 362.245 506.901 370.727 501.832 363.35Z" fill="#FF0000"/><path d="M490.543 378.161 486.623 378.415 486.704 378.405 482.907 379.123 482.983 379.104 479.432 380.219 479.509 380.19 476.328 381.637 476.41 381.592 473.721 383.304 473.815 383.232 471.742 385.143 471.848 385.017 470.514 387.06 470.607 386.841 470.135 388.95 470.142 388.697 470.486 390.806 470.43 390.627 471.402 392.67 471.323 392.543 472.833 394.454 472.749 394.365 474.708 396.077 474.622 396.013 476.94 397.46 476.851 397.413 479.437 398.529 479.341 398.495 482.107 399.213 481.999 399.194 484.855 399.448 484.728 399.449 487.584 399.157 487.461 399.182 490.227 398.356 490.121 398.397 492.708 397.114 492.616 397.17 494.933 395.505 494.789 395.646 496.915 392.821 497.981 393.623 495.794 396.53 493.35 398.285 490.663 399.618 487.782 400.478 484.8 400.783 481.825 400.519 478.956 399.774 476.276 398.618 473.87 397.117 471.825 395.329 470.229 393.311 469.184 391.115 468.804 388.784 469.331 386.431 470.777 384.218 472.954 382.211 475.733 380.442 478.994 378.959 482.621 377.819 486.496 377.087 490.457 376.83ZM493.245 392.85 500.108 387.103 500.587 396.041Z" fill="#FF0000"/><path d="M0.0626881 0.664226-3.6355 1.01325-3.52106 0.992262-7.10308 1.97864-7.00261 1.94209-10.3523 3.47477-10.2614 3.42431-13.2626 5.41224-13.1774 5.34523-15.7138 7.69736-15.6324 7.60672-17.588 10.232-17.5143 10.1064-18.7728 12.9138-18.7222 12.7422-19.1675 15.6406-19.1633 15.4708-18.8643 18.3693-18.8891 18.2454-18.0442 21.0528-18.0864 20.9467-16.7735 23.572-16.8298 23.4792-15.1271 25.8313-15.1989 25.7476-13.1842 27.7355-13.277 27.6592-11.0283 29.1918-11.1509 29.1259-8.74621 30.1123-8.90653 30.0688-6.42386 30.4179-6.60457 30.4172-4.12191 30.0875-4.27512 30.1268-1.87045 29.1951-1.99057 29.2562 0.258127 27.8085 0.164403 27.8814 2.17913 26.0037 2.10447 26.0859 3.80724 23.8642 3.70476 24.0563 4.20851 22.5666 5.47255 22.9941 4.93345 24.5883 3.12965 26.9418 1.03056 28.8982-1.32521 30.4148-3.86731 31.3998-6.51932 31.7519-9.17517 31.3785-11.722 30.3338-14.0784 28.7278-16.1755 26.6586-17.9426 24.2175-19.3055 21.4923-20.1851 18.5693-20.4994 15.5226-20.0273 12.4503-18.7019 9.49366-16.666 6.76055-14.0448 4.32984-10.9549 2.28309-7.50904 0.706408-3.81902-0.309713-0.0626881-0.664226ZM0.62221 22.8845 6.79345 16.4008 8.27768 25.228Z" fill="#FF0000" transform="matrix(1.83699e-16 1 1.00001 -1.83697e-16 474.5 339.496)"/><text font-family="Calibri,Calibri_MSFontService,sans-serif" font-weight="700" font-size="13.3436" transform="matrix(1 0 0 0.999989 508.222 335)">0.3</text><text font-family="Calibri,Calibri_MSFontService,sans-serif" font-weight="700" font-size="13.3436" transform="matrix(1 0 0 0.999989 506.888 358)">0.7</text><text font-family="Calibri,Calibri_MSFontService,sans-serif" font-weight="700" font-size="13.3436" transform="matrix(1 0 0 0.999989 454.712 374)">0.4</text><text font-family="Calibri,Calibri_MSFontService,sans-serif" font-weight="700" font-size="13.3436" transform="matrix(1 0 0 0.999989 450.208 406)">0.6</text><path d="M432.5 285.997C432.5 276.332 440.335 268.497 450 268.497L520 268.497C529.665 268.497 537.5 276.332 537.5 285.997L537.5 405.995C537.5 415.66 529.665 423.495 520 423.495L450 423.495C440.335 423.495 432.5 415.66 432.5 405.995Z" stroke="#172C51" stroke-width="1.33437" stroke-miterlimit="8" fill="none" fill-rule="evenodd"/><path d="M432.537 286.714C432.537 276.653 440.836 268.497 451.073 268.497L518.964 268.497C529.201 268.497 537.5 276.653 537.5 286.714L537.5 286.714C537.5 296.775 537.386 299.714 537.102 304.279L432.846 304.497C432.342 301.67 432.537 296.775 432.537 286.714L432.537 286.714Z" stroke="#172C51" stroke-width="1.33437" stroke-miterlimit="8" fill="#BDD7EE" fill-rule="evenodd"/><text font-family="Yu Gothic,Yu Gothic_MSFontService,sans-serif" font-weight="700" font-size="14.6779" transform="matrix(1 0 0 0.999989 469.756 291)">環境</text><path d="M510.5 222.019C510.5 215.656 515.658 210.498 522.022 210.498L603.978 210.498C610.342 210.498 615.5 215.656 615.5 222.019L615.5 228.976C615.5 235.339 610.342 240.497 603.978 240.497L522.022 240.497C515.658 240.497 510.5 235.339 510.5 228.976Z" stroke="#172C51" stroke-width="1.33437" stroke-miterlimit="8" fill="none" fill-rule="evenodd"/><text font-family="Calibri,Calibri_MSFontService,sans-serif" font-weight="700" font-size="14.6779" transform="matrix(1 0 0 0.999989 544.23 230)">Policy</text><path d="M429.5 361.163 409.833 361.163 409.833 242.818 411.167 242.818 411.167 360.496 410.5 359.829 429.5 359.829ZM405.253 250.488 410.5 241.494 415.747 250.488C415.932 250.807 415.825 251.215 415.506 251.401 415.188 251.586 414.78 251.479 414.594 251.161L409.924 243.154 411.076 243.154 406.406 251.161C406.22 251.479 405.812 251.586 405.494 251.401 405.175 251.215 405.068 250.807 405.253 250.488Z" fill="#172C51"/><path d="M562.167 240.497 562.167 361.163 538.821 361.163 538.821 359.829 561.5 359.829 560.833 360.496 560.833 240.497ZM546.491 365.742 537.497 360.496 546.491 355.249C546.809 355.064 547.218 355.171 547.404 355.489 547.589 355.808 547.482 356.216 547.163 356.402L539.157 361.072 539.157 359.92 547.163 364.59C547.482 364.775 547.589 365.184 547.404 365.502 547.218 365.821 546.809 365.928 546.491 365.742Z" fill="#172C51"/><path d="M474.5 112.832 510.179 112.832 510.179 114.166 474.5 114.166ZM502.509 108.252 511.503 113.499 502.509 118.745C502.191 118.931 501.782 118.823 501.596 118.505 501.411 118.187 501.518 117.778 501.837 117.593L509.843 112.922 509.843 114.075 501.837 109.405C501.518 109.219 501.411 108.811 501.596 108.492 501.782 108.174 502.191 108.067 502.509 108.252Z" fill="#172C51"/><text font-family="Yu Gothic,Yu Gothic_MSFontService,sans-serif" font-weight="700" font-size="14.6779" transform="matrix(1 0 0 0.999989 564.953 275)">行動</text><text font-family="Yu Gothic,Yu Gothic_MSFontService,sans-serif" font-weight="700" font-size="14.6779" transform="matrix(1 0 0 0.999989 412.661 198)">状態</text><text font-family="Yu Gothic,Yu Gothic_MSFontService,sans-serif" font-weight="700" font-size="14.6779" transform="matrix(1 0 0 0.999989 548.798 64)">目標</text><path d="M333.5 38.6357C333.5 22.5444 346.545 9.49988 362.636 9.49988L601.364 9.49988C617.455 9.49988 630.5 22.5444 630.5 38.6357L630.5 224.361C630.5 240.453 617.455 253.497 601.364 253.497L362.636 253.497C346.545 253.497 333.5 240.453 333.5 224.361Z" stroke="#172C51" stroke-width="1.33437" stroke-miterlimit="8" fill="none" fill-rule="evenodd"/><path d="M392.5 107.499C392.5 102.528 396.529 98.4989 401.5 98.4989 406.471 98.4989 410.5 102.528 410.5 107.499 410.5 112.469 406.471 116.499 401.5 116.499 396.529 116.499 392.5 112.469 392.5 107.499Z" stroke="#172C51" stroke-width="1.33437" stroke-miterlimit="8" fill="none" fill-rule="evenodd"/><text font-family="Calibri,Calibri_MSFontService,sans-serif" font-weight="700" font-size="14.6779" transform="matrix(1 0 0 0.999989 396.912 112)">X</text><path d="M410.5 136.498C410.5 131.528 414.529 127.499 419.5 127.499 424.471 127.499 428.5 131.528 428.5 136.498 428.5 141.469 424.471 145.498 419.5 145.498 414.529 145.498 410.5 141.469 410.5 136.498Z" stroke="#0070C0" stroke-width="1.33437" stroke-miterlimit="8" fill="none" fill-rule="evenodd"/><text font-family="Calibri,Calibri_MSFontService,sans-serif" font-weight="700" font-size="14.6779" transform="matrix(1 0 0 0.999989 414.903 141)">Y</text><path d="M410.595 137.118 407.655 136.584 404.746 135.041 402.07 132.683 399.698 129.657 397.703 126.095 396.161 122.109 395.832 120.211 397.147 119.983 397.465 121.816 397.43 121.69 398.93 125.569 398.89 125.484 400.837 128.96 400.78 128.874 403.082 131.812 402.998 131.723 405.569 133.988 405.44 133.899 408.189 135.356 407.996 135.289 410.834 135.805ZM392.729 122.01 395.5 113.499 400.647 120.822Z" fill="#FF0000"/><path d="M410.619 106.842 413.559 107.377 416.469 108.92 419.144 111.277 421.517 114.304 423.511 117.866 425.053 121.851 425.382 123.75 424.067 123.977 423.749 122.144 423.785 122.271 422.284 118.391 422.324 118.476 420.378 115.001 420.435 115.086 418.132 112.149 418.216 112.238 415.645 109.973 415.774 110.062 413.025 108.604 413.219 108.671 410.381 108.155ZM428.485 121.95 425.714 130.462 420.568 123.138Z" fill="#FF0000"/><path d="M410.542 137.164 406.906 137.395 406.985 137.386 403.463 138.039 403.538 138.02 400.244 139.036 400.32 139.007 397.369 140.324 397.45 140.281 394.956 141.838 395.05 141.767 393.127 143.506 393.235 143.381 391.998 145.24 392.093 145.019 391.655 146.939 391.663 146.681 391.982 148.601 391.924 148.419 392.825 150.279 392.745 150.151 394.146 151.89 394.06 151.802 395.877 153.36 395.747 153.273 400.297 155.604 400.157 155.552 402.724 156.205 402.617 156.187 405.266 156.418 405.142 156.419 407.791 156.153 407.67 156.176 410.236 155.425 410.132 155.465 412.532 154.297 412.439 154.352 414.589 152.837 414.431 152.994 415.961 150.858 417.046 151.635 415.45 153.863 413.164 155.474 410.665 156.69 407.986 157.474 405.213 157.753 402.447 157.511 399.755 156.826 395.069 154.424 393.145 152.775 391.658 150.929 390.681 148.915 390.325 146.77 390.819 144.603 392.171 142.572 394.199 140.738 396.783 139.124 399.813 137.772 403.182 136.734 406.781 136.066 410.458 135.833ZM412.319 150.702 419.412 145.242 419.524 154.193Z" fill="#FF0000"/><path d="M0.0638856 0.664112-3.30183 0.987884-3.18542 0.966127-6.4454 1.88113-6.34369 1.84343-9.39221 3.26521-9.30089 3.21351-12.0322 5.0576-11.9473 4.98951-14.2557 7.17145-14.1753 7.08025-15.9551 9.51558-15.883 9.39052-17.0284 11.9948-16.9794 11.8256-17.3847 14.5143-17.3806 14.3477-17.1086 17.0364-17.1325 16.9147-16.3636 19.5189-16.4044 19.414-15.2097 21.8493-15.2647 21.7568-13.715 23.9388-13.7858 23.8547-11.9522 25.6988-12.0447 25.6213-9.99816 27.043-10.1215 26.9754-7.93298 27.8904-8.0957 27.8456-5.83623 28.1693-6.02036 28.1686-3.7609 27.8628-3.91647 27.9034-1.72799 27.0391-1.84896 27.1019 0.197568 25.7589 0.104095 25.833 1.93769 24.0911 1.8181 24.2435 3.54308 21.2284 4.70129 21.891 2.92769 24.9911 0.979701 26.8417-1.17416 28.255-3.50167 29.1742-5.93349 29.5034-8.36919 29.1543-10.7014 28.1792-12.8558 26.6826-14.7709 24.7564-16.3838 22.4855-17.6273 19.951-18.4299 17.2328-18.7167 14.3985-18.2856 11.5389-17.0752 8.78686-15.2166 6.24365-12.8241 3.98227-10.0039 2.07816-6.85838 0.611128-3.48877-0.334648-0.0638856-0.664112ZM-0.0972945 21.5925 6.18269 15.2141 7.51746 24.0651Z" fill="#FF0000" transform="matrix(1.83699e-16 1 1.00001 -1.83697e-16 395.5 101.499)"/><text font-family="Calibri,Calibri_MSFontService,sans-serif" font-weight="700" font-size="13.3436" transform="matrix(1 0 0 0.999989 427.042 99)">0.29</text><text font-family="Calibri,Calibri_MSFontService,sans-serif" font-weight="700" font-size="13.3436" transform="matrix(1 0 0 0.999989 426.629 118)">0.72</text><text font-family="Calibri,Calibri_MSFontService,sans-serif" font-weight="700" font-size="13.3436" transform="matrix(1 0 0 0.999989 367.501 134)">0.38</text><text font-family="Calibri,Calibri_MSFontService,sans-serif" font-weight="700" font-size="13.3436" transform="matrix(1 0 0 0.999989 364.974 163)">0.61</text><path d="M347.5 73.6662C347.5 62.5284 356.529 53.4994 367.667 53.4994L453.333 53.4994C464.471 53.4994 473.5 62.5284 473.5 73.6662L473.5 154.331C473.5 165.469 464.471 174.498 453.333 174.498L367.667 174.498C356.529 174.498 347.5 165.469 347.5 154.331Z" stroke="#172C51" stroke-width="1.33437" stroke-miterlimit="8" fill="none" fill-rule="evenodd"/><text font-family="Calibri,Calibri_MSFontService,sans-serif" font-weight="700" font-size="14.6779" transform="matrix(1 0 0 0.999989 370.641 71)">World</text><text font-family="Calibri,Calibri_MSFontService,sans-serif" font-weight="700" font-size="14.6779" transform="matrix(1 0 0 0.999989 411.84 71)">Model</text><path d="M407.833 209.498 407.833 178.819 409.167 178.819 409.167 209.498ZM403.253 186.489 408.5 177.495 413.747 186.489C413.932 186.807 413.825 187.216 413.506 187.401 413.188 187.587 412.78 187.48 412.594 187.161L407.924 179.155 409.076 179.155 404.406 187.161C404.22 187.48 403.812 187.587 403.494 187.401 403.175 187.216 403.068 186.807 403.253 186.489Z" fill="#172C51"/><path d="M42.899 228.633 41.01 216.896 40.0889 205.189 40.1416 193.696 41.1483 182.446 43.088 171.467 45.9388 160.789 49.6778 150.438 54.2814 140.445 59.725 130.835 65.9839 121.635 73.0333 112.87 80.8482 104.566 89.4042 96.7459 98.6768 89.4335 108.642 82.6518 119.277 76.4237 130.558 70.7716 142.463 65.7183 154.969 61.2863 168.053 57.4981 181.694 54.3765 195.87 51.9441 210.558 50.2238 225.738 49.2386 241.387 49.0113 257.485 49.565 274.009 50.9229 290.937 53.1082 308.25 56.144 325.924 60.0536 343.938 64.8603 354.628 68.1996 352.241 75.8416 341.631 72.5274 341.793 72.5741 323.943 67.8113 324.11 67.8521 306.607 63.9802 306.78 64.0145 289.644 61.0096 289.823 61.0368 273.076 58.8751 273.26 58.8946 256.924 57.5521 257.114 57.5632 241.21 57.016 241.406 57.018 225.955 57.2424 226.156 57.2344 211.18 58.2064 211.387 58.1877 196.907 59.8835 197.118 59.853 183.156 62.2486 183.372 62.2054 169.95 65.2771 170.17 65.2201 157.308 68.9439 157.532 68.8718 145.252 73.2239 145.479 73.1356 133.803 78.092 134.032 77.9861 122.981 83.523 123.21 83.3983 112.805 89.4919 113.035 89.347 103.297 95.9733 103.524 95.8071 94.4762 102.942 94.6981 102.754 86.3609 110.374 86.5754 110.162 78.9703 118.244 79.1745 118.009 72.323 126.528 72.5134 126.27 66.437 135.202 66.6103 134.923 61.3303 144.245 61.483 143.946 57.0209 153.633 57.15 153.319 53.5271 163.347 53.6298 163.02 50.8677 173.366 50.9421 173.03 49.0622 183.67 49.1074 183.331 48.1311 194.241 48.147 193.903 48.0958 205.059 48.0835 204.727 48.9788 216.106 48.9403 215.784 50.8035 227.361ZM337.642 48.7864 361.018 74.3895 327.225 82.1341C325.07 82.628 322.922 81.2814 322.429 79.1264 321.935 76.9715 323.281 74.8241 325.436 74.3303L352.54 68.1187 350.478 74.7196 331.73 54.1844C330.239 52.5517 330.354 50.0197 331.987 48.5291 333.62 47.0385 336.152 47.1537 337.642 48.7864Z" fill="#FF0000" fill-opacity="0.101961"/><path d="M305.479 289.028 338.404 284.706 370.146 280.708 370.086 280.716 400.595 276.408 400.495 276.424 415.279 273.955 415.182 273.973 429.645 271.189 429.524 271.214 443.662 268.036 443.517 268.072 457.326 264.42 457.156 264.469 470.63 260.264 470.439 260.329 483.574 255.492 483.364 255.576 496.154 250.028 495.929 250.134 508.37 243.796 508.136 243.924 520.223 236.716 519.987 236.868 525.207 233.237 529.779 239.81 524.444 243.521 512.123 250.869 499.453 257.324 486.446 262.966 473.112 267.877 459.458 272.138 445.491 275.831 431.219 279.039 416.646 281.844 401.764 284.329 371.176 288.648 339.415 292.648 339.436 292.646 306.521 296.966ZM499.456 234.746 534.015 231.987 519.406 263.427C518.475 265.432 516.094 266.302 514.089 265.371 512.084 264.439 511.214 262.058 512.146 260.053L523.863 234.837 527.812 240.514 500.093 242.727C497.89 242.903 495.96 241.259 495.784 239.055 495.608 236.851 497.252 234.922 499.456 234.746Z" fill="#FF0000" fill-opacity="0.101961"/><text font-family="Yu Gothic,Yu Gothic_MSFontService,sans-serif" font-weight="700" font-size="14.6779" transform="matrix(1 0 0 0.999989 375.545 274)">観測</text><path d="M511.5 108.709C511.5 100.861 517.862 94.499 525.71 94.499L602.29 94.499C610.138 94.499 616.5 100.861 616.5 108.709L616.5 117.288C616.5 125.136 610.138 131.499 602.29 131.499L525.71 131.499C517.862 131.499 511.5 125.136 511.5 117.288Z" stroke="#172C51" stroke-width="1.33437" stroke-miterlimit="8" fill="none" fill-rule="evenodd"/><text font-family="Yu Gothic,Yu Gothic_MSFontService,sans-serif" font-weight="700" font-size="14.6779" transform="matrix(1 0 0 0.999989 534.303 118)">報酬関数</text><path d="M347.5 221.403C347.5 214.828 352.83 209.498 359.406 209.498L467.594 209.498C474.17 209.498 479.5 214.828 479.5 221.403L479.5 228.592C479.5 235.167 474.17 240.497 467.594 240.497L359.406 240.497C352.83 240.497 347.5 235.167 347.5 228.592Z" stroke="#172C51" stroke-width="1.33437" stroke-miterlimit="8" fill="none" fill-rule="evenodd"/><text font-family="Yu Gothic,Yu Gothic_MSFontService,sans-serif" font-weight="700" font-size="14.6779" transform="matrix(1 0 0 0.999989 383.713 229)">特徴抽出</text><path d="M562.833 93.178 562.833 63.4993 564.167 63.4993 564.167 93.178ZM568.747 85.508 563.5 94.5021 558.253 85.508C558.068 85.1897 558.175 84.7812 558.494 84.5955 558.812 84.4099 559.22 84.5174 559.406 84.8357L564.076 92.8418 562.924 92.8418 567.594 84.8357C567.78 84.5174 568.188 84.4099 568.506 84.5955 568.825 84.7812 568.932 85.1897 568.747 85.508Z" fill="#172C51"/><text font-family="Yu Gothic,Yu Gothic_MSFontService,sans-serif" font-weight="700" font-size="14.6779" transform="matrix(1 0 0 0.999989 477.672 102)">計画</text><path d="M561.833 207.177 561.833 131.499 563.167 131.499 563.167 207.177ZM567.747 199.507 562.5 208.501 557.253 199.507C557.068 199.188 557.175 198.78 557.494 198.594 557.812 198.409 558.22 198.516 558.406 198.834L563.076 206.84 561.924 206.84 566.594 198.834C566.78 198.516 567.188 198.409 567.506 198.594 567.825 198.78 567.932 199.188 567.747 199.507Z" fill="#172C51"/><path d="M334.168 42.4995 333.501 24.5778C333.39 16.4229 341.621 9.40598 350.186 9.50077L609.477 9.50077C623.603 10.2594 629.388 16.7074 629.833 23.7244L630.5 41.6461 334.168 42.4995Z" stroke="#172C51" stroke-width="1.33437" stroke-miterlimit="8" fill="#BDD7EE" fill-rule="evenodd"/><text font-family="Yu Gothic,Yu Gothic_MSFontService,sans-serif" font-weight="700" font-size="14.6779" transform="matrix(1 0 0 0.999989 437.178 31)">エージェント</text><path d="M3.45867-2.01547 9.34087 8.07873 9.15631 7.79101 15.6349 17.0006 15.4205 16.7227 22.4646 25.0727 22.2236 24.8115 29.8023 32.3271 29.5396 32.0888 37.6222 38.7949 37.3443 38.5841 45.8998 44.5058 45.6137 44.3252 54.6112 49.4875 54.3237 49.3376 63.7325 53.7656 63.4495 53.6455 73.2387 57.3641 72.9649 57.2713 83.1036 60.3057 82.8425 60.237 93.2999 62.6122 93.0536 62.5643 103.799 64.3053 103.568 64.2748 114.57 65.4066 114.356 65.3904 125.584 65.9381 125.385 65.9333 136.809 65.922 136.625 65.9264 148.213 65.381 148.042 65.3927 159.764 64.3383 159.606 64.3557 171.431 62.8174 171.284 62.8392 183.18 60.8419 183.044 60.8672 194.982 58.4361 194.855 58.4641 206.802 55.6241 206.683 55.6543 218.61 52.4305 218.446 52.4788 242.114 44.98 241.913 45.0494 265.128 36.316 264.944 36.3903 287.459 26.6224 287.287 26.7023 308.855 16.1003 308.688 16.1874 322.122 8.77902 325.989 15.7898 312.472 23.2437 290.733 33.9293 268.04 43.7745 244.633 52.5802 220.782 60.1369 208.713 63.399 196.643 66.2682 184.574 68.7261 172.537 70.747 160.56 72.3052 148.674 73.3743 136.909 73.928 125.294 73.9396 113.858 73.3817 102.633 72.227 91.6491 70.4473 80.9375 68.0144 70.5308 64.8998 60.4626 61.0751 50.7677 56.5126 41.4825 51.1852 32.6443 45.0678 24.2908 38.1369 16.4598 30.3711 9.18772 21.7507 2.50965 12.2575-3.45867 2.01547ZM296.354 7.61192 331.012 8.44803 313.225 38.2055C312.09 40.1032 309.633 40.722 307.735 39.5877 305.837 38.4533 305.218 35.9954 306.353 34.0978L320.62 10.2305 323.959 16.2863 296.161 15.6157C293.951 15.5624 292.202 13.7275 292.255 11.5173 292.309 9.30709 294.144 7.5586 296.354 7.61192Z" fill="#FF0000" fill-opacity="0.101961" transform="matrix(1.00001 0 0 -1 212 89.9989)"/><text font-family="Yu Gothic,Yu Gothic_MSFontService,sans-serif" font-weight="700" font-size="14.6779" transform="matrix(1 0 0 0.999989 565.859 176)">報酬</text><path d="M478.5 225.83 514.179 225.83 514.179 227.165 478.5 227.165ZM506.509 221.251 515.503 226.497 506.509 231.744C506.191 231.93 505.782 231.822 505.596 231.504 505.411 231.186 505.518 230.777 505.837 230.591L513.843 225.921 513.843 227.074 505.837 222.404C505.518 222.218 505.411 221.809 505.596 221.491 505.782 221.173 506.191 221.065 506.509 221.251Z" fill="#172C51"/><text font-family="Yu Gothic,Yu Gothic_MSFontService,sans-serif" font-weight="700" font-size="14.6779" transform="matrix(1 0 0 0.999989 481.046 215)">状態</text><path d="M464.941 208.134 516.221 129.243 517.34 129.97 466.059 208.861ZM508.201 133.178 517.502 128.496 516.999 138.896C516.981 139.264 516.668 139.548 516.3 139.53 515.932 139.513 515.648 139.2 515.666 138.832L516.114 129.574 517.08 130.202 508.801 134.37C508.472 134.535 508.071 134.403 507.905 134.074 507.739 133.744 507.872 133.343 508.201 133.178Z" fill="#172C51"/><text font-family="Yu Gothic,Yu Gothic_MSFontService,sans-serif" font-weight="700" font-size="14.6779" transform="matrix(1 0 0 0.999989 501.37 174)">状態</text></g></svg>