<svg width="662" height="397" xmlns="http://www.w3.org/2000/svg" xmlns:xlink="http://www.w3.org/1999/xlink" overflow="hidden"><defs><clipPath id="clip0"><rect x="0" y="0" width="662" height="397"/></clipPath></defs><g clip-path="url(#clip0)"><rect x="0" y="0" width="662" height="396.867" fill="#FFFFFF"/><text font-family="Calibri,Calibri_MSFontService,sans-serif" font-weight="700" font-size="14.6728" transform="matrix(1 0 0 0.999664 171.655 110)">Goal</text><text font-family="Calibri,Calibri_MSFontService,sans-serif" font-weight="700" font-size="14.6728" transform="matrix(1 0 0 0.999664 157.724 127)">(Reward)</text><text font-family="Calibri,Calibri_MSFontService,sans-serif" font-weight="700" font-size="14.6728" transform="matrix(1 0 0 0.999664 69.1044 304)">Planning</text><text font-family="Calibri,Calibri_MSFontService,sans-serif" font-weight="700" font-size="14.6728" transform="matrix(1 0 0 0.999664 259.109 305)">Policy</text><path d="M186.5 137.454 99.5 285.404" stroke="#00B050" stroke-width="1.33434" stroke-miterlimit="8" fill="none" fill-rule="evenodd"/><path d="M142.829 211.848 266.022 281.539 265.365 282.7 142.171 213.009ZM266.504 277.98 271.5 285.404 262.561 284.945Z" fill="#00B050"/><path d="M84.9714 0 0 148.95" stroke="#0070C0" stroke-width="1.33389" stroke-miterlimit="8" fill="none" fill-rule="evenodd" transform="matrix(-1.00034 0 0 1 271.5 137.454)"/><path d="M0.326553-0.581533 124.468 69.1285 123.814 70.2915-0.326553 0.581533ZM124.937 65.5677 129.956 72.9755 121.019 72.5461Z" fill="#0070C0" transform="matrix(-1.00034 0 0 1 229.5 212.429)"/><path d="M185.833 286.404 185.833 144.123 187.167 144.123 187.167 286.404ZM182.497 145.457 186.5 137.454 190.503 145.457Z" fill="#FF0000"/><text fill="#FF0000" font-family="Yu Gothic,Yu Gothic_MSFontService,sans-serif" font-weight="700" font-size="14.6728" transform="matrix(1 0 0 0.999664 150.197 303)">逆強化学習</text><text fill="#00B050" font-family="Yu Gothic,Yu Gothic_MSFontService,sans-serif" font-weight="700" font-size="14.6728" transform="matrix(0.5 -0.865444 0.866316 0.499832 121.79 236)">強化学習</text><path d="M101.5 285.404 271.5 285.404" stroke="#FF0000" stroke-width="1.33434" stroke-miterlimit="8" fill="none" fill-rule="evenodd"/><text fill="#0070C0" font-family="Yu Gothic,Yu Gothic_MSFontService,sans-serif" font-weight="700" font-size="14.6728" transform="matrix(0.5 0.865444 -0.866316 0.499832 208.944 165)">この論文の結果</text><path d="M14.8125 249.044C13.87 242.527 18.7231 236.525 25.6523 235.639 28.46 235.279 31.3148 235.816 33.7597 237.164 36.3503 232.571 42.4042 230.825 47.2813 233.265 48.1341 233.691 48.9168 234.232 49.605 234.87 51.6227 231.063 56.5373 229.516 60.5821 231.415 61.7016 231.941 62.6782 232.701 63.4368 233.637 66.6889 230.037 72.4355 229.592 76.2723 232.644 77.8848 233.927 78.9717 235.696 79.3464 237.648 84.6749 239.016 87.8184 244.196 86.3675 249.218 86.2455 249.64 86.0925 250.054 85.9095 250.456 90.183 255.689 89.1368 263.19 83.5728 267.21 81.8408 268.461 79.7951 269.271 77.6332 269.562 77.5851 275.192 72.69 279.719 66.6996 279.674 64.6982 279.659 62.7403 279.124 61.0425 278.128 59.0164 284.44 51.949 288.007 45.2571 286.096 42.4526 285.295 40.0294 283.601 38.4009 281.304 31.5492 285.191 22.656 283.1 18.5373 276.633 18.4854 276.551 18.4344 276.469 18.3843 276.387 13.9002 276.881 9.83839 273.871 9.31209 269.664 9.03156 267.422 9.81841 265.178 11.4629 263.53 7.58033 261.379 6.27609 256.66 8.54983 252.989 9.86159 250.87 12.1622 249.47 14.7443 249.218Z" stroke="#172C51" stroke-width="1.33434" stroke-miterlimit="8" fill="none" fill-rule="evenodd"/><path d="M94.04 281.065C94.04 281.924 93.3436 282.62 92.4845 282.62 91.6254 282.62 90.929 281.924 90.929 281.065 90.929 280.207 91.6254 279.51 92.4845 279.51 93.3436 279.51 94.04 280.207 94.04 281.065Z" stroke="#172C51" stroke-width="1.33434" stroke-miterlimit="8" fill="none" fill-rule="evenodd"/><path d="M92.5599 279.52C92.5599 281.237 91.167 282.63 89.4488 282.63 87.7306 282.63 86.3377 281.237 86.3377 279.52 86.3377 277.802 87.7306 276.41 89.4488 276.41 91.167 276.41 92.5599 277.802 92.5599 279.52Z" stroke="#172C51" stroke-width="1.33434" stroke-miterlimit="8" fill="none" fill-rule="evenodd"/><path d="M88.3078 276.562C88.3078 279.139 86.2185 281.227 83.6412 281.227 81.0639 281.227 78.9745 279.139 78.9745 276.562 78.9745 273.986 81.0639 271.897 83.6412 271.897 86.2185 271.897 88.3078 273.986 88.3078 276.562Z" stroke="#172C51" stroke-width="1.33434" stroke-miterlimit="8" fill="none" fill-rule="evenodd"/><path d="M16.2994 264.344C14.6419 264.466 12.9845 264.106 11.5498 263.312M20.49 275.647C19.8235 275.896 19.1248 276.063 18.412 276.141M38.3963 281.078C37.8949 280.37 37.4752 279.615 37.1442 278.823M61.5507 275.455C61.4769 276.294 61.3093 277.123 61.0507 277.929M71.4919 260.168C75.2501 261.888 77.6218 265.486 77.5883 269.415M85.8713 250.319C85.2626 251.657 84.3335 252.844 83.1567 253.787M79.3575 237.454C79.4612 237.994 79.5092 238.543 79.5008 239.091M62.0213 235.544C62.375 234.788 62.8434 234.085 63.4119 233.456M49.0144 236.539C49.1587 235.915 49.385 235.31 49.688 234.738M33.75 237.151C34.6347 237.638 35.4531 238.225 36.1873 238.898M15.2382 250.883C15.0451 250.282 14.9028 249.667 14.8128 249.045" stroke="#172C51" stroke-width="1.33434" stroke-miterlimit="8" fill="none" fill-rule="evenodd"/><text font-family="Calibri,Calibri_MSFontService,sans-serif" font-weight="700" font-size="14.6728" transform="matrix(1 0 0 0.999664 25.5149 253)">World</text><text font-family="Calibri,Calibri_MSFontService,sans-serif" font-weight="700" font-size="14.6728" transform="matrix(1 0 0 0.999664 24.6809 270)">Model</text><path d="M503.5 312.895C503.5 307.65 507.753 303.398 513 303.398 518.247 303.398 522.5 307.65 522.5 312.895 522.5 318.14 518.247 322.392 513 322.392 507.753 322.392 503.5 318.14 503.5 312.895Z" stroke="#172C51" stroke-width="1.33434" stroke-miterlimit="8" fill="none" fill-rule="evenodd"/><text font-family="Calibri,Calibri_MSFontService,sans-serif" font-weight="700" font-size="14.6728" transform="matrix(1 0 0 0.999664 508.141 317)">X</text><path d="M522.5 344.884C522.5 339.639 526.753 335.387 532 335.387 537.247 335.387 541.5 339.639 541.5 344.884 541.5 350.129 537.247 354.381 532 354.381 526.753 354.381 522.5 350.129 522.5 344.884Z" stroke="#0070C0" stroke-width="1.33434" stroke-miterlimit="8" fill="none" fill-rule="evenodd"/><text font-family="Calibri,Calibri_MSFontService,sans-serif" font-weight="700" font-size="14.6728" transform="matrix(1 0 0 0.999664 527.523 349)">Y</text><path d="M521.779 345.271 518.617 344.685 515.492 342.997 512.616 340.415 510.065 337.099 507.92 333.196 506.264 328.834 505.764 326.119 507.077 325.878 507.566 328.533 507.533 328.417 509.151 332.679 509.112 332.594 511.21 336.412 511.154 336.327 513.637 339.553 513.554 339.464 516.324 341.951 516.196 341.861 519.159 343.462 518.963 343.393 522.022 343.959ZM502.64 327.872 505.5 319.393 510.569 326.768Z" fill="#FF0000"/><path d="M522.622 311.739 525.784 312.325 528.909 314.014 531.784 316.595 534.336 319.911 536.481 323.815 538.136 328.176 538.636 330.891 537.324 331.132 536.835 328.477 536.867 328.593 535.25 324.332 535.289 324.416 533.191 320.598 533.247 320.684 530.764 317.457 530.847 317.547 528.076 315.059 528.205 315.149 525.242 313.548 525.438 313.617 522.379 313.051ZM541.761 329.139 538.901 337.617 533.831 330.243Z" fill="#FF0000"/><path d="M522.543 345.05 518.623 345.304 518.704 345.294 514.907 346.011 514.983 345.992 511.433 347.107 511.509 347.078 508.328 348.524 508.41 348.48 505.721 350.191 505.815 350.119 503.742 352.029 503.849 351.903 502.515 353.945 502.607 353.726 502.135 355.835 502.143 355.582 502.487 357.69 502.431 357.511 503.402 359.554 503.323 359.427 504.834 361.336 504.749 361.248 506.708 362.959 506.622 362.895 508.94 364.342 508.851 364.295 511.438 365.41 511.341 365.377 514.107 366.094 513.999 366.076 516.855 366.33 516.728 366.33 519.584 366.038 519.461 366.063 522.227 365.237 522.122 365.279 524.708 363.996 524.616 364.052 526.933 362.388 526.789 362.529 528.915 359.704 529.981 360.506 527.794 363.412 525.35 365.167 522.663 366.499 519.782 367.359 516.8 367.664 513.826 367.399 510.956 366.655 508.276 365.5 505.87 363.999 503.825 362.212 502.23 360.195 501.185 357.999 500.805 355.669 501.332 353.317 502.777 351.104 504.955 349.098 507.733 347.329 510.994 345.847 514.621 344.708 518.496 343.975 522.457 343.719ZM525.245 359.733 532.107 353.988 532.587 362.924Z" fill="#FF0000"/><path d="M0.0626664 0.663996-3.63424 1.0129-3.51984 0.991918-7.10062 1.97796-7.00018 1.94142-10.3487 3.47357-10.2579 3.42312-13.258 5.41037-13.1728 5.34338-15.7084 7.6947-15.627 7.60408-17.5819 10.2285-17.5082 10.1029-18.7663 12.9093-18.7157 12.7377-19.1609 15.6352-19.1566 15.4655-18.8578 18.3629-18.8826 18.2391-18.038 21.0455-18.0801 20.9394-16.7677 23.5638-16.824 23.471-15.1218 25.8223-15.1936 25.7387-13.1796 27.7259-13.2724 27.6496-11.0245 29.1817-11.147 29.1158-8.74318 30.1018-8.90344 30.0584-6.42164 30.4073-6.60228 30.4066-4.12048 30.0771-4.27364 30.1163-1.8698 29.1849-1.98988 29.2461 0.258037 27.7989 0.164346 27.8717 2.17837 25.9947 2.10374 26.0769 3.80592 23.8559 3.70348 24.048 4.20705 22.5588 5.47065 22.9861 4.93174 24.5798 3.12857 26.9325 1.0302 28.8882-1.32475 30.4043-3.86597 31.3889-6.51706 31.7409-9.17199 31.3677-11.718 30.3233-14.0735 28.7178-16.1699 26.6493-17.9364 24.2091-19.2988 21.4848-20.1781 18.5628-20.4923 15.5172-20.0204 12.446-18.6954 9.49037-16.6602 6.7582-14.0399 4.32834-10.9511 2.2823-7.50644 0.706163-3.81769-0.309605-0.0626664-0.663996ZM0.621994 22.8766 6.79109 16.3951 8.27481 25.2193Z" fill="#FF0000" transform="matrix(1.83759e-16 1 1.00034 -1.83697e-16 505.5 305.397)"/><text font-family="Calibri,Calibri_MSFontService,sans-serif" font-weight="700" font-size="13.3389" transform="matrix(1 0 0 0.999664 539.559 302)">0.3</text><text font-family="Calibri,Calibri_MSFontService,sans-serif" font-weight="700" font-size="13.3389" transform="matrix(1 0 0 0.999664 538.225 324)">0.7</text><text font-family="Calibri,Calibri_MSFontService,sans-serif" font-weight="700" font-size="13.3389" transform="matrix(1 0 0 0.999664 486.05 341)">0.4</text><text font-family="Calibri,Calibri_MSFontService,sans-serif" font-weight="700" font-size="13.3389" transform="matrix(1 0 0 0.999664 481.546 372)">0.6</text><path d="M463.5 253.082C463.5 243.328 471.41 235.421 481.167 235.421L551.833 235.421C561.59 235.421 569.5 243.328 569.5 253.082L569.5 372.708C569.5 382.462 561.59 390.369 551.833 390.369L481.167 390.369C471.41 390.369 463.5 382.462 463.5 372.708Z" stroke="#172C51" stroke-width="1.33434" stroke-miterlimit="8" fill="none" fill-rule="evenodd"/><path d="M463.537 253.632C463.537 243.574 471.915 235.421 482.25 235.421L550.788 235.421C561.122 235.421 569.5 243.574 569.5 253.632L569.5 253.632C569.5 263.69 569.384 266.628 569.098 271.192L463.85 271.409C463.34 268.584 463.537 263.69 463.537 253.632L463.537 253.632Z" stroke="#172C51" stroke-width="1.33434" stroke-miterlimit="8" fill="#BDD7EE" fill-rule="evenodd"/><text font-family="Yu Gothic,Yu Gothic_MSFontService,sans-serif" font-weight="700" font-size="14.6728" transform="matrix(1 0 0 0.999664 501.094 258)">環境</text><path d="M463.5 173.652C463.5 165.806 469.862 159.446 477.71 159.446L555.29 159.446C563.138 159.446 569.5 165.806 569.5 173.652L569.5 182.229C569.5 190.074 563.138 196.434 555.29 196.434L477.71 196.434C469.862 196.434 463.5 190.074 463.5 182.229Z" stroke="#172C51" stroke-width="1.33434" stroke-miterlimit="8" fill="#FBE5D6" fill-rule="evenodd"/><text font-family="Yu Gothic,Yu Gothic_MSFontService,sans-serif" font-weight="700" font-size="14.6728" transform="matrix(1 0 0 0.999664 471.757 174)">エージェント</text><text font-family="Calibri,Calibri_MSFontService,sans-serif" font-weight="700" font-size="14.6728" transform="matrix(1 0 0 0.999664 493.186 191)">(Policy)</text><path d="M492.5 43.9852C492.5 38.7403 496.977 34.4884 502.5 34.4884 508.023 34.4884 512.5 38.7403 512.5 43.9852 512.5 49.2302 508.023 53.4821 502.5 53.4821 496.977 53.4821 492.5 49.2302 492.5 43.9852Z" stroke="#172C51" stroke-width="1.33434" stroke-miterlimit="8" fill="none" fill-rule="evenodd"/><text font-family="Calibri,Calibri_MSFontService,sans-serif" font-weight="700" font-size="14.6728" transform="matrix(1 0 0 0.999664 497.911 49)">X</text><path d="M512.5 75.9745C512.5 70.7295 516.753 66.4777 522 66.4777 527.247 66.4777 531.5 70.7295 531.5 75.9745 531.5 81.2194 527.247 85.4713 522 85.4713 516.753 85.4713 512.5 81.2194 512.5 75.9745Z" stroke="#0070C0" stroke-width="1.33434" stroke-miterlimit="8" fill="none" fill-rule="evenodd"/><text font-family="Calibri,Calibri_MSFontService,sans-serif" font-weight="700" font-size="14.6728" transform="matrix(1 0 0 0.999664 517.293 81)">Y</text><path d="M511.779 77.3609 508.617 76.7752 505.492 75.0866 502.616 72.505 500.065 69.1891 497.92 65.2855 496.264 60.9242 495.764 58.2091 497.077 57.9677 497.566 60.6233 497.533 60.5074 499.151 64.7686 499.112 64.6841 501.21 68.5019 501.154 68.4165 503.637 71.6432 503.554 71.5536 506.324 74.0413 506.196 73.9508 509.159 75.5518 508.963 75.4828 512.022 76.0493ZM492.64 59.9616 495.5 51.4827 500.569 58.8575Z" fill="#FF0000"/><path d="M512.622 43.8292 515.784 44.4149 518.909 46.1035 521.784 48.6851 524.336 52.001 526.481 55.9046 528.136 60.2659 528.636 62.981 527.324 63.2224 526.835 60.5668 526.867 60.6827 525.25 56.4215 525.289 56.506 523.191 52.6881 523.247 52.7736 520.764 49.5469 520.847 49.6365 518.076 47.1488 518.205 47.2393 515.242 45.6383 515.438 45.7073 512.379 45.1408ZM531.761 61.2285 528.901 69.7074 523.831 62.3326Z" fill="#FF0000"/><path d="M512.543 77.1399 508.623 77.3938 508.704 77.3836 504.907 78.1012 504.983 78.0821 501.433 79.1971 501.509 79.1679 498.328 80.6142 498.41 80.5696 495.721 82.2808 495.815 82.2086 493.742 84.1185 493.849 83.9927 492.515 86.0351 492.607 85.8161 492.135 87.9247 492.143 87.6718 492.487 89.7804 492.431 89.6012 493.402 91.6435 493.323 91.5164 494.834 93.4263 494.749 93.3377 496.708 95.0489 496.622 94.9853 498.94 96.4315 498.851 96.3849 501.438 97.4999 501.341 97.4668 504.107 98.1844 503.999 98.1656 506.855 98.4195 506.728 98.4203 509.584 98.1282 509.461 98.1526 512.227 97.3271 512.122 97.3687 514.708 96.0859 514.616 96.1417 516.933 94.4779 516.789 94.6187 518.915 91.7941 519.981 92.5959 517.794 95.5019 515.35 97.2568 512.663 98.589 509.782 99.4488 506.8 99.7538 503.826 99.4893 500.956 98.745 498.276 97.5898 495.87 96.0885 493.825 94.3017 492.23 92.2846 491.185 90.0886 490.805 87.7592 491.332 85.407 492.777 83.194 494.955 81.1875 497.733 79.4193 500.994 77.9368 504.621 76.7978 508.496 76.0653 512.457 75.8088ZM515.245 91.8231 522.107 86.0783 522.587 95.0135Z" fill="#FF0000"/><path d="M0.0626664 0.663996-3.63424 1.0129-3.51984 0.991918-7.10062 1.97796-7.00018 1.94142-10.3487 3.47357-10.2579 3.42312-13.258 5.41037-13.1728 5.34338-15.7084 7.6947-15.627 7.60408-17.5819 10.2285-17.5082 10.1029-18.7663 12.9093-18.7157 12.7377-19.1609 15.6352-19.1566 15.4655-18.8578 18.3629-18.8826 18.2391-18.038 21.0455-18.0801 20.9394-16.7677 23.5638-16.824 23.471-15.1218 25.8223-15.1936 25.7387-13.1796 27.7259-13.2724 27.6496-11.0245 29.1817-11.147 29.1158-8.74318 30.1018-8.90344 30.0584-6.42164 30.4073-6.60228 30.4066-4.12048 30.0771-4.27364 30.1163-1.8698 29.1849-1.98988 29.2461 0.258037 27.7989 0.164346 27.8717 2.17837 25.9947 2.10374 26.0769 3.80592 23.8559 3.70348 24.048 4.20705 22.5588 5.47065 22.9861 4.93174 24.5798 3.12857 26.9325 1.0302 28.8882-1.32475 30.4043-3.86597 31.3889-6.51706 31.7409-9.17199 31.3677-11.718 30.3233-14.0735 28.7178-16.1699 26.6493-17.9364 24.2091-19.2988 21.4848-20.1781 18.5628-20.4923 15.5172-20.0204 12.446-18.6954 9.49037-16.6602 6.7582-14.0399 4.32834-10.9511 2.2823-7.50644 0.706163-3.81769-0.309605-0.0626664-0.663996ZM0.621994 22.8766 6.79109 16.3951 8.27481 25.2193Z" fill="#FF0000" transform="matrix(1.83759e-16 1 1.00034 -1.83697e-16 495.5 37.4874)"/><text font-family="Calibri,Calibri_MSFontService,sans-serif" font-weight="700" font-size="13.3389" transform="matrix(1 0 0 0.999664 529.329 33)">0.29</text><text font-family="Calibri,Calibri_MSFontService,sans-serif" font-weight="700" font-size="13.3389" transform="matrix(1 0 0 0.999664 528.885 54)">0.72</text><text font-family="Calibri,Calibri_MSFontService,sans-serif" font-weight="700" font-size="13.3389" transform="matrix(1 0 0 0.999664 465.145 72)">0.38</text><text font-family="Calibri,Calibri_MSFontService,sans-serif" font-weight="700" font-size="13.3389" transform="matrix(1 0 0 0.999664 462.421 104)">0.61</text><path d="M461.5 256.081 422.833 256.081 422.833 179.772 460.179 179.772 460.179 181.106 423.5 181.106 424.167 180.439 424.167 255.414 423.5 254.747 461.5 254.747ZM452.509 175.195 461.503 180.439 452.509 185.684C452.191 185.87 451.782 185.762 451.597 185.444 451.411 185.126 451.518 184.718 451.837 184.532L459.843 179.863 459.843 181.016 451.837 176.347C451.518 176.161 451.411 175.753 451.597 175.435 451.782 175.117 452.191 175.009 452.509 175.195Z" fill="#172C51"/><path d="M568.5 174.774 612.167 174.774 612.167 328.057 569.821 328.057 569.821 326.723 611.5 326.723 610.833 327.39 610.833 175.441 611.5 176.108 568.5 176.108ZM577.491 332.635 568.497 327.39 577.491 322.145C577.809 321.96 578.218 322.067 578.403 322.385 578.589 322.704 578.482 323.112 578.163 323.297L570.157 327.966 570.157 326.814 578.163 331.483C578.482 331.668 578.589 332.077 578.403 332.395 578.218 332.713 577.809 332.82 577.491 332.635Z" fill="#172C51"/><path d="M423.5 162.778 460.179 162.778 460.179 164.112 423.5 164.112ZM452.509 158.2 461.503 163.445 452.509 168.69C452.191 168.875 451.782 168.768 451.597 168.45 451.411 168.132 451.518 167.723 451.837 167.538L459.843 162.869 459.843 164.021 451.837 159.353C451.518 159.167 451.411 158.759 451.597 158.44 451.782 158.122 452.191 158.015 452.509 158.2Z" fill="#172C51"/><text font-family="Yu Gothic,Yu Gothic_MSFontService,sans-serif" font-weight="700" font-size="14.6728" transform="matrix(1 0 0 0.999664 616.396 260)">行動</text><text font-family="Yu Gothic,Yu Gothic_MSFontService,sans-serif" font-weight="700" font-size="14.6728" transform="matrix(1 0 0 0.999664 384.051 224)">状態</text><text font-family="Yu Gothic,Yu Gothic_MSFontService,sans-serif" font-weight="700" font-size="14.6728" transform="matrix(1 0 0 0.999664 349.925 168)">目標</text><text font-family="Calibri,Calibri_MSFontService,sans-serif" font-weight="700" font-size="14.6728" transform="matrix(1 0 0 0.999664 379.281 168)">(</text><text font-family="Yu Gothic,Yu Gothic_MSFontService,sans-serif" font-weight="700" font-size="14.6728" transform="matrix(1 0 0 0.999664 383.784 168)">報酬</text><text font-family="Calibri,Calibri_MSFontService,sans-serif" font-weight="700" font-size="14.6728" transform="matrix(1 0 0 0.999664 413.139 168)">)</text><path d="M444.5 25.1586C444.5 14.8525 452.858 6.49785 463.167 6.49785L561.833 6.49785C572.142 6.49785 580.5 14.8525 580.5 25.1586L580.5 99.7995C580.5 110.106 572.142 118.46 561.833 118.46L463.167 118.46C452.858 118.46 444.5 110.106 444.5 99.7995Z" stroke="#172C51" stroke-width="1.33434" stroke-miterlimit="8" stroke-dasharray="5.33736 4.00302" fill="none" fill-rule="evenodd"/><path d="M444.5 158.926C444.5 151.484 450.535 145.451 457.979 145.451L567.021 145.451C574.465 145.451 580.5 151.484 580.5 158.926L580.5 196.955C580.5 204.397 574.465 210.429 567.021 210.429L457.979 210.429C450.535 210.429 444.5 204.397 444.5 196.955Z" stroke="#172C51" stroke-width="1.33434" stroke-miterlimit="8" stroke-dasharray="5.33736 4.00302" fill="none" fill-rule="evenodd"/><text font-family="Calibri,Calibri_MSFontService,sans-serif" font-weight="700" font-size="14.6728" transform="matrix(1 0 0 0.999664 398.103 62)">World</text><text font-family="Calibri,Calibri_MSFontService,sans-serif" font-weight="700" font-size="14.6728" transform="matrix(1 0 0 0.999664 396.435 79)">Model</text><path d="M511.833 144.452 511.833 139.116 513.167 139.116 513.167 144.452ZM511.833 135.114 511.833 129.779 513.167 129.779 513.167 135.114ZM511.833 125.777 511.833 120.441 513.167 120.441 513.167 125.777ZM511.833 116.44 511.833 114.782 513.167 114.782 513.167 116.44ZM507.254 122.45 512.5 113.459 517.747 122.45C517.932 122.768 517.825 123.176 517.506 123.362 517.188 123.548 516.78 123.44 516.594 123.122L511.924 115.119 513.076 115.119 508.406 123.122C508.22 123.44 507.812 123.548 507.494 123.362 507.175 123.176 507.068 122.768 507.254 122.45Z" fill="#172C51"/><path d="M220.621 102.284 230.109 98.8046 239.886 96.4433 249.678 95.2035 259.428 95.0046 269.085 95.7636 278.601 97.3967 287.933 99.8208 297.038 102.954 305.877 106.717 314.409 111.031 322.596 115.819 330.397 121.004 337.773 126.513 344.684 132.271 351.09 138.205 351.354 138.477 345.608 144.05 345.418 143.854 345.57 144.003 339.319 138.213 339.477 138.352 332.729 132.729 332.896 132.861 325.693 127.482 325.872 127.608 318.258 122.547 318.453 122.669 310.472 118.001 310.687 118.118 302.381 113.918 302.619 114.029 294.032 110.373 294.297 110.475 285.473 107.439 285.769 107.528 276.751 105.185 277.08 105.256 267.911 103.683 268.275 103.728 258.998 102.999 259.393 103.01 250.053 103.201 250.474 103.17 241.113 104.355 241.55 104.275 232.212 106.53 232.651 106.397 223.379 109.798ZM345.698 113.319 354.013 146.964 320.623 137.638C318.494 137.043 317.25 134.836 317.845 132.707 318.44 130.578 320.649 129.335 322.778 129.93L349.558 137.41 344.595 142.224 337.926 115.238C337.396 113.093 338.706 110.924 340.852 110.394 342.998 109.864 345.168 111.173 345.698 113.319Z" fill="#FF0000" fill-opacity="0.101961"/><path d="M43.1115 229.538 41.0831 216.486 40.096 203.494 40.1525 190.742 41.231 178.261 43.3092 166.081 46.3636 154.232 50.3704 142.747 55.3045 131.655 61.1406 120.986 67.8528 110.77 75.415 101.033 83.8012 91.8056 92.9854 83.1133 102.942 74.9829 113.645 67.4407 125.069 60.5125 137.19 54.224 149.983 48.6007 163.423 43.6681 177.487 39.4516 192.151 35.9767 207.391 33.2688 223.183 31.3536 239.504 30.2567 256.33 30.0036 273.638 30.6202 291.406 32.1321 309.608 34.5653 328.224 37.9456 347.228 42.2988 366.599 47.651 378.691 51.5627 376.227 59.1773 364.217 55.2923 364.383 55.3421 345.181 50.0366 345.353 50.0802 326.524 45.7671 326.703 45.8038 308.27 42.4565 308.455 42.4857 290.44 40.0776 290.631 40.0985 273.058 38.6031 273.255 38.6149 256.146 38.0055 256.349 38.0076 239.728 38.2576 239.937 38.249 223.827 39.3318 224.04 39.3117 208.465 41.2006 208.683 41.168 193.664 43.8366 193.887 43.7905 179.448 47.2121 179.675 47.1513 165.839 51.2993 166.069 51.2229 152.859 56.0707 153.091 55.9774 140.531 61.4984 140.763 61.3871 128.875 67.5547 129.107 67.4243 117.915 74.212 118.145 74.0614 107.67 81.4425 107.897 81.2709 98.1637 89.2189 98.3833 89.0257 89.4149 97.5139 89.6257 97.2988 81.4449 106.301 81.6438 106.064 74.2736 115.553 74.4577 115.295 67.9212 125.245 68.0874 124.968 62.4077 135.351 62.5531 135.057 57.7532 145.848 57.8753 145.539 53.9781 156.71 54.0747 156.391 51.1035 167.916 51.1732 167.591 49.151 179.443 49.1931 179.115 48.143 191.268 48.1578 190.942 48.1027 203.369 48.0912 203.048 49.0543 215.724 49.0183 215.412 51.0226 228.309ZM361.905 31.9845 385.018 57.8151 351.148 65.213C348.989 65.6847 346.855 64.3168 346.383 62.1577 345.911 59.9986 347.28 57.8658 349.439 57.3941L376.604 51.4606 374.475 58.0379 355.937 37.3203C354.463 35.673 354.604 33.1432 356.252 31.6698 357.9 30.1964 360.431 30.3372 361.905 31.9845Z" fill="#FF0000" fill-opacity="0.101961"/><path d="M312.909 294.05 336.172 287.46 358.599 281.363 358.482 281.396 380.025 274.831 379.835 274.894 390.274 271.132 390.096 271.201 400.309 266.959 400.097 267.054 410.081 262.21 409.844 262.335 419.595 256.77 419.343 256.926 428.857 250.518 428.603 250.704 437.877 243.333 437.632 243.544 446.664 235.088 446.438 235.317 455.223 225.657 455.023 225.894 463.557 214.909 463.427 215.086 467.42 209.318 474.004 213.872 469.948 219.731 461.251 230.926 452.254 240.82 442.987 249.496 433.462 257.067 423.693 263.646 413.697 269.352 403.489 274.305 393.08 278.629 382.456 282.457 360.758 289.07 338.293 295.177 338.334 295.166 315.091 301.75ZM444.118 220.644 475.01 204.916 473.5 239.539C473.404 241.747 471.535 243.459 469.326 243.363 467.118 243.267 465.405 241.399 465.502 239.191L466.713 211.42 472.529 215.161 447.751 227.776C445.781 228.779 443.371 227.996 442.368 226.026 441.364 224.057 442.148 221.647 444.118 220.644Z" fill="#FF0000" fill-opacity="0.101961"/></g></svg>