<svg width="529" height="265" xmlns="http://www.w3.org/2000/svg" xmlns:xlink="http://www.w3.org/1999/xlink" overflow="hidden"><defs><clipPath id="clip0"><rect x="0" y="0" width="529" height="265"/></clipPath></defs><g clip-path="url(#clip0)"><rect x="0" y="0" width="529" height="264.582" fill="#FFFFFF"/><text font-family="Yu Gothic,Yu Gothic_MSFontService,sans-serif" font-weight="700" font-size="14.6944" transform="matrix(-1.83697e-16 -1.00442 0.997799 -1.84102e-16 26.8259 162)">課題に対する</text><text font-family="Yu Gothic,Yu Gothic_MSFontService,sans-serif" font-weight="700" font-size="14.6944" transform="matrix(-1.83697e-16 -1.00442 0.997799 -1.84102e-16 43.7866 170)">パフォーマンス</text><path d="M51.5 13.5298 51.5 224.995 391.5 223.619" stroke="#172C51" stroke-width="1.33291" stroke-miterlimit="8" fill="none" fill-rule="evenodd"/><path d="M59 212.093C132.606 210.411 160.647 34.7652 223.586 34.077 286.524 33.3887 318.07 211.788 390 213.47" stroke="#172C51" stroke-width="1.99937" stroke-miterlimit="8" fill="none" fill-rule="evenodd"/><text font-family="Yu Gothic,Yu Gothic_MSFontService,sans-serif" font-weight="700" font-size="14.6944" transform="matrix(1 0 0 1.00221 204.273 254)">覚醒度</text><text font-family="Yu Gothic,Yu Gothic_MSFontService,sans-serif" font-weight="700" font-size="14.6944" transform="matrix(1 0 0 1.00221 60.3329 254)">低</text><text font-family="Yu Gothic,Yu Gothic_MSFontService,sans-serif" font-weight="700" font-size="14.6944" transform="matrix(1 0 0 1.00221 372.727 254)">高</text><text font-family="Yu Gothic,Yu Gothic_MSFontService,sans-serif" font-weight="700" font-size="14.6944" transform="matrix(1 0 0 1.00221 32.378 30)">高</text><text font-family="Yu Gothic,Yu Gothic_MSFontService,sans-serif" font-weight="700" font-size="14.6944" transform="matrix(1 0 0 1.00221 32.0319 221)">低</text><path d="M242.663 27.6485 286.369 18.8881 286.631 20.198 242.925 28.9585ZM251.335 31.948 241.497 28.5635 249.279 21.6472C249.554 21.4024 249.976 21.4278 250.22 21.7038 250.464 21.9798 250.439 22.4019 250.163 22.6467L243.236 28.8032 243.01 27.6718 251.767 30.6846C252.116 30.8043 252.301 31.1843 252.181 31.5332 252.062 31.8821 251.683 32.0678 251.335 31.948Z" fill="#172C51"/><text font-family="Yu Gothic,Yu Gothic_MSFontService,sans-serif" font-weight="700" font-size="14.6944" transform="matrix(1 0 0 1.00221 164.935 177)">注意力と</text><text font-family="Yu Gothic,Yu Gothic_MSFontService,sans-serif" font-weight="700" font-size="14.6944" transform="matrix(1 0 0 1.00221 164.935 194)">興味の向上</text><path d="M0.431946 22.5861 22.5188-0.461125 23.4812 0.461125 1.39429 23.5083ZM9.99802 21.1418-0.0021372 24.0022 2.43033 13.8895C2.51641 13.5316 2.8763 13.3113 3.23416 13.3973 3.59203 13.4834 3.81236 13.8433 3.72628 14.2012L1.561 23.2031 0.729746 22.4065 9.63146 19.8603C9.98534 19.7591 10.3543 19.9639 10.4555 20.3178 10.5567 20.6717 10.3519 21.0406 9.99802 21.1418Z" fill="#172C51" transform="matrix(1 0 0 -1.00221 154.5 153.839)"/><text font-family="Yu Gothic,Yu Gothic_MSFontService,sans-serif" font-weight="700" font-size="14.6944" transform="matrix(1 0 0 1.00221 293.378 30)">最適な覚醒</text><text font-family="Yu Gothic,Yu Gothic_MSFontService,sans-serif" font-weight="700" font-size="14.6944" transform="matrix(1 0 0 1.00221 293.378 47)">最適なパフォーマンス</text><text font-family="Yu Gothic,Yu Gothic_MSFontService,sans-serif" font-weight="700" font-size="14.6944" transform="matrix(1 0 0 1.00221 365.797 122)">強い不安による</text><text font-family="Yu Gothic,Yu Gothic_MSFontService,sans-serif" font-weight="700" font-size="14.6944" transform="matrix(1 0 0 1.00221 365.797 139)">パフォーマンスの低下</text><path d="M314.663 122.858 358.369 114.098 358.631 115.408 314.925 124.168ZM323.335 127.158 313.497 123.773 321.279 116.857C321.554 116.612 321.976 116.637 322.22 116.913 322.464 117.189 322.439 117.611 322.163 117.856L315.236 124.013 315.01 122.881 323.767 125.894C324.116 126.014 324.301 126.394 324.181 126.743 324.062 127.092 323.683 127.277 323.335 127.158Z" fill="#172C51"/></g></svg>